<?xml version="1.0" encoding="utf-8"?>
<!-- Generator: Adobe Illustrator 23.0.1, SVG Export Plug-In . SVG Version: 6.00 Build 0)  -->
<svg version="1.1" id="Capa_1" xmlns="http://www.w3.org/2000/svg" xmlns:xlink="http://www.w3.org/1999/xlink" x="0px" y="0px"
	 viewBox="0 0 1302 304" style="enable-background:new 0 0 1302 304;" xml:space="preserve">
<style type="text/css">
	.st0{fill:url(#SVGID_1_);}
	.st1{fill:url(#SVGID_2_);}
	.st2{fill:url(#SVGID_3_);}
	.st3{clip-path:url(#SVGID_5_);}
	.st4{opacity:0.31;fill:url(#SVGID_6_);}
	.st5{fill:#D8D8D8;}
	.st6{fill:#F6F6F6;}
	.st7{clip-path:url(#SVGID_8_);fill:url(#SVGID_9_);}
	.st8{clip-path:url(#SVGID_11_);fill:url(#SVGID_12_);}
	.st9{clip-path:url(#SVGID_14_);fill:url(#SVGID_15_);}
	.st10{clip-path:url(#SVGID_17_);fill:url(#SVGID_18_);}
	.st11{fill:#454545;}
	.st12{font-family:'Quicksand-Medium';}
	.st13{font-size:50px;}
	.st14{fill:#FFA04E;}
	.st15{font-family:'Quicksand-Bold';}
	.st16{font-size:23.7413px;}
	.st17{fill:#FFFFFF;}
	.st18{font-size:25.5934px;}
	.st19{font-family:'Quicksand-Regular';}
	.st20{font-size:20px;}
	.st21{fill:none;stroke:url(#SVGID_19_);stroke-width:4;stroke-linecap:round;stroke-linejoin:round;stroke-miterlimit:10;}
	.st22{fill:none;stroke:url(#SVGID_20_);stroke-width:4;stroke-linecap:round;stroke-linejoin:round;stroke-miterlimit:10;}
</style>
<g>
	<linearGradient id="SVGID_1_" gradientUnits="userSpaceOnUse" x1="0" y1="152.5" x2="1302" y2="152.5">
		<stop  offset="0" style="stop-color:#FFA04E"/>
		<stop  offset="1" style="stop-color:#FF6567"/>
	</linearGradient>
	<rect y="1" class="st0" width="1302" height="303"/>
</g>
<linearGradient id="SVGID_2_" gradientUnits="userSpaceOnUse" x1="166" y1="129.5" x2="286" y2="129.5">
	<stop  offset="0" style="stop-color:#7063F1"/>
	<stop  offset="1" style="stop-color:#3A79F3"/>
</linearGradient>
<path class="st1" d="M275.1,108h-98.2c-6,0-10.9,4.9-10.9,10.9V151h120v-32.1C286,112.9,281.1,108,275.1,108z"/>
<linearGradient id="SVGID_3_" gradientUnits="userSpaceOnUse" x1="630" y1="129.5" x2="750" y2="129.5">
	<stop  offset="0" style="stop-color:#7063F1"/>
	<stop  offset="1" style="stop-color:#3A79F3"/>
</linearGradient>
<path class="st2" d="M739.1,108h-98.2c-6,0-10.9,4.9-10.9,10.9V151h120v-32.1C750,112.9,745.1,108,739.1,108z"/>
<g>
	<defs>
		<rect id="SVGID_4_" x="752" width="550" height="303.5"/>
	</defs>
	<clipPath id="SVGID_5_">
		<use xlink:href="#SVGID_4_"  style="overflow:visible;"/>
	</clipPath>
	<g class="st3">
		<linearGradient id="SVGID_6_" gradientUnits="userSpaceOnUse" x1="1178.3933" y1="337.3327" x2="1254.53" y2="205.4601">
			<stop  offset="0" style="stop-color:#454545"/>
			<stop  offset="1" style="stop-color:#454545;stop-opacity:0"/>
		</linearGradient>
		<polygon class="st4" points="1139.8,139.2 1442,314.1 1290.4,402 991.2,228.2 		"/>
		<polygon class="st5" points="999.3,-40.7 1301.5,134.2 1301.5,394.9 1289.4,402 999.3,220.1 987.2,-33.6 		"/>
		<polygon class="st6" points="987.2,-33.6 1289.4,141.2 1289.4,402 987.2,227.2 		"/>
		<g>
			<defs>
				<path id="SVGID_7_" d="M1028.8-1.1c0,0,7.9,8.9-0.2,17c0,0-24.3,6.1-26.3-5.1c-2-11.1-3-30.3-3-32.3s7.1-30.3,12.1-33.4
					s22.2-7.1,22.2-7.1l22.2,2l9.1,15.2l2,18.2l-5.1,13.1l-6.8,5l-15.4-9.1L1028.8-1.1z"/>
			</defs>
			<clipPath id="SVGID_8_">
				<use xlink:href="#SVGID_7_"  style="overflow:visible;"/>
			</clipPath>
			<linearGradient id="SVGID_9_" gradientUnits="userSpaceOnUse" x1="1004.3823" y1="-22.6501" x2="1058.3425" y2="-22.6501">
				<stop  offset="0" style="stop-color:#7063F1"/>
				<stop  offset="1" style="stop-color:#3A79F3"/>
			</linearGradient>
			<path class="st7" d="M1043.1-58.9v9.5c2.8,0,5.7,2.2,5.7,5.7v1c0,18.8-10.1,36.4-26.4,45.9c-0.9,0.5-1.9,0.8-2.8,0.8
				c-2.8,0-5.7-2.2-5.7-5.7v-1c0-18.8,10.1-36.4,26.4-45.9c0.9-0.5,1.9-0.8,2.8-0.8L1043.1-58.9c-2.5,0-5.2,0.7-7.6,2.1h0
				c-19.3,11.2-31.1,31.8-31.1,54.1v1c0,8.9,7.3,15.2,15.2,15.2c2.5,0,5.2-0.7,7.6-2.1l0,0c19.1-9.5,31.1-29,31.1-50.4v-4.8
				C1058.3-52.5,1051.1-58.9,1043.1-58.9z"/>
		</g>
		<g>
			<defs>
				<path id="SVGID_10_" d="M1093.5,36.3c0,0,7.9,8.9-0.2,17c0,0-24.3,6.1-26.3-5.1s-3-30.3-3-32.3s7.1-30.3,12.1-33.4
					c5.1-3,22.2-7.1,22.2-7.1l22.2,2l9.1,15.2l2,18.2l-5.1,13.1l-6.8,5l-15.4-9.1L1093.5,36.3z"/>
			</defs>
			<clipPath id="SVGID_11_">
				<use xlink:href="#SVGID_10_"  style="overflow:visible;"/>
			</clipPath>
			<linearGradient id="SVGID_12_" gradientUnits="userSpaceOnUse" x1="1069.0648" y1="14.7445" x2="1123.0251" y2="14.7445">
				<stop  offset="0" style="stop-color:#7063F1"/>
				<stop  offset="1" style="stop-color:#3A79F3"/>
			</linearGradient>
			<path class="st8" d="M1107.8-21.5v9.5c2.8,0,5.7,2.2,5.7,5.7v1c0,18.8-10.1,36.4-26.4,45.9c-0.9,0.5-1.9,0.8-2.8,0.8
				c-2.8,0-5.7-2.2-5.7-5.7v-1c0-18.8,10.1-36.4,26.4-45.9c0.9-0.5,1.9-0.8,2.8-0.8L1107.8-21.5c-2.5,0-5.2,0.7-7.6,2.1h0
				c-19.3,11.2-31.1,31.8-31.1,54.1v1c0,8.9,7.3,15.2,15.2,15.2c2.5,0,5.2-0.7,7.6-2.1l0,0c19.1-9.5,31.1-29,31.1-50.4v-4.8
				C1123-15.1,1115.7-21.5,1107.8-21.5z"/>
		</g>
		<g>
			<defs>
				<path id="SVGID_13_" d="M1169.3,80.8c0,0,7.9,8.9-0.2,17c0,0-24.3,6.1-26.3-5.1c-2-11.1-3-30.3-3-32.3s7.1-30.3,12.1-33.4
					c5.1-3,22.2-7.1,22.2-7.1l22.2,2l9.1,15.2l2,18.2l-5.1,13.1l-6.8,5l-15.4-9.1L1169.3,80.8z"/>
			</defs>
			<clipPath id="SVGID_14_">
				<use xlink:href="#SVGID_13_"  style="overflow:visible;"/>
			</clipPath>
			<linearGradient id="SVGID_15_" gradientUnits="userSpaceOnUse" x1="1144.8646" y1="59.2138" x2="1198.825" y2="59.2138">
				<stop  offset="0" style="stop-color:#7063F1"/>
				<stop  offset="1" style="stop-color:#3A79F3"/>
			</linearGradient>
			<path class="st9" d="M1183.6,23v9.5c2.8,0,5.7,2.2,5.7,5.7v1c0,18.8-10.1,36.4-26.4,45.9c-0.9,0.5-1.9,0.8-2.8,0.8
				c-2.8,0-5.7-2.2-5.7-5.7v-1c0-18.8,10.1-36.4,26.4-45.9c0.9-0.5,1.9-0.8,2.8-0.8L1183.6,23c-2.5,0-5.2,0.7-7.6,2.1l0,0
				c-19.3,11.2-31.1,31.8-31.1,54.1v1c0,8.9,7.3,15.2,15.2,15.2c2.5,0,5.2-0.7,7.6-2.1v0c19.1-9.5,31.1-29,31.1-50.4v-4.8
				C1198.8,29.3,1191.5,23,1183.6,23z"/>
		</g>
		<g>
			<defs>
				<path id="SVGID_16_" d="M1232,116.2c0,0,7.9,8.9-0.2,17c0,0-24.3,6.1-26.3-5.1s-3-30.3-3-32.3c0-2,7.1-30.3,12.1-33.4
					s22.2-7.1,22.2-7.1l22.2,2l9.1,15.2l2,18.2l-5.1,13.1l-6.8,5l-15.4-9.1L1232,116.2z"/>
			</defs>
			<clipPath id="SVGID_17_">
				<use xlink:href="#SVGID_16_"  style="overflow:visible;"/>
			</clipPath>
			<linearGradient id="SVGID_18_" gradientUnits="userSpaceOnUse" x1="1207.5259" y1="94.587" x2="1261.4861" y2="94.587">
				<stop  offset="0" style="stop-color:#7063F1"/>
				<stop  offset="1" style="stop-color:#3A79F3"/>
			</linearGradient>
			<path class="st10" d="M1246.3,58.4v9.5c2.8,0,5.7,2.2,5.7,5.7v1c0,18.8-10.1,36.4-26.4,45.9c-0.9,0.5-1.9,0.8-2.8,0.8
				c-2.8,0-5.7-2.2-5.7-5.7v-1c0-18.8,10.1-36.4,26.4-45.9c0.9-0.5,1.9-0.8,2.8-0.8L1246.3,58.4c-2.5,0-5.2,0.7-7.6,2.1h0
				c-19.3,11.2-31.1,31.8-31.1,54.1v1c0,8.9,7.3,15.2,15.2,15.2c2.5,0,5.2-0.7,7.6-2.1l0,0c19.1-9.5,31.1-29,31.1-50.4v-4.8
				C1261.5,64.7,1254.2,58.4,1246.3,58.4z"/>
		</g>
		<g>
			<path class="st11" d="M1011.6,173.7v-18.2l21.1,12.2v-56.2l-18.2-10.5V87c5.3,2,9.8,3.4,13.5,4.1c3.7,0.7,7.2,1,10.7,1l16.5,9.5
				v79l18.2,10.5v18.2L1011.6,173.7z"/>
			<path class="st11" d="M1126.8,240.2v-23.3l-42.1-24.3v-15.5l35.5-38l27.6,15.9v56.8l11.2,6.5v17.2l-11.2-6.5v23.3L1126.8,240.2z
				 M1106.2,187.9l20.5,11.8V184c0-3.2,0.1-6.8,0.3-10.8c0.2-4,0.4-7.5,0.6-10.4l-0.6-0.4c-1.2,1.9-2.5,3.9-3.8,5.9
				c-1.3,2-2.7,4-4.1,5.9L1106.2,187.9z"/>
		</g>
		<g>
			<path class="st11" d="M1185.4,210.3v-30.4l7.5,4.3l4.9,16.4c0.3,1.1,0.6,2.2,0.9,3.3c0.3,1.1,0.6,2.2,0.9,3.3l0.2,0.1
				c0.3-0.8,0.6-1.5,0.9-2.3c0.3-0.8,0.6-1.6,0.9-2.3l4.8-10.8l7.5,4.3v30.4l-6.3-3.6V212c0-0.7,0-1.6,0.1-2.4
				c0.1-0.9,0.1-1.7,0.2-2.6c0.1-0.9,0.2-1.7,0.3-2.5c0.1-0.8,0.2-1.6,0.3-2.3l-0.2-0.1l-2.5,5.8l-4.3,9.1l-3.8-2.2l-4.3-14.1
				l-2.4-8.6l-0.2-0.1c0.1,0.8,0.2,1.7,0.3,2.6c0.1,0.9,0.2,1.9,0.3,2.9c0.1,1,0.2,1.9,0.2,2.9c0.1,0.9,0.1,1.8,0.1,2.5v11.2
				L1185.4,210.3z"/>
			<path class="st11" d="M1217.1,228.6l9.5-24.9l8.3,4.8l9.5,35.9l-7.3-4.2l-1.9-8.3l-9.3-5.4l-1.9,6.2L1217.1,228.6z M1228.1,219.6
				l-0.7,2.4l6.5,3.7l-0.7-3.2c-0.4-1.8-0.9-3.6-1.3-5.6c-0.4-1.9-0.8-3.8-1.2-5.6l-0.2-0.1c-0.4,1.4-0.8,2.8-1.1,4.3
				C1229,217,1228.5,218.3,1228.1,219.6z"/>
			<path class="st11" d="M1252.1,248.9V238l-9.2-24.9l7.4,4.3l2.7,8.6c0.4,1.4,0.8,2.8,1.2,4.1c0.4,1.3,0.8,2.7,1.2,4.1l0.2,0.1
				c0.4-0.9,0.9-1.8,1.3-2.6s0.8-1.7,1.3-2.6l2.8-5.4l7.2,4.2L1259,242v10.8L1252.1,248.9z"/>
		</g>
		<g>
			<g>
				<path class="st11" d="M1229.9,305.3l-45.7-26.5v-52.4l45.7,26.5V305.3z M1186.3,277.6l41.6,24.1v-47.7l-41.6-24.1V277.6z"/>
			</g>
			<g>
				<rect x="1206.1" y="240.7" class="st11" width="2" height="50.3"/>
			</g>
			<g>
				
					<rect x="1206.1" y="240.5" transform="matrix(0.4977 -0.8674 0.8674 0.4977 375.9373 1180.4943)" class="st11" width="2" height="50.3"/>
			</g>
		</g>
	</g>
</g>
<text transform="matrix(1 0 0 1 63.207 73.8291)" class="st6 st12 st13">Días de Depósito</text>
<g>
	<g>
		<rect x="429.6" y="169" class="st6" width="119.9" height="60"/>
		<rect x="164.2" y="169" class="st6" width="119.9" height="60"/>
		<rect x="562.2" y="169" class="st6" width="119.9" height="60"/>
		<rect x="296.9" y="169" class="st6" width="119.9" height="60"/>
		<rect x="694.9" y="169" class="st6" width="119.9" height="60"/>
		<path class="st6" d="M827.6,169v60h59.9c16.6,0,30-13.4,30-30v0c0-16.6-13.4-30-30-30H827.6z"/>
		<path class="st6" d="M151.5,169H91.5c-16.6,0-30,13.4-30,30v0c0,16.6,13.4,30,30,30h59.9V169z"/>
	</g>
	<text transform="matrix(1 0 0 1 93.5264 207.8711)" class="st14 st15 st16">LU</text>
	<text transform="matrix(1 0 0 1 207.2598 207.8711)" class="st14 st15 st16">MA</text>
	<text transform="matrix(1 0 0 1 343.5801 207.8711)" class="st14 st15 st16">MI</text>
	<text transform="matrix(1 0 0 1 475.6455 207.8711)" class="st14 st15 st16">JU</text>
	<text transform="matrix(1 0 0 1 611.2539 207.8711)" class="st14 st15 st16">VI</text>
	<text transform="matrix(1 0 0 1 739.8945 207.8711)" class="st14 st15 st16">SA</text>
	<text transform="matrix(1 0 0 1 855.0693 207.8711)" class="st14 st15 st16">DO</text>
</g>
<g>
	<text transform="matrix(1 0 0 1 646.4297 137.5122)" class="st17 st15 st18">Martes</text>
</g>
<g>
	<text transform="matrix(1 0 0 1 182.4297 137.0122)" class="st17 st15 st18">Viernes</text>
</g>
<g>
	<text transform="matrix(1 0 0 1 373.4102 273.4189)" class="st6 st19 st20">Transacciónes realizadas</text>
</g>
<linearGradient id="SVGID_19_" gradientUnits="userSpaceOnUse" x1="61" y1="158" x2="420" y2="158">
	<stop  offset="0" style="stop-color:#7063F1"/>
	<stop  offset="1" style="stop-color:#3A79F3"/>
</linearGradient>
<polyline class="st21" points="63,164 63,152 418,152 418,164 "/>
<linearGradient id="SVGID_20_" gradientUnits="userSpaceOnUse" x1="429" y1="158" x2="921" y2="158">
	<stop  offset="0" style="stop-color:#7063F1"/>
	<stop  offset="1" style="stop-color:#3A79F3"/>
</linearGradient>
<polyline class="st22" points="431,164 431,152 919,152 919,164 "/>
</svg>
