<?xml version="1.0" encoding="utf-8"?>
<!-- Generator: Adobe Illustrator 23.0.1, SVG Export Plug-In . SVG Version: 6.00 Build 0)  -->
<svg version="1.1" id="Capa_1" xmlns="http://www.w3.org/2000/svg" xmlns:xlink="http://www.w3.org/1999/xlink" x="0px" y="0px"
	 viewBox="0 0 512 352.3" style="enable-background:new 0 0 512 352.3;" xml:space="preserve">
<style type="text/css">
	.st0{fill:#7063F3;}
</style>
<g>
	<g>
		<path class="st0" d="M481.6,90.2l-9.5-6.7c-9.5-6.7-19-13.5-28.6-20.1c-10.1-7-20.3-14.4-30.1-21.6c-11.3-8.3-23.1-16.9-35-24.9
			c-1.6-1.1-3.2-2.3-4.9-3.6C365,6.9,352.6-1.2,339,0.2c-18.4,1.8-32.7,20.5-32.7,36.1v41.2c0,0-0.5,0-1.6,0
			c-40.2,0-239.9,10.1-239.9,210.4c0,5.8,4.5,10.6,10.2,11.6c0.7,0.1,1.5,0.2,2.2,0.2c4.9,0,9.6-3.1,11.2-7.9
			c1.5-4.2,36.7-103.8,194.9-103.8c7.9,0,17.1,0.3,23,0.8v38.4c0,12.8,9.4,25.6,21.8,32.6c4.3,2.4,9.6,3.7,14.4,3.7
			c11.7,0,21.5-7.3,29-13.1c2-1.6,4.1-3.1,5.9-4.2c7-4.5,14-9.4,20.7-14.1c3.4-2.4,6.8-4.8,10.2-7.1c18.5-12.7,37.1-26.1,55.1-39
			l5.1-3.7c2.3-1.7,4.7-3.3,7.1-5c2-1.4,4-2.7,5.5-3.9c13.7-9,30.8-20.2,30.8-41.7C512,110.9,497.9,101.2,481.6,90.2z M467.9,153.8
			c-1.9,1.3-3.8,2.7-5.7,4c-2.5,1.7-5,3.4-7.4,5.2l-5.1,3.7c-17.9,12.8-36.3,26.1-54.6,38.7c-3.5,2.4-6.9,4.8-10.4,7.2
			c-6.5,4.6-13.2,9.3-19.8,13.5c-2.5,1.6-5,3.6-7.5,5.5c-4.4,3.4-10.5,8.2-14.2,8.2c-0.4,0-2.6-0.1-3.5-0.6
			c-4.8-2.7-9.9-7.9-9.9-12.1v-49.3c0-6.1-3.2-11.2-9.3-11.7c-12.7-1.1-24.5-1.6-36.5-1.6c-104.4,0-160.9,40.5-190.3,74.4
			c10.9-49.4,39.7-86.1,85.6-109.7c49.4-25.3,105.1-28,126.7-28c6.3,0,10-0.9,10.2-0.9c0.3,0,0.6-1.1,0.8-1.1h4c6.5,0,8.8-3,8.8-9.5
			V36.2c0-5.4,6.8-12.2,11.4-12.6c4.7-0.3,11.7,4.3,17.3,8.5c2,1.5,4.3,3,6.2,4.2c11.5,7.8,23.3,16.3,34.5,24.4
			c9.9,7.3,20.3,14.8,30.7,21.9c9.5,6.6,19,13.3,28.4,19.9l9.7,6.9c17.2,11.7,20.3,15,20.3,22C488.4,139.1,482.2,144.4,467.9,153.8z
			"/>
		<path class="st0" d="M363.4,352.3c29.6,0,49-20.4,49-50.3V272c0-6.5-5.3-11.8-11.8-11.8c-6.5,0-11.8,5.3-11.8,11.8V302
			c0,17.1-8.7,26.8-25.4,26.8H57.7c-17.5,0-34.1-10.5-34.1-26.8v-195c0-16.1,16.9-31.5,34.1-31.5h116.1c6.5,0,11.8-5.3,11.8-11.8
			s-5.3-11.8-11.8-11.8H57.7C27.5,51.8,0,77.8,0,106.9v195c0,29,27.5,50.3,57.7,50.3H363.4z"/>
	</g>
</g>
</svg>
