<?xml version="1.0" encoding="utf-8"?>
<!-- Generator: Adobe Illustrator 23.0.1, SVG Export Plug-In . SVG Version: 6.00 Build 0)  -->
<svg version="1.1" id="Capa_1" xmlns="http://www.w3.org/2000/svg" xmlns:xlink="http://www.w3.org/1999/xlink" x="0px" y="0px"
	 viewBox="0 0 60 60" style="enable-background:new 0 0 60 60;" xml:space="preserve">
<style type="text/css">
	.st0{fill:#3A79F3;}
</style>
<g>
	<g>
		<path class="st0" d="M26,26H0V0h26V26z M5,21h16V5H5V21z"/>
	</g>
	<g>
		<rect x="9.9" y="9.9" class="st0" width="5.6" height="5.6"/>
	</g>
	<g>
		<path class="st0" d="M60,26H34V0h26V26z M39,21h16V5H39V21z"/>
	</g>
	<g>
		<rect x="43.9" y="9.9" class="st0" width="5.6" height="5.6"/>
	</g>
	<g>
		<rect x="52.9" y="47.5" class="st0" width="5.6" height="12"/>
	</g>
	<g>
		<rect x="45.9" y="40.9" class="st0" width="5.6" height="5.6"/>
	</g>
	<g>
		<rect x="53.9" y="37.9" class="st0" width="5.6" height="5.6"/>
	</g>
	<g>
		<rect x="33.9" y="32.9" class="st0" width="5.6" height="11.6"/>
	</g>
	<g>
		
			<rect x="39.9" y="47.9" transform="matrix(6.123234e-17 -1 1 6.123234e-17 -13.9999 99.4473)" class="st0" width="5.6" height="17.6"/>
	</g>
	<g>
		
			<rect x="50.9" y="29.9" transform="matrix(6.123234e-17 -1 1 6.123234e-17 18.0001 89.4473)" class="st0" width="5.6" height="11.6"/>
	</g>
	<g>
		<rect x="38.9" y="38.9" class="st0" width="5.6" height="11.6"/>
	</g>
	<g>
		<path class="st0" d="M26,60H0V34h26V60z M5,55h16V39H5V55z"/>
	</g>
	<g>
		<rect x="9.9" y="43.9" class="st0" width="5.6" height="5.6"/>
	</g>
</g>
<g>
	<g>
		<path class="st0" d="M26,26H0V0h26V26z M5,21h16V5H5V21z"/>
	</g>
	<g>
		<rect x="9.9" y="9.9" class="st0" width="5.6" height="5.6"/>
	</g>
	<g>
		<path class="st0" d="M60,26H34V0h26V26z M39,21h16V5H39V21z"/>
	</g>
	<g>
		<rect x="43.9" y="9.9" class="st0" width="5.6" height="5.6"/>
	</g>
	<g>
		<rect x="52.9" y="47.5" class="st0" width="5.6" height="12"/>
	</g>
	<g>
		<rect x="45.9" y="40.9" class="st0" width="5.6" height="5.6"/>
	</g>
	<g>
		<rect x="53.9" y="37.9" class="st0" width="5.6" height="5.6"/>
	</g>
	<g>
		<rect x="33.9" y="32.9" class="st0" width="5.6" height="11.6"/>
	</g>
	<g>
		
			<rect x="39.9" y="47.9" transform="matrix(6.123234e-17 -1 1 6.123234e-17 -13.9999 99.4473)" class="st0" width="5.6" height="17.6"/>
	</g>
	<g>
		
			<rect x="50.9" y="29.9" transform="matrix(6.123234e-17 -1 1 6.123234e-17 18.0001 89.4473)" class="st0" width="5.6" height="11.6"/>
	</g>
	<g>
		<rect x="38.9" y="38.9" class="st0" width="5.6" height="11.6"/>
	</g>
	<g>
		<path class="st0" d="M26,60H0V34h26V60z M5,55h16V39H5V55z"/>
	</g>
	<g>
		<rect x="9.9" y="43.9" class="st0" width="5.6" height="5.6"/>
	</g>
</g>
</svg>
