<?xml version="1.0" encoding="utf-8"?>
<!-- Generator: Adobe Illustrator 22.1.0, SVG Export Plug-In . SVG Version: 6.00 Build 0)  -->
<svg version="1.1" id="Capa_1" xmlns="http://www.w3.org/2000/svg" xmlns:xlink="http://www.w3.org/1999/xlink" x="0px" y="0px"
	 viewBox="0 0 612.6 621.6" style="enable-background:new 0 0 612.6 621.6;" xml:space="preserve">
<style type="text/css">
	.st0{opacity:0.2;fill:url(#SVGID_1_);}
	.st1{fill:#D8D8D8;}
	.st2{fill:#F6F6F6;}
	.st3{clip-path:url(#SVGID_3_);fill:url(#SVGID_4_);}
	.st4{clip-path:url(#SVGID_6_);fill:url(#SVGID_7_);}
	.st5{clip-path:url(#SVGID_9_);fill:url(#SVGID_10_);}
	.st6{clip-path:url(#SVGID_12_);fill:url(#SVGID_13_);}
	.st7{fill:#454545;}
	.st8{fill:none;stroke:#454545;stroke-width:2;stroke-miterlimit:10;}
</style>
<g>
	
		<linearGradient id="SVGID_1_" gradientUnits="userSpaceOnUse" x1="-835.5323" y1="477.1177" x2="-760.199" y2="346.6366" gradientTransform="matrix(-1 0 0 1 -507.9984 0)">
		<stop  offset="0" style="stop-color:#454545"/>
		<stop  offset="1" style="stop-color:#454545;stop-opacity:0"/>
	</linearGradient>
	<polygon class="st0" points="365.7,281.1 66.7,454.1 216.7,541.1 512.7,369.1 	"/>
	<polygon class="st1" points="504.7,103.1 205.7,276.1 205.7,534.1 217.7,541.1 504.7,361.1 516.7,110.1 	"/>
	<polygon class="st2" points="516.7,110.1 217.7,283.1 217.7,541.1 516.7,368.1 	"/>
	<g>
		<defs>
			<path id="SVGID_2_" d="M475.5,142.3c0,0-7.8,8.8,0.2,16.8c0,0,24,6,26-5s3-30,3-32s-7-30-12-33s-22-7-22-7l-22,2l-9,15l-2,18
				l5,13l6.8,5l15.2-9L475.5,142.3z"/>
		</defs>
		<clipPath id="SVGID_3_">
			<use xlink:href="#SVGID_2_"  style="overflow:visible;"/>
		</clipPath>
		
			<linearGradient id="SVGID_4_" gradientUnits="userSpaceOnUse" x1="-1007.7072" y1="120.9335" x2="-954.3163" y2="120.9335" gradientTransform="matrix(-1 0 0 1 -507.9984 0)">
			<stop  offset="0" style="stop-color:#7063F1"/>
			<stop  offset="1" style="stop-color:#3A79F3"/>
		</linearGradient>
		<path class="st3" d="M461.4,85.1v9.4c-2.7,0-5.7,2.2-5.7,5.7v1c0,18.6,10,36.1,26.1,45.4c0.9,0.5,1.8,0.8,2.8,0.8
			c2.7,0,5.7-2.2,5.7-5.7v-1c0-18.6-10-36.1-26.1-45.4c-0.9-0.5-1.8-0.8-2.8-0.8L461.4,85.1c2.5,0,5.1,0.6,7.5,2.1h0
			c19.1,11.1,30.8,31.5,30.8,53.5v1c0,8.8-7.2,15.1-15.1,15.1c-2.5,0-5.1-0.6-7.5-2.1l0,0c-18.9-9.4-30.8-28.7-30.8-49.8v-4.7
			C446.3,91.4,453.5,85.1,461.4,85.1z"/>
	</g>
	<g>
		<defs>
			<path id="SVGID_5_" d="M411.5,179.3c0,0-7.8,8.8,0.2,16.8c0,0,24,6,26-5s3-30,3-32s-7-30-12-33s-22-7-22-7l-22,2l-9,15l-2,18
				l5,13l6.8,5l15.2-9L411.5,179.3z"/>
		</defs>
		<clipPath id="SVGID_6_">
			<use xlink:href="#SVGID_5_"  style="overflow:visible;"/>
		</clipPath>
		
			<linearGradient id="SVGID_7_" gradientUnits="userSpaceOnUse" x1="-943.7072" y1="157.9335" x2="-890.3163" y2="157.9335" gradientTransform="matrix(-1 0 0 1 -507.9984 0)">
			<stop  offset="0" style="stop-color:#7063F1"/>
			<stop  offset="1" style="stop-color:#3A79F3"/>
		</linearGradient>
		<path class="st4" d="M397.4,122.1v9.4c-2.7,0-5.7,2.2-5.7,5.7v1c0,18.6,10,36.1,26.1,45.4c0.9,0.5,1.8,0.8,2.8,0.8
			c2.7,0,5.7-2.2,5.7-5.7v-1c0-18.6-10-36.1-26.1-45.4c-0.9-0.5-1.8-0.8-2.8-0.8L397.4,122.1c2.5,0,5.1,0.6,7.5,2.1h0
			c19.1,11.1,30.8,31.5,30.8,53.5v1c0,8.8-7.2,15.1-15.1,15.1c-2.5,0-5.1-0.6-7.5-2.1l0,0c-18.9-9.4-30.8-28.7-30.8-49.8v-4.7
			C382.3,128.4,389.5,122.1,397.4,122.1z"/>
	</g>
	<g>
		<defs>
			<path id="SVGID_8_" d="M336.5,223.3c0,0-7.8,8.8,0.2,16.8c0,0,24,6,26-5s3-30,3-32s-7-30-12-33s-22-7-22-7l-22,2l-9,15l-2,18
				l5,13l6.8,5l15.2-9L336.5,223.3z"/>
		</defs>
		<clipPath id="SVGID_9_">
			<use xlink:href="#SVGID_8_"  style="overflow:visible;"/>
		</clipPath>
		
			<linearGradient id="SVGID_10_" gradientUnits="userSpaceOnUse" x1="-868.7072" y1="201.9335" x2="-815.3163" y2="201.9335" gradientTransform="matrix(-1 0 0 1 -507.9984 0)">
			<stop  offset="0" style="stop-color:#7063F1"/>
			<stop  offset="1" style="stop-color:#3A79F3"/>
		</linearGradient>
		<path class="st5" d="M322.4,166.1v9.4c-2.7,0-5.7,2.2-5.7,5.7v1c0,18.6,10,36.1,26.1,45.4c0.9,0.5,1.8,0.8,2.8,0.8
			c2.7,0,5.7-2.2,5.7-5.7v-1c0-18.6-10-36.1-26.1-45.4c-0.9-0.5-1.8-0.8-2.8-0.8L322.4,166.1c2.5,0,5.1,0.6,7.5,2.1h0
			c19.1,11.1,30.8,31.5,30.8,53.5v1c0,8.8-7.2,15.1-15.1,15.1c-2.5,0-5.1-0.6-7.5-2.1l0,0c-18.9-9.4-30.8-28.7-30.8-49.8v-4.7
			C307.3,172.4,314.5,166.1,322.4,166.1z"/>
	</g>
	<g>
		<defs>
			<path id="SVGID_11_" d="M274.5,258.3c0,0-7.8,8.8,0.2,16.8c0,0,24,6,26-5s3-30,3-32s-7-30-12-33s-22-7-22-7l-22,2l-9,15l-2,18
				l5,13l6.8,5l15.2-9L274.5,258.3z"/>
		</defs>
		<clipPath id="SVGID_12_">
			<use xlink:href="#SVGID_11_"  style="overflow:visible;"/>
		</clipPath>
		
			<linearGradient id="SVGID_13_" gradientUnits="userSpaceOnUse" x1="-806.7072" y1="236.9335" x2="-753.3163" y2="236.9335" gradientTransform="matrix(-1 0 0 1 -507.9984 0)">
			<stop  offset="0" style="stop-color:#7063F1"/>
			<stop  offset="1" style="stop-color:#3A79F3"/>
		</linearGradient>
		<path class="st6" d="M260.4,201.1v9.4c-2.7,0-5.7,2.2-5.7,5.7v1c0,18.6,10,36.1,26.1,45.4c0.9,0.5,1.8,0.8,2.8,0.8
			c2.7,0,5.7-2.2,5.7-5.7v-1c0-18.6-10-36.1-26.1-45.4c-0.9-0.5-1.8-0.8-2.8-0.8L260.4,201.1c2.5,0,5.1,0.6,7.5,2.1h0
			c19.1,11.1,30.8,31.5,30.8,53.5v1c0,8.8-7.2,15.1-15.1,15.1c-2.5,0-5.1-0.6-7.5-2.1l0,0c-18.9-9.4-30.8-28.7-30.8-49.8v-4.7
			C245.3,207.4,252.5,201.1,260.4,201.1z"/>
	</g>
	<g>
		<path class="st7" d="M248.8,466.2v-18l20.9-12v-55.6l-18,10.3v-13.8c5.3-4,9.7-7.8,13.3-11.3c3.6-3.5,7.2-7.2,10.6-11.2l16.4-9.4
			v78.2l18-10.3v18L248.8,466.2z"/>
		<path class="st7" d="M362.8,400.9v-23l-41.7,23.9v-15.3l35.2-78l27.3-15.6V349l11.1-6.3v17l-11.1,6.3v23L362.8,400.9z
			 M342.5,372.6l20.3-11.6v-15.6c0-3.1,0.1-6.8,0.3-11c0.2-4.2,0.4-7.9,0.6-11l-0.6,0.3c-1.2,3.3-2.5,6.7-3.8,10.2
			c-1.3,3.5-2.7,7-4.1,10.5L342.5,372.6z"/>
	</g>
	<g>
		<path class="st7" d="M408.8,306.7v-30.1l7.4-4.3l4.8,10.6c0.3,0.7,0.6,1.5,0.9,2.2c0.3,0.8,0.6,1.5,0.9,2.3l0.2-0.1
			c0.3-1.1,0.6-2.2,0.9-3.3c0.3-1.1,0.5-2.2,0.9-3.2l4.8-16.1l7.4-4.2v30.1l-6.2,3.5v-11c0-0.7,0-1.6,0.1-2.5
			c0.1-0.9,0.1-1.9,0.2-2.8c0.1-1,0.2-1.9,0.3-2.8c0.1-0.9,0.2-1.8,0.3-2.6l-0.2,0.1L429,281l-4.3,14l-3.7,2.1l-4.3-9l-2.4-5.8
			l-0.2,0.1c0.1,0.7,0.2,1.4,0.3,2.3c0.1,0.8,0.2,1.7,0.3,2.5c0.1,0.9,0.2,1.7,0.2,2.6c0.1,0.9,0.1,1.7,0.1,2.4v11L408.8,306.7z"/>
		<path class="st7" d="M440.2,288.7l9.4-35.5l8.2-4.7l9.4,24.7l-7.2,4.1l-1.8-6.1l-9.2,5.3l-1.8,8.2L440.2,288.7z M451.1,267.2
			l-0.7,3.2l6.4-3.7l-0.7-2.4c-0.4-1.3-0.8-2.6-1.2-4.1c-0.4-1.5-0.8-2.9-1.2-4.2l-0.2,0.1c-0.4,1.8-0.7,3.7-1.1,5.6
			C451.9,263.6,451.5,265.4,451.1,267.2z"/>
		<path class="st7" d="M474.8,268.8v-10.7l-9.1-14.2l7.3-4.2l2.7,5.4c0.4,0.9,0.8,1.8,1.2,2.6c0.4,0.8,0.8,1.7,1.2,2.6l0.2-0.1
			c0.4-1.4,0.9-2.8,1.3-4.1c0.4-1.3,0.8-2.6,1.3-4l2.7-8.5l7.1-4.1l-9.1,24.6V265L474.8,268.8z"/>
	</g>
	<g>
		<polygon class="st8" points="474.9,296.1 431.7,321.2 431.7,370.7 474.9,345.6 		"/>
		<line class="st8" x1="453.3" y1="308.5" x2="453.3" y2="358.3"/>
		<line class="st8" x1="431.7" y1="345.6" x2="474.9" y2="320.8"/>
	</g>
</g>
</svg>
