<?xml version="1.0" encoding="utf-8"?>
<!-- Generator: Adobe Illustrator 23.0.1, SVG Export Plug-In . SVG Version: 6.00 Build 0)  -->
<svg version="1.1" id="Capa_1" xmlns="http://www.w3.org/2000/svg" xmlns:xlink="http://www.w3.org/1999/xlink" x="0px" y="0px"
	 viewBox="0 0 512 512" style="enable-background:new 0 0 512 512;" xml:space="preserve">
<style type="text/css">
	.st0{fill:#6C63EE;}
</style>
<g>
	<g>
		<path class="st0" d="M319.2,69.1l-17.4-4.8c-2.2-0.7-4.4-0.5-6.6,0.7c-2.1,1.2-3.6,3-4.3,5.5L186.6,431.7
			c-0.7,2.4-0.5,4.7,0.7,6.9c1.2,2.1,3,3.6,5.5,4.3l17.3,4.8c2.2,0.8,4.4,0.5,6.6-0.7c2.1-1.2,3.6-3,4.3-5.5L325.4,80.3
			c0.7-2.4,0.5-4.7-0.7-6.9C323.5,71.3,321.7,69.8,319.2,69.1z"/>
		<path class="st0" d="M162.8,139.6c0-2.4-0.9-4.6-2.8-6.4l-14-14c-1.9-1.9-4-2.8-6.4-2.8s-4.6,0.9-6.4,2.8L2.8,249.6
			c-1.9,1.9-2.8,4-2.8,6.4c0,2.4,0.9,4.6,2.8,6.4l130.4,130.4c1.9,1.9,4,2.8,6.4,2.8c2.4,0,4.6-0.9,6.4-2.8l14-14
			c1.9-1.9,2.8-4,2.8-6.4c0-2.4-0.9-4.6-2.8-6.4l-110-110l110-110C161.9,144.2,162.8,142,162.8,139.6z"/>
		<path class="st0" d="M509.2,249.6L378.8,119.2c-1.9-1.9-4-2.8-6.4-2.8c-2.4,0-4.6,0.9-6.4,2.8l-14,14c-1.9,1.9-2.8,4-2.8,6.4
			s0.9,4.6,2.8,6.4l110,110L352,366c-1.9,1.9-2.8,4-2.8,6.4c0,2.4,0.9,4.6,2.8,6.4l14,14c1.9,1.9,4,2.8,6.4,2.8
			c2.4,0,4.6-0.9,6.4-2.8l130.4-130.4c1.9-1.9,2.8-4,2.8-6.4C512,253.6,511.1,251.4,509.2,249.6z"/>
	</g>
</g>
</svg>
