<?xml version="1.0" encoding="utf-8"?>
<!-- Generator: Adobe Illustrator 23.0.1, SVG Export Plug-In . SVG Version: 6.00 Build 0)  -->
<svg version="1.1" id="Capa_1" xmlns="http://www.w3.org/2000/svg" xmlns:xlink="http://www.w3.org/1999/xlink" x="0px" y="0px"
	 viewBox="0 0 27.4 27.4" style="enable-background:new 0 0 27.4 27.4;" xml:space="preserve">
<style type="text/css">
	.st0{fill:#1BD741;}
	.st1{fill:#FFFFFF;}
</style>
<g>
	<path class="st0" d="M13.7,2.3C7.5,2.3,2.4,7.4,2.4,13.7c0,2.2,0.6,4.3,1.8,6.1l0.3,0.4l-1.1,3.9l4.1-1l0.4,0.3
		c1.8,1.1,3.8,1.7,5.9,1.7c6.3,0,11.4-5.1,11.4-11.4S20,2.3,13.7,2.3z M20.7,17.2l-0.1,0.7c-0.2,0.7-0.6,1.4-1.2,1.8
		c-0.8,0.5-1.9,0.8-3.2,0.4c-4.2-1.2-6.5-3.9-7.8-5.6C7.1,12.7,6.6,11,6.9,9.6c0.2-0.9,0.9-1.7,1.3-2C8.4,7.3,8.7,7.2,9,7.3l0.9,0
		c0.2,0,0.3,0.1,0.4,0.3l1.3,3c0.1,0.2,0,0.3-0.1,0.5l-1.1,1.3c-0.1,0.1-0.1,0.3,0,0.4c1.5,2.9,4.2,4,5,4.3c0.1,0,0.3,0,0.4-0.1
		l1.2-1.5c0.1-0.2,0.4-0.2,0.6-0.1l3,1.4C20.6,16.7,20.7,17,20.7,17.2z"/>
	<path class="st1" d="M13.7,0C6.2,0,0,6.1,0,13.7c0,2.4,0.6,4.8,1.9,6.9L0,27.4l7-1.8c2,1.1,4.3,1.7,6.7,1.7
		c7.5,0,13.7-6.1,13.7-13.7S21.3,0,13.7,0z M13.7,25c-2.1,0-4.1-0.6-5.9-1.7l-0.4-0.3l-4.1,1l1.1-3.9l-0.3-0.4
		C3,18,2.4,15.9,2.4,13.7c0-6.3,5.1-11.4,11.4-11.4s11.4,5.1,11.4,11.4S20,25,13.7,25z"/>
	<path class="st1" d="M20.4,16.7l-3-1.4c-0.2-0.1-0.4,0-0.6,0.1l-1.2,1.5c-0.1,0.1-0.2,0.2-0.4,0.1c-0.8-0.3-3.5-1.4-5-4.3
		c-0.1-0.1,0-0.3,0-0.4l1.1-1.3c0.1-0.1,0.1-0.3,0.1-0.5l-1.3-3C10.2,7.4,10,7.3,9.9,7.3L9,7.3c-0.3,0-0.6,0.1-0.8,0.3
		c-0.4,0.4-1.1,1.1-1.3,2c-0.3,1.4,0.2,3.1,1.4,4.8c1.3,1.7,3.6,4.5,7.8,5.6c1.3,0.4,2.4,0.1,3.2-0.4c0.6-0.4,1.1-1.1,1.2-1.8
		l0.1-0.7C20.7,17,20.6,16.7,20.4,16.7z"/>
</g>
</svg>
