<?xml version="1.0" encoding="utf-8"?>
<!-- Generator: Adobe Illustrator 23.0.1, SVG Export Plug-In . SVG Version: 6.00 Build 0)  -->
<svg version="1.1" id="Capa_1" xmlns="http://www.w3.org/2000/svg" xmlns:xlink="http://www.w3.org/1999/xlink" x="0px" y="0px"
	 viewBox="0 0 512 512" style="enable-background:new 0 0 512 512;" xml:space="preserve">
<style type="text/css">
	.st0{fill:#7063F3;}
</style>
<g>
	<g>
		<g>
			<g>
				<path class="st0" d="M283.6,506.9h-53.1c-10.1,0-13,0-40.6-68.2l-18.4-7.5c-56.7,25.7-63.5,25.7-66.4,25.7
					c-3.8,0-8-1.6-10.6-4.3l-37.5-36.7c-7.5-7.4-9.4-9.3,20.4-76.8L70,321.6C0,296.6,0,293.5,0,283.1v-52C0,220.7,0,218,69.8,191
					l7.4-17.6C45.8,107.2,48,105.1,55.5,97.6l37.6-36.7c2.6-2.6,6.8-4.2,10.6-4.2c2.7,0,9.8,0,67.4,24.3l18.3-7.4
					c25.6-68.5,28.9-68.5,39-68.5h53.1c10.1,0,13,0,40.6,68.3l18.4,7.4c56.6-25.6,63.4-25.6,66.4-25.6c3.7,0,7.9,1.6,10.6,4.2
					L454.9,96c7.3,7.2,9.4,9.3-20.4,76.8l7.4,17.6c70.1,25,70.1,28,70.1,38.5v52c0,10.4,0,13.1-69.8,40.1l-7.4,17.6
					c31.4,66.2,29.3,68.3,21.8,75.8l-37.7,36.8c-2.7,2.6-6.8,4.2-10.6,4.2l0,0c-2.7,0-9.7,0-67.3-24.4l-18.4,7.4
					C297,506.9,294,506.9,283.6,506.9z M238.2,478.5h37.6c5-10.7,14.7-35,22.4-55.9c1.4-3.7,4.3-6.7,8-8.2l29.6-12
					c3.5-1.4,7.4-1.4,10.9,0.1c21.3,9,46.4,19.2,57.8,23l26.3-25.8c-4.2-11.2-14.9-34.8-24.4-54.7c-1.7-3.6-1.8-7.9-0.3-11.6
					l12.2-29c1.5-3.6,4.4-6.4,8-7.7c21.4-8.3,46.4-18.5,57.3-23.7v-36.1c-11.1-4.9-35.8-14.3-57.1-21.9c-3.8-1.3-6.8-4.2-8.4-7.9
					l-12.2-29c-1.5-3.6-1.5-7.7,0.1-11.3c9.1-20.6,19.3-44.9,23.3-56.2L403,85c-11.3,4.1-35.8,14.6-56.5,24.1
					c-3.5,1.6-7.6,1.7-11.2,0.2l-29.6-11.9c-3.6-1.4-6.4-4.3-7.9-7.9c-8.4-21-18.8-45.4-24.2-56.1h-37.6c-5,10.8-14.7,35-22.4,55.9
					c-1.4,3.8-4.3,6.8-8,8.2l-29.5,12c-3.5,1.4-7.4,1.4-10.9-0.1c-21.3-9-46.5-19.2-57.9-22.9l-26.3,25.8
					c4.3,11.2,14.9,34.8,24.4,54.8c1.7,3.6,1.8,7.9,0.3,11.6l-12.3,28.9c-1.5,3.6-4.4,6.3-8,7.7c-21.4,8.3-46.3,18.4-57.2,23.6v36.1
					c11,5,35.8,14.4,57.1,22c3.8,1.4,6.8,4.2,8.3,7.9l12.2,28.9c1.5,3.6,1.5,7.7-0.1,11.2c-9.1,20.6-19.3,44.9-23.3,56.2l26.3,25.8
					c11.3-4.1,35.8-14.7,56.5-24.1c3.5-1.6,7.6-1.7,11.2-0.3l29.6,12c3.6,1.4,6.4,4.3,7.8,7.9C222.5,443.5,232.9,467.9,238.2,478.5z
					 M256,346.1c-50.6,0-91.7-40.4-91.7-90.1c0-49.6,41.2-90,91.7-90c50.5,0,91.7,40.4,91.7,90C347.7,305.6,306.5,346.1,256,346.1z
					 M256,194.4c-34.9,0-63.3,27.6-63.3,61.6c0,34,28.4,61.7,63.3,61.7s63.3-27.7,63.3-61.7C319.3,222,290.9,194.4,256,194.4z"/>
			</g>
		</g>
	</g>
</g>
</svg>
