<?xml version="1.0" encoding="utf-8"?>
<!-- Generator: Adobe Illustrator 23.0.1, SVG Export Plug-In . SVG Version: 6.00 Build 0)  -->
<svg version="1.1" id="Layer_1" xmlns="http://www.w3.org/2000/svg" xmlns:xlink="http://www.w3.org/1999/xlink" x="0px" y="0px"
	 viewBox="0 0 512 512" style="enable-background:new 0 0 512 512;" xml:space="preserve">
<style type="text/css">
	.st0{fill:#7063F3;}
</style>
<g>
	<g>
		<path class="st0" d="M509.5,400.1c-0.3-0.4-33.8-43.4-44.6-77.8c-2.6-8.2-5.8-19.7-9.5-32.9c-17.7-63.2-33.7-116.9-51.6-134.7
			c-19.3-19.3-93.9-32.2-124.6-36.8V46.5c0-25.7-20.9-46.5-46.5-46.5H46.5C20.9,0,0,20.9,0,46.5v325.8c0,25.7,20.9,46.5,46.5,46.5
			h186.2c5,0,9.9-1.1,14.6-2.8c10.1,9.4,21.6,16.6,33.6,23.8c23.7,14.4,48.2,29.3,69.7,66.2c2.1,3.6,5.9,5.8,10.1,5.8
			c110.7,0,150.1-99.6,150.5-100.6C512.7,407.6,512,403.3,509.5,400.1z M46.5,395.6c-12.8,0-23.3-10.4-23.3-23.3V46.5
			c0-12.8,10.4-23.3,23.3-23.3V395.6z M279.3,215l36.9,14.8c1.8,6.3,4.9,16.5,7.9,24.5c-1.4,2.5-2.6,5.3-3.9,8.2
			c-2.1,4.8-4.4,10.1-7.6,14.2c-11.6-8.3-23.5-25.9-33.2-44.6V215z M93.1,395.6H69.8V23.3h23.3V395.6z M116.4,395.6V23.3h116.4
			c12.8,0,23.3,10.4,23.3,23.3v139.5c-14.5-21.3-39-46.5-61.2-51c-11.1-2.3-21,0.5-28.5,8c-28,28-12,75.6,10.3,107.9
			c17.8,25.8,31,56.4,32.9,76c0.3,3.3,0.4,6.4,0.6,9.4c0.7,15.5,1.7,31.7,20.2,59.3H116.4z M367.2,488.6
			c-23.7-37.9-51.5-54.8-74.2-68.5c-15.9-9.6-29.6-17.9-39.3-31.3c-19.2-26.4-19.7-38.4-20.4-53.6c-0.2-3.4-0.3-6.9-0.7-10.5
			c-2.2-23.6-16.7-57.7-36.9-87c-17.9-26-29.6-61.6-13-78.3c1.4-1.4,3.2-2.5,7.4-1.7c18.2,3.7,47.7,37.6,55.1,56
			c8.9,22.1,33,74.8,64.5,87.9c3.6,1.5,7.7,1.1,10.9-1.1c11.6-7.7,16.9-19.9,20.8-28.7c1.1-2.5,2.6-6,2.6-6.3
			c4.8-3.3,6.4-9.6,3.8-14.8c-3.5-7.1-9-26-10.8-32.7c-1-3.5-3.5-6.4-6.9-7.8l-50.9-20.3v-48.5c42.3,6.5,97.2,18.7,108.1,29.6
			c15,15,34.1,83.6,45.6,124.5c3.8,13.5,7.1,25.3,9.7,33.6c9.8,30.9,34.2,66,44.2,79.5C477.7,427.4,443.1,485.4,367.2,488.6z"/>
	</g>
</g>
</svg>
