<?xml version="1.0" encoding="utf-8"?>
<!-- Generator: Adobe Illustrator 23.0.1, SVG Export Plug-In . SVG Version: 6.00 Build 0)  -->
<svg version="1.1" id="Capa_1" xmlns="http://www.w3.org/2000/svg" xmlns:xlink="http://www.w3.org/1999/xlink" x="0px" y="0px"
	 viewBox="0 0 435 435" style="enable-background:new 0 0 435 435;" xml:space="preserve">
<style type="text/css">
	.st0{fill:#7063F3;}
</style>
<g>
	<path class="st0" d="M223.3,431.3c-116.4,0-211.1-94.7-211.1-211.1c0-116.4,94.7-211.1,211.1-211.1c116.4,0,211.1,94.7,211.1,211.1
		C434.4,336.6,339.7,431.3,223.3,431.3z M223.3,39.1c-99.9,0-181.1,81.2-181.1,181.1c0,99.9,81.2,181.1,181.1,181.1
		c99.9,0,181.1-81.2,181.1-181.1C404.4,120.3,323.2,39.1,223.3,39.1z"/>
</g>
<g>
	<path class="st0" d="M315.6,235.2H208.3v-169c0-8.3,6.7-15,15-15s15,6.7,15,15v139h77.3c8.3,0,15,6.7,15,15
		S323.9,235.2,315.6,235.2z"/>
</g>
</svg>
