<?xml version="1.0" encoding="utf-8"?>
<!-- Generator: Adobe Illustrator 23.0.1, SVG Export Plug-In . SVG Version: 6.00 Build 0)  -->
<svg version="1.1" id="Capa_1" xmlns="http://www.w3.org/2000/svg" xmlns:xlink="http://www.w3.org/1999/xlink" x="0px" y="0px"
	 viewBox="0 0 145.7 150.9" style="enable-background:new 0 0 145.7 150.9;" xml:space="preserve">
<style type="text/css">
	.st0{fill:#464646;}
</style>
<g>
	<path class="st0" d="M143.2,68.8c1.6,1.8,2.5,4,2.5,6.6c0,2.3-0.8,4.3-2.5,6c-1.7,1.8-3.8,2.6-6.5,2.6H82.6v56.6
		c0,2.9-0.9,5.3-2.8,7.3c-1.9,2-4.2,2.9-7.1,2.9c-2.7,0-5-1-7-2.9c-2-2-2.9-4.3-2.9-7V84.1H9c-2.7,0-4.8-0.9-6.5-2.6
		c-1.7-1.7-2.5-4-2.5-6.6c0-2.5,0.8-4.5,2.5-6.2C4.1,67,6.3,66.2,9,66.2h53.8V9.9c0-2.9,0.9-5.3,2.8-7.1C67.4,0.9,69.8,0,72.7,0
		c3.1,0,5.5,0.9,7.3,2.6c1.7,1.8,2.6,4.1,2.6,7v56.6h54.1C139.4,66.2,141.5,67.1,143.2,68.8z"/>
</g>
</svg>
