<?xml version="1.0" encoding="utf-8"?>
<!-- Generator: Adobe Illustrator 23.0.1, SVG Export Plug-In . SVG Version: 6.00 Build 0)  -->
<svg version="1.1" id="Capa_1" xmlns="http://www.w3.org/2000/svg" xmlns:xlink="http://www.w3.org/1999/xlink" x="0px" y="0px"
	 viewBox="0 0 41 22" style="enable-background:new 0 0 41 22;" xml:space="preserve">
<style type="text/css">
	.st0{fill:#464646;}
</style>
<g>
	<path class="st0" d="M20.5,22C9,22,0,17.2,0,11S9,0,20.5,0S41,4.8,41,11S32,22,20.5,22z M20.5,2C10.5,2,2,6.1,2,11s8.5,9,18.5,9
		S39,15.9,39,11S30.5,2,20.5,2z"/>
</g>
<g>
	<path class="st0" d="M20.5,22c-6.1,0-11-4.9-11-11s4.9-11,11-11s11,4.9,11,11S26.6,22,20.5,22z M20.5,2c-5,0-9,4-9,9s4,9,9,9
		s9-4,9-9S25.5,2,20.5,2z"/>
</g>
<g>
	<path class="st0" d="M20.5,14.5c-1.9,0-3.5-1.6-3.5-3.5s1.6-3.5,3.5-3.5S24,9.1,24,11S22.4,14.5,20.5,14.5z M20.5,8.5
		C19.1,8.5,18,9.6,18,11s1.1,2.5,2.5,2.5S23,12.4,23,11S21.9,8.5,20.5,8.5z"/>
</g>
</svg>
