<?xml version="1.0" encoding="utf-8"?>
<!-- Generator: Adobe Illustrator 23.0.1, SVG Export Plug-In . SVG Version: 6.00 Build 0)  -->
<svg version="1.1" id="Layer_1" xmlns="http://www.w3.org/2000/svg" xmlns:xlink="http://www.w3.org/1999/xlink" x="0px" y="0px"
	 viewBox="0 0 512 512" style="enable-background:new 0 0 512 512;" xml:space="preserve">
<style type="text/css">
	.st0{fill:#7063F3;}
</style>
<g>
	<g>
		<circle class="st0" cx="250.4" cy="256" r="16.7"/>
	</g>
</g>
<g>
	<g>
		<path class="st0" d="M461.9,39h-345C89.3,39,66.8,61.4,66.8,89v16.7H16.7c-9.2,0-16.7,7.5-16.7,16.7v100.2
			c0,9.2,7.5,16.7,16.7,16.7h50.1v33.4H16.7c-9.2,0-16.7,7.5-16.7,16.7v100.2c0,9.2,7.5,16.7,16.7,16.7h50.1V423
			c0,27.6,22.5,50.1,50.1,50.1h345c27.6,0,50.1-22.5,50.1-50.1V89C512,61.4,489.5,39,461.9,39z M66.8,372.9H33.4v-66.8h33.4
			L66.8,372.9L66.8,372.9z M66.8,205.9H33.4v-66.8h33.4L66.8,205.9L66.8,205.9z M478.6,423c0,9.2-7.5,16.7-16.7,16.7h-345
			c-9.2,0-16.7-7.5-16.7-16.7c0-12.6,0-321.4,0-333.9c0-9.2,7.5-16.7,16.7-16.7h345c9.2,0,16.7,7.5,16.7,16.7V423z"/>
	</g>
</g>
<g>
	<g>
		<path class="st0" d="M320,302c8.8-13.2,13.9-29,13.9-46s-5.1-32.8-13.9-46l42.4-42.4c6.5-6.5,6.5-17.1,0-23.6
			c-6.5-6.5-17.1-6.5-23.6,0l-42.4,42.4c-13.2-8.8-29-13.9-46-13.9s-32.8,5.1-46,13.9L162.1,144c-6.5-6.5-17.1-6.5-23.6,0
			s-6.5,17.1,0,23.6l42.4,42.4c-8.8,13.2-13.9,29-13.9,46s5.1,32.8,13.9,46l-42.4,42.4c-6.5,6.5-6.5,17.1,0,23.6
			c3.3,3.3,7.5,4.9,11.8,4.9c4.3,0,8.5-1.6,11.8-4.9l42.4-42.4c13.2,8.8,29,13.9,46,13.9s32.8-5.1,46-13.9l42.4,42.4
			c3.3,3.3,7.5,4.9,11.8,4.9s8.5-1.6,11.8-4.9c6.5-6.5,6.5-17.1,0-23.6L320,302z M250.4,306.1c-27.6,0-50.1-22.5-50.1-50.1
			s22.5-50.1,50.1-50.1s50.1,22.5,50.1,50.1S278.1,306.1,250.4,306.1z"/>
	</g>
</g>
<g>
	<g>
		<path class="st0" d="M428.5,172.5c-9.2,0-16.7,7.5-16.7,16.7v133.6c0,9.2,7.5,16.7,16.7,16.7s16.7-7.5,16.7-16.7V189.2
			C445.2,180,437.7,172.5,428.5,172.5z"/>
	</g>
</g>
</svg>
