<?xml version="1.0" encoding="utf-8"?>
<!-- Generator: Adobe Illustrator 23.0.1, SVG Export Plug-In . SVG Version: 6.00 Build 0)  -->
<svg version="1.1" id="Capa_1" xmlns="http://www.w3.org/2000/svg" xmlns:xlink="http://www.w3.org/1999/xlink" x="0px" y="0px"
	 viewBox="0 0 15.8 18.5" style="enable-background:new 0 0 15.8 18.5;" xml:space="preserve">
<style type="text/css">
	.st0{fill:#464646;}
</style>
<g>
	<g>
		<path class="st0" d="M1.9,17c-0.1,0-0.2,0-0.3-0.1c-0.1-0.1-0.2-0.3-0.2-0.5L2,12.1c0-0.1,0-0.2,0.1-0.2l9.4-11.7
			C11.7,0,12-0.1,12.2,0.1l3.4,2.7c0.1,0.1,0.2,0.2,0.2,0.3s0,0.3-0.1,0.4L6.3,15.3c-0.1,0.1-0.1,0.1-0.2,0.2L2.1,17
			C2,17,2,17,1.9,17z M3,12.4l-0.5,3.3l3.1-1.2l9-11.2L12,1.2L3,12.4z M5.9,15L5.9,15L5.9,15z"/>
	</g>
	<g>
		<path class="st0" d="M12.5,18.5h-12C0.2,18.5,0,18.3,0,18V4.5C0,4.2,0.2,4,0.5,4H7c0.3,0,0.5,0.2,0.5,0.5S7.3,5,7,5H1v12.5h11V8.9
			c0-0.3,0.2-0.5,0.5-0.5S13,8.6,13,8.9V18C13,18.3,12.8,18.5,12.5,18.5z"/>
	</g>
</g>
</svg>
