<?xml version="1.0" encoding="utf-8"?>
<!-- Generator: Adobe Illustrator 23.0.1, SVG Export Plug-In . SVG Version: 6.00 Build 0)  -->
<svg version="1.1" id="Capa_1" xmlns="http://www.w3.org/2000/svg" xmlns:xlink="http://www.w3.org/1999/xlink" x="0px" y="0px"
	 viewBox="0 0 124.3 181.3" style="enable-background:new 0 0 124.3 181.3;" xml:space="preserve">
<style type="text/css">
	.st0{fill:#CCCCCC;}
</style>
<g>
	<ellipse transform="matrix(0.7071 -0.7071 0.7071 0.7071 -9.5598 40.6148)" class="st0" cx="44.2" cy="31.8" rx="31.8" ry="31.8"/>
	<path class="st0" d="M54.4,129.6h16.7v-18.3c0-4.1,1.5-7.7,4.3-10.4c2.1-2.1,4.8-3.4,7.7-3.8c-7.3-14-22-23.5-38.9-23.5h-0.4
		C19.7,73.6,0,93.3,0,117.5v32.8h42.8c-1.4-2.1-2.1-4.6-2.1-7.3c0-3.8,1.4-7.1,4-9.7C47.3,130.9,50.6,129.6,54.4,129.6z"/>
	<path class="st0" d="M122.3,138.4c-1.3-1.3-2.9-1.9-5-1.9H93.7v-25.1c0-2.3-0.7-4.1-2.2-5.5c-1.4-1.4-3.2-2.1-5.5-2.1
		c-0.1,0-0.1,0-0.2,0c-2.3,0-4.1,0.7-5.6,2.2c-1.5,1.4-2.2,3.3-2.2,5.5v25.1H54.4c-2.1,0-3.7,0.6-5,1.8c-1.3,1.2-1.9,2.8-1.9,4.8
		c0,1.9,0.7,3.6,2,4.9c1.3,1.3,3,2,4.9,2H78v0.4v23.1c0,2.3,0.7,4.1,2.2,5.6c1.5,1.5,3.4,2.2,5.6,2.2c2.4,0,4.3-0.7,5.7-2.2
		c1.4-1.5,2.2-3.4,2.2-5.6V150h23.7c2,0,3.7-0.6,5-1.8c1.3-1.2,1.9-2.8,1.9-4.8C124.3,141.3,123.6,139.6,122.3,138.4z"/>
</g>
</svg>
