<?xml version="1.0" encoding="utf-8"?>
<!-- Generator: Adobe Illustrator 23.0.0, SVG Export Plug-In . SVG Version: 6.00 Build 0)  -->
<svg version="1.1" id="Capa_1" xmlns="http://www.w3.org/2000/svg" xmlns:xlink="http://www.w3.org/1999/xlink" x="0px" y="0px"
	 viewBox="0 0 458.4 151.9" style="enable-background:new 0 0 458.4 151.9;" xml:space="preserve">
<style type="text/css">
	.st0{fill:#1BD741;}
	.st1{fill:#FFFFFF;}
</style>
<path class="st0" d="M429,151.9H29.4C13.2,151.9,0,138.8,0,122.5V29.4C0,13.2,13.2,0,29.4,0H429c16.2,0,29.4,13.2,29.4,29.4v93.1
	C458.4,138.8,445.2,151.9,429,151.9z"/>
<g>
	<path class="st0" d="M229.4,33.3c-22.8,0-41.3,18.5-41.3,41.3c0,7.9,2.3,15.6,6.5,22.3l1,1.6l-4,14.3l14.8-3.8l1.5,0.9
		c6.5,3.9,13.9,6,21.5,6c22.8,0,41.3-18.5,41.3-41.3S252.2,33.3,229.4,33.3z M254.8,87.3l-0.5,2.4c-0.6,2.7-2.2,5.1-4.5,6.6
		c-3,1.9-6.8,2.8-11.7,1.4c-15.1-4.3-23.7-14.3-28.2-20.5c-4.6-6.3-6.4-12.5-5.2-17.6c0.8-3.4,3.3-6.1,4.8-7.4
		c0.8-0.7,1.8-1,2.8-0.9l3.2,0.2c0.6,0,1.2,0.4,1.4,1l4.7,11c0.3,0.6,0.1,1.3-0.3,1.8l-4.1,4.7c-0.3,0.4-0.4,0.9-0.2,1.4
		c5.4,10.4,15.2,14.5,18.2,15.5c0.5,0.2,1.1,0,1.4-0.4l4.3-5.6c0.5-0.6,1.3-0.8,2-0.5l10.9,5C254.5,85.7,254.9,86.5,254.8,87.3z"/>
	<path class="st1" d="M229.4,24.8c-27.4,0-49.8,22.3-49.8,49.8c0,8.9,2.4,17.6,6.8,25.2l-7,24.8l25.6-6.6c7.4,4.2,15.8,6.3,24.3,6.3
		c27.4,0,49.8-22.3,49.8-49.8S256.9,24.8,229.4,24.8z M229.4,115.9c-7.6,0-15-2.1-21.5-6l-1.5-0.9l-14.8,3.8l4-14.3l-1-1.6
		c-4.3-6.6-6.5-14.4-6.5-22.3c0-22.8,18.5-41.3,41.3-41.3c22.8,0,41.3,18.5,41.3,41.3S252.2,115.9,229.4,115.9z"/>
	<path class="st1" d="M253.8,85.4l-10.9-5c-0.7-0.3-1.5-0.1-2,0.5l-4.3,5.6c-0.3,0.4-0.9,0.6-1.4,0.4c-2.9-1-12.8-5.1-18.2-15.5
		c-0.2-0.5-0.2-1,0.2-1.4l4.1-4.7c0.4-0.5,0.5-1.2,0.3-1.8l-4.7-11c-0.3-0.6-0.8-1-1.4-1l-3.2-0.2c-1-0.1-2,0.3-2.8,0.9
		c-1.6,1.4-4.1,4-4.8,7.4c-1.1,5.1,0.6,11.4,5.2,17.6c4.6,6.3,13.1,16.3,28.2,20.5c4.9,1.4,8.7,0.4,11.7-1.4c2.3-1.5,4-3.9,4.5-6.6
		l0.5-2.4C254.9,86.5,254.5,85.7,253.8,85.4z"/>
</g>
</svg>
