<?xml version="1.0" encoding="utf-8"?>
<!-- Generator: Adobe Illustrator 22.1.0, SVG Export Plug-In . SVG Version: 6.00 Build 0)  -->
<svg version="1.1" id="Capa_1" xmlns="http://www.w3.org/2000/svg" xmlns:xlink="http://www.w3.org/1999/xlink" x="0px" y="0px"
	 viewBox="0 0 612.6 621.6" style="enable-background:new 0 0 612.6 621.6;" xml:space="preserve">
<style type="text/css">
	.st0{fill:#CCCCCC;}
	.st1{fill:#454545;}
	.st2{fill:#F6F6F6;}
	.st3{opacity:0.2;fill:url(#SVGID_1_);}
	.st4{fill:#E8E8E8;}
	.st5{fill:#3A79F3;}
	.st6{fill:#E99854;}
</style>
<g>
	<path class="st0" d="M558.4,189.2L252.1,13.4c-2-1.2-9.7,5.4-9.7,7.7l6,239.7c0,7,3.8,13.5,9.9,17.1l302.3,181.8
		c2.4,1.4,8.6-5.2,8.6-8l-0.8-245.5C568.4,199.2,564.6,192.7,558.4,189.2z"/>
	<path class="st1" d="M553.3,194.3L247,18.6c-2-1.2-4.5,0.3-4.5,2.6l0.8,244.8c0,7,3.8,13.5,9.9,17.1L558.6,460
		c2.4,1.4,5.4-0.3,5.4-3.1l-0.8-245.5C563.2,204.4,559.4,197.9,553.3,194.3z"/>
	<polygon class="st2" points="254.5,245.2 551.1,416.5 551.1,233.7 254.5,62.4 	"/>
	<polygon class="st1" points="268.2,244.3 516.1,387.4 516.1,234.7 268.2,91.6 	"/>
	<g>
		
			<linearGradient id="SVGID_1_" gradientUnits="userSpaceOnUse" x1="478.9593" y1="591.6267" x2="647.7087" y2="299.3443" gradientTransform="matrix(-1 0 0 1 862.5839 0)">
			<stop  offset="0" style="stop-color:#454545;stop-opacity:0"/>
			<stop  offset="0.1413" style="stop-color:#454545;stop-opacity:0.1413"/>
			<stop  offset="1" style="stop-color:#454545"/>
		</linearGradient>
		<polygon class="st3" points="20.6,412.4 356.1,607.5 577.9,478.6 242.4,283.4 		"/>
		<g>
			<path class="st0" d="M561.7,467.4l1.3-4.6c0.6-2.3-0.4-4.8-2.5-5.9L258,286.4c-5.9-3.4-13.2-3.4-19,0l-217,113.7
				c-1.2,0.6-1.5,2.1-0.8,3.2l3.7,5.3c0.6,0.9,1.4,1.6,2.3,2.1l306.8,182.4c6.2,3.7,13.9,3.7,20.1,0.1l206.7-124.4
				C561.2,468.5,561.5,468,561.7,467.4z"/>
			<path class="st2" d="M560.7,456.9L252,277.8c-5.9-3.4-13.2-3.4-19,0L21.7,400.1c-0.9,0.5-0.9,1.8,0,2.3l306.6,182.3
				c5.9,3.5,13.3,3.6,19.3,0.1l213.1-124C562.2,459.9,562.2,457.8,560.7,456.9z"/>
			<g>
				<path class="st0" d="M273.8,474.9l-88.1-51.1c-0.6-0.4-1.4-0.4-2,0l-41.5,24.7c-0.5,0.3-0.8,0.8-0.9,1.2
					c-0.2-0.8,0.1-1.6,0.9-2.1l41.5-24.7c0.6-0.4,1.4-0.4,2,0l88.1,51.1c0.8,0.5,1.1,1.3,0.9,2.1
					C274.6,475.7,274.3,475.2,273.8,474.9z"/>
				<path class="st4" d="M273.8,477.5l-41.5,24.1c-0.6,0.4-1.4,0.4-2,0l-88.1-50.5c-0.5-0.3-0.8-0.8-0.9-1.3
					c0.1-0.5,0.4-0.9,0.9-1.2l41.5-24.7c0.6-0.4,1.4-0.4,2,0l88.1,51.1c0.5,0.3,0.8,0.8,0.9,1.3
					C274.6,476.7,274.3,477.2,273.8,477.5z"/>
			</g>
			<path class="st4" d="M532.4,463.3L230.5,288.6c-2-1.2-4.5-1.2-6.5,0l-116.2,66.6c-2.4,1.4-2.4,4.9,0,6.3l303,174.3
				c2,1.2,4.5,1.2,6.5,0l115.1-66.2C534.8,468.2,534.8,464.7,532.4,463.3z"/>
		</g>
	</g>
	<g>
		<path class="st5" d="M311.1,157.1l2.2-8.1l1,0.6l-2.2,8.1L311.1,157.1z"/>
		<path class="st5" d="M314.7,159.2l2.2-8.1l1,0.6l-2.2,8.1L314.7,159.2z"/>
		<path class="st5" d="M323.4,162.6c-0.4-0.2-0.7-0.5-1-0.8c-0.3-0.3-0.6-0.6-0.8-1c-0.2-0.4-0.4-0.8-0.6-1.2
			c-0.1-0.4-0.2-0.9-0.2-1.3s0.1-0.8,0.2-1.1c0.1-0.3,0.4-0.4,0.6-0.5c0.3-0.1,0.5-0.1,0.9,0c0.3,0.1,0.7,0.2,1.1,0.4
			c0.3,0.2,0.6,0.4,0.9,0.7c0.3,0.3,0.5,0.5,0.7,0.8l-0.7,0.6c-0.3-0.4-0.5-0.6-0.7-0.7c-0.4-0.2-0.7-0.3-0.9-0.1
			c-0.2,0.1-0.3,0.4-0.3,0.9s0.1,0.9,0.3,1.3c0.2,0.4,0.5,0.7,0.9,0.9c0.2,0.1,0.3,0.2,0.5,0.2c0.2,0,0.3,0,0.5,0l0.6,1.4
			c-0.3,0.1-0.6,0.1-0.9,0C324,162.9,323.7,162.8,323.4,162.6z"/>
		<path class="st5" d="M328.1,165.3c-0.3-0.2-0.7-0.4-1-0.8c-0.3-0.3-0.6-0.6-0.8-1c-0.2-0.4-0.4-0.8-0.6-1.2
			c-0.1-0.4-0.2-0.9-0.2-1.3s0.1-0.8,0.2-1.1c0.1-0.3,0.3-0.4,0.6-0.5c0.2-0.1,0.5-0.1,0.8-0.1c0.3,0.1,0.6,0.2,1,0.4s0.7,0.4,1,0.7
			c0.3,0.3,0.6,0.6,0.8,1c0.2,0.4,0.4,0.8,0.6,1.2c0.1,0.4,0.2,0.9,0.2,1.3s-0.1,0.8-0.2,1.1c-0.1,0.3-0.3,0.4-0.6,0.5
			c-0.2,0.1-0.5,0.1-0.8,0.1C328.7,165.7,328.4,165.5,328.1,165.3z M328.1,164.1c0.3,0.2,0.6,0.2,0.7,0c0.2-0.2,0.2-0.5,0.2-1
			s-0.1-0.9-0.2-1.2c-0.2-0.4-0.4-0.6-0.7-0.8c-0.3-0.2-0.6-0.2-0.7,0c-0.2,0.2-0.2,0.5-0.2,1c0,0.5,0.1,0.9,0.2,1.2
			C327.5,163.6,327.7,163.9,328.1,164.1z"/>
		<path class="st5" d="M333.6,168.6c-0.3-0.2-0.6-0.4-0.9-0.7c-0.3-0.3-0.5-0.6-0.7-0.9c-0.2-0.3-0.3-0.7-0.4-1.1
			c-0.1-0.4-0.2-0.8-0.2-1.3c0-0.4,0.1-0.8,0.2-1.1c0.1-0.3,0.3-0.5,0.5-0.6c0.2-0.1,0.4-0.2,0.7-0.1c0.3,0,0.5,0.1,0.8,0.3
			c0.3,0.2,0.5,0.4,0.7,0.6c0.2,0.2,0.4,0.5,0.6,0.7l-0.1-0.9v-1.8l1.6,0.9v7.5l-1.3-0.7l-0.1-0.6l0,0c-0.2,0.1-0.4,0.1-0.7,0.1
			C334.1,168.8,333.9,168.7,333.6,168.6z M334,167.5c0.2,0.1,0.3,0.2,0.5,0.2s0.3,0,0.4-0.1v-2.2c-0.1-0.2-0.3-0.4-0.4-0.5
			c-0.1-0.1-0.3-0.2-0.4-0.3c-0.2-0.1-0.5-0.2-0.7,0c-0.2,0.1-0.3,0.4-0.3,1c0,0.5,0.1,1,0.3,1.3C333.5,167.1,333.7,167.3,334,167.5
			z"/>
		<path class="st5" d="M340.2,172.4c-0.4-0.2-0.7-0.5-1.1-0.8c-0.3-0.3-0.6-0.7-0.9-1c-0.2-0.4-0.4-0.8-0.6-1.2
			c-0.1-0.4-0.2-0.9-0.2-1.3c0-0.4,0.1-0.8,0.2-1c0.1-0.3,0.3-0.4,0.6-0.6c0.2-0.1,0.5-0.1,0.8-0.1c0.3,0,0.6,0.2,0.9,0.3
			c0.4,0.2,0.7,0.5,1,0.8c0.3,0.3,0.5,0.6,0.7,0.9c0.2,0.3,0.3,0.7,0.4,1.1c0.1,0.4,0.1,0.7,0.1,1.1c0,0.1,0,0.3,0,0.4
			c0,0.1,0,0.2,0,0.3l-3.2-1.8c0.1,0.4,0.2,0.8,0.5,1.1s0.5,0.6,0.9,0.8c0.4,0.2,0.8,0.3,1.1,0.3l0.5,1.3c-0.3,0-0.6,0-0.9-0.1
			C340.9,172.7,340.6,172.6,340.2,172.4z M339.1,168.3l1.9,1.1c0-0.3-0.1-0.6-0.2-0.8c-0.1-0.3-0.4-0.5-0.7-0.7
			c-0.3-0.1-0.5-0.2-0.7-0.1C339.2,167.8,339.1,168,339.1,168.3z"/>
		<path class="st5" d="M344.3,174.7c-0.3-0.2-0.5-0.4-0.7-0.7s-0.3-0.6-0.3-0.9c0-0.3,0.1-0.5,0.3-0.6s0.4,0,0.7,0.1
			c0.3,0.2,0.5,0.4,0.7,0.7c0.2,0.3,0.3,0.6,0.3,0.9c0,0.3-0.1,0.5-0.3,0.5C344.8,174.9,344.6,174.9,344.3,174.7z"/>
		<path class="st5" d="M348,176.8c-0.2-0.1-0.5-0.3-0.7-0.5c-0.2-0.2-0.4-0.4-0.5-0.6c-0.1-0.2-0.2-0.5-0.3-0.7
			c-0.1-0.2-0.1-0.5-0.1-0.7c0-0.6,0.2-0.9,0.7-0.9c0.5,0,1.2,0.2,2.3,0.7c0-0.2-0.1-0.5-0.2-0.7c-0.1-0.2-0.3-0.4-0.6-0.6
			c-0.2-0.1-0.5-0.2-0.7-0.3c-0.2,0-0.5-0.1-0.7-0.1l-0.6-1.4c0.3,0,0.7,0,1.1,0.1c0.4,0.1,0.8,0.3,1.2,0.5c0.7,0.4,1.2,0.9,1.6,1.5
			c0.4,0.6,0.5,1.3,0.5,2.1v3l-1.3-0.7l-0.1-0.6l0,0c-0.2,0.1-0.5,0.1-0.7,0.1C348.5,177.1,348.3,177,348,176.8z M348.5,175.9
			c0.2,0.1,0.3,0.2,0.5,0.1c0.1,0,0.3,0,0.4-0.1V175c-0.6-0.2-0.9-0.4-1.2-0.3c-0.2,0-0.3,0.1-0.3,0.4c0,0.2,0.1,0.3,0.2,0.5
			C348.2,175.7,348.3,175.8,348.5,175.9z"/>
		<path class="st5" d="M353.7,180.2c-0.3-0.2-0.5-0.3-0.7-0.5c-0.2-0.2-0.3-0.4-0.4-0.6c-0.1-0.2-0.2-0.4-0.2-0.7
			c-0.1-0.2-0.1-0.5-0.1-0.8v-5.9l1.6,0.9v5.9c0,0.2,0,0.3,0.1,0.4c0.1,0.1,0.1,0.2,0.2,0.2c0,0,0.1,0,0.1,0.1c0,0,0.1,0,0.1,0
			l0.2,1.3c-0.1,0-0.2,0-0.3-0.1C354,180.3,353.9,180.3,353.7,180.2z"/>
		<path class="st5" d="M357.6,182.4c-0.3-0.2-0.7-0.4-1-0.8c-0.3-0.3-0.6-0.6-0.8-1c-0.2-0.4-0.4-0.8-0.6-1.2
			c-0.1-0.4-0.2-0.9-0.2-1.3c0-0.4,0.1-0.8,0.2-1.1c0.1-0.3,0.3-0.4,0.6-0.5c0.2-0.1,0.5-0.1,0.8-0.1c0.3,0.1,0.6,0.2,1,0.4
			s0.7,0.4,1,0.7c0.3,0.3,0.6,0.6,0.8,1c0.2,0.4,0.4,0.8,0.6,1.2c0.1,0.4,0.2,0.9,0.2,1.3c0,0.4-0.1,0.8-0.2,1.1
			c-0.1,0.3-0.3,0.4-0.6,0.5c-0.2,0.1-0.5,0.1-0.8,0.1C358.3,182.7,357.9,182.6,357.6,182.4z M357.6,181.1c0.3,0.2,0.6,0.2,0.7,0
			c0.2-0.2,0.2-0.5,0.2-1s-0.1-0.9-0.2-1.2c-0.2-0.4-0.4-0.6-0.7-0.8c-0.3-0.2-0.6-0.2-0.7,0c-0.2,0.2-0.2,0.5-0.2,1
			s0.1,0.9,0.2,1.2C357,180.7,357.3,180.9,357.6,181.1z"/>
		<path class="st5" d="M360.9,180v-1.1l4.9,2.8v1.1L360.9,180z M360.9,182.5v-1.1l4.9,2.8v1.1L360.9,182.5z"/>
		<path class="st5" d="M366.6,187.5v-0.8l2.2-1.9l-2-1.1v-1.2l3.9,2.3v0.8l-2.2,2l2.3,1.3v1.2L366.6,187.5z"/>
		<path class="st5" d="M371.6,190.3v-0.8l2.2-1.9l-2-1.1v-1.2l3.9,2.3v0.8l-2.2,2l2.3,1.3v1.2L371.6,190.3z"/>
		<path class="st5" d="M376.4,192v-1.3l1.9,0.5l1.4,0.3v0l-1.4-1.3l-1.9-1.7v-1.3l4.9,4.7v1.1L376.4,192z"/>
		<path class="st5" d="M383.8,197.5c-0.2-0.1-0.5-0.3-0.7-0.5c-0.2-0.2-0.4-0.4-0.5-0.6c-0.1-0.2-0.2-0.5-0.3-0.7
			c-0.1-0.2-0.1-0.5-0.1-0.7c0-0.6,0.2-0.9,0.7-0.9s1.2,0.2,2.3,0.7c0-0.2-0.1-0.5-0.2-0.7c-0.1-0.2-0.3-0.4-0.6-0.6
			c-0.2-0.1-0.5-0.2-0.7-0.3c-0.2,0-0.5-0.1-0.7-0.1l-0.6-1.4c0.3,0,0.7,0,1.1,0.1c0.4,0.1,0.8,0.3,1.2,0.5c0.7,0.4,1.2,0.9,1.6,1.5
			c0.4,0.6,0.5,1.3,0.5,2.1v3l-1.3-0.7l-0.1-0.6l0,0c-0.2,0.1-0.5,0.1-0.7,0.1C384.3,197.8,384.1,197.7,383.8,197.5z M384.3,196.6
			c0.2,0.1,0.3,0.2,0.5,0.1c0.1,0,0.3,0,0.4-0.1v-0.9c-0.6-0.2-0.9-0.4-1.2-0.3c-0.2,0-0.3,0.1-0.3,0.4c0,0.2,0.1,0.3,0.2,0.5
			C384,196.4,384.1,196.5,384.3,196.6z"/>
		<path class="st5" d="M389.6,200.9c-0.4-0.2-0.7-0.5-1.1-0.8c-0.4-0.3-0.7-0.7-1-1.1l0.7-0.6c0.2,0.3,0.5,0.6,0.7,0.8
			c0.2,0.2,0.4,0.4,0.7,0.5c0.2,0.1,0.4,0.2,0.5,0.2c0.1,0,0.2-0.1,0.2-0.2c0-0.1,0-0.2-0.1-0.3c-0.1-0.1-0.1-0.2-0.2-0.3
			c-0.1-0.1-0.2-0.2-0.3-0.4c-0.1-0.1-0.3-0.2-0.4-0.4c-0.2-0.2-0.3-0.3-0.5-0.5c-0.2-0.2-0.3-0.4-0.4-0.6c-0.1-0.2-0.2-0.4-0.3-0.6
			c-0.1-0.2-0.1-0.4-0.1-0.7c0-0.2,0-0.4,0.1-0.6c0.1-0.2,0.2-0.2,0.4-0.3c0.2,0,0.4,0,0.6,0c0.2,0.1,0.5,0.2,0.8,0.4
			c0.4,0.2,0.8,0.5,1.1,0.8c0.3,0.3,0.6,0.6,0.8,0.9l-0.7,0.5c-0.2-0.3-0.4-0.5-0.6-0.7c-0.2-0.2-0.4-0.3-0.6-0.4
			c-0.4-0.2-0.6-0.2-0.6,0.1c0,0.1,0,0.2,0.1,0.3c0.1,0.1,0.1,0.2,0.2,0.3c0.1,0.1,0.2,0.2,0.3,0.3c0.1,0.1,0.3,0.2,0.4,0.4
			c0.2,0.2,0.3,0.3,0.5,0.5c0.2,0.2,0.3,0.4,0.5,0.6c0.1,0.2,0.3,0.4,0.3,0.6c0.1,0.2,0.1,0.5,0.1,0.7c0,0.2,0,0.4-0.1,0.6
			c-0.1,0.2-0.2,0.3-0.4,0.3c-0.2,0-0.4,0-0.7,0C390.3,201.2,390,201.1,389.6,200.9z"/>
		<path class="st5" d="M394.7,203.8c-0.3-0.2-0.6-0.4-0.9-0.7c-0.3-0.3-0.5-0.6-0.7-0.9c-0.2-0.3-0.3-0.7-0.4-1.1
			c-0.1-0.4-0.2-0.8-0.2-1.3c0-0.4,0.1-0.8,0.2-1.1c0.1-0.3,0.3-0.5,0.5-0.6c0.2-0.1,0.4-0.2,0.7-0.1c0.3,0,0.5,0.1,0.8,0.3
			c0.3,0.2,0.5,0.4,0.7,0.6c0.2,0.2,0.4,0.5,0.6,0.7l-0.1-0.9v-1.8l1.6,0.9v7.5l-1.3-0.7l-0.1-0.6l0,0c-0.2,0.1-0.4,0.1-0.7,0.1
			C395.2,204.1,395,204,394.7,203.8z M395.1,202.8c0.2,0.1,0.3,0.2,0.5,0.2c0.1,0,0.3,0,0.4-0.1v-2.2c-0.1-0.2-0.3-0.4-0.4-0.5
			c-0.1-0.1-0.3-0.2-0.4-0.3c-0.2-0.1-0.5-0.2-0.7,0c-0.2,0.1-0.3,0.4-0.3,1c0,0.5,0.1,1,0.3,1.3
			C394.6,202.3,394.8,202.6,395.1,202.8z"/>
		<path class="st5" d="M400.9,209.5c-0.3-0.2-0.6-0.4-0.9-0.6s-0.5-0.4-0.7-0.6c-0.2-0.2-0.4-0.5-0.5-0.7c-0.1-0.2-0.2-0.5-0.2-0.7
			c0-0.4,0.3-0.6,0.8-0.6v0c-0.1-0.2-0.3-0.4-0.4-0.6c-0.1-0.2-0.1-0.4-0.1-0.6c0-0.2,0.1-0.3,0.2-0.5c0.1-0.1,0.3-0.2,0.4-0.2v0
			c-0.2-0.2-0.4-0.5-0.5-0.8c-0.1-0.3-0.2-0.6-0.2-1c0-0.3,0.1-0.6,0.2-0.7c0.1-0.2,0.3-0.3,0.5-0.3c0.2,0,0.4,0,0.7,0
			c0.3,0.1,0.5,0.2,0.8,0.4c0.3,0.2,0.6,0.4,0.8,0.6l1.9,1.1v1.1l-0.8-0.5c0.1,0.1,0.1,0.2,0.1,0.4c0,0.1,0,0.3,0,0.4
			c0,0.3-0.1,0.5-0.2,0.7c-0.1,0.2-0.3,0.3-0.4,0.3c-0.2,0-0.4,0-0.7-0.1c-0.3-0.1-0.5-0.2-0.8-0.4c-0.2-0.1-0.4-0.3-0.6-0.5
			c-0.1,0-0.1,0-0.1,0.1c0,0,0,0.1,0,0.2c0,0.1,0.1,0.3,0.2,0.4c0.1,0.1,0.3,0.3,0.6,0.5l0.9,0.5c0.7,0.4,1.2,0.8,1.5,1.2
			c0.3,0.4,0.5,0.9,0.5,1.3c0,0.3-0.1,0.5-0.2,0.6c-0.1,0.2-0.3,0.2-0.6,0.3c-0.3,0-0.6,0-0.9-0.1
			C401.7,210,401.3,209.8,400.9,209.5z M401.1,208.7c0.4,0.2,0.7,0.3,0.9,0.3c0.2,0,0.3-0.1,0.3-0.3c0-0.2-0.1-0.3-0.2-0.5
			c-0.1-0.1-0.3-0.3-0.6-0.4l-0.5-0.3c-0.2-0.1-0.3-0.2-0.5-0.3c-0.1-0.1-0.2-0.1-0.3-0.2c-0.2,0.1-0.3,0.2-0.3,0.4
			c0,0.2,0.1,0.4,0.3,0.6C400.5,208.2,400.7,208.5,401.1,208.7z M401,204.7c0.2,0.1,0.4,0.1,0.5,0.1c0.1-0.1,0.2-0.2,0.2-0.5
			c0-0.3-0.1-0.5-0.2-0.8c-0.1-0.2-0.3-0.4-0.5-0.5c-0.2-0.1-0.4-0.1-0.5-0.1s-0.2,0.2-0.2,0.5c0,0.3,0.1,0.6,0.2,0.8
			C400.6,204.4,400.8,204.6,401,204.7z"/>
		<path class="st5" d="M404.4,211l2.2-8.1l1,0.6l-2.2,8.1L404.4,211z"/>
		<path class="st5" d="M408.1,213.1l2.2-8.1l1,0.6l-2.2,8.1L408.1,213.1z"/>
		<path class="st5" d="M311.1,222.3l2.2-8.1l1,0.6l-2.2,8.1L311.1,222.3z"/>
		<path class="st5" d="M314.7,224.4l2.2-8.1l1,0.6l-2.2,8.1L314.7,224.4z"/>
		<path class="st5" d="M323.4,227.8c-0.4-0.2-0.7-0.5-1-0.8c-0.3-0.3-0.6-0.6-0.8-1c-0.2-0.4-0.4-0.8-0.6-1.2
			c-0.1-0.4-0.2-0.9-0.2-1.3s0.1-0.8,0.2-1.1c0.1-0.3,0.4-0.4,0.6-0.5c0.3-0.1,0.5-0.1,0.9,0c0.3,0.1,0.7,0.2,1.1,0.4
			c0.3,0.2,0.6,0.4,0.9,0.7c0.3,0.3,0.5,0.5,0.7,0.8l-0.7,0.6c-0.3-0.4-0.5-0.6-0.7-0.7c-0.4-0.2-0.7-0.3-0.9-0.1
			c-0.2,0.1-0.3,0.4-0.3,0.9s0.1,0.9,0.3,1.3c0.2,0.4,0.5,0.7,0.9,0.9c0.2,0.1,0.3,0.2,0.5,0.2c0.2,0,0.3,0,0.5,0l0.6,1.4
			c-0.3,0.1-0.6,0.1-0.9,0C324,228.1,323.7,228,323.4,227.8z"/>
		<path class="st5" d="M328.1,230.5c-0.3-0.2-0.7-0.4-1-0.8c-0.3-0.3-0.6-0.6-0.8-1c-0.2-0.4-0.4-0.8-0.6-1.2
			c-0.1-0.4-0.2-0.9-0.2-1.3s0.1-0.8,0.2-1.1c0.1-0.3,0.3-0.4,0.6-0.5c0.2-0.1,0.5-0.1,0.8-0.1c0.3,0.1,0.6,0.2,1,0.4s0.7,0.4,1,0.7
			c0.3,0.3,0.6,0.6,0.8,1c0.2,0.4,0.4,0.8,0.6,1.2c0.1,0.4,0.2,0.9,0.2,1.3s-0.1,0.8-0.2,1.1c-0.1,0.3-0.3,0.4-0.6,0.5
			c-0.2,0.1-0.5,0.1-0.8,0.1C328.7,230.8,328.4,230.7,328.1,230.5z M328.1,229.2c0.3,0.2,0.6,0.2,0.7,0c0.2-0.2,0.2-0.5,0.2-1
			s-0.1-0.9-0.2-1.2c-0.2-0.4-0.4-0.6-0.7-0.8c-0.3-0.2-0.6-0.2-0.7,0c-0.2,0.2-0.2,0.5-0.2,1c0,0.5,0.1,0.9,0.2,1.2
			C327.5,228.8,327.7,229,328.1,229.2z"/>
		<path class="st5" d="M333.6,233.7c-0.3-0.2-0.6-0.4-0.9-0.7c-0.3-0.3-0.5-0.6-0.7-0.9c-0.2-0.3-0.3-0.7-0.4-1.1
			c-0.1-0.4-0.2-0.8-0.2-1.3c0-0.4,0.1-0.8,0.2-1.1c0.1-0.3,0.3-0.5,0.5-0.6c0.2-0.1,0.4-0.2,0.7-0.1c0.3,0,0.5,0.1,0.8,0.3
			c0.3,0.2,0.5,0.4,0.7,0.6c0.2,0.2,0.4,0.5,0.6,0.7l-0.1-0.9v-1.8l1.6,0.9v7.5l-1.3-0.7l-0.1-0.6l0,0c-0.2,0.1-0.4,0.1-0.7,0.1
			C334.1,233.9,333.9,233.9,333.6,233.7z M334,232.7c0.2,0.1,0.3,0.2,0.5,0.2s0.3,0,0.4-0.1v-2.2c-0.1-0.2-0.3-0.4-0.4-0.5
			c-0.1-0.1-0.3-0.2-0.4-0.3c-0.2-0.1-0.5-0.2-0.7,0c-0.2,0.1-0.3,0.4-0.3,1c0,0.5,0.1,1,0.3,1.3C333.5,232.2,333.7,232.5,334,232.7
			z"/>
		<path class="st5" d="M340.2,237.5c-0.4-0.2-0.7-0.5-1.1-0.8c-0.3-0.3-0.6-0.7-0.9-1c-0.2-0.4-0.4-0.8-0.6-1.2
			c-0.1-0.4-0.2-0.9-0.2-1.3c0-0.4,0.1-0.8,0.2-1c0.1-0.3,0.3-0.4,0.6-0.6c0.2-0.1,0.5-0.1,0.8-0.1c0.3,0,0.6,0.2,0.9,0.3
			c0.4,0.2,0.7,0.5,1,0.8c0.3,0.3,0.5,0.6,0.7,0.9c0.2,0.3,0.3,0.7,0.4,1.1c0.1,0.4,0.1,0.7,0.1,1.1c0,0.1,0,0.3,0,0.4
			c0,0.1,0,0.2,0,0.3l-3.2-1.8c0.1,0.4,0.2,0.8,0.5,1.1s0.5,0.6,0.9,0.8c0.4,0.2,0.8,0.3,1.1,0.3l0.5,1.3c-0.3,0-0.6,0-0.9-0.1
			C340.9,237.9,340.6,237.7,340.2,237.5z M339.1,233.5l1.9,1.1c0-0.3-0.1-0.6-0.2-0.8c-0.1-0.3-0.4-0.5-0.7-0.7
			c-0.3-0.1-0.5-0.2-0.7-0.1C339.2,233,339.1,233.2,339.1,233.5z"/>
		<path class="st5" d="M344.3,239.9c-0.3-0.2-0.5-0.4-0.7-0.7s-0.3-0.6-0.3-0.9c0-0.3,0.1-0.5,0.3-0.6s0.4,0,0.7,0.1
			c0.3,0.2,0.5,0.4,0.7,0.7c0.2,0.3,0.3,0.6,0.3,0.9c0,0.3-0.1,0.5-0.3,0.5C344.8,240.1,344.6,240,344.3,239.9z"/>
		<path class="st5" d="M348,242c-0.2-0.1-0.5-0.3-0.7-0.5c-0.2-0.2-0.4-0.4-0.5-0.6c-0.1-0.2-0.2-0.5-0.3-0.7
			c-0.1-0.2-0.1-0.5-0.1-0.7c0-0.6,0.2-0.9,0.7-0.9c0.5,0,1.2,0.2,2.3,0.7c0-0.2-0.1-0.5-0.2-0.7c-0.1-0.2-0.3-0.4-0.6-0.6
			c-0.2-0.1-0.5-0.2-0.7-0.3c-0.2,0-0.5-0.1-0.7-0.1l-0.6-1.4c0.3,0,0.7,0,1.1,0.1c0.4,0.1,0.8,0.3,1.2,0.5c0.7,0.4,1.2,0.9,1.6,1.5
			c0.4,0.6,0.5,1.3,0.5,2.1v3l-1.3-0.7l-0.1-0.6l0,0c-0.2,0.1-0.5,0.1-0.7,0.1C348.5,242.3,348.3,242.2,348,242z M348.5,241.1
			c0.2,0.1,0.3,0.2,0.5,0.1c0.1,0,0.3,0,0.4-0.1v-0.9c-0.6-0.2-0.9-0.4-1.2-0.3c-0.2,0-0.3,0.1-0.3,0.4c0,0.2,0.1,0.3,0.2,0.5
			C348.2,240.8,348.3,241,348.5,241.1z"/>
		<path class="st5" d="M353.7,245.3c-0.3-0.2-0.5-0.3-0.7-0.5c-0.2-0.2-0.3-0.4-0.4-0.6c-0.1-0.2-0.2-0.4-0.2-0.7
			c-0.1-0.2-0.1-0.5-0.1-0.8v-5.9l1.6,0.9v5.9c0,0.2,0,0.3,0.1,0.4c0.1,0.1,0.1,0.2,0.2,0.2c0,0,0.1,0,0.1,0.1c0,0,0.1,0,0.1,0
			l0.2,1.3c-0.1,0-0.2,0-0.3-0.1C354,245.5,353.9,245.4,353.7,245.3z"/>
		<path class="st5" d="M357.6,247.6c-0.3-0.2-0.7-0.4-1-0.8c-0.3-0.3-0.6-0.6-0.8-1c-0.2-0.4-0.4-0.8-0.6-1.2
			c-0.1-0.4-0.2-0.9-0.2-1.3c0-0.4,0.1-0.8,0.2-1.1c0.1-0.3,0.3-0.4,0.6-0.5c0.2-0.1,0.5-0.1,0.8-0.1c0.3,0.1,0.6,0.2,1,0.4
			s0.7,0.4,1,0.7c0.3,0.3,0.6,0.6,0.8,1c0.2,0.4,0.4,0.8,0.6,1.2c0.1,0.4,0.2,0.9,0.2,1.3c0,0.4-0.1,0.8-0.2,1.1
			c-0.1,0.3-0.3,0.4-0.6,0.5c-0.2,0.1-0.5,0.1-0.8,0.1C358.3,247.9,357.9,247.8,357.6,247.6z M357.6,246.3c0.3,0.2,0.6,0.2,0.7,0
			c0.2-0.2,0.2-0.5,0.2-1s-0.1-0.9-0.2-1.2c-0.2-0.4-0.4-0.6-0.7-0.8c-0.3-0.2-0.6-0.2-0.7,0c-0.2,0.2-0.2,0.5-0.2,1
			s0.1,0.9,0.2,1.2C357,245.8,357.3,246.1,357.6,246.3z"/>
		<path class="st5" d="M360.9,245.1V244l4.9,2.8v1.1L360.9,245.1z M360.9,247.6v-1.1l4.9,2.8v1.1L360.9,247.6z"/>
		<path class="st5" d="M366.6,252.7v-0.8l2.2-1.9l-2-1.1v-1.2l3.9,2.3v0.8l-2.2,2l2.3,1.3v1.2L366.6,252.7z"/>
		<path class="st5" d="M371.6,255.5v-0.8l2.2-1.9l-2-1.1v-1.2l3.9,2.3v0.8l-2.2,2l2.3,1.3v1.2L371.6,255.5z"/>
		<path class="st5" d="M376.4,257.2v-1.3l1.9,0.5l1.4,0.3v0l-1.4-1.3l-1.9-1.7v-1.3l4.9,4.7v1.1L376.4,257.2z"/>
		<path class="st5" d="M383.8,262.7c-0.2-0.1-0.5-0.3-0.7-0.5c-0.2-0.2-0.4-0.4-0.5-0.6c-0.1-0.2-0.2-0.5-0.3-0.7
			c-0.1-0.2-0.1-0.5-0.1-0.7c0-0.6,0.2-0.9,0.7-0.9c0.5,0,1.2,0.2,2.3,0.7c0-0.2-0.1-0.5-0.2-0.7c-0.1-0.2-0.3-0.4-0.6-0.6
			c-0.2-0.1-0.5-0.2-0.7-0.3c-0.2,0-0.5-0.1-0.7-0.1l-0.6-1.4c0.3,0,0.7,0,1.1,0.1c0.4,0.1,0.8,0.3,1.2,0.5c0.7,0.4,1.2,0.9,1.6,1.5
			s0.5,1.3,0.5,2.1v3l-1.3-0.7l-0.1-0.6l0,0c-0.2,0.1-0.5,0.1-0.7,0.1C384.3,262.9,384.1,262.8,383.8,262.7z M384.3,261.8
			c0.2,0.1,0.3,0.2,0.5,0.1c0.1,0,0.3,0,0.4-0.1v-0.9c-0.6-0.2-0.9-0.4-1.2-0.3c-0.2,0-0.3,0.1-0.3,0.4c0,0.2,0.1,0.3,0.2,0.5
			C384,261.5,384.1,261.7,384.3,261.8z"/>
		<path class="st5" d="M389.6,266.1c-0.4-0.2-0.7-0.5-1.1-0.8c-0.4-0.3-0.7-0.7-1-1.1l0.7-0.6c0.2,0.3,0.5,0.6,0.7,0.8
			c0.2,0.2,0.4,0.4,0.7,0.5c0.2,0.1,0.4,0.2,0.5,0.2c0.1,0,0.2-0.1,0.2-0.2c0-0.1,0-0.2-0.1-0.3c-0.1-0.1-0.1-0.2-0.2-0.3
			c-0.1-0.1-0.2-0.2-0.3-0.4c-0.1-0.1-0.3-0.2-0.4-0.4c-0.2-0.2-0.3-0.3-0.5-0.5c-0.2-0.2-0.3-0.4-0.4-0.6c-0.1-0.2-0.2-0.4-0.3-0.6
			c-0.1-0.2-0.1-0.4-0.1-0.7c0-0.2,0-0.4,0.1-0.6c0.1-0.2,0.2-0.2,0.4-0.3c0.2,0,0.4,0,0.6,0c0.2,0.1,0.5,0.2,0.8,0.4
			c0.4,0.2,0.8,0.5,1.1,0.8c0.3,0.3,0.6,0.6,0.8,0.9l-0.7,0.5c-0.2-0.3-0.4-0.5-0.6-0.7c-0.2-0.2-0.4-0.3-0.6-0.4
			c-0.4-0.2-0.6-0.2-0.6,0.1c0,0.1,0,0.2,0.1,0.3c0.1,0.1,0.1,0.2,0.2,0.3c0.1,0.1,0.2,0.2,0.3,0.3c0.1,0.1,0.3,0.2,0.4,0.4
			c0.2,0.2,0.3,0.3,0.5,0.5c0.2,0.2,0.3,0.4,0.5,0.6c0.1,0.2,0.3,0.4,0.3,0.6c0.1,0.2,0.1,0.5,0.1,0.7s0,0.4-0.1,0.6
			c-0.1,0.2-0.2,0.3-0.4,0.3c-0.2,0-0.4,0-0.7,0C390.3,266.4,390,266.3,389.6,266.1z"/>
		<path class="st5" d="M394.7,269c-0.3-0.2-0.6-0.4-0.9-0.7c-0.3-0.3-0.5-0.6-0.7-0.9c-0.2-0.3-0.3-0.7-0.4-1.1
			c-0.1-0.4-0.2-0.8-0.2-1.3c0-0.4,0.1-0.8,0.2-1.1c0.1-0.3,0.3-0.5,0.5-0.6c0.2-0.1,0.4-0.2,0.7-0.1c0.3,0,0.5,0.1,0.8,0.3
			c0.3,0.2,0.5,0.4,0.7,0.6c0.2,0.2,0.4,0.5,0.6,0.7l-0.1-0.9v-1.8l1.6,0.9v7.5l-1.3-0.7l-0.1-0.6l0,0c-0.2,0.1-0.4,0.1-0.7,0.1
			C395.2,269.2,395,269.1,394.7,269z M395.1,267.9c0.2,0.1,0.3,0.2,0.5,0.2c0.1,0,0.3,0,0.4-0.1v-2.2c-0.1-0.2-0.3-0.4-0.4-0.5
			c-0.1-0.1-0.3-0.2-0.4-0.3c-0.2-0.1-0.5-0.2-0.7,0c-0.2,0.1-0.3,0.4-0.3,1c0,0.5,0.1,1,0.3,1.3
			C394.6,267.5,394.8,267.8,395.1,267.9z"/>
		<path class="st5" d="M400.9,274.7c-0.3-0.2-0.6-0.4-0.9-0.6c-0.3-0.2-0.5-0.4-0.7-0.6c-0.2-0.2-0.4-0.5-0.5-0.7
			c-0.1-0.2-0.2-0.5-0.2-0.7c0-0.4,0.3-0.6,0.8-0.6v0c-0.1-0.2-0.3-0.4-0.4-0.6c-0.1-0.2-0.1-0.4-0.1-0.6c0-0.2,0.1-0.3,0.2-0.5
			c0.1-0.1,0.3-0.2,0.4-0.2v0c-0.2-0.2-0.4-0.5-0.5-0.8c-0.1-0.3-0.2-0.6-0.2-1c0-0.3,0.1-0.6,0.2-0.7c0.1-0.2,0.3-0.3,0.5-0.3
			c0.2,0,0.4,0,0.7,0c0.3,0.1,0.5,0.2,0.8,0.4c0.3,0.2,0.6,0.4,0.8,0.6l1.9,1.1v1.1l-0.8-0.5c0.1,0.1,0.1,0.2,0.1,0.4
			c0,0.1,0,0.3,0,0.4c0,0.3-0.1,0.5-0.2,0.7c-0.1,0.2-0.3,0.3-0.4,0.3c-0.2,0-0.4,0-0.7-0.1c-0.3-0.1-0.5-0.2-0.8-0.4
			c-0.2-0.1-0.4-0.3-0.6-0.5c-0.1,0-0.1,0-0.1,0.1c0,0,0,0.1,0,0.2c0,0.1,0.1,0.3,0.2,0.4c0.1,0.1,0.3,0.3,0.6,0.5l0.9,0.5
			c0.7,0.4,1.2,0.8,1.5,1.2c0.3,0.4,0.5,0.9,0.5,1.3c0,0.3-0.1,0.5-0.2,0.6s-0.3,0.2-0.6,0.3c-0.3,0-0.6,0-0.9-0.1
			C401.7,275.1,401.3,274.9,400.9,274.7z M401.1,273.8c0.4,0.2,0.7,0.3,0.9,0.3c0.2,0,0.3-0.1,0.3-0.3c0-0.2-0.1-0.3-0.2-0.5
			c-0.1-0.1-0.3-0.3-0.6-0.4l-0.5-0.3c-0.2-0.1-0.3-0.2-0.5-0.3c-0.1-0.1-0.2-0.1-0.3-0.2c-0.2,0.1-0.3,0.2-0.3,0.4
			c0,0.2,0.1,0.4,0.3,0.6C400.5,273.4,400.7,273.6,401.1,273.8z M401,269.8c0.2,0.1,0.4,0.1,0.5,0.1c0.1-0.1,0.2-0.2,0.2-0.5
			c0-0.3-0.1-0.5-0.2-0.8c-0.1-0.2-0.3-0.4-0.5-0.5c-0.2-0.1-0.4-0.1-0.5-0.1c-0.1,0.1-0.2,0.2-0.2,0.5c0,0.3,0.1,0.6,0.2,0.8
			C400.6,269.6,400.8,269.7,401,269.8z"/>
		<path class="st5" d="M404.4,276.2l2.2-8.1l1,0.6l-2.2,8.1L404.4,276.2z"/>
		<path class="st5" d="M408.1,278.3l2.2-8.1l1,0.6l-2.2,8.1L408.1,278.3z"/>
		<path class="st6" d="M343.5,185.9v-1.3l1.9,0.5l1.4,0.3v0l-1.4-1.3l-1.9-1.7V181l4.9,4.7v1.1L343.5,185.9z"/>
		<path class="st6" d="M350.9,191.4c-0.3-0.2-0.5-0.3-0.7-0.5s-0.3-0.4-0.4-0.6c-0.1-0.2-0.2-0.4-0.2-0.7c-0.1-0.2-0.1-0.5-0.1-0.8
			v-5.9l1.6,0.9v5.9c0,0.2,0,0.3,0.1,0.4c0.1,0.1,0.1,0.2,0.2,0.2c0,0,0.1,0,0.1,0.1c0,0,0.1,0,0.1,0l0.2,1.3c-0.1,0-0.2,0-0.3-0.1
			C351.2,191.6,351.1,191.5,350.9,191.4z"/>
		<path class="st6" d="M354.8,193.6c-0.3-0.2-0.7-0.4-1-0.8c-0.3-0.3-0.6-0.6-0.8-1c-0.2-0.4-0.4-0.8-0.6-1.2
			c-0.1-0.4-0.2-0.9-0.2-1.3s0.1-0.8,0.2-1.1c0.1-0.3,0.3-0.4,0.6-0.5c0.2-0.1,0.5-0.1,0.8-0.1c0.3,0.1,0.6,0.2,1,0.4s0.7,0.4,1,0.7
			c0.3,0.3,0.6,0.6,0.8,1c0.2,0.4,0.4,0.8,0.6,1.2c0.1,0.4,0.2,0.9,0.2,1.3s-0.1,0.8-0.2,1.1c-0.1,0.3-0.3,0.4-0.6,0.5
			c-0.2,0.1-0.5,0.1-0.8,0.1C355.5,194,355.1,193.8,354.8,193.6z M354.8,192.4c0.3,0.2,0.6,0.2,0.7,0c0.2-0.2,0.2-0.5,0.2-1
			s-0.1-0.9-0.2-1.2c-0.2-0.4-0.4-0.6-0.7-0.8c-0.3-0.2-0.6-0.2-0.7,0c-0.2,0.2-0.2,0.5-0.2,1c0,0.5,0.1,0.9,0.2,1.2
			C354.2,191.9,354.5,192.2,354.8,192.4z"/>
		<path class="st6" d="M359.9,196.6c-0.3-0.2-0.5-0.3-0.7-0.5s-0.3-0.4-0.4-0.6c-0.1-0.2-0.2-0.4-0.2-0.7c-0.1-0.2-0.1-0.5-0.1-0.8
			v-5.9l1.6,0.9v5.9c0,0.2,0,0.3,0.1,0.4c0.1,0.1,0.1,0.2,0.2,0.2c0,0,0.1,0,0.1,0.1c0,0,0.1,0,0.1,0l0.2,1.3c-0.1,0-0.2,0-0.3-0.1
			C360.2,196.8,360.1,196.7,359.9,196.6z"/>
		<path class="st6" d="M362.4,194.6c-0.3-0.2-0.5-0.4-0.7-0.7s-0.3-0.6-0.3-0.9c0-0.3,0.1-0.5,0.3-0.6s0.4,0,0.7,0.1
			c0.3,0.2,0.5,0.4,0.7,0.7c0.2,0.3,0.3,0.6,0.3,0.9c0,0.3-0.1,0.5-0.3,0.5C362.9,194.8,362.7,194.7,362.4,194.6z M362.4,198
			c-0.3-0.2-0.5-0.4-0.7-0.7c-0.2-0.3-0.3-0.6-0.3-0.9c0-0.3,0.1-0.5,0.3-0.6s0.4,0,0.7,0.1c0.3,0.2,0.5,0.4,0.7,0.7
			c0.2,0.3,0.3,0.6,0.3,0.9c0,0.3-0.1,0.5-0.3,0.5C362.9,198.2,362.7,198.2,362.4,198z"/>
		<path class="st6" d="M364.7,199.3v-5.3l1.3,0.7l0.1,0.7l0,0c0.2-0.1,0.5-0.1,0.7-0.2c0.3,0,0.6,0.1,0.9,0.3
			c0.4,0.2,0.7,0.5,0.9,0.8c0.2,0.3,0.4,0.6,0.6,1c0.2-0.1,0.5-0.2,0.7-0.2c0.3,0,0.6,0.1,0.9,0.3c0.6,0.3,1,0.8,1.3,1.3
			c0.3,0.5,0.4,1.1,0.4,1.8v3.3l-1.6-0.9v-3.1c0-0.4-0.1-0.7-0.2-0.9c-0.1-0.2-0.3-0.4-0.5-0.5c-0.3-0.2-0.6-0.2-0.9,0v3.6l-1.6-0.9
			V198c0-0.4-0.1-0.7-0.2-0.9c-0.1-0.2-0.3-0.4-0.5-0.5c-0.3-0.2-0.6-0.2-0.9,0v3.6L364.7,199.3z"/>
		<path class="st6" d="M375.3,205.5c-0.2-0.1-0.5-0.3-0.7-0.5c-0.2-0.2-0.4-0.4-0.5-0.6c-0.1-0.2-0.2-0.5-0.3-0.7
			c-0.1-0.2-0.1-0.5-0.1-0.7c0-0.6,0.2-0.9,0.7-0.9c0.5,0,1.2,0.2,2.3,0.7c0-0.2-0.1-0.5-0.2-0.7c-0.1-0.2-0.3-0.4-0.6-0.6
			c-0.2-0.1-0.5-0.2-0.7-0.3c-0.2,0-0.5-0.1-0.7-0.1l-0.6-1.4c0.3,0,0.7,0,1.1,0.1s0.8,0.3,1.2,0.5c0.7,0.4,1.2,0.9,1.6,1.5
			c0.4,0.6,0.5,1.3,0.5,2.1v3l-1.3-0.7l-0.1-0.6l0,0c-0.2,0.1-0.5,0.1-0.7,0.1C375.8,205.7,375.6,205.6,375.3,205.5z M375.8,204.5
			c0.2,0.1,0.3,0.2,0.5,0.1c0.1,0,0.3,0,0.4-0.1v-0.9c-0.6-0.2-0.9-0.4-1.2-0.3c-0.2,0-0.3,0.1-0.3,0.4c0,0.2,0.1,0.3,0.2,0.5
			C375.5,204.3,375.6,204.4,375.8,204.5z"/>
		<path class="st6" d="M380.3,202.2c-0.3-0.2-0.5-0.4-0.7-0.6c-0.2-0.3-0.3-0.5-0.3-0.7c0-0.2,0.1-0.4,0.3-0.4
			c0.2-0.1,0.4,0,0.7,0.2c0.3,0.2,0.5,0.4,0.7,0.6c0.2,0.2,0.3,0.5,0.3,0.7s-0.1,0.4-0.3,0.4C380.8,202.4,380.6,202.3,380.3,202.2z
			 M379.6,207.8v-5.3l1.6,0.9v5.3L379.6,207.8z"/>
		<path class="st6" d="M382.5,209.5v-5.3l1.3,0.7l0.1,0.7l0,0c0.2-0.1,0.5-0.1,0.7-0.1c0.3,0,0.6,0.1,1,0.3c0.6,0.3,1,0.8,1.3,1.3
			c0.3,0.5,0.4,1.1,0.4,1.8v3.3l-1.6-0.9v-3.1c0-0.4-0.1-0.7-0.2-0.9c-0.1-0.2-0.3-0.4-0.5-0.5c-0.2-0.1-0.4-0.2-0.5-0.2
			c-0.1,0-0.3,0-0.5,0.1v3.6L382.5,209.5z"/>
		<path class="st6" d="M388.6,215v-7.3l1.3,0.7l0.1,0.6l0,0c0.2-0.1,0.4-0.1,0.7-0.1c0.3,0,0.5,0.1,0.8,0.3c0.3,0.2,0.6,0.4,0.9,0.7
			s0.5,0.6,0.7,0.9c0.2,0.3,0.3,0.7,0.4,1.1c0.1,0.4,0.1,0.8,0.1,1.2c0,0.5-0.1,0.8-0.2,1.1c-0.1,0.3-0.3,0.5-0.5,0.6
			c-0.2,0.1-0.4,0.2-0.7,0.1c-0.3,0-0.5-0.1-0.8-0.3c-0.2-0.1-0.4-0.3-0.7-0.5c-0.2-0.2-0.4-0.5-0.6-0.8l0.1,0.9v1.6L388.6,215z
			 M391.1,213.3c0.3,0.2,0.5,0.2,0.7,0c0.2-0.1,0.3-0.5,0.3-1c0-1-0.3-1.6-0.9-2c-0.3-0.2-0.6-0.2-0.9,0v2.2
			c0.1,0.2,0.3,0.4,0.4,0.5C390.8,213.1,390.9,213.2,391.1,213.3z"/>
		<path class="st6" d="M396,217.4c-0.2-0.1-0.5-0.3-0.7-0.5c-0.2-0.2-0.4-0.4-0.5-0.6c-0.1-0.2-0.2-0.5-0.3-0.7
			c-0.1-0.2-0.1-0.5-0.1-0.7c0-0.6,0.2-0.9,0.7-0.9c0.5,0,1.2,0.2,2.3,0.7c0-0.2-0.1-0.5-0.2-0.7c-0.1-0.2-0.3-0.4-0.6-0.6
			c-0.2-0.1-0.5-0.2-0.7-0.3c-0.2,0-0.5-0.1-0.7-0.1l-0.6-1.4c0.3,0,0.7,0,1.1,0.1c0.4,0.1,0.8,0.3,1.2,0.5c0.7,0.4,1.2,0.9,1.6,1.5
			c0.4,0.6,0.5,1.3,0.5,2.1v3l-1.3-0.7l-0.1-0.6l0,0c-0.2,0.1-0.5,0.1-0.7,0.1C396.6,217.7,396.3,217.6,396,217.4z M396.5,216.5
			c0.2,0.1,0.3,0.2,0.5,0.1c0.1,0,0.3,0,0.4-0.1v-0.9c-0.6-0.2-0.9-0.4-1.2-0.3c-0.2,0-0.3,0.1-0.3,0.4c0,0.2,0.1,0.3,0.2,0.5
			C396.2,216.3,396.4,216.4,396.5,216.5z"/>
		<path class="st6" d="M402.2,223.1c-0.3-0.2-0.6-0.4-0.9-0.6s-0.5-0.4-0.7-0.6c-0.2-0.2-0.4-0.5-0.5-0.7s-0.2-0.5-0.2-0.7
			c0-0.4,0.3-0.6,0.8-0.6v0c-0.1-0.2-0.3-0.4-0.4-0.6c-0.1-0.2-0.1-0.4-0.1-0.6c0-0.2,0.1-0.3,0.2-0.5c0.1-0.1,0.3-0.2,0.4-0.2v0
			c-0.2-0.2-0.4-0.5-0.5-0.8c-0.1-0.3-0.2-0.6-0.2-1c0-0.3,0.1-0.6,0.2-0.7c0.1-0.2,0.3-0.3,0.5-0.3c0.2,0,0.4,0,0.7,0
			c0.3,0.1,0.5,0.2,0.8,0.4c0.3,0.2,0.6,0.4,0.8,0.6l1.9,1.1v1.1l-0.8-0.5c0.1,0.1,0.1,0.2,0.1,0.4c0,0.1,0,0.3,0,0.4
			c0,0.3-0.1,0.5-0.2,0.7s-0.3,0.3-0.4,0.3c-0.2,0-0.4,0-0.7-0.1c-0.3-0.1-0.5-0.2-0.8-0.4c-0.2-0.1-0.4-0.3-0.6-0.5
			c-0.1,0-0.1,0-0.1,0.1c0,0,0,0.1,0,0.2c0,0.1,0.1,0.3,0.2,0.4c0.1,0.1,0.3,0.3,0.6,0.5l0.9,0.5c0.7,0.4,1.2,0.8,1.5,1.2
			c0.3,0.4,0.5,0.9,0.5,1.3c0,0.3-0.1,0.5-0.2,0.6c-0.1,0.2-0.3,0.2-0.6,0.3s-0.6,0-0.9-0.1C403.1,223.6,402.7,223.4,402.2,223.1z
			 M402.5,222.3c0.4,0.2,0.7,0.3,0.9,0.3c0.2,0,0.3-0.1,0.3-0.3c0-0.2-0.1-0.3-0.2-0.5c-0.1-0.1-0.3-0.3-0.6-0.4l-0.5-0.3
			c-0.2-0.1-0.3-0.2-0.5-0.3c-0.1-0.1-0.2-0.1-0.3-0.2c-0.2,0.1-0.3,0.2-0.3,0.4c0,0.2,0.1,0.4,0.3,0.6
			C401.8,221.9,402.1,222.1,402.5,222.3z M402.3,218.3c0.2,0.1,0.4,0.1,0.5,0.1c0.1-0.1,0.2-0.2,0.2-0.5c0-0.3-0.1-0.5-0.2-0.8
			c-0.1-0.2-0.3-0.4-0.5-0.5c-0.2-0.1-0.4-0.1-0.5-0.1c-0.1,0.1-0.2,0.2-0.2,0.5c0,0.3,0.1,0.6,0.2,0.8
			C401.9,218,402.1,218.2,402.3,218.3z"/>
		<path class="st6" d="M408.2,224.5c-0.4-0.2-0.7-0.5-1.1-0.8c-0.3-0.3-0.6-0.7-0.9-1c-0.2-0.4-0.4-0.8-0.6-1.2
			c-0.1-0.4-0.2-0.9-0.2-1.3c0-0.4,0.1-0.8,0.2-1c0.1-0.3,0.3-0.4,0.6-0.6c0.2-0.1,0.5-0.1,0.8-0.1c0.3,0,0.6,0.2,0.9,0.3
			c0.4,0.2,0.7,0.5,1,0.8c0.3,0.3,0.5,0.6,0.7,0.9c0.2,0.3,0.3,0.7,0.4,1.1c0.1,0.4,0.1,0.7,0.1,1.1c0,0.1,0,0.3,0,0.4
			c0,0.1,0,0.2,0,0.3l-3.2-1.8c0.1,0.4,0.2,0.8,0.5,1.1c0.2,0.3,0.5,0.6,0.9,0.8c0.4,0.2,0.8,0.3,1.1,0.3l0.5,1.3
			c-0.3,0-0.6,0-0.9-0.1C408.9,224.8,408.5,224.7,408.2,224.5z M407,220.4l1.9,1.1c0-0.3-0.1-0.6-0.2-0.8s-0.4-0.5-0.7-0.7
			c-0.3-0.1-0.5-0.2-0.7-0.1C407.2,219.9,407.1,220.1,407,220.4z"/>
		<path class="st6" d="M412.9,229c-0.4-1-0.8-2-1-2.9c-0.2-0.9-0.4-1.9-0.4-2.8c0-0.9,0.1-1.7,0.4-2.4c0.2-0.7,0.6-1.2,1-1.7l1,1
			c-0.4,0.5-0.7,1-0.9,1.7c-0.2,0.7-0.3,1.4-0.3,2.1c0,0.8,0.1,1.6,0.3,2.4c0.2,0.9,0.5,1.8,0.9,2.7L412.9,229z"/>
		<path class="st6" d="M415.1,228.3V223l1.3,0.7l0.1,1l0,0c0.2-0.3,0.4-0.4,0.7-0.4c0.3,0,0.5,0.1,0.8,0.2c0.1,0.1,0.3,0.2,0.4,0.2
			c0.1,0.1,0.2,0.2,0.3,0.2l-0.3,1.2c-0.1-0.1-0.2-0.2-0.3-0.2c-0.1-0.1-0.2-0.1-0.3-0.2c-0.2-0.1-0.4-0.2-0.6-0.1
			c-0.2,0-0.4,0.2-0.5,0.4v3.1L415.1,228.3z"/>
		<path class="st6" d="M419.3,230.8v-5.3l1.3,0.7l0.1,1l0,0c0.2-0.3,0.4-0.4,0.7-0.4s0.5,0.1,0.8,0.2c0.1,0.1,0.3,0.2,0.4,0.2
			c0.1,0.1,0.2,0.2,0.3,0.2l-0.3,1.2c-0.1-0.1-0.2-0.2-0.3-0.2c-0.1-0.1-0.2-0.1-0.3-0.2c-0.2-0.1-0.4-0.2-0.6-0.1
			c-0.2,0-0.4,0.2-0.5,0.4v3.1L419.3,230.8z"/>
		<path class="st6" d="M423.6,233.2v-5.3l1.3,0.7l0.1,1l0,0c0.2-0.3,0.4-0.4,0.7-0.4s0.5,0.1,0.8,0.2c0.1,0.1,0.3,0.2,0.4,0.2
			c0.1,0.1,0.2,0.2,0.3,0.2l-0.3,1.2c-0.1-0.1-0.2-0.2-0.3-0.2c-0.1-0.1-0.2-0.1-0.3-0.2c-0.2-0.1-0.4-0.2-0.6-0.1
			c-0.2,0-0.4,0.2-0.5,0.4v3.1L423.6,233.2z"/>
		<path class="st6" d="M427.9,235.7v-5.3l1.3,0.7l0.1,1l0,0c0.2-0.3,0.4-0.4,0.7-0.4s0.5,0.1,0.8,0.2c0.1,0.1,0.3,0.2,0.4,0.2
			c0.1,0.1,0.2,0.2,0.3,0.2l-0.3,1.2c-0.1-0.1-0.2-0.2-0.3-0.2c-0.1-0.1-0.2-0.1-0.3-0.2c-0.2-0.1-0.4-0.2-0.6-0.1
			c-0.2,0-0.4,0.2-0.5,0.4v3.1L427.9,235.7z"/>
		<path class="st6" d="M432.1,238.2v-5.3l1.3,0.7l0.1,1l0,0c0.2-0.3,0.4-0.4,0.7-0.4s0.5,0.1,0.8,0.2c0.1,0.1,0.3,0.2,0.4,0.2
			c0.1,0.1,0.2,0.2,0.3,0.2l-0.3,1.2c-0.1-0.1-0.2-0.2-0.3-0.2c-0.1-0.1-0.2-0.1-0.3-0.2c-0.2-0.1-0.4-0.2-0.6-0.1
			c-0.2,0-0.4,0.2-0.5,0.4v3.1L432.1,238.2z"/>
		<path class="st6" d="M436.4,240.6v-5.3l1.3,0.7l0.1,1l0,0c0.2-0.3,0.4-0.4,0.7-0.4c0.3,0,0.5,0.1,0.8,0.2c0.1,0.1,0.3,0.2,0.4,0.2
			c0.1,0.1,0.2,0.2,0.3,0.2l-0.3,1.2c-0.1-0.1-0.2-0.2-0.3-0.2c-0.1-0.1-0.2-0.1-0.3-0.2c-0.2-0.1-0.4-0.2-0.6-0.1
			c-0.2,0-0.4,0.2-0.5,0.4v3.1L436.4,240.6z"/>
		<path class="st6" d="M441.5,245.5l-1-1c0.4-0.5,0.7-1,0.9-1.7c0.2-0.7,0.3-1.4,0.3-2.1s-0.1-1.6-0.3-2.4c-0.2-0.9-0.5-1.8-0.9-2.7
			l1,0.2c0.4,1,0.8,2,1,2.9c0.2,0.9,0.4,1.9,0.4,2.8s-0.1,1.7-0.4,2.4C442.3,244.4,441.9,245,441.5,245.5z"/>
		<path class="st6" d="M343.5,198.4v-1.3l1.9,0.5l1.4,0.3v0l-1.4-1.3l-1.9-1.7v-1.3l4.9,4.7v1.1L343.5,198.4z"/>
		<path class="st6" d="M350.9,203.9c-0.3-0.2-0.5-0.3-0.7-0.5c-0.2-0.2-0.3-0.4-0.4-0.6c-0.1-0.2-0.2-0.4-0.2-0.7
			c-0.1-0.2-0.1-0.5-0.1-0.8v-5.9l1.6,0.9v5.9c0,0.2,0,0.3,0.1,0.4c0.1,0.1,0.1,0.2,0.2,0.2c0,0,0.1,0,0.1,0.1c0,0,0.1,0,0.1,0
			l0.2,1.3c-0.1,0-0.2,0-0.3-0.1C351.2,204.1,351.1,204,350.9,203.9z"/>
		<path class="st6" d="M354.8,206.1c-0.3-0.2-0.7-0.4-1-0.8c-0.3-0.3-0.6-0.6-0.8-1c-0.2-0.4-0.4-0.8-0.6-1.2
			c-0.1-0.4-0.2-0.9-0.2-1.3c0-0.4,0.1-0.8,0.2-1.1c0.1-0.3,0.3-0.4,0.6-0.5c0.2-0.1,0.5-0.1,0.8-0.1c0.3,0.1,0.6,0.2,1,0.4
			s0.7,0.4,1,0.7c0.3,0.3,0.6,0.6,0.8,1c0.2,0.4,0.4,0.8,0.6,1.2c0.1,0.4,0.2,0.9,0.2,1.3c0,0.4-0.1,0.8-0.2,1.1
			c-0.1,0.3-0.3,0.4-0.6,0.5c-0.2,0.1-0.5,0.1-0.8,0.1C355.5,206.5,355.1,206.3,354.8,206.1z M354.8,204.9c0.3,0.2,0.6,0.2,0.7,0
			c0.2-0.2,0.2-0.5,0.2-1c0-0.5-0.1-0.9-0.2-1.2c-0.2-0.4-0.4-0.6-0.7-0.8c-0.3-0.2-0.6-0.2-0.7,0c-0.2,0.2-0.2,0.5-0.2,1
			s0.1,0.9,0.2,1.2C354.2,204.4,354.5,204.7,354.8,204.9z"/>
		<path class="st6" d="M359.9,209.1c-0.3-0.2-0.5-0.3-0.7-0.5s-0.3-0.4-0.4-0.6c-0.1-0.2-0.2-0.4-0.2-0.7c-0.1-0.2-0.1-0.5-0.1-0.8
			v-5.9l1.6,0.9v5.9c0,0.2,0,0.3,0.1,0.4c0.1,0.1,0.1,0.2,0.2,0.2c0,0,0.1,0,0.1,0.1c0,0,0.1,0,0.1,0l0.2,1.3c-0.1,0-0.2,0-0.3-0.1
			C360.2,209.3,360.1,209.2,359.9,209.1z"/>
		<path class="st6" d="M362.4,207.1c-0.3-0.2-0.5-0.4-0.7-0.7c-0.2-0.3-0.3-0.6-0.3-0.9c0-0.3,0.1-0.5,0.3-0.6s0.4,0,0.7,0.1
			c0.3,0.2,0.5,0.4,0.7,0.7c0.2,0.3,0.3,0.6,0.3,0.9c0,0.3-0.1,0.5-0.3,0.5C362.9,207.3,362.7,207.2,362.4,207.1z M362.4,210.5
			c-0.3-0.2-0.5-0.4-0.7-0.7c-0.2-0.3-0.3-0.6-0.3-0.9c0-0.3,0.1-0.5,0.3-0.6c0.2-0.1,0.4,0,0.7,0.1c0.3,0.2,0.5,0.4,0.7,0.7
			c0.2,0.3,0.3,0.6,0.3,0.9c0,0.3-0.1,0.5-0.3,0.5C362.9,210.7,362.7,210.7,362.4,210.5z"/>
		<path class="st6" d="M364.7,211.7v-5.3l1.3,0.7l0.1,0.7l0,0c0.2-0.1,0.5-0.1,0.7-0.2c0.3,0,0.6,0.1,0.9,0.3
			c0.4,0.2,0.7,0.5,0.9,0.8c0.2,0.3,0.4,0.6,0.6,1c0.2-0.1,0.5-0.2,0.7-0.2c0.3,0,0.6,0.1,0.9,0.3c0.6,0.3,1,0.8,1.3,1.3
			c0.3,0.5,0.4,1.1,0.4,1.8v3.3l-1.6-0.9v-3.1c0-0.4-0.1-0.7-0.2-0.9c-0.1-0.2-0.3-0.4-0.5-0.5c-0.3-0.2-0.6-0.2-0.9,0v3.6l-1.6-0.9
			v-3.1c0-0.4-0.1-0.7-0.2-0.9c-0.1-0.2-0.3-0.4-0.5-0.5c-0.3-0.2-0.6-0.2-0.9,0v3.6L364.7,211.7z"/>
		<path class="st6" d="M375.3,217.9c-0.2-0.1-0.5-0.3-0.7-0.5c-0.2-0.2-0.4-0.4-0.5-0.6c-0.1-0.2-0.2-0.5-0.3-0.7
			c-0.1-0.2-0.1-0.5-0.1-0.7c0-0.6,0.2-0.9,0.7-0.9c0.5,0,1.2,0.2,2.3,0.7c0-0.2-0.1-0.5-0.2-0.7c-0.1-0.2-0.3-0.4-0.6-0.6
			c-0.2-0.1-0.5-0.2-0.7-0.3c-0.2,0-0.5-0.1-0.7-0.1l-0.6-1.4c0.3,0,0.7,0,1.1,0.1s0.8,0.3,1.2,0.5c0.7,0.4,1.2,0.9,1.6,1.5
			c0.4,0.6,0.5,1.3,0.5,2.1v3l-1.3-0.7l-0.1-0.6l0,0c-0.2,0.1-0.5,0.1-0.7,0.1C375.8,218.2,375.6,218.1,375.3,217.9z M375.8,217
			c0.2,0.1,0.3,0.2,0.5,0.1c0.1,0,0.3,0,0.4-0.1v-0.9c-0.6-0.2-0.9-0.4-1.2-0.3c-0.2,0-0.3,0.1-0.3,0.4c0,0.2,0.1,0.3,0.2,0.5
			C375.5,216.8,375.6,216.9,375.8,217z"/>
		<path class="st6" d="M380.3,214.7c-0.3-0.2-0.5-0.4-0.7-0.6c-0.2-0.3-0.3-0.5-0.3-0.7c0-0.2,0.1-0.4,0.3-0.4
			c0.2-0.1,0.4,0,0.7,0.2c0.3,0.2,0.5,0.4,0.7,0.6c0.2,0.2,0.3,0.5,0.3,0.7s-0.1,0.4-0.3,0.4C380.8,214.9,380.6,214.8,380.3,214.7z
			 M379.6,220.3V215l1.6,0.9v5.3L379.6,220.3z"/>
		<path class="st6" d="M382.5,222v-5.3l1.3,0.7l0.1,0.7l0,0c0.2-0.1,0.5-0.1,0.7-0.1c0.3,0,0.6,0.1,1,0.3c0.6,0.3,1,0.8,1.3,1.3
			c0.3,0.5,0.4,1.1,0.4,1.8v3.3l-1.6-0.9v-3.1c0-0.4-0.1-0.7-0.2-0.9c-0.1-0.2-0.3-0.4-0.5-0.5c-0.2-0.1-0.4-0.2-0.5-0.2
			c-0.1,0-0.3,0-0.5,0.1v3.6L382.5,222z"/>
		<path class="st6" d="M388.6,227.5v-7.3l1.3,0.7l0.1,0.6l0,0c0.2-0.1,0.4-0.1,0.7-0.1c0.3,0,0.5,0.1,0.8,0.3
			c0.3,0.2,0.6,0.4,0.9,0.7s0.5,0.6,0.7,0.9c0.2,0.3,0.3,0.7,0.4,1.1c0.1,0.4,0.1,0.8,0.1,1.2c0,0.5-0.1,0.8-0.2,1.1
			c-0.1,0.3-0.3,0.5-0.5,0.6c-0.2,0.1-0.4,0.2-0.7,0.1c-0.3,0-0.5-0.1-0.8-0.3c-0.2-0.1-0.4-0.3-0.7-0.5s-0.4-0.5-0.6-0.8l0.1,0.9
			v1.6L388.6,227.5z M391.1,225.8c0.3,0.2,0.5,0.2,0.7,0c0.2-0.1,0.3-0.5,0.3-1c0-1-0.3-1.6-0.9-2c-0.3-0.2-0.6-0.2-0.9,0v2.2
			c0.1,0.2,0.3,0.4,0.4,0.5C390.8,225.6,390.9,225.7,391.1,225.8z"/>
		<path class="st6" d="M396,229.9c-0.2-0.1-0.5-0.3-0.7-0.5c-0.2-0.2-0.4-0.4-0.5-0.6c-0.1-0.2-0.2-0.5-0.3-0.7
			c-0.1-0.2-0.1-0.5-0.1-0.7c0-0.6,0.2-0.9,0.7-0.9c0.5,0,1.2,0.2,2.3,0.7c0-0.2-0.1-0.5-0.2-0.7c-0.1-0.2-0.3-0.4-0.6-0.6
			c-0.2-0.1-0.5-0.2-0.7-0.3c-0.2,0-0.5-0.1-0.7-0.1l-0.6-1.4c0.3,0,0.7,0,1.1,0.1c0.4,0.1,0.8,0.3,1.2,0.5c0.7,0.4,1.2,0.9,1.6,1.5
			c0.4,0.6,0.5,1.3,0.5,2.1v3l-1.3-0.7l-0.1-0.6l0,0c-0.2,0.1-0.5,0.1-0.7,0.1C396.6,230.2,396.3,230.1,396,229.9z M396.5,229
			c0.2,0.1,0.3,0.2,0.5,0.1c0.1,0,0.3,0,0.4-0.1v-0.9c-0.6-0.2-0.9-0.4-1.2-0.3c-0.2,0-0.3,0.1-0.3,0.4c0,0.2,0.1,0.3,0.2,0.5
			C396.2,228.8,396.4,228.9,396.5,229z"/>
		<path class="st6" d="M402.2,235.6c-0.3-0.2-0.6-0.4-0.9-0.6s-0.5-0.4-0.7-0.6c-0.2-0.2-0.4-0.5-0.5-0.7s-0.2-0.5-0.2-0.7
			c0-0.4,0.3-0.6,0.8-0.6v0c-0.1-0.2-0.3-0.4-0.4-0.6c-0.1-0.2-0.1-0.4-0.1-0.6c0-0.2,0.1-0.3,0.2-0.5c0.1-0.1,0.3-0.2,0.4-0.2v0
			c-0.2-0.2-0.4-0.5-0.5-0.8c-0.1-0.3-0.2-0.6-0.2-1c0-0.3,0.1-0.6,0.2-0.7c0.1-0.2,0.3-0.3,0.5-0.3c0.2,0,0.4,0,0.7,0
			c0.3,0.1,0.5,0.2,0.8,0.4c0.3,0.2,0.6,0.4,0.8,0.6l1.9,1.1v1.1l-0.8-0.5c0.1,0.1,0.1,0.2,0.1,0.4c0,0.1,0,0.3,0,0.4
			c0,0.3-0.1,0.5-0.2,0.7s-0.3,0.3-0.4,0.3c-0.2,0-0.4,0-0.7-0.1c-0.3-0.1-0.5-0.2-0.8-0.4c-0.2-0.1-0.4-0.3-0.6-0.5
			c-0.1,0-0.1,0-0.1,0.1c0,0,0,0.1,0,0.2c0,0.1,0.1,0.3,0.2,0.4c0.1,0.1,0.3,0.3,0.6,0.5l0.9,0.5c0.7,0.4,1.2,0.8,1.5,1.2
			c0.3,0.4,0.5,0.9,0.5,1.3c0,0.3-0.1,0.5-0.2,0.6c-0.1,0.2-0.3,0.2-0.6,0.3s-0.6,0-0.9-0.1C403.1,236.1,402.7,235.9,402.2,235.6z
			 M402.5,234.8c0.4,0.2,0.7,0.3,0.9,0.3c0.2,0,0.3-0.1,0.3-0.3c0-0.2-0.1-0.3-0.2-0.5c-0.1-0.1-0.3-0.3-0.6-0.4l-0.5-0.3
			c-0.2-0.1-0.3-0.2-0.5-0.3c-0.1-0.1-0.2-0.1-0.3-0.2c-0.2,0.1-0.3,0.2-0.3,0.4c0,0.2,0.1,0.4,0.3,0.6
			C401.8,234.4,402.1,234.6,402.5,234.8z M402.3,230.8c0.2,0.1,0.4,0.1,0.5,0.1c0.1-0.1,0.2-0.2,0.2-0.5c0-0.3-0.1-0.5-0.2-0.8
			c-0.1-0.2-0.3-0.4-0.5-0.5c-0.2-0.1-0.4-0.1-0.5-0.1s-0.2,0.2-0.2,0.5c0,0.3,0.1,0.6,0.2,0.8C401.9,230.5,402.1,230.7,402.3,230.8
			z"/>
		<path class="st6" d="M408.2,237c-0.4-0.2-0.7-0.5-1.1-0.8c-0.3-0.3-0.6-0.7-0.9-1c-0.2-0.4-0.4-0.8-0.6-1.2
			c-0.1-0.4-0.2-0.9-0.2-1.3c0-0.4,0.1-0.8,0.2-1c0.1-0.3,0.3-0.4,0.6-0.6c0.2-0.1,0.5-0.1,0.8-0.1c0.3,0,0.6,0.2,0.9,0.3
			c0.4,0.2,0.7,0.5,1,0.8c0.3,0.3,0.5,0.6,0.7,0.9c0.2,0.3,0.3,0.7,0.4,1.1c0.1,0.4,0.1,0.7,0.1,1.1c0,0.1,0,0.3,0,0.4
			c0,0.1,0,0.2,0,0.3L407,234c0.1,0.4,0.2,0.8,0.5,1.1c0.2,0.3,0.5,0.6,0.9,0.8c0.4,0.2,0.8,0.3,1.1,0.3l0.5,1.3
			c-0.3,0-0.6,0-0.9-0.1C408.9,237.3,408.5,237.2,408.2,237z M407,232.9l1.9,1.1c0-0.3-0.1-0.6-0.2-0.8c-0.1-0.3-0.4-0.5-0.7-0.7
			c-0.3-0.1-0.5-0.2-0.7-0.1C407.2,232.4,407.1,232.6,407,232.9z"/>
		<path class="st6" d="M412.9,241.5c-0.4-1-0.8-2-1-2.9c-0.2-0.9-0.4-1.9-0.4-2.8s0.1-1.7,0.4-2.4c0.2-0.7,0.6-1.2,1-1.7l1,1
			c-0.4,0.5-0.7,1-0.9,1.7c-0.2,0.7-0.3,1.4-0.3,2.1c0,0.8,0.1,1.6,0.3,2.4c0.2,0.9,0.5,1.8,0.9,2.7L412.9,241.5z"/>
		<path class="st6" d="M415.1,240.8v-5.3l1.3,0.7l0.1,1l0,0c0.2-0.3,0.4-0.4,0.7-0.4c0.3,0,0.5,0.1,0.8,0.2c0.1,0.1,0.3,0.2,0.4,0.2
			c0.1,0.1,0.2,0.2,0.3,0.2l-0.3,1.2c-0.1-0.1-0.2-0.2-0.3-0.2c-0.1-0.1-0.2-0.1-0.3-0.2c-0.2-0.1-0.4-0.2-0.6-0.1
			c-0.2,0-0.4,0.2-0.5,0.4v3.1L415.1,240.8z"/>
		<path class="st6" d="M419.3,243.3V238l1.3,0.7l0.1,1l0,0c0.2-0.3,0.4-0.4,0.7-0.4s0.5,0.1,0.8,0.2c0.1,0.1,0.3,0.2,0.4,0.2
			c0.1,0.1,0.2,0.2,0.3,0.2l-0.3,1.2c-0.1-0.1-0.2-0.2-0.3-0.2c-0.1-0.1-0.2-0.1-0.3-0.2c-0.2-0.1-0.4-0.2-0.6-0.1
			c-0.2,0-0.4,0.2-0.5,0.4v3.1L419.3,243.3z"/>
		<path class="st6" d="M423.6,245.7v-5.3l1.3,0.7l0.1,1l0,0c0.2-0.3,0.4-0.4,0.7-0.4s0.5,0.1,0.8,0.2c0.1,0.1,0.3,0.2,0.4,0.2
			c0.1,0.1,0.2,0.2,0.3,0.2l-0.3,1.2c-0.1-0.1-0.2-0.2-0.3-0.2c-0.1-0.1-0.2-0.1-0.3-0.2c-0.2-0.1-0.4-0.2-0.6-0.1
			c-0.2,0-0.4,0.2-0.5,0.4v3.1L423.6,245.7z"/>
		<path class="st6" d="M427.9,248.2v-5.3l1.3,0.7l0.1,1l0,0c0.2-0.3,0.4-0.4,0.7-0.4c0.3,0,0.5,0.1,0.8,0.2c0.1,0.1,0.3,0.2,0.4,0.2
			c0.1,0.1,0.2,0.2,0.3,0.2l-0.3,1.2c-0.1-0.1-0.2-0.2-0.3-0.2c-0.1-0.1-0.2-0.1-0.3-0.2c-0.2-0.1-0.4-0.2-0.6-0.1
			c-0.2,0-0.4,0.2-0.5,0.4v3.1L427.9,248.2z"/>
		<path class="st6" d="M432.1,250.7v-5.3l1.3,0.7l0.1,1l0,0c0.2-0.3,0.4-0.4,0.7-0.4s0.5,0.1,0.8,0.2c0.1,0.1,0.3,0.2,0.4,0.2
			c0.1,0.1,0.2,0.2,0.3,0.2l-0.3,1.2c-0.1-0.1-0.2-0.2-0.3-0.2c-0.1-0.1-0.2-0.1-0.3-0.2c-0.2-0.1-0.4-0.2-0.6-0.1
			c-0.2,0-0.4,0.2-0.5,0.4v3.1L432.1,250.7z"/>
		<path class="st6" d="M436.4,253.1v-5.3l1.3,0.7l0.1,1l0,0c0.2-0.3,0.4-0.4,0.7-0.4c0.3,0,0.5,0.1,0.8,0.2c0.1,0.1,0.3,0.2,0.4,0.2
			c0.1,0.1,0.2,0.2,0.3,0.2l-0.3,1.2c-0.1-0.1-0.2-0.2-0.3-0.2c-0.1-0.1-0.2-0.1-0.3-0.2c-0.2-0.1-0.4-0.2-0.6-0.1
			c-0.2,0-0.4,0.2-0.5,0.4v3.1L436.4,253.1z"/>
		<path class="st6" d="M343.5,211.7v-1.3l1.9,0.5l1.4,0.3v0l-1.4-1.3l-1.9-1.7v-1.3l4.9,4.7v1.1L343.5,211.7z"/>
		<path class="st6" d="M350.9,217.3c-0.3-0.2-0.5-0.3-0.7-0.5s-0.3-0.4-0.4-0.6c-0.1-0.2-0.2-0.4-0.2-0.7c-0.1-0.2-0.1-0.5-0.1-0.8
			v-5.9l1.6,0.9v5.9c0,0.2,0,0.3,0.1,0.4c0.1,0.1,0.1,0.2,0.2,0.2c0,0,0.1,0,0.1,0.1c0,0,0.1,0,0.1,0l0.2,1.3c-0.1,0-0.2,0-0.3-0.1
			C351.2,217.5,351.1,217.4,350.9,217.3z"/>
		<path class="st6" d="M354.8,219.5c-0.3-0.2-0.7-0.4-1-0.8c-0.3-0.3-0.6-0.6-0.8-1c-0.2-0.4-0.4-0.8-0.6-1.2
			c-0.1-0.4-0.2-0.9-0.2-1.3s0.1-0.8,0.2-1.1c0.1-0.3,0.3-0.4,0.6-0.5c0.2-0.1,0.5-0.1,0.8-0.1c0.3,0.1,0.6,0.2,1,0.4
			c0.3,0.2,0.7,0.4,1,0.7c0.3,0.3,0.6,0.6,0.8,1c0.2,0.4,0.4,0.8,0.6,1.2c0.1,0.4,0.2,0.9,0.2,1.3c0,0.4-0.1,0.8-0.2,1.1
			c-0.1,0.3-0.3,0.4-0.6,0.5c-0.2,0.1-0.5,0.1-0.8,0.1C355.5,219.8,355.1,219.7,354.8,219.5z M354.8,218.3c0.3,0.2,0.6,0.2,0.7,0
			c0.2-0.2,0.2-0.5,0.2-1c0-0.5-0.1-0.9-0.2-1.2c-0.2-0.4-0.4-0.6-0.7-0.8c-0.3-0.2-0.6-0.2-0.7,0c-0.2,0.2-0.2,0.5-0.2,1
			s0.1,0.9,0.2,1.2C354.2,217.8,354.5,218.1,354.8,218.3z"/>
		<path class="st6" d="M359.9,222.5c-0.3-0.2-0.5-0.3-0.7-0.5s-0.3-0.4-0.4-0.6c-0.1-0.2-0.2-0.4-0.2-0.7c-0.1-0.2-0.1-0.5-0.1-0.8
			V214l1.6,0.9v5.9c0,0.2,0,0.3,0.1,0.4c0.1,0.1,0.1,0.2,0.2,0.2c0,0,0.1,0,0.1,0.1c0,0,0.1,0,0.1,0l0.2,1.3c-0.1,0-0.2,0-0.3-0.1
			C360.2,222.7,360.1,222.6,359.9,222.5z"/>
		<path class="st6" d="M362.4,220.5c-0.3-0.2-0.5-0.4-0.7-0.7c-0.2-0.3-0.3-0.6-0.3-0.9c0-0.3,0.1-0.5,0.3-0.6s0.4,0,0.7,0.1
			c0.3,0.2,0.5,0.4,0.7,0.7c0.2,0.3,0.3,0.6,0.3,0.9c0,0.3-0.1,0.5-0.3,0.5C362.9,220.7,362.7,220.6,362.4,220.5z M362.4,223.9
			c-0.3-0.2-0.5-0.4-0.7-0.7c-0.2-0.3-0.3-0.6-0.3-0.9c0-0.3,0.1-0.5,0.3-0.6s0.4,0,0.7,0.1c0.3,0.2,0.5,0.4,0.7,0.7
			c0.2,0.3,0.3,0.6,0.3,0.9c0,0.3-0.1,0.5-0.3,0.5C362.9,224.1,362.7,224.1,362.4,223.9z"/>
		<path class="st6" d="M364.7,225.1v-5.3l1.3,0.7l0.1,0.7l0,0c0.2-0.1,0.5-0.1,0.7-0.2c0.3,0,0.6,0.1,0.9,0.3
			c0.4,0.2,0.7,0.5,0.9,0.8c0.2,0.3,0.4,0.6,0.6,1c0.2-0.1,0.5-0.2,0.7-0.2c0.3,0,0.6,0.1,0.9,0.3c0.6,0.3,1,0.8,1.3,1.3
			c0.3,0.5,0.4,1.1,0.4,1.8v3.3l-1.6-0.9v-3.1c0-0.4-0.1-0.7-0.2-0.9c-0.1-0.2-0.3-0.4-0.5-0.5c-0.3-0.2-0.6-0.2-0.9,0v3.6l-1.6-0.9
			v-3.1c0-0.4-0.1-0.7-0.2-0.9c-0.1-0.2-0.3-0.4-0.5-0.5c-0.3-0.2-0.6-0.2-0.9,0v3.6L364.7,225.1z"/>
		<path class="st6" d="M375.3,231.3c-0.2-0.1-0.5-0.3-0.7-0.5c-0.2-0.2-0.4-0.4-0.5-0.6c-0.1-0.2-0.2-0.5-0.3-0.7
			c-0.1-0.2-0.1-0.5-0.1-0.7c0-0.6,0.2-0.9,0.7-0.9c0.5,0,1.2,0.2,2.3,0.7c0-0.2-0.1-0.5-0.2-0.7c-0.1-0.2-0.3-0.4-0.6-0.6
			c-0.2-0.1-0.5-0.2-0.7-0.3c-0.2,0-0.5-0.1-0.7-0.1l-0.6-1.4c0.3,0,0.7,0,1.1,0.1s0.8,0.3,1.2,0.5c0.7,0.4,1.2,0.9,1.6,1.5
			c0.4,0.6,0.5,1.3,0.5,2.1v3l-1.3-0.7l-0.1-0.6l0,0c-0.2,0.1-0.5,0.1-0.7,0.1C375.8,231.6,375.6,231.5,375.3,231.3z M375.8,230.4
			c0.2,0.1,0.3,0.2,0.5,0.1c0.1,0,0.3,0,0.4-0.1v-0.9c-0.6-0.2-0.9-0.4-1.2-0.3c-0.2,0-0.3,0.1-0.3,0.4c0,0.2,0.1,0.3,0.2,0.5
			C375.5,230.2,375.6,230.3,375.8,230.4z"/>
		<path class="st6" d="M380.3,228.1c-0.3-0.2-0.5-0.4-0.7-0.6c-0.2-0.3-0.3-0.5-0.3-0.7c0-0.2,0.1-0.4,0.3-0.4
			c0.2-0.1,0.4,0,0.7,0.2c0.3,0.2,0.5,0.4,0.7,0.6c0.2,0.2,0.3,0.5,0.3,0.7s-0.1,0.4-0.3,0.4C380.8,228.3,380.6,228.2,380.3,228.1z
			 M379.6,233.7v-5.3l1.6,0.9v5.3L379.6,233.7z"/>
		<path class="st6" d="M382.5,235.4v-5.3l1.3,0.7l0.1,0.7l0,0c0.2-0.1,0.5-0.1,0.7-0.1c0.3,0,0.6,0.1,1,0.3c0.6,0.3,1,0.8,1.3,1.3
			c0.3,0.5,0.4,1.1,0.4,1.8v3.3l-1.6-0.9v-3.1c0-0.4-0.1-0.7-0.2-0.9s-0.3-0.4-0.5-0.5c-0.2-0.1-0.4-0.2-0.5-0.2
			c-0.1,0-0.3,0-0.5,0.1v3.6L382.5,235.4z"/>
		<path class="st6" d="M388.6,240.9v-7.3l1.3,0.7l0.1,0.6l0,0c0.2-0.1,0.4-0.1,0.7-0.1c0.3,0,0.5,0.1,0.8,0.3
			c0.3,0.2,0.6,0.4,0.9,0.7s0.5,0.6,0.7,0.9c0.2,0.3,0.3,0.7,0.4,1.1c0.1,0.4,0.1,0.8,0.1,1.2c0,0.5-0.1,0.8-0.2,1.1
			c-0.1,0.3-0.3,0.5-0.5,0.6c-0.2,0.1-0.4,0.2-0.7,0.1c-0.3,0-0.5-0.1-0.8-0.3c-0.2-0.1-0.4-0.3-0.7-0.5s-0.4-0.5-0.6-0.8l0.1,0.9
			v1.6L388.6,240.9z M391.1,239.2c0.3,0.2,0.5,0.2,0.7,0c0.2-0.1,0.3-0.5,0.3-1c0-1-0.3-1.6-0.9-2c-0.3-0.2-0.6-0.2-0.9,0v2.2
			c0.1,0.2,0.3,0.4,0.4,0.5C390.8,239,390.9,239.1,391.1,239.2z"/>
		<path class="st6" d="M396,243.3c-0.2-0.1-0.5-0.3-0.7-0.5c-0.2-0.2-0.4-0.4-0.5-0.6c-0.1-0.2-0.2-0.5-0.3-0.7
			c-0.1-0.2-0.1-0.5-0.1-0.7c0-0.6,0.2-0.9,0.7-0.9c0.5,0,1.2,0.2,2.3,0.7c0-0.2-0.1-0.5-0.2-0.7c-0.1-0.2-0.3-0.4-0.6-0.6
			c-0.2-0.1-0.5-0.2-0.7-0.3c-0.2,0-0.5-0.1-0.7-0.1l-0.6-1.4c0.3,0,0.7,0,1.1,0.1c0.4,0.1,0.8,0.3,1.2,0.5c0.7,0.4,1.2,0.9,1.6,1.5
			c0.4,0.6,0.5,1.3,0.5,2.1v3l-1.3-0.7l-0.1-0.6l0,0c-0.2,0.1-0.5,0.1-0.7,0.1C396.6,243.6,396.3,243.5,396,243.3z M396.5,242.4
			c0.2,0.1,0.3,0.2,0.5,0.1c0.1,0,0.3,0,0.4-0.1v-0.9c-0.6-0.2-0.9-0.4-1.2-0.3c-0.2,0-0.3,0.1-0.3,0.4c0,0.2,0.1,0.3,0.2,0.5
			C396.2,242.2,396.4,242.3,396.5,242.4z"/>
		<path class="st6" d="M402.2,249c-0.3-0.2-0.6-0.4-0.9-0.6s-0.5-0.4-0.7-0.6c-0.2-0.2-0.4-0.5-0.5-0.7s-0.2-0.5-0.2-0.7
			c0-0.4,0.3-0.6,0.8-0.6v0c-0.1-0.2-0.3-0.4-0.4-0.6c-0.1-0.2-0.1-0.4-0.1-0.6c0-0.2,0.1-0.3,0.2-0.5c0.1-0.1,0.3-0.2,0.4-0.2v0
			c-0.2-0.2-0.4-0.5-0.5-0.8c-0.1-0.3-0.2-0.6-0.2-1c0-0.3,0.1-0.6,0.2-0.7c0.1-0.2,0.3-0.3,0.5-0.3c0.2,0,0.4,0,0.7,0
			c0.3,0.1,0.5,0.2,0.8,0.4c0.3,0.2,0.6,0.4,0.8,0.6l1.9,1.1v1.1l-0.8-0.5c0.1,0.1,0.1,0.2,0.1,0.4c0,0.1,0,0.3,0,0.4
			c0,0.3-0.1,0.5-0.2,0.7s-0.3,0.3-0.4,0.3c-0.2,0-0.4,0-0.7-0.1c-0.3-0.1-0.5-0.2-0.8-0.4c-0.2-0.1-0.4-0.3-0.6-0.5
			c-0.1,0-0.1,0-0.1,0.1c0,0,0,0.1,0,0.2c0,0.1,0.1,0.3,0.2,0.4c0.1,0.1,0.3,0.3,0.6,0.5l0.9,0.5c0.7,0.4,1.2,0.8,1.5,1.2
			c0.3,0.4,0.5,0.9,0.5,1.3c0,0.3-0.1,0.5-0.2,0.6c-0.1,0.2-0.3,0.2-0.6,0.3s-0.6,0-0.9-0.1C403.1,249.5,402.7,249.3,402.2,249z
			 M402.5,248.2c0.4,0.2,0.7,0.3,0.9,0.3c0.2,0,0.3-0.1,0.3-0.3c0-0.2-0.1-0.3-0.2-0.5c-0.1-0.1-0.3-0.3-0.6-0.4l-0.5-0.3
			c-0.2-0.1-0.3-0.2-0.5-0.3c-0.1-0.1-0.2-0.1-0.3-0.2c-0.2,0.1-0.3,0.2-0.3,0.4c0,0.2,0.1,0.4,0.3,0.6
			C401.8,247.8,402.1,248,402.5,248.2z M402.3,244.2c0.2,0.1,0.4,0.1,0.5,0.1c0.1-0.1,0.2-0.2,0.2-0.5c0-0.3-0.1-0.5-0.2-0.8
			c-0.1-0.2-0.3-0.4-0.5-0.5c-0.2-0.1-0.4-0.1-0.5-0.1c-0.1,0.1-0.2,0.2-0.2,0.5c0,0.3,0.1,0.6,0.2,0.8
			C401.9,243.9,402.1,244.1,402.3,244.2z"/>
		<path class="st6" d="M408.2,250.4c-0.4-0.2-0.7-0.5-1.1-0.8c-0.3-0.3-0.6-0.7-0.9-1c-0.2-0.4-0.4-0.8-0.6-1.2
			c-0.1-0.4-0.2-0.9-0.2-1.3c0-0.4,0.1-0.8,0.2-1c0.1-0.3,0.3-0.4,0.6-0.6c0.2-0.1,0.5-0.1,0.8-0.1c0.3,0,0.6,0.2,0.9,0.3
			c0.4,0.2,0.7,0.5,1,0.8c0.3,0.3,0.5,0.6,0.7,0.9c0.2,0.3,0.3,0.7,0.4,1.1c0.1,0.4,0.1,0.7,0.1,1.1c0,0.1,0,0.3,0,0.4
			c0,0.1,0,0.2,0,0.3l-3.2-1.8c0.1,0.4,0.2,0.8,0.5,1.1c0.2,0.3,0.5,0.6,0.9,0.8c0.4,0.2,0.8,0.3,1.1,0.3l0.5,1.3
			c-0.3,0-0.6,0-0.9-0.1C408.9,250.7,408.5,250.6,408.2,250.4z M407,246.3l1.9,1.1c0-0.3-0.1-0.6-0.2-0.8s-0.4-0.5-0.7-0.7
			c-0.3-0.1-0.5-0.2-0.7-0.1C407.2,245.8,407.1,246,407,246.3z"/>
		<path class="st6" d="M412.9,254.8c-0.4-1-0.8-2-1-2.9c-0.2-0.9-0.4-1.9-0.4-2.8s0.1-1.7,0.4-2.4c0.2-0.7,0.6-1.2,1-1.7l1,1
			c-0.4,0.5-0.7,1-0.9,1.7c-0.2,0.7-0.3,1.4-0.3,2.1c0,0.8,0.1,1.6,0.3,2.4c0.2,0.9,0.5,1.8,0.9,2.7L412.9,254.8z"/>
		<path class="st6" d="M415.1,254.2v-5.3l1.3,0.7l0.1,1l0,0c0.2-0.3,0.4-0.4,0.7-0.4c0.3,0,0.5,0.1,0.8,0.2c0.1,0.1,0.3,0.2,0.4,0.2
			c0.1,0.1,0.2,0.2,0.3,0.2l-0.3,1.2c-0.1-0.1-0.2-0.2-0.3-0.2c-0.1-0.1-0.2-0.1-0.3-0.2c-0.2-0.1-0.4-0.2-0.6-0.1
			c-0.2,0-0.4,0.2-0.5,0.4v3.1L415.1,254.2z"/>
		<path class="st6" d="M419.3,256.7v-5.3l1.3,0.7l0.1,1l0,0c0.2-0.3,0.4-0.4,0.7-0.4c0.3,0,0.5,0.1,0.8,0.2c0.1,0.1,0.3,0.2,0.4,0.2
			c0.1,0.1,0.2,0.2,0.3,0.2l-0.3,1.2c-0.1-0.1-0.2-0.2-0.3-0.2c-0.1-0.1-0.2-0.1-0.3-0.2c-0.2-0.1-0.4-0.2-0.6-0.1
			c-0.2,0-0.4,0.2-0.5,0.4v3.1L419.3,256.7z"/>
		<path class="st6" d="M423.6,259.1v-5.3l1.3,0.7l0.1,1l0,0c0.2-0.3,0.4-0.4,0.7-0.4s0.5,0.1,0.8,0.2c0.1,0.1,0.3,0.2,0.4,0.2
			c0.1,0.1,0.2,0.2,0.3,0.2l-0.3,1.2c-0.1-0.1-0.2-0.2-0.3-0.2c-0.1-0.1-0.2-0.1-0.3-0.2c-0.2-0.1-0.4-0.2-0.6-0.1
			c-0.2,0-0.4,0.2-0.5,0.4v3.1L423.6,259.1z"/>
		<path class="st6" d="M427.9,261.6v-5.3l1.3,0.7l0.1,1l0,0c0.2-0.3,0.4-0.4,0.7-0.4s0.5,0.1,0.8,0.2c0.1,0.1,0.3,0.2,0.4,0.2
			c0.1,0.1,0.2,0.2,0.3,0.2l-0.3,1.2c-0.1-0.1-0.2-0.2-0.3-0.2c-0.1-0.1-0.2-0.1-0.3-0.2c-0.2-0.1-0.4-0.2-0.6-0.1
			c-0.2,0-0.4,0.2-0.5,0.4v3.1L427.9,261.6z"/>
		<path class="st6" d="M432.1,264v-5.3l1.3,0.7l0.1,1l0,0c0.2-0.3,0.4-0.4,0.7-0.4s0.5,0.1,0.8,0.2c0.1,0.1,0.3,0.2,0.4,0.2
			c0.1,0.1,0.2,0.2,0.3,0.2l-0.3,1.2c-0.1-0.1-0.2-0.2-0.3-0.2c-0.1-0.1-0.2-0.1-0.3-0.2c-0.2-0.1-0.4-0.2-0.6-0.1
			c-0.2,0-0.4,0.2-0.5,0.4v3.1L432.1,264z"/>
		<path class="st6" d="M436.4,266.5v-5.3l1.3,0.7l0.1,1l0,0c0.2-0.3,0.4-0.4,0.7-0.4c0.3,0,0.5,0.1,0.8,0.2c0.1,0.1,0.3,0.2,0.4,0.2
			c0.1,0.1,0.2,0.2,0.3,0.2l-0.3,1.2c-0.1-0.1-0.2-0.2-0.3-0.2c-0.1-0.1-0.2-0.1-0.3-0.2c-0.2-0.1-0.4-0.2-0.6-0.1
			c-0.2,0-0.4,0.2-0.5,0.4v3.1L436.4,266.5z"/>
		<path class="st6" d="M343.5,224.2v-1.3l1.9,0.5l1.4,0.3v0l-1.4-1.3l-1.9-1.7v-1.3l4.9,4.7v1.1L343.5,224.2z"/>
		<path class="st6" d="M350.9,229.8c-0.3-0.2-0.5-0.3-0.7-0.5c-0.2-0.2-0.3-0.4-0.4-0.6c-0.1-0.2-0.2-0.4-0.2-0.7
			c-0.1-0.2-0.1-0.5-0.1-0.8v-5.9l1.6,0.9v5.9c0,0.2,0,0.3,0.1,0.4c0.1,0.1,0.1,0.2,0.2,0.2c0,0,0.1,0,0.1,0.1c0,0,0.1,0,0.1,0
			l0.2,1.3c-0.1,0-0.2,0-0.3-0.1C351.2,230,351.1,229.9,350.9,229.8z"/>
		<path class="st6" d="M354.8,232c-0.3-0.2-0.7-0.4-1-0.8c-0.3-0.3-0.6-0.6-0.8-1c-0.2-0.4-0.4-0.8-0.6-1.2
			c-0.1-0.4-0.2-0.9-0.2-1.3c0-0.4,0.1-0.8,0.2-1.1c0.1-0.3,0.3-0.4,0.6-0.5c0.2-0.1,0.5-0.1,0.8-0.1c0.3,0.1,0.6,0.2,1,0.4
			s0.7,0.4,1,0.7c0.3,0.3,0.6,0.6,0.8,1c0.2,0.4,0.4,0.8,0.6,1.2c0.1,0.4,0.2,0.9,0.2,1.3c0,0.4-0.1,0.8-0.2,1.1
			c-0.1,0.3-0.3,0.4-0.6,0.5c-0.2,0.1-0.5,0.1-0.8,0.1C355.5,232.3,355.1,232.2,354.8,232z M354.8,230.7c0.3,0.2,0.6,0.2,0.7,0
			c0.2-0.2,0.2-0.5,0.2-1s-0.1-0.9-0.2-1.2c-0.2-0.4-0.4-0.6-0.7-0.8c-0.3-0.2-0.6-0.2-0.7,0c-0.2,0.2-0.2,0.5-0.2,1
			s0.1,0.9,0.2,1.2C354.2,230.3,354.5,230.6,354.8,230.7z"/>
		<path class="st6" d="M359.9,235c-0.3-0.2-0.5-0.3-0.7-0.5c-0.2-0.2-0.3-0.4-0.4-0.6c-0.1-0.2-0.2-0.4-0.2-0.7
			c-0.1-0.2-0.1-0.5-0.1-0.8v-5.9l1.6,0.9v5.9c0,0.2,0,0.3,0.1,0.4c0.1,0.1,0.1,0.2,0.2,0.2c0,0,0.1,0,0.1,0.1c0,0,0.1,0,0.1,0
			l0.2,1.3c-0.1,0-0.2,0-0.3-0.1C360.2,235.2,360.1,235.1,359.9,235z"/>
		<path class="st6" d="M362.4,233c-0.3-0.2-0.5-0.4-0.7-0.7c-0.2-0.3-0.3-0.6-0.3-0.9c0-0.3,0.1-0.5,0.3-0.6c0.2-0.1,0.4,0,0.7,0.1
			c0.3,0.2,0.5,0.4,0.7,0.7c0.2,0.3,0.3,0.6,0.3,0.9c0,0.3-0.1,0.5-0.3,0.5C362.9,233.2,362.7,233.1,362.4,233z M362.4,236.4
			c-0.3-0.2-0.5-0.4-0.7-0.7c-0.2-0.3-0.3-0.6-0.3-0.9c0-0.3,0.1-0.5,0.3-0.6c0.2-0.1,0.4,0,0.7,0.1c0.3,0.2,0.5,0.4,0.7,0.7
			c0.2,0.3,0.3,0.6,0.3,0.9c0,0.3-0.1,0.5-0.3,0.5C362.9,236.6,362.7,236.6,362.4,236.4z"/>
		<path class="st6" d="M364.7,237.6v-5.3l1.3,0.7l0.1,0.7l0,0c0.2-0.1,0.5-0.1,0.7-0.2c0.3,0,0.6,0.1,0.9,0.3
			c0.4,0.2,0.7,0.5,0.9,0.8c0.2,0.3,0.4,0.6,0.6,1c0.2-0.1,0.5-0.2,0.7-0.2c0.3,0,0.6,0.1,0.9,0.3c0.6,0.3,1,0.8,1.3,1.3
			c0.3,0.5,0.4,1.1,0.4,1.8v3.3l-1.6-0.9v-3.1c0-0.4-0.1-0.7-0.2-0.9c-0.1-0.2-0.3-0.4-0.5-0.5c-0.3-0.2-0.6-0.2-0.9,0v3.6l-1.6-0.9
			v-3.1c0-0.4-0.1-0.7-0.2-0.9c-0.1-0.2-0.3-0.4-0.5-0.5c-0.3-0.2-0.6-0.2-0.9,0v3.6L364.7,237.6z"/>
		<path class="st6" d="M375.3,243.8c-0.2-0.1-0.5-0.3-0.7-0.5c-0.2-0.2-0.4-0.4-0.5-0.6c-0.1-0.2-0.2-0.5-0.3-0.7
			c-0.1-0.2-0.1-0.5-0.1-0.7c0-0.6,0.2-0.9,0.7-0.9c0.5,0,1.2,0.2,2.3,0.7c0-0.2-0.1-0.5-0.2-0.7c-0.1-0.2-0.3-0.4-0.6-0.6
			c-0.2-0.1-0.5-0.2-0.7-0.3c-0.2,0-0.5-0.1-0.7-0.1l-0.6-1.4c0.3,0,0.7,0,1.1,0.1s0.8,0.3,1.2,0.5c0.7,0.4,1.2,0.9,1.6,1.5
			c0.4,0.6,0.5,1.3,0.5,2.1v3l-1.3-0.7l-0.1-0.6l0,0c-0.2,0.1-0.5,0.1-0.7,0.1C375.8,244.1,375.6,244,375.3,243.8z M375.8,242.9
			c0.2,0.1,0.3,0.2,0.5,0.1c0.1,0,0.3,0,0.4-0.1V242c-0.6-0.2-0.9-0.4-1.2-0.3c-0.2,0-0.3,0.1-0.3,0.4c0,0.2,0.1,0.3,0.2,0.5
			C375.5,242.7,375.6,242.8,375.8,242.9z"/>
		<path class="st6" d="M380.3,240.5c-0.3-0.2-0.5-0.4-0.7-0.6c-0.2-0.3-0.3-0.5-0.3-0.7s0.1-0.4,0.3-0.4c0.2-0.1,0.4,0,0.7,0.2
			c0.3,0.2,0.5,0.4,0.7,0.6c0.2,0.2,0.3,0.5,0.3,0.7s-0.1,0.4-0.3,0.4C380.8,240.8,380.6,240.7,380.3,240.5z M379.6,246.2v-5.3
			l1.6,0.9v5.3L379.6,246.2z"/>
		<path class="st6" d="M382.5,247.9v-5.3l1.3,0.7l0.1,0.7l0,0c0.2-0.1,0.5-0.1,0.7-0.1c0.3,0,0.6,0.1,1,0.3c0.6,0.3,1,0.8,1.3,1.3
			c0.3,0.5,0.4,1.1,0.4,1.8v3.3l-1.6-0.9v-3.1c0-0.4-0.1-0.7-0.2-0.9c-0.1-0.2-0.3-0.4-0.5-0.5c-0.2-0.1-0.4-0.2-0.5-0.2
			c-0.1,0-0.3,0-0.5,0.1v3.6L382.5,247.9z"/>
		<path class="st6" d="M388.6,253.4v-7.3l1.3,0.7l0.1,0.6l0,0c0.2-0.1,0.4-0.1,0.7-0.1c0.3,0,0.5,0.1,0.8,0.3
			c0.3,0.2,0.6,0.4,0.9,0.7s0.5,0.6,0.7,0.9c0.2,0.3,0.3,0.7,0.4,1.1c0.1,0.4,0.1,0.8,0.1,1.2c0,0.5-0.1,0.8-0.2,1.1
			c-0.1,0.3-0.3,0.5-0.5,0.6c-0.2,0.1-0.4,0.2-0.7,0.1c-0.3,0-0.5-0.1-0.8-0.3c-0.2-0.1-0.4-0.3-0.7-0.5s-0.4-0.5-0.6-0.8l0.1,0.9
			v1.6L388.6,253.4z M391.1,251.7c0.3,0.2,0.5,0.2,0.7,0c0.2-0.1,0.3-0.5,0.3-1c0-1-0.3-1.6-0.9-2c-0.3-0.2-0.6-0.2-0.9,0v2.2
			c0.1,0.2,0.3,0.4,0.4,0.5C390.8,251.5,390.9,251.6,391.1,251.7z"/>
		<path class="st6" d="M396,255.8c-0.2-0.1-0.5-0.3-0.7-0.5c-0.2-0.2-0.4-0.4-0.5-0.6c-0.1-0.2-0.2-0.5-0.3-0.7
			c-0.1-0.2-0.1-0.5-0.1-0.7c0-0.6,0.2-0.9,0.7-0.9c0.5,0,1.2,0.2,2.3,0.7c0-0.2-0.1-0.5-0.2-0.7c-0.1-0.2-0.3-0.4-0.6-0.6
			c-0.2-0.1-0.5-0.2-0.7-0.3c-0.2,0-0.5-0.1-0.7-0.1l-0.6-1.4c0.3,0,0.7,0,1.1,0.1c0.4,0.1,0.8,0.3,1.2,0.5c0.7,0.4,1.2,0.9,1.6,1.5
			c0.4,0.6,0.5,1.3,0.5,2.1v3l-1.3-0.7l-0.1-0.6l0,0c-0.2,0.1-0.5,0.1-0.7,0.1C396.6,256.1,396.3,256,396,255.8z M396.5,254.9
			c0.2,0.1,0.3,0.2,0.5,0.1c0.1,0,0.3,0,0.4-0.1V254c-0.6-0.2-0.9-0.4-1.2-0.3c-0.2,0-0.3,0.1-0.3,0.4c0,0.2,0.1,0.3,0.2,0.5
			C396.2,254.7,396.4,254.8,396.5,254.9z"/>
		<path class="st6" d="M402.2,261.5c-0.3-0.2-0.6-0.4-0.9-0.6c-0.3-0.2-0.5-0.4-0.7-0.6c-0.2-0.2-0.4-0.5-0.5-0.7s-0.2-0.5-0.2-0.7
			c0-0.4,0.3-0.6,0.8-0.6v0c-0.1-0.2-0.3-0.4-0.4-0.6c-0.1-0.2-0.1-0.4-0.1-0.6c0-0.2,0.1-0.3,0.2-0.5c0.1-0.1,0.3-0.2,0.4-0.2v0
			c-0.2-0.2-0.4-0.5-0.5-0.8c-0.1-0.3-0.2-0.6-0.2-1c0-0.3,0.1-0.6,0.2-0.7c0.1-0.2,0.3-0.3,0.5-0.3c0.2,0,0.4,0,0.7,0
			c0.3,0.1,0.5,0.2,0.8,0.4c0.3,0.2,0.6,0.4,0.8,0.6l1.9,1.1v1.1l-0.8-0.5c0.1,0.1,0.1,0.2,0.1,0.4c0,0.1,0,0.3,0,0.4
			c0,0.3-0.1,0.5-0.2,0.7s-0.3,0.3-0.4,0.3c-0.2,0-0.4,0-0.7-0.1c-0.3-0.1-0.5-0.2-0.8-0.4c-0.2-0.1-0.4-0.3-0.6-0.5
			c-0.1,0-0.1,0-0.1,0.1c0,0,0,0.1,0,0.2c0,0.1,0.1,0.3,0.2,0.4c0.1,0.1,0.3,0.3,0.6,0.5l0.9,0.5c0.7,0.4,1.2,0.8,1.5,1.2
			c0.3,0.4,0.5,0.9,0.5,1.3c0,0.3-0.1,0.5-0.2,0.6s-0.3,0.2-0.6,0.3c-0.3,0-0.6,0-0.9-0.1C403.1,262,402.7,261.8,402.2,261.5z
			 M402.5,260.7c0.4,0.2,0.7,0.3,0.9,0.3c0.2,0,0.3-0.1,0.3-0.3c0-0.2-0.1-0.3-0.2-0.5c-0.1-0.1-0.3-0.3-0.6-0.4l-0.5-0.3
			c-0.2-0.1-0.3-0.2-0.5-0.3c-0.1-0.1-0.2-0.1-0.3-0.2c-0.2,0.1-0.3,0.2-0.3,0.4c0,0.2,0.1,0.4,0.3,0.6
			C401.8,260.3,402.1,260.5,402.5,260.7z M402.3,256.7c0.2,0.1,0.4,0.1,0.5,0.1c0.1-0.1,0.2-0.2,0.2-0.5c0-0.3-0.1-0.5-0.2-0.8
			c-0.1-0.2-0.3-0.4-0.5-0.5c-0.2-0.1-0.4-0.1-0.5-0.1s-0.2,0.2-0.2,0.5c0,0.3,0.1,0.6,0.2,0.8C401.9,256.4,402.1,256.6,402.3,256.7
			z"/>
		<path class="st6" d="M408.2,262.9c-0.4-0.2-0.7-0.5-1.1-0.8c-0.3-0.3-0.6-0.7-0.9-1c-0.2-0.4-0.4-0.8-0.6-1.2
			c-0.1-0.4-0.2-0.9-0.2-1.3c0-0.4,0.1-0.8,0.2-1s0.3-0.4,0.6-0.6c0.2-0.1,0.5-0.1,0.8-0.1c0.3,0,0.6,0.2,0.9,0.3
			c0.4,0.2,0.7,0.5,1,0.8c0.3,0.3,0.5,0.6,0.7,0.9c0.2,0.3,0.3,0.7,0.4,1.1c0.1,0.4,0.1,0.7,0.1,1.1c0,0.1,0,0.3,0,0.4
			c0,0.1,0,0.2,0,0.3l-3.2-1.8c0.1,0.4,0.2,0.8,0.5,1.1c0.2,0.3,0.5,0.6,0.9,0.8c0.4,0.2,0.8,0.3,1.1,0.3l0.5,1.3
			c-0.3,0-0.6,0-0.9-0.1C408.9,263.2,408.5,263,408.2,262.9z M407,258.8l1.9,1.1c0-0.3-0.1-0.6-0.2-0.8c-0.1-0.3-0.4-0.5-0.7-0.7
			c-0.3-0.1-0.5-0.2-0.7-0.1C407.2,258.3,407.1,258.5,407,258.8z"/>
		<path class="st6" d="M412.9,267.3c-0.4-1-0.8-2-1-2.9c-0.2-0.9-0.4-1.9-0.4-2.8s0.1-1.7,0.4-2.4c0.2-0.7,0.6-1.2,1-1.7l1,1
			c-0.4,0.5-0.7,1-0.9,1.7c-0.2,0.7-0.3,1.4-0.3,2.1s0.1,1.6,0.3,2.4c0.2,0.9,0.5,1.8,0.9,2.7L412.9,267.3z"/>
		<path class="st6" d="M415.1,266.7v-5.3l1.3,0.7l0.1,1l0,0c0.2-0.3,0.4-0.4,0.7-0.4c0.3,0,0.5,0.1,0.8,0.2c0.1,0.1,0.3,0.2,0.4,0.2
			c0.1,0.1,0.2,0.2,0.3,0.2l-0.3,1.2c-0.1-0.1-0.2-0.2-0.3-0.2c-0.1-0.1-0.2-0.1-0.3-0.2c-0.2-0.1-0.4-0.2-0.6-0.1
			c-0.2,0-0.4,0.2-0.5,0.4v3.1L415.1,266.7z"/>
		<path class="st6" d="M419.3,269.2v-5.3l1.3,0.7l0.1,1l0,0c0.2-0.3,0.4-0.4,0.7-0.4s0.5,0.1,0.8,0.2c0.1,0.1,0.3,0.2,0.4,0.2
			c0.1,0.1,0.2,0.2,0.3,0.2l-0.3,1.2c-0.1-0.1-0.2-0.2-0.3-0.2c-0.1-0.1-0.2-0.1-0.3-0.2c-0.2-0.1-0.4-0.2-0.6-0.1
			c-0.2,0-0.4,0.2-0.5,0.4v3.1L419.3,269.2z"/>
		<path class="st6" d="M423.6,271.6v-5.3l1.3,0.7l0.1,1l0,0c0.2-0.3,0.4-0.4,0.7-0.4s0.5,0.1,0.8,0.2c0.1,0.1,0.3,0.2,0.4,0.2
			c0.1,0.1,0.2,0.2,0.3,0.2l-0.3,1.2c-0.1-0.1-0.2-0.2-0.3-0.2c-0.1-0.1-0.2-0.1-0.3-0.2c-0.2-0.1-0.4-0.2-0.6-0.1
			c-0.2,0-0.4,0.2-0.5,0.4v3.1L423.6,271.6z"/>
		<path class="st6" d="M427.9,274.1v-5.3l1.3,0.7l0.1,1l0,0c0.2-0.3,0.4-0.4,0.7-0.4s0.5,0.1,0.8,0.2c0.1,0.1,0.3,0.2,0.4,0.2
			c0.1,0.1,0.2,0.2,0.3,0.2l-0.3,1.2c-0.1-0.1-0.2-0.2-0.3-0.2c-0.1-0.1-0.2-0.1-0.3-0.2c-0.2-0.1-0.4-0.2-0.6-0.1
			c-0.2,0-0.4,0.2-0.5,0.4v3.1L427.9,274.1z"/>
		<path class="st6" d="M432.1,276.5v-5.3l1.3,0.7l0.1,1l0,0c0.2-0.3,0.4-0.4,0.7-0.4s0.5,0.1,0.8,0.2c0.1,0.1,0.3,0.2,0.4,0.2
			c0.1,0.1,0.2,0.2,0.3,0.2l-0.3,1.2c-0.1-0.1-0.2-0.2-0.3-0.2c-0.1-0.1-0.2-0.1-0.3-0.2c-0.2-0.1-0.4-0.2-0.6-0.1
			c-0.2,0-0.4,0.2-0.5,0.4v3.1L432.1,276.5z"/>
		<path class="st6" d="M436.4,279v-5.3l1.3,0.7l0.1,1l0,0c0.2-0.3,0.4-0.4,0.7-0.4c0.3,0,0.5,0.1,0.8,0.2c0.1,0.1,0.3,0.2,0.4,0.2
			c0.1,0.1,0.2,0.2,0.3,0.2l-0.3,1.2c-0.1-0.1-0.2-0.2-0.3-0.2c-0.1-0.1-0.2-0.1-0.3-0.2c-0.2-0.1-0.4-0.2-0.6-0.1
			c-0.2,0-0.4,0.2-0.5,0.4v3.1L436.4,279z"/>
		<path class="st6" d="M441.5,258l-1-1c0.4-0.5,0.7-1,0.9-1.7c0.2-0.7,0.3-1.4,0.3-2.1c0-0.8-0.1-1.6-0.3-2.4
			c-0.2-0.9-0.5-1.8-0.9-2.7l1,0.2c0.4,1,0.8,2,1,2.9c0.2,0.9,0.4,1.9,0.4,2.8s-0.1,1.7-0.4,2.4C442.3,256.9,441.9,257.5,441.5,258z
			"/>
	</g>
</g>
</svg>
