<?xml version="1.0" encoding="utf-8"?>
<!-- Generator: Adobe Illustrator 22.1.0, SVG Export Plug-In . SVG Version: 6.00 Build 0)  -->
<svg version="1.1" id="Capa_1" xmlns="http://www.w3.org/2000/svg" xmlns:xlink="http://www.w3.org/1999/xlink" x="0px" y="0px"
	 viewBox="0 0 573.6 621.6" style="enable-background:new 0 0 573.6 621.6;" xml:space="preserve">
<style type="text/css">
	.st0{opacity:0.16;fill:url(#SVGID_1_);}
	.st1{fill:#EBEBEB;}
	.st2{fill:url(#SVGID_2_);}
	.st3{fill:#9B9B9B;}
	.st4{fill:#D6D6D6;}
	.st5{fill:#454545;}
	.st6{fill:#CACACA;}
	.st7{fill:#565656;}
	.st8{clip-path:url(#SVGID_4_);}
	.st9{fill:#CCCCCC;}
	.st10{fill:#F6F6F6;}
	.st11{fill:url(#SVGID_5_);}
	.st12{fill:url(#SVGID_6_);}
	.st13{opacity:0.14;fill:url(#SVGID_7_);}
	.st14{opacity:0.14;fill:url(#SVGID_8_);}
</style>
<g>
	<g>
		<g>
			
				<linearGradient id="SVGID_1_" gradientUnits="userSpaceOnUse" x1="-2156.939" y1="563.791" x2="-2029.9287" y2="343.8028" gradientTransform="matrix(-1 0 0 1 -1869.5386 0)">
				<stop  offset="0" style="stop-color:#454545"/>
				<stop  offset="1" style="stop-color:#454545;stop-opacity:0"/>
			</linearGradient>
			<polygon class="st0" points="441,474.3 262.5,578.1 6.9,433.4 182.7,330.9 			"/>
			<path class="st1" d="M393.6,38.2l-149,85.7c-7,4-11.3,11.5-11.3,19.5v396.8c0,17.4,26,34.7,47.4,28.2L415.6,473
				c6.9-4,11.1-11.4,11.2-19.4l13-399.2C431.3,36.9,408.6,29.6,393.6,38.2z"/>
			<path class="st1" d="M412,43.9l-153.7,88.4c-7,4-11.3,11.5-11.3,19.5v396.8c0,17.4,18.9,28.2,33.9,19.4l148.4-86.6
				c6.9-4,11.1-11.4,11.2-19.4L441,60.7C441,45.8,424.9,36.5,412,43.9z"/>
			<linearGradient id="SVGID_2_" gradientUnits="userSpaceOnUse" x1="254.6231" y1="315.9782" x2="433.213" y2="315.9782">
				<stop  offset="0" style="stop-color:#FC9E4E"/>
				<stop  offset="1" style="stop-color:#FD6567"/>
			</linearGradient>
			<polygon class="st2" points="433.2,94.7 254.6,198.9 254.6,537.3 433.2,435.4 			"/>
			<g>
				<path class="st3" d="M365.9,496.1v-0.5c0-7.2-7.8-11.7-14-8h0c-0.2,0.1-0.5,0.3-0.7,0.4c0.6-0.4,1.2-0.8,1.9-1.2h0
					c6.2-3.7,14,0.8,14,8v0.5c0,9.6-4.9,18.6-13.1,23.8C361.4,513.8,365.9,505.3,365.9,496.1z"/>
				<path class="st4" d="M353.3,519.5c-6.2,3.8-14.2-0.6-14.2-7.9V511c0-9.2,4.5-17.8,12-23c0.2-0.1,0.5-0.3,0.7-0.4h0
					c6.2-3.7,14,0.8,14,8v0.5c0,9.2-4.5,17.7-11.9,23c-0.1,0.1-0.2,0.1-0.3,0.2L353.3,519.5z"/>
			</g>
			<g>
				<g>
					<path class="st5" d="M313.8,138.9c0.2,0,0.5-0.1,0.7-0.2l50-28.6c0.6-0.4,0.9-1.2,0.5-1.8c-0.4-0.6-1.2-0.9-1.8-0.5l-50,28.6
						c-0.6,0.4-0.9,1.2-0.5,1.8C312.9,138.6,313.3,138.9,313.8,138.9z"/>
				</g>
				<g>
					<path class="st5" d="M369.4,107.9c-1.7,0-1.7-2.7,0-2.7C371.1,105.2,371.1,107.9,369.4,107.9L369.4,107.9z"/>
				</g>
			</g>
			<path class="st6" d="M243.1,211.8v44.9c0,0-1.6,3.2-7.1,0v-46.5C236,210.3,243.1,207.9,243.1,211.8z"/>
		</g>
	</g>
	<polyline class="st7" points="346.5,212.6 334,218 334,428 340.3,424.1 	"/>
	<g>
		<defs>
			<polygon id="SVGID_3_" points="583,552.3 337,552.3 337,222 348,217 337,164.7 583,164.7 			"/>
		</defs>
		<clipPath id="SVGID_4_">
			<use xlink:href="#SVGID_3_"  style="overflow:visible;"/>
		</clipPath>
		<g class="st8">
			<g>
				<polygon class="st9" points="281.8,380.3 271.8,184.6 281.8,180.7 513.9,313.8 513.9,513.4 503.9,518.8 				"/>
				<polygon class="st10" points="271.8,384.2 271.8,184.6 503.9,317.7 503.9,518.8 				"/>
				<linearGradient id="SVGID_5_" gradientUnits="userSpaceOnUse" x1="271.7772" y1="351.904" x2="504.2394" y2="351.904">
					<stop  offset="0" style="stop-color:#7063F1"/>
					<stop  offset="1" style="stop-color:#3A79F3"/>
				</linearGradient>
				<path class="st11" d="M274.9,196.8l86.2,158.7l1.2,2.1l2.3-0.6l136.2-35.4l0.4,192.1l-225.9-131L274.9,196.8 M271.8,184.6
					l0.4,200l232.1,134.6l-0.4-201.5l-140,36.4L271.8,184.6L271.8,184.6z"/>
				<linearGradient id="SVGID_6_" gradientUnits="userSpaceOnUse" x1="272.164" y1="270.4842" x2="504.2394" y2="270.4842">
					<stop  offset="0" style="stop-color:#7063F1"/>
					<stop  offset="1" style="stop-color:#3A79F3"/>
				</linearGradient>
				<path class="st12" d="M279.8,193l216.3,124l-132.7,35.3L279.8,193 M272.2,185l89.7,171l142.3-37.9L272.2,185L272.2,185z"/>
				<linearGradient id="SVGID_7_" gradientUnits="userSpaceOnUse" x1="550.8322" y1="435.8671" x2="466.9724" y2="396.7627">
					<stop  offset="0" style="stop-color:#454545"/>
					<stop  offset="1" style="stop-color:#454545;stop-opacity:0"/>
				</linearGradient>
				<polygon class="st13" points="504.2,519.2 514.7,513.4 513.5,313.4 503.9,317.7 				"/>
				<linearGradient id="SVGID_8_" gradientUnits="userSpaceOnUse" x1="516.7308" y1="306.9803" x2="269.2946" y2="191.5989">
					<stop  offset="0" style="stop-color:#454545"/>
					<stop  offset="1" style="stop-color:#454545;stop-opacity:0"/>
				</linearGradient>
				<polygon class="st14" points="272.6,184.6 503.9,317.7 513.9,313 281.8,180.7 				"/>
			</g>
		</g>
	</g>
</g>
</svg>
