<?xml version="1.0" encoding="utf-8"?>
<!-- Generator: Adobe Illustrator 22.1.0, SVG Export Plug-In . SVG Version: 6.00 Build 0)  -->
<svg version="1.1" id="Capa_1" xmlns="http://www.w3.org/2000/svg" xmlns:xlink="http://www.w3.org/1999/xlink" x="0px" y="0px"
	 viewBox="0 0 349 405" style="enable-background:new 0 0 349 405;" xml:space="preserve">
<style type="text/css">
	.st0{opacity:0.2;fill:url(#SVGID_1_);}
	.st1{fill:#474747;}
	.st2{fill:#353535;}
	.st3{fill:#5E5E5E;}
	.st4{fill:#C7C7C7;}
	.st5{fill:#FFFFFF;}
	.st6{font-family:'Quicksand-Bold';}
	.st7{font-size:18.019px;}
	.st8{fill:none;stroke:#7C7C7B;stroke-width:7;stroke-linecap:round;stroke-miterlimit:10;}
	.st9{fill:#7C7C7B;}
</style>
<g>
	<g>
		<g>
			<linearGradient id="SVGID_1_" gradientUnits="userSpaceOnUse" x1="143.2286" y1="376.4792" x2="228.9787" y2="227.9558">
				<stop  offset="0" style="stop-color:#454545"/>
				<stop  offset="1" style="stop-color:#454545;stop-opacity:0"/>
			</linearGradient>
			<polygon class="st0" points="39.5,316.1 160,386.2 332.6,288.5 213.9,219.2 120.9,270.9 165.2,294.9 165.4,358.6 			"/>
			<path class="st1" d="M172.1,79.5L71.5,21.6c-8-4.6-19.2-2.5-26.4,4.4c-3.3,2.3-5.6,6.1-5.6,10.7l0.4,271c0,5.4,2.9,10.4,7.5,13.1
				l99,57.8l1.3,0.9c0.2,0.1,0.4,0.1,0.6,0.2c5.4,2.8,11.5,2,15.9-1.2c8.7-3.4,15.5-10.7,15.5-18V92.7
				C179.7,87.2,176.8,82.2,172.1,79.5z M165.4,358.6L44.8,289.8v-230l120.6,70.3V358.6z"/>
			<g>
				<path class="st2" d="M90.2,330.8v-0.3c0-4.9,5.3-7.9,9.5-5.4h0c0.2,0.1,0.3,0.2,0.5,0.3c-0.4-0.3-0.8-0.6-1.3-0.8h0
					c-4.2-2.5-9.5,0.6-9.5,5.4v0.3c0,6.5,3.3,12.6,8.8,16C93.3,342.7,90.2,337,90.2,330.8z"/>
				<path class="st3" d="M98.7,346.6c4.2,2.6,9.6-0.4,9.6-5.4v-0.3c0-6.2-3-12-8.1-15.6c-0.2-0.1-0.3-0.2-0.5-0.3h0
					c-4.2-2.5-9.5,0.6-9.5,5.4v0.3c0,6.2,3,12,8,15.5c0.1,0,0.1,0.1,0.2,0.1L98.7,346.6z"/>
			</g>
			<g>
				<g>
					<path class="st4" d="M125.4,89.6c-0.2,0-0.3,0-0.4-0.1L91.2,70.2c-0.4-0.2-0.6-0.8-0.3-1.2c0.2-0.4,0.8-0.6,1.2-0.3l33.7,19.3
						c0.4,0.2,0.6,0.8,0.3,1.2C126,89.4,125.7,89.6,125.4,89.6z"/>
				</g>
				<g>
					<path class="st4" d="M87.9,68.7c1.2,0,1.2-1.8,0-1.8C86.7,66.9,86.7,68.7,87.9,68.7L87.9,68.7z"/>
				</g>
			</g>
			<path class="st4" d="M173.2,138.9v30.3c0,0,1.1,2.1,4.8,0v-31.4C178,137.8,173.2,136.2,173.2,138.9z"/>
		</g>
	</g>
	<polygon class="st5" points="165,359 45,289 45,60 165,130 	"/>
	<text transform="matrix(1 0.6249 0 1 56.9225 95.8986)"><tspan x="0" y="0" class="st1 st6 st7">Factura</tspan><tspan x="0" y="21.6" class="st1 st6 st7">Electronica</tspan></text>
	<line class="st8" x1="57.5" y1="145.5" x2="148.5" y2="197.5"/>
	<line class="st8" x1="57.5" y1="170.5" x2="148.5" y2="222.5"/>
	<line class="st8" x1="57.5" y1="191.5" x2="148.5" y2="243.5"/>
	<g>
		<path class="st9" d="M63,218.4l78.3,45.2c1.6,0.9,2.7,3,2.7,3.8v62.2l-78.3-45.2c-1.6-0.9-2.7-3-2.7-3.8V218.4 M60.6,211.9
			c-1.6,0-2.6,1.1-2.6,3v65.6c0,2.9,2.3,6.5,5.2,8.2l80.6,46.6c0.9,0.5,1.8,0.8,2.6,0.8c1.6,0,2.6-1.1,2.6-3v-65.6
			c0-2.9-2.3-6.5-5.2-8.2l-80.6-46.6C62.2,212.2,61.4,211.9,60.6,211.9L60.6,211.9z"/>
	</g>
	<g>
		<g>
			<polygon class="st1" points="106.5,264.9 116.9,270.9 116.9,260.5 106.5,254.5 			"/>
			<polygon class="st1" points="73.5,245.9 84,251.9 84,241.5 73.5,235.5 			"/>
			<path class="st1" d="M104.8,251.8l13.9,8v13.9l-13.9-8V251.8 M103,249v1.7v13.9v1.7l1.7,1l13.9,8l1.7,1v-1.7v-13.9V259l-1.7-1
				l-13.9-8L103,249L103,249z"/>
			<polygon class="st1" points="73.5,278.5 84,284.5 84,274.1 73.5,268.1 			"/>
			<path class="st1" d="M71.8,265.3l13.9,8v13.9l-13.9-8V265.3 M70.1,262.6v1.7v13.9v1.7l1.7,1l13.9,8l1.7,1v-1.7v-13.9v-1.7l-1.7-1
				l-13.9-8L70.1,262.6L70.1,262.6z"/>
			<polygon class="st1" points="99.2,272.5 116.9,282.7 116.9,278.9 99.2,268.7 			"/>
			<polygon class="st1" points="93.7,276.2 99.2,279.4 99.2,275.9 93.7,272.7 			"/>
			<polygon class="st1" points="86.7,264.9 92.3,268.1 92.3,264.7 86.7,261.5 			"/>
			<polygon class="st1" points="113.4,284.5 120.4,288.5 120.4,284.7 113.4,280.7 			"/>
			<polygon class="st1" points="103.7,278.9 110.7,282.9 110.7,279.1 103.7,275.1 			"/>
			<polygon class="st1" points="83.3,267.1 87.1,269.3 87.1,265.5 83.3,263.3 			"/>
			<polygon class="st1" points="99.2,283.9 103,286.1 103,282.3 99.2,280.1 			"/>
			<polygon class="st1" points="77.7,260.8 81.5,263 81.5,259.1 77.7,256.9 			"/>
			<polygon class="st1" points="103,289.9 106.8,292.1 106.8,288.3 103,286.1 			"/>
			<polygon class="st1" points="99.2,291.9 103,294.1 103,290.3 99.2,288.1 			"/>
			<polygon class="st1" points="91.6,287.5 95.4,289.7 95.4,281.7 91.6,279.5 			"/>
			<polygon class="st1" points="95.4,293.5 99.2,295.7 99.2,291.9 95.4,289.7 			"/>
			<polygon class="st1" points="111,294.5 114.8,296.7 114.8,292.9 111,290.7 			"/>
			<polygon class="st1" points="111,302.5 114.8,304.7 114.8,300.9 111,298.7 			"/>
			<polygon class="st1" points="107.2,288.5 111,290.7 111,286.9 107.2,284.7 			"/>
			<polygon class="st1" points="107.2,296.5 111,298.7 111,294.9 107.2,292.7 			"/>
			<polygon class="st1" points="92.3,246.6 99.2,250.6 99.2,246.8 92.3,242.8 			"/>
			<polygon class="st1" points="96.1,263 96.1,245 92.3,242.8 92.3,260.8 			"/>
			<polygon class="st1" points="70.1,259.5 77,263.5 77,256.5 70.1,252.5 			"/>
			<polygon class="st1" points="92.3,260.8 99.2,264.9 99.2,261 92.3,257 			"/>
			<path class="st1" d="M71.8,232.7l13.9,8v13.9l-13.9-8V232.7 M70.1,230v1.7v13.9v1.7l1.7,1l13.9,8l1.7,1v-1.7v-13.9V240l-1.7-1
				l-13.9-8L70.1,230L70.1,230z"/>
		</g>
	</g>
	<line class="st8" x1="132" y1="269" x2="132" y2="313"/>
</g>
</svg>
