<?xml version="1.0" encoding="utf-8"?>
<!-- Generator: Adobe Illustrator 22.1.0, SVG Export Plug-In . SVG Version: 6.00 Build 0)  -->
<svg version="1.1" id="Capa_1" xmlns="http://www.w3.org/2000/svg" xmlns:xlink="http://www.w3.org/1999/xlink" x="0px" y="0px"
	 viewBox="0 0 450 672" style="enable-background:new 0 0 450 672;" xml:space="preserve">
<style type="text/css">
	.st0{opacity:0.2;fill:url(#SVGID_1_);}
	.st1{fill:#CCCCCC;}
	.st2{fill:#F3F3F3;}
	.st3{opacity:0.14;fill:url(#SVGID_2_);}
	.st4{opacity:0.14;fill:url(#SVGID_3_);}
	.st5{fill:#F6F6F6;}
	.st6{fill:url(#SVGID_4_);}
	.st7{fill:#D8D8D8;}
	.st8{fill:#F8F8F8;}
	.st9{fill:url(#SVGID_5_);}
	.st10{clip-path:url(#SVGID_7_);fill:url(#SVGID_8_);}
	.st11{clip-path:url(#SVGID_10_);fill:url(#SVGID_11_);}
	.st12{clip-path:url(#SVGID_13_);fill:url(#SVGID_14_);}
</style>
<g>
	<linearGradient id="SVGID_1_" gradientUnits="userSpaceOnUse" x1="218.9996" y1="549.689" x2="260.3754" y2="480.8282">
		<stop  offset="0" style="stop-color:#454545"/>
		<stop  offset="1" style="stop-color:#454545;stop-opacity:0"/>
	</linearGradient>
	<polygon class="st0" points="350.7,624.8 426.7,580.8 123.7,409.8 52.7,449.8 	"/>
	<polygon class="st1" points="63.7,445.8 50.7,192.8 63.7,187.8 363.7,359.8 363.7,617.8 350.7,624.8 	"/>
	<polygon class="st2" points="50.7,450.8 50.7,192.8 350.7,364.8 350.7,624.8 	"/>
	<linearGradient id="SVGID_2_" gradientUnits="userSpaceOnUse" x1="411.4172" y1="517.5463" x2="303.0131" y2="466.9966">
		<stop  offset="0" style="stop-color:#454545"/>
		<stop  offset="1" style="stop-color:#454545;stop-opacity:0"/>
	</linearGradient>
	<polygon class="st3" points="351.2,625.3 364.7,617.8 363.2,359.3 350.7,364.8 	"/>
	<linearGradient id="SVGID_3_" gradientUnits="userSpaceOnUse" x1="367.335" y1="350.9366" x2="47.4784" y2="201.785">
		<stop  offset="0" style="stop-color:#454545"/>
		<stop  offset="1" style="stop-color:#454545;stop-opacity:0"/>
	</linearGradient>
	<polygon class="st4" points="51.7,192.8 350.7,364.8 363.7,358.8 63.7,187.8 	"/>
	<g>
		<polygon class="st5" points="52,193 211,126 351,365 		"/>
		<linearGradient id="SVGID_4_" gradientUnits="userSpaceOnUse" x1="52" y1="245.5" x2="351" y2="245.5">
			<stop  offset="0" style="stop-color:#7063F1"/>
			<stop  offset="1" style="stop-color:#3A79F3"/>
		</linearGradient>
		<path class="st6" d="M208.5,133.6l125.9,215L65.5,193.8L208.5,133.6 M211,126L52,193l299,172L211,126L211,126z"/>
	</g>
	<polygon class="st7" points="63.8,36 63.8,42 63.8,210.9 63.8,216.9 171,416 344,367.1 344,361.1 344,204 344,198 	"/>
	<polygon class="st8" points="63.8,20 63.8,26 63.8,194.9 63.8,200.9 173,404 344,357.1 344,345.1 344,188 344,182 	"/>
	<linearGradient id="SVGID_5_" gradientUnits="userSpaceOnUse" x1="50.6876" y1="409.0086" x2="351.1876" y2="409.0086">
		<stop  offset="0" style="stop-color:#7063F1"/>
		<stop  offset="1" style="stop-color:#3A79F3"/>
	</linearGradient>
	<path class="st9" d="M54.7,208.6l111.5,205.1l1.5,2.7l3-0.8l176-45.7l0.5,248.4L55.2,449L54.7,208.6 M50.7,192.8l0.5,258.5l300,174
		l-0.5-260.5l-181,47L50.7,192.8L50.7,192.8z"/>
	<g>
		<g>
			<defs>
				<path id="SVGID_6_" d="M89.8,201.3c0-2.1,1.1-3.3,3.2-3.6c1.1-0.1,2.3,0.2,3.6,0.9c1.7,1,3.4,2.6,4.9,5.1c2.5,3.9,5,7.2,7.7,9.9
					c2.7,2.7,5.9,5.1,9.6,7.2c6.4,3.3,9.6,2.7,9.6-1.9c0-2.4-1.1-4.8-3.3-7.2c-2.2-2.4-5.6-5.5-10.1-9.3c-4.8-3.9-8.6-7.4-11.6-10.4
					c-3-3-5.6-6.4-7.7-10.3c-2.2-3.9-3.3-8.1-3.3-12.6c0-3.9,1.1-6.7,3.4-8.4c2.3-1.7,5.2-2.3,8.8-1.9c3.6,0.4,7.5,1.8,11.6,4
					c4.2,2.3,8.4,5.4,12.5,9.3c4.2,3.9,7.5,8,9.8,12.3c1.1,1.9,1.6,3.7,1.6,5.3c0,1.9-0.8,3-2.3,3.4c-1.1,0.3-2.5,0-3.9-0.8
					c-1.8-1-3.3-2.4-4.4-4.2c-1.5-2.6-3.4-5.1-5.7-7.5c-2.3-2.4-5-4.4-7.9-6c-6.2-3.5-9.3-2.9-9.3,1.6c0,1.8,0.6,3.6,1.7,5.3
					c1.1,1.7,2.6,3.4,4.4,5c1.8,1.6,4.2,3.7,7.4,6.4c4.4,3.7,8.1,7,11.1,9.9c2.9,2.9,5.4,6.3,7.5,10.2c2,3.8,3.1,8,3.1,12.4
					c0,4-1.2,6.9-3.6,8.5c-2.4,1.7-5.4,2.3-9.2,1.7c-3.7-0.5-7.6-1.9-11.5-4c-5.4-3-10.4-6.7-15.1-11.1c-4.7-4.4-8.5-9.4-11.4-15.1
					C90.2,204.2,89.8,202.8,89.8,201.3z"/>
			</defs>
			<clipPath id="SVGID_7_">
				<use xlink:href="#SVGID_6_"  style="overflow:visible;"/>
			</clipPath>
			<linearGradient id="SVGID_8_" gradientUnits="userSpaceOnUse" x1="58" y1="240.5" x2="319" y2="240.5">
				<stop  offset="0" style="stop-color:#FF6567"/>
				<stop  offset="1" style="stop-color:#FFA04E"/>
			</linearGradient>
			<rect x="58" y="129" class="st10" width="261" height="223"/>
		</g>
		<g>
			<defs>
				<path id="SVGID_9_" d="M246.7,242.6c3.1,6.7,4.7,14.4,4.7,23.2v31.5c0,2.1-0.7,3.5-2.1,4.2c-1.4,0.7-3.2,0.4-5.3-0.8
					c-2.1-1.2-3.9-2.9-5.3-5.1c-1.4-2.2-2.1-4.4-2.1-6.5v-31.5c0-4.5-0.9-8.5-2.6-12.1c-1.8-3.6-4.9-6.6-9.3-9
					c-4.6-2.5-8.2-3.2-10.8-1.8c-2.6,1.3-3.9,4.1-3.9,8.2v31.5c0,2.1-0.7,3.5-2.1,4.2c-1.4,0.7-3.2,0.4-5.3-0.8
					c-2.1-1.2-3.9-2.9-5.3-5.1c-1.4-2.2-2.1-4.4-2.1-6.5v-31.5c0-4.5-0.9-8.5-2.6-12.1c-1.8-3.6-4.9-6.6-9.3-9
					c-4.6-2.5-8.2-3.2-10.8-1.8c-2.6,1.3-3.9,4.1-3.9,8.2v31.5c0,2.1-0.7,3.5-2.1,4.2c-1.4,0.7-3.2,0.4-5.3-0.8
					c-2.1-1.2-3.9-2.9-5.3-5.1c-1.4-2.2-2.1-4.4-2.1-6.5v-50.8c0-2.1,0.7-3.5,2.1-4.2c1.4-0.7,3.2-0.4,5.3,0.8
					c2.1,1.2,3.9,2.9,5.3,5.1c1.4,2.2,2.1,4.4,2.1,6.5v2c2.2-1.7,5-2.7,8.4-2.9c3.4-0.2,7.2,0.9,11.4,3.2
					c10.3,5.7,16.9,13.9,19.8,24.5c1.9-2.4,4.7-3.9,8.5-4.6c3.8-0.7,8.1,0.3,13,3C237.9,230.3,243.5,235.9,246.7,242.6z"/>
			</defs>
			<clipPath id="SVGID_10_">
				<use xlink:href="#SVGID_9_"  style="overflow:visible;"/>
			</clipPath>
			<linearGradient id="SVGID_11_" gradientUnits="userSpaceOnUse" x1="58" y1="240.5" x2="319" y2="240.5">
				<stop  offset="0" style="stop-color:#FF6567"/>
				<stop  offset="1" style="stop-color:#FFA04E"/>
			</linearGradient>
			<rect x="58" y="129" class="st11" width="261" height="223"/>
		</g>
		<g>
			<defs>
				<path id="SVGID_12_" d="M262.4,296.9c0-2.1,1.1-3.3,3.2-3.6c1.1-0.1,2.3,0.2,3.6,0.9c1.7,1,3.4,2.6,4.9,5.1
					c2.5,3.9,5,7.2,7.7,9.9c2.7,2.7,5.9,5.1,9.6,7.2c6.4,3.3,9.6,2.7,9.6-1.9c0-2.4-1.1-4.8-3.3-7.2c-2.2-2.4-5.6-5.5-10.1-9.3
					c-4.8-3.9-8.6-7.4-11.6-10.4c-3-3-5.6-6.4-7.7-10.3c-2.2-3.9-3.3-8.1-3.3-12.6c0-3.9,1.1-6.7,3.4-8.4c2.3-1.7,5.2-2.3,8.9-1.9
					c3.6,0.4,7.5,1.8,11.6,4c4.2,2.3,8.4,5.4,12.5,9.3c4.2,3.9,7.5,8,9.8,12.3c1.1,1.9,1.6,3.7,1.6,5.3c0,1.9-0.8,3-2.3,3.4
					c-1.1,0.3-2.5,0-3.9-0.8c-1.8-1-3.3-2.4-4.4-4.2c-1.5-2.6-3.4-5.1-5.7-7.5c-2.3-2.4-5-4.4-7.9-6c-6.2-3.5-9.3-2.9-9.3,1.6
					c0,1.8,0.6,3.6,1.7,5.3c1.1,1.7,2.6,3.4,4.4,5c1.8,1.6,4.2,3.7,7.4,6.4c4.4,3.7,8.1,7,11.1,9.9c2.9,2.9,5.4,6.3,7.5,10.2
					c2,3.8,3.1,8,3.1,12.4c0,4-1.2,6.9-3.6,8.5c-2.4,1.7-5.4,2.3-9.2,1.7c-3.7-0.5-7.6-1.9-11.5-4c-5.4-3-10.4-6.7-15.1-11.1
					c-4.7-4.4-8.5-9.4-11.4-15.1C262.8,299.9,262.4,298.4,262.4,296.9z"/>
			</defs>
			<clipPath id="SVGID_13_">
				<use xlink:href="#SVGID_12_"  style="overflow:visible;"/>
			</clipPath>
			<linearGradient id="SVGID_14_" gradientUnits="userSpaceOnUse" x1="58" y1="240.5" x2="319" y2="240.5">
				<stop  offset="0" style="stop-color:#FF6567"/>
				<stop  offset="1" style="stop-color:#FFA04E"/>
			</linearGradient>
			<rect x="58" y="129" class="st12" width="261" height="223"/>
		</g>
	</g>
</g>
</svg>
