<?xml version="1.0" encoding="utf-8"?>
<!-- Generator: Adobe Illustrator 23.0.1, SVG Export Plug-In . SVG Version: 6.00 Build 0)  -->
<svg version="1.1" id="Capa_1" xmlns="http://www.w3.org/2000/svg" xmlns:xlink="http://www.w3.org/1999/xlink" x="0px" y="0px"
	 viewBox="0 0 362.6 350.2" style="enable-background:new 0 0 362.6 350.2;" xml:space="preserve">
<style type="text/css">
	.st0{fill:#5477F0;}
</style>
<g>
	<g>
		<path class="st0" d="M343.7,127c-9.6-8.2-21.8-12.8-34.1-12.8h-11.5h-41.4H237V63c0-24.5-7.3-42.4-21.8-53.1
			C192.4-6.8,161.4,2.6,160,3c-5.3,1.7-8.9,6.6-8.9,12v61.8c0,18.8-9,34.8-26.8,47.6c-13.5,9.7-27.4,14.2-29.2,14.7l-1.3,0.3
			c-4.8-5.4-11.7-8.8-19.6-8.8H26.1C11.7,130.7,0,142.4,0,156.8v158.1C0,329.3,11.7,341,26.1,341h48.4c6.3,0,12.3-2.3,16.7-6.1
			c9.7,9.5,22.9,15.3,37.2,15.3h48.1h5h98.4c15.2,0,28.6-3.7,38.9-10.6c13.1-8.9,21.2-22.9,23.6-40.9l19.6-121.6
			C365,158.4,358,139.2,343.7,127z M75.3,314.9c0,0.4-0.3,0.7-0.7,0.7H26.1c-0.4,0-0.7-0.3-0.7-0.7V156.8c0-0.4,0.3-0.7,0.7-0.7
			h48.4c0.4,0,0.7,0.3,0.7,0.7V314.9z M336.9,173.3l-19.6,121.8c0,0.1,0,0.3-0.1,0.5c-0.8,7.3-3.6,29.4-37.3,29.4h-98.4h-5h-48.1
			c-13.5,0-25.4-10.1-27.5-23.6c-0.1-0.5-0.2-1.1-0.3-1.5V164l0.7-0.2c0.2,0,0.3-0.1,0.5-0.1c0.7-0.2,18.7-5.3,36.6-18.1
			c24.8-17.7,38.1-41.4,38.1-68.7V25.5c7-0.7,16.6-0.4,23.7,4.8c7.6,5.6,11.4,16.6,11.4,32.6v63.9c0,7,5.7,12.7,12.7,12.7h32.3h41.4
			h11.5c6.3,0,12.6,2.4,17.7,6.7C334.9,152.7,338.4,163,336.9,173.3z"/>
	</g>
</g>
</svg>
