<?xml version="1.0" encoding="utf-8"?>
<!-- Generator: Adobe Illustrator 23.0.1, SVG Export Plug-In . SVG Version: 6.00 Build 0)  -->
<svg version="1.1" id="Capa_1" xmlns="http://www.w3.org/2000/svg" xmlns:xlink="http://www.w3.org/1999/xlink" x="0px" y="0px"
	 viewBox="0 0 142.4 142.5" style="enable-background:new 0 0 142.4 142.5;" xml:space="preserve">
<style type="text/css">
	.st0{fill:#464646;}
</style>
<g>
	<path class="st0" d="M128.3,2.6c3,0.1,5.8,1.3,8.1,3.7c2,2,3.1,4.6,3.2,7.6c0.1,3-1.1,5.8-3.5,8.1L87.8,70.4l50.5,50.5
		c2.6,2.6,3.9,5.6,4,9c0.1,3.4-1.2,6.4-3.7,9c-2.4,2.4-5.3,3.6-8.8,3.6c-3.5,0-6.4-1.2-8.8-3.6L70.1,88.1l-48,48
		c-2.4,2.4-5.1,3.5-8.1,3.5c-3-0.1-5.8-1.3-8.1-3.7c-2.2-2.2-3.3-4.8-3.3-7.7c0-2.9,1.2-5.6,3.6-8l48-48L3.9,21.8
		C1.3,19.2,0,16.3,0,13c0-3.3,1.3-6.3,3.9-8.8C6.6,1.4,9.6,0,12.7,0c3.1,0,6,1.3,8.6,3.9l50.5,50.5l48.3-48.3
		C122.5,3.7,125.2,2.5,128.3,2.6z"/>
</g>
</svg>
