<?xml version="1.0" encoding="utf-8"?>
<!-- Generator: Adobe Illustrator 23.0.1, SVG Export Plug-In . SVG Version: 6.00 Build 0)  -->
<svg version="1.1" id="Capa_1" xmlns="http://www.w3.org/2000/svg" xmlns:xlink="http://www.w3.org/1999/xlink" x="0px" y="0px"
	 viewBox="0 0 56.8 39" style="enable-background:new 0 0 56.8 39;" xml:space="preserve">
<style type="text/css">
	.st0{fill:#FFFFFF;}
</style>
<path class="st0" d="M52,0H4.8C2.1,0,0,2.1,0,4.8v29.4C0,36.8,2.1,39,4.8,39H52c2.6,0,4.8-2.1,4.8-4.8V4.8C56.8,2.1,54.6,0,52,0z
	 M48.8,3.9l-20.1,13l-20-13H48.8z M52,35.1H4.8c-0.5,0-0.9-0.4-0.9-0.9V5.5l23.7,15.4c0.3,0.2,0.7,0.3,1.1,0.3
	c0.4,0,0.7-0.1,1.1-0.3L52.9,5.9v28.2C52.9,34.7,52.5,35.1,52,35.1z"/>
</svg>
