<?xml version="1.0" encoding="utf-8"?>
<!-- Generator: Adobe Illustrator 23.0.1, SVG Export Plug-In . SVG Version: 6.00 Build 0)  -->
<svg version="1.1" id="Capa_1" xmlns="http://www.w3.org/2000/svg" xmlns:xlink="http://www.w3.org/1999/xlink" x="0px" y="0px"
	 viewBox="0 0 41.4 41.4" style="enable-background:new 0 0 41.4 41.4;" xml:space="preserve">
<style type="text/css">
	.st0{fill:#464646;}
</style>
<g>
	<g>
		<path class="st0" d="M25.7,23.6C25.7,23.6,25.7,23.7,25.7,23.6l4.6-4.6c0,0,0,0,0,0L25.7,23.6z"/>
	</g>
	<g>
		<path class="st0" d="M38.8,2.5c-1.8-1.8-4.3-2.7-7-2.5c-2.1,0.2-4,1.2-5.5,2.7l-8.2,8.3c0,0,1.2-0.6,4.2-0.1l6.3-6.3
			c1.1-1.1,2.5-1.7,4-1.7c1.4,0,2.8,0.5,3.9,1.6c2.3,2.2,2.1,6-0.1,8.2L30.3,19l-4.7,4.7l-0.2,0.2c-2.2,2.2-5.8,2.2-8,0
			c-0.3-0.3-0.5-0.6-0.7-0.9c-0.5-0.8-1.7-0.9-2.4-0.3c-0.5,0.5-0.6,1.3-0.2,1.9c0.3,0.5,0.7,1,1.2,1.4c1.5,1.5,3.4,2.4,5.5,2.5
			c0.5,0,1,0,1.5,0c2.1-0.2,4-1.2,5.5-2.7c0,0,0,0,0,0L38.6,15c1.5-1.5,2.5-3.4,2.7-5.5C41.6,6.9,40.7,4.4,38.8,2.5z"/>
	</g>
	<g>
		<path class="st0" d="M27.2,16.8c-0.3-0.5-0.7-1-1.2-1.5c-1.5-1.5-3.4-2.4-5.5-2.5c-0.3,0-0.6,0-0.9,0c-2.3,0.1-4.5,1.1-6.1,2.7
			c0,0,0,0,0,0L2.7,26.4C1.2,27.9,0.2,29.9,0,32c-0.2,3.3,1.4,6.4,4.3,8.2c0.7,0.4,1.4,0.7,2.2,0.9c3.1,0.8,6.2-0.1,8.3-2.3l8.8-8.8
			c-1.8,1.1-4.1,0.4-4.6,0.4l-6.3,6.3c-2.3,2.3-6.1,2.2-8.2-0.3c-2-2.3-1.7-5.7,0.4-7.8l6.2-6.2l4.7-4.7l0.2-0.2
			c1.1-1.1,2.5-1.7,4-1.7c1.4,0,2.9,0.6,4,1.7c0.3,0.3,0.5,0.6,0.8,1c0.5,0.8,1.6,0.9,2.3,0.2l0.1-0.1
			C27.4,18.2,27.5,17.4,27.2,16.8z"/>
	</g>
</g>
</svg>
