<?xml version="1.0" encoding="utf-8"?>
<!-- Generator: Adobe Illustrator 23.0.1, SVG Export Plug-In . SVG Version: 6.00 Build 0)  -->
<svg version="1.1" id="Capa_1" xmlns="http://www.w3.org/2000/svg" xmlns:xlink="http://www.w3.org/1999/xlink" x="0px" y="0px"
	 viewBox="0 0 512 512" style="enable-background:new 0 0 512 512;" xml:space="preserve">
<style type="text/css">
	.st0{fill:#7063F3;}
</style>
<g>
	<path class="st0" d="M448.9,26H63.1C28.4,26,0,54.3,0,89.2v244.6C0,368.6,28.3,397,63.1,397h178.5v60.3h-89
		c-8,0-14.4,6.4-14.4,14.4s6.4,14.4,14.4,14.4h206.7c8,0,14.4-6.4,14.4-14.4s-6.4-14.4-14.4-14.4h-89V397h178.5
		c34.8,0,63.1-28.3,63.1-63.1V89.2C512,54.3,483.7,26,448.9,26z M63.1,54.8H449c18.9,0,34.4,15.4,34.4,34.4v204.4H28.7V89.2
		C28.7,70.2,44.1,54.8,63.1,54.8z M448.9,368.3H63.1c-18.9,0-34.4-15.4-34.4-34.4v-11.5h454.6v11.5
		C483.3,352.7,467.9,368.3,448.9,368.3z"/>
</g>
</svg>
