<?xml version="1.0" encoding="utf-8"?>
<!-- Generator: Adobe Illustrator 23.0.1, SVG Export Plug-In . SVG Version: 6.00 Build 0)  -->
<svg version="1.1" id="Capa_1" xmlns="http://www.w3.org/2000/svg" xmlns:xlink="http://www.w3.org/1999/xlink" x="0px" y="0px"
	 viewBox="0 0 63 62.6" style="enable-background:new 0 0 63 62.6;" xml:space="preserve">
<style type="text/css">
	.st0{fill:#3A79F3;}
</style>
<g>
	<g>
		<path class="st0" d="M33.2,4.5c14,0,25.3,11.3,25.3,25.3c0,14-11.3,25.3-25.3,25.3c-4.3,0-8.3-1.1-11.8-2.9L6.9,56.1l4.4-13.3
			C9.1,39,7.8,34.6,7.8,29.9C7.8,15.9,19.2,4.5,33.2,4.5 M33.2,0C16.7,0,3.3,13.4,3.3,29.9c0,4.6,1.1,9.2,3.2,13.4L2.6,54.6L0,62.6
			l8.1-2.1l12.8-3.4c3.8,1.7,8,2.6,12.3,2.6C49.6,59.7,63,46.3,63,29.9C63,13.4,49.6,0,33.2,0L33.2,0z"/>
	</g>
	<g>
		<path class="st0" d="M49.3,38.3c-1.2-2.2-5.5-4.7-5.5-4.7c-1-0.6-2.2-0.6-2.7,0.4c0,0-1.4,1.7-1.8,1.9c-1.6,1.1-3.1,1.1-4.7-0.5
			l-3.5-3.5l-3.5-3.5c-1.5-1.5-1.6-3-0.5-4.7c0.2-0.4,1.9-1.8,1.9-1.8c1-0.6,0.9-1.7,0.4-2.7c0,0-2.5-4.3-4.7-5.5
			c-0.9-0.5-2.1-0.3-2.8,0.4l-1.6,1.6c-5,5-2.5,10.5,2.4,15.5l4.5,4.5l4.5,4.5c5,5,10.5,7.4,15.5,2.4l1.6-1.6
			C49.6,40.4,49.8,39.2,49.3,38.3z"/>
	</g>
</g>
</svg>
