<?xml version="1.0" encoding="utf-8"?>
<!-- Generator: Adobe Illustrator 23.0.1, SVG Export Plug-In . SVG Version: 6.00 Build 0)  -->
<svg version="1.1" id="Capa_1" xmlns="http://www.w3.org/2000/svg" xmlns:xlink="http://www.w3.org/1999/xlink" x="0px" y="0px"
	 viewBox="0 0 27 33" style="enable-background:new 0 0 27 33;" xml:space="preserve">
<style type="text/css">
	.st0{fill:#DDDDDD;}
</style>
<g>
	<g>
		<path class="st0" d="M26,10H1c-0.6,0-1-0.4-1-1V5c0-0.6,0.4-1,1-1h25c0.6,0,1,0.4,1,1v4C27,9.6,26.6,10,26,10z M2,8h23V6H2V8z"/>
	</g>
	<g>
		<path class="st0" d="M15.8,6h-4.6c-0.6,0-1-0.4-1-1V1c0-0.6,0.4-1,1-1h4.6c0.6,0,1,0.4,1,1v4C16.8,5.6,16.4,6,15.8,6z M12.2,4h2.6
			V2h-2.6V4z"/>
	</g>
	<g>
		<path class="st0" d="M22.3,33H4.7c-0.5,0-1-0.4-1-0.9l-1.9-23c0-0.3,0.1-0.6,0.3-0.8S2.6,8,2.9,8h21.3c0.3,0,0.5,0.1,0.7,0.3
			s0.3,0.5,0.3,0.8l-1.9,23C23.3,32.6,22.8,33,22.3,33z M5.6,31h15.7l1.7-21H3.9L5.6,31z"/>
	</g>
	<g>
		<g>
			<path class="st0" d="M13.5,30c-0.6,0-1-0.4-1-1V12c0-0.6,0.4-1,1-1s1,0.4,1,1v17C14.5,29.6,14.1,30,13.5,30z"/>
		</g>
		<g>
			<path class="st0" d="M18.1,30C18.1,30,18.1,30,18.1,30c-0.6,0-1-0.5-1-1.1l0.9-17c0-0.6,0.5-1,1.1-0.9c0.6,0,1,0.5,0.9,1.1
				l-0.9,17C19.1,29.6,18.7,30,18.1,30z"/>
		</g>
		<g>
			<path class="st0" d="M8.9,30c-0.5,0-1-0.4-1-0.9l-0.9-17c0-0.6,0.4-1,0.9-1.1c0.5,0,1,0.4,1.1,0.9l0.9,17C9.9,29.5,9.5,30,8.9,30
				C8.9,30,8.9,30,8.9,30z"/>
		</g>
	</g>
</g>
</svg>
