<?xml version="1.0" encoding="utf-8"?>
<!-- Generator: Adobe Illustrator 23.0.1, SVG Export Plug-In . SVG Version: 6.00 Build 0)  -->
<svg version="1.1" id="Capa_1" xmlns="http://www.w3.org/2000/svg" xmlns:xlink="http://www.w3.org/1999/xlink" x="0px" y="0px"
	 viewBox="0 0 60.3 75" style="enable-background:new 0 0 60.3 75;" xml:space="preserve">
<style type="text/css">
	.st0{fill:#3A79F3;}
</style>
<g>
	<g>
		<g>
			<path class="st0" d="M60.3,75H17.5V38.5l20.4-20.2h22.4V75z M22.5,70h32.8V23.3H39.9L22.5,40.6V70z"/>
		</g>
		<g>
			<polygon class="st0" points="41.4,41.9 20.3,41.9 20.3,36.9 36.4,36.9 36.4,20.8 41.4,20.8 			"/>
		</g>
	</g>
	<g>
		<g>
			<polygon class="st0" points="13.7,56.7 0,56.7 0,20.2 20.4,0 42.8,0 42.8,12.9 37.8,12.9 37.8,5 22.4,5 5,22.3 5,51.7 13.7,51.7 
							"/>
		</g>
		<g>
			<polygon class="st0" points="23.9,23.6 2.8,23.6 2.8,18.6 18.9,18.6 18.9,2.5 23.9,2.5 			"/>
		</g>
	</g>
</g>
</svg>
