<?xml version="1.0" encoding="utf-8"?>
<!-- Generator: Adobe Illustrator 22.1.0, SVG Export Plug-In . SVG Version: 6.00 Build 0)  -->
<svg version="1.1" id="Capa_1" xmlns="http://www.w3.org/2000/svg" xmlns:xlink="http://www.w3.org/1999/xlink" x="0px" y="0px"
	 viewBox="0 0 648 667" style="enable-background:new 0 0 648 667;" xml:space="preserve">
<style type="text/css">
	.st0{opacity:0.2;fill:url(#SVGID_1_);}
	.st1{fill:#CCCCCC;}
	.st2{fill:#454545;}
	.st3{fill:#F6F6F6;}
	.st4{fill:#E8E8E8;}
	.st5{opacity:0.16;fill:url(#SVGID_4_);}
	.st6{opacity:0.16;fill:url(#SVGID_5_);}
	.st7{fill:#FFFFFF;}
	.st8{fill:url(#SVGID_6_);}
	.st9{fill:url(#SVGID_7_);}
	.st10{fill:url(#SVGID_8_);}
	.st11{fill:url(#SVGID_9_);}
	.st12{fill:#E2E2E2;}
	.st13{fill:url(#SVGID_10_);}
	.st14{fill:url(#SVGID_11_);}
	.st15{fill:url(#SVGID_12_);}
	.st16{fill:url(#SVGID_13_);}
	.st17{fill:none;}
	.st18{fill:url(#SVGID_14_);}
	.st19{fill:url(#SVGID_15_);}
	.st20{fill:url(#SVGID_16_);}
	.st21{fill:url(#SVGID_17_);}
	.st22{fill:url(#SVGID_18_);}
	.st23{fill:none;stroke:#FFFFFF;stroke-linecap:round;stroke-miterlimit:10;}
	.st24{fill:none;stroke:#454545;stroke-linecap:round;stroke-miterlimit:10;}
	.st25{fill:url(#SVGID_19_);}
	.st26{opacity:0.21;fill:url(#SVGID_20_);}
	.st27{fill:url(#SVGID_21_);}
	.st28{fill:#FFCC00;}
	.st29{fill:none;stroke:#FFCC00;stroke-width:10;stroke-linecap:round;stroke-linejoin:round;}
	.st30{fill:none;stroke:#FFCC00;stroke-width:10;stroke-linecap:round;stroke-linejoin:round;stroke-dasharray:29.2196,17.9088;}
	.st31{opacity:0.2;}
</style>
<g>
	<g>
		<linearGradient id="SVGID_1_" gradientUnits="userSpaceOnUse" x1="216.3842" y1="637.1953" x2="414.396" y2="294.2288">
			<stop  offset="0" style="stop-color:#454545;stop-opacity:0"/>
			<stop  offset="0.1413" style="stop-color:#454545;stop-opacity:0.1413"/>
			<stop  offset="1" style="stop-color:#454545"/>
		</linearGradient>
		<polygon class="st0" points="626,417.3 231.8,646.1 4.8,514.1 399,285.3 		"/>
		<g>
			<path class="st1" d="M75.6,188.9L389.1,9.1c2.1-1.2,9.9,5.5,9.9,7.9l-6.1,245.3c0,7.2-3.9,13.8-10.1,17.5l-309.3,186
				c-2.4,1.4-8.8-5.3-8.8-8.1l0.8-251.2C65.5,199.1,69.4,192.5,75.6,188.9z"/>
			<path class="st2" d="M80.9,194.2L394.3,14.3c2.1-1.2,4.6,0.3,4.6,2.7l-0.8,250.5c0,7.2-3.9,13.8-10.1,17.5L75.4,466
				c-2.4,1.4-5.5-0.4-5.5-3.2l0.8-251.2C70.8,204.4,74.6,197.8,80.9,194.2z"/>
			<g>
				<g>
					<defs>
						<polygon id="SVGID_2_" points="386.7,246.2 83.1,421.5 83.1,234.5 386.7,59.2 						"/>
					</defs>
					<clipPath id="SVGID_3_">
						<use xlink:href="#SVGID_2_"  style="overflow:visible;"/>
					</clipPath>
					<g transform="matrix(1 5.960464e-08 0 1 0 1.525879e-05)" style="clip-path:url(#SVGID_3_);">
						
							<image style="overflow:visible;" width="1728" height="972" xlink:href="../dashcboard.png"  transform="matrix(0.1757 -0.1014 0 0.2131 83.0937 222.2395)">
						</image>
					</g>
				</g>
			</g>
		</g>
		<path class="st1" d="M72.3,473.6l-1.3-4.8c-0.6-2.4,0.4-4.9,2.5-6.1l309.5-174.4c6-3.5,13.5-3.5,19.5,0l222.1,116.4
			c1.2,0.6,1.6,2.1,0.8,3.2l-3.8,5.4c-0.6,0.9-1.4,1.6-2.3,2.2L305.4,602.2c-6.3,3.8-14.2,3.8-20.5,0.1L73.3,475
			C72.8,474.7,72.4,474.2,72.3,473.6z"/>
		<path class="st3" d="M73.3,462.8l315.9-183.3c6-3.5,13.5-3.5,19.5,0l216.1,125.2c0.9,0.5,0.9,1.9,0,2.4L311.1,593.6
			c-6.1,3.6-13.6,3.6-19.7,0.1L73.3,466.8C71.8,465.9,71.8,463.7,73.3,462.8z"/>
		<g>
			<path class="st1" d="M366.9,481.3L457,429c0.6-0.4,1.4-0.4,2,0l42.5,25.3c0.5,0.3,0.8,0.8,0.9,1.3c0.2-0.8-0.1-1.7-0.9-2.2
				L459,428.2c-0.6-0.4-1.4-0.4-2,0l-90.1,52.3c-0.8,0.5-1.1,1.4-0.9,2.2C366,482.1,366.4,481.6,366.9,481.3z"/>
			<path class="st4" d="M366.9,483.9l42.5,24.7c0.6,0.4,1.4,0.4,2,0l90.2-51.7c0.5-0.3,0.8-0.8,1-1.3c-0.1-0.5-0.4-1-0.9-1.3
				L459,429c-0.6-0.4-1.4-0.4-2,0l-90.1,52.3c-0.5,0.3-0.8,0.8-0.9,1.3C366,483.1,366.4,483.6,366.9,483.9z"/>
		</g>
		<path class="st4" d="M102.3,469.4l308.9-178.8c2.1-1.2,4.6-1.2,6.7,0l118.9,68.2c2.5,1.4,2.5,5,0,6.4L226.7,543.6
			c-2.1,1.2-4.6,1.2-6.7,0l-117.8-67.8C99.8,474.4,99.8,470.9,102.3,469.4z"/>
		<linearGradient id="SVGID_4_" gradientUnits="userSpaceOnUse" x1="434.1786" y1="496.0691" x2="505.4517" y2="496.0691">
			<stop  offset="0" style="stop-color:#454545"/>
			<stop  offset="1" style="stop-color:#454545;stop-opacity:0"/>
		</linearGradient>
		<polygon class="st5" points="440.3,516.7 434.2,513.2 500.2,475.4 505.5,478 		"/>
		<linearGradient id="SVGID_5_" gradientUnits="userSpaceOnUse" x1="452.1584" y1="528.8511" x2="487.4876" y2="467.6593">
			<stop  offset="0" style="stop-color:#454545;stop-opacity:0"/>
			<stop  offset="1" style="stop-color:#454545"/>
		</linearGradient>
		<polygon class="st6" points="440.3,516.7 434.2,513.2 500.2,475.4 505.5,478 505.5,483.3 440.3,522 		"/>
	</g>
	<polygon class="st7" points="84.1,234.5 84.1,422.9 386.8,245.9 386.8,60.3 	"/>
	
		<linearGradient id="SVGID_6_" gradientUnits="userSpaceOnUse" x1="1492.2802" y1="213.3989" x2="1502.2573" y2="213.3989" gradientTransform="matrix(-1 0 0 1 1684.3459 0)">
		<stop  offset="0" style="stop-color:#7063F1"/>
		<stop  offset="1" style="stop-color:#3A79F3"/>
	</linearGradient>
	<path class="st8" d="M192.1,210.3L192.1,210.3c0,3.7-1.9,7.1-5.1,8.9l-0.1,0c-2.1,1.2-4.8-0.3-4.8-2.8v-0.1c0-3.7,2-7.1,5.2-8.9
		l0,0C189.4,206.3,192.1,207.9,192.1,210.3z"/>
	
		<linearGradient id="SVGID_7_" gradientUnits="userSpaceOnUse" x1="1514.6614" y1="226.1955" x2="1524.6385" y2="226.1955" gradientTransform="matrix(-1 0 0 1 1684.3459 0)">
		<stop  offset="0" style="stop-color:#7063F1"/>
		<stop  offset="1" style="stop-color:#3A79F3"/>
	</linearGradient>
	<path class="st9" d="M169.7,223.1L169.7,223.1c0,3.7-1.9,7.1-5.1,8.9l-0.1,0c-2.1,1.2-4.8-0.3-4.8-2.8v-0.1c0-3.7,2-7.1,5.2-8.9
		l0,0C167,219.1,169.7,220.7,169.7,223.1z"/>
	
		<linearGradient id="SVGID_8_" gradientUnits="userSpaceOnUse" x1="1503.2411" y1="220.4854" x2="1513.2183" y2="220.4854" gradientTransform="matrix(-1 0 0 1 1684.3459 0)">
		<stop  offset="0" style="stop-color:#7063F1"/>
		<stop  offset="1" style="stop-color:#3A79F3"/>
	</linearGradient>
	<path class="st10" d="M181.1,217.4L181.1,217.4c0,3.7-1.9,7.1-5.1,8.9l-0.1,0c-2.1,1.2-4.8-0.3-4.8-2.8v-0.1c0-3.7,2-7.1,5.2-8.9h0
		C178.4,213.4,181.1,214.9,181.1,217.4z"/>
	
		<linearGradient id="SVGID_9_" gradientUnits="userSpaceOnUse" x1="1525.7172" y1="232.5939" x2="1535.6943" y2="232.5939" gradientTransform="matrix(-1 0 0 1 1684.3459 0)">
		<stop  offset="0" style="stop-color:#7063F1"/>
		<stop  offset="1" style="stop-color:#3A79F3"/>
	</linearGradient>
	<path class="st11" d="M158.6,229.5L158.6,229.5c0,3.7-1.9,7.1-5.1,8.9l-0.1,0c-2.1,1.2-4.8-0.3-4.8-2.8v-0.1c0-3.7,2-7.1,5.2-8.9
		l0,0C156,225.5,158.6,227.1,158.6,229.5z"/>
	<path class="st12" d="M147.7,235.9L147.7,235.9c0,3.7-1.9,7.1-5.1,8.9l-0.1,0c-2.1,1.2-4.8-0.3-4.8-2.8V242c0-3.7,2-7.1,5.2-8.9
		l0,0C145,231.9,147.7,233.4,147.7,235.9z"/>
	<g>
		<path class="st12" d="M320.3,118.5L320.3,118.5c7-4,15.7,1.1,15.7,9.2v0.2c0,6.2-1.7,12.2-4.9,17.4c-1.2-4.4-3.9-9.9-9.7-7.4
			c-8.5,3.6-11.8,10.6-10.9,19.9c-4-1.4-7.2-5.1-7.2-10v-0.2C303.4,135.5,309.8,124.4,320.3,118.5z"/>
		<path class="st12" d="M321.5,137.8c5.8-2.5,8.5,3,9.7,7.4c-2.8,4.7-6.9,8.7-11.8,11.5l-0.2,0.1c-2.8,1.6-5.9,1.8-8.7,0.9
			C309.7,148.4,313,141.5,321.5,137.8z"/>
		
			<linearGradient id="SVGID_10_" gradientUnits="userSpaceOnUse" x1="1352.3059" y1="147.7428" x2="1373.955" y2="147.7428" gradientTransform="matrix(-1 0 0 1 1684.3459 0)">
			<stop  offset="0" style="stop-color:#7063F1"/>
			<stop  offset="1" style="stop-color:#3A79F3"/>
		</linearGradient>
		<path class="st13" d="M321.5,137.8c5.8-2.5,8.5,3,9.7,7.4c-2.8,4.7-6.9,8.7-11.8,11.5l-0.2,0.1c-2.8,1.6-5.9,1.8-8.7,0.9
			C309.7,148.4,313,141.5,321.5,137.8z"/>
	</g>
	
		<linearGradient id="SVGID_11_" gradientUnits="userSpaceOnUse" x1="1361.5337" y1="131.3118" x2="1371.5109" y2="131.3118" gradientTransform="matrix(-1 0 0 1 1684.3459 0)">
		<stop  offset="0" style="stop-color:#7063F1"/>
		<stop  offset="1" style="stop-color:#3A79F3"/>
	</linearGradient>
	<path class="st14" d="M322.8,128.2L322.8,128.2c0,3.7-1.9,7.1-5.1,8.9l-0.1,0c-2.1,1.2-4.8-0.3-4.8-2.8v-0.1c0-3.7,2-7.1,5.2-8.9
		l0,0C320.2,124.2,322.8,125.8,322.8,128.2z"/>
	
		<linearGradient id="SVGID_12_" gradientUnits="userSpaceOnUse" x1="1348.3356" y1="244.3513" x2="1462.1538" y2="244.3513" gradientTransform="matrix(-1 0 0 1 1684.3459 0)">
		<stop  offset="0" style="stop-color:#7063F1"/>
		<stop  offset="1" style="stop-color:#3A79F3"/>
	</linearGradient>
	<polygon class="st15" points="336,230.5 336,192.5 222.2,257.8 222.2,296.2 	"/>
	<polygon class="st7" points="336,190.3 336,155 222.2,220.3 222.2,256 	"/>
	<g>
		<g>
			<path class="st7" d="M205.4,323.5l-62.3,35.7c-1.3,0.7-2.9-0.2-2.9-1.7v-73l66.2-38.3v75.5C206.3,322.6,206,323.2,205.4,323.5z"
				/>
		</g>
		
			<linearGradient id="SVGID_13_" gradientUnits="userSpaceOnUse" x1="1477.5674" y1="265.859" x2="1544.623" y2="265.859" gradientTransform="matrix(-1 0 0 1 1684.3459 0)">
			<stop  offset="0" style="stop-color:#E99854"/>
			<stop  offset="1" style="stop-color:#E16364"/>
		</linearGradient>
		<polygon class="st16" points="206.8,265.6 206.8,227.7 139.7,265.6 139.7,304 		"/>
		<g>
			<g>
				<g>
					<path class="st2" d="M173.2,324.2l17.5-8.8l5.4-11.4c0.5-1,0.3-2.2-0.4-3c-0.7-0.8-1.9-1.2-2.9-0.8c-2.1,0.6-9.5,1.7-19.5-1.1
						l0.3,4.3c7.8,2.2,13.6,2.2,17.3,1.6l-3.4,7.2l-14.3,7.3L173.2,324.2z"/>
				</g>
			</g>
			<g>
				<line class="st7" x1="199.3" y1="345.9" x2="189.5" y2="325"/>
				<rect x="193.9" y="323.9" transform="matrix(0.9063 -0.4226 0.4226 0.9063 -123.5455 113.5636)" width="1" height="23.1"/>
			</g>
			<g>
				<line class="st7" x1="182.1" y1="338.8" x2="198.2" y2="348.5"/>
				<rect x="189.7" y="334.2" transform="matrix(0.517 -0.856 0.856 0.517 -202.3015 328.76)" width="1" height="18.9"/>
			</g>
			<g>
				<line class="st7" x1="199.3" y1="377.4" x2="201.4" y2="357.1"/>
				<rect x="190.1" y="366.8" transform="matrix(0.107 -0.9943 0.9943 0.107 -186.2689 527.1762)" width="20.4" height="1"/>
			</g>
			<g>
				<line class="st7" x1="186.7" y1="361.8" x2="198.9" y2="353.9"/>
				<rect x="185.5" y="357.3" transform="matrix(0.8408 -0.5413 0.5413 0.8408 -163.0295 161.3313)" width="14.6" height="1"/>
			</g>
			<g>
				<path class="st17" d="M193.5,305.2c-0.2-0.7,0.2-1.4,0.9-1.6c0.5-0.2,0.9,0,1.1,0.1c0.2,0.1,0.6,0.4,0.7,0.9l2.8,12.6
					c-0.9-0.1-1.8-0.1-2.7,0L193.5,305.2z"/>
				<path class="st17" d="M204.7,345.2l-0.1-0.1c-0.6-0.5-1.2-0.7-1.8-0.9l-5.1-21.7c0.8,0,1.5,0,2.3,0.2c0.1,0,0.3,0,0.4,0.1
					l5.2,23.1C205.2,345.7,205,345.4,204.7,345.2z"/>
				<path class="st2" d="M199.5,354.6c-0.1,0-0.3-0.1-0.4-0.1c-0.5-1-0.9-2.1-1.1-3.3c0.3-0.4,0.6-0.7,1.1-0.8l0.6-0.2l0.8,3.4
					c0.1,0.3,0.2,0.6,0.4,0.8l-0.3,0.1C200.2,354.6,199.8,354.7,199.5,354.6z"/>
				<path class="st2" d="M198,351.2c-0.2-1.2-0.2-2.4,0-3.6l0,0c0.1-0.6,0.3-1.2,0.7-1.7l1,4.3l-0.6,0.2
					C198.6,350.5,198.2,350.8,198,351.2z"/>
				<path class="st2" d="M204.7,345.2c0.3,0.2,0.5,0.5,0.8,0.7c0.5,0.5,1,1.1,1.4,1.7c0.8,1.2,1.4,2.6,1.7,4
					c0.1,0.4,0.1,0.7,0.2,1.1c0.1,0.9,0.1,1.9-0.1,2.9l0,0c-0.5,3.1-4.1,4.5-6.5,2.6l0,0c-1.3-1-2.3-2.3-3-3.7
					c0.1,0,0.3,0.1,0.4,0.1c0.3,0.1,0.7,0,1.1-0.1l0.3-0.1c0.3,0.4,0.8,0.7,1.4,0.8c0.3,0,0.6,0,0.8,0c1-0.2,1.7-1.2,1.7-2.2
					c0-0.2,0-0.3-0.1-0.5l-0.9-3.8l-1.1-4.5c0.6,0.1,1.3,0.4,1.8,0.9L204.7,345.2z"/>
				
					<linearGradient id="SVGID_14_" gradientUnits="userSpaceOnUse" x1="1422.5068" y1="412.7938" x2="1451.1423" y2="412.7938" gradientTransform="matrix(-0.9883 -0.1528 -0.1528 0.9883 1685.7706 121.5014)">
					<stop  offset="0" style="stop-color:#E99854"/>
					<stop  offset="1" style="stop-color:#E16364"/>
				</linearGradient>
				<path class="st18" d="M199,317.2l-2.8-12.6c-0.1-0.5-0.5-0.8-0.7-0.9c-0.2-0.1-0.6-0.3-1.1-0.1c-0.7,0.2-1.1,0.9-0.9,1.6l2.8,12
					c-1.4,0.1-2.9,0.4-4.3,0.8l-2.8-11.8c-0.7-2.9,0.9-5.8,3.7-6.8c1.5-0.5,3.3-0.4,4.7,0.4c1.4,0.8,2.4,2.2,2.8,3.8l3.2,14.5
					C202.2,317.6,200.6,317.3,199,317.2z"/>
				
					<linearGradient id="SVGID_15_" gradientUnits="userSpaceOnUse" x1="1422.5068" y1="440.0194" x2="1451.1423" y2="440.0194" gradientTransform="matrix(-0.9883 -0.1528 -0.1528 0.9883 1685.7706 121.5014)">
					<stop  offset="0" style="stop-color:#E99854"/>
					<stop  offset="1" style="stop-color:#E16364"/>
				</linearGradient>
				<path class="st19" d="M210.9,350.1c0.1,0.2,0.1,0.5,0,0.7c-0.1,0.9-0.8,1.7-1.7,1.9c-0.2,0-0.3,0.1-0.5,0.1
					c0-0.4-0.1-0.7-0.2-1.1c-0.3-1.4-0.9-2.8-1.7-4c-0.4-0.6-0.9-1.2-1.4-1.7l-5.2-23.1c1.7,0.3,3.4,0.9,4.9,1.9l4.9,22.1
					L210.9,350.1z"/>
				
					<linearGradient id="SVGID_16_" gradientUnits="userSpaceOnUse" x1="1422.5068" y1="441.8014" x2="1451.1423" y2="441.8014" gradientTransform="matrix(-0.9883 -0.1528 -0.1528 0.9883 1685.7706 121.5014)">
					<stop  offset="0" style="stop-color:#E99854"/>
					<stop  offset="1" style="stop-color:#E16364"/>
				</linearGradient>
				<path class="st20" d="M202.7,344.2l1.1,4.5l0.9,3.8c0,0.2,0.1,0.3,0.1,0.5c0,1-0.7,1.9-1.7,2.2c-0.3,0.1-0.6,0.1-0.8,0
					c-0.6-0.1-1.1-0.4-1.4-0.8c-0.2-0.2-0.3-0.5-0.4-0.8l-0.8-3.4l-1-4.3l-5.4-22.7c1.4-0.5,2.9-0.7,4.3-0.7L202.7,344.2z"/>
				<path class="st2" d="M200.3,322.8l-1.2-5.6c1.6,0.1,3.2,0.4,4.7,0.9l1.5,6.6C203.7,323.7,202,323.1,200.3,322.8z"/>
				<path d="M177.9,334.2l0-0.1c1.1-7.2,5.8-13,12.6-15.6c0.5-0.2,1-0.3,1.5-0.5l1.2,5.2c-0.3,0.1-0.5,0.2-0.8,0.3
					c-5,1.9-8.4,6.1-9.2,11.4l0,0.1c-2.5,16.1,3.9,32.4,16.6,42.5c4.1,3.3,9.5,4.1,14.4,2.2c4.9-1.9,8.3-6.2,9.1-11.3l0-0.1
					c2.4-15.7-3.7-31.8-15.9-41.9l-0.5-0.4c-0.6-0.5-1.2-0.9-1.8-1.3c-1.5-0.9-3.2-1.6-4.9-1.9c-0.1,0-0.3-0.1-0.4-0.1
					c-0.8-0.1-1.5-0.2-2.3-0.2l-1.3-5.3c0.9-0.1,1.8-0.1,2.7,0c1.6,0.1,3.2,0.4,4.7,0.9c2.4,0.8,4.6,2,6.7,3.7l0.5,0.4
					c6.8,5.6,12,12.9,15.1,21.1c3.1,8.2,4.1,17.1,2.7,25.8l0,0.1c-1.1,7.1-5.8,12.9-12.4,15.5c-3.4,1.3-6.9,1.7-10.3,1.2
					c-3.4-0.5-6.6-1.9-9.4-4.1C182.3,370.4,175.2,352.2,177.9,334.2z"/>
				
					<linearGradient id="SVGID_17_" gradientUnits="userSpaceOnUse" x1="1422.5068" y1="424.1449" x2="1451.1423" y2="424.1449" gradientTransform="matrix(-0.9883 -0.1528 -0.1528 0.9883 1685.7706 121.5014)">
					<stop  offset="0" style="stop-color:#E99854"/>
					<stop  offset="1" style="stop-color:#E16364"/>
				</linearGradient>
				<path class="st21" d="M197.6,322.6c-1.4,0-2.9,0.2-4.3,0.7l-1.2-5.2c1.4-0.4,2.9-0.7,4.3-0.8L197.6,322.6z"/>
			</g>
			<g>
				<path class="st2" d="M200.7,288.6c0.2,0,0.4-0.1,0.5-0.2l0.7-0.4c1.8-0.9,2.8-2.8,2.5-4.8l-0.4-2.9c-0.2-1.2-1.3-2-2.4-1.9
					c-1.2,0.2-2,1.3-1.9,2.4l0.4,2.9c0,0.1,0,0.2-0.2,0.3l-0.7,0.4c-1.1,0.5-1.5,1.9-1,2.9C198.7,288.4,199.8,288.8,200.7,288.6z"/>
			</g>
			<g>
				
					<linearGradient id="SVGID_18_" gradientUnits="userSpaceOnUse" x1="1489.7935" y1="223.3248" x2="1509.9655" y2="223.3248" gradientTransform="matrix(-0.9983 5.819304e-02 5.819304e-02 0.9983 1676.3345 -20.9032)">
					<stop  offset="0" style="stop-color:#E99854"/>
					<stop  offset="1" style="stop-color:#E16364"/>
				</linearGradient>
				<path class="st22" d="M184.4,294.1c0.2,0,0.4,0,0.6-0.1l15.5-5.3c1.1-0.4,1.8-1.6,1.4-2.8c-0.4-1.1-1.6-1.8-2.8-1.4l-15.5,5.3
					c-1.1,0.4-1.8,1.6-1.4,2.8C182.5,293.6,183.4,294.2,184.4,294.1z"/>
			</g>
			<g>
				<path class="st2" d="M192.6,304.1l-2.3-13.5c-0.3-0.3-0.5-0.7-0.6-1.2c-0.2-1.2,0.7-2.3,1.9-2.5c2.7-0.4,4.2,0.8,4.6,2.1
					c0.2,0.6,0.5,2.1-1.1,3.6l1.8,10.8c0.2,1.2-0.6,2.3-1.8,2.5c-0.1,0-0.2,0-0.4,0C193.7,305.9,192.8,305.1,192.6,304.1z
					 M192.2,289.2L192.2,289.2L192.2,289.2z"/>
			</g>
			<g>
				<path class="st2" d="M184.5,293.9c0.2,0,0.3-0.1,0.5-0.2l0.7-0.4c1.8-0.9,2.8-2.8,2.5-4.8l-0.4-2.9c-0.2-1.2-1.3-2-2.4-1.9
					c-1.2,0.2-2,1.3-1.9,2.4l0.4,2.9c0,0.1,0,0.2-0.2,0.3l-0.7,0.4c-1.1,0.5-1.5,1.9-1,2.9C182.6,293.7,183.6,294.2,184.5,293.9z"/>
			</g>
			<path class="st2" d="M206.5,348"/>
			<g>
				<path d="M206.8,349.2c0.1,0,0.2,0,0.3-0.1l12.2-7.8l-0.4-0.9l-12.3,7.9c-0.2,0.2-0.3,0.5-0.2,0.7
					C206.5,349.1,206.7,349.2,206.8,349.2z"/>
			</g>
			<g>
				<line class="st7" x1="215.4" y1="379.2" x2="205.6" y2="358.3"/>
				<path d="M215.9,379l-9.8-20.9c-0.1-0.3-0.4-0.4-0.7-0.2c-0.3,0.1-0.4,0.4-0.2,0.7l9.8,20.9L215.9,379z"/>
			</g>
			<g>
				<path d="M204.3,346c0.3,0,0.5-0.2,0.5-0.5l2.4-19.7l-1.2-0.7l-2.2,20.3C203.8,345.7,204,346,204.3,346
					C204.3,346,204.3,346,204.3,346z"/>
			</g>
			<g>
				<path d="M224,363.1l-15.7-9.3c-0.2-0.1-0.5-0.1-0.7,0.2c-0.1,0.2-0.1,0.5,0.2,0.7l16.1,9.7L224,363.1z"/>
			</g>
		</g>
	</g>
	<line class="st23" x1="153.6" y1="276.8" x2="194.4" y2="254.4"/>
	<line class="st23" x1="262.1" y1="254" x2="302.9" y2="231.6"/>
	<line class="st24" x1="250.7" y1="174.1" x2="291.5" y2="151.7"/>
</g>
<g>
	<linearGradient id="SVGID_19_" gradientUnits="userSpaceOnUse" x1="352.5163" y1="447.1577" x2="573.659" y2="447.1577">
		<stop  offset="0" style="stop-color:#7063F1"/>
		<stop  offset="1" style="stop-color:#3A79F3"/>
	</linearGradient>
	<polygon class="st25" points="430.4,369.3 538.7,457.6 539,466 573.7,486.1 519,492 518.8,525 477,500 477,491 352.5,378.2 	"/>
	<linearGradient id="SVGID_20_" gradientUnits="userSpaceOnUse" x1="352.5163" y1="447.1577" x2="573.659" y2="447.1577">
		<stop  offset="0" style="stop-color:#454545"/>
		<stop  offset="1" style="stop-color:#454545;stop-opacity:0"/>
	</linearGradient>
	<polygon class="st26" points="430.4,369.3 538.7,457.6 539,466 573.7,486.1 519,492 518.8,525 477,500 477,491 352.5,378.2 	"/>
	<linearGradient id="SVGID_21_" gradientUnits="userSpaceOnUse" x1="403.8214" y1="402.9292" x2="630" y2="402.9292">
		<stop  offset="0" style="stop-color:#7063F1"/>
		<stop  offset="1" style="stop-color:#3A79F3"/>
	</linearGradient>
	<polygon class="st27" points="403.8,383.5 566.2,442 566,451 600.2,454.2 586,440 585.9,430.2 584,427 592.7,425.7 593,433 
		630,439 620,419 620.4,409.7 441,351.6 	"/>
	<g>
		<path class="st28" d="M404.6,310.5l3.9,0.6c28.2,4.4,50.3,17,58.3,33.2c17.6,35.6-38,68.7-99.9,59.5l-3.9-0.6
			c-28.8-4.3-51.4-17.2-59.3-33.8l0,0C286.7,333.7,342.9,300.9,404.6,310.5"/>
		<g>
			<path class="st29" d="M404.6,310.5l3.9,0.6c3.9,0.6,7.6,1.4,11.3,2.3"/>
			<path class="st30" d="M436.8,319c14.3,6.2,25,15,30.1,25.3c17.6,35.6-38,68.7-99.9,59.5l-3.9-0.6c-28.8-4.3-51.4-17.2-59.3-33.8
				l0,0c-14.7-30.9,25.4-59.6,76.6-60.6"/>
			<path class="st29" d="M389.2,308.9c5.1,0.2,10.2,0.7,15.4,1.5"/>
		</g>
	</g>
	<polygon class="st31" points="477,491 477,500 539,466 539,458 	"/>
	<polygon class="st31" points="566,451 586,440 586,430 566,442 	"/>
	<polygon class="st31" points="593,426 620,410 620,419 593,433 	"/>
</g>
</svg>
