<?xml version="1.0" encoding="utf-8"?>
<!-- Generator: Adobe Illustrator 23.0.1, SVG Export Plug-In . SVG Version: 6.00 Build 0)  -->
<svg version="1.1" id="Capa_1" xmlns="http://www.w3.org/2000/svg" xmlns:xlink="http://www.w3.org/1999/xlink" x="0px" y="0px"
	 viewBox="0 0 504 145.6" style="enable-background:new 0 0 504 145.6;" xml:space="preserve">
<style type="text/css">
	.st0{fill:url(#SVGID_1_);}
	.st1{fill:url(#SVGID_2_);}
	.st2{fill:url(#SVGID_3_);}
	.st3{fill:url(#SVGID_4_);}
	.st4{fill:url(#SVGID_5_);}
	.st5{fill:url(#SVGID_6_);}
</style>
<g>
	<g>
		<linearGradient id="SVGID_1_" gradientUnits="userSpaceOnUse" x1="548.7277" y1="58.3441" x2="-46.43" y2="58.3441">
			<stop  offset="0" style="stop-color:#FF6567"/>
			<stop  offset="1" style="stop-color:#FFA046"/>
		</linearGradient>
		<path class="st0" d="M3.4,112.6c-2.2-2.2-3.4-5.3-3.4-9.3V12.7C0,8.9,1,6,3.1,4.1C5.3,1.9,8.1,1,11.7,1h40.7c12.5,0,22,3.1,29,9.3
			c6.9,6.2,10.3,15.1,10.3,26.1c0,11.3-3.4,19.9-10.3,26.1c-6.9,6.2-16.5,9.3-29,9.3H25.2V103c0,3.8-1.2,6.9-3.4,9.3
			c-2.2,2.2-5.3,3.4-9.3,3.4C8.6,115.9,5.5,114.7,3.4,112.6z M49.1,52.9c12.7,0,18.9-5.5,18.9-16.3c0-11-6.2-16.5-18.9-16.5h-24
			v32.8L49.1,52.9L49.1,52.9z"/>
	</g>
	<g>
		<linearGradient id="SVGID_2_" gradientUnits="userSpaceOnUse" x1="548.7277" y1="75.0712" x2="-46.43" y2="75.0712">
			<stop  offset="0" style="stop-color:#FF6567"/>
			<stop  offset="1" style="stop-color:#FFA046"/>
		</linearGradient>
		<path class="st1" d="M165.3,41.9c5.5,5.7,8.4,14.4,8.4,25.9v36.7c0,3.6-1,6.2-3.1,8.4c-2.2,1.9-5,3.1-8.6,3.1
			c-3.4,0-6.2-1-8.4-3.1c-2.2-2.2-3.1-4.8-3.1-8.1v-1.2c-1.7,4.1-4.3,7.2-8.1,9.3c-3.8,2.2-8.1,3.4-13.2,3.4
			c-5.5,0-10.3-1.2-14.6-3.4c-4.3-2.2-7.9-5.3-10.3-9.1c-2.6-3.8-3.8-8.1-3.8-12.9c0-5.7,1.4-10.3,4.6-13.7
			c2.9-3.4,7.7-5.7,14.4-7.2c6.5-1.4,15.6-2.2,27.1-2.2h4.3v-2.9c0-4.6-1-7.9-2.9-9.8c-1.9-2.2-5.3-3.1-10.1-3.1
			c-4.6,0-11.3,1.7-20.1,4.8c-2.4,1.2-4.6,1.7-6.2,1.7c-2.4,0-4.3-0.7-5.7-2.4c-1.4-1.7-2.2-3.8-2.2-6.5c0-2.2,0.5-3.8,1.4-5.3
			c1-1.4,2.6-2.6,4.8-3.8c3.8-2.2,8.4-3.6,13.9-4.8s10.8-1.7,16-1.7C151.2,33.5,159.8,36.4,165.3,41.9z M146.1,94.6
			c2.9-3.1,4.3-7.4,4.3-12.5v-2.6h-2.6c-8.6,0-14.9,0.7-18.4,2.2c-3.6,1.4-5.3,3.8-5.3,7.7c0,3.1,1,5.5,3.1,7.4
			c1.9,1.9,4.6,2.9,7.4,2.9C139.4,99.4,143.2,97.7,146.1,94.6z"/>
	</g>
	<g>
		<linearGradient id="SVGID_3_" gradientUnits="userSpaceOnUse" x1="548.7277" y1="89.7092" x2="-46.43" y2="89.7092">
			<stop  offset="0" style="stop-color:#FF6567"/>
			<stop  offset="1" style="stop-color:#FFA046"/>
		</linearGradient>
		<path class="st2" d="M270,37.1c2.2,2.2,3.4,4.8,3.4,8.4v61.1c0,12.9-3.8,22.5-11.3,29.2c-7.4,6.5-18.4,9.8-32.8,9.8
			c-12,0-22-2.2-29.7-6.5c-1.9-1.2-3.4-2.4-4.6-4.1c-1.2-1.7-1.7-3.4-1.7-5.3c0-2.6,0.7-5,1.9-6.7c1.2-1.7,3.1-2.6,5.3-2.6
			c1.2,0,2.6,0.2,4.3,0.7c1.7,0.5,3.4,1,5,1.7c3.4,1.2,6.7,2.4,9.6,3.1c2.9,0.7,6,1.2,9.3,1.2c6.9,0,12-1.7,15.3-4.8
			c3.4-3.1,5-7.9,5-14.1v-8.6c-2.2,4.1-5.7,7.4-10.3,9.8c-4.6,2.4-9.6,3.6-15.3,3.6c-6.9,0-12.9-1.7-18.4-4.8
			c-5.3-3.4-9.6-7.9-12.5-13.9c-3.1-6-4.6-12.9-4.6-20.8c0-7.9,1.4-14.9,4.6-20.8c3.1-6,7.2-10.5,12.5-13.9c5.3-3.4,11.5-5,18.4-5
			c5.5,0,10.5,1.2,15.1,3.6c4.6,2.4,7.9,5.5,10.3,9.6V45c0-3.4,1.2-6.2,3.4-8.1c2.2-1.9,5.3-3.1,8.9-3.1
			C264.7,33.8,267.6,35,270,37.1z M244.1,88.6c3.1-3.6,4.8-8.9,4.8-15.3c0-6.5-1.7-11.7-4.8-15.6s-7.7-5.5-13.4-5.5
			c-5.7,0-10.3,1.9-13.4,5.5c-3.4,3.8-4.8,8.9-4.8,15.6c0,6.5,1.7,11.7,4.8,15.3c3.4,3.6,7.7,5.5,13.4,5.5S241,92.2,244.1,88.6z"/>
	</g>
	<g>
		<linearGradient id="SVGID_4_" gradientUnits="userSpaceOnUse" x1="548.7277" y1="75.0712" x2="-46.43" y2="75.0712">
			<stop  offset="0" style="stop-color:#FF6567"/>
			<stop  offset="1" style="stop-color:#FFA046"/>
		</linearGradient>
		<path class="st3" d="M353.6,41.9c5.5,5.7,8.4,14.4,8.4,25.9v36.7c0,3.6-1,6.2-3.1,8.4c-2.2,1.9-5,3.1-8.6,3.1
			c-3.4,0-6.2-1-8.4-3.1c-2.2-2.2-3.1-4.8-3.1-8.1v-1.2c-1.7,4.1-4.3,7.2-8.1,9.3c-3.8,2.2-8.1,3.4-13.2,3.4
			c-5.5,0-10.3-1.2-14.6-3.4c-4.3-2.2-7.9-5.3-10.3-9.1c-2.6-3.8-3.8-8.1-3.8-12.9c0-5.7,1.4-10.3,4.6-13.7
			c2.9-3.4,7.7-5.7,14.4-7.2c6.5-1.4,15.6-2.2,27.1-2.2h4.3v-2.9c0-4.6-1-7.9-2.9-9.8c-1.9-2.2-5.3-3.1-10.1-3.1
			c-4.6,0-11.3,1.7-20.1,4.8c-2.4,1.2-4.6,1.7-6.2,1.7c-2.4,0-4.3-0.7-5.7-2.4c-1.4-1.7-2.2-3.8-2.2-6.5c0-2.2,0.5-3.8,1.4-5.3
			c1-1.4,2.6-2.6,4.8-3.8c3.8-2.2,8.4-3.6,13.9-4.8c5.5-1.2,10.8-1.7,16-1.7C339.4,33.5,348.1,36.4,353.6,41.9z M334.4,94.6
			c2.9-3.1,4.3-7.4,4.3-12.5v-2.6h-2.6c-8.6,0-14.9,0.7-18.4,2.2c-3.6,1.4-5.3,3.8-5.3,7.7c0,3.1,1,5.5,3.1,7.4
			c1.9,1.9,4.6,2.9,7.4,2.9C327.7,99.4,331.5,97.7,334.4,94.6z"/>
	</g>
	<g>
		
			<linearGradient id="SVGID_5_" gradientUnits="userSpaceOnUse" x1="548.7277" y1="355.9696" x2="-46.43" y2="355.9696" gradientTransform="matrix(1 0 0 1 0 -298)">
			<stop  offset="0" style="stop-color:#FF6567"/>
			<stop  offset="1" style="stop-color:#FFA046"/>
		</linearGradient>
		<path class="st4" d="M383.7,113.1c-2.4-1.9-3.6-4.8-3.6-8.6V11.5c0-3.8,1.2-6.7,3.6-8.6C386.1,1,389,0,392.6,0
			c3.4,0,6.2,1,8.6,2.9c2.4,1.9,3.6,4.8,3.6,8.6v92.9c0,3.8-1.2,6.7-3.6,8.6c-2.4,1.9-5.3,2.9-8.6,2.9
			C389,115.9,386.1,115,383.7,113.1z"/>
	</g>
	<g>
		<linearGradient id="SVGID_6_" gradientUnits="userSpaceOnUse" x1="548.7277" y1="74.7377" x2="-46.43" y2="74.7377">
			<stop  offset="0" style="stop-color:#FF6567"/>
			<stop  offset="1" style="stop-color:#FFA046"/>
		</linearGradient>
		<path class="st5" d="M439.6,111.1c-6.5-3.4-11.3-8.1-14.6-14.4c-3.4-6.2-5.3-13.4-5.3-22s1.7-15.8,5.3-22
			c3.4-6.2,8.4-11,14.6-14.4c6.5-3.4,13.7-5,22.3-5c8.4,0,15.8,1.7,22.3,5c6.5,3.4,11.3,8.1,14.6,14.4c3.4,6.2,5.3,13.4,5.3,22
			s-1.7,15.8-5.3,22c-3.4,6.2-8.4,11-14.6,14.4c-6.5,3.4-13.7,5-22.3,5C453.5,116.2,446,114.5,439.6,111.1z M479.6,74.7
			c0-7.7-1.4-13.4-4.6-17.2s-7.4-5.7-13.2-5.7c-12,0-17.7,7.7-17.7,22.8c0,15.3,6,22.8,17.7,22.8C473.6,97.7,479.6,90.1,479.6,74.7z
			"/>
	</g>
</g>
</svg>
