<?xml version="1.0" encoding="utf-8"?>
<!-- Generator: Adobe Illustrator 22.1.0, SVG Export Plug-In . SVG Version: 6.00 Build 0)  -->
<svg version="1.1" id="Capa_1" xmlns="http://www.w3.org/2000/svg" xmlns:xlink="http://www.w3.org/1999/xlink" x="0px" y="0px"
	 viewBox="0 0 716.6 716.6" style="enable-background:new 0 0 716.6 716.6;" xml:space="preserve">
<style type="text/css">
	.st0{opacity:0.2;fill:#666666;}
	.st1{fill:url(#SVGID_1_);}
	.st2{fill:url(#SVGID_2_);}
	.st3{fill:url(#SVGID_3_);}
	.st4{fill:url(#SVGID_4_);}
	.st5{fill:url(#SVGID_5_);}
	.st6{fill:url(#SVGID_6_);}
	.st7{fill:#F6F6F6;}
	.st8{fill:#D8D8D8;}
	.st9{fill:#E8E8E8;}
	.st10{fill:#FFFFFF;}
	.st11{opacity:0.15;fill:url(#SVGID_7_);}
	.st12{opacity:0.15;fill:url(#SVGID_8_);}
	.st13{opacity:0.21;fill:url(#SVGID_9_);}
	.st14{opacity:0.21;fill:url(#SVGID_10_);}
	.st15{opacity:0.15;fill:url(#SVGID_11_);}
	.st16{fill:url(#SVGID_12_);}
	
		.st17{fill:url(#SVGID_13_);stroke:url(#SVGID_14_);stroke-width:3;stroke-linecap:round;stroke-linejoin:round;stroke-miterlimit:10;}
	
		.st18{fill:url(#SVGID_15_);stroke:url(#SVGID_16_);stroke-width:3;stroke-linecap:round;stroke-linejoin:round;stroke-miterlimit:10;}
	.st19{fill:#C0BEBE;}
	.st20{fill:#A4A4A4;}
	.st21{fill:#666666;}
	.st22{clip-path:url(#SVGID_18_);}
	.st23{fill:url(#SVGID_19_);}
	.st24{fill:url(#SVGID_20_);}
	.st25{fill:#D6A041;}
	.st26{fill:#333333;}
	.st27{font-family:'SourceSansPro-SemiBold';}
	.st28{font-size:28.5821px;}
	.st29{font-family:'SourceSansPro-Regular';}
	.st30{font-size:18.1046px;}
	.st31{font-size:19.4798px;}
	.st32{font-size:17.6165px;}
	.st33{fill:#E16364;}
	.st34{fill:url(#SVGID_21_);}
	.st35{fill:url(#SVGID_22_);}
	.st36{fill:url(#SVGID_23_);}
	.st37{fill:url(#SVGID_24_);}
	.st38{opacity:0.51;fill:url(#SVGID_25_);}
	.st39{opacity:0.51;fill:url(#SVGID_26_);}
	.st40{opacity:0.51;fill:url(#SVGID_27_);}
</style>
<g>
	<polygon class="st0" points="64,504.9 370,338.9 661,504.9 363,677.9 	"/>
	<linearGradient id="SVGID_1_" gradientUnits="userSpaceOnUse" x1="586.0008" y1="509.8745" x2="661.0008" y2="509.8745">
		<stop  offset="0" style="stop-color:#7063F1"/>
		<stop  offset="1" style="stop-color:#3A79F3"/>
	</linearGradient>
	<polygon class="st1" points="586,548.9 586,521.9 661,470.9 661,505.2 	"/>
	<linearGradient id="SVGID_2_" gradientUnits="userSpaceOnUse" x1="362.553" y1="645.0476" x2="437.0008" y2="645.0476">
		<stop  offset="0" style="stop-color:#7063F1"/>
		<stop  offset="1" style="stop-color:#3A79F3"/>
	</linearGradient>
	<polygon class="st2" points="362.6,677.9 362.6,652.9 437,612.2 437,634.2 	"/>
	<linearGradient id="SVGID_3_" gradientUnits="userSpaceOnUse" x1="138.5531" y1="516.0476" x2="213.0008" y2="516.0476">
		<stop  offset="0" style="stop-color:#7063F1"/>
		<stop  offset="1" style="stop-color:#3A79F3"/>
	</linearGradient>
	<polygon class="st3" points="138.6,548.9 138.6,523.9 213,483.2 213,505.2 	"/>
	<linearGradient id="SVGID_4_" gradientUnits="userSpaceOnUse" x1="288.0008" y1="645.0476" x2="363.0008" y2="645.0476">
		<stop  offset="0" style="stop-color:#7063F1"/>
		<stop  offset="1" style="stop-color:#3A79F3"/>
	</linearGradient>
	<polygon class="st4" points="288,612.2 288,632.9 363,677.9 363,655.9 	"/>
	<linearGradient id="SVGID_5_" gradientUnits="userSpaceOnUse" x1="511.0008" y1="516.0476" x2="586.0008" y2="516.0476">
		<stop  offset="0" style="stop-color:#7063F1"/>
		<stop  offset="1" style="stop-color:#3A79F3"/>
	</linearGradient>
	<polygon class="st5" points="511,483.2 511,503.9 586,548.9 586,521.9 	"/>
	<linearGradient id="SVGID_6_" gradientUnits="userSpaceOnUse" x1="64.553" y1="516.0476" x2="139.0008" y2="516.0476">
		<stop  offset="0" style="stop-color:#7063F1"/>
		<stop  offset="1" style="stop-color:#3A79F3"/>
	</linearGradient>
	<polygon class="st6" points="64.6,483.2 64.6,503.9 139,548.9 139,523.9 	"/>
	<polygon class="st7" points="64,224.9 358,650.9 659,476.9 662,221.9 370,58.9 	"/>
	<polygon class="st8" points="662,221.9 661,480.9 363,655.9 363,397.9 	"/>
	<polygon class="st9" points="64,224.9 64,482.9 363,655.9 363,397.9 	"/>
	<g>
		<path class="st8" d="M93.1,467.8V261.3c0-0.7,0.1-1.4,0.4-2l-0.3-0.2c-4-2.3-9,0.6-9,5.2v206.5c0,3.9,2.1,7.5,5.5,9.5l244.3,141.3
			c3.4,2,7.5,0.2,8.7-3.2L98.6,477.3C95.2,475.4,93.1,471.7,93.1,467.8z"/>
		<path class="st10" d="M342.9,409.9c0-3.9-2.1-7.5-5.5-9.5L93.5,259.3c-0.2,0.6-0.4,1.3-0.4,2v206.5c0,3.9,2.1,7.5,5.5,9.5
			l243.9,141.1c0.2-0.6,0.4-1.3,0.4-2V409.9z"/>
	</g>
	<g>
		<polygon class="st7" points="93.6,441 104,446.9 104,410.4 93.3,404.2 83,410.2 83,446.9 		"/>
		<polygon class="st8" points="93.6,416.1 104,410.2 104,446.7 93.3,452.9 83,446.8 83,410.2 		"/>
		<g>
			<polygon class="st7" points="93.6,321 104,326.9 104,290.4 93.3,284.2 83,290.2 83,326.9 			"/>
			<polygon class="st8" points="93,295.9 104,290.2 104,326.7 93.3,332.9 83,326.8 83,290.2 			"/>
			<linearGradient id="SVGID_7_" gradientUnits="userSpaceOnUse" x1="93.0008" y1="311.3745" x2="104.0008" y2="311.3745">
				<stop  offset="0" style="stop-color:#454545;stop-opacity:0"/>
				<stop  offset="1" style="stop-color:#454545"/>
			</linearGradient>
			<polygon class="st11" points="93,295.9 93,332.9 104,326.9 104,289.9 			"/>
		</g>
		<linearGradient id="SVGID_8_" gradientUnits="userSpaceOnUse" x1="93.0008" y1="431.3745" x2="104.0008" y2="431.3745">
			<stop  offset="0" style="stop-color:#454545;stop-opacity:0"/>
			<stop  offset="1" style="stop-color:#454545"/>
		</linearGradient>
		<polygon class="st12" points="93,415.9 93,452.9 104,446.9 104,409.9 		"/>
	</g>
	<g>
		<path class="st7" d="M207.9,503.6c-8.9,0-17.3-2.3-25.2-6.9c-34.8-20.2-56.3-57.7-56.3-97.8v-0.5c0-13.9,5.5-26.8,15.4-36.3
			c9.4-9,22.2-14.2,35.1-14.2c9,0,17.5,2.4,25.5,7.1l0.4,0.2c16.9,10,31,24.3,40.8,41.3c9.8,17.1,14.9,36.5,14.9,56.1v0.5
			c0,13.9-5.5,26.8-15.4,36.2C233.5,498.4,220.8,503.6,207.9,503.6C207.9,503.6,207.9,503.6,207.9,503.6z"/>
		<linearGradient id="SVGID_9_" gradientUnits="userSpaceOnUse" x1="156.2612" y1="479.1692" x2="228.3719" y2="372.2607">
			<stop  offset="0" style="stop-color:#454545"/>
			<stop  offset="1" style="stop-color:#454545;stop-opacity:0"/>
		</linearGradient>
		<path class="st13" d="M207.9,503.6c-8.9,0-17.3-2.3-25.2-6.9c-34.8-20.2-56.3-57.7-56.3-97.8v-0.5c0-13.9,5.5-26.8,15.4-36.3
			c9.4-9,22.2-14.2,35.1-14.2c9,0,17.5,2.4,25.5,7.1l0.4,0.2c16.9,10,31,24.3,40.8,41.3c9.8,17.1,14.9,36.5,14.9,56.1v0.5
			c0,13.9-5.5,26.8-15.4,36.2C233.5,498.4,220.8,503.6,207.9,503.6C207.9,503.6,207.9,503.6,207.9,503.6z"/>
		<path class="st9" d="M219.9,413.5c-6.6-11.5-16.1-21.2-27.6-27.9l-0.2-0.1c-5.4-3.2-11.2-4.8-17.2-4.8c-8.7,0-17.4,3.5-23.7,9.6
			c-0.2,0.2-0.4,0.4-0.7,0.7l-0.1,0l-18.7,18.1l9.8-1.5c-0.5,2.4-0.8,4.8-0.8,7.3v0.3c0,27.2,14.6,52.5,38.1,66.1
			c5.3,3.1,11,4.6,17,4.7c0,0,0,0,0,0c0.1,0,0.2,0,0.3,0l-9,8.7l25.9-13.3l-0.1-0.1c2.4-1.4,4.6-3,6.6-4.9
			c6.7-6.4,10.4-15.1,10.4-24.5v-0.3C230,438.1,226.5,425,219.9,413.5z"/>
		<linearGradient id="SVGID_10_" gradientUnits="userSpaceOnUse" x1="165.0964" y1="382.0146" x2="205.5728" y2="487.4594">
			<stop  offset="0" style="stop-color:#454545;stop-opacity:0"/>
			<stop  offset="1" style="stop-color:#454545"/>
		</linearGradient>
		<path class="st14" d="M219.9,413.5c-6.6-11.5-16.1-21.2-27.6-27.9l-0.2-0.1c-5.4-3.2-11.2-4.8-17.2-4.8c-8.7,0-17.4,3.5-23.7,9.6
			c-0.2,0.2-0.4,0.4-0.7,0.7l-0.1,0l-18.7,18.1l9.8-1.5c-0.5,2.4-0.8,4.8-0.8,7.3v0.3c0,27.2,14.6,52.5,38.1,66.1
			c5.3,3.1,11,4.6,17,4.7c0,0,0,0,0,0c0.1,0,0.2,0,0.3,0l-9,8.7l25.9-13.3l-0.1-0.1c2.4-1.4,4.6-3,6.6-4.9
			c6.7-6.4,10.4-15.1,10.4-24.5v-0.3C230,438.1,226.5,425,219.9,413.5z"/>
		<path class="st7" d="M174.1,497.3c-5.6,0-10.9-1.5-15.9-4.3c-21.9-12.7-35.5-36.3-35.5-61.6v-0.3c0-8.7,3.4-16.9,9.7-22.8
			c5.9-5.7,14-8.9,22.1-8.9c5.6,0,11,1.5,16,4.4l0.2,0.1c10.7,6.3,19.5,15.3,25.7,26c6.1,10.7,9.4,23,9.4,35.3v0.3
			c0,8.7-3.4,16.9-9.7,22.8C190.3,494.1,182.2,497.3,174.1,497.3C174.1,497.3,174.1,497.3,174.1,497.3z"/>
	</g>
	<path class="st8" d="M288.1,428.5v126.7c0,2.3,1.1,4.6,3.4,5.9h0c6.3,3.7,14.1,3.7,20.5,0.1l0.1,0c2.3-1.3,3.4-3.6,3.4-5.9V428.5
		H288.1z"/>
	<linearGradient id="SVGID_11_" gradientUnits="userSpaceOnUse" x1="288.0899" y1="496.1889" x2="315.4145" y2="496.1889">
		<stop  offset="0" style="stop-color:#454545;stop-opacity:0"/>
		<stop  offset="1" style="stop-color:#454545"/>
	</linearGradient>
	<path class="st15" d="M288.1,428.5v126.7c0,2.3,1.1,4.6,3.4,5.9h0c6.3,3.7,14.1,3.7,20.5,0.1l0.1,0c2.3-1.3,3.4-3.6,3.4-5.9V428.5
		H288.1z"/>
	<path class="st8" d="M291.5,422.6L291.5,422.6c6.3-3.7,14.1-3.7,20.5-0.1l0.1,0c4.5,2.6,4.5,9.1,0,11.8l-0.1,0
		c-6.3,3.6-14.2,3.6-20.5-0.1l0,0C287,431.7,287,425.3,291.5,422.6z"/>
	<linearGradient id="SVGID_12_" gradientUnits="userSpaceOnUse" x1="160.0008" y1="406.8745" x2="160.0008" y2="406.8745">
		<stop  offset="0" style="stop-color:#454545;stop-opacity:0"/>
		<stop  offset="1" style="stop-color:#454545"/>
	</linearGradient>
	<path class="st16" d="M160,406.9"/>
	
		<linearGradient id="SVGID_13_" gradientUnits="userSpaceOnUse" x1="149.1957" y1="491.6414" x2="149.1957" y2="491.6414" gradientTransform="matrix(0.5007 -0.8656 0.8656 0.5007 -365.9412 316.7047)">
		<stop  offset="0" style="stop-color:#454545;stop-opacity:0"/>
		<stop  offset="1" style="stop-color:#454545"/>
	</linearGradient>
	
		<linearGradient id="SVGID_14_" gradientUnits="userSpaceOnUse" x1="147.6957" y1="491.6414" x2="150.6957" y2="491.6414" gradientTransform="matrix(0.5007 -0.8656 0.8656 0.5007 -365.9412 316.7047)">
		<stop  offset="0" style="stop-color:#E99854"/>
		<stop  offset="1" style="stop-color:#E16364"/>
	</linearGradient>
	<line class="st17" x1="141.3" y1="437.7" x2="127.4" y2="429.7"/>
	
		<linearGradient id="SVGID_15_" gradientUnits="userSpaceOnUse" x1="149.6957" y1="558.1414" x2="149.6957" y2="558.1414" gradientTransform="matrix(0.5007 -0.8656 0.8656 0.5007 -365.9412 316.7047)">
		<stop  offset="0" style="stop-color:#454545;stop-opacity:0"/>
		<stop  offset="1" style="stop-color:#454545"/>
	</linearGradient>
	
		<linearGradient id="SVGID_16_" gradientUnits="userSpaceOnUse" x1="148.1957" y1="558.1414" x2="151.1957" y2="558.1414" gradientTransform="matrix(0.5007 -0.8656 0.8656 0.5007 -365.9412 316.7047)">
		<stop  offset="0" style="stop-color:#E99854"/>
		<stop  offset="1" style="stop-color:#E16364"/>
	</linearGradient>
	<line class="st18" x1="199.1" y1="470.6" x2="185.2" y2="462.5"/>
	<g>
		<g>
			<polygon class="st19" points="400,607.6 400,607.9 419,596.9 419,596.6 			"/>
			<polygon class="st8" points="419,573.6 400,584.6 400,584.9 419,573.9 			"/>
			<polygon class="st8" points="143.9,229.8 143.6,230 144,230.2 144.3,230 			"/>
			<polygon class="st8" points="144.3,230 144,230.2 400,374.2 400,373.9 			"/>
			<polygon class="st19" points="614.4,231 384.3,98.4 384.3,98.5 614.4,231 			"/>
			<polygon class="st8" points="165.1,218.7 164.8,218.8 400,351.2 400,350.9 			"/>
			<polygon class="st19" points="637,236.9 368.2,85.9 365.3,87.5 145.4,207.6 124.6,219 125,219.2 143.9,229.8 144.3,230 
				164.8,218.8 165.1,218.7 364.2,109.9 614.4,254 614.4,460.5 614.4,460.8 419,573.9 400,584.9 400,607.6 419,596.6 419,596.9 
				633.4,472.8 637.4,470.5 637.4,469.5 637.4,447.5 			"/>
			<polygon class="st8" points="614.4,460.5 419,573.6 419,573.9 614.4,460.8 			"/>
			<polygon class="st8" points="364.2,109.9 144.3,230 400,373.9 400,374.2 400,584.6 419,573.6 614.4,460.5 614.4,254 			"/>
		</g>
		<polygon class="st20" points="370,112.9 370,356.9 144,229.9 363,109.9 		"/>
		<polygon class="st21" points="614,460.9 370,316.9 332,334.9 400,373.9 400,584.9 		"/>
		<g>
			<g>
				<defs>
					<polygon id="SVGID_17_" points="366.2,109.9 146.3,230 400,375.9 400,373.9 400,584.9 421,573.6 616.4,460.5 616.4,254 					
						"/>
				</defs>
				<clipPath id="SVGID_18_">
					<use xlink:href="#SVGID_17_"  style="overflow:visible;"/>
				</clipPath>
				<g class="st22">
					<g>
						
							<linearGradient id="SVGID_19_" gradientUnits="userSpaceOnUse" x1="193.3769" y1="493.9225" x2="546.5741" y2="493.9225" gradientTransform="matrix(1 2.116820e-03 -2.116820e-03 1 0.6752 7.900305e-02)">
							<stop  offset="0" style="stop-color:#3A79F3"/>
							<stop  offset="1" style="stop-color:#7063F1"/>
						</linearGradient>
						<path class="st23" d="M360.7,409.6l-167.6,90.5l-0.1,6c-0.3,1.5,0.4,3.1,1.7,3.9l119,69.1c2,1.1,4.4,1.1,6.4,0l225.3-128.9
							c0.6-0.3,0.9-0.9,0.9-1.5l0-7L360.7,409.6z"/>
						
							<linearGradient id="SVGID_20_" gradientUnits="userSpaceOnUse" x1="193.2557" y1="470.9944" x2="546.5048" y2="470.9944" gradientTransform="matrix(1 2.116820e-03 -2.116820e-03 1 0.6752 7.900305e-02)">
							<stop  offset="0" style="stop-color:#7063F1"/>
							<stop  offset="1" style="stop-color:#3A79F3"/>
						</linearGradient>
						<path class="st24" d="M426.2,371.9c-3.5-2-7.7-2-11.2,0L194.7,497.7c-2.5,1.4-2.5,5,0,6.4l117.2,67.8c3.1,1.8,6.9,1.8,10,0
							l223.5-129c1.1-0.6,1.1-2.1,0-2.7L426.2,371.9z"/>
						<g>
							<path class="st25" d="M248.9,496.4l-6.4,3.4l-0.6,3.5c0,0.2,0.1,0.4,0.3,0.5c0.5,0.3,1.3,0.2,1.9-0.1l10.5-5.5l-3.4-1.8
								C250.6,496,249.6,496,248.9,496.4z"/>
							<path class="st25" d="M248.3,507.9c-0.5-0.3-1.3-0.2-1.9,0.1l-10.5,5.5l3.4,1.8c0.6,0.3,1.6,0.2,2.3-0.1l6.3-3.3l0.6-3.5
								C248.6,508.2,248.5,508.1,248.3,507.9z"/>
							<path class="st25" d="M248.9,507.6c-0.6-0.3-0.5-0.9,0.2-1.3l2.4-1.3l-4.8-2.6l-2.4,1.3c-0.7,0.4-1.8,0.4-2.4,0.1
								c-0.3-0.2-0.4-0.4-0.4-0.6l0.6-3.3l-7.9,4.2l6.3-0.3c0.5,0,0.9,0.1,1.2,0.2c0.6,0.3,0.5,0.9-0.2,1.3l-2.5,1.3l4.8,2.6
								l2.5-1.3c0.7-0.4,1.8-0.4,2.4-0.1c0.3,0.2,0.4,0.4,0.4,0.6l-0.6,3.3l8-4.2l-6.3,0.3C249.6,507.8,249.2,507.8,248.9,507.6z"/>
							<path class="st25" d="M241.3,504.2c-0.2-0.1-0.6-0.2-0.9-0.2l-6.6,0.3l-6.3,3.3c-0.7,0.4-0.8,0.9-0.3,1.2l3.4,1.8l10.5-5.5
								C241.7,504.9,241.8,504.5,241.3,504.2z"/>
							<polygon class="st25" points="238.6,506.8 230.9,510.9 235.7,513.5 243.4,509.4 							"/>
							<path class="st25" d="M249.2,507.5c0.2,0.1,0.6,0.2,0.9,0.2l6.7-0.3l6.3-3.3c0.7-0.4,0.8-0.9,0.3-1.2l-3.5-1.9l-10.5,5.5
								C248.8,506.7,248.7,507.2,249.2,507.5z"/>
							<polygon class="st25" points="251.8,504.9 259.6,500.8 254.8,498.2 247,502.3 							"/>
							<path class="st26" d="M242.2,503.7c-0.2-0.1-0.3-0.3-0.3-0.5l0.6-3.5l-0.4,0.2l-0.6,3.3c0,0.2,0.1,0.5,0.4,0.6
								c0.6,0.3,1.7,0.3,2.4-0.1l2.4-1.3l4.8,2.6l-2.4,1.3c-0.7,0.4-0.8,1-0.2,1.3c0.3,0.2,0.7,0.2,1.2,0.2l6.3-0.3l0.4-0.2
								l-6.7,0.3c-0.4,0-0.7,0-0.9-0.2c-0.5-0.3-0.4-0.7,0.2-1l10.5-5.5l-0.2-0.1l-7.8,4.1l-4.8-2.6l7.8-4.1l-0.2-0.1l-10.5,5.5
								C243.5,503.9,242.7,504,242.2,503.7z"/>
							<path class="st26" d="M248.6,507.8c-0.6-0.3-1.7-0.3-2.4,0.1l-2.5,1.3l-4.8-2.6l2.5-1.3c0.7-0.4,0.8-1,0.2-1.3
								c-0.3-0.2-0.7-0.2-1.2-0.2l-6.3,0.3l-0.4,0.2l6.6-0.3c0.4,0,0.7,0,0.9,0.2c0.5,0.3,0.4,0.7-0.2,1l-10.5,5.5l0.2,0.1l7.8-4.1
								l4.8,2.6l-7.8,4.1l0.2,0.1l10.5-5.5c0.6-0.3,1.4-0.3,1.9-0.1c0.2,0.1,0.3,0.3,0.3,0.5l-0.6,3.5l0.4-0.2l0.6-3.3
								C249,508.2,248.9,507.9,248.6,507.8z"/>
						</g>
						<text transform="matrix(0.5927 -0.3405 0.4961 0.3062 298.1209 519.3833)" class="st10 st27 st28">7689  1234  5544  6777</text>
						<g>
							<text transform="matrix(0.5339 -0.3017 0.4959 0.3066 362.2301 507.7514)" class="st10 st29 st30">10/17</text>
							<text transform="matrix(0.5339 -0.3017 0.4959 0.3066 419.5011 473.8889)" class="st10 st29 st31">10/22</text>
							<text transform="matrix(0.5339 -0.3017 0.4959 0.3066 368.0539 521.2748)" class="st10 st29 st32">xx xxxx xxxx xxxx</text>
						</g>
					</g>
					<g>
						<path class="st33" d="M360.7,356.4l-167.6,90.5l-0.1,6c-0.3,1.5,0.4,3.1,1.7,3.9l119,69.1c2,1.1,4.4,1.1,6.4,0l225.3-128.9
							c0.6-0.3,0.9-0.9,0.9-1.5l0-7L360.7,356.4z"/>
						
							<linearGradient id="SVGID_21_" gradientUnits="userSpaceOnUse" x1="193.1432" y1="417.81" x2="546.3922" y2="417.81" gradientTransform="matrix(1 2.116820e-03 -2.116820e-03 1 0.6752 7.900305e-02)">
							<stop  offset="0" style="stop-color:#E99854"/>
							<stop  offset="1" style="stop-color:#E16364"/>
						</linearGradient>
						<path class="st34" d="M426.2,318.7c-3.5-2-7.7-2-11.2,0L194.7,444.5c-2.5,1.4-2.5,5,0,6.4l117.2,67.8c3.1,1.8,6.9,1.8,10,0
							l223.5-129c1.1-0.6,1.1-2.1,0-2.7L426.2,318.7z"/>
						<g>
							<path class="st25" d="M248.9,443.2l-6.4,3.4l-0.6,3.5c0,0.2,0.1,0.4,0.3,0.5c0.5,0.3,1.3,0.2,1.9-0.1l10.5-5.5l-3.4-1.8
								C250.6,442.8,249.6,442.8,248.9,443.2z"/>
							<path class="st25" d="M248.3,454.8c-0.5-0.3-1.3-0.2-1.9,0.1l-10.5,5.5l3.4,1.8c0.6,0.3,1.6,0.2,2.3-0.1l6.3-3.3l0.6-3.5
								C248.6,455.1,248.5,454.9,248.3,454.8z"/>
							<path class="st25" d="M248.9,454.4c-0.6-0.3-0.5-0.9,0.2-1.3l2.4-1.3l-4.8-2.6l-2.4,1.3c-0.7,0.4-1.8,0.4-2.4,0.1
								c-0.3-0.2-0.4-0.4-0.4-0.6l0.6-3.3l-7.9,4.2l6.3-0.3c0.5,0,0.9,0.1,1.2,0.2c0.6,0.3,0.5,0.9-0.2,1.3l-2.5,1.3l4.8,2.6
								l2.5-1.3c0.7-0.4,1.8-0.4,2.4-0.1c0.3,0.2,0.4,0.4,0.4,0.6l-0.6,3.3l8-4.2l-6.3,0.3C249.6,454.7,249.2,454.6,248.9,454.4z"/>
							<path class="st25" d="M241.3,451c-0.2-0.1-0.6-0.2-0.9-0.2l-6.6,0.3l-6.3,3.3c-0.7,0.4-0.8,0.9-0.3,1.2l3.4,1.8l10.5-5.5
								C241.7,451.7,241.8,451.3,241.3,451z"/>
							<polygon class="st25" points="238.6,453.6 230.9,457.7 235.7,460.3 243.4,456.2 							"/>
							<path class="st25" d="M249.2,454.3c0.2,0.1,0.6,0.2,0.9,0.2l6.7-0.3l6.3-3.3c0.7-0.4,0.8-0.9,0.3-1.2l-3.5-1.9l-10.5,5.5
								C248.8,453.6,248.7,454,249.2,454.3z"/>
							<polygon class="st25" points="251.8,451.7 259.6,447.6 254.8,445 247,449.2 							"/>
							<path class="st26" d="M242.2,450.5c-0.2-0.1-0.3-0.3-0.3-0.5l0.6-3.5l-0.4,0.2l-0.6,3.3c0,0.2,0.1,0.5,0.4,0.6
								c0.6,0.3,1.7,0.3,2.4-0.1l2.4-1.3l4.8,2.6l-2.4,1.3c-0.7,0.4-0.8,1-0.2,1.3c0.3,0.2,0.7,0.2,1.2,0.2l6.3-0.3l0.4-0.2
								l-6.7,0.3c-0.4,0-0.7,0-0.9-0.2c-0.5-0.3-0.4-0.7,0.2-1l10.5-5.5l-0.2-0.1l-7.8,4.1l-4.8-2.6l7.8-4.1l-0.2-0.1l-10.5,5.5
								C243.5,450.7,242.7,450.8,242.2,450.5z"/>
							<path class="st26" d="M248.6,454.6c-0.6-0.3-1.7-0.3-2.4,0.1l-2.5,1.3l-4.8-2.6l2.5-1.3c0.7-0.4,0.8-1,0.2-1.3
								c-0.3-0.2-0.7-0.2-1.2-0.2l-6.3,0.3l-0.4,0.2l6.6-0.3c0.4,0,0.7,0,0.9,0.2c0.5,0.3,0.4,0.7-0.2,1l-10.5,5.5l0.2,0.1l7.8-4.1
								l4.8,2.6l-7.8,4.1l0.2,0.1l10.5-5.5c0.6-0.3,1.4-0.3,1.9-0.1c0.2,0.1,0.3,0.3,0.3,0.5l-0.6,3.5l0.4-0.2l0.6-3.3
								C249,455,248.9,454.8,248.6,454.6z"/>
						</g>
						<text transform="matrix(0.5927 -0.3405 0.4961 0.3062 298.1216 466.1991)" class="st10 st27 st28">7689  1234  5544  6777</text>
						<g>
							<text transform="matrix(0.5339 -0.3017 0.4959 0.3066 362.2303 454.5665)" class="st10 st29 st30">10/17</text>
							<text transform="matrix(0.5339 -0.3017 0.4959 0.3066 419.5003 420.7037)" class="st10 st29 st31">10/22</text>
							<text transform="matrix(0.5339 -0.3017 0.4959 0.3066 368.0522 468.0891)" class="st10 st29 st32">xx xxxx xxxx xxxx</text>
						</g>
					</g>
					<g>
						
							<linearGradient id="SVGID_22_" gradientUnits="userSpaceOnUse" x1="193.1517" y1="387.5536" x2="546.3489" y2="387.5536" gradientTransform="matrix(1 2.116820e-03 -2.116820e-03 1 0.6752 7.900305e-02)">
							<stop  offset="0" style="stop-color:#3A79F3"/>
							<stop  offset="1" style="stop-color:#7063F1"/>
						</linearGradient>
						<path class="st35" d="M360.7,303.2l-167.6,90.5l-0.1,6c-0.3,1.5,0.4,3.1,1.7,3.9l119,69.1c2,1.1,4.4,1.1,6.4,0l225.3-128.9
							c0.6-0.3,0.9-0.9,0.9-1.5l0-7L360.7,303.2z"/>
						
							<linearGradient id="SVGID_23_" gradientUnits="userSpaceOnUse" x1="193.0306" y1="364.6256" x2="546.2796" y2="364.6256" gradientTransform="matrix(1 2.116820e-03 -2.116820e-03 1 0.6752 7.900305e-02)">
							<stop  offset="0" style="stop-color:#7063F1"/>
							<stop  offset="1" style="stop-color:#3A79F3"/>
						</linearGradient>
						<path class="st36" d="M426.2,265.5c-3.5-2-7.7-2-11.2,0L194.7,391.3c-2.5,1.4-2.5,5,0,6.4l117.2,67.8c3.1,1.8,6.9,1.8,10,0
							l223.5-129c1.1-0.6,1.1-2.1,0-2.7L426.2,265.5z"/>
						<g>
							<path class="st25" d="M248.9,390l-6.4,3.4l-0.6,3.5c0,0.2,0.1,0.4,0.3,0.5c0.5,0.3,1.3,0.2,1.9-0.1l10.5-5.5l-3.4-1.8
								C250.6,389.6,249.6,389.6,248.9,390z"/>
							<path class="st25" d="M248.3,401.6c-0.5-0.3-1.3-0.2-1.9,0.1l-10.5,5.5l3.4,1.8c0.6,0.3,1.6,0.2,2.3-0.1l6.3-3.3l0.6-3.5
								C248.6,401.9,248.5,401.7,248.3,401.6z"/>
							<path class="st25" d="M248.9,401.2c-0.6-0.3-0.5-0.9,0.2-1.3l2.4-1.3l-4.8-2.6l-2.4,1.3c-0.7,0.4-1.8,0.4-2.4,0.1
								c-0.3-0.2-0.4-0.4-0.4-0.6l0.6-3.3l-7.9,4.2l6.3-0.3c0.5,0,0.9,0.1,1.2,0.2c0.6,0.3,0.5,0.9-0.2,1.3l-2.5,1.3l4.8,2.6
								l2.5-1.3c0.7-0.4,1.8-0.4,2.4-0.1c0.3,0.2,0.4,0.4,0.4,0.6l-0.6,3.3l8-4.2l-6.3,0.3C249.6,401.5,249.2,401.4,248.9,401.2z"/>
							<path class="st25" d="M241.3,397.8c-0.2-0.1-0.6-0.2-0.9-0.2l-6.6,0.3l-6.3,3.3c-0.7,0.4-0.8,0.9-0.3,1.2l3.4,1.8l10.5-5.5
								C241.7,398.5,241.8,398.1,241.3,397.8z"/>
							<polygon class="st25" points="238.6,400.4 230.9,404.5 235.7,407.1 243.4,403 							"/>
							<path class="st25" d="M249.2,401.1c0.2,0.1,0.6,0.2,0.9,0.2l6.7-0.3l6.3-3.3c0.7-0.4,0.8-0.9,0.3-1.2l-3.5-1.9l-10.5,5.5
								C248.8,400.4,248.7,400.8,249.2,401.1z"/>
							<polygon class="st25" points="251.8,398.5 259.6,394.4 254.8,391.8 247,396 							"/>
							<path class="st26" d="M242.2,397.3c-0.2-0.1-0.3-0.3-0.3-0.5l0.6-3.5l-0.4,0.2l-0.6,3.3c0,0.2,0.1,0.5,0.4,0.6
								c0.6,0.3,1.7,0.3,2.4-0.1l2.4-1.3l4.8,2.6l-2.4,1.3c-0.7,0.4-0.8,1-0.2,1.3c0.3,0.2,0.7,0.2,1.2,0.2l6.3-0.3l0.4-0.2
								l-6.7,0.3c-0.4,0-0.7,0-0.9-0.2c-0.5-0.3-0.4-0.7,0.2-1l10.5-5.5l-0.2-0.1l-7.8,4.1L247,396l7.8-4.1l-0.2-0.1l-10.5,5.5
								C243.5,397.6,242.7,397.6,242.2,397.3z"/>
							<path class="st26" d="M248.6,401.4c-0.6-0.3-1.7-0.3-2.4,0.1l-2.5,1.3l-4.8-2.6l2.5-1.3c0.7-0.4,0.8-1,0.2-1.3
								c-0.3-0.2-0.7-0.2-1.2-0.2l-6.3,0.3l-0.4,0.2l6.6-0.3c0.4,0,0.7,0,0.9,0.2c0.5,0.3,0.4,0.7-0.2,1l-10.5,5.5l0.2,0.1l7.8-4.1
								l4.8,2.6l-7.8,4.1l0.2,0.1l10.5-5.5c0.6-0.3,1.4-0.3,1.9-0.1c0.2,0.1,0.3,0.3,0.3,0.5l-0.6,3.5l0.4-0.2l0.6-3.3
								C249,401.8,248.9,401.6,248.6,401.4z"/>
						</g>
						<text transform="matrix(0.5927 -0.3405 0.4961 0.3062 298.1229 413.0146)" class="st10 st27 st28">7689  1234  5544  6777</text>
						<g>
							<text transform="matrix(0.5339 -0.3017 0.4959 0.3066 362.2303 401.3817)" class="st10 st29 st30">10/17</text>
							<text transform="matrix(0.5339 -0.3017 0.4959 0.3066 419.5005 367.5188)" class="st10 st29 st31">10/22</text>
							<text transform="matrix(0.5339 -0.3017 0.4959 0.3066 368.0541 414.9052)" class="st10 st29 st32">xx xxxx xxxx xxxx</text>
						</g>
					</g>
					<g>
						<path class="st33" d="M360.7,250l-167.6,90.5l-0.1,6c-0.3,1.5,0.4,3.1,1.7,3.9l119,69.1c2,1.1,4.4,1.1,6.4,0l225.3-128.9
							c0.6-0.3,0.9-0.9,0.9-1.5l0-7L360.7,250z"/>
						
							<linearGradient id="SVGID_24_" gradientUnits="userSpaceOnUse" x1="192.918" y1="311.4411" x2="546.1671" y2="311.4411" gradientTransform="matrix(1 2.116820e-03 -2.116820e-03 1 0.6752 7.900305e-02)">
							<stop  offset="0" style="stop-color:#FFA04E"/>
							<stop  offset="1" style="stop-color:#FF6567"/>
						</linearGradient>
						<path class="st37" d="M426.2,212.4c-3.5-2-7.7-2-11.2,0L194.7,338.1c-2.5,1.4-2.5,5,0,6.4l117.2,67.8c3.1,1.8,6.9,1.8,10,0
							l223.5-129c1.1-0.6,1.1-2.1,0-2.7L426.2,212.4z"/>
						<g>
							<path class="st25" d="M248.9,336.8l-6.4,3.4l-0.6,3.5c0,0.2,0.1,0.4,0.3,0.5c0.5,0.3,1.3,0.2,1.9-0.1l10.5-5.5l-3.4-1.8
								C250.6,336.4,249.6,336.5,248.9,336.8z"/>
							<path class="st25" d="M248.3,348.4c-0.5-0.3-1.3-0.2-1.9,0.1l-10.5,5.5l3.4,1.8c0.6,0.3,1.6,0.2,2.3-0.1l6.3-3.3l0.6-3.5
								C248.6,348.7,248.5,348.5,248.3,348.4z"/>
							<path class="st25" d="M248.9,348.1c-0.6-0.3-0.5-0.9,0.2-1.3l2.4-1.3l-4.8-2.6l-2.4,1.3c-0.7,0.4-1.8,0.4-2.4,0.1
								c-0.3-0.2-0.4-0.4-0.4-0.6l0.6-3.3l-7.9,4.2l6.3-0.3c0.5,0,0.9,0.1,1.2,0.2c0.6,0.3,0.5,0.9-0.2,1.3l-2.5,1.3l4.8,2.6
								l2.5-1.3c0.7-0.4,1.8-0.4,2.4-0.1c0.3,0.2,0.4,0.4,0.4,0.6l-0.6,3.3l8-4.2l-6.3,0.3C249.6,348.3,249.2,348.2,248.9,348.1z"/>
							<path class="st25" d="M241.3,344.7c-0.2-0.1-0.6-0.2-0.9-0.2l-6.6,0.3l-6.3,3.3c-0.7,0.4-0.8,0.9-0.3,1.2l3.4,1.8l10.5-5.5
								C241.7,345.4,241.8,344.9,241.3,344.7z"/>
							<polygon class="st25" points="238.6,347.2 230.9,351.3 235.7,353.9 243.4,349.8 							"/>
							<path class="st25" d="M249.2,347.9c0.2,0.1,0.6,0.2,0.9,0.2l6.7-0.3l6.3-3.3c0.7-0.4,0.8-0.9,0.3-1.2l-3.5-1.9l-10.5,5.5
								C248.8,347.2,248.7,347.6,249.2,347.9z"/>
							<polygon class="st25" points="251.8,345.4 259.6,341.2 254.8,338.7 247,342.8 							"/>
							<path class="st26" d="M242.2,344.2c-0.2-0.1-0.3-0.3-0.3-0.5l0.6-3.5l-0.4,0.2l-0.6,3.3c0,0.2,0.1,0.5,0.4,0.6
								c0.6,0.3,1.7,0.3,2.4-0.1l2.4-1.3l4.8,2.6l-2.4,1.3c-0.7,0.4-0.8,1-0.2,1.3c0.3,0.2,0.7,0.2,1.2,0.2l6.3-0.3l0.4-0.2
								l-6.7,0.3c-0.4,0-0.7,0-0.9-0.2c-0.5-0.3-0.4-0.7,0.2-1l10.5-5.5l-0.2-0.1l-7.8,4.1l-4.8-2.6l7.8-4.1l-0.2-0.1l-10.5,5.5
								C243.5,344.4,242.7,344.4,242.2,344.2z"/>
							<path class="st26" d="M248.6,348.2c-0.6-0.3-1.7-0.3-2.4,0.1l-2.5,1.3l-4.8-2.6l2.5-1.3c0.7-0.4,0.8-1,0.2-1.3
								c-0.3-0.2-0.7-0.2-1.2-0.2l-6.3,0.3l-0.4,0.2l6.6-0.3c0.4,0,0.7,0,0.9,0.2c0.5,0.3,0.4,0.7-0.2,1l-10.5,5.5l0.2,0.1l7.8-4.1
								l4.8,2.6l-7.8,4.1l0.2,0.1l10.5-5.5c0.6-0.3,1.4-0.3,1.9-0.1c0.2,0.1,0.3,0.3,0.3,0.5l-0.6,3.5l0.4-0.2l0.6-3.3
								C249,348.6,248.9,348.4,248.6,348.2z"/>
						</g>
						<text transform="matrix(0.5927 -0.3405 0.4961 0.3062 298.1221 359.8293)" class="st10 st27 st28">7689  1234  5544  6777</text>
						<g>
							<text transform="matrix(0.5339 -0.3017 0.4959 0.3066 362.2305 348.1968)" class="st10 st29 st30">10/17</text>
							<text transform="matrix(0.5339 -0.3017 0.4959 0.3066 419.5005 314.334)" class="st10 st29 st31">10/22</text>
							<text transform="matrix(0.5339 -0.3017 0.4959 0.3066 368.0516 361.7188)" class="st10 st29 st32">xx xxxx xxxx xxxx</text>
						</g>
					</g>
				</g>
			</g>
			<linearGradient id="SVGID_25_" gradientUnits="userSpaceOnUse" x1="487.3314" y1="392.5157" x2="435.4593" y2="338.8006">
				<stop  offset="0" style="stop-color:#454545;stop-opacity:0"/>
				<stop  offset="1" style="stop-color:#454545"/>
			</linearGradient>
			<path class="st38" d="M507.6,312.2l37.7,21.2c1.2,0.7,1.2,2.4,0,3.1L400,421.4v-45.5l-1.8-1.1L507.6,312.2z"/>
			<linearGradient id="SVGID_26_" gradientUnits="userSpaceOnUse" x1="487.0792" y1="445.2379" x2="435.9584" y2="392.3007">
				<stop  offset="0" style="stop-color:#454545;stop-opacity:0"/>
				<stop  offset="1" style="stop-color:#454545"/>
			</linearGradient>
			<path class="st39" d="M508.1,365.4l37.4,21.6c0.6,0.4,0.6,1.3,0,1.7L400,473.9v-45v-1.4c0-0.3,0.2-0.7,0.5-0.8l106.7-61.2
				C507.5,365.3,507.8,365.3,508.1,365.4z"/>
			<linearGradient id="SVGID_27_" gradientUnits="userSpaceOnUse" x1="487.545" y1="499.2354" x2="435.6259" y2="445.4717">
				<stop  offset="0" style="stop-color:#454545;stop-opacity:0"/>
				<stop  offset="1" style="stop-color:#454545"/>
			</linearGradient>
			<path class="st40" d="M507.6,418.2l37.5,22.1c1.3,0.7,1.3,2.6,0,3.3L400,527.4v-45.5v-2L507.6,418.2z"/>
		</g>
	</g>
</g>
</svg>
