<?xml version="1.0" encoding="utf-8"?>
<!-- Generator: Adobe Illustrator 23.0.1, SVG Export Plug-In . SVG Version: 6.00 Build 0)  -->
<svg version="1.1" id="Capa_1" xmlns="http://www.w3.org/2000/svg" xmlns:xlink="http://www.w3.org/1999/xlink" x="0px" y="0px"
	 viewBox="0 0 19 19" style="enable-background:new 0 0 19 19;" xml:space="preserve">
<style type="text/css">
	.st0{fill:#464646;}
</style>
<g>
	<path class="st0" d="M9.5,19C4.3,19,0,14.7,0,9.5S4.3,0,9.5,0S19,4.3,19,9.5S14.7,19,9.5,19z M9.5,1C4.8,1,1,4.8,1,9.5
		S4.8,18,9.5,18S18,14.2,18,9.5S14.2,1,9.5,1z"/>
</g>
<g>
	<path class="st0" d="M15.5,16c-0.1,0-0.3,0-0.4-0.1l-12-12C3,3.7,3,3.3,3.1,3.1s0.5-0.2,0.7,0l12,12c0.2,0.2,0.2,0.5,0,0.7
		C15.8,16,15.6,16,15.5,16z"/>
</g>
</svg>
