<?xml version="1.0" encoding="utf-8"?>
<!-- Generator: Adobe Illustrator 22.1.0, SVG Export Plug-In . SVG Version: 6.00 Build 0)  -->
<svg version="1.1" id="Capa_1" xmlns="http://www.w3.org/2000/svg" xmlns:xlink="http://www.w3.org/1999/xlink" x="0px" y="0px"
	 viewBox="0 0 503 563" style="enable-background:new 0 0 503 563;" xml:space="preserve">
<style type="text/css">
	.st0{fill:#555555;}
	.st1{opacity:0.2;fill:url(#SVGID_1_);}
	.st2{fill:#CCCCCC;}
	.st3{fill:#454545;}
	.st4{fill:#F8F8F8;}
	.st5{fill:#FFFFFF;}
	.st6{fill:url(#SVGID_4_);}
	.st7{fill:url(#SVGID_5_);}
	.st8{fill:url(#SVGID_6_);}
	.st9{fill:url(#SVGID_7_);}
	.st10{fill:#E2E2E2;}
	.st11{fill:url(#SVGID_8_);}
	.st12{fill:url(#SVGID_9_);}
	.st13{fill:url(#SVGID_10_);}
	.st14{fill:none;}
	.st15{fill:url(#SVGID_11_);}
	.st16{fill:url(#SVGID_12_);}
	.st17{fill:url(#SVGID_13_);}
	.st18{fill:url(#SVGID_14_);}
	.st19{fill:url(#SVGID_15_);}
	.st20{fill:none;stroke:#FFFFFF;stroke-linecap:round;stroke-miterlimit:10;}
	.st21{fill:none;stroke:#454545;stroke-linecap:round;stroke-miterlimit:10;}
	.st22{fill:url(#SVGID_16_);}
</style>
<g>
	<path class="st0" d="M471.1,183.9L471.1,183.9c3.3-3.5,9.2-2.2,10.6,2.4l0,0.2c2.8,8.9,0.6,18.7-5.8,25.6l0,0
		c-3.3,3.5-9.2,2.2-10.6-2.4l0-0.2C462.5,200.5,464.7,190.8,471.1,183.9z"/>
	<linearGradient id="SVGID_1_" gradientUnits="userSpaceOnUse" x1="222.1411" y1="356.0447" x2="278.8414" y2="450.4099">
		<stop  offset="0" style="stop-color:#454545;stop-opacity:0"/>
		<stop  offset="1" style="stop-color:#454545"/>
	</linearGradient>
	<polygon class="st1" points="10.3,483.3 369,271.3 490.7,323.1 120.6,542.2 	"/>
	<g>
		<g>
			<path class="st2" d="M121.8,224.7L478,20.4c2.3-1.3,11.3,6.3,11.3,9l-6.9,278.8c0,8.2-4.4,15.7-11.5,19.8L119.3,539.3
				c-2.8,1.6-10-6-10-9.3l0.9-285.5C110.2,236.4,114.6,228.8,121.8,224.7z"/>
			<path class="st3" d="M127.8,230.7L484,26.4c2.3-1.3,5.3,0.4,5.3,3.1l-0.9,284.7c0,8.2-4.4,15.7-11.5,19.8L121.5,539.7
				c-2.8,1.6-6.3-0.4-6.3-3.6l0.9-285.5C116.2,242.4,120.6,234.8,127.8,230.7z"/>
			<g>
				<g>
					<defs>
						<polygon id="SVGID_2_" points="475.2,289.9 130.3,489.1 130.3,276.5 475.2,77.3 						"/>
					</defs>
					<clipPath id="SVGID_3_">
						<use xlink:href="#SVGID_2_"  style="overflow:visible;"/>
					</clipPath>
				</g>
			</g>
		</g>
	</g>
	<path class="st4" d="M133,247.6v265.8c0,2.1,2.2,3.4,4,2.3l319.6-185.9c0.8-0.5,1.3-1.4,1.3-2.3V65.6c0-2.1-2.2-3.4-4-2.3
		L134.4,245.2C133.5,245.7,133,246.6,133,247.6z"/>
	<g>
		<polygon class="st5" points="137.1,287 137.1,484.9 455,299 455,104.1 		"/>
		
			<linearGradient id="SVGID_4_" gradientUnits="userSpaceOnUse" x1="1433.8472" y1="264.8533" x2="1444.3265" y2="264.8533" gradientTransform="matrix(-1 0 0 1 1684.3459 0)">
			<stop  offset="0" style="stop-color:#7063F1"/>
			<stop  offset="1" style="stop-color:#3A79F3"/>
		</linearGradient>
		<path class="st6" d="M250.5,261.6L250.5,261.6c0,3.9-2,7.4-5.3,9.3l-0.1,0c-2.3,1.3-5.1-0.3-5.1-2.9V268c0-3.9,2.1-7.4,5.4-9.3h0
			C247.7,257.4,250.5,259,250.5,261.6z"/>
		
			<linearGradient id="SVGID_5_" gradientUnits="userSpaceOnUse" x1="1457.355" y1="278.2941" x2="1467.8344" y2="278.2941" gradientTransform="matrix(-1 0 0 1 1684.3459 0)">
			<stop  offset="0" style="stop-color:#7063F1"/>
			<stop  offset="1" style="stop-color:#3A79F3"/>
		</linearGradient>
		<path class="st7" d="M227,275.1L227,275.1c0,3.9-2,7.4-5.3,9.3l-0.1,0c-2.3,1.3-5.1-0.3-5.1-2.9v-0.1c0-3.9,2.1-7.4,5.4-9.3l0,0
			C224.2,270.9,227,272.5,227,275.1z"/>
		
			<linearGradient id="SVGID_6_" gradientUnits="userSpaceOnUse" x1="1445.3599" y1="272.2965" x2="1455.8392" y2="272.2965" gradientTransform="matrix(-1 0 0 1 1684.3459 0)">
			<stop  offset="0" style="stop-color:#7063F1"/>
			<stop  offset="1" style="stop-color:#3A79F3"/>
		</linearGradient>
		<path class="st8" d="M239,269.1L239,269.1c0,3.9-2,7.4-5.3,9.3l-0.1,0c-2.3,1.3-5.1-0.3-5.1-2.9v-0.1c0-3.9,2.1-7.4,5.4-9.3h0
			C236.2,264.9,239,266.5,239,269.1z"/>
		
			<linearGradient id="SVGID_7_" gradientUnits="userSpaceOnUse" x1="1468.9673" y1="285.0145" x2="1479.4467" y2="285.0145" gradientTransform="matrix(-1 0 0 1 1684.3459 0)">
			<stop  offset="0" style="stop-color:#7063F1"/>
			<stop  offset="1" style="stop-color:#3A79F3"/>
		</linearGradient>
		<path class="st9" d="M215.4,281.8L215.4,281.8c0,3.9-2,7.4-5.3,9.3l-0.1,0c-2.3,1.3-5.1-0.3-5.1-2.9v-0.1c0-3.9,2.1-7.4,5.4-9.3h0
			C212.6,277.6,215.4,279.2,215.4,281.8z"/>
		<path class="st10" d="M203.9,288.5L203.9,288.5c0,3.9-2,7.4-5.3,9.3l-0.1,0c-2.3,1.3-5.1-0.3-5.1-2.9v-0.1c0-3.9,2.1-7.4,5.4-9.3
			h0C201.1,284.3,203.9,285.9,203.9,288.5z"/>
		<g>
			<path class="st10" d="M385.2,165.2L385.2,165.2c7.4-4.2,16.5,1.1,16.5,9.6v0.2c0,6.6-1.8,12.8-5.1,18.2
				c-1.3-4.7-4.1-10.4-10.2-7.8c-8.9,3.8-12.4,11.2-11.5,20.9c-4.2-1.4-7.5-5.4-7.5-10.5v-0.2C367.4,183.1,374.2,171.4,385.2,165.2z
				"/>
			<path class="st10" d="M386.4,185.5c6.1-2.6,8.9,3.1,10.2,7.8c-3,4.9-7.2,9.1-12.3,12.1l-0.2,0.1c-3,1.7-6.2,1.9-9.1,0.9
				C374,196.6,377.5,189.3,386.4,185.5z"/>
			
				<linearGradient id="SVGID_8_" gradientUnits="userSpaceOnUse" x1="1286.8274" y1="195.8924" x2="1309.5662" y2="195.8924" gradientTransform="matrix(-1 0 0 1 1684.3459 0)">
				<stop  offset="0" style="stop-color:#7063F1"/>
				<stop  offset="1" style="stop-color:#3A79F3"/>
			</linearGradient>
			<path class="st11" d="M386.4,185.5c6.1-2.6,8.9,3.1,10.2,7.8c-3,4.9-7.2,9.1-12.3,12.1l-0.2,0.1c-3,1.7-6.2,1.9-9.1,0.9
				C374,196.6,377.5,189.3,386.4,185.5z"/>
		</g>
		
			<linearGradient id="SVGID_9_" gradientUnits="userSpaceOnUse" x1="1282.6572" y1="297.3637" x2="1402.2045" y2="297.3637" gradientTransform="matrix(-1 0 0 1 1684.3459 0)">
			<stop  offset="0" style="stop-color:#7063F1"/>
			<stop  offset="1" style="stop-color:#3A79F3"/>
		</linearGradient>
		<polygon class="st12" points="401.7,282.8 401.7,242.9 282.1,311.5 282.1,351.8 		"/>
		<polygon class="st5" points="401.7,240.6 401.7,203.5 282.1,272.1 282.1,309.6 		"/>
		<g>
			<g>
				<path class="st5" d="M264.5,380.5L199,418.1c-1.4,0.8-3-0.2-3-1.8v-76.6l69.5-40.2v79.3C265.5,379.5,265.1,380.2,264.5,380.5z"
					/>
			</g>
			
				<linearGradient id="SVGID_10_" gradientUnits="userSpaceOnUse" x1="1418.3938" y1="319.954" x2="1488.8248" y2="319.954" gradientTransform="matrix(-1 0 0 1 1684.3459 0)">
				<stop  offset="0" style="stop-color:#E99854"/>
				<stop  offset="1" style="stop-color:#E16364"/>
			</linearGradient>
			<polygon class="st13" points="266,319.7 266,279.9 195.5,319.7 195.5,360 			"/>
			<g>
				<g>
					<g>
						<path class="st3" d="M230.7,381.2l18.3-9.3l5.7-12c0.5-1,0.3-2.3-0.4-3.2c-0.8-0.9-2-1.2-3.1-0.9c-2.2,0.7-10,1.8-20.5-1.2
							l0.3,4.6c8.2,2.3,14.3,2.3,18.2,1.7l-3.6,7.6l-15,7.7L230.7,381.2z"/>
					</g>
				</g>
				<g>
					<line class="st5" x1="258.1" y1="404.1" x2="247.8" y2="382.1"/>
					<rect x="252.4" y="380.9" transform="matrix(0.9063 -0.4226 0.4226 0.9063 -142.4003 143.6998)" width="1.1" height="24.3"/>
				</g>
				<g>
					<line class="st5" x1="240" y1="396.5" x2="257" y2="406.8"/>
					<rect x="248" y="391.8" transform="matrix(0.517 -0.856 0.856 0.517 -223.7811 406.7127)" width="1.1" height="19.8"/>
				</g>
				<g>
					<line class="st5" x1="258.1" y1="437.1" x2="260.3" y2="415.8"/>
					<rect x="248.5" y="426" transform="matrix(0.107 -0.9943 0.9943 0.107 -192.5777 638.5525)" width="21.4" height="1.1"/>
				</g>
				<g>
					<line class="st5" x1="244.8" y1="420.7" x2="257.7" y2="412.4"/>
					<rect x="243.6" y="416" transform="matrix(0.8408 -0.5413 0.5413 0.8408 -185.5119 202.3319)" width="15.3" height="1.1"/>
				</g>
				<g>
					<path class="st14" d="M252,361.3c-0.2-0.7,0.2-1.5,0.9-1.7c0.5-0.2,1,0,1.2,0.1c0.2,0.1,0.6,0.4,0.7,1l3,13.3
						c-0.9-0.1-1.9-0.1-2.8,0L252,361.3z"/>
					<path class="st14" d="M263.8,403.3l-0.1-0.1c-0.6-0.5-1.2-0.8-1.9-0.9l-5.4-22.8c0.8,0,1.6,0,2.4,0.2c0.1,0,0.3,0.1,0.4,0.1
						l5.4,24.3C264.3,403.8,264,403.5,263.8,403.3z"/>
					<path class="st3" d="M258.3,413.2c-0.1,0-0.3-0.1-0.4-0.1c-0.6-1.1-0.9-2.3-1.1-3.5c0.3-0.4,0.7-0.7,1.1-0.9l0.6-0.2l0.8,3.5
						c0.1,0.3,0.2,0.6,0.4,0.9l-0.4,0.1C259,413.2,258.6,413.2,258.3,413.2z"/>
					<path class="st3" d="M256.7,409.6c-0.2-1.2-0.2-2.5,0-3.8l0,0c0.1-0.7,0.4-1.3,0.7-1.8l1.1,4.5l-0.6,0.2
						C257.4,408.9,257,409.2,256.7,409.6z"/>
					<path class="st3" d="M263.8,403.3c0.3,0.2,0.5,0.5,0.8,0.7c0.6,0.6,1.1,1.2,1.5,1.8c0.9,1.3,1.5,2.7,1.8,4.2
						c0.1,0.4,0.1,0.8,0.2,1.2c0.1,1,0.1,2-0.1,3l0,0c-0.5,3.2-4.3,4.7-6.9,2.7l0,0c-1.4-1.1-2.4-2.4-3.2-3.9c0.1,0,0.3,0.1,0.4,0.1
						c0.4,0.1,0.7,0,1.1-0.1l0.4-0.1c0.4,0.5,0.9,0.8,1.5,0.9c0.3,0,0.6,0,0.9,0c1.1-0.3,1.8-1.2,1.8-2.3c0-0.2,0-0.3-0.1-0.5l-1-4
						l-1.1-4.7c0.7,0.1,1.3,0.4,1.9,0.9L263.8,403.3z"/>
					
						<linearGradient id="SVGID_11_" gradientUnits="userSpaceOnUse" x1="1354.9048" y1="459.4395" x2="1384.9818" y2="459.4395" gradientTransform="matrix(-0.9883 -0.1528 -0.1528 0.9883 1685.7706 121.5014)">
						<stop  offset="0" style="stop-color:#E99854"/>
						<stop  offset="1" style="stop-color:#E16364"/>
					</linearGradient>
					<path class="st15" d="M257.8,373.9l-3-13.3c-0.1-0.6-0.5-0.8-0.7-1c-0.2-0.1-0.6-0.3-1.2-0.1c-0.7,0.2-1.1,1-0.9,1.7l3,12.6
						c-1.5,0.1-3,0.4-4.5,0.8l-2.9-12.4c-0.7-3,1-6.1,3.9-7.1c1.6-0.6,3.4-0.4,4.9,0.4c1.5,0.8,2.6,2.3,2.9,4l3.4,15.2
						C261.1,374.3,259.5,374,257.8,373.9z"/>
					
						<linearGradient id="SVGID_12_" gradientUnits="userSpaceOnUse" x1="1354.9048" y1="488.0355" x2="1384.9818" y2="488.0355" gradientTransform="matrix(-0.9883 -0.1528 -0.1528 0.9883 1685.7706 121.5014)">
						<stop  offset="0" style="stop-color:#E99854"/>
						<stop  offset="1" style="stop-color:#E16364"/>
					</linearGradient>
					<path class="st16" d="M270.3,408.5c0.1,0.2,0.1,0.5,0,0.7c-0.1,1-0.8,1.8-1.8,2c-0.2,0-0.3,0.1-0.5,0.1c0-0.4-0.1-0.8-0.2-1.2
						c-0.3-1.5-0.9-3-1.8-4.2c-0.4-0.6-0.9-1.3-1.5-1.8l-5.4-24.3c1.8,0.3,3.5,1,5.1,2l5.2,23.2L270.3,408.5z"/>
					
						<linearGradient id="SVGID_13_" gradientUnits="userSpaceOnUse" x1="1354.9048" y1="489.9072" x2="1384.9818" y2="489.9072" gradientTransform="matrix(-0.9883 -0.1528 -0.1528 0.9883 1685.7706 121.5014)">
						<stop  offset="0" style="stop-color:#E99854"/>
						<stop  offset="1" style="stop-color:#E16364"/>
					</linearGradient>
					<path class="st17" d="M261.7,402.3l1.1,4.7l1,4c0,0.2,0.1,0.3,0.1,0.5c0,1.1-0.7,2-1.8,2.3c-0.3,0.1-0.6,0.1-0.9,0
						c-0.6-0.1-1.1-0.4-1.5-0.9c-0.2-0.3-0.3-0.5-0.4-0.9l-0.8-3.5l-1.1-4.5l-5.6-23.8c1.5-0.5,3-0.7,4.5-0.7L261.7,402.3z"/>
					<path class="st3" d="M259.1,379.7l-1.3-5.9c1.7,0.1,3.3,0.4,4.9,0.9l1.5,6.9C262.7,380.7,260.9,380.1,259.1,379.7z"/>
					<path d="M235.7,391.8l0-0.1c1.2-7.5,6.1-13.7,13.3-16.4c0.5-0.2,1-0.4,1.5-0.5l1.3,5.5c-0.3,0.1-0.6,0.2-0.8,0.3
						c-5.2,2-8.8,6.5-9.7,12l0,0.1c-2.6,16.9,4.1,34,17.5,44.7c4.3,3.4,10,4.3,15.1,2.3c5.1-2,8.7-6.5,9.5-11.9l0-0.1
						c2.6-16.5-3.9-33.4-16.7-44.1l-0.5-0.4c-0.6-0.5-1.2-0.9-1.9-1.3c-1.6-1-3.3-1.6-5.1-2c-0.1,0-0.3-0.1-0.4-0.1
						c-0.8-0.1-1.6-0.2-2.4-0.2l-1.3-5.6c0.9-0.1,1.9-0.1,2.8,0c1.7,0.1,3.3,0.4,4.9,0.9c2.5,0.8,4.9,2.1,7,3.9l0.5,0.4
						c7.1,5.9,12.6,13.5,15.9,22.2c3.3,8.6,4.3,18,2.8,27.1l0,0.1c-1.2,7.5-6,13.6-13.1,16.3c-3.5,1.4-7.3,1.8-10.8,1.2
						c-3.5-0.5-6.9-2-9.8-4.3C240.2,429.8,232.7,410.7,235.7,391.8z"/>
					
						<linearGradient id="SVGID_14_" gradientUnits="userSpaceOnUse" x1="1354.9048" y1="471.3619" x2="1384.9818" y2="471.3619" gradientTransform="matrix(-0.9883 -0.1528 -0.1528 0.9883 1685.7706 121.5014)">
						<stop  offset="0" style="stop-color:#E99854"/>
						<stop  offset="1" style="stop-color:#E16364"/>
					</linearGradient>
					<path class="st18" d="M256.3,379.5c-1.5,0-3,0.2-4.5,0.7l-1.3-5.5c1.5-0.4,3-0.7,4.5-0.8L256.3,379.5z"/>
				</g>
				<g>
					<path class="st3" d="M259.6,343.9c0.2,0,0.4-0.1,0.5-0.2l0.8-0.4c1.9-0.9,2.9-2.9,2.7-5l-0.4-3.1c-0.2-1.3-1.3-2.1-2.6-2
						c-1.3,0.2-2.1,1.3-2,2.6l0.4,3.1c0,0.1,0,0.2-0.2,0.3l-0.8,0.4c-1.1,0.6-1.6,1.9-1,3.1C257.5,343.6,258.6,344.1,259.6,343.9z"
						/>
				</g>
				<g>
					
						<linearGradient id="SVGID_15_" gradientUnits="userSpaceOnUse" x1="1434.1722" y1="281.9075" x2="1455.3595" y2="281.9075" gradientTransform="matrix(-0.9983 5.819304e-02 5.819304e-02 0.9983 1676.3345 -20.9032)">
						<stop  offset="0" style="stop-color:#E99854"/>
						<stop  offset="1" style="stop-color:#E16364"/>
					</linearGradient>
					<path class="st19" d="M242.4,349.7c0.2,0,0.4-0.1,0.6-0.1l16.3-5.5c1.2-0.4,1.8-1.7,1.4-2.9c-0.4-1.2-1.7-1.8-2.9-1.4
						l-16.3,5.5c-1.2,0.4-1.8,1.7-1.4,2.9C240.4,349.1,241.4,349.7,242.4,349.7z"/>
				</g>
				<g>
					<path class="st3" d="M251,360.1l-2.4-14.2c-0.3-0.3-0.5-0.8-0.6-1.3c-0.2-1.3,0.7-2.4,1.9-2.6c2.9-0.4,4.4,0.8,4.9,2.2
						c0.2,0.7,0.5,2.2-1.2,3.8l1.9,11.4c0.2,1.2-0.6,2.4-1.9,2.6c-0.1,0-0.3,0-0.4,0C252.2,362,251.2,361.2,251,360.1z M250.6,344.5
						L250.6,344.5L250.6,344.5z"/>
				</g>
				<g>
					<path class="st3" d="M242.6,349.5c0.2,0,0.4-0.1,0.5-0.2l0.8-0.4c1.9-0.9,2.9-2.9,2.7-5l-0.4-3.1c-0.2-1.3-1.3-2.1-2.6-2
						c-1.3,0.2-2.1,1.3-2,2.6l0.4,3.1c0,0.1,0,0.2-0.2,0.3l-0.8,0.4c-1.1,0.6-1.6,1.9-1,3.1C240.5,349.2,241.6,349.7,242.6,349.5z"
						/>
				</g>
				<path class="st3" d="M265.6,406.3"/>
				<g>
					<path d="M266,407.5c0.1,0,0.2,0,0.3-0.1l12.8-8.2l-0.5-1l-12.9,8.3c-0.2,0.2-0.3,0.5-0.2,0.7
						C265.7,407.4,265.8,407.5,266,407.5z"/>
				</g>
				<g>
					<line class="st5" x1="275" y1="439" x2="264.8" y2="417"/>
					<path d="M275.5,438.8l-10.3-22c-0.1-0.3-0.4-0.4-0.7-0.3c-0.3,0.1-0.4,0.4-0.3,0.7l10.3,22L275.5,438.8z"/>
				</g>
				<g>
					<path d="M263.3,404.1c0.3,0,0.5-0.2,0.5-0.5l2.5-20.7l-1.2-0.7l-2.3,21.3C262.8,403.8,263,404.1,263.3,404.1
						C263.3,404.1,263.3,404.1,263.3,404.1z"/>
				</g>
				<g>
					<path d="M284,422.1l-16.5-9.8c-0.2-0.2-0.6-0.1-0.7,0.2c-0.2,0.3-0.1,0.6,0.2,0.7l16.9,10.2L284,422.1z"/>
				</g>
			</g>
		</g>
		<line class="st20" x1="210.1" y1="331.5" x2="252.9" y2="308"/>
		<line class="st20" x1="324.1" y1="307.5" x2="366.9" y2="284"/>
		<line class="st21" x1="312.1" y1="223.5" x2="354.9" y2="200"/>
	</g>
	
		<linearGradient id="SVGID_16_" gradientUnits="userSpaceOnUse" x1="1294.5337" y1="177.3118" x2="1304.5109" y2="177.3118" gradientTransform="matrix(-1 0 0 1 1684.3459 0)">
		<stop  offset="0" style="stop-color:#7063F1"/>
		<stop  offset="1" style="stop-color:#3A79F3"/>
	</linearGradient>
	<path class="st22" d="M389.8,174.2L389.8,174.2c0,3.7-1.9,7.1-5.1,8.9l-0.1,0c-2.1,1.2-4.8-0.3-4.8-2.8v-0.1c0-3.7,2-7.1,5.2-8.9h0
		C387.2,170.2,389.8,171.8,389.8,174.2z"/>
</g>
</svg>
