<?xml version="1.0" encoding="utf-8"?>
<!-- Generator: Adobe Illustrator 23.0.1, SVG Export Plug-In . SVG Version: 6.00 Build 0)  -->
<svg version="1.1" id="Capa_1" xmlns="http://www.w3.org/2000/svg" xmlns:xlink="http://www.w3.org/1999/xlink" x="0px" y="0px"
	 viewBox="0 0 20 20" style="enable-background:new 0 0 20 20;" xml:space="preserve">
<style type="text/css">
	.st0{fill:#464646;}
</style>
<g>
	<path class="st0" d="M19.5,20h-19C0.2,20,0,19.8,0,19.5v-19C0,0.2,0.2,0,0.5,0h19C19.8,0,20,0.2,20,0.5v19C20,19.8,19.8,20,19.5,20
		z M1,19h18V1H1V19z"/>
</g>
<g>
	<path class="st0" d="M1,13.5c-0.1,0-0.3,0-0.4-0.1c-0.2-0.2-0.2-0.5,0-0.7l4.5-4.5C5.3,8,5.6,8,5.8,8.1l4.8,3.2l4-2.1
		c0.1-0.1,0.3-0.1,0.5,0l4.2,2.3c0.2,0.1,0.3,0.4,0.2,0.7s-0.4,0.3-0.7,0.2l-4-2.1l-4,2.1c-0.2,0.1-0.4,0.1-0.5,0L5.6,9.1l-4.2,4.2
		C1.3,13.5,1.1,13.5,1,13.5z"/>
</g>
</svg>
