<?xml version="1.0" encoding="utf-8"?>
<!-- Generator: Adobe Illustrator 23.0.1, SVG Export Plug-In . SVG Version: 6.00 Build 0)  -->
<svg version="1.1" id="Capa_1" xmlns="http://www.w3.org/2000/svg" xmlns:xlink="http://www.w3.org/1999/xlink" x="0px" y="0px"
	 viewBox="0 0 512 512" style="enable-background:new 0 0 512 512;" xml:space="preserve">
<style type="text/css">
	.st0{fill:#7063F3;}
</style>
<g>
	<g>
		<path class="st0" d="M84.2,65.8c-5-5-13.1-5-18.2-0.1c-5.1,5-5.1,13.1-0.1,18.2l30.7,30.9c2.4,2.4,5.7,3.8,9.1,3.8l0,0
			c3.4,0,6.6-1.4,9-3.8l93.3-92.8c5-5,5-13.1,0.1-18.2c-5-5-13.1-5-18.2,0l-28.2,28c-15-15.5-35.9-24.5-57.8-24.5
			c-44.4,0-80.5,36.1-80.5,80.5s36.1,80.5,80.5,80.5c35.8,0,66.8-23,77.2-57.2c2.1-6.8-1.8-14-8.6-16.1c-6.8-2-14,1.8-16.1,8.6
			c-6.9,22.9-28.6,38.9-52.5,38.9c-30.2,0-54.8-24.6-54.8-54.8s24.6-54.8,54.8-54.8c15,0,29.3,6.3,39.6,17l-37.7,37.5L84.2,65.8z"/>
		<path class="st0" d="M103.9,179.1c-44.4,0-80.5,36.1-80.5,80.5s36.1,80.5,80.5,80.5s80.5-36.1,80.5-80.5S148.3,179.1,103.9,179.1z
			 M103.9,314.4c-30.2,0-54.8-24.6-54.8-54.8s24.6-54.8,54.8-54.8s54.8,24.6,54.8,54.8S134.2,314.4,103.9,314.4z"/>
		<path class="st0" d="M184.5,431.5c0-44.4-36.1-80.5-80.5-80.5s-80.5,36.1-80.5,80.5S59.5,512,103.9,512S184.5,475.9,184.5,431.5z
			 M103.9,486.4c-30.2,0-54.8-24.6-54.8-54.8c0-30.2,24.6-54.8,54.8-54.8s54.8,24.6,54.8,54.8C158.7,461.8,134.2,486.4,103.9,486.4z
			"/>
		<path class="st0" d="M475.7,246.7H225.5c-7.1,0-12.9,5.8-12.9,12.9c0,7.1,5.8,12.9,12.9,12.9h250.2c7.1,0,12.9-5.8,12.9-12.9
			C488.6,252.5,482.8,246.7,475.7,246.7z"/>
		<path class="st0" d="M475.7,75.1H225.5c-7.1,0-12.9,5.8-12.9,12.9s5.8,12.9,12.9,12.9h250.2c7.1,0,12.9-5.8,12.9-12.9
			S482.8,75.1,475.7,75.1z"/>
		<path class="st0" d="M475.7,418.7H225.5c-7.1,0-12.9,5.8-12.9,12.9s5.8,12.9,12.9,12.9h250.2c7.1,0,12.9-5.8,12.9-12.9
			C488.6,424.3,482.8,418.7,475.7,418.7z"/>
	</g>
</g>
</svg>
