<?xml version="1.0" encoding="utf-8"?>
<!-- Generator: Adobe Illustrator 23.0.1, SVG Export Plug-In . SVG Version: 6.00 Build 0)  -->
<svg version="1.1" id="Capa_1" xmlns="http://www.w3.org/2000/svg" xmlns:xlink="http://www.w3.org/1999/xlink" x="0px" y="0px"
	 viewBox="0 0 19.1 27" style="enable-background:new 0 0 19.1 27;" xml:space="preserve">
<style type="text/css">
	.st0{fill:#464646;}
</style>
<g>
	<g>
		<path class="st0" d="M13.5,27h-13C0.2,27,0,26.8,0,26.5V5.6c0-0.3,0.2-0.5,0.5-0.5h13c0.3,0,0.5,0.2,0.5,0.5v20.9
			C14,26.8,13.8,27,13.5,27z M1,26h12V6.1H1V26z"/>
	</g>
	<g>
		<path class="st0" d="M15.7,24.1c-0.3,0-0.5-0.2-0.5-0.5V3.9H4.1c-0.3,0-0.5-0.2-0.5-0.5s0.2-0.5,0.5-0.5h11.6
			c0.3,0,0.5,0.2,0.5,0.5v20.2C16.2,23.9,15.9,24.1,15.7,24.1z"/>
	</g>
	<g>
		<path class="st0" d="M18.6,21.2c-0.3,0-0.5-0.2-0.5-0.5V1H7C6.7,1,6.5,0.8,6.5,0.5S6.7,0,7,0h11.6c0.3,0,0.5,0.2,0.5,0.5v20.2
			C19.1,21,18.8,21.2,18.6,21.2z"/>
	</g>
</g>
</svg>
