<?xml version="1.0" encoding="utf-8"?>
<!-- Generator: Adobe Illustrator 22.1.0, SVG Export Plug-In . SVG Version: 6.00 Build 0)  -->
<svg version="1.1" id="Capa_1" xmlns="http://www.w3.org/2000/svg" xmlns:xlink="http://www.w3.org/1999/xlink" x="0px" y="0px"
	 viewBox="0 0 716.6 486.6" style="enable-background:new 0 0 716.6 486.6;" xml:space="preserve">
<style type="text/css">
	.st0{fill:#D8D8D8;}
	.st1{opacity:0.2;fill:url(#SVGID_1_);}
	.st2{fill:url(#SVGID_2_);}
	.st3{fill:#F6F6F6;}
	.st4{opacity:0.15;fill:url(#SVGID_3_);}
	.st5{clip-path:url(#SVGID_5_);}
	.st6{fill:url(#SVGID_6_);}
	.st7{fill:url(#SVGID_7_);}
	.st8{enable-background:new    ;}
	.st9{clip-path:url(#SVGID_9_);}
	.st10{fill:#FFFFFF;}
	.st11{clip-path:url(#SVGID_11_);}
	.st12{clip-path:url(#SVGID_13_);}
	.st13{clip-path:url(#SVGID_15_);}
</style>
<g>
	<path class="st0" d="M37.6,160.1H109l160.1-92.3c6.7-3.9,15-3.9,21.7,0l160.3,92.3h73.5v54.6h-0.6c0,7.3-3.7,14.6-10.9,18.8
		l-222.3,127c-6.7,3.8-15,3.8-21.7-0.1L48.7,232.4c-6.8-4-10.4-10.8-10.8-17.7h-0.3V160.1z"/>
	
		<linearGradient id="SVGID_1_" gradientUnits="userSpaceOnUse" x1="-1864.4517" y1="192.6655" x2="-2352.4888" y2="235.3633" gradientTransform="matrix(-1 0 0 1 -1829.666 0)">
		<stop  offset="0" style="stop-color:#454545"/>
		<stop  offset="0.1413" style="stop-color:#454545;stop-opacity:0.8587"/>
		<stop  offset="1" style="stop-color:#454545;stop-opacity:0"/>
	</linearGradient>
	<path class="st1" d="M37.6,160.1H109l160.1-92.3c6.7-3.9,15-3.9,21.7,0l160.3,92.3h73.5v54.6h-0.6c0,7.3-3.7,14.6-10.9,18.8
		l-222.3,127c-6.7,3.8-15,3.8-21.7-0.1L48.7,232.4c-6.8-4-10.4-10.8-10.8-17.7h-0.3V160.1z"/>
	<g>
		<linearGradient id="SVGID_2_" gradientUnits="userSpaceOnUse" x1="164.0261" y1="277.6291" x2="397.9483" y2="43.7069">
			<stop  offset="0" style="stop-color:#FFA04E"/>
			<stop  offset="1" style="stop-color:#FF6567"/>
		</linearGradient>
		<path class="st2" d="M280,297.5c-1.6,0-3.2-0.4-4.6-1.2L55,168.1c-4.2-2.4-4.6-6.4-4.6-8c0-1.6,0.5-5.6,4.6-8l220.3-127
			c1.4-0.8,3-1.2,4.6-1.2c1.6,0,3.2,0.4,4.6,1.2L507,153.2c4.2,2.4,4.6,6.4,4.6,8s-0.5,5.6-4.6,8l-222.3,127
			C283.2,297,281.6,297.5,280,297.5C280,297.5,280,297.5,280,297.5z"/>
		<path class="st3" d="M281.6,35.9L281.6,35.9L281.6,35.9 M280,36.9l215.8,124.3L280,284.4L66.2,160.2L280,36.9 M280,11.4
			c-3.7,0-7.5,1-10.9,2.9l-220.3,127c-14.5,8.3-14.5,29.2-0.1,37.6L269.1,307c3.4,2,7.1,2.9,10.9,2.9c3.7,0,7.4-1,10.8-2.9
			l222.3-127c14.6-8.3,14.6-29.3,0.1-37.7L290.8,14.3C287.4,12.4,283.7,11.4,280,11.4L280,11.4z"/>
	</g>
	
		<linearGradient id="SVGID_3_" gradientUnits="userSpaceOnUse" x1="-2271.304" y1="238.3981" x2="-2394.4063" y2="443.2747" gradientTransform="matrix(-1 0 0 1 -1829.666 0)">
		<stop  offset="0" style="stop-color:#454545"/>
		<stop  offset="1" style="stop-color:#454545;stop-opacity:0"/>
	</linearGradient>
	<polygon class="st4" points="499.3,238.1 299.2,324 301.7,358.1 503.5,476.8 720.4,349.7 	"/>
	<g>
		<defs>
			<polygon id="SVGID_4_" points="236.3,359.6 300.4,334.6 300.4,322.8 590.3,155.3 769.6,257.4 667.5,350.1 473.9,466.5 			"/>
		</defs>
		<clipPath id="SVGID_5_">
			<use xlink:href="#SVGID_4_"  style="overflow:visible;"/>
		</clipPath>
		<g class="st5">
			
				<linearGradient id="SVGID_6_" gradientUnits="userSpaceOnUse" x1="-2508.7334" y1="288.6737" x2="-1910.1787" y2="288.6737" gradientTransform="matrix(-1 2.116820e-03 2.116820e-03 1 -1829.9857 7.900301e-02)">
				<stop  offset="0" style="stop-color:#FF6567"/>
				<stop  offset="1" style="stop-color:#FFA04E"/>
			</linearGradient>
			<path class="st6" d="M395.1,139.7l284,153.4l0.1,10.1c0.6,2.6-0.6,5.3-2.9,6.7L474.7,426.8c-3.3,1.9-7.5,1.9-10.8,0L82.1,208.3
				c-0.9-0.5-1.5-1.5-1.5-2.6l0-11.9L395.1,139.7z"/>
			
				<linearGradient id="SVGID_7_" gradientUnits="userSpaceOnUse" x1="-2508.9387" y1="249.8181" x2="-1910.2961" y2="249.8181" gradientTransform="matrix(-1 2.116820e-03 2.116820e-03 1 -1829.9857 7.900301e-02)">
				<stop  offset="0" style="stop-color:#FFA04E"/>
				<stop  offset="1" style="stop-color:#FF6567"/>
			</linearGradient>
			<path class="st7" d="M284.2,75.9c5.9-3.4,13.1-3.4,19,0L676.4,289c4.2,2.4,4.2,8.4,0,10.8l-198.7,115c-5.3,3-11.8,3.1-17,0
				L82.1,196.2c-1.8-1-1.8-3.6,0-4.6L284.2,75.9z"/>
			<g>
				<g>
					<g class="st8">
						<defs>
							<polygon id="SVGID_8_" class="st8" points="256.4,170.5 273.6,160.5 560.3,326 543.1,336 							"/>
						</defs>
						<clipPath id="SVGID_9_">
							<use xlink:href="#SVGID_8_"  style="overflow:visible;"/>
						</clipPath>
						<g class="st9">
							<path class="st10" d="M286.4,168.3l-13.1-7.6l-2.5,1.5l9.3,5.3c-2.1,0.1-3.9,0.3-5.6,0.5c-1.7,0.2-3.3,0.6-4.9,1
								c-1.5,0.4-3,0.9-4.5,1.5c-1.4,0.6-3,1.3-4.5,2.1l3.6,2.1c1.7-0.9,3.3-1.7,4.7-2.3c1.5-0.6,3-1.2,4.5-1.6c1.6-0.4,3.2-0.8,5-1
								c1.8-0.2,3.9-0.3,6.2-0.4L286.4,168.3"/>
							<path class="st10" d="M281.5,182.3c-1-0.6-1.4-1.2-1.4-2c0-0.8,0.7-1.6,2-2.6c1.2-0.1,2.3,0,3.2,0.2c0.9,0.2,1.6,0.4,2.2,0.8
								c1,0.6,1.5,1.1,1.5,1.7c0,0.6-0.4,1.2-1.4,1.7c-1,0.6-2.1,0.9-3.2,0.9C283.3,183.1,282.3,182.8,281.5,182.3 M297.1,174
								c-1-0.6-2.1-1-3.4-1.4c-1.3-0.3-2.6-0.5-4.1-0.5c-1.4,0-2.9,0.2-4.5,0.7c-1.6,0.4-3.2,1.1-4.8,2c-1.4,0.8-2.4,1.6-3,2.4
								c-0.6,0.8-1,1.6-1,2.4c0,0.8,0.3,1.5,0.8,2.2c0.5,0.7,1.3,1.3,2.3,1.9c0.8,0.5,1.8,0.9,2.8,1.1c1,0.3,2,0.4,3,0.5
								c1,0,2,0,3-0.2c1-0.2,1.9-0.5,2.7-1c0.9-0.5,1.5-1,1.8-1.6c0.4-0.5,0.5-1.1,0.4-1.6c-0.1-0.5-0.4-1.1-0.9-1.6
								c-0.5-0.5-1.2-1-2-1.5c-0.7-0.4-1.6-0.7-2.8-1c-1.1-0.2-2.3-0.4-3.4-0.3c1.2-0.6,2.3-1.1,3.3-1.4c1-0.3,2-0.5,2.9-0.5
								c0.9,0,1.7,0,2.5,0.2c0.8,0.2,1.4,0.5,2.1,0.8c0.6,0.3,1.1,0.8,1.4,1.2c0.3,0.5,0.5,0.9,0.5,1.3l3.7,0
								c-0.1-0.6-0.4-1.3-0.8-2C299.1,175.4,298.3,174.7,297.1,174"/>
							<path class="st10" d="M296.7,191.3c-1-0.6-1.6-1.2-1.8-1.9c-0.2-0.7,0.1-1.3,1-1.8c0.6-0.4,1.4-0.6,2.3-0.7
								c0.9-0.1,1.9,0,2.9,0.1c0.4,0.5,0.8,1,1.2,1.4c0.4,0.5,0.6,0.9,0.8,1.3c0.2,0.4,0.2,0.7,0.1,1.1c-0.1,0.3-0.3,0.6-0.8,0.9
								c-0.8,0.5-1.7,0.6-2.7,0.5C298.6,192.2,297.6,191.8,296.7,191.3 M305.5,187.6c-0.4-0.4-0.7-0.8-1-1.2
								c-0.3-0.4-0.5-0.8-0.6-1.1c-0.1-0.3-0.1-0.7,0-1c0.1-0.3,0.4-0.6,0.8-0.8c0.7-0.4,1.6-0.6,2.5-0.5c0.9,0.1,1.7,0.3,2.5,0.8
								c0.9,0.5,1.4,1.1,1.4,1.7c0,0.6-0.3,1.1-1.1,1.5c-0.5,0.3-1.1,0.5-1.9,0.6C307.3,187.6,306.5,187.7,305.5,187.6 M311.8,182.6
								c-0.8-0.5-1.7-0.9-2.7-1.2c-0.9-0.3-1.9-0.5-2.8-0.6c-0.9-0.1-1.8-0.1-2.6,0.1c-0.8,0.1-1.6,0.4-2.3,0.8
								c-0.9,0.5-1.4,1.1-1.5,1.8c-0.1,0.7,0,1.4,0.3,2l-0.1,0.1c-0.7-0.2-1.4-0.3-2.1-0.3c-0.7-0.1-1.4-0.1-2.1-0.1
								c-0.7,0-1.3,0.1-2,0.2c-0.6,0.1-1.2,0.4-1.7,0.7c-0.7,0.4-1.1,0.9-1.3,1.4c-0.2,0.5-0.2,1.1,0,1.6c0.2,0.6,0.6,1.2,1.1,1.8
								c0.6,0.6,1.4,1.2,2.3,1.7c1,0.6,2,1,3,1.4c1,0.3,2.1,0.6,3,0.7c1,0.1,1.9,0.1,2.8-0.1c0.9-0.1,1.6-0.4,2.3-0.8
								c0.6-0.3,1-0.7,1.2-1c0.2-0.4,0.4-0.7,0.4-1.1c0-0.4,0-0.8-0.2-1.2c-0.1-0.4-0.3-0.8-0.6-1.2l0.1-0.1c0.5,0.1,1,0.1,1.6,0.1
								c0.6,0,1.2,0,1.7,0c0.6,0,1.1-0.1,1.6-0.3c0.5-0.1,1-0.3,1.4-0.6c0.7-0.4,1.1-0.8,1.4-1.3c0.3-0.5,0.4-1,0.3-1.5
								c-0.1-0.5-0.4-1-0.9-1.6C313.4,183.6,312.7,183.1,311.8,182.6"/>
							<path class="st10" d="M318.7,196.3c-1-0.6-1.5-1.2-1.5-1.8c0-0.6,0.4-1.2,1.4-1.8c1-0.6,2.1-0.9,3.2-0.9
								c1.1,0,2.1,0.3,2.9,0.7c0.9,0.5,1.4,1.2,1.4,2c0,0.8-0.6,1.6-1.9,2.6c-1.2,0.1-2.3,0.1-3.2-0.1
								C320,196.8,319.3,196.6,318.7,196.3 M326.9,191.3c-0.8-0.5-1.8-0.9-2.8-1.2c-1-0.3-2-0.5-3-0.5c-1,0-2,0-3,0.2
								c-1,0.2-1.9,0.5-2.7,1c-0.9,0.5-1.5,1-1.9,1.6c-0.4,0.5-0.5,1.1-0.4,1.6c0.1,0.5,0.4,1.1,0.8,1.6c0.5,0.5,1.2,1,2,1.5
								c0.7,0.4,1.6,0.8,2.8,1c1.1,0.3,2.3,0.4,3.4,0.4c-1.2,0.6-2.3,1.1-3.3,1.4c-1,0.3-2,0.5-2.9,0.5c-0.9,0-1.7,0-2.5-0.2
								c-0.8-0.2-1.4-0.5-2.1-0.8c-0.6-0.3-1.1-0.8-1.4-1.2c-0.3-0.5-0.5-0.9-0.5-1.3l-3.7,0c0.1,0.6,0.4,1.3,0.8,2
								c0.5,0.7,1.3,1.4,2.5,2.1c1,0.6,2.2,1,3.4,1.4c1.3,0.3,2.6,0.5,4.1,0.5s3-0.2,4.5-0.7c1.6-0.4,3.2-1.1,4.8-2
								c1.4-0.8,2.4-1.6,3-2.4c0.6-0.8,1-1.6,1-2.4c0-0.8-0.2-1.5-0.8-2.2C328.6,192.4,327.8,191.8,326.9,191.3"/>
							<path class="st10" d="M357.6,209.3l-2.6-1.5c-0.9-0.2-1.9-0.4-2.8-0.7c-0.9-0.3-2-0.7-3.1-1.1l-1.9,1.1l3.6,2.1l-10.9,6.3
								l-4.4-2.5l-2.4,1.4l11.8,6.8l2.4-1.4l-3.8-2.2L357.6,209.3"/>
							<path class="st10" d="M370.7,216.6c-1.4-0.8-2.7-1.3-4.1-1.6c-1.4-0.3-3-0.5-4.7-0.5l0.3,2.1c1,0,2,0.1,3,0.2
								c1,0.2,1.9,0.4,2.6,0.9c1,0.6,1.6,1.2,1.6,1.8c0,0.6-0.4,1.2-1.3,1.7c-0.6,0.4-1.5,0.6-2.6,0.8c-1.1,0.2-2.4,0.3-4,0.3
								c-1.6,0-3.4,0-5.4-0.1c-2-0.1-4.3-0.2-6.7-0.3l-1.7,1l13.2,7.6l2.6-1.5l-4.8-2.8c-0.5-0.3-1-0.6-1.7-0.9
								c-0.7-0.3-1.2-0.6-1.8-0.9c1.8,0.1,3.6,0.1,5.3,0.1c1.7,0,3.2,0,4.6-0.1c1.4-0.1,2.7-0.2,3.8-0.4c1.1-0.2,2.1-0.5,2.8-1
								c0.8-0.4,1.3-0.9,1.6-1.5c0.3-0.5,0.5-1.1,0.4-1.7c-0.1-0.6-0.4-1.1-0.9-1.7C372.4,217.7,371.6,217.1,370.7,216.6"/>
							<path class="st10" d="M386.5,225.7c-1.2-0.7-2.4-1.2-3.8-1.5c-1.3-0.3-2.7-0.6-4.2-0.7l0,2.1c1.1,0.1,2.1,0.2,3,0.4
								c0.9,0.2,1.8,0.5,2.5,1c0.9,0.5,1.4,1,1.5,1.6c0.1,0.5-0.2,1-0.9,1.4c-0.4,0.2-0.8,0.4-1.3,0.5c-0.5,0.1-1.1,0.1-1.7,0
								c-0.6-0.1-1.3-0.3-2.1-0.6c-0.8-0.3-1.6-0.7-2.6-1.3l-2.2,1.3c1.1,0.6,2,1.2,2.6,1.7c0.6,0.5,1,1,1.2,1.3
								c0.2,0.4,0.2,0.7,0,1.1c-0.2,0.3-0.5,0.6-0.9,0.8c-0.8,0.5-1.7,0.6-2.8,0.5c-1.1-0.1-2.2-0.5-3.3-1.1c-1-0.6-1.7-1.2-2.1-1.8
								c-0.4-0.6-0.6-1.3-0.7-1.9l-3.6,0.1c0,0.8,0.4,1.6,1,2.5c0.6,0.9,1.7,1.8,3.3,2.7c0.9,0.5,1.9,1,3,1.3c1,0.4,2.1,0.6,3.1,0.7
								c1,0.1,2,0.1,3,0c1-0.1,1.8-0.4,2.6-0.9c1.1-0.6,1.6-1.4,1.5-2.2c-0.1-0.8-0.6-1.7-1.5-2.5l0.1-0.1c1.4,0.4,2.7,0.6,4,0.6
								c1.2,0,2.3-0.3,3.3-0.8c0.7-0.4,1.2-0.9,1.4-1.3c0.2-0.5,0.3-1,0.1-1.5c-0.2-0.5-0.6-1.1-1.2-1.6
								C388.2,226.8,387.4,226.2,386.5,225.7"/>
							<path class="st10" d="M388.7,238.9l8.2-0.6c0.7-0.1,1.4-0.2,2.1-0.3c0.7-0.1,1.4-0.2,2-0.3l0.1,0.1c-0.5,0.3-1.1,0.6-1.8,0.9
								c-0.7,0.4-1.3,0.7-1.8,1l-3.8,2.2L388.7,238.9 M407.2,238l-4.2-2.4l-18,1.5l-2,1.2l8.6,5l-4.3,2.5l3.3,1.9l4.3-2.5l2.5,1.4
								l2.3-1.3l-2.5-1.4L407.2,238"/>
							<path class="st10" d="M436.1,254.7l-10.5-6l-8.8,4.4l0.8,1.5c0.9,0.2,1.7,0.3,2.3,0.5c0.6,0.2,1.2,0.4,1.8,0.8
								c1.1,0.6,1.7,1.3,1.8,2c0.1,0.7-0.3,1.3-1.3,1.9c-1,0.6-2.1,0.8-3.4,0.7c-1.3-0.1-2.5-0.4-3.6-1.1c-1-0.6-1.7-1.2-2-1.8
								c-0.4-0.6-0.6-1.3-0.8-1.9l-3.6,0.2c0.1,0.8,0.5,1.6,1.1,2.5c0.6,0.9,1.7,1.8,3.3,2.7c0.9,0.5,1.9,0.9,3,1.3
								c1.1,0.3,2.2,0.5,3.3,0.6c1.1,0.1,2.2,0,3.3-0.2c1.1-0.2,2.1-0.6,3-1.1c0.9-0.5,1.5-1.1,1.8-1.6c0.3-0.6,0.4-1.1,0.3-1.7
								c-0.1-0.6-0.5-1.1-1-1.7c-0.5-0.6-1.2-1.1-2.1-1.6c-0.5-0.3-1-0.5-1.5-0.7c-0.5-0.2-1-0.3-1.6-0.5l4.4-2.1l7.4,4.3
								L436.1,254.7"/>
							<path class="st10" d="M451.9,263.8l-10.5-6l-8.8,4.4l0.8,1.5c0.9,0.2,1.7,0.3,2.3,0.5c0.6,0.2,1.2,0.4,1.8,0.8
								c1.1,0.6,1.7,1.3,1.8,2c0.1,0.7-0.3,1.3-1.3,1.9c-1,0.6-2.1,0.8-3.4,0.7c-1.3-0.1-2.5-0.4-3.6-1.1c-1-0.6-1.7-1.2-2-1.8
								c-0.4-0.6-0.6-1.3-0.8-1.9l-3.6,0.2c0.1,0.8,0.5,1.6,1.1,2.5c0.6,0.9,1.7,1.8,3.3,2.7c0.9,0.5,1.9,0.9,3,1.3
								c1.1,0.3,2.2,0.5,3.3,0.6c1.1,0.1,2.2,0,3.3-0.2c1.1-0.2,2.1-0.6,3-1.1c0.9-0.5,1.5-1.1,1.8-1.6c0.3-0.6,0.4-1.1,0.3-1.7
								c-0.1-0.6-0.5-1.1-1-1.7c-0.5-0.6-1.2-1.1-2.1-1.6c-0.5-0.3-1-0.5-1.5-0.7c-0.5-0.2-1-0.3-1.6-0.5l4.4-2.1l7.4,4.3
								L451.9,263.8"/>
							<path class="st10" d="M448.4,273.3l8.2-0.6c0.7-0.1,1.4-0.2,2.1-0.3c0.7-0.1,1.4-0.2,2-0.3l0.1,0.1c-0.5,0.3-1.1,0.6-1.8,0.9
								c-0.7,0.4-1.3,0.7-1.8,1l-3.8,2.2L448.4,273.3 M466.8,272.4l-4.2-2.4l-18,1.5l-2,1.2l8.6,5l-4.3,2.5l3.3,1.9l4.3-2.5l2.5,1.4
								l2.3-1.3l-2.5-1.4L466.8,272.4"/>
							<path class="st10" d="M464.2,282.4l8.2-0.6c0.7-0.1,1.4-0.2,2.1-0.3c0.7-0.1,1.4-0.2,2-0.3l0.1,0.1c-0.5,0.3-1.1,0.6-1.8,0.9
								c-0.7,0.4-1.3,0.7-1.8,1l-3.8,2.2L464.2,282.4 M482.6,281.5l-4.2-2.4l-18,1.5l-2,1.2l8.6,5l-4.3,2.5l3.3,1.9l4.3-2.5l2.5,1.4
								l2.3-1.3l-2.5-1.4L482.6,281.5"/>
							<path class="st10" d="M492,303.8c-1-0.6-1.4-1.2-1.4-2c0-0.8,0.7-1.6,2-2.6c1.3-0.1,2.3,0,3.2,0.2c0.9,0.2,1.6,0.4,2.2,0.8
								c1,0.6,1.5,1.1,1.5,1.7c0,0.6-0.4,1.2-1.4,1.7c-1,0.6-2.1,0.9-3.2,0.9C493.7,304.6,492.8,304.3,492,303.8 M507.5,295.6
								c-1-0.6-2.1-1-3.4-1.4c-1.3-0.3-2.6-0.5-4.1-0.5c-1.4,0-2.9,0.2-4.5,0.7c-1.6,0.4-3.2,1.1-4.8,2c-1.4,0.8-2.4,1.6-3,2.4
								c-0.7,0.8-1,1.6-1,2.4c0,0.8,0.2,1.5,0.8,2.2c0.5,0.7,1.3,1.3,2.3,1.9c0.8,0.5,1.8,0.9,2.8,1.1c1,0.3,2,0.4,3,0.5
								c1,0.1,2,0,3-0.2c1-0.2,1.9-0.5,2.8-1c0.9-0.5,1.5-1,1.8-1.6c0.4-0.5,0.5-1.1,0.4-1.6c-0.1-0.5-0.4-1.1-0.9-1.6
								c-0.5-0.5-1.2-1-2-1.5c-0.7-0.4-1.6-0.7-2.8-1c-1.1-0.2-2.3-0.4-3.4-0.3c1.2-0.6,2.3-1.1,3.3-1.4c1-0.3,2-0.5,2.9-0.5
								c0.9,0,1.7,0,2.5,0.2c0.8,0.2,1.4,0.5,2.1,0.8c0.6,0.3,1,0.7,1.4,1.2c0.3,0.5,0.5,0.9,0.5,1.3l3.7,0c-0.1-0.6-0.4-1.3-0.8-2
								C509.5,296.9,508.7,296.2,507.5,295.6"/>
							<path class="st10" d="M528.4,308l-13.1-7.6l-2.5,1.5l9.3,5.3c-2.1,0.1-3.9,0.3-5.6,0.5c-1.7,0.2-3.3,0.5-4.9,1
								c-1.5,0.4-3,0.9-4.5,1.5c-1.4,0.6-3,1.3-4.5,2.1l3.6,2.1c1.7-0.9,3.3-1.7,4.7-2.3c1.5-0.6,3-1.2,4.5-1.6c1.5-0.4,3.2-0.8,5-1
								c1.8-0.2,3.9-0.4,6.2-0.4L528.4,308"/>
							<path class="st10" d="M544.2,317.1l-13.1-7.6l-2.5,1.5l9.3,5.3c-2.1,0.1-3.9,0.3-5.6,0.5c-1.7,0.2-3.3,0.5-4.9,1
								c-1.5,0.4-3,0.9-4.5,1.5c-1.4,0.6-3,1.3-4.5,2.1l3.6,2.1c1.7-0.9,3.3-1.7,4.7-2.3c1.5-0.6,3-1.2,4.5-1.6c1.5-0.4,3.2-0.8,5-1
								c1.8-0.2,3.9-0.4,6.2-0.4L544.2,317.1"/>
							<path class="st10" d="M560,326.2l-13.1-7.6l-2.5,1.5l9.3,5.3c-2.1,0.1-3.9,0.3-5.6,0.5c-1.7,0.2-3.3,0.6-4.9,1
								c-1.5,0.4-3,0.9-4.5,1.5c-1.4,0.6-3,1.3-4.5,2.1l3.6,2.1c1.7-0.9,3.3-1.7,4.7-2.3s3-1.2,4.5-1.6c1.6-0.4,3.2-0.8,5-1
								c1.8-0.2,3.9-0.4,6.2-0.4L560,326.2"/>
						</g>
					</g>
				</g>
				<g>
					<g class="st8">
						<defs>
							<polygon id="SVGID_10_" class="st8" points="264.9,248.3 275.5,242.2 407.3,318.3 396.8,324.4 							"/>
						</defs>
						<clipPath id="SVGID_11_">
							<use xlink:href="#SVGID_10_"  style="overflow:visible;"/>
						</clipPath>
						<g class="st11">
							<path class="st10" d="M283.5,246.8l-1.5-0.9l-4.2,0.7c-0.4,0.1-0.7,0.1-1.1,0.2c-0.4,0.1-0.8,0.1-1.2,0.2l-0.1,0
								c0.1-0.3,0.3-0.5,0.4-0.7c0.1-0.2,0.2-0.4,0.3-0.7l1.2-2.4l-1.6-0.9l-2.1,4.7l-8.7,1.3l1.5,0.9l4.5-0.7
								c0.4-0.1,0.8-0.1,1.2-0.2c0.4-0.1,0.9-0.2,1.3-0.3l0.1,0c-0.1,0.3-0.3,0.6-0.4,0.8c-0.1,0.2-0.2,0.5-0.3,0.7l-1.2,2.6
								l1.6,0.9l2.1-5L283.5,246.8"/>
							<path class="st10" d="M292.2,251.8l-1.5-0.9l-4.2,0.7c-0.4,0.1-0.7,0.1-1.1,0.2c-0.3,0.1-0.8,0.1-1.2,0.2l-0.1,0
								c0.1-0.3,0.3-0.5,0.4-0.7c0.1-0.2,0.2-0.4,0.3-0.7l1.2-2.4l-1.6-0.9l-2.1,4.7l-8.7,1.3l1.5,0.9l4.5-0.7
								c0.4-0.1,0.8-0.1,1.2-0.2c0.4-0.1,0.9-0.2,1.4-0.3l0.1,0c-0.1,0.3-0.3,0.6-0.4,0.8c-0.1,0.3-0.2,0.5-0.3,0.7l-1.2,2.6
								l1.6,0.9l2.1-5L292.2,251.8"/>
							<path class="st10" d="M304.3,258.8l-1.5-0.9l-4.2,0.7c-0.4,0.1-0.7,0.1-1.1,0.2c-0.3,0.1-0.8,0.1-1.2,0.2l-0.1,0
								c0.1-0.3,0.3-0.5,0.4-0.7c0.1-0.2,0.2-0.4,0.3-0.7l1.2-2.4l-1.6-0.9l-2.1,4.7l-8.7,1.3l1.5,0.9l4.5-0.7
								c0.4-0.1,0.8-0.1,1.2-0.2c0.4-0.1,0.9-0.2,1.3-0.3l0.1,0c-0.1,0.3-0.3,0.6-0.4,0.8c-0.1,0.2-0.2,0.5-0.3,0.7l-1.2,2.6
								l1.6,0.9l2.1-5L304.3,258.8"/>
							<path class="st10" d="M313.1,263.9l-1.5-0.9l-4.2,0.7c-0.4,0.1-0.7,0.1-1.1,0.2c-0.3,0.1-0.8,0.1-1.2,0.2l-0.1,0
								c0.1-0.3,0.3-0.5,0.4-0.7c0.1-0.2,0.2-0.4,0.3-0.7l1.2-2.4l-1.6-0.9l-2.1,4.7l-8.7,1.3l1.5,0.9l4.5-0.7
								c0.4-0.1,0.8-0.1,1.2-0.2c0.4-0.1,0.9-0.2,1.4-0.3l0.1,0c-0.1,0.3-0.3,0.6-0.4,0.8c-0.1,0.3-0.2,0.5-0.3,0.7l-1.2,2.6
								l1.6,0.9l2.1-5L313.1,263.9"/>
							<path class="st10" d="M321.8,268.9l-1.5-0.9l-4.2,0.7c-0.4,0.1-0.7,0.1-1.1,0.2c-0.3,0.1-0.8,0.1-1.2,0.2l-0.1,0
								c0.1-0.3,0.3-0.5,0.4-0.7c0.1-0.2,0.2-0.4,0.3-0.7l1.2-2.4l-1.6-0.9l-2.1,4.7l-8.7,1.3l1.5,0.9l4.5-0.7
								c0.4-0.1,0.8-0.1,1.2-0.2c0.4-0.1,0.9-0.2,1.4-0.3l0.1,0c-0.1,0.3-0.3,0.6-0.4,0.8c-0.1,0.2-0.2,0.5-0.3,0.7l-1.2,2.6
								l1.6,0.9l2.1-5L321.8,268.9"/>
							<path class="st10" d="M330.5,273.9l-1.5-0.9l-4.2,0.7c-0.4,0.1-0.7,0.1-1.1,0.2c-0.4,0.1-0.8,0.1-1.2,0.2l-0.1,0
								c0.1-0.3,0.3-0.5,0.4-0.7c0.1-0.2,0.2-0.4,0.3-0.7l1.2-2.4l-1.6-0.9l-2.1,4.7l-8.7,1.3l1.5,0.9l4.5-0.7
								c0.4-0.1,0.8-0.1,1.2-0.2c0.4-0.1,0.9-0.2,1.4-0.3l0.1,0c-0.1,0.3-0.3,0.6-0.4,0.8c-0.1,0.2-0.2,0.5-0.3,0.7l-1.2,2.6
								l1.6,0.9l2.1-5L330.5,273.9"/>
							<path class="st10" d="M342.6,280.9l-1.5-0.9l-4.2,0.7c-0.4,0.1-0.7,0.1-1.1,0.2c-0.3,0.1-0.8,0.1-1.2,0.2l-0.1,0
								c0.1-0.3,0.3-0.5,0.4-0.7c0.1-0.2,0.2-0.4,0.3-0.7l1.2-2.4l-1.6-0.9l-2.1,4.7l-8.7,1.3l1.5,0.9l4.5-0.7
								c0.4-0.1,0.8-0.1,1.2-0.2c0.4-0.1,0.9-0.2,1.4-0.3l0.1,0c-0.1,0.3-0.3,0.6-0.4,0.8c-0.1,0.2-0.2,0.5-0.3,0.7l-1.2,2.6
								l1.6,0.9l2.1-5L342.6,280.9"/>
							<path class="st10" d="M351.4,286l-1.5-0.9l-4.2,0.7c-0.4,0.1-0.7,0.1-1.1,0.2c-0.4,0.1-0.8,0.1-1.2,0.2l-0.1,0
								c0.1-0.3,0.3-0.5,0.4-0.7c0.1-0.2,0.2-0.4,0.3-0.7l1.2-2.4l-1.6-0.9l-2.1,4.7l-8.7,1.3l1.5,0.9l4.5-0.7
								c0.4-0.1,0.8-0.1,1.2-0.2c0.4-0.1,0.9-0.2,1.4-0.3l0.1,0c-0.1,0.3-0.3,0.6-0.4,0.8c-0.1,0.2-0.2,0.5-0.3,0.7l-1.2,2.6
								l1.6,0.9l2.1-5L351.4,286"/>
							<path class="st10" d="M360.1,291l-1.5-0.9l-4.2,0.7c-0.4,0.1-0.7,0.1-1.1,0.2c-0.4,0.1-0.8,0.1-1.2,0.2l-0.1,0
								c0.1-0.3,0.3-0.5,0.4-0.7c0.1-0.2,0.2-0.4,0.3-0.7l1.2-2.4l-1.6-0.9l-2.1,4.7l-8.7,1.3l1.5,0.9l4.5-0.7
								c0.4-0.1,0.8-0.1,1.2-0.2c0.4-0.1,0.9-0.2,1.3-0.3l0.1,0c-0.1,0.3-0.3,0.6-0.4,0.8c-0.1,0.2-0.2,0.5-0.3,0.7l-1.2,2.6
								l1.6,0.9l2.1-5L360.1,291"/>
							<path class="st10" d="M368.8,296.1l-1.5-0.9l-4.2,0.7c-0.4,0.1-0.7,0.1-1.1,0.2c-0.3,0.1-0.8,0.1-1.2,0.2l-0.1,0
								c0.1-0.3,0.3-0.5,0.4-0.7c0.1-0.2,0.2-0.4,0.3-0.7l1.2-2.4l-1.6-0.9l-2.1,4.7l-8.7,1.3l1.5,0.9l4.5-0.7
								c0.4-0.1,0.8-0.1,1.2-0.2c0.4-0.1,0.9-0.2,1.3-0.3l0.1,0c-0.1,0.3-0.3,0.6-0.4,0.8c-0.1,0.2-0.2,0.5-0.3,0.7l-1.2,2.6
								l1.6,0.9l2.1-5L368.8,296.1"/>
							<path class="st10" d="M380.9,303.1l-1.5-0.9l-4.2,0.7c-0.4,0.1-0.7,0.1-1.1,0.2c-0.4,0.1-0.8,0.1-1.2,0.2l-0.1,0
								c0.1-0.3,0.3-0.5,0.4-0.7c0.1-0.2,0.2-0.4,0.3-0.7l1.2-2.4l-1.6-0.9l-2.1,4.7l-8.7,1.3l1.5,0.9l4.5-0.7
								c0.4-0.1,0.8-0.1,1.2-0.2c0.4-0.1,0.9-0.2,1.3-0.3l0.1,0c-0.1,0.3-0.3,0.6-0.4,0.8c-0.1,0.2-0.2,0.5-0.3,0.7l-1.2,2.6
								l1.6,0.9l2.1-5L380.9,303.1"/>
							<path class="st10" d="M389.7,308.1l-1.5-0.9l-4.2,0.7c-0.4,0.1-0.7,0.1-1.1,0.2c-0.3,0.1-0.8,0.1-1.2,0.2l-0.1,0
								c0.1-0.3,0.3-0.5,0.4-0.7c0.1-0.2,0.2-0.4,0.3-0.7l1.2-2.4l-1.6-0.9l-2.1,4.7l-8.7,1.3l1.5,0.9l4.5-0.7
								c0.4-0.1,0.8-0.1,1.2-0.2c0.4-0.1,0.9-0.2,1.3-0.3l0.1,0c-0.1,0.3-0.3,0.6-0.4,0.8c-0.1,0.2-0.2,0.5-0.3,0.7l-1.2,2.6
								l1.6,0.9l2.1-5L389.7,308.1"/>
							<path class="st10" d="M398.4,313.1l-1.5-0.9l-4.2,0.7c-0.4,0.1-0.7,0.1-1.1,0.2c-0.3,0.1-0.8,0.1-1.2,0.2l-0.1,0
								c0.1-0.3,0.3-0.5,0.4-0.7c0.1-0.2,0.2-0.4,0.3-0.7l1.2-2.4l-1.6-0.9l-2.1,4.7l-8.7,1.3l1.5,0.9l4.5-0.7
								c0.4-0.1,0.8-0.1,1.2-0.2c0.4-0.1,0.9-0.2,1.4-0.3l0.1,0c-0.1,0.3-0.3,0.6-0.4,0.8c-0.1,0.3-0.2,0.5-0.3,0.7l-1.2,2.6
								l1.6,0.9l2.1-5L398.4,313.1"/>
							<path class="st10" d="M407.1,318.2l-1.5-0.9l-4.2,0.7c-0.4,0.1-0.7,0.1-1.1,0.2c-0.3,0.1-0.8,0.1-1.2,0.2l-0.1,0
								c0.1-0.3,0.3-0.5,0.4-0.7c0.1-0.2,0.2-0.4,0.3-0.7l1.2-2.4l-1.6-0.9l-2.1,4.7l-8.7,1.3l1.5,0.9l4.5-0.7
								c0.4-0.1,0.8-0.1,1.2-0.2c0.4-0.1,0.9-0.2,1.4-0.3l0.1,0c-0.1,0.3-0.3,0.6-0.4,0.8c-0.1,0.2-0.2,0.5-0.3,0.7l-1.2,2.6
								l1.6,0.9l2.1-5L407.1,318.2"/>
						</g>
					</g>
				</g>
				<g>
					<g class="st8">
						<defs>
							<polygon id="SVGID_12_" class="st8" points="313.5,240.7 327.8,232.4 366.6,254.7 352.2,263.1 							"/>
						</defs>
						<clipPath id="SVGID_13_">
							<use xlink:href="#SVGID_12_"  style="overflow:visible;"/>
						</clipPath>
						<g class="st12">
							<path class="st10" d="M330.6,235.4l-1.1-0.6c-0.5-0.1-1-0.2-1.5-0.3c-0.5-0.2-1.1-0.3-1.7-0.6l-0.9,0.5l2,1.2l-7.8,4.5
								l-2.6-1.5l-1.1,0.7l6.3,3.6l1.1-0.7l-2.3-1.3L330.6,235.4"/>
							<path class="st10" d="M328.7,245.4c-0.7-0.4-0.8-0.9-0.5-1.5c0.3-0.6,1.2-1.4,2.8-2.3c0.8-0.4,1.5-0.8,2.1-1.1
								c0.6-0.3,1.3-0.4,1.8-0.5c0.5-0.1,1-0.1,1.5,0c0.4,0.1,0.8,0.2,1.1,0.4c0.3,0.2,0.5,0.4,0.6,0.7c0.1,0.3,0.1,0.5-0.1,0.8
								c-0.2,0.3-0.5,0.7-0.9,1c-0.4,0.4-1.1,0.8-1.8,1.2c-0.8,0.5-1.5,0.8-2.1,1.1c-0.7,0.3-1.3,0.4-1.8,0.5
								c-0.6,0.1-1,0.1-1.5,0.1C329.4,245.7,329,245.6,328.7,245.4 M338.5,239.7c-1.1-0.7-2.5-0.9-4-0.7c-1.6,0.2-3.2,0.8-5,1.8
								c-1.8,1-2.8,2-3.1,2.9c-0.3,0.9,0.1,1.7,1.2,2.3c1.1,0.6,2.5,0.9,4,0.7c1.6-0.2,3.3-0.8,5-1.8c1.8-1,2.8-2,3.1-2.9
								C340,241.1,339.6,240.3,338.5,239.7"/>
							<polyline class="st10" points="349.7,245 348.7,244.4 329.6,250.1 330.7,250.7 349.7,245 							"/>
							<path class="st10" d="M354.1,248.9l-1.1-0.6c-0.5-0.1-1-0.2-1.5-0.3c-0.5-0.1-1.1-0.3-1.7-0.6l-0.9,0.5l2,1.2l-7.8,4.5
								l-2.6-1.5l-1.1,0.7l6.3,3.6l1.1-0.7l-2.3-1.3L354.1,248.9"/>
							<path class="st10" d="M365.4,255.4l-7.2-4.1L357,252l5.6,3.2c-1.3,0.1-2.5,0.2-3.5,0.4c-1.1,0.2-2.1,0.4-3.1,0.7
								c-1,0.3-2,0.6-2.9,1c-1,0.4-2,0.9-3,1.4l1.5,0.9c1.1-0.6,2.1-1.1,3-1.5c1-0.4,1.9-0.8,2.9-1.1c1-0.3,2.1-0.5,3.2-0.7
								c1.1-0.2,2.4-0.3,3.9-0.4L365.4,255.4"/>
						</g>
					</g>
				</g>
				<g>
					<g>
						<g class="st8">
							<defs>
								<polygon id="SVGID_14_" class="st8" points="378.6,283 393.2,274.5 434.9,298.5 420.2,307 								"/>
							</defs>
							<clipPath id="SVGID_15_">
								<use xlink:href="#SVGID_14_"  style="overflow:visible;"/>
							</clipPath>
							<g class="st13">
								<g>
									<g>
										<g>
											<path class="st10" d="M396.3,277.7l-1.2-0.7c-0.5-0.1-1-0.2-1.6-0.4c-0.5-0.2-1.1-0.4-1.8-0.6l-0.9,0.5l2.2,1.3l-7.9,4.6
												l-2.7-1.6l-1.1,0.7l6.8,3.9l1.1-0.7l-2.5-1.4L396.3,277.7"/>
											<path class="st10" d="M394.7,288.1c-0.7-0.4-0.9-0.9-0.6-1.6c0.3-0.7,1.2-1.5,2.8-2.4c0.8-0.5,1.5-0.8,2.2-1.1
												c0.7-0.3,1.3-0.4,1.9-0.5c0.6-0.1,1.1-0.1,1.5,0c0.5,0.1,0.9,0.2,1.2,0.4c0.4,0.2,0.6,0.4,0.7,0.7
												c0.1,0.3,0.1,0.6-0.1,0.9c-0.1,0.3-0.4,0.7-0.9,1.1c-0.4,0.4-1.1,0.8-1.8,1.3c-0.8,0.5-1.5,0.8-2.2,1.1
												c-0.7,0.3-1.3,0.4-1.9,0.5c-0.6,0.1-1.1,0.1-1.5,0C395.5,288.5,395.1,288.3,394.7,288.1 M404.8,282.3
												c-1.2-0.7-2.6-1-4.2-0.8c-1.6,0.2-3.3,0.8-5.1,1.8c-1.8,1.1-2.9,2-3.1,3c-0.3,1,0.2,1.8,1.4,2.5c1.2,0.7,2.6,1,4.3,0.8
												c1.6-0.2,3.4-0.8,5.2-1.8c1.8-1,2.8-2,3.1-3C406.4,283.8,406,283,404.8,282.3"/>
											<polyline class="st10" points="416.8,288.1 415.6,287.4 396,293 397.1,293.7 416.8,288.1 											"/>
											<path class="st10" d="M420.3,291.3c-0.8-0.5-1.6-0.8-2.5-0.9c-0.9-0.2-1.8-0.2-2.8-0.2l0.1,1c0.7,0,1.4,0,2.1,0.1
												c0.7,0.1,1.3,0.3,1.8,0.6c0.8,0.4,1.1,0.9,1.1,1.3c0,0.4-0.3,0.8-1,1.2c-0.4,0.3-1,0.4-1.7,0.6c-0.7,0.1-1.6,0.2-2.6,0.3
												c-1,0-2.2,0.1-3.6,0c-1.3,0-2.9-0.1-4.6-0.1l-0.8,0.5l7.8,4.5l1.2-0.7l-3.5-2c-0.3-0.2-0.7-0.4-1-0.6
												c-0.4-0.2-0.7-0.4-1.1-0.5c1.4,0,2.7,0,3.8,0c1.2,0,2.3,0,3.2-0.1c1-0.1,1.8-0.2,2.6-0.3c0.8-0.2,1.4-0.4,1.9-0.7
												c1-0.6,1.4-1.2,1.3-1.9C422,292.6,421.4,291.9,420.3,291.3"/>
											<path class="st10" d="M429.7,296.7c-0.8-0.5-1.6-0.8-2.5-0.9c-0.9-0.2-1.8-0.2-2.8-0.2l0.1,1c0.7,0,1.4,0,2.1,0.1
												c0.7,0.1,1.3,0.3,1.8,0.6c0.8,0.4,1.1,0.9,1.1,1.3c0,0.4-0.3,0.8-0.9,1.2c-0.4,0.3-1,0.4-1.7,0.6
												c-0.7,0.1-1.6,0.2-2.6,0.3c-1,0-2.2,0.1-3.6,0c-1.3,0-2.9-0.1-4.6-0.1l-0.8,0.5l7.8,4.5l1.2-0.7l-3.5-2
												c-0.3-0.2-0.7-0.4-1-0.6c-0.4-0.2-0.7-0.4-1.1-0.5c1.4,0,2.7,0,3.8,0c1.2,0,2.3,0,3.2-0.1c1-0.1,1.8-0.2,2.6-0.3
												c0.8-0.2,1.4-0.4,1.9-0.7c1-0.6,1.4-1.2,1.3-1.9C431.4,298,430.8,297.3,429.7,296.7"/>
										</g>
									</g>
								</g>
							</g>
						</g>
					</g>
				</g>
			</g>
		</g>
	</g>
</g>
</svg>
