<?xml version="1.0" encoding="utf-8"?>
<!-- Generator: Adobe Illustrator 22.1.0, SVG Export Plug-In . SVG Version: 6.00 Build 0)  -->
<svg version="1.1" id="Capa_1" xmlns="http://www.w3.org/2000/svg" xmlns:xlink="http://www.w3.org/1999/xlink" x="0px" y="0px"
	 viewBox="0 0 612.6 621.6" style="enable-background:new 0 0 612.6 621.6;" xml:space="preserve">
<style type="text/css">
	.st0{fill:#E6E6E6;}
	.st1{opacity:0.2;fill:url(#SVGID_1_);}
	.st2{fill:url(#SVGID_2_);}
	.st3{fill:url(#SVGID_3_);}
	.st4{fill:url(#SVGID_4_);}
	.st5{fill:#D49E42;}
	.st6{fill:#333333;}
	.st7{fill:#FFFFFF;}
	.st8{font-family:'SourceSansPro-SemiBold';}
	.st9{font-size:40.8405px;}
	.st10{font-family:'SourceSansPro-Regular';}
	.st11{font-size:25.8698px;}
	.st12{font-size:27.8348px;}
	.st13{font-size:25.1722px;}
	.st14{fill:#DF6364;}
	.st15{fill:url(#SVGID_5_);}
	.st16{fill:url(#SVGID_6_);}
	.st17{fill:url(#SVGID_7_);}
	.st18{fill:url(#SVGID_8_);}
</style>
<g>
	<g>
		<g>
			<path class="st0" d="M128.4,92.3v180.4L108.1,286L83,246.5V112.3c-14,4.7-28.2,4.1-42.6-1.7L15.7,82.7L36,69.3
				c9.3,4.3,19.6,6.5,31,6.8s19.3-1.5,23.9-5.5L128.4,92.3z"/>
			<path class="st0" d="M165,263.7c30.4-1.4,52.4-5.5,66-12.3c13.6-6.8,20.4-16.7,20.4-29.6c0-7.3-2.1-14.4-6.3-21.3
				c-4.2-6.9-10.2-12.6-18-17.1c-8.6-4.9-15.3-5.7-20.1-2.2c-4.8,3.5-7.3,11.2-7.5,23.1l-20.3,13.4l-38.5-47.4
				c3.9-21.2,25.6-32.1,38.7-35.3c13-3.2,29.9,1.2,50.7,13.1c15.1,8.7,27.8,18.8,38,30.3c10.2,11.5,17.8,23,22.7,34.6
				c4.9,11.6,7.4,22.4,7.4,32.4c0,16.9-8.7,39.7-39.7,49.4c-13.8,4.3-11.1-3.3-36.8-3.4v0.3c12,6.2,24.1,12.8,36.3,19.9l42.4,24.5
				v35.8L280,385.3l-115-91.5l-20.3-16.7L165,263.7z"/>
		</g>
		<linearGradient id="SVGID_1_" gradientUnits="userSpaceOnUse" x1="234.6637" y1="286.2331" x2="262.9934" y2="356.3515">
			<stop  offset="0" style="stop-color:#454545"/>
			<stop  offset="0.9198" style="stop-color:#454545;stop-opacity:8.019143e-02"/>
			<stop  offset="1" style="stop-color:#454545;stop-opacity:0"/>
		</linearGradient>
		<polygon class="st1" points="280,349.5 300.2,336.1 221.3,292.6 195.6,302 		"/>
		<g>
			<linearGradient id="SVGID_2_" gradientUnits="userSpaceOnUse" x1="15.7281" y1="184.3658" x2="108.0941" y2="184.3658">
				<stop  offset="0" style="stop-color:#7063EF"/>
				<stop  offset="1" style="stop-color:#3A79F1"/>
			</linearGradient>
			<path class="st2" d="M108.1,105.7V286l-45.4-26.2V125.7c-14,4.7-28.2,4.1-42.6-1.7l-4.4-41.3c9.3,4.3,19.6,6.5,31,6.8
				c11.4,0.3,19.3-1.5,23.9-5.5L108.1,105.7z"/>
			<linearGradient id="SVGID_3_" gradientUnits="userSpaceOnUse" x1="138.9717" y1="266.377" x2="279.9894" y2="266.377">
				<stop  offset="0" style="stop-color:#7063EF"/>
				<stop  offset="1" style="stop-color:#3A79F1"/>
			</linearGradient>
			<path class="st3" d="M144.7,277.1c30.4-1.4,52.4-5.5,66-12.3c13.6-6.8,20.4-16.7,20.4-29.6c0-7.3-2.1-14.4-6.3-21.3
				c-4.2-6.9-10.2-12.6-18-17.1c-8.6-4.9-15.3-5.7-20.1-2.2c-4.8,3.5-7.3,11.2-7.5,23.1L139,182.3c0.4-19.3,7.1-30.5,20.1-33.8
				c13-3.2,29.9,1.2,50.7,13.1c15.1,8.7,27.8,18.8,38,30.3c10.2,11.5,17.8,23,22.7,34.6c4.9,11.6,7.4,22.4,7.4,32.4
				c0,16.9-6.3,28.9-19,35.8c-12.7,6.9-31.8,10.3-57.5,10.2v0.3c12,6.2,24.1,12.8,36.3,19.9l42.4,24.5v35.8l-135.3-78.1V277.1z"/>
		</g>
	</g>
	<g>
		<g>
			
				<linearGradient id="SVGID_4_" gradientUnits="userSpaceOnUse" x1="96.8493" y1="420.6016" x2="601.6046" y2="420.6016" gradientTransform="matrix(1 2.116820e-03 -2.116820e-03 1 0.6054 0.2632)">
				<stop  offset="0" style="stop-color:#7063EF"/>
				<stop  offset="1" style="stop-color:#3A79F1"/>
			</linearGradient>
			<path class="st4" d="M429.9,278.8c-5-2.8-11-2.8-16,0L99.1,458.5c-3.5,2-3.6,7.1,0,9.1l167.5,96.9c4.4,2.6,9.9,2.6,14.4,0
				l319.3-184.4c1.5-0.9,1.5-3,0-3.9L429.9,278.8z"/>
			<g>
				<path class="st5" d="M176.5,456.7l-9.1,4.8l-0.9,5c0,0.3,0.1,0.5,0.4,0.7c0.7,0.4,1.9,0.3,2.7-0.1l15-7.9l-4.9-2.6
					C179,456,177.6,456.1,176.5,456.7z"/>
				<path class="st5" d="M175.7,473.2c-0.7-0.4-1.9-0.3-2.7,0.1l-15,7.9l4.9,2.6c0.8,0.4,2.3,0.3,3.3-0.2l9-4.8l0.9-5
					C176.1,473.6,176,473.3,175.7,473.2z"/>
				<path class="st5" d="M176.5,472.7c-0.9-0.5-0.7-1.3,0.3-1.8l3.4-1.8l-6.8-3.7l-3.4,1.8c-1,0.5-2.6,0.6-3.4,0.2
					c-0.4-0.2-0.6-0.5-0.5-0.9l0.9-4.7l-11.3,6l8.9-0.4c0.6,0,1.2,0.1,1.6,0.3c0.9,0.5,0.7,1.3-0.3,1.8l-3.5,1.9l6.8,3.7l3.5-1.9
					c1-0.5,2.6-0.6,3.4-0.2c0.4,0.2,0.6,0.5,0.5,0.9l-0.9,4.8l11.4-6l-9,0.4C177.5,473,176.9,472.9,176.5,472.7z"/>
				<path class="st5" d="M165.7,467.8c-0.3-0.2-0.8-0.3-1.3-0.2L155,468l-9,4.8c-1,0.5-1.2,1.3-0.4,1.7l4.9,2.6l15-7.9
					C166.3,468.8,166.4,468.2,165.7,467.8z"/>
				<polygon class="st5" points="161.9,471.5 150.8,477.4 157.6,481 168.7,475.2 				"/>
				<path class="st5" d="M176.9,472.5c0.3,0.2,0.8,0.3,1.3,0.2l9.5-0.4l9-4.8c1-0.5,1.2-1.3,0.4-1.7l-4.9-2.7l-15,7.9
					C176.4,471.5,176.3,472.1,176.9,472.5z"/>
				<polygon class="st5" points="180.7,468.8 191.9,462.9 185,459.3 173.8,465.2 				"/>
				<path class="st6" d="M167,467.1c-0.3-0.2-0.5-0.4-0.4-0.7l0.9-5l-0.6,0.3l-0.9,4.7c-0.1,0.3,0.1,0.7,0.5,0.9
					c0.9,0.5,2.4,0.4,3.4-0.2l3.4-1.8l6.8,3.7l-3.4,1.8c-1,0.5-1.2,1.4-0.3,1.8c0.4,0.2,1,0.3,1.6,0.3l9-0.4l0.6-0.3l-9.5,0.4
					c-0.5,0-1-0.1-1.3-0.2c-0.7-0.4-0.6-1,0.3-1.4l15-7.9l-0.3-0.2l-11.2,5.9l-6.8-3.7l11.2-5.9l-0.3-0.2l-15,7.9
					C168.9,467.4,167.7,467.5,167,467.1z"/>
				<path class="st6" d="M176.1,472.9c-0.9-0.5-2.4-0.4-3.4,0.2l-3.5,1.9l-6.8-3.7l3.5-1.9c1-0.5,1.2-1.4,0.3-1.8
					c-0.4-0.2-1-0.3-1.6-0.3l-8.9,0.4L155,468l9.4-0.4c0.5,0,1,0.1,1.3,0.2c0.7,0.4,0.6,1-0.3,1.4l-15,7.9l0.3,0.2l11.1-5.9l6.8,3.7
					l-11.1,5.9l0.3,0.2l15-7.9c0.8-0.4,2-0.5,2.7-0.1c0.3,0.2,0.5,0.4,0.4,0.7l-0.9,5l0.6-0.3l0.9-4.8
					C176.7,473.5,176.5,473.2,176.1,472.9z"/>
			</g>
			<text transform="matrix(0.5927 -0.3405 0.4961 0.3062 246.7296 489.2427)" class="st7 st8 st9">7689  1234  5544  6777</text>
			<g>
				<text transform="matrix(0.5339 -0.3017 0.4959 0.3066 338.6866 473.1337)" class="st7 st10 st11">10/17</text>
				<text transform="matrix(0.5339 -0.3017 0.4959 0.3066 420.5177 424.7473)" class="st7 st10 st12">10/22</text>
				<text transform="matrix(0.5339 -0.3017 0.4959 0.3066 347.0052 492.4559)" class="st7 st10 st13">xx xxxx xxxx xxxx</text>
			</g>
		</g>
		<g>
			<path class="st14" d="M336.4,324.6L96.9,453.9l-0.1,8.5c-0.5,2.2,0.5,4.5,2.5,5.6l170,98.7c2.8,1.6,6.3,1.6,9.1,0l321.9-184.2
				c0.8-0.5,1.3-1.3,1.3-2.2l0-10L336.4,324.6z"/>
			
				<linearGradient id="SVGID_5_" gradientUnits="userSpaceOnUse" x1="96.8493" y1="412.6401" x2="601.6046" y2="412.6401" gradientTransform="matrix(1 2.116820e-03 -2.116820e-03 1 0.6054 0.2632)">
				<stop  offset="0" style="stop-color:#E79654"/>
				<stop  offset="1" style="stop-color:#DF6364"/>
			</linearGradient>
			<path class="st15" d="M429.9,270.8c-5-2.8-11-2.8-16,0L99.2,450.6c-3.5,2-3.6,7.1,0,9.1l167.5,96.9c4.4,2.6,9.9,2.6,14.4,0
				l319.3-184.4c1.5-0.9,1.5-3,0-3.9L429.9,270.8z"/>
			<g>
				<path class="st5" d="M176.6,448.7l-9.1,4.8l-0.9,5c0,0.3,0.1,0.5,0.4,0.7c0.7,0.4,1.9,0.3,2.7-0.1l15-7.9l-4.9-2.6
					C179,448.1,177.6,448.2,176.6,448.7z"/>
				<path class="st5" d="M175.7,465.2c-0.7-0.4-1.9-0.3-2.7,0.1l-15,7.9l4.9,2.6c0.8,0.4,2.3,0.3,3.3-0.2l9-4.8l0.9-5
					C176.2,465.6,176,465.4,175.7,465.2z"/>
				<path class="st5" d="M176.5,464.7c-0.9-0.5-0.7-1.3,0.3-1.8l3.4-1.8l-6.8-3.7l-3.4,1.8c-1,0.5-2.6,0.6-3.4,0.2
					c-0.4-0.2-0.6-0.5-0.5-0.9l0.9-4.7l-11.3,6l8.9-0.4c0.6,0,1.2,0.1,1.6,0.3c0.9,0.5,0.7,1.3-0.3,1.8l-3.5,1.9l6.8,3.7l3.5-1.9
					c1-0.5,2.6-0.6,3.4-0.2c0.4,0.2,0.6,0.5,0.5,0.9l-0.9,4.8l11.4-6l-9,0.4C177.5,465.1,176.9,464.9,176.5,464.7z"/>
				<path class="st5" d="M165.7,459.9c-0.3-0.2-0.8-0.3-1.3-0.2l-9.4,0.4l-9,4.8c-1,0.5-1.2,1.3-0.4,1.7l4.9,2.6l15-7.9
					C166.3,460.9,166.4,460.2,165.7,459.9z"/>
				<polygon class="st5" points="161.9,463.5 150.8,469.4 157.6,473.1 168.7,467.2 				"/>
				<path class="st5" d="M176.9,464.5c0.3,0.2,0.8,0.3,1.3,0.2l9.5-0.4l9-4.8c1-0.5,1.2-1.3,0.4-1.7l-4.9-2.7l-15,7.9
					C176.4,463.5,176.3,464.1,176.9,464.5z"/>
				<polygon class="st5" points="180.7,460.9 191.9,455 185,451.3 173.8,457.2 				"/>
				<path class="st6" d="M167,459.2c-0.3-0.2-0.5-0.4-0.4-0.7l0.9-5l-0.6,0.3l-0.9,4.7c-0.1,0.3,0.1,0.7,0.5,0.9
					c0.9,0.5,2.4,0.4,3.4-0.2l3.4-1.8l6.8,3.7l-3.4,1.8c-1,0.5-1.2,1.4-0.3,1.8c0.4,0.2,1,0.3,1.6,0.3l9-0.4l0.6-0.3l-9.5,0.4
					c-0.5,0-1-0.1-1.3-0.2c-0.7-0.4-0.6-1,0.3-1.4l15-7.9l-0.3-0.2l-11.2,5.9l-6.8-3.7l11.2-5.9l-0.3-0.2l-15,7.9
					C168.9,459.5,167.7,459.5,167,459.2z"/>
				<path class="st6" d="M176.1,465c-0.9-0.5-2.4-0.4-3.4,0.2l-3.5,1.9l-6.8-3.7l3.5-1.9c1-0.5,1.2-1.4,0.3-1.8
					c-0.4-0.2-1-0.3-1.6-0.3l-8.9,0.4l-0.6,0.3l9.4-0.4c0.5,0,1,0.1,1.3,0.2c0.7,0.4,0.6,1-0.3,1.4l-15,7.9l0.3,0.2l11.1-5.9
					l6.8,3.7l-11.1,5.9l0.3,0.2l15-7.9c0.8-0.4,2-0.5,2.7-0.1c0.3,0.2,0.5,0.4,0.4,0.7l-0.9,5l0.6-0.3l0.9-4.8
					C176.7,465.5,176.5,465.2,176.1,465z"/>
			</g>
			<text transform="matrix(0.5927 -0.3405 0.4961 0.3062 246.7354 481.2746)" class="st7 st8 st9">7689  1234  5544  6777</text>
			<g>
				<text transform="matrix(0.5339 -0.3017 0.4959 0.3066 338.7067 465.1768)" class="st7 st10 st11">10/17</text>
				<text transform="matrix(0.5339 -0.3017 0.4959 0.3066 420.5412 416.7886)" class="st7 st10 st12">10/22</text>
				<text transform="matrix(0.5339 -0.3017 0.4959 0.3066 347.027 484.4981)" class="st7 st10 st13">xx xxxx xxxx xxxx</text>
			</g>
		</g>
		<g>
			
				<linearGradient id="SVGID_6_" gradientUnits="userSpaceOnUse" x1="97.0224" y1="436.7167" x2="601.7037" y2="436.7167" gradientTransform="matrix(1 2.116820e-03 -2.116820e-03 1 0.6054 0.2632)">
				<stop  offset="0" style="stop-color:#3A79F1"/>
				<stop  offset="1" style="stop-color:#7063EF"/>
			</linearGradient>
			<path class="st16" d="M336.4,315.9L96.9,445.3l-0.1,8.5c-0.5,2.2,0.5,4.5,2.5,5.6l170,98.7c2.8,1.6,6.3,1.6,9.1,0l321.9-184.2
				c0.8-0.5,1.3-1.3,1.3-2.2l0-10L336.4,315.9z"/>
			
				<linearGradient id="SVGID_7_" gradientUnits="userSpaceOnUse" x1="96.8493" y1="403.9549" x2="601.6046" y2="403.9549" gradientTransform="matrix(1 2.116820e-03 -2.116820e-03 1 0.6054 0.2632)">
				<stop  offset="0" style="stop-color:#7063EF"/>
				<stop  offset="1" style="stop-color:#3A79F1"/>
			</linearGradient>
			<path class="st17" d="M429.9,262.2c-5-2.8-11-2.8-16,0L99.2,441.9c-3.5,2-3.6,7.1,0,9.1L266.7,548c4.4,2.6,9.9,2.6,14.4,0
				l319.3-184.4c1.5-0.9,1.5-3,0-3.9L429.9,262.2z"/>
			<g>
				<path class="st5" d="M176.6,440l-9.1,4.8l-0.9,5c0,0.3,0.1,0.5,0.4,0.7c0.7,0.4,1.9,0.3,2.7-0.1l15-7.9l-4.9-2.6
					C179.1,439.4,177.6,439.5,176.6,440z"/>
				<path class="st5" d="M175.7,456.5c-0.7-0.4-1.9-0.3-2.7,0.1l-15,7.9l4.9,2.6c0.8,0.4,2.3,0.3,3.3-0.2l9-4.8l0.9-5
					C176.2,456.9,176,456.7,175.7,456.5z"/>
				<path class="st5" d="M176.5,456c-0.9-0.5-0.7-1.3,0.3-1.8l3.4-1.8l-6.8-3.7l-3.4,1.8c-1,0.5-2.6,0.6-3.4,0.2
					c-0.4-0.2-0.6-0.5-0.5-0.9l0.9-4.7l-11.3,6l8.9-0.4c0.6,0,1.2,0.1,1.6,0.3c0.9,0.5,0.7,1.3-0.3,1.8l-3.5,1.9l6.8,3.7l3.5-1.9
					c1-0.5,2.6-0.6,3.4-0.2c0.4,0.2,0.6,0.5,0.5,0.9l-0.9,4.8l11.4-6l-9,0.4C177.5,456.4,177,456.3,176.5,456z"/>
				<path class="st5" d="M165.8,451.2c-0.3-0.2-0.8-0.3-1.3-0.2l-9.4,0.4l-9,4.8c-1,0.5-1.2,1.3-0.4,1.7l4.9,2.6l15-7.9
					C166.3,452.2,166.4,451.5,165.8,451.2z"/>
				<polygon class="st5" points="161.9,454.9 150.8,460.7 157.7,464.4 168.8,458.5 				"/>
				<path class="st5" d="M177,455.8c0.3,0.2,0.8,0.3,1.3,0.2l9.5-0.4l9-4.8c1-0.5,1.2-1.3,0.4-1.7l-4.9-2.7l-15,7.9
					C176.4,454.8,176.3,455.5,177,455.8z"/>
				<polygon class="st5" points="180.7,452.2 191.9,446.3 185.1,442.6 173.9,448.5 				"/>
				<path class="st6" d="M167,450.5c-0.3-0.2-0.5-0.4-0.4-0.7l0.9-5l-0.6,0.3l-0.9,4.7c-0.1,0.3,0.1,0.7,0.5,0.9
					c0.9,0.5,2.4,0.4,3.4-0.2l3.4-1.8l6.8,3.7l-3.4,1.8c-1,0.5-1.2,1.4-0.3,1.8c0.4,0.2,1,0.3,1.6,0.3l9-0.4l0.6-0.3l-9.5,0.4
					c-0.5,0-1-0.1-1.3-0.2c-0.7-0.4-0.6-1,0.3-1.4l15-7.9l-0.3-0.2l-11.2,5.9l-6.8-3.7l11.2-5.9l-0.3-0.2l-15,7.9
					C168.9,450.8,167.7,450.8,167,450.5z"/>
				<path class="st6" d="M176.1,456.3c-0.9-0.5-2.4-0.4-3.4,0.2l-3.5,1.9l-6.8-3.7l3.5-1.9c1-0.5,1.2-1.4,0.3-1.8
					c-0.4-0.2-1-0.3-1.6-0.3l-8.9,0.4l-0.6,0.3l9.4-0.4c0.5,0,1,0.1,1.3,0.2c0.7,0.4,0.6,1-0.3,1.4l-15,7.9l0.3,0.2l11.1-5.9
					l6.8,3.7l-11.1,5.9l0.3,0.2l15-7.9c0.8-0.4,2-0.5,2.7-0.1c0.3,0.2,0.5,0.4,0.4,0.7l-0.9,5l0.6-0.3l0.9-4.8
					C176.7,456.8,176.5,456.5,176.1,456.3z"/>
			</g>
			<text transform="matrix(0.5927 -0.3405 0.4961 0.3062 246.7575 472.5939)" class="st7 st8 st9">7689  1234  5544  6777</text>
			<g>
				<text transform="matrix(0.5339 -0.3017 0.4959 0.3066 338.722 456.4876)" class="st7 st10 st11">10/17</text>
				<text transform="matrix(0.5339 -0.3017 0.4959 0.3066 420.553 408.1013)" class="st7 st10 st12">10/22</text>
				<text transform="matrix(0.5339 -0.3017 0.4959 0.3066 347.0422 475.8109)" class="st7 st10 st13">xx xxxx xxxx xxxx</text>
			</g>
		</g>
		<g>
			<path class="st14" d="M337.1,305.8L97.6,435.1l-0.1,8.5c-0.5,2.2,0.5,4.5,2.5,5.6l170,98.7c2.8,1.6,6.3,1.6,9.1,0L601,363.7
				c0.8-0.5,1.3-1.3,1.3-2.2l0-10L337.1,305.8z"/>
			
				<linearGradient id="SVGID_8_" gradientUnits="userSpaceOnUse" x1="97.5731" y1="393.8221" x2="602.3284" y2="393.8221" gradientTransform="matrix(1 2.116820e-03 -2.116820e-03 1 0.6054 0.2632)">
				<stop  offset="0" style="stop-color:#FC9E4E"/>
				<stop  offset="1" style="stop-color:#FD6567"/>
			</linearGradient>
			<path class="st18" d="M430.6,252c-5-2.8-11-2.8-16,0L99.9,431.8c-3.5,2-3.6,7.1,0,9.1l167.5,96.9c4.4,2.6,9.9,2.6,14.4,0
				l319.3-184.4c1.5-0.9,1.5-3,0-3.9L430.6,252z"/>
			<g>
				<path class="st5" d="M177.3,429.9l-9.1,4.8l-0.9,5c0,0.3,0.1,0.5,0.4,0.7c0.7,0.4,1.9,0.3,2.7-0.1l15-7.9l-4.9-2.6
					C179.8,429.3,178.3,429.3,177.3,429.9z"/>
				<path class="st5" d="M176.4,446.4c-0.7-0.4-1.9-0.3-2.7,0.1l-15,7.9l4.9,2.6c0.8,0.4,2.3,0.3,3.3-0.2l9-4.8l0.9-5
					C176.9,446.8,176.8,446.6,176.4,446.4z"/>
				<path class="st5" d="M177.3,445.9c-0.9-0.5-0.7-1.3,0.3-1.8l3.4-1.8l-6.8-3.7l-3.4,1.8c-1,0.5-2.6,0.6-3.4,0.2
					c-0.4-0.2-0.6-0.5-0.5-0.9l0.9-4.7l-11.3,6l8.9-0.4c0.6,0,1.2,0.1,1.6,0.3c0.9,0.5,0.7,1.3-0.3,1.8l-3.5,1.9l6.8,3.7l3.5-1.9
					c1-0.5,2.6-0.6,3.4-0.2c0.4,0.2,0.6,0.5,0.5,0.9l-0.9,4.8l11.4-6l-9,0.4C178.3,446.2,177.7,446.1,177.3,445.9z"/>
				<path class="st5" d="M166.5,441.1c-0.3-0.2-0.8-0.3-1.3-0.2l-9.4,0.4l-9,4.8c-1,0.5-1.2,1.3-0.4,1.7l4.9,2.6l15-7.9
					C167.1,442.1,167.2,441.4,166.5,441.1z"/>
				<polygon class="st5" points="162.7,444.7 151.6,450.6 158.4,454.3 169.5,448.4 				"/>
				<path class="st5" d="M177.7,445.7c0.3,0.2,0.8,0.3,1.3,0.2l9.5-0.4l9-4.8c1-0.5,1.2-1.3,0.4-1.7l-4.9-2.7l-15,7.9
					C177.1,444.7,177,445.3,177.7,445.7z"/>
				<polygon class="st5" points="181.4,442.1 192.6,436.2 185.8,432.5 174.6,438.4 				"/>
				<path class="st6" d="M167.8,440.4c-0.3-0.2-0.5-0.4-0.4-0.7l0.9-5l-0.6,0.3l-0.9,4.7c-0.1,0.3,0.1,0.7,0.5,0.9
					c0.9,0.5,2.4,0.4,3.4-0.2l3.4-1.8l6.8,3.7l-3.4,1.8c-1,0.5-1.2,1.4-0.3,1.8c0.4,0.2,1,0.3,1.6,0.3l9-0.4l0.6-0.3l-9.5,0.4
					c-0.5,0-1-0.1-1.3-0.2c-0.7-0.4-0.6-1,0.3-1.4l15-7.9l-0.3-0.2l-11.2,5.9l-6.8-3.7l11.2-5.9l-0.3-0.2l-15,7.9
					C169.7,440.7,168.4,440.7,167.8,440.4z"/>
				<path class="st6" d="M176.9,446.2c-0.9-0.5-2.4-0.4-3.4,0.2l-3.5,1.9l-6.8-3.7l3.5-1.9c1-0.5,1.2-1.4,0.3-1.8
					c-0.4-0.2-1-0.3-1.6-0.3l-8.9,0.4l-0.6,0.3l9.4-0.4c0.5,0,1,0.1,1.3,0.2c0.7,0.4,0.6,1-0.3,1.4l-15,7.9l0.3,0.2l11.1-5.9
					l6.8,3.7l-11.1,5.9l0.3,0.2l15-7.9c0.8-0.4,2-0.5,2.7-0.1c0.3,0.2,0.5,0.4,0.4,0.7l-0.9,5l0.6-0.3l0.9-4.8
					C177.5,446.7,177.3,446.4,176.9,446.2z"/>
			</g>
			<text transform="matrix(0.5927 -0.3405 0.4961 0.3062 247.5107 462.4672)" class="st7 st8 st9">7689  1234  5544  6777</text>
			<g>
				<text transform="matrix(0.5339 -0.3017 0.4959 0.3066 339.4651 446.3571)" class="st7 st10 st11">10/17</text>
				<text transform="matrix(0.5339 -0.3017 0.4959 0.3066 421.3046 397.9738)" class="st7 st10 st12">10/22</text>
				<text transform="matrix(0.5339 -0.3017 0.4959 0.3066 347.782 465.6782)" class="st7 st10 st13">xx xxxx xxxx xxxx</text>
			</g>
		</g>
	</g>
</g>
</svg>
