<?xml version="1.0" encoding="utf-8"?>
<!-- Generator: Adobe Illustrator 23.0.1, SVG Export Plug-In . SVG Version: 6.00 Build 0)  -->
<svg version="1.1" id="Capa_1" xmlns="http://www.w3.org/2000/svg" xmlns:xlink="http://www.w3.org/1999/xlink" x="0px" y="0px"
	 viewBox="0 0 362.6 350.2" style="enable-background:new 0 0 362.6 350.2;" xml:space="preserve">
<style type="text/css">
	.st0{fill:#5477F0;}
</style>
<g>
	<g>
		<path class="st0" d="M18.9,223.2C28.5,231.5,40.7,236,53,236h11.5H106h19.7v51.3c0,24.5,7.3,42.4,21.8,53.1
			c22.8,16.7,53.8,7.3,55.2,6.9c5.3-1.7,8.9-6.6,8.9-12v-61.8c0-18.8,9-34.8,26.8-47.6c13.5-9.7,27.4-14.2,29.2-14.7l1.3-0.3
			c4.8,5.4,11.7,8.8,19.6,8.8h48.2c14.4,0,26.1-11.7,26.1-26.1V35.3c0-14.4-11.7-26.1-26.1-26.1h-48.4c-6.3,0-12.3,2.3-16.7,6.1
			C261.7,5.8,248.5,0,234.2,0l-48.1,0l-5,0L82.7,0C67.5,0,54.1,3.7,43.8,10.6c-13.1,8.9-21.2,22.9-23.6,40.9L0.7,173
			C-2.4,191.8,4.6,211.1,18.9,223.2z M287.4,35.3c0-0.4,0.3-0.7,0.7-0.7h48.4c0.4,0,0.7,0.3,0.7,0.7v158.1c0,0.4-0.3,0.7-0.7,0.7
			h-48.4c-0.4,0-0.7-0.3-0.7-0.7V35.3z M25.8,176.9L45.3,55.2c0-0.1,0-0.3,0.1-0.5c0.8-7.3,3.6-29.4,37.3-29.4h98.4h5h48.1
			c13.5,0,25.4,10.1,27.5,23.6c0.1,0.5,0.2,1.1,0.3,1.5v135.9l-0.7,0.2c-0.2,0-0.3,0.1-0.5,0.1c-0.7,0.2-18.7,5.3-36.6,18.1
			c-24.8,17.7-38.1,41.4-38.1,68.7v51.4c-7,0.7-16.6,0.4-23.7-4.8c-7.6-5.6-11.4-16.6-11.4-32.6v-63.9c0-7-5.7-12.7-12.7-12.7H106
			H64.6H53c-6.3,0-12.6-2.4-17.7-6.7C27.8,197.5,24.2,187.2,25.8,176.9z"/>
	</g>
</g>
</svg>
