<?xml version="1.0" encoding="utf-8"?>
<!-- Generator: Adobe Illustrator 22.1.0, SVG Export Plug-In . SVG Version: 6.00 Build 0)  -->
<svg version="1.1" id="Capa_1" xmlns="http://www.w3.org/2000/svg" xmlns:xlink="http://www.w3.org/1999/xlink" x="0px" y="0px"
	 viewBox="0 0 573.6 621.6" style="enable-background:new 0 0 573.6 621.6;" xml:space="preserve">
<style type="text/css">
	.st0{opacity:0.16;fill:url(#SVGID_1_);}
	.st1{fill:#EBEBEB;}
	.st2{fill:#D6D6D6;}
	.st3{fill:#E6E6E6;}
	.st4{fill:#454545;}
	.st5{fill:#CACACA;}
	.st6{opacity:0.2;fill:url(#SVGID_2_);}
	.st7{fill:#F8FAFF;}
	.st8{fill:#D8D8D8;}
	.st9{fill:#7C7C7B;}
</style>
<g>
	<g>
		<g>
			<linearGradient id="SVGID_1_" gradientUnits="userSpaceOnUse" x1="201.4771" y1="560.8182" x2="328.4873" y2="340.83">
				<stop  offset="0" style="stop-color:#454545"/>
				<stop  offset="1" style="stop-color:#454545;stop-opacity:0"/>
			</linearGradient>
			<polygon class="st0" points="47.9,471.3 226.3,575.2 482,430.5 306.1,327.9 			"/>
			<path class="st1" d="M244.2,120.9l-149-85.7c-11.8-6.8-28.4-3.7-39.1,6.6c-4.9,3.4-8.3,9.1-8.3,15.9l0.6,401.4
				c0,8,4.3,15.4,11.2,19.4l146.6,85.6l1.9,1.3c0.3,0.1,0.6,0.2,0.9,0.2c8,4.2,17,3,23.5-1.7c12.8-5,23-15.8,23-26.7V140.4
				C255.5,132.4,251.2,124.9,244.2,120.9z M234.3,534.3L55.7,432.5V91.7l178.6,104.2V534.3z"/>
			<g>
				<path class="st2" d="M123,493.1v-0.5c0-7.2,7.8-11.7,14-8h0c0.2,0.1,0.5,0.3,0.7,0.4c-0.6-0.4-1.2-0.8-1.9-1.2h0
					c-6.2-3.7-14,0.8-14,8v0.5c0,9.6,4.9,18.6,13.1,23.8C127.5,510.8,123,502.3,123,493.1z"/>
				<path class="st3" d="M135.5,516.5c6.2,3.8,14.2-0.6,14.2-7.9v-0.5c0-9.2-4.5-17.8-12-23c-0.2-0.1-0.5-0.3-0.7-0.4h0
					c-6.2-3.7-14,0.8-14,8v0.5c0,9.2,4.5,17.7,11.9,23c0.1,0.1,0.2,0.1,0.3,0.2L135.5,516.5z"/>
			</g>
			<g>
				<g>
					<path class="st4" d="M175.1,135.9c-0.2,0-0.5-0.1-0.7-0.2l-50-28.6c-0.6-0.4-0.9-1.2-0.5-1.8c0.4-0.6,1.2-0.9,1.8-0.5l50,28.6
						c0.6,0.4,0.9,1.2,0.5,1.8C176,135.7,175.5,135.9,175.1,135.9z"/>
				</g>
				<g>
					<path class="st4" d="M119.5,104.9c1.7,0,1.7-2.7,0-2.7C117.8,102.3,117.8,104.9,119.5,104.9L119.5,104.9z"/>
				</g>
			</g>
			<path class="st5" d="M245.8,208.9v44.9c0,0,1.6,3.2,7.1,0v-46.5C252.9,207.3,245.8,204.9,245.8,208.9z"/>
		</g>
	</g>
	<g>
		
			<linearGradient id="SVGID_2_" gradientUnits="userSpaceOnUse" x1="-309.7064" y1="485.9909" x2="-254.1432" y2="578.4637" gradientTransform="matrix(-1 0 0 1 121.939 0)">
			<stop  offset="0" style="stop-color:#454545;stop-opacity:0"/>
			<stop  offset="1" style="stop-color:#454545"/>
		</linearGradient>
		<polygon class="st6" points="542.1,552.3 387.4,460.3 265.7,512.1 431.8,611.2 		"/>
		<g>
			<g>
				<path class="st7" d="M431.4,611.4v-353c0-20,10.5-38.6,27.6-48.9l0.8-0.5c18.2-11,31.9-11.2,44.6,6c-8.3-12.4-18.1-23.6-31.3-32
					L351,112.5c-17.2-9.9-38.2-10.3-55.7-0.9l0,0c-18.5,10-30,29.3-30,50.3v350.4L431.4,611.4z"/>
				<polygon class="st8" points="410.6,270.9 278.3,193.4 278.3,182.9 410.6,260.4 				"/>
				<polygon class="st8" points="410.6,314.8 278.3,237.4 278.3,226.9 410.6,304.3 				"/>
				<polygon class="st8" points="410.6,409.4 278.3,332 278.3,321.5 410.6,399 				"/>
				<polygon class="st8" points="410.6,365.5 278.3,288 278.3,277.6 410.6,355 				"/>
			</g>
			<g>
				<polygon class="st9" points="373.8,447.9 401,463.6 401,436.4 373.8,420.6 				"/>
				<polygon class="st9" points="287.4,398 314.7,413.8 314.7,386.5 287.4,370.8 				"/>
				<path class="st9" d="M369.2,413.5l36.4,21v36.4l-36.4-21V413.5 M364.7,406.3v4.5v36.4v4.5l4.5,2.6l36.4,21l4.5,2.6v-4.5v-36.4
					v-4.5l-4.5-2.6l-36.4-21L364.7,406.3L364.7,406.3z"/>
				<polygon class="st9" points="287.4,483.5 314.7,499.2 314.7,472 287.4,456.2 				"/>
				<path class="st9" d="M282.9,449l36.4,21v36.4l-36.4-21V449 M278.3,441.9v4.5v36.4v4.5l4.5,2.6l36.4,21l4.5,2.6V509v-36.4v-4.5
					l-4.5-2.6l-36.4-21L278.3,441.9L278.3,441.9z"/>
				<polygon class="st9" points="354.7,467.8 401,494.5 401,484.5 354.7,457.8 				"/>
				<polygon class="st9" points="340.1,477.6 354.7,486 354.7,476.9 340.1,468.5 				"/>
				<polygon class="st9" points="322,448 336.5,456.4 336.5,447.3 322,438.9 				"/>
				<polygon class="st9" points="391.9,499.3 410.1,509.8 410.1,499.8 391.9,489.3 				"/>
				<polygon class="st9" points="366.5,484.6 384.7,495.1 384.7,485.1 366.5,474.6 				"/>
				<polygon class="st9" points="312.9,453.6 322.9,459.4 322.9,449.4 312.9,443.6 				"/>
				<polygon class="st9" points="354.7,497.8 364.7,503.5 364.7,493.5 354.7,487.8 				"/>
				<polygon class="st9" points="298.3,437.1 308.3,442.8 308.3,432.8 298.3,427.1 				"/>
				<polygon class="st9" points="364.7,513.5 374.7,519.3 374.7,509.3 364.7,503.5 				"/>
				<polygon class="st9" points="354.7,518.7 364.7,524.5 364.7,514.5 354.7,508.7 				"/>
				<polygon class="st9" points="334.7,507.1 344.7,512.9 344.7,492 334.7,486.2 				"/>
				<polygon class="st9" points="344.7,522.9 354.7,528.7 354.7,518.7 344.7,512.9 				"/>
				<polygon class="st9" points="385.6,525.6 395.6,531.4 395.6,521.4 385.6,515.6 				"/>
				<polygon class="st9" points="385.6,546.5 395.6,552.3 395.6,542.3 385.6,536.5 				"/>
				<polygon class="st9" points="375.6,509.8 385.6,515.6 385.6,505.6 375.6,499.8 				"/>
				<polygon class="st9" points="375.6,530.8 385.6,536.5 385.6,526.5 375.6,520.8 				"/>
				<polygon class="st9" points="336.5,400 354.7,410.5 354.7,400.5 336.5,390 				"/>
				<polygon class="st9" points="346.5,443.1 346.5,395.8 336.5,390 336.5,437.3 				"/>
				<polygon class="st9" points="278.3,433.7 296.5,444.2 296.5,426 278.3,415.5 				"/>
				<polygon class="st9" points="336.5,437.3 354.7,447.8 354.7,437.8 336.5,427.3 				"/>
				<path class="st9" d="M282.9,363.6l36.4,21v36.4l-36.4-21V363.6 M278.3,356.4v4.5v36.4v4.5l4.5,2.6l36.4,21l4.5,2.6v-4.5v-36.4
					v-4.5l-4.5-2.6l-36.4-21L278.3,356.4L278.3,356.4z"/>
			</g>
		</g>
	</g>
	<polygon class="st7" points="76.2,444.2 76.2,103.7 234,196 234,534 	"/>
	<g>
		<polygon class="st9" points="180.9,402.1 202.1,414.4 202.1,393.2 180.9,380.9 		"/>
		<polygon class="st9" points="113.7,363.4 134.9,375.6 134.9,354.4 113.7,342.1 		"/>
		<path class="st9" d="M177.3,375.3l28.3,16.3v28.3l-28.3-16.3V375.3 M173.8,369.8v3.5v28.3v3.5l3.5,2l28.3,16.3l3.5,2V422v-28.3
			v-3.5l-3.5-2l-28.3-16.3L173.8,369.8L173.8,369.8z"/>
		<polygon class="st9" points="113.7,429.8 134.9,442 134.9,420.8 113.7,408.6 		"/>
		<path class="st9" d="M110.2,403l28.3,16.3v28.3l-28.3-16.3V403 M106.6,397.4v3.5v28.3v3.5l3.5,2l28.3,16.3l3.5,2v-3.5v-28.3v-3.5
			l-3.5-2l-28.3-16.3L106.6,397.4L106.6,397.4z"/>
		<polygon class="st9" points="166,417.6 202.1,438.4 202.1,430.6 166,409.8 		"/>
		<polygon class="st9" points="154.7,425.2 166,431.7 166,424.6 154.7,418.1 		"/>
		<polygon class="st9" points="140.6,402.2 151.9,408.7 151.9,401.6 140.6,395.1 		"/>
		<polygon class="st9" points="195,442.1 209.1,450.2 209.1,442.5 195,434.3 		"/>
		<polygon class="st9" points="175.2,430.7 189.3,438.8 189.3,431 175.2,422.9 		"/>
		<polygon class="st9" points="133.5,406.6 141.3,411.1 141.3,403.3 133.5,398.8 		"/>
		<polygon class="st9" points="166,440.9 173.8,445.4 173.8,437.6 166,433.1 		"/>
		<polygon class="st9" points="122.2,393.7 130,398.2 130,390.4 122.2,385.9 		"/>
		<polygon class="st9" points="173.8,453.2 181.6,457.7 181.6,449.9 173.8,445.4 		"/>
		<polygon class="st9" points="166,457.2 173.8,461.6 173.8,453.9 166,449.4 		"/>
		<polygon class="st9" points="150.5,448.2 158.2,452.7 158.2,436.4 150.5,431.9 		"/>
		<polygon class="st9" points="158.2,460.4 166,464.9 166,457.2 158.2,452.7 		"/>
		<polygon class="st9" points="190,462.6 197.8,467 197.8,459.3 190,454.8 		"/>
		<polygon class="st9" points="190,478.8 197.8,483.3 197.8,475.5 190,471 		"/>
		<polygon class="st9" points="182.3,450.3 190,454.8 190,447 182.3,442.5 		"/>
		<polygon class="st9" points="182.3,466.5 190,471 190,463.3 182.3,458.8 		"/>
		<polygon class="st9" points="151.9,364.9 166,373.1 166,365.3 151.9,357.1 		"/>
		<polygon class="st9" points="159.6,398.4 159.6,361.6 151.9,357.1 151.9,393.9 		"/>
		<polygon class="st9" points="106.6,391.1 120.8,399.2 120.8,385.1 106.6,376.9 		"/>
		<polygon class="st9" points="151.9,393.9 166,402 166,394.3 151.9,386.1 		"/>
		<path class="st9" d="M110.2,336.6l28.3,16.3v28.3l-28.3-16.3V336.6 M106.6,331v3.5v28.3v3.5l3.5,2l28.3,16.3l3.5,2v-3.5v-28.3
			v-3.5l-3.5-2L110.2,333L106.6,331L106.6,331z"/>
	</g>
	<polygon class="st8" points="238.6,381.4 106.3,304 106.3,293.5 238.6,371 	"/>
	<polygon class="st8" points="238.6,335.4 106.3,258 106.3,247.5 238.6,325 	"/>
	<polygon class="st8" points="238.6,289.4 106.3,212 106.3,201.5 238.6,279 	"/>
	<polygon class="st8" points="238.6,243.4 106.3,166 106.3,155.5 238.6,233 	"/>
</g>
</svg>
