<?xml version="1.0" encoding="utf-8"?>
<!-- Generator: Adobe Illustrator 23.0.1, SVG Export Plug-In . SVG Version: 6.00 Build 0)  -->
<svg version="1.1" id="Capa_1" xmlns="http://www.w3.org/2000/svg" xmlns:xlink="http://www.w3.org/1999/xlink" x="0px" y="0px"
	 viewBox="0 0 450 611" style="enable-background:new 0 0 450 611;" xml:space="preserve">
<style type="text/css">
	.st0{display:none;}
	.st1{display:inline;fill:none;stroke:#000333;stroke-width:10;stroke-miterlimit:10;}
	.st2{display:inline;fill:none;stroke:#000333;stroke-width:10;stroke-linecap:round;stroke-miterlimit:10;}
	.st3{fill:#6C63EE;}
</style>
<g class="st0">
	<path class="st1" d="M533.4,506.5h-651.2c-22.9,0-41.4-18.6-41.4-41.4V109.3c0-22.9,18.6-41.4,41.4-41.4h651.2
		c22.9,0,41.4,18.6,41.4,41.4v355.8C574.9,488,556.3,506.5,533.4,506.5z"/>
	<line class="st1" x1="-159.2" y1="459.1" x2="574.9" y2="459.1"/>
	<line class="st2" x1="103.3" y1="588.2" x2="312.4" y2="588.2"/>
	<path class="st1" d="M207.8,209.6"/>
	<polyline class="st2" points="207.8,588.2 207.8,584.6 207.8,506.5 	"/>
</g>
<g>
	<g>
		<path class="st3" d="M376.1,601.6H27.5c-8.3,0-15-6.7-15-15V26c0-8.3,6.7-15,15-15h348.6c8.3,0,15,6.7,15,15v171.1
			c0,8.3-6.7,15-15,15h-33.8v312.2l45.2,52.5c3.8,4.4,4.7,10.7,2.3,16C387.3,598.2,382,601.6,376.1,601.6z M42.5,571.6h300.9
			l-27.5-31.9c-2.3-2.7-3.6-6.2-3.6-9.8V197.1c0-8.3,6.7-15,15-15h33.8V41H42.5V571.6z"/>
	</g>
	<g>
		<path class="st3" d="M376.1,601.6c-3.5,0-6.9-1.2-9.8-3.6c-6.3-5.4-7-14.9-1.6-21.2l45.2-52.5V212.1h-33.8c-8.3,0-15-6.7-15-15
			s6.7-15,15-15h48.8c8.3,0,15,6.7,15,15v332.8c0,3.6-1.3,7.1-3.6,9.8l-48.8,56.7C384.5,599.8,380.3,601.6,376.1,601.6z"/>
	</g>
	<g>
		<path class="st3" d="M376.1,601.6c-4.2,0-8.4-1.8-11.4-5.2l-48.8-56.7c-2.3-2.7-3.6-6.2-3.6-9.8V197.1c0-8.3,6.7-15,15-15h48.8
			c8.3,0,15,6.7,15,15s-6.7,15-15,15h-33.8v312.2l45.2,52.5c5.4,6.3,4.7,15.8-1.6,21.2C383.1,600.4,379.6,601.6,376.1,601.6z"/>
	</g>
</g>
</svg>
