<?xml version="1.0" encoding="utf-8"?>
<!-- Generator: Adobe Illustrator 23.0.1, SVG Export Plug-In . SVG Version: 6.00 Build 0)  -->
<svg version="1.1" id="Capa_1" xmlns="http://www.w3.org/2000/svg" xmlns:xlink="http://www.w3.org/1999/xlink" x="0px" y="0px"
	 viewBox="0 0 26 26" style="enable-background:new 0 0 26 26;" xml:space="preserve">
<style type="text/css">
	.st0{fill:#464646;}
</style>
<path class="st0" d="M25.7,24.4l-8.3-8.3c1.4-1.7,2.2-3.9,2.2-6.3c0-5.4-4.4-9.8-9.8-9.8S0,4.4,0,9.8s4.4,9.8,9.8,9.8
	c2.4,0,4.6-0.8,6.3-2.2l8.3,8.3c0.2,0.2,0.4,0.3,0.7,0.3s0.5-0.1,0.7-0.3C26.1,25.3,26.1,24.7,25.7,24.4z M1.9,9.8
	c0-4.4,3.6-7.9,7.9-7.9s7.9,3.6,7.9,7.9c0,4.4-3.6,7.9-7.9,7.9S1.9,14.2,1.9,9.8z"/>
</svg>
