<?xml version="1.0" encoding="utf-8"?>
<!-- Generator: Adobe Illustrator 23.0.1, SVG Export Plug-In . SVG Version: 6.00 Build 0)  -->
<svg version="1.1" id="Layer_1" xmlns="http://www.w3.org/2000/svg" xmlns:xlink="http://www.w3.org/1999/xlink" x="0px" y="0px"
	 viewBox="0 0 512 512" style="enable-background:new 0 0 512 512;" xml:space="preserve">
<style type="text/css">
	.st0{fill:#7063F3;}
</style>
<g id="User">
	<g>
		<path class="st0" d="M475.8,368c-15.1-15.1-40.4-28.3-80.3-48.2c-20.1-10-53.5-26.8-61.7-34.4c34-41.7,53.7-88.9,53.7-130.1
			c0-28,0-62.8-15.7-93.9C357.7,33.3,326.2,0,256,0c-70.2,0-101.8,33.3-115.9,61.3c-15.7,31.1-15.7,65.9-15.7,93.9
			c0,41.3,19.7,88.4,53.7,130.1c-8.1,7.7-41.6,24.4-61.7,34.4c-39.9,19.9-65.1,33.1-80.3,48.2C2.7,401.5,0.2,457.7,0,468.7
			c-0.2,11.4,4.2,22.4,12.3,30.6c8,8.1,19,12.7,30.4,12.7h426.7c11.4,0,22.4-4.6,30.4-12.7c8-8.2,12.4-19.2,12.3-30.6
			C511.8,457.8,509.3,401.5,475.8,368z M476.9,476.8c-2,2-4.7,3.2-7.6,3.2H42.7c-2.8,0-5.6-1.2-7.6-3.2c-2-2-3.1-4.8-3.1-7.6
			c0.1-5.4,1.6-53.2,26.8-78.5c11.7-11.7,36.1-24.3,72-42.3c38.3-19.1,59.5-30.5,69.3-39.8l21.6-20.4l-18.8-23
			c-29.5-36.3-46.5-76.4-46.5-109.9c0-25.9,0-55.2,12.3-79.5c14.7-29,44-43.8,87.3-43.8c43.3,0,72.6,14.7,87.3,43.7
			c12.3,24.3,12.3,53.6,12.3,79.5c0,33.6-16.9,73.6-46.5,109.9l-18.8,23l21.6,20.4c9.8,9.2,31,20.6,69.3,39.8
			c35.9,17.9,60.3,30.6,72,42.3c20.6,20.5,26.5,59,26.8,78.5C480,472,478.9,474.8,476.9,476.8z"/>
	</g>
</g>
</svg>
