<?xml version="1.0" encoding="utf-8"?>
<!-- Generator: Adobe Illustrator 23.0.1, SVG Export Plug-In . SVG Version: 6.00 Build 0)  -->
<svg version="1.1" id="Capa_1" xmlns="http://www.w3.org/2000/svg" xmlns:xlink="http://www.w3.org/1999/xlink" x="0px" y="0px"
	 viewBox="0 0 512 361.4" style="enable-background:new 0 0 512 361.4;" xml:space="preserve">
<style type="text/css">
	.st0{fill:#7063F3;}
</style>
<g>
	<g>
		<path class="st0" d="M466.8,0H45.2C21.1,0,0,21.1,0,45.2v271.1c0,24.1,21.1,45.2,45.2,45.2h421.6c24.1,0,45.2-21.1,45.2-45.2V45.2
			C512,21.1,490.9,0,466.8,0z M45.2,30.1h421.6c9,0,15.1,6,15.1,15.1v24.1H30.1V45.2C30.1,36.1,36.1,30.1,45.2,30.1L45.2,30.1z
			 M481.9,99.4v24.1H30.1V99.4H481.9z M466.8,331.3H45.2c-9,0-15.1-6-15.1-15.1V153.6h451.8v162.6
			C481.9,325.3,475.9,331.3,466.8,331.3z"/>
		<path class="st0" d="M78.3,222.9h78.3c9,0,15.1-6,15.1-15.1c0-9-6-15.1-15.1-15.1H78.3c-9,0-15.1,6-15.1,15.1
			C63.2,216.8,69.3,222.9,78.3,222.9L78.3,222.9z"/>
		<path class="st0" d="M262,256H78.3c-9,0-15.1,6-15.1,15.1c0,9,6,15.1,15.1,15.1H262c6,0,15.1-6,15.1-15.1
			C277.1,262,271.1,256,262,256L262,256z"/>
	</g>
</g>
</svg>
