<?xml version="1.0" encoding="utf-8"?>
<!-- Generator: Adobe Illustrator 23.0.1, SVG Export Plug-In . SVG Version: 6.00 Build 0)  -->
<svg version="1.1" id="Capa_1" xmlns="http://www.w3.org/2000/svg" xmlns:xlink="http://www.w3.org/1999/xlink" x="0px" y="0px"
	 viewBox="0 0 433.7 266.5" style="enable-background:new 0 0 433.7 266.5;" xml:space="preserve">
<style type="text/css">
	.st0{opacity:0.5;fill:#FFFFFF;}
	.st1{fill:#F2F2F2;}
</style>
<g>
	<g>
		<path class="st0" d="M168,129.5c0.8-39.1,19.6-75.3,48.9-99.4C194.3,12.1,165.7,0.8,135.6,0C61-1.5,2.3,58,0.1,129.5
			c-2.3,73,55.7,136.3,131,136.3c32.4,0,62.5-10.5,85.8-29.4C186,211.6,166.4,172.4,168,129.5z"/>
		<path class="st0" d="M302.7,0.8c-33.1-0.8-62.5,10.5-85.8,30.1c29.4,24.1,48.9,61,48.9,103.1c0,41.4-18.8,78.3-48.9,103.1
			c22.6,18.1,50.4,29.4,82.1,29.4c75.3,0.8,134.8-58.7,134.8-132.5C433.7,58,372.7,1.5,302.7,0.8z"/>
		<path class="st1" d="M265.8,134c0-42.9-19.6-79.8-48.9-103.1C187.5,55,168.7,90.4,168,130.3c-1.5,42.9,18.1,81.3,48.9,106.9
			C247,212.3,265.8,175.4,265.8,134z"/>
	</g>
</g>
</svg>
