<?xml version="1.0" encoding="utf-8"?>
<!-- Generator: Adobe Illustrator 23.0.1, SVG Export Plug-In . SVG Version: 6.00 Build 0)  -->
<svg version="1.1" id="Capa_1" xmlns="http://www.w3.org/2000/svg" xmlns:xlink="http://www.w3.org/1999/xlink" x="0px" y="0px"
	 viewBox="0 0 468 561" style="enable-background:new 0 0 468 561;" xml:space="preserve">
<style type="text/css">
	.st0{fill:#7063F3;}
</style>
<g>
	<path class="st0" d="M455.3,468.9c0.3-0.1,0.5-0.3,0.8-0.5c0.2-0.1,0.3-0.2,0.5-0.3c0.1-0.1,0.2-0.2,0.3-0.2c1.4-1,2.6-2.2,3.5-3.5
		c0.1-0.1,0.2-0.2,0.2-0.3c0.1-0.1,0.1-0.2,0.2-0.3c0.9-1.4,1.6-3,2-4.7c0-0.1,0.1-0.2,0.1-0.3c0-0.2,0.1-0.4,0.1-0.6
		c0.1-0.3,0.1-0.6,0.1-0.9c0-0.1,0-0.2,0-0.4c0-0.4,0.1-0.8,0.1-1.2c0,0,0,0,0-0.1V25.3c0,0,0-0.1,0-0.1c0-0.1,0-0.2,0-0.4
		c0-0.3,0-0.6-0.1-0.9c0-0.1,0-0.2,0-0.3c0-0.4-0.1-0.8-0.2-1.2c0,0,0,0,0,0c0,0,0-0.1,0-0.1c-0.1-0.3-0.2-0.7-0.2-1
		c0-0.1-0.1-0.2-0.1-0.3c-0.1-0.4-0.2-0.7-0.4-1.1c0-0.1,0-0.1-0.1-0.2c-0.1-0.3-0.3-0.6-0.4-0.9c-0.1-0.1-0.1-0.2-0.2-0.4
		c-0.1-0.3-0.3-0.5-0.4-0.7c-0.1-0.1-0.1-0.2-0.2-0.3c-0.2-0.3-0.4-0.6-0.6-0.9c-0.1-0.1-0.1-0.2-0.2-0.3c-0.2-0.2-0.3-0.4-0.5-0.7
		c-0.1-0.1-0.1-0.2-0.2-0.2c-0.2-0.3-0.5-0.6-0.8-0.8c0,0-0.1-0.1-0.1-0.1c-0.2-0.2-0.5-0.5-0.8-0.7c-0.1-0.1-0.2-0.1-0.2-0.2
		c-0.2-0.2-0.5-0.4-0.7-0.5c-0.1-0.1-0.1-0.1-0.2-0.2c0,0-0.1,0-0.1-0.1c-0.3-0.2-0.6-0.4-0.9-0.5c-0.1,0-0.2-0.1-0.2-0.1
		c-0.3-0.1-0.5-0.3-0.8-0.4c-0.1-0.1-0.2-0.1-0.3-0.2c-0.3-0.1-0.6-0.2-0.9-0.4c-0.1,0-0.1-0.1-0.2-0.1c-0.3-0.1-0.7-0.2-1-0.3
		c-0.1,0-0.2-0.1-0.4-0.1c-0.3-0.1-0.6-0.1-0.8-0.2c-0.1,0-0.2,0-0.3-0.1c-0.4-0.1-0.8-0.1-1.1-0.2c-0.1,0-0.2,0-0.3,0
		c-0.3,0-0.7,0-1,0c-0.1,0-0.1,0-0.2,0H122.9c-8.3,0-15,6.7-15,15v228.5H26.5c-8.3,0-15,6.7-15,15s6.7,15,15,15h81.4v171.9
		c0,8.3,6.7,15,15,15h101.5v69.8c0,5,2.5,9.7,6.6,12.4c2.5,1.7,5.4,2.6,8.4,2.6c1.9,0,3.8-0.4,5.6-1.1l208.8-84.8c0,0,0,0,0.1,0
		c0.4-0.1,0.7-0.3,1.1-0.5C455.1,469,455.2,469,455.3,468.9z M137.9,283.8h33.2l-23.6,28.5c-5.3,6.4-4.4,15.8,2,21.1
		c2.8,2.3,6.2,3.5,9.6,3.5c4.3,0,8.6-1.8,11.6-5.4l44-53.1c5-6,4.5-14.8-1.1-20.3l-44-43.1c-5.9-5.8-15.4-5.7-21.2,0.2
		c-5.8,5.9-5.7,15.4,0.2,21.2l17.7,17.4h-28.4V40.3h233.5L233.8,96.2c-5.7,2.3-9.4,7.8-9.4,13.9v330.6h-86.5V283.8z M254.4,455.7
		V120.2l178.8-72.6v398l-178.8,72.6V455.7z"/>
	<path class="st0" d="M276,314.7c-16.1,0-16.1,25,0,25C292.1,339.7,292.1,314.7,276,314.7z"/>
</g>
</svg>
