<?xml version="1.0" encoding="utf-8"?>
<!-- Generator: Adobe Illustrator 23.0.1, SVG Export Plug-In . SVG Version: 6.00 Build 0)  -->
<svg version="1.1" id="Capa_1" xmlns="http://www.w3.org/2000/svg" xmlns:xlink="http://www.w3.org/1999/xlink" x="0px" y="0px"
	 viewBox="0 0 867.6 266.3" style="enable-background:new 0 0 867.6 266.3;" xml:space="preserve">
<style type="text/css">
	.st0{fill:#FFFFFF;}
</style>
<g>
	<g>
		<path class="st0" d="M2.3,4.6c2.3,0,4.6-1.2,8.1-1.2c33.4,0,66.8,0,100.2,0c4.6,0,9.2,0,12.7,1.2c13.8,2.3,21.9,9.2,24.2,23
			c10.4,48.4,19.6,95.6,30,144c0,2.3,1.2,3.5,2.3,6.9c6.9-17.3,12.7-33.4,19.6-48.4c16.1-40.3,31.1-79.5,46.1-119.8
			c2.3-4.6,4.6-6.9,9.2-6.9c19.6,0,40.3,0,59.9,0c2.3,0,4.6,0,6.9,0c-1.2,3.5-2.3,5.8-3.5,8.1c-34.6,80.7-69.1,161.3-103.7,243.1
			c-2.3,4.6-4.6,6.9-10.4,6.9c-21.9,0-43.8,0-66.8,0c-4.6-16.1-9.2-32.3-13.8-49.5C107.2,155.5,92.2,100.2,76,43.8
			c-1.2-4.6-3.5-8.1-8.1-9.2C47.2,26.5,26.5,18.4,4.6,10.4c-1.2,0-3.5,0-4.6,0C2.3,8.1,2.3,6.9,2.3,4.6z"/>
		<path class="st0" d="M584.1,0c12.7,2.3,25.3,4.6,38,8.1c3.5,1.2,5.8,2.3,9.2,3.5c-3.5,18.4-5.8,36.9-9.2,54.2
			c-11.5-3.5-21.9-8.1-32.3-9.2c-13.8-1.2-27.7-1.2-41.5-1.2c-2.3,0-5.8,1.2-8.1,2.3c-8.1,3.5-15,6.9-16.1,16.1s5.8,15,12.7,19.6
			c9.2,5.8,19.6,10.4,28.8,16.1c8.1,4.6,17.3,9.2,25.3,15c36.9,26.5,41.5,72.6,10.4,106c-17.3,18.4-39.2,27.7-63.4,32.3
			c-36.9,6.9-73.7,3.5-110.6-6.9c-2.3-1.2-3.5-1.2-6.9-2.3c3.5-18.4,6.9-38,9.2-57.6c6.9,3.5,13.8,5.8,21.9,8.1
			c21.9,8.1,44.9,10.4,68,6.9c6.9-1.2,12.7-4.6,18.4-8.1c11.5-8.1,11.5-21.9,1.2-30c-6.9-5.8-15-10.4-23-15
			c-13.8-8.1-27.7-15-40.3-24.2c-32.3-24.2-35.7-64.5-9.2-95.6c18.4-20.7,42.6-31.1,69.1-35.7c4.6-1.2,10.4-2.3,15-2.3
			C562.3,0,573.8,0,584.1,0z"/>
		<path class="st0" d="M811.1,4.6c18.4,85.3,38,170.5,56.5,256.9c-4.6,0-9.2,0-13.8,0c-15,0-28.8,0-43.8,0c-6.9,0-8.1-2.3-9.2-8.1
			c-2.3-10.4-4.6-19.6-6.9-30c-11.5,0-23,0-33.4,0c-17.3,0-33.4,0-50.7,0c-4.6,0-5.8,1.2-8.1,5.8c-3.5,9.2-6.9,19.6-11.5,28.8
			c-1.2,2.3-3.5,4.6-4.6,4.6c-23,0-46.1,0-70.3,0c1.2-2.3,2.3-4.6,2.3-6.9C651,180.9,684.4,104.8,716.6,30
			c6.9-16.1,18.4-24.2,35.7-24.2C773.1,4.6,791.5,4.6,811.1,4.6z M782.3,169.4c-6.9-31.1-13.8-62.2-20.7-93.3h-1.2
			c-11.5,31.1-24.2,62.2-35.7,93.3C744.3,169.4,762.7,169.4,782.3,169.4z"/>
		<path class="st0" d="M420.5,4.6c-15,85.3-28.8,170.5-43.8,255.8c-23,0-46.1,0-70.3,0c2.3-15,4.6-30,8.1-46.1
			c11.5-68,23-137.1,34.6-205.1c0-3.5,1.2-5.8,4.6-5.8c20.7,0,42.6,0,63.4,0C419.4,4.6,419.4,4.6,420.5,4.6z"/>
	</g>
</g>
</svg>
