<?xml version="1.0" encoding="utf-8"?>
<!-- Generator: Adobe Illustrator 23.0.1, SVG Export Plug-In . SVG Version: 6.00 Build 0)  -->
<svg version="1.1" id="Layer_1" xmlns="http://www.w3.org/2000/svg" xmlns:xlink="http://www.w3.org/1999/xlink" x="0px" y="0px"
	 viewBox="0 0 512 512" style="enable-background:new 0 0 512 512;" xml:space="preserve">
<style type="text/css">
	.st0{fill:#6C63EE;}
</style>
<g>
	<g>
		<path class="st0" d="M256,0c-59.1,0-107.2,48.1-107.2,107.2S196.9,214.3,256,214.3s107.2-48.1,107.2-107.2S315.1,0,256,0z
			 M256,178.6c-39.4,0-71.4-32-71.4-71.4s32-71.4,71.4-71.4s71.4,32,71.4,71.4C327.4,146.6,295.4,178.6,256,178.6z"/>
	</g>
</g>
<g>
	<g>
		<path class="st0" d="M345.3,267.9H166.7c-42.7,0-77.4,34.7-77.4,77.4v148.8c0,9.9,8,17.9,17.9,17.9h297.7c9.9,0,17.9-8,17.9-17.9
			V345.3C422.7,302.6,388,267.9,345.3,267.9z M238.1,476.3H125v-131c0-23,18.7-41.7,41.7-41.7h71.4L238.1,476.3L238.1,476.3z
			 M387,476.3H273.9V303.6h71.4c23,0,41.7,18.7,41.7,41.7L387,476.3L387,476.3z"/>
	</g>
</g>
<g>
	<g>
		<path class="st0" d="M342.9,384.6h-25c-9.9,0-17.9,8-17.9,17.9s8,17.9,17.9,17.9h25c9.9,0,17.9-8,17.9-17.9
			S352.8,384.6,342.9,384.6z"/>
	</g>
</g>
</svg>
