<?xml version="1.0" encoding="utf-8"?>
<!-- Generator: Adobe Illustrator 22.1.0, SVG Export Plug-In . SVG Version: 6.00 Build 0)  -->
<svg version="1.1" id="Capa_2" xmlns="http://www.w3.org/2000/svg" xmlns:xlink="http://www.w3.org/1999/xlink" x="0px" y="0px"
	 viewBox="0 0 858.7 381.8" style="enable-background:new 0 0 858.7 381.8;" xml:space="preserve">
<style type="text/css">
	.st0{fill:#FFFFFF;}
	.st1{fill:url(#SVGID_1_);}
	.st2{fill:url(#SVGID_2_);}
	.st3{fill:url(#SVGID_3_);}
	.st4{fill:url(#SVGID_4_);}
	.st5{fill:url(#SVGID_5_);}
	.st6{fill:url(#SVGID_6_);}
	.st7{fill:url(#SVGID_7_);}
</style>
<g>
	<path class="st0" d="M769.2,342.7H87.1c-30.6,0-55.4-24.8-55.4-55.4V90.1c0-30.6,24.8-55.4,55.4-55.4h682.1
		c30.6,0,55.4,24.8,55.4,55.4v197.1C824.6,317.9,799.8,342.7,769.2,342.7z"/>
	<g>
		<g>
			
				<linearGradient id="SVGID_1_" gradientUnits="userSpaceOnUse" x1="217.6253" y1="483.6484" x2="74.9227" y2="483.6484" gradientTransform="matrix(1 0 0 1 0 -298)">
				<stop  offset="0" style="stop-color:#F26567"/>
				<stop  offset="1" style="stop-color:#F6A054"/>
			</linearGradient>
			<path class="st1" d="M153.1,83L153.1,83c0,0-27.1,0-36.9,0l0,0c-18.5,0-33.4,15-33.4,33.4v138.5c0,18.5,15,33.4,33.4,33.4l0,0
				c18.5,0,33.4-15,33.4-33.4V219c0.6,0,1.2,0,1.8,0c37.6,0,68-30.4,68-68C219.3,114,189.8,83.9,153.1,83z"/>
		</g>
		<circle class="st0" cx="102.8" cy="200" r="11.8"/>
		<circle class="st0" cx="182.1" cy="156.6" r="10.7"/>
		<circle class="st0" cx="115.4" cy="124.2" r="10.7"/>
		<g>
			<polygon class="st0" points="103.4,200.9 102.4,199 180.9,156.8 114.7,124.7 115.6,122.8 185.6,156.7 			"/>
		</g>
	</g>
	<g>
		<g>
			<linearGradient id="SVGID_2_" gradientUnits="userSpaceOnUse" x1="819.3552" y1="189.4211" x2="224.1975" y2="189.4211">
				<stop  offset="0" style="stop-color:#F26567"/>
				<stop  offset="1" style="stop-color:#F6A054"/>
			</linearGradient>
			<path class="st2" d="M274,243.7c-2.2-2.2-3.4-5.3-3.4-9.3v-90.5c0-3.8,1-6.7,3.1-8.6c2.2-2.2,5-3.1,8.6-3.1h40.7
				c12.5,0,22,3.1,29,9.3c6.9,6.2,10.3,15.1,10.3,26.1c0,11.3-3.4,19.9-10.3,26.1c-6.9,6.2-16.5,9.3-29,9.3h-27.3v31.1
				c0,3.8-1.2,6.9-3.4,9.3c-2.2,2.2-5.3,3.4-9.3,3.4C279.3,247,276.1,245.8,274,243.7z M319.7,184c12.7,0,18.9-5.5,18.9-16.3
				c0-11-6.2-16.5-18.9-16.5h-24V184L319.7,184L319.7,184z"/>
		</g>
		<g>
			<linearGradient id="SVGID_3_" gradientUnits="userSpaceOnUse" x1="819.3552" y1="206.1482" x2="224.1975" y2="206.1482">
				<stop  offset="0" style="stop-color:#F26567"/>
				<stop  offset="1" style="stop-color:#F6A054"/>
			</linearGradient>
			<path class="st3" d="M435.9,173c5.5,5.7,8.4,14.4,8.4,25.9v36.7c0,3.6-1,6.2-3.1,8.4c-2.2,1.9-5,3.1-8.6,3.1
				c-3.4,0-6.2-1-8.4-3.1c-2.2-2.2-3.1-4.8-3.1-8.1v-1.2c-1.7,4.1-4.3,7.2-8.1,9.3c-3.8,2.2-8.1,3.4-13.2,3.4
				c-5.5,0-10.3-1.2-14.6-3.4c-4.3-2.2-7.9-5.3-10.3-9.1c-2.6-3.8-3.8-8.1-3.8-12.9c0-5.7,1.4-10.3,4.6-13.7
				c2.9-3.4,7.7-5.7,14.4-7.2c6.5-1.4,15.6-2.2,27.1-2.2h4.3V196c0-4.6-1-7.9-2.9-9.8c-1.9-2.2-5.3-3.1-10.1-3.1
				c-4.6,0-11.3,1.7-20.1,4.8c-2.4,1.2-4.6,1.7-6.2,1.7c-2.4,0-4.3-0.7-5.7-2.4c-1.4-1.7-2.2-3.8-2.2-6.5c0-2.2,0.5-3.8,1.4-5.3
				c1-1.4,2.6-2.6,4.8-3.8c3.8-2.2,8.4-3.6,13.9-4.8c5.5-1.2,10.8-1.7,16-1.7C421.8,164.6,430.4,167.5,435.9,173z M416.7,225.7
				c2.9-3.1,4.3-7.4,4.3-12.5v-2.6h-2.6c-8.6,0-14.9,0.7-18.4,2.2c-3.6,1.4-5.3,3.8-5.3,7.7c0,3.1,1,5.5,3.1,7.4
				c1.9,1.9,4.6,2.9,7.4,2.9C410,230.5,413.9,228.8,416.7,225.7z"/>
		</g>
		<g>
			<linearGradient id="SVGID_4_" gradientUnits="userSpaceOnUse" x1="819.3552" y1="220.7862" x2="224.1975" y2="220.7862">
				<stop  offset="0" style="stop-color:#F26567"/>
				<stop  offset="1" style="stop-color:#F6A054"/>
			</linearGradient>
			<path class="st4" d="M540.6,168.2c2.2,2.2,3.4,4.8,3.4,8.4v61.1c0,12.9-3.8,22.5-11.3,29.2c-7.4,6.5-18.4,9.8-32.8,9.8
				c-12,0-22-2.2-29.7-6.5c-1.9-1.2-3.4-2.4-4.6-4.1c-1.2-1.7-1.7-3.4-1.7-5.3c0-2.6,0.7-5,1.9-6.7c1.2-1.7,3.1-2.6,5.3-2.6
				c1.2,0,2.6,0.2,4.3,0.7c1.7,0.5,3.4,1,5,1.7c3.4,1.2,6.7,2.4,9.6,3.1s6,1.2,9.3,1.2c6.9,0,12-1.7,15.3-4.8c3.4-3.1,5-7.9,5-14.1
				v-8.6c-2.2,4.1-5.7,7.4-10.3,9.8c-4.6,2.4-9.6,3.6-15.3,3.6c-6.9,0-12.9-1.7-18.4-4.8c-5.3-3.4-9.6-7.9-12.5-13.9
				c-3.1-6-4.6-12.9-4.6-20.8c0-7.9,1.4-14.9,4.6-20.8c3.1-6,7.2-10.5,12.5-13.9c5.3-3.4,11.5-5,18.4-5c5.5,0,10.5,1.2,15.1,3.6
				c4.6,2.4,7.9,5.5,10.3,9.6v-1.9c0-3.4,1.2-6.2,3.4-8.1s5.3-3.1,8.9-3.1C535.3,164.9,538.2,166.1,540.6,168.2z M514.7,219.7
				c3.1-3.6,4.8-8.9,4.8-15.3c0-6.5-1.7-11.7-4.8-15.6c-3.1-3.8-7.7-5.5-13.4-5.5s-10.3,1.9-13.4,5.5c-3.4,3.8-4.8,8.9-4.8,15.6
				c0,6.5,1.7,11.7,4.8,15.3c3.4,3.6,7.7,5.5,13.4,5.5C507.1,225.2,511.6,223.3,514.7,219.7z"/>
		</g>
		<g>
			<linearGradient id="SVGID_5_" gradientUnits="userSpaceOnUse" x1="819.3552" y1="206.1482" x2="224.1975" y2="206.1482">
				<stop  offset="0" style="stop-color:#F26567"/>
				<stop  offset="1" style="stop-color:#F6A054"/>
			</linearGradient>
			<path class="st5" d="M624.2,173c5.5,5.7,8.4,14.4,8.4,25.9v36.7c0,3.6-1,6.2-3.1,8.4c-2.2,1.9-5,3.1-8.6,3.1
				c-3.4,0-6.2-1-8.4-3.1c-2.2-2.2-3.1-4.8-3.1-8.1v-1.2c-1.7,4.1-4.3,7.2-8.1,9.3c-3.8,2.2-8.1,3.4-13.2,3.4
				c-5.5,0-10.3-1.2-14.6-3.4c-4.3-2.2-7.9-5.3-10.3-9.1c-2.6-3.8-3.8-8.1-3.8-12.9c0-5.7,1.4-10.3,4.6-13.7
				c2.9-3.4,7.7-5.7,14.4-7.2c6.5-1.4,15.6-2.2,27.1-2.2h4.3V196c0-4.6-1-7.9-2.9-9.8c-1.9-2.2-5.3-3.1-10.1-3.1
				c-4.6,0-11.3,1.7-20.1,4.8c-2.4,1.2-4.6,1.7-6.2,1.7c-2.4,0-4.3-0.7-5.7-2.4s-2.2-3.8-2.2-6.5c0-2.2,0.5-3.8,1.4-5.3
				c1-1.4,2.6-2.6,4.8-3.8c3.8-2.2,8.4-3.6,13.9-4.8c5.5-1.2,10.8-1.7,16-1.7C610.1,164.6,618.7,167.5,624.2,173z M605,225.7
				c2.9-3.1,4.3-7.4,4.3-12.5v-2.6h-2.6c-8.6,0-14.9,0.7-18.4,2.2c-3.6,1.4-5.3,3.8-5.3,7.7c0,3.1,1,5.5,3.1,7.4
				c1.9,1.9,4.6,2.9,7.4,2.9C598.3,230.5,602.2,228.8,605,225.7z"/>
		</g>
		<g>
			
				<linearGradient id="SVGID_6_" gradientUnits="userSpaceOnUse" x1="819.3552" y1="487.0466" x2="224.1975" y2="487.0466" gradientTransform="matrix(1 0 0 1 0 -298)">
				<stop  offset="0" style="stop-color:#F26567"/>
				<stop  offset="1" style="stop-color:#F6A054"/>
			</linearGradient>
			<path class="st6" d="M654.4,244.1c-2.4-1.9-3.6-4.8-3.6-8.6v-92.9c0-3.8,1.2-6.7,3.6-8.6c2.4-1.9,5.3-2.9,8.9-2.9
				c3.4,0,6.2,1,8.6,2.9c2.4,1.9,3.6,4.8,3.6,8.6v92.9c0,3.8-1.2,6.7-3.6,8.6c-2.4,1.9-5.3,2.9-8.6,2.9
				C659.6,247,656.8,246.1,654.4,244.1z"/>
		</g>
		<g>
			<linearGradient id="SVGID_7_" gradientUnits="userSpaceOnUse" x1="819.3552" y1="205.8147" x2="224.1975" y2="205.8147">
				<stop  offset="0" style="stop-color:#F26567"/>
				<stop  offset="1" style="stop-color:#F6A054"/>
			</linearGradient>
			<path class="st7" d="M710.2,242.2c-6.5-3.4-11.3-8.1-14.6-14.4c-3.4-6.2-5.3-13.4-5.3-22c0-8.6,1.7-15.8,5.3-22
				c3.4-6.2,8.4-11,14.6-14.4c6.5-3.4,13.7-5,22.3-5c8.4,0,15.8,1.7,22.3,5c6.5,3.4,11.3,8.1,14.6,14.4c3.4,6.2,5.3,13.4,5.3,22
				c0,8.6-1.7,15.8-5.3,22c-3.4,6.2-8.4,11-14.6,14.4c-6.5,3.4-13.7,5-22.3,5C724.1,247.3,716.7,245.6,710.2,242.2z M750.2,205.8
				c0-7.7-1.4-13.4-4.6-17.2c-3.1-3.8-7.4-5.7-13.2-5.7c-12,0-17.7,7.7-17.7,22.8c0,15.3,6,22.8,17.7,22.8
				C744.2,228.8,750.2,221.1,750.2,205.8z"/>
		</g>
	</g>
</g>
</svg>
