<?xml version="1.0" encoding="utf-8"?>
<!-- Generator: Adobe Illustrator 23.0.1, SVG Export Plug-In . SVG Version: 6.00 Build 0)  -->
<svg version="1.1" id="Capa_1" xmlns="http://www.w3.org/2000/svg" xmlns:xlink="http://www.w3.org/1999/xlink" x="0px" y="0px"
	 viewBox="0 0 268.4 72.5" style="enable-background:new 0 0 268.4 72.5;" xml:space="preserve">
<style type="text/css">
	.st0{fill:#222560;}
	.st1{fill:#1F297E;}
	.st2{fill:#1E2D8E;}
	.st3{fill:#202772;}
	.st4{fill:#E60405;}
	.st5{fill:#F99D0C;}
	.st6{fill:#FE5D0D;}
</style>
<g>
	<g>
		<path class="st0" d="M0,18.3c0.3-0.1,0.8-0.1,1.1-0.1c4.7,0,9.5,0,14.2,0c0.6,0,1.2,0.1,1.9,0.1c1.9,0.2,3.1,1.3,3.5,3.2
			c1.4,6.8,2.8,13.6,4.3,20.4c0.1,0.3,0.1,0.5,0.2,1c0.9-2.4,1.9-4.7,2.7-6.9c2.2-5.6,4.5-11.3,6.6-17c0.3-0.7,0.6-0.9,1.3-0.9
			c2.8,0.1,5.6,0,8.5,0c0.3,0,0.6,0,1,0c-0.2,0.5-0.3,0.8-0.4,1C40,30.6,35.1,42.1,30.2,53.5c-0.3,0.8-0.7,0.9-1.4,0.9
			c-3.1-0.1-6.3,0-9.4,0c-0.6-2.3-1.3-4.6-2-7c-2.2-7.9-4.5-15.9-6.6-23.8c-0.2-0.6-0.5-1.1-1.1-1.3c-3-1.1-6-2.3-8.9-3.4
			c-0.2-0.1-0.4-0.1-0.6-0.1C0,18.8,0,18.5,0,18.3z"/>
		<path class="st1" d="M82.4,17.6c1.8,0.3,3.6,0.8,5.4,1.1c0.4,0.1,0.8,0.3,1.3,0.4c-0.5,2.6-0.9,5.2-1.3,7.7
			c-1.6-0.5-3.1-1.1-4.6-1.3c-1.9-0.2-3.9-0.1-5.8-0.1c-0.4,0-0.8,0.2-1.2,0.3c-1.2,0.5-2.2,1-2.4,2.4c-0.2,1.4,0.8,2.1,1.7,2.7
			c1.3,0.8,2.8,1.5,4.2,2.3c1.2,0.7,2.5,1.3,3.6,2.1c5.2,3.6,5.8,10.3,1.5,14.9c-2.4,2.6-5.5,3.9-8.9,4.6c-5.3,1-10.5,0.5-15.6-1
			c-0.3-0.1-0.6-0.2-0.9-0.4c0.5-2.7,0.9-5.3,1.4-8.1c1,0.4,2,0.9,3.1,1.2c3.1,1.2,6.4,1.6,9.7,1c0.9-0.2,1.9-0.6,2.6-1.1
			c1.6-1.1,1.7-3.1,0.2-4.3c-1-0.8-2.2-1.4-3.3-2c-1.9-1.1-4-2-5.7-3.4c-4.6-3.5-5-9.2-1.3-13.6c2.6-3,6-4.3,9.8-5
			c0.8-0.1,1.4-0.2,2.2-0.3C79.4,17.6,80.9,17.6,82.4,17.6z"/>
		<path class="st2" d="M114.5,18.2c2.7,12.1,5.3,24.2,8,36.3c-0.7,0-1.3,0-2,0c-2,0-4.1-0.1-6.1,0c-0.9,0.1-1.2-0.3-1.4-1.2
			c-0.2-1.4-0.6-2.8-0.9-4.3c-1.6,0-3.2,0-4.7,0c-2.4,0-4.7,0-7.2,0c-0.6,0-0.9,0.2-1.1,0.8c-0.5,1.4-1,2.7-1.6,4.1
			c-0.1,0.2-0.4,0.6-0.6,0.6c-3.3,0.1-6.5,0-10,0c0.2-0.3,0.3-0.6,0.4-0.9c4.7-10.7,9.4-21.3,14.1-32c1-2.3,2.5-3.4,5-3.4
			C109.1,18.2,111.8,18.2,114.5,18.2z M110.5,41.6c-1-4.5-1.9-8.9-2.9-13.3c-0.1,0-0.1,0-0.2,0c-1.7,4.4-3.4,8.8-5.2,13.3
			C105.1,41.6,107.7,41.6,110.5,41.6z"/>
		<path class="st3" d="M59.2,18.3c-2,12-4.1,24.1-6.2,36.2c-3.3,0-6.5,0-9.9,0c0.3-2.1,0.7-4.3,1.1-6.4c1.7-9.7,3.3-19.4,5-29.1
			c0.1-0.4,0.1-0.8,0.7-0.8c3,0,6,0,9,0C59,18.2,59.1,18.2,59.2,18.3z"/>
	</g>
	<g>
		<path class="st4" d="M210.8,28c0.2-8.6,4.3-16.3,10.6-21.5c-4.9-4-11.1-6.3-17.7-6.5c-16.1-0.3-28.9,12.6-29.3,28
			c-0.4,15.9,12.1,29.5,28.4,29.6c7.1,0.1,13.6-2.4,18.5-6.4C214.7,45.8,210.6,37.2,210.8,28z"/>
		<path class="st5" d="M240.1,0.1c-7.1-0.1-13.6,2.3-18.7,6.5C227.8,11.8,232,19.7,232,29c0,9-4.1,17-10.6,22.3
			c4.8,3.9,11,6.4,17.8,6.4c16.2,0.1,29.2-12.7,29.2-28.7C268.4,12.6,255.3,0.4,240.1,0.1z"/>
		<path class="st6" d="M232.1,29c0-9.3-4.2-17.3-10.6-22.4c-6.3,5.2-10.4,13-10.6,21.5c-0.2,9.2,3.9,17.7,10.6,23.2
			C227.9,46,232,38,232.1,29z"/>
		<path d="M186.1,71.9c-0.6,0-1.1,0-1.7,0c0-1.5,0-2.9,0-4.3c0-1.4-0.9-2.1-2.2-1.8c-0.9,0.2-1.3,0.8-1.3,1.7c0,1.5,0,3,0,4.5
			c-0.5,0-1,0-1.6,0c0-2.5,0-5,0-7.6c0.5,0,1,0,1.6,0c0.1,0.2,0.1,0.5,0.1,0.8c1.7-1.4,3.2-1.4,4.7,0.3c0.7-0.8,1.6-1.3,2.7-1.3
			c1.7,0.1,2.9,1.2,2.9,2.9c0,1.4,0,2.8,0,4.1c0,0.2,0,0.5-0.1,0.8c-0.5,0-1,0-1.6,0c0-1.5,0-2.9,0-4.3c0-1.4-0.9-2.1-2.3-1.7
			c-0.9,0.2-1.3,0.8-1.3,1.7C186.1,68.9,186.1,70.4,186.1,71.9z"/>
		<path d="M261.3,61.3c0.6,0,1,0,1.6,0c0,3.5,0,7,0,10.6c-0.5,0-1,0-1.5,0c-0.1-0.2-0.1-0.3-0.1-0.5c-2.6,1.2-4.1,1-5.4-0.7
			c-1.2-1.6-1.2-3.8,0.2-5.4c1.3-1.5,2.7-1.6,5.3-0.2C261.3,63.8,261.3,62.6,261.3,61.3z M261.5,68.2c0-1.3-1-2.5-2.3-2.5
			c-1.3-0.1-2.4,1.1-2.4,2.5c0,1.3,1,2.5,2.3,2.5S261.4,69.6,261.5,68.2z"/>
		<path d="M247.5,72c-0.6-0.3-1.4,0.5-1.7-0.7c-1,0.7-2.3,1.2-3.5,0.6c-0.8-0.3-1.4-0.9-2-1.5c-1.2-1.6-0.9-3.8,0.4-5.3
			c1.3-1.4,2.8-1.4,5.1-0.1c0.1-0.2,0.1-0.4,0.1-0.7c0.5,0,1,0,1.5,0C247.5,66.8,247.5,69.3,247.5,72z M241.3,68.1
			c-0.1,1.4,1,2.5,2.3,2.6c1.3,0,2.3-1,2.4-2.4c0.1-1.4-1-2.5-2.3-2.6C242.4,65.7,241.3,66.7,241.3,68.1z"/>
		<path d="M199.1,71.9c0-0.2-0.1-0.3-0.1-0.5c-3,1.6-5,0.9-6.1-2.3c-0.5-1.6,0.2-3.5,1.6-4.3c1.6-1,3.1-0.8,4.5,0.4
			c0.1-0.3,0.1-0.5,0.1-0.8c0.5,0,1,0,1.5,0c0,2.5,0,5,0,7.6C200.2,71.9,199.6,71.9,199.1,71.9z M196.9,65.7c-1.3,0-2.4,1.1-2.4,2.5
			c0,1.3,1,2.5,2.3,2.5c1.3,0.1,2.4-1.1,2.4-2.5C199.2,66.8,198.1,65.7,196.9,65.7z"/>
		<path d="M224.9,68.8c-1.9,0-3.6,0-5.4,0c-0.1,2,1.8,2.4,4.3,1.2c0.2,0.4,0.5,0.8,0.7,1.2c-1.6,1.4-3.9,1.6-5.4,0.5
			c-1.4-1-2-3.3-1.2-5.1c0.7-1.7,2.4-2.5,4.3-2.3c1.6,0.2,2.7,1.5,2.8,3.5C224.9,68,224.9,68.3,224.9,68.8z M223.2,67.5
			c-0.1-1.3-0.8-1.9-2.2-1.8c-1,0.1-1.6,0.8-1.5,1.8C220.7,67.5,221.9,67.5,223.2,67.5z"/>
		<path d="M203,70.1c0.8,0.2,1.4,0.4,2.1,0.5c0.4,0.1,0.9,0.1,1.2-0.1c0.3-0.1,0.6-0.5,1-0.7c-0.3-0.2-0.5-0.6-0.9-0.7
			c-0.6-0.2-1.3-0.2-1.9-0.4c-1.3-0.3-1.9-1.1-2-2.2c0-1,0.6-1.9,1.8-2.3c1.6-0.5,3.1,0,4.6,0.7c-0.3,0.4-0.5,0.8-0.8,1.2
			c-0.6-0.2-1.1-0.4-1.7-0.5c-0.6-0.1-1.2,0-1.7,0.1c-0.2,0.1-0.5,0.5-0.5,0.7c0,0.2,0.3,0.5,0.6,0.6c0.6,0.2,1.3,0.2,1.9,0.3
			c1.6,0.2,2.3,1,2.2,2.4c-0.1,1-0.6,1.7-1.6,2c-1.8,0.6-3.5,0.3-5.2-0.8C202.6,70.8,202.8,70.4,203,70.1z"/>
		<path d="M216,70.2c0.2,0.5,0.4,1,0.6,1.6c-0.9,0.2-1.6,0.5-2.4,0.5c-1.6,0.1-2.5-1-2.6-2.6c0-1.3,0-2.5,0-3.8
			c-0.5-0.1-0.9-0.1-1.4-0.1c0-0.5,0-1,0-1.6c0.5,0,0.9-0.1,1.4-0.1c0-0.7,0-1.4,0-2.1c0.6,0,1.2,0,1.8,0c0,0.7,0,1.4,0,2.1
			c0.9,0,1.7,0,2.7,0c0,0.6,0,1,0,1.7c-0.8,0-1.7,0-2.6,0c0,1.4-0.1,2.7,0,3.9c0,0.6,0.6,0.8,1.1,0.8C215,70.5,215.5,70.4,216,70.2z
			"/>
		<path d="M238,69.9c0.2,0.5,0.5,1,0.7,1.4c-1.8,1.3-4.4,1-5.8-0.5c-1.3-1.6-1.4-4-0.1-5.4c1.4-1.5,4.1-1.7,5.9-0.3
			c-0.2,0.5-0.5,0.9-0.8,1.4c-0.8-0.6-1.6-0.9-2.5-0.7c-0.5,0.1-0.9,0.4-1.3,0.8c-0.8,0.9-0.7,2.5,0.1,3.4
			C235.2,70.9,236.3,70.9,238,69.9z"/>
		<path d="M251.3,71.9c-0.6,0-1.1,0-1.7,0c0-2.5,0-5,0-7.6c0.5,0,1,0,1.5,0c0.1,0.2,0.1,0.4,0.2,0.7c1-0.5,1.9-1.4,3.2-0.7
			c-0.2,0.5-0.3,0.9-0.5,1.4c-0.2-0.1-0.5-0.1-0.6-0.1c-1.3-0.2-2.1,0.5-2.1,1.9c0,1.2,0,2.4,0.1,3.6
			C251.3,71.4,251.3,71.6,251.3,71.9z"/>
		<path d="M228.2,71.9c-0.6,0-1,0-1.6,0c0-2.5,0-5,0-7.6c0.5,0,1,0,1.5,0c0.1,0.2,0.1,0.5,0.1,0.8c1-0.6,2-1.4,3.3-0.7
			c-0.2,0.5-0.3,0.9-0.5,1.4c-0.2-0.1-0.5-0.1-0.6-0.1c-1.3-0.2-2.1,0.6-2.1,1.9C228.2,69,228.2,70.4,228.2,71.9z"/>
		<path d="M266.2,72.5c-0.2-0.3-0.5-0.5-0.6-0.9c-0.1-0.5,0.2-0.8,0.7-0.8c0.5,0,0.9,0.3,0.8,0.8c-0.1,0.3-0.3,0.6-0.6,0.9
			C266.4,72.5,266.3,72.5,266.2,72.5z"/>
	</g>
</g>
</svg>
