<?xml version="1.0" encoding="utf-8"?>
<!-- Generator: Adobe Illustrator 21.0.2, SVG Export Plug-In . SVG Version: 6.00 Build 0)  -->
<svg version="1.1" id="Capa_1" xmlns="http://www.w3.org/2000/svg" xmlns:xlink="http://www.w3.org/1999/xlink" x="0px" y="0px"
	 viewBox="0 0 1000 1000" style="enable-background:new 0 0 1000 1000;" xml:space="preserve">
<style type="text/css">
	.st0{fill:url(#SVGID_1_);}
	.st1{fill:url(#SVGID_2_);}
	.st2{fill:url(#SVGID_3_);}
	.st3{fill:url(#SVGID_4_);}
	.st4{fill:url(#SVGID_5_);}
	.st5{fill:url(#SVGID_6_);}
	.st6{fill:url(#SVGID_7_);}
	.st7{fill:url(#SVGID_8_);}
	.st8{fill:url(#SVGID_9_);}
	.st9{fill:url(#SVGID_10_);}
	.st10{fill:url(#SVGID_11_);}
	.st11{fill:url(#SVGID_12_);}
	.st12{fill:url(#SVGID_13_);}
	.st13{fill:url(#SVGID_14_);}
	.st14{fill:url(#SVGID_15_);}
	.st15{fill:url(#SVGID_16_);}
	.st16{fill:#FFFFFF;}
	.st17{fill:#FFFFFF;stroke:#FFFFFF;stroke-width:11.5753;stroke-miterlimit:10;}
	.st18{fill:#93D507;}
	.st19{fill:none;stroke:#0285B2;stroke-width:14.5455;stroke-miterlimit:10;}
	.st20{fill:url(#SVGID_17_);}
	.st21{fill:url(#SVGID_18_);}
	.st22{fill:url(#SVGID_19_);}
	.st23{fill:none;stroke:url(#SVGID_20_);stroke-width:33.8539;stroke-miterlimit:10;}
	.st24{fill:none;stroke:url(#SVGID_21_);stroke-width:33.8539;stroke-miterlimit:10;}
	.st25{fill:url(#SVGID_22_);}
	.st26{fill:url(#SVGID_23_);}
	.st27{fill:url(#SVGID_24_);}
	.st28{fill:url(#SVGID_25_);}
	.st29{fill:url(#SVGID_26_);}
	.st30{fill:url(#SVGID_27_);}
	.st31{fill:url(#SVGID_28_);}
	.st32{fill:url(#SVGID_29_);}
	.st33{clip-path:url(#SVGID_31_);fill:#EAAC7A;}
	.st34{clip-path:url(#SVGID_31_);fill:#EAAB7A;}
	.st35{clip-path:url(#SVGID_31_);fill:#EAAA79;}
	.st36{clip-path:url(#SVGID_31_);fill:#EAA978;}
	.st37{clip-path:url(#SVGID_31_);fill:#E9A878;}
	.st38{clip-path:url(#SVGID_31_);fill:#E9A777;}
	.st39{clip-path:url(#SVGID_31_);fill:#E9A676;}
	.st40{clip-path:url(#SVGID_31_);fill:#E9A576;}
	.st41{clip-path:url(#SVGID_31_);fill:#E9A475;}
	.st42{clip-path:url(#SVGID_31_);fill:#E9A374;}
	.st43{clip-path:url(#SVGID_31_);fill:#E8A274;}
	.st44{clip-path:url(#SVGID_31_);fill:#E8A173;}
	.st45{clip-path:url(#SVGID_31_);fill:#E8A072;}
	.st46{clip-path:url(#SVGID_31_);fill:#E89F72;}
	.st47{clip-path:url(#SVGID_31_);fill:#E89E71;}
	.st48{clip-path:url(#SVGID_31_);fill:#E89D71;}
	.st49{clip-path:url(#SVGID_31_);fill:#E89C70;}
	.st50{clip-path:url(#SVGID_31_);fill:#E79B6F;}
	.st51{clip-path:url(#SVGID_31_);fill:#E79A6F;}
	.st52{clip-path:url(#SVGID_31_);fill:#E7996E;}
	.st53{clip-path:url(#SVGID_31_);fill:#E7986D;}
	.st54{clip-path:url(#SVGID_31_);fill:#E7976D;}
	.st55{clip-path:url(#SVGID_31_);fill:#E7966C;}
	.st56{clip-path:url(#SVGID_31_);fill:#E6956B;}
	.st57{clip-path:url(#SVGID_31_);fill:#E6946B;}
	.st58{clip-path:url(#SVGID_31_);fill:#E6936A;}
	.st59{clip-path:url(#SVGID_31_);fill:#E6926A;}
	.st60{clip-path:url(#SVGID_31_);fill:#E69169;}
	.st61{clip-path:url(#SVGID_33_);fill:#E48863;}
	.st62{clip-path:url(#SVGID_33_);fill:#E48763;}
	.st63{clip-path:url(#SVGID_33_);fill:#E48662;}
	.st64{clip-path:url(#SVGID_33_);fill:#E48561;}
	.st65{clip-path:url(#SVGID_33_);fill:#E48461;}
	.st66{clip-path:url(#SVGID_33_);fill:#E48360;}
	.st67{clip-path:url(#SVGID_33_);fill:#E3825F;}
	.st68{clip-path:url(#SVGID_33_);fill:#E3815F;}
	.st69{clip-path:url(#SVGID_33_);fill:#E3805E;}
	.st70{clip-path:url(#SVGID_33_);fill:#E37F5D;}
	.st71{clip-path:url(#SVGID_33_);fill:#E37E5D;}
	.st72{clip-path:url(#SVGID_33_);fill:#E37D5C;}
	.st73{clip-path:url(#SVGID_33_);fill:#E27B5B;}
	.st74{clip-path:url(#SVGID_33_);fill:#E27A5B;}
	.st75{clip-path:url(#SVGID_33_);fill:#E2795A;}
	.st76{clip-path:url(#SVGID_33_);fill:#E58C66;}
	.st77{clip-path:url(#SVGID_33_);fill:#E58B65;}
	.st78{clip-path:url(#SVGID_33_);fill:#E58A64;}
	.st79{clip-path:url(#SVGID_33_);fill:#E58964;}
	.st80{clip-path:url(#SVGID_33_);fill:#E2785A;}
	.st81{clip-path:url(#SVGID_33_);fill:#E27759;}
	.st82{clip-path:url(#SVGID_33_);fill:#E27658;}
	.st83{clip-path:url(#SVGID_33_);fill:#E27558;}
	.st84{clip-path:url(#SVGID_35_);fill:#E06D53;}
	.st85{clip-path:url(#SVGID_35_);fill:#E06C52;}
	.st86{clip-path:url(#SVGID_35_);fill:#E06B51;}
	.st87{clip-path:url(#SVGID_35_);fill:#E06A51;}
	.st88{clip-path:url(#SVGID_35_);fill:#E06950;}
	.st89{clip-path:url(#SVGID_35_);fill:#E0684F;}
	.st90{clip-path:url(#SVGID_35_);fill:#DF674F;}
	.st91{clip-path:url(#SVGID_35_);fill:#DF664E;}
	.st92{clip-path:url(#SVGID_35_);fill:#DF654D;}
	.st93{clip-path:url(#SVGID_35_);fill:#DF644D;}
	.st94{clip-path:url(#SVGID_35_);fill:#DF634C;}
	.st95{clip-path:url(#SVGID_35_);fill:#DF624C;}
	.st96{clip-path:url(#SVGID_35_);fill:#DE614B;}
	.st97{clip-path:url(#SVGID_35_);fill:#DE604A;}
	.st98{clip-path:url(#SVGID_35_);fill:#DE5F4A;}
	.st99{clip-path:url(#SVGID_35_);fill:#E17155;}
	.st100{clip-path:url(#SVGID_35_);fill:#E17054;}
	.st101{clip-path:url(#SVGID_35_);fill:#E16F54;}
	.st102{clip-path:url(#SVGID_35_);fill:#E06E53;}
	.st103{clip-path:url(#SVGID_35_);fill:#DE5E49;}
	.st104{clip-path:url(#SVGID_35_);fill:#DE5D48;}
	.st105{clip-path:url(#SVGID_35_);fill:#DE5C48;}
	.st106{clip-path:url(#SVGID_35_);fill:#DD5B47;}
	.st107{clip-path:url(#SVGID_37_);fill:#DD5543;}
	.st108{clip-path:url(#SVGID_37_);fill:#DC5443;}
	.st109{clip-path:url(#SVGID_37_);fill:#DC5342;}
	.st110{clip-path:url(#SVGID_37_);fill:#DC5241;}
	.st111{clip-path:url(#SVGID_37_);fill:#DC5141;}
	.st112{clip-path:url(#SVGID_37_);fill:#DC5040;}
	.st113{clip-path:url(#SVGID_37_);fill:#DC4F3F;}
	.st114{clip-path:url(#SVGID_37_);fill:#DB4E3F;}
	.st115{clip-path:url(#SVGID_37_);fill:#DB4D3E;}
	.st116{clip-path:url(#SVGID_37_);fill:#DB4C3D;}
	.st117{clip-path:url(#SVGID_37_);fill:#DB4B3D;}
	.st118{clip-path:url(#SVGID_37_);fill:#DB4A3C;}
	.st119{clip-path:url(#SVGID_37_);fill:#DB493C;}
	.st120{clip-path:url(#SVGID_37_);fill:#DA483B;}
	.st121{clip-path:url(#SVGID_37_);fill:#DA473A;}
	.st122{clip-path:url(#SVGID_37_);fill:#DA463A;}
	.st123{clip-path:url(#SVGID_37_);fill:#DA4539;}
	.st124{clip-path:url(#SVGID_39_);fill:#DA4539;}
	.st125{clip-path:url(#SVGID_41_);fill:#DA4539;}
	.st126{fill:url(#SVGID_42_);}
	.st127{clip-path:url(#SVGID_44_);fill:#E9A777;}
	.st128{clip-path:url(#SVGID_44_);fill:#E9A676;}
	.st129{clip-path:url(#SVGID_44_);fill:#E9A576;}
	.st130{clip-path:url(#SVGID_44_);fill:#E9A475;}
	.st131{clip-path:url(#SVGID_44_);fill:#E9A374;}
	.st132{clip-path:url(#SVGID_44_);fill:#E8A274;}
	.st133{clip-path:url(#SVGID_44_);fill:#E8A173;}
	.st134{clip-path:url(#SVGID_44_);fill:#E8A072;}
	.st135{clip-path:url(#SVGID_44_);fill:#E89F72;}
	.st136{clip-path:url(#SVGID_44_);fill:#E89E71;}
	.st137{clip-path:url(#SVGID_44_);fill:#E89D71;}
	.st138{clip-path:url(#SVGID_44_);fill:#E89C70;}
	.st139{clip-path:url(#SVGID_44_);fill:#E79B6F;}
	.st140{clip-path:url(#SVGID_44_);fill:#E79A6F;}
	.st141{clip-path:url(#SVGID_44_);fill:#E7996E;}
	.st142{clip-path:url(#SVGID_44_);fill:#E7986D;}
	.st143{clip-path:url(#SVGID_44_);fill:#E7976D;}
	.st144{clip-path:url(#SVGID_44_);fill:#E7966C;}
	.st145{clip-path:url(#SVGID_44_);fill:#EAAB7A;}
	.st146{clip-path:url(#SVGID_44_);fill:#EAAA79;}
	.st147{clip-path:url(#SVGID_44_);fill:#EAA978;}
	.st148{clip-path:url(#SVGID_44_);fill:#E9A878;}
	.st149{clip-path:url(#SVGID_44_);fill:#E6956B;}
	.st150{clip-path:url(#SVGID_44_);fill:#E6946B;}
	.st151{clip-path:url(#SVGID_44_);fill:#E6936A;}
	.st152{clip-path:url(#SVGID_44_);fill:#E6926A;}
	.st153{clip-path:url(#SVGID_44_);fill:#E69169;}
	.st154{clip-path:url(#SVGID_44_);fill:#E69068;}
	.st155{clip-path:url(#SVGID_46_);fill:#E48561;}
	.st156{clip-path:url(#SVGID_46_);fill:#E48461;}
	.st157{clip-path:url(#SVGID_46_);fill:#E48360;}
	.st158{clip-path:url(#SVGID_46_);fill:#E3825F;}
	.st159{clip-path:url(#SVGID_46_);fill:#E3815F;}
	.st160{clip-path:url(#SVGID_46_);fill:#E3805E;}
	.st161{clip-path:url(#SVGID_46_);fill:#E37F5D;}
	.st162{clip-path:url(#SVGID_46_);fill:#E37E5D;}
	.st163{clip-path:url(#SVGID_46_);fill:#E37D5C;}
	.st164{clip-path:url(#SVGID_46_);fill:#E27B5B;}
	.st165{clip-path:url(#SVGID_46_);fill:#E27A5B;}
	.st166{clip-path:url(#SVGID_46_);fill:#E48763;}
	.st167{clip-path:url(#SVGID_46_);fill:#E48662;}
	.st168{clip-path:url(#SVGID_46_);fill:#E58C66;}
	.st169{clip-path:url(#SVGID_46_);fill:#E58B65;}
	.st170{clip-path:url(#SVGID_46_);fill:#E58A64;}
	.st171{clip-path:url(#SVGID_46_);fill:#E58964;}
	.st172{clip-path:url(#SVGID_46_);fill:#E48863;}
	.st173{clip-path:url(#SVGID_46_);fill:#E2795A;}
	.st174{clip-path:url(#SVGID_46_);fill:#E2785A;}
	.st175{clip-path:url(#SVGID_46_);fill:#E27759;}
	.st176{clip-path:url(#SVGID_46_);fill:#E27658;}
	.st177{clip-path:url(#SVGID_46_);fill:#E27558;}
	.st178{clip-path:url(#SVGID_46_);fill:#E17457;}
	.st179{clip-path:url(#SVGID_46_);fill:#E17356;}
	.st180{clip-path:url(#SVGID_48_);fill:#E06B51;}
	.st181{clip-path:url(#SVGID_48_);fill:#E06A51;}
	.st182{clip-path:url(#SVGID_48_);fill:#E06950;}
	.st183{clip-path:url(#SVGID_48_);fill:#E0684F;}
	.st184{clip-path:url(#SVGID_48_);fill:#DF674F;}
	.st185{clip-path:url(#SVGID_48_);fill:#DF664E;}
	.st186{clip-path:url(#SVGID_48_);fill:#DF654D;}
	.st187{clip-path:url(#SVGID_48_);fill:#DF644D;}
	.st188{clip-path:url(#SVGID_48_);fill:#DF634C;}
	.st189{clip-path:url(#SVGID_48_);fill:#DF624C;}
	.st190{clip-path:url(#SVGID_48_);fill:#DE614B;}
	.st191{clip-path:url(#SVGID_48_);fill:#DE604A;}
	.st192{clip-path:url(#SVGID_48_);fill:#DE5F4A;}
	.st193{clip-path:url(#SVGID_48_);fill:#DE5E49;}
	.st194{clip-path:url(#SVGID_48_);fill:#E16F54;}
	.st195{clip-path:url(#SVGID_48_);fill:#E06E53;}
	.st196{clip-path:url(#SVGID_48_);fill:#E06D53;}
	.st197{clip-path:url(#SVGID_48_);fill:#E06C52;}
	.st198{clip-path:url(#SVGID_48_);fill:#DE5D48;}
	.st199{clip-path:url(#SVGID_48_);fill:#DE5C48;}
	.st200{clip-path:url(#SVGID_48_);fill:#DD5B47;}
	.st201{clip-path:url(#SVGID_48_);fill:#DD5A46;}
	.st202{clip-path:url(#SVGID_50_);fill:#DD5543;}
	.st203{clip-path:url(#SVGID_50_);fill:#DC5443;}
	.st204{clip-path:url(#SVGID_50_);fill:#DC5342;}
	.st205{clip-path:url(#SVGID_50_);fill:#DC5241;}
	.st206{clip-path:url(#SVGID_50_);fill:#DC5141;}
	.st207{clip-path:url(#SVGID_52_);fill:#DA483B;}
	.st208{clip-path:url(#SVGID_52_);fill:#DA473A;}
	.st209{clip-path:url(#SVGID_52_);fill:#DA463A;}
	.st210{clip-path:url(#SVGID_52_);fill:#DA4539;}
	.st211{clip-path:url(#SVGID_52_);fill:#DB4C3D;}
	.st212{clip-path:url(#SVGID_52_);fill:#DB4B3D;}
	.st213{clip-path:url(#SVGID_52_);fill:#DB4A3C;}
	.st214{clip-path:url(#SVGID_52_);fill:#DB493C;}
	.st215{clip-path:url(#SVGID_54_);fill:#DA4539;}
	.st216{fill:url(#SVGID_55_);}
	.st217{fill:url(#SVGID_56_);}
	.st218{fill:url(#SVGID_57_);}
	.st219{fill:url(#SVGID_58_);}
	.st220{fill:url(#SVGID_59_);}
	.st221{fill:url(#SVGID_60_);}
	.st222{fill:url(#SVGID_61_);}
	.st223{fill:url(#SVGID_62_);}
	.st224{fill:url(#SVGID_63_);}
	.st225{fill:url(#SVGID_64_);}
	.st226{fill:url(#SVGID_65_);}
	.st227{opacity:0.55;fill:#FFFFFF;}
	.st228{opacity:0.76;fill:#F7F7F8;}
	.st229{opacity:0.65;}
	.st230{clip-path:url(#SVGID_67_);fill:#FFFFFF;}
	.st231{opacity:0.4;clip-path:url(#SVGID_69_);}
	.st232{clip-path:url(#SVGID_71_);}
	.st233{fill:#DC4336;}
	.st234{clip-path:url(#SVGID_75_);fill:url(#SVGID_76_);}
	.st235{clip-path:url(#SVGID_78_);fill:url(#SVGID_79_);}
	.st236{clip-path:url(#SVGID_81_);fill:url(#SVGID_82_);}
	.st237{clip-path:url(#SVGID_84_);fill:url(#SVGID_85_);}
	.st238{clip-path:url(#SVGID_87_);fill:url(#SVGID_88_);}
	.st239{clip-path:url(#SVGID_90_);fill:url(#SVGID_91_);}
	.st240{clip-path:url(#SVGID_93_);}
	.st241{clip-path:url(#SVGID_97_);}
	.st242{clip-path:url(#SVGID_101_);}
	.st243{clip-path:url(#SVGID_105_);}
	.st244{clip-path:url(#SVGID_109_);fill:url(#SVGID_110_);}
	.st245{fill:#5380D6;}
	.st246{fill:url(#SVGID_111_);}
	.st247{clip-path:url(#SVGID_113_);fill:#EAB07E;}
	.st248{clip-path:url(#SVGID_113_);fill:#EAB07D;}
	.st249{clip-path:url(#SVGID_113_);fill:#EAAF7D;}
	.st250{clip-path:url(#SVGID_113_);fill:#EAAE7C;}
	.st251{clip-path:url(#SVGID_113_);fill:#E9AE7C;}
	.st252{clip-path:url(#SVGID_113_);fill:#E9AD7B;}
	.st253{clip-path:url(#SVGID_113_);fill:#E9AC7B;}
	.st254{clip-path:url(#SVGID_113_);fill:#E9AB7A;}
	.st255{clip-path:url(#SVGID_113_);fill:#E9AA7A;}
	.st256{clip-path:url(#SVGID_113_);fill:#E9AA79;}
	.st257{clip-path:url(#SVGID_113_);fill:#E9A979;}
	.st258{clip-path:url(#SVGID_113_);fill:#E9A878;}
	.st259{clip-path:url(#SVGID_113_);fill:#E8A778;}
	.st260{clip-path:url(#SVGID_113_);fill:#E8A677;}
	.st261{clip-path:url(#SVGID_113_);fill:#E8A577;}
	.st262{clip-path:url(#SVGID_113_);fill:#E8A476;}
	.st263{clip-path:url(#SVGID_113_);fill:#E8A375;}
	.st264{clip-path:url(#SVGID_113_);fill:#E8A274;}
	.st265{clip-path:url(#SVGID_113_);fill:#E7A174;}
	.st266{clip-path:url(#SVGID_113_);fill:#E7A073;}
	.st267{clip-path:url(#SVGID_113_);fill:#E79F72;}
	.st268{clip-path:url(#SVGID_113_);fill:#E79E72;}
	.st269{clip-path:url(#SVGID_113_);fill:#E79D71;}
	.st270{clip-path:url(#SVGID_113_);fill:#E79C71;}
	.st271{clip-path:url(#SVGID_113_);fill:#E79B70;}
	.st272{clip-path:url(#SVGID_113_);fill:#E69A6F;}
	.st273{clip-path:url(#SVGID_113_);fill:#E6996F;}
	.st274{clip-path:url(#SVGID_113_);fill:#E6986E;}
	.st275{clip-path:url(#SVGID_113_);fill:#E6976E;}
	.st276{clip-path:url(#SVGID_113_);fill:#E6966D;}
	.st277{clip-path:url(#SVGID_113_);fill:#E6956C;}
	.st278{clip-path:url(#SVGID_113_);fill:#E6946C;}
	.st279{clip-path:url(#SVGID_113_);fill:#E5936B;}
	.st280{clip-path:url(#SVGID_113_);fill:#E5926A;}
	.st281{clip-path:url(#SVGID_113_);fill:#E5916A;}
	.st282{clip-path:url(#SVGID_113_);fill:#E59069;}
	.st283{clip-path:url(#SVGID_113_);fill:#E58F69;}
	.st284{clip-path:url(#SVGID_113_);fill:#E58E68;}
	.st285{clip-path:url(#SVGID_113_);fill:#E48D67;}
	.st286{clip-path:url(#SVGID_113_);fill:#E48C67;}
	.st287{clip-path:url(#SVGID_113_);fill:#E48B66;}
	.st288{clip-path:url(#SVGID_113_);fill:#E48A65;}
	.st289{clip-path:url(#SVGID_113_);fill:#E48965;}
	.st290{clip-path:url(#SVGID_113_);fill:#E48864;}
	.st291{clip-path:url(#SVGID_113_);fill:#E38763;}
	.st292{clip-path:url(#SVGID_113_);fill:#E38663;}
	.st293{clip-path:url(#SVGID_113_);fill:#E38562;}
	.st294{clip-path:url(#SVGID_113_);fill:#E38461;}
	.st295{clip-path:url(#SVGID_113_);fill:#E38361;}
	.st296{clip-path:url(#SVGID_113_);fill:#E38260;}
	.st297{clip-path:url(#SVGID_113_);fill:#E2815F;}
	.st298{clip-path:url(#SVGID_113_);fill:#E2805F;}
	.st299{clip-path:url(#SVGID_113_);fill:#E27F5E;}
	.st300{clip-path:url(#SVGID_113_);fill:#E27E5D;}
	.st301{clip-path:url(#SVGID_113_);fill:#E27D5D;}
	.st302{clip-path:url(#SVGID_113_);fill:#E27C5C;}
	.st303{clip-path:url(#SVGID_113_);fill:#E17B5B;}
	.st304{clip-path:url(#SVGID_113_);fill:#E17A5B;}
	.st305{clip-path:url(#SVGID_113_);fill:#E1795A;}
	.st306{clip-path:url(#SVGID_113_);fill:#E17859;}
	.st307{clip-path:url(#SVGID_113_);fill:#E17759;}
	.st308{clip-path:url(#SVGID_113_);fill:#E17658;}
	.st309{clip-path:url(#SVGID_113_);fill:#E07557;}
	.st310{clip-path:url(#SVGID_113_);fill:#E07457;}
	.st311{clip-path:url(#SVGID_113_);fill:#E07256;}
	.st312{clip-path:url(#SVGID_113_);fill:#E07155;}
	.st313{clip-path:url(#SVGID_113_);fill:#E07055;}
	.st314{clip-path:url(#SVGID_113_);fill:#E06F54;}
	.st315{clip-path:url(#SVGID_113_);fill:#DF6E53;}
	.st316{clip-path:url(#SVGID_113_);fill:#DF6D53;}
	.st317{clip-path:url(#SVGID_113_);fill:#DF6C52;}
	.st318{clip-path:url(#SVGID_113_);fill:#DF6B51;}
	.st319{clip-path:url(#SVGID_113_);fill:#DF6A51;}
	.st320{clip-path:url(#SVGID_113_);fill:#DF6950;}
	.st321{clip-path:url(#SVGID_113_);fill:#DE684F;}
	.st322{clip-path:url(#SVGID_113_);fill:#DE674E;}
	.st323{clip-path:url(#SVGID_113_);fill:#DE654E;}
	.st324{clip-path:url(#SVGID_113_);fill:#DE644D;}
	.st325{clip-path:url(#SVGID_113_);fill:#DE634C;}
	.st326{clip-path:url(#SVGID_113_);fill:#DE624C;}
	.st327{clip-path:url(#SVGID_113_);fill:#DD614B;}
	.st328{clip-path:url(#SVGID_113_);fill:#DD604A;}
	.st329{clip-path:url(#SVGID_113_);fill:#DD5F4A;}
	.st330{clip-path:url(#SVGID_113_);fill:#DD5E49;}
	.st331{clip-path:url(#SVGID_113_);fill:#DD5D48;}
	.st332{clip-path:url(#SVGID_113_);fill:#DD5C47;}
	.st333{clip-path:url(#SVGID_113_);fill:#DC5A47;}
	.st334{clip-path:url(#SVGID_113_);fill:#DC5946;}
	.st335{clip-path:url(#SVGID_113_);fill:#DC5845;}
	.st336{clip-path:url(#SVGID_113_);fill:#DC5745;}
	.st337{clip-path:url(#SVGID_113_);fill:#DC5644;}
	.st338{clip-path:url(#SVGID_113_);fill:#DB5543;}
	.st339{clip-path:url(#SVGID_113_);fill:#DB5442;}
	.st340{clip-path:url(#SVGID_113_);fill:#DB5342;}
	.st341{clip-path:url(#SVGID_113_);fill:#DB5141;}
	.st342{clip-path:url(#SVGID_113_);fill:#DB5040;}
	.st343{clip-path:url(#SVGID_113_);fill:#DB4F40;}
	.st344{clip-path:url(#SVGID_113_);fill:#DA4E3F;}
	.st345{clip-path:url(#SVGID_113_);fill:#DA4D3E;}
	.st346{clip-path:url(#SVGID_113_);fill:#DA4C3D;}
	.st347{clip-path:url(#SVGID_113_);fill:#DA4B3D;}
	.st348{clip-path:url(#SVGID_113_);fill:#DA4A3C;}
	.st349{clip-path:url(#SVGID_113_);fill:#DA483B;}
	.st350{clip-path:url(#SVGID_113_);fill:#D9473A;}
	.st351{clip-path:url(#SVGID_113_);fill:#D9463A;}
	.st352{clip-path:url(#SVGID_113_);fill:#D94539;}
	.st353{clip-path:url(#SVGID_115_);}
	.st354{clip-path:url(#SVGID_117_);fill:#EAB17E;}
	.st355{clip-path:url(#SVGID_117_);fill:#EAB07E;}
	.st356{clip-path:url(#SVGID_117_);fill:#EAB07D;}
	.st357{clip-path:url(#SVGID_117_);fill:#EAAF7D;}
	.st358{clip-path:url(#SVGID_117_);fill:#EAAE7C;}
	.st359{clip-path:url(#SVGID_117_);fill:#E9AE7C;}
	.st360{clip-path:url(#SVGID_117_);fill:#E9AD7B;}
	.st361{clip-path:url(#SVGID_117_);fill:#E9AC7B;}
	.st362{clip-path:url(#SVGID_117_);fill:#E9AB7A;}
	.st363{clip-path:url(#SVGID_117_);fill:#E9AA7A;}
	.st364{clip-path:url(#SVGID_117_);fill:#E9AA79;}
	.st365{clip-path:url(#SVGID_117_);fill:#E9A979;}
	.st366{clip-path:url(#SVGID_117_);fill:#E9A878;}
	.st367{clip-path:url(#SVGID_117_);fill:#E8A778;}
	.st368{clip-path:url(#SVGID_117_);fill:#E8A677;}
	.st369{clip-path:url(#SVGID_117_);fill:#E8A577;}
	.st370{clip-path:url(#SVGID_117_);fill:#E8A476;}
	.st371{clip-path:url(#SVGID_117_);fill:#E8A375;}
	.st372{clip-path:url(#SVGID_117_);fill:#E8A274;}
	.st373{clip-path:url(#SVGID_117_);fill:#E7A174;}
	.st374{clip-path:url(#SVGID_117_);fill:#E7A073;}
	.st375{clip-path:url(#SVGID_117_);fill:#E79F72;}
	.st376{clip-path:url(#SVGID_117_);fill:#E79E72;}
	.st377{clip-path:url(#SVGID_117_);fill:#E79D71;}
	.st378{clip-path:url(#SVGID_117_);fill:#E79C71;}
	.st379{clip-path:url(#SVGID_117_);fill:#E79B70;}
	.st380{clip-path:url(#SVGID_117_);fill:#E69A6F;}
	.st381{clip-path:url(#SVGID_117_);fill:#E6996F;}
	.st382{clip-path:url(#SVGID_117_);fill:#E6986E;}
	.st383{clip-path:url(#SVGID_117_);fill:#E6976E;}
	.st384{clip-path:url(#SVGID_117_);fill:#E6966D;}
	.st385{clip-path:url(#SVGID_117_);fill:#E6956C;}
	.st386{clip-path:url(#SVGID_117_);fill:#E6946C;}
	.st387{clip-path:url(#SVGID_117_);fill:#E5936B;}
	.st388{clip-path:url(#SVGID_117_);fill:#E5926A;}
	.st389{clip-path:url(#SVGID_117_);fill:#E5916A;}
	.st390{clip-path:url(#SVGID_117_);fill:#E59069;}
	.st391{clip-path:url(#SVGID_117_);fill:#E58F69;}
	.st392{clip-path:url(#SVGID_117_);fill:#E58E68;}
	.st393{clip-path:url(#SVGID_117_);fill:#E48D67;}
	.st394{clip-path:url(#SVGID_117_);fill:#E48C67;}
	.st395{clip-path:url(#SVGID_117_);fill:#E48B66;}
	.st396{clip-path:url(#SVGID_117_);fill:#E48A65;}
	.st397{clip-path:url(#SVGID_117_);fill:#E48965;}
	.st398{clip-path:url(#SVGID_117_);fill:#E48864;}
	.st399{clip-path:url(#SVGID_117_);fill:#E38763;}
	.st400{clip-path:url(#SVGID_117_);fill:#E38663;}
	.st401{clip-path:url(#SVGID_117_);fill:#E38562;}
	.st402{clip-path:url(#SVGID_117_);fill:#E38461;}
	.st403{clip-path:url(#SVGID_117_);fill:#E38361;}
	.st404{clip-path:url(#SVGID_117_);fill:#E38260;}
	.st405{clip-path:url(#SVGID_117_);fill:#E2815F;}
	.st406{clip-path:url(#SVGID_117_);fill:#E2805F;}
	.st407{clip-path:url(#SVGID_117_);fill:#E27F5E;}
	.st408{clip-path:url(#SVGID_117_);fill:#E27E5D;}
	.st409{clip-path:url(#SVGID_117_);fill:#E27D5D;}
	.st410{clip-path:url(#SVGID_117_);fill:#E27C5C;}
	.st411{clip-path:url(#SVGID_117_);fill:#E17B5B;}
	.st412{clip-path:url(#SVGID_117_);fill:#E17A5B;}
	.st413{clip-path:url(#SVGID_117_);fill:#E1795A;}
	.st414{clip-path:url(#SVGID_117_);fill:#E17859;}
	.st415{clip-path:url(#SVGID_117_);fill:#E17759;}
	.st416{clip-path:url(#SVGID_117_);fill:#E17658;}
	.st417{clip-path:url(#SVGID_117_);fill:#E07557;}
	.st418{clip-path:url(#SVGID_117_);fill:#E07457;}
	.st419{clip-path:url(#SVGID_117_);fill:#E07256;}
	.st420{clip-path:url(#SVGID_117_);fill:#E07155;}
	.st421{clip-path:url(#SVGID_117_);fill:#E07055;}
	.st422{clip-path:url(#SVGID_117_);fill:#E06F54;}
	.st423{clip-path:url(#SVGID_117_);fill:#DF6E53;}
	.st424{clip-path:url(#SVGID_117_);fill:#DF6D53;}
	.st425{clip-path:url(#SVGID_117_);fill:#DF6C52;}
	.st426{clip-path:url(#SVGID_117_);fill:#DF6B51;}
	.st427{clip-path:url(#SVGID_117_);fill:#DF6A51;}
	.st428{clip-path:url(#SVGID_117_);fill:#DF6950;}
	.st429{clip-path:url(#SVGID_117_);fill:#DE684F;}
	.st430{clip-path:url(#SVGID_117_);fill:#DE674E;}
	.st431{clip-path:url(#SVGID_117_);fill:#DE654E;}
	.st432{clip-path:url(#SVGID_117_);fill:#DE644D;}
	.st433{clip-path:url(#SVGID_117_);fill:#DE634C;}
	.st434{clip-path:url(#SVGID_117_);fill:#DE624C;}
	.st435{clip-path:url(#SVGID_117_);fill:#DD614B;}
	.st436{clip-path:url(#SVGID_117_);fill:#DD604A;}
	.st437{clip-path:url(#SVGID_117_);fill:#DD5F4A;}
	.st438{clip-path:url(#SVGID_117_);fill:#DD5E49;}
	.st439{clip-path:url(#SVGID_117_);fill:#DD5D48;}
	.st440{clip-path:url(#SVGID_117_);fill:#DD5C47;}
	.st441{clip-path:url(#SVGID_117_);fill:#DC5A47;}
	.st442{clip-path:url(#SVGID_117_);fill:#DC5946;}
	.st443{clip-path:url(#SVGID_117_);fill:#DC5845;}
	.st444{clip-path:url(#SVGID_117_);fill:#DC5745;}
	.st445{clip-path:url(#SVGID_117_);fill:#DC5644;}
	.st446{clip-path:url(#SVGID_117_);fill:#DB5543;}
	.st447{clip-path:url(#SVGID_117_);fill:#DB5442;}
	.st448{clip-path:url(#SVGID_117_);fill:#DB5342;}
	.st449{clip-path:url(#SVGID_117_);fill:#DB5141;}
	.st450{clip-path:url(#SVGID_117_);fill:#DB5040;}
	.st451{clip-path:url(#SVGID_117_);fill:#DB4F40;}
	.st452{clip-path:url(#SVGID_117_);fill:#DA4E3F;}
	.st453{clip-path:url(#SVGID_117_);fill:#DA4D3E;}
	.st454{clip-path:url(#SVGID_117_);fill:#DA4C3D;}
	.st455{clip-path:url(#SVGID_117_);fill:#DA4B3D;}
	.st456{clip-path:url(#SVGID_117_);fill:#DA4A3C;}
	.st457{clip-path:url(#SVGID_117_);fill:#DA483B;}
	.st458{clip-path:url(#SVGID_117_);fill:#D9473A;}
	.st459{clip-path:url(#SVGID_117_);fill:#D9463A;}
	.st460{clip-path:url(#SVGID_117_);fill:#D94539;}
	.st461{clip-path:url(#SVGID_119_);}
	.st462{clip-path:url(#SVGID_121_);fill:#EAB17E;}
	.st463{clip-path:url(#SVGID_121_);fill:#EAB07E;}
	.st464{clip-path:url(#SVGID_121_);fill:#EAB07D;}
	.st465{clip-path:url(#SVGID_121_);fill:#EAAF7D;}
	.st466{clip-path:url(#SVGID_121_);fill:#EAAE7C;}
	.st467{clip-path:url(#SVGID_121_);fill:#E9AE7C;}
	.st468{clip-path:url(#SVGID_121_);fill:#E9AD7B;}
	.st469{clip-path:url(#SVGID_121_);fill:#E9AC7B;}
	.st470{clip-path:url(#SVGID_121_);fill:#E9AB7A;}
	.st471{clip-path:url(#SVGID_121_);fill:#E9AA7A;}
	.st472{clip-path:url(#SVGID_121_);fill:#E9AA79;}
	.st473{clip-path:url(#SVGID_121_);fill:#E9A979;}
	.st474{clip-path:url(#SVGID_121_);fill:#E9A878;}
	.st475{clip-path:url(#SVGID_121_);fill:#E8A778;}
	.st476{clip-path:url(#SVGID_121_);fill:#E8A677;}
	.st477{clip-path:url(#SVGID_121_);fill:#E8A577;}
	.st478{clip-path:url(#SVGID_121_);fill:#E8A476;}
	.st479{clip-path:url(#SVGID_121_);fill:#E8A375;}
	.st480{clip-path:url(#SVGID_121_);fill:#E8A274;}
	.st481{clip-path:url(#SVGID_121_);fill:#E7A174;}
	.st482{clip-path:url(#SVGID_121_);fill:#E7A073;}
	.st483{clip-path:url(#SVGID_121_);fill:#E79F72;}
	.st484{clip-path:url(#SVGID_121_);fill:#E79E72;}
	.st485{clip-path:url(#SVGID_121_);fill:#E79D71;}
	.st486{clip-path:url(#SVGID_121_);fill:#E79C71;}
	.st487{clip-path:url(#SVGID_121_);fill:#E79B70;}
	.st488{clip-path:url(#SVGID_121_);fill:#E69A6F;}
	.st489{clip-path:url(#SVGID_121_);fill:#E6996F;}
	.st490{clip-path:url(#SVGID_121_);fill:#E6986E;}
	.st491{clip-path:url(#SVGID_121_);fill:#E6976E;}
	.st492{clip-path:url(#SVGID_121_);fill:#E6966D;}
	.st493{clip-path:url(#SVGID_121_);fill:#E6956C;}
	.st494{clip-path:url(#SVGID_121_);fill:#E6946C;}
	.st495{clip-path:url(#SVGID_121_);fill:#E5936B;}
	.st496{clip-path:url(#SVGID_121_);fill:#E5926A;}
	.st497{clip-path:url(#SVGID_121_);fill:#E5916A;}
	.st498{clip-path:url(#SVGID_121_);fill:#E59069;}
	.st499{clip-path:url(#SVGID_121_);fill:#E58F69;}
	.st500{clip-path:url(#SVGID_121_);fill:#E58E68;}
	.st501{clip-path:url(#SVGID_121_);fill:#E48D67;}
	.st502{clip-path:url(#SVGID_121_);fill:#E48C67;}
	.st503{clip-path:url(#SVGID_121_);fill:#E48B66;}
	.st504{clip-path:url(#SVGID_121_);fill:#E48A65;}
	.st505{clip-path:url(#SVGID_121_);fill:#E48965;}
	.st506{clip-path:url(#SVGID_121_);fill:#E48864;}
	.st507{clip-path:url(#SVGID_121_);fill:#E38763;}
	.st508{clip-path:url(#SVGID_121_);fill:#E38663;}
	.st509{clip-path:url(#SVGID_121_);fill:#E38562;}
	.st510{clip-path:url(#SVGID_121_);fill:#E38461;}
	.st511{clip-path:url(#SVGID_121_);fill:#E38361;}
	.st512{clip-path:url(#SVGID_121_);fill:#E38260;}
	.st513{clip-path:url(#SVGID_121_);fill:#E2815F;}
	.st514{clip-path:url(#SVGID_121_);fill:#E2805F;}
	.st515{clip-path:url(#SVGID_121_);fill:#E27F5E;}
	.st516{clip-path:url(#SVGID_121_);fill:#E27E5D;}
	.st517{clip-path:url(#SVGID_121_);fill:#E27D5D;}
	.st518{clip-path:url(#SVGID_121_);fill:#E27C5C;}
	.st519{clip-path:url(#SVGID_121_);fill:#E17B5B;}
	.st520{clip-path:url(#SVGID_121_);fill:#E17A5B;}
	.st521{clip-path:url(#SVGID_121_);fill:#E1795A;}
	.st522{clip-path:url(#SVGID_121_);fill:#E17859;}
	.st523{clip-path:url(#SVGID_121_);fill:#E17759;}
	.st524{clip-path:url(#SVGID_121_);fill:#E17658;}
	.st525{clip-path:url(#SVGID_121_);fill:#E07557;}
	.st526{clip-path:url(#SVGID_121_);fill:#E07457;}
	.st527{clip-path:url(#SVGID_121_);fill:#E07256;}
	.st528{clip-path:url(#SVGID_121_);fill:#E07155;}
	.st529{clip-path:url(#SVGID_121_);fill:#E07055;}
	.st530{clip-path:url(#SVGID_121_);fill:#E06F54;}
	.st531{clip-path:url(#SVGID_121_);fill:#DF6E53;}
	.st532{clip-path:url(#SVGID_121_);fill:#DF6D53;}
	.st533{clip-path:url(#SVGID_121_);fill:#DF6C52;}
	.st534{clip-path:url(#SVGID_121_);fill:#DF6B51;}
	.st535{clip-path:url(#SVGID_121_);fill:#DF6A51;}
	.st536{clip-path:url(#SVGID_121_);fill:#DF6950;}
	.st537{clip-path:url(#SVGID_121_);fill:#DE684F;}
	.st538{clip-path:url(#SVGID_121_);fill:#DE674E;}
	.st539{clip-path:url(#SVGID_121_);fill:#DE654E;}
	.st540{clip-path:url(#SVGID_121_);fill:#DE644D;}
	.st541{clip-path:url(#SVGID_121_);fill:#DE634C;}
	.st542{clip-path:url(#SVGID_121_);fill:#DE624C;}
	.st543{clip-path:url(#SVGID_121_);fill:#DD614B;}
	.st544{clip-path:url(#SVGID_121_);fill:#DD604A;}
	.st545{clip-path:url(#SVGID_121_);fill:#DD5F4A;}
	.st546{clip-path:url(#SVGID_121_);fill:#DD5E49;}
	.st547{clip-path:url(#SVGID_121_);fill:#DD5D48;}
	.st548{clip-path:url(#SVGID_121_);fill:#DD5C47;}
	.st549{clip-path:url(#SVGID_121_);fill:#DC5A47;}
	.st550{clip-path:url(#SVGID_121_);fill:#DC5946;}
	.st551{clip-path:url(#SVGID_121_);fill:#DC5845;}
	.st552{clip-path:url(#SVGID_121_);fill:#DC5745;}
	.st553{clip-path:url(#SVGID_121_);fill:#DC5644;}
	.st554{clip-path:url(#SVGID_121_);fill:#DB5543;}
	.st555{clip-path:url(#SVGID_121_);fill:#DB5442;}
	.st556{clip-path:url(#SVGID_121_);fill:#DB5342;}
	.st557{clip-path:url(#SVGID_121_);fill:#DB5141;}
	.st558{clip-path:url(#SVGID_121_);fill:#DB5040;}
	.st559{clip-path:url(#SVGID_121_);fill:#DB4F40;}
	.st560{clip-path:url(#SVGID_121_);fill:#DA4E3F;}
	.st561{clip-path:url(#SVGID_121_);fill:#DA4D3E;}
	.st562{clip-path:url(#SVGID_121_);fill:#DA4C3D;}
	.st563{clip-path:url(#SVGID_121_);fill:#DA4B3D;}
	.st564{clip-path:url(#SVGID_121_);fill:#DA4A3C;}
	.st565{clip-path:url(#SVGID_121_);fill:#DA483B;}
	.st566{clip-path:url(#SVGID_121_);fill:#D9473A;}
	.st567{clip-path:url(#SVGID_121_);fill:#D9463A;}
	.st568{clip-path:url(#SVGID_121_);fill:#D94539;}
	.st569{clip-path:url(#SVGID_123_);fill:url(#SVGID_124_);}
</style>
<g>
	<path class="st16" d="M77.1,410.7c8.7,2.6,17.4,5.3,26,7.9c7.2,2.2,14.4,4.3,21.6,6.4c1.3,0.4,2,0.9,2,2.5c0,23.3,0,46.7,0,70
		c0,0.3-0.1,0.7-0.1,1.4c-16.6-5.5-33.1-10.9-49.5-16.4C77.1,458.5,77.1,434.6,77.1,410.7z"/>
	<path class="st16" d="M468.2,424.1c4.3-10.8,11.9-16.8,23.8-17c12.1-0.1,19.3,6.5,23.9,17.3c0.6-1.2,1-2,1.4-2.8
		c8.3-16.8,32.7-19.7,44.4-5.4c3.5,4.3,5,9.3,5.3,14.7c0.3,5.9,0.2,11.7,0.2,17.6c0,18.4,0,36.8,0,55.2c0,5.6-0.5,6.2-6.3,6.2
		c-4.7,0-9.4,0-14.2,0c-3.5,0-4.6-1.1-4.6-4.6c0-18.8,0-37.6,0-56.5c0-2.9-0.1-5.7-0.4-8.6c-0.9-9-8.2-10.8-14.3-9
		c-5.9,1.8-8.3,6.4-8.9,12.2c-0.3,3.3-0.5,6.6-0.5,9.9c0,17.1,0,34.2,0,51.3c0,4.3-1,5.2-5.3,5.2c-5.1,0-10.2,0-15.2,0
		c-3.4,0-4.6-1.2-4.6-4.7c0-18.6,0.1-37.2,0-55.8c0-3.6-0.3-7.2-1-10.6c-1.1-5.2-4.4-7.9-9.1-8.2c-5.6-0.4-9.8,1.8-11.6,6.8
		c-1,2.8-1.8,5.8-1.9,8.7c-0.3,15.7-0.3,31.3-0.4,47c0,4.3,0,8.6,0,12.9c0,2.6-1.3,3.9-3.8,3.9c-5.8,0.1-11.6,0.1-17.4,0
		c-2.8,0-3.9-1.3-3.9-4.5c0-26.4,0-52.8,0-79.2c0-4.2,0-8.4,0-12.7c0-3.3,1.1-4.5,4.5-4.5c4.9,0,9.9,0,14.8,0c3.4,0,4.5,1.2,4.6,4.5
		c0,3.5,0,7,0,10.5C467.9,424,468,424.1,468.2,424.1z"/>
	<path class="st16" d="M640.8,498.4c-2.6,2.1-5.2,4.7-8.2,6.7c-10.6,7.1-22.1,8.1-33.8,3.7c-10.4-3.9-14.7-12.7-15.3-23.3
		c-1-18.7,8.6-31.2,27.7-35.5c7.8-1.8,16-2.5,24-3.5c1.8-0.2,2.5-0.7,2.3-2.6c-0.2-2.7-0.1-5.4-0.4-8.1c-0.7-5.6-4.2-9.2-9.7-9.9
		c-8.4-1.1-15.6,2.9-17.4,10.9c-0.6,2.7-1.8,3.4-4.5,3.1c-5.3-0.5-10.5-1.1-15.8-1.7c-2.7-0.3-3.8-1.9-3.2-4.7
		c2.2-10.3,7.9-18.1,17.6-22.4c13.9-6.2,28.1-6.8,42.3-1.2c10.3,4,15.9,11.9,16.3,22.8c0.5,13.4,0.5,26.9,0.4,40.3
		c-0.1,6.9,1.6,13,6,18.3c0.6,0.7,1.1,1.5,1.5,2.3c0.7,1.4,0.5,2.8-0.7,3.9c-4.6,4-9.2,8-13.8,11.9c-1.8,1.5-3.7,1.5-5.4-0.2
		C647.3,505.7,644.1,502,640.8,498.4z M638,461.2c-4.2-0.6-10.3,0-14.7,1.3c-9.9,2.8-14.4,10-12.9,20.1c1.4,9.2,10.7,13.1,18.3,7.6
		c4-2.8,6.6-6.7,7.5-11.4C637.2,473.1,637.4,467.2,638,461.2z"/>
	<path class="st16" d="M396.8,446.1c-0.2-3.8-0.1-7.3-0.6-10.9c-0.8-5.4-4.3-8.7-9.7-9.4c-8.9-1.1-15.7,3.4-17.2,10.9
		c-0.6,2.8-1.8,3.5-4.7,3.2c-5.3-0.5-10.5-1.1-15.8-1.7c-2.5-0.3-3.6-1.9-3.1-4.4c2.4-12,9.6-20.1,21-24.3c11-4,22.2-4.5,33.6-1.6
		c14.4,3.7,21.7,12.9,22,27.8c0.2,12.6,0.2,25.2,0,37.8c-0.1,6.4,1.6,12.1,5.6,17.1c0.6,0.7,1.1,1.5,1.6,2.3
		c1.2,1.9,0.9,3.4-0.8,4.9c-4.2,3.7-8.4,7.3-12.7,11c-2.6,2.2-4.3,2.3-6.7-0.1c-3.3-3.4-6.3-7-9.3-10.4c-2.6,2.2-5.3,4.8-8.4,6.8
		c-10.5,7-22,7.9-33.6,3.7c-8.6-3.1-13.2-10-14.8-18.8c-2-11-0.2-21.1,7.5-29.6c5.7-6.3,13.1-9.4,21.2-10.9c7.4-1.4,15-2.1,22.5-3.1
		C395.1,446.3,395.7,446.2,396.8,446.1z M396.6,460.4c-4.8,0.7-9.2,0.9-13.5,1.9c-10.3,2.5-14.8,9.3-13.7,19.8c1,8.9,9.2,13.2,17,9
		c4.7-2.5,7.2-6.8,8.8-11.7C397.2,473.4,396.5,467.3,396.6,460.4z"/>
	<path class="st16" d="M884.8,425.8c0.6-1.3,1.2-2.5,1.8-3.8c3.6-7.3,8.8-12.8,17.3-14.4c16.6-3.1,29.3,6.1,31.2,22.9
		c0.5,4.7,0.8,9.4,0.8,14.1c0.1,20.3,0,40.5,0,60.8c0,3.3-1.1,4.5-4.5,4.5c-5.4,0-10.7,0-16.1,0c-3.4,0-4.6-1.2-4.6-4.7
		c0-18.9,0.1-37.8-0.1-56.7c0-3.5-0.5-7-1.3-10.4c-0.8-3.9-3.2-6.7-7.3-7.6c-4.3-0.9-8.1,0.3-11,3.6c-3.2,3.7-4.3,8.2-4.8,12.8
		c-0.4,3.2-0.4,6.4-0.5,9.6c0,16.1,0,32.2,0,48.3c0,3.7-1.1,4.9-4.8,4.9c-5.3,0-10.6,0-15.9,0c-3.2,0-4.4-1.2-4.4-4.4
		c0-30.7,0-61.4,0-92.1c0-3,1.3-4.3,4.3-4.3c5.2,0,10.3,0,15.5,0c2.8,0,4.1,1.3,4.1,4.1c0,4.2,0,8.4,0,12.6
		C884.5,425.7,884.7,425.7,884.8,425.8z"/>
	<path class="st16" d="M763.5,459.3c0.1-10.6,1.7-21,6.6-30.5c7.3-14.1,18.7-21.7,34.7-21.6c16,0,27.5,7.5,34.9,21.5
		c5.8,10.9,7.4,22.8,6.9,34.9c-0.4,10.8-3,21.1-9.1,30.2c-8.8,13.3-21.3,19.4-37.2,17.8c-14.9-1.5-24.8-10-31-23.3
		C765.1,479.1,763.6,469.3,763.5,459.3z M789.9,458c0.3,0,0.6,0.1,1,0.1c0,3.6-0.2,7.2,0,10.7c0.4,5.9,1.1,11.8,4,17.2
		c4.6,8.4,15.2,8.8,20.1,0.6c1.5-2.6,2.6-5.6,3.2-8.6c2.1-9.4,1.7-18.9,1-28.4c-0.4-5.2-1.4-10.3-2.8-15.3c-1.5-5.2-5.5-7.8-11-8
		c-5.1-0.1-8.8,2.1-11.1,6.6c-0.8,1.5-1.6,3.1-1.8,4.8C791.6,444.4,790.8,451.2,789.9,458z"/>
	<path class="st16" d="M720.5,429.1c-1.2,0-2,0-2.7,0c-9.3,0-18.6,0-27.9,0c-3.1,0-4.3-1.1-4.3-4.3c0-3.9,0-7.9,0-11.8
		c0-3,1.1-4.1,3.9-4.1c19.7,0,39.5,0,59.2,0c2.9,0,4,1.1,4,4.1c0,3.4,0.2,6.7-0.1,10.1c-0.1,1.8-0.8,3.7-1.8,5.1
		c-6.3,9.3-12.8,18.5-19.2,27.7c-4.4,6.3-8.8,12.5-13.2,18.8c-0.4,0.6-0.8,1.3-1.4,2.1c3.4,0.2,6.5,0.3,9.6,0.5
		c8.3,0.6,16.2,2.7,23.6,6.5c2.9,1.5,4.3,3.7,4.3,6.8c0,4.1,0,8.3,0,12.5c0,3.8-2.2,5.1-5.6,3.5c-20.6-9.6-41.1-9.7-61.6,0.1
		c-3.1,1.5-5.2,0.2-5.2-3.2c0-4.7,0-9.4,0-14.2c0-3.4,1-6.4,3-9.2c11.3-16.2,22.6-32.4,33.8-48.6
		C719.4,430.8,719.8,430.1,720.5,429.1z"/>
	<path class="st16" d="M441.4,393.3c-3.1-1-5.9-2-8.8-2.9c-12.9-4.3-25.7-8.6-38.6-12.8c-1.4-0.4-2-1-1.9-2.5c0-22.7,0-45.4,0-68
		c0-0.4,0-0.7,0.1-1.3c0.6,0.1,1.1,0.1,1.6,0.3c15.2,4.5,30.4,9,45.6,13.5c1.4,0.4,2.1,1,2.1,2.6c-0.1,23.2,0,46.4,0,69.6
		C441.5,392,441.4,392.4,441.4,393.3z"/>
	<path class="st16" d="M266.3,305.5c2.4,0.7,4.8,1.3,7.1,2c13.3,3.9,26.5,7.9,39.8,11.8c1.9,0.5,2.4,1.4,2.4,3.3
		c-0.1,10.9,0,21.9-0.1,32.8c0,11.9-0.2,23.8-0.3,35.6c0,0.6-0.1,1.1-0.1,1.9c-0.6-0.1-1.2-0.1-1.7-0.3
		c-15.2-5.1-30.4-10.1-45.5-15.2c-1.3-0.4-1.8-1-1.8-2.4c0-22.8,0-45.5,0-68.3C266.2,306.5,266.3,306.2,266.3,305.5z"/>
	<path class="st16" d="M266.2,498.8c0-1,0-1.6,0-2.3c0-22.8,0-45.7,0-68.5c0-1.8,0.6-2.6,2.3-3.1c14.9-4.4,29.9-8.8,44.8-13.2
		c0.7-0.2,1.3-0.3,2.3-0.6c0,4.1,0,7.9,0,11.8c-0.1,6.2-0.2,12.4-0.3,18.7c-0.1,12.8-0.1,25.6-0.1,38.4c0,1.9-0.6,2.7-2.4,3.3
		c-14.9,4.9-29.7,9.9-44.5,14.9C267.8,498.4,267.2,498.5,266.2,498.8z"/>
	<path class="st16" d="M140.5,516.6c3.6,1,7,2,10.4,3c12,3.5,24,7.2,36,10.6c2,0.6,2.7,1.5,2.7,3.6c-0.1,22.6-0.1,45.2-0.1,67.8
		c0,0.8-0.1,1.5-0.1,2.5c-0.9-0.2-1.6-0.4-2.3-0.6c-14.8-4.9-29.7-9.9-44.5-14.8c-1.5-0.5-2.2-1.1-2.2-2.8c0.1-22.4,0-44.8,0-67.2
		C140.4,518.1,140.5,517.5,140.5,516.6z"/>
	<path class="st16" d="M252.4,498.9c-3-1-5.7-1.9-8.4-2.8c-12.9-4.3-25.7-8.6-38.6-12.9c-1.6-0.5-2.1-1.3-2.1-2.9
		c0-22.4,0-44.8,0-67.2c0-0.6,0.1-1.1,0.2-2c3.4,1,6.6,1.9,9.7,2.8c12.4,3.7,24.8,7.4,37.2,11c1.5,0.4,2.1,1,2.1,2.6
		c-0.1,23.3,0,46.5,0,69.8C252.5,497.7,252.5,498.1,252.4,498.9z"/>
	<path class="st16" d="M455.1,393.1c0-1,0-1.7,0-2.4c0-22.7,0-45.3,0-68c0-2.1,0.7-2.9,2.7-3.5c14.7-4.3,29.3-8.7,43.9-13
		c2.4-0.7,2.5-0.7,2.5,1.9c0,22.2,0,44.5,0,66.7c0,1.4-0.3,2.2-1.8,2.7c-15.2,5.1-30.5,10.2-45.7,15.3
		C456.4,392.9,455.9,392.9,455.1,393.1z"/>
	<path class="st16" d="M140.4,498.7c0-0.9,0-1.6,0-2.3c0-22.7,0-45.5,0-68.2c0-1.8,0.4-2.8,2.3-3.3c14.9-4.3,29.8-8.8,44.8-13.2
		c0.6-0.2,1.2-0.3,2.1-0.4c0,1,0,1.8,0,2.6c0,22-0.1,44.1-0.1,66.1c0,2-0.6,2.8-2.5,3.4c-14.7,4.9-29.4,9.8-44.1,14.8
		C142.1,498.3,141.4,498.5,140.4,498.7z"/>
	<path class="st16" d="M252.5,516.7c0,0.9,0,1.6,0,2.3c0,22.2,0,44.4,0,66.5c0,1.7-0.5,2.5-2.1,3.1c-14.8,4.9-29.7,9.9-44.5,14.9
		c-0.7,0.2-1.3,0.4-2.3,0.7c-0.1-0.9-0.2-1.7-0.2-2.4c0-22.7,0-45.5,0-68.2c0-1.5,0.2-2.5,1.9-3c15.2-4.5,30.4-9,45.6-13.5
		C251.3,516.9,251.7,516.9,252.5,516.7z"/>
	<path class="st16" d="M329.3,393.1c0-1,0-1.7,0-2.4c0-22.7,0-45.3,0-68c0-2,0.6-2.9,2.5-3.4c14.8-4.3,29.6-8.7,44.3-13.1
		c1.7-0.5,2.3-0.3,2.3,1.6c-0.1,22.5-0.1,44.9,0,67.4c0,1.3-0.4,1.9-1.7,2.3c-15.3,5.1-30.6,10.2-45.9,15.4
		C330.4,392.9,330,392.9,329.3,393.1z"/>
	<path class="st16" d="M361.2,581.5c1.5-5.6,3-11.1,4.4-16.7c1.8-6.6,3.5-13.3,5.2-19.9c0.9-3.2,1.5-3.7,5-3.7c0.5,0,1,0,1.5,0
		c3,0,3.8,0.6,4.6,3.4c2.5,8.7,4.9,17.5,7.4,26.2c1,3.7,2.1,7.4,3.6,11.1c0.2-0.7,0.5-1.4,0.7-2.1c3.3-11.6,6.6-23.2,9.9-34.8
		c1-3.5,6.6-5.4,9.6-3.2c1.3,0.9,1,2,0.7,3.3c-2.2,8-4.3,16-6.5,24c-2.8,10.5-5.7,21-8.6,31.4c-1,3.6-1.4,4-5.2,4
		c-5.6,0-5.6,0-7.2-5.4c-3.2-11.2-6.3-22.4-9.5-33.6c-0.1-0.5-0.3-0.9-0.6-1.8c-0.3,1-0.5,1.6-0.7,2.3c-3,11.6-6.1,23.2-9.1,34.8
		c-0.8,3.2-1.5,3.7-4.8,3.7c-5.8,0-5.9,0.8-7.8-5.9c-4.9-17.7-9.9-35.3-14.9-53c-0.9-3.1-0.1-4.2,3-4.3c8.2-0.1,7.7-0.3,9.7,7
		c2.7,10.4,5.6,20.7,8.4,31c0.2,0.8,0.5,1.6,0.7,2.3C360.9,581.5,361.1,581.5,361.2,581.5z"/>
	<path class="st16" d="M485.8,595c-0.6,1.9-1.1,3.5-1.6,5.1c-0.8,2.1-2.4,2.9-4.8,2.4c-2.1-0.4-2.7-1.8-2.7-3.7c0-24.7,0-49.4,0-74
		c0-2.7,1-3.6,3.6-3.7c1.4,0,2.9,0,4.3,0c2.5,0.1,3.5,1,3.5,3.6c0,6.9,0,13.7,0,20.6c0,0.7,0,1.4,0,2.1c0.3,0,0.5,0.1,0.5,0
		c7.8-11.1,26.4-8.9,33.6,3.5c4.6,8,5.6,16.7,4.8,25.7c-0.6,6.2-2.3,12-5.7,17.3c-7.8,12.2-25.8,13.3-34.4,2.3
		C486.6,595.8,486.3,595.5,485.8,595z M487.5,571.6c0.2,0,0.4,0.1,0.5,0.1c0,1.8-0.2,3.6,0.1,5.4c0.5,3.2,0.9,6.6,2.2,9.5
		c2.1,5,6.3,7.9,11.8,7.9c5.4,0.1,8.6-3.4,10.6-8.1c2.5-5.9,2.9-12,2.3-18.3c-0.5-4.7-1.4-9.3-4.1-13.4c-3.8-5.9-10.4-7-15.9-2.6
		c-2.6,2.1-4.7,4.8-5.5,8C488.5,563.8,488.1,567.7,487.5,571.6z"/>
	<path class="st16" d="M428.3,574.3c-0.2,4.2,0.2,8,1.8,11.5c2.5,5.6,7,8.8,13,9c5.8,0.2,9.9-2.9,12.6-7.9c1.7-3.1,2.3-3.4,5.8-2.7
		c0.6,0.1,1.3,0.2,1.9,0.4c4.2,0.9,4.7,1.8,2.9,5.7c-5.1,10.9-15.7,15-26.2,14c-11.7-1.1-19.2-7.6-22.6-18.7
		c-3.3-10.8-2.7-21.5,2.8-31.6c9.1-16.9,30.6-15.8,39.4-7.1c5.1,5.1,7.5,11.4,8.5,18.3c0.2,1.6,0.4,3.1,0.4,4.7
		c0.1,3.6-0.7,4.4-4.3,4.4c-11.2,0-22.5,0-33.7,0C430,574.3,429.2,574.3,428.3,574.3z M428.9,565.6c9.1,0,18.2,0,27.3,0
		c0.9-8.2-5.2-15.7-12.9-16.1C436,549.2,428.6,557.4,428.9,565.6z"/>
	<path class="st16" d="M612.2,574.3c-0.3,4.6,0.3,8.8,2.4,12.7c2.7,5,7.1,7.7,12.7,7.8c5.5,0.1,9.5-2.8,12.1-7.6
		c2.1-3.7,2.2-3.8,6.4-3c6.1,1.1,6.6,2.2,3.6,7.5c-4.9,8.9-15.3,13.9-26.1,12.5c-10.9-1.4-18.2-7.4-21.6-17.7
		c-3.8-11.3-3.2-22.4,2.7-33c9.2-16.6,32.3-16.1,41.2-4.4c5.1,6.7,6.9,14.3,6.9,22.5c0,2.1-1.6,2.6-3.4,2.6c-8.7,0-17.3,0-26,0
		C619.6,574.3,616,574.3,612.2,574.3z M612.7,565.6c9.3,0,18.4,0,27.5,0c0-9.3-5.8-16.1-13.4-16
		C619.6,549.6,612.9,557.2,612.7,565.6z"/>
	<path class="st16" d="M839.6,574.3c-0.1,4.8,0.4,9.3,2.8,13.2c2.8,4.7,7.1,7.3,12.6,7.2c5.4,0,9.3-2.9,11.9-7.6
		c2.1-3.7,2.2-3.8,6.4-3c0.4,0.1,0.8,0.2,1.3,0.3c4.5,0.9,5,1.9,3,5.9c-4.7,9.8-15.4,15.3-26.8,13.8c-11.1-1.4-18.3-7.6-21.7-18.1
		c-3.6-11.1-2.9-22,2.7-32.4c9.2-16.8,31.9-16.1,40.8-5.2c4.2,5.1,6.2,11,7.1,17.4c0.2,1.6,0.3,3.1,0.4,4.7c0.1,2.6-0.9,3.7-3.6,3.7
		c-10.7,0-21.5,0-32.2,0C842.8,574.3,841.3,574.3,839.6,574.3z M867.6,565.7c0.8-8.2-5.2-15.7-12.9-16.1
		c-7.3-0.4-14.6,7.7-14.4,16.1C849.3,565.7,858.5,565.7,867.6,565.7z"/>
	<path class="st16" d="M908.8,540.5c4.5,0.4,8.8,1,12.8,2.9c4.6,2.2,7.8,5.7,9.6,10.5c0.8,2,0,3.5-2.1,4.1c-0.5,0.2-1.1,0.3-1.7,0.4
		c-4.9,1.1-4.9,1.1-7.8-3c-3.9-5.5-13.2-7.1-18.7-3.3c-2.4,1.6-3.2,3.9-2.9,6.7c0.3,2.6,1.7,4.6,4.1,5.2c4.7,1.2,9.5,1.9,14.2,3.1
		c3.2,0.8,6.6,1.6,9.5,3.2c11,6.1,11.5,22.5,1.1,29.5c-9.9,6.7-27.4,5.8-36.5-1.9c-2.7-2.3-4.6-5.2-5.7-8.7c-0.7-2.2,0-3.6,2.3-4.1
		c0.7-0.2,1.4-0.3,2.1-0.4c4.7-1,4.5-0.8,7.2,3.2c1.4,2.1,3.6,3.9,5.8,5.1c4.4,2.2,9.2,2.5,14,1c1.3-0.4,2.7-1.1,3.7-2
		c4.2-3.4,3.7-9.7-1.2-11.9c-3.1-1.4-6.5-1.9-9.9-2.8c-3.5-0.9-7-1.4-10.4-2.5c-8.3-2.7-12.4-8.4-12.2-16.4c0.2-8,4.9-14,13.1-16.3
		C902.4,541.4,905.6,541.1,908.8,540.5z"/>
	<path class="st16" d="M567,540.9c5.4,0,9.7,0.7,13.8,2.6c4.6,2.2,7.8,5.7,9.7,10.4c0.8,2.2,0.1,3.5-2.2,4.2
		c-0.6,0.2-1.1,0.3-1.7,0.4c-4.8,1-4.8,1-7.6-3c-3.9-5.6-13.3-7.2-18.9-3.2c-2.3,1.6-3.1,3.9-2.8,6.6c0.3,2.6,1.7,4.6,4.2,5.2
		c4.6,1.2,9.3,2,14,3.1c2.2,0.5,4.4,0.9,6.4,1.7c7.2,2.6,11.5,8.4,11.8,15.8c0.3,7.7-3.3,13.9-10.6,17c-10.2,4.3-20.4,4-30.2-1.3
		c-4.4-2.4-7.3-6.1-8.9-10.9c-0.7-2.1,0-3.5,2.1-4.1c1.7-0.4,3.4-0.7,5-1c1.6-0.3,3,0.2,3.4,1.8c2,6.9,11.6,9.5,17.1,8.7
		c2-0.3,3.9-0.8,5.7-1.6c3.1-1.4,4.5-4,4.4-7.5c-0.1-3.2-2.1-5.3-4.9-6.1c-4.4-1.3-8.9-1.9-13.3-3.2c-3.5-1-7.2-2-10.4-3.7
		c-10.5-5.6-9.5-21.4-1.4-27.2C556.7,542.1,562.2,540.9,567,540.9z"/>
	<path class="st16" d="M773.2,572.9c0.5-6.6,1.6-12.9,4.5-18.8c5-10.1,14.3-14.7,25.8-12.8c9.3,1.5,16.6,9.7,18.1,19.9
		c0.2,1.7-0.5,3-2.1,3.2c-2.2,0.3-4.5,0.3-6.6-0.1c-0.9-0.2-1.7-1.7-2.3-2.8c-0.9-1.8-1.2-4-2.3-5.7c-4.3-6.9-13.2-7.3-18.2-0.9
		c-2.5,3.2-3.6,6.9-4.2,10.9c-0.9,6.5-0.7,12.9,1.4,19.1c0.6,1.7,1.4,3.5,2.5,5c4.2,6,12.5,6.5,17.1,0.7c1.6-2.1,2.6-4.7,3.5-7.2
		c0.7-2,1.8-3.1,4-3c1.5,0.1,3-0.1,4.5,0.1c1.7,0.2,3,1,2.7,2.9c-1.6,8.9-7,17.9-16.9,20.2c-13,3-24.8-2.2-29.3-17.8
		C774.3,581.6,773.9,577.2,773.2,572.9z"/>
	<path class="st16" d="M724,586.9c3.8-11.8,7.4-23.1,11-34.4c1-3.1,2-6.1,2.9-9.2c0.6-2,2-2.9,4-2.9c1.4,0,2.9-0.1,4.3,0
		c2.4,0.2,3.3,1.5,2.5,3.8c-6.2,18.9-12.4,37.9-18.6,56.8c-0.7,2.1-1.9,3.2-4.2,3c-1.6-0.1-3.3,0-4.9,0c-3.2,0-3.8-0.4-4.8-3.4
		c-2.6-7.6-5.1-15.2-7.7-22.7c-3.7-11-7.4-22.1-11.1-33.1c-1.1-3.1-0.1-4.4,3.2-4.4c1.5,0,3,0,4.5,0c3.1,0,4,0.7,5,3.6
		c4.3,13.3,8.6,26.6,13,39.9C723.3,584.8,723.6,585.6,724,586.9z"/>
	<path class="st16" d="M403.4,297.1c8.2-2.6,16.2-5.1,24.2-7.6c6-1.9,12-3.8,18-5.6c1.3-0.4,2.9-0.5,4.1-0.1
		c14.1,4.3,28.2,8.6,42.4,13c0.2,0.1,0.4,0.2,0.8,0.4c-6.5,1.7-12.8,3.4-19.1,5.1c-8,2.1-16,4.3-24,6.3c-1,0.3-2.1,0.4-3.1,0.1
		c-14.2-3.7-28.4-7.6-42.6-11.4C403.9,297.3,403.8,297.2,403.4,297.1z"/>
	<path class="st16" d="M178.5,402.6c-11.3,3-22.1,5.9-33,8.7c-1.8,0.5-3.7,0.7-5.4,1.4c-4.7,1.9-9.2,1.4-14,0
		c-11.9-3.4-23.8-6.4-35.8-9.6c-0.5-0.1-0.9-0.3-1.7-0.6c7.1-2.2,13.9-4.4,20.6-6.5c7.4-2.3,14.8-4.7,22.3-6.9
		c0.9-0.3,2-0.4,2.9-0.1C149,393.5,163.5,398,178.5,402.6z"/>
	<path class="st16" d="M277.3,297.1c14.8-4.6,29-9.1,43.3-13.5c0.8-0.3,1.9-0.3,2.7-0.1c14.5,4.4,29,8.9,44,13.6
		c-6.2,1.7-12,3.2-17.8,4.8c-8.5,2.3-17,4.5-25.4,6.7c-0.9,0.2-1.9,0.4-2.7,0.2C306.8,305,292.2,301.1,277.3,297.1z"/>
	<path class="st16" d="M214.5,402.6c11.6-3.6,22.7-7.1,33.9-10.6c0.2-0.1,0.4-0.1,0.6-0.2c6.5-3.1,12.8-2.9,19.7-0.4
		c11.5,4.2,23.4,7.4,35.6,11.2c-5.6,1.5-10.8,2.9-15.9,4.2c-9.1,2.4-18.2,4.9-27.3,7.2c-1.1,0.3-2.3,0.4-3.4,0.2
		c-14.1-3.7-28.1-7.5-42.2-11.3C215.4,402.9,215.1,402.8,214.5,402.6z"/>
	<path class="st16" d="M240.5,508.5c-9.2,2.4-18.4,4.9-27.5,7.3c-5.1,1.4-10.2,2.7-15.3,4c-0.9,0.2-2,0.3-2.9,0
		c-13.7-3.6-27.5-7.3-41.2-11c-0.4-0.1-0.8-0.3-1.7-0.7c2.2-0.7,4-1.3,5.8-1.9c12.1-3.8,24.1-7.6,36.2-11.3c1.4-0.4,3.1-0.4,4.5,0
		c13.2,4,26.4,8.1,39.5,12.1c0.9,0.3,1.7,0.6,2.6,0.9C240.5,508.1,240.5,508.3,240.5,508.5z"/>
	<path class="st16" d="M671.1,551.1c1.1-1.5,1.7-2.5,2.5-3.4c3.6-4.4,8.1-6.7,13.8-6.3c2.7,0.2,3.5,1.1,3.6,3.8
		c0.1,6.2,0.1,6-5.8,7.3c-7.1,1.5-10.5,6.8-12.3,13.3c-0.7,2.6-0.8,5.5-0.9,8.3c-0.1,8.7,0,17.5,0,26.2c0,3-0.8,3.8-3.8,3.9
		c-1.5,0-3,0-4.5,0c-2,0-3-1-3.1-3c0-1.4,0-2.9,0-4.3c0-16.5,0-32.9,0-49.4c0-3.7,0.7-4.4,4.3-4.4c6.1,0,6.1,0,6.2,6.2
		C671.1,549.6,671.1,550.1,671.1,551.1z"/>
	<path class="st16" d="M754.1,572.3c0-9.4,0-18.7,0-28.1c0-3.3,0.9-4.2,4.2-4.2c1.5,0,3,0,4.5,0c2.3,0.1,3.5,1.2,3.5,3.5
		c0,19.3,0,38.6,0,57.9c0,2.3-1.1,3.4-3.5,3.4c-1.5,0-3,0-4.5,0c-3.3,0-4.2-0.9-4.2-4.2C754.1,591.2,754.1,581.8,754.1,572.3
		C754.1,572.3,754.1,572.3,754.1,572.3z"/>
	<path class="st16" d="M767.4,525.3c0,4-3.2,7.2-7.2,7.2c-4,0-7.2-3.2-7.1-7.2c0-4.1,3.1-7.2,7.2-7.1
		C764.3,518.1,767.4,521.2,767.4,525.3z"/>
</g>
</svg>
