<?xml version="1.0" encoding="utf-8"?>
<!-- Generator: Adobe Illustrator 21.0.2, SVG Export Plug-In . SVG Version: 6.00 Build 0)  -->
<svg version="1.1" id="Capa_1" xmlns="http://www.w3.org/2000/svg" xmlns:xlink="http://www.w3.org/1999/xlink" x="0px" y="0px"
	 viewBox="0 0 500 500" style="enable-background:new 0 0 500 500;" xml:space="preserve">
<style type="text/css">
	.st0{fill:url(#SVGID_1_);}
	.st1{fill:url(#SVGID_2_);}
	.st2{fill:url(#SVGID_3_);}
	.st3{fill:url(#SVGID_4_);}
	.st4{fill:url(#SVGID_5_);}
	.st5{fill:url(#SVGID_6_);}
	.st6{fill:url(#SVGID_7_);}
	.st7{fill:url(#SVGID_8_);}
	.st8{fill:url(#SVGID_9_);}
	.st9{fill:url(#SVGID_10_);}
	.st10{fill:url(#SVGID_11_);}
	.st11{fill:url(#SVGID_12_);}
	.st12{fill:url(#SVGID_13_);}
	.st13{fill:url(#SVGID_14_);}
	.st14{fill:url(#SVGID_15_);}
	.st15{fill:url(#SVGID_16_);}
	.st16{fill:url(#SVGID_17_);}
	.st17{fill:url(#SVGID_18_);}
	.st18{fill:url(#SVGID_19_);}
	.st19{fill:url(#SVGID_20_);}
	.st20{fill:url(#SVGID_21_);}
	.st21{fill:url(#SVGID_22_);}
	.st22{fill:url(#SVGID_23_);}
	.st23{fill:url(#SVGID_24_);}
	.st24{fill:#FFFFFF;}
	.st25{clip-path:url(#SVGID_27_);fill:url(#SVGID_28_);}
	.st26{clip-path:url(#SVGID_27_);fill:url(#SVGID_29_);}
	.st27{clip-path:url(#SVGID_27_);fill:url(#SVGID_30_);}
	.st28{clip-path:url(#SVGID_27_);fill:url(#SVGID_31_);}
	.st29{clip-path:url(#SVGID_27_);fill:url(#SVGID_32_);}
	.st30{clip-path:url(#SVGID_27_);fill:url(#SVGID_33_);}
	.st31{clip-path:url(#SVGID_27_);fill:url(#SVGID_34_);}
	.st32{clip-path:url(#SVGID_27_);fill:url(#SVGID_35_);}
	.st33{clip-path:url(#SVGID_27_);fill:url(#SVGID_36_);}
	.st34{clip-path:url(#SVGID_27_);fill:url(#SVGID_37_);}
	.st35{clip-path:url(#SVGID_27_);fill:url(#SVGID_38_);}
	.st36{clip-path:url(#SVGID_27_);fill:url(#SVGID_39_);}
	.st37{clip-path:url(#SVGID_27_);fill:url(#SVGID_40_);}
	.st38{clip-path:url(#SVGID_27_);fill:url(#SVGID_41_);}
	.st39{clip-path:url(#SVGID_27_);fill:url(#SVGID_42_);}
	.st40{clip-path:url(#SVGID_27_);fill:url(#SVGID_43_);}
	.st41{clip-path:url(#SVGID_27_);fill:url(#SVGID_44_);}
	.st42{clip-path:url(#SVGID_27_);fill:url(#SVGID_45_);}
	.st43{clip-path:url(#SVGID_27_);fill:url(#SVGID_46_);}
	.st44{clip-path:url(#SVGID_27_);fill:url(#SVGID_47_);}
	.st45{clip-path:url(#SVGID_27_);fill:url(#SVGID_48_);}
	.st46{clip-path:url(#SVGID_27_);fill:url(#SVGID_49_);}
	.st47{clip-path:url(#SVGID_27_);fill:url(#SVGID_50_);}
	.st48{clip-path:url(#SVGID_27_);fill:url(#SVGID_51_);}
	.st49{clip-path:url(#SVGID_27_);fill:url(#SVGID_52_);}
	.st50{clip-path:url(#SVGID_27_);fill:url(#SVGID_53_);}
	.st51{clip-path:url(#SVGID_27_);fill:url(#SVGID_54_);}
	.st52{clip-path:url(#SVGID_27_);fill:url(#SVGID_55_);}
	.st53{clip-path:url(#SVGID_27_);fill:url(#SVGID_56_);}
	.st54{clip-path:url(#SVGID_27_);fill:url(#SVGID_57_);}
	.st55{clip-path:url(#SVGID_27_);fill:url(#SVGID_58_);}
	.st56{clip-path:url(#SVGID_27_);fill:url(#SVGID_59_);}
	.st57{clip-path:url(#SVGID_27_);fill:url(#SVGID_60_);}
	.st58{clip-path:url(#SVGID_27_);fill:url(#SVGID_61_);}
	.st59{clip-path:url(#SVGID_27_);fill:url(#SVGID_62_);}
	.st60{clip-path:url(#SVGID_27_);fill:url(#SVGID_63_);}
	.st61{clip-path:url(#SVGID_27_);fill:url(#SVGID_64_);}
	.st62{clip-path:url(#SVGID_27_);fill:url(#SVGID_65_);}
	.st63{clip-path:url(#SVGID_27_);fill:url(#SVGID_66_);}
	.st64{clip-path:url(#SVGID_27_);fill:url(#SVGID_67_);}
	.st65{clip-path:url(#SVGID_27_);fill:url(#SVGID_68_);}
	.st66{clip-path:url(#SVGID_27_);fill:url(#SVGID_69_);}
	.st67{clip-path:url(#SVGID_27_);fill:url(#SVGID_70_);}
	.st68{clip-path:url(#SVGID_27_);fill:url(#SVGID_71_);}
	.st69{clip-path:url(#SVGID_27_);fill:url(#SVGID_72_);}
	.st70{clip-path:url(#SVGID_27_);fill:url(#SVGID_73_);}
	.st71{clip-path:url(#SVGID_27_);fill:url(#SVGID_74_);}
	.st72{clip-path:url(#SVGID_27_);fill:url(#SVGID_75_);}
	.st73{clip-path:url(#SVGID_27_);fill:url(#SVGID_76_);}
	.st74{clip-path:url(#SVGID_27_);fill:url(#SVGID_77_);}
	.st75{clip-path:url(#SVGID_27_);fill:url(#SVGID_78_);}
	.st76{clip-path:url(#SVGID_27_);fill:url(#SVGID_79_);}
	.st77{clip-path:url(#SVGID_27_);fill:url(#SVGID_80_);}
	.st78{clip-path:url(#SVGID_27_);fill:url(#SVGID_81_);}
	.st79{clip-path:url(#SVGID_27_);fill:url(#SVGID_82_);}
	.st80{clip-path:url(#SVGID_27_);fill:url(#SVGID_83_);}
	.st81{clip-path:url(#SVGID_27_);fill:url(#SVGID_84_);}
	.st82{clip-path:url(#SVGID_27_);fill:url(#SVGID_85_);}
	.st83{clip-path:url(#SVGID_27_);fill:url(#SVGID_86_);}
	.st84{clip-path:url(#SVGID_27_);fill:url(#SVGID_87_);}
	.st85{clip-path:url(#SVGID_27_);fill:url(#SVGID_88_);}
	.st86{clip-path:url(#SVGID_27_);fill:url(#SVGID_89_);}
	.st87{clip-path:url(#SVGID_27_);fill:url(#SVGID_90_);}
	.st88{clip-path:url(#SVGID_27_);fill:url(#SVGID_91_);}
	.st89{clip-path:url(#SVGID_27_);fill:url(#SVGID_92_);}
	.st90{clip-path:url(#SVGID_27_);fill:url(#SVGID_93_);}
	.st91{clip-path:url(#SVGID_27_);fill:url(#SVGID_94_);}
	.st92{clip-path:url(#SVGID_27_);fill:url(#SVGID_95_);}
	.st93{clip-path:url(#SVGID_27_);fill:url(#SVGID_96_);}
	.st94{clip-path:url(#SVGID_27_);fill:url(#SVGID_97_);}
	.st95{clip-path:url(#SVGID_27_);fill:url(#SVGID_98_);}
	.st96{clip-path:url(#SVGID_27_);fill:url(#SVGID_99_);}
	.st97{clip-path:url(#SVGID_27_);fill:url(#SVGID_100_);}
	.st98{clip-path:url(#SVGID_27_);fill:url(#SVGID_101_);}
	.st99{clip-path:url(#SVGID_27_);fill:url(#SVGID_102_);}
	.st100{clip-path:url(#SVGID_27_);fill:url(#SVGID_103_);}
	.st101{clip-path:url(#SVGID_27_);fill:url(#SVGID_104_);}
	.st102{clip-path:url(#SVGID_27_);fill:url(#SVGID_105_);}
	.st103{clip-path:url(#SVGID_27_);fill:url(#SVGID_106_);}
	.st104{clip-path:url(#SVGID_27_);fill:url(#SVGID_107_);}
	.st105{clip-path:url(#SVGID_27_);fill:url(#SVGID_108_);}
	.st106{clip-path:url(#SVGID_27_);fill:url(#SVGID_109_);}
	.st107{clip-path:url(#SVGID_27_);fill:url(#SVGID_110_);}
	.st108{clip-path:url(#SVGID_27_);fill:url(#SVGID_111_);}
	.st109{clip-path:url(#SVGID_27_);fill:url(#SVGID_112_);}
	.st110{clip-path:url(#SVGID_27_);fill:url(#SVGID_113_);}
	.st111{clip-path:url(#SVGID_27_);fill:url(#SVGID_114_);}
	.st112{clip-path:url(#SVGID_27_);fill:url(#SVGID_115_);}
	.st113{clip-path:url(#SVGID_27_);fill:url(#SVGID_116_);}
	.st114{clip-path:url(#SVGID_27_);fill:url(#SVGID_117_);}
	.st115{clip-path:url(#SVGID_27_);fill:url(#SVGID_118_);}
	.st116{clip-path:url(#SVGID_27_);fill:url(#SVGID_119_);}
	.st117{clip-path:url(#SVGID_27_);fill:url(#SVGID_120_);}
	.st118{clip-path:url(#SVGID_27_);fill:url(#SVGID_121_);}
	.st119{clip-path:url(#SVGID_27_);fill:url(#SVGID_122_);}
	.st120{clip-path:url(#SVGID_27_);fill:url(#SVGID_123_);}
	.st121{clip-path:url(#SVGID_27_);fill:url(#SVGID_124_);}
	.st122{clip-path:url(#SVGID_27_);fill:url(#SVGID_125_);}
	.st123{clip-path:url(#SVGID_27_);fill:url(#SVGID_126_);}
	.st124{clip-path:url(#SVGID_27_);fill:url(#SVGID_127_);}
	.st125{clip-path:url(#SVGID_27_);fill:url(#SVGID_128_);}
	.st126{clip-path:url(#SVGID_27_);fill:url(#SVGID_129_);}
	.st127{clip-path:url(#SVGID_27_);fill:url(#SVGID_130_);}
	.st128{clip-path:url(#SVGID_27_);fill:url(#SVGID_131_);}
	.st129{clip-path:url(#SVGID_27_);fill:url(#SVGID_132_);}
	.st130{clip-path:url(#SVGID_27_);fill:url(#SVGID_133_);}
	.st131{clip-path:url(#SVGID_27_);fill:url(#SVGID_134_);}
	.st132{clip-path:url(#SVGID_27_);fill:url(#SVGID_135_);}
	.st133{clip-path:url(#SVGID_27_);fill:url(#SVGID_136_);}
	.st134{clip-path:url(#SVGID_27_);fill:url(#SVGID_137_);}
	.st135{clip-path:url(#SVGID_27_);fill:url(#SVGID_138_);}
	.st136{clip-path:url(#SVGID_27_);fill:url(#SVGID_139_);}
	.st137{clip-path:url(#SVGID_27_);fill:url(#SVGID_140_);}
	.st138{clip-path:url(#SVGID_27_);fill:url(#SVGID_141_);}
	.st139{clip-path:url(#SVGID_27_);fill:url(#SVGID_142_);}
	.st140{clip-path:url(#SVGID_27_);fill:url(#SVGID_143_);}
	.st141{clip-path:url(#SVGID_27_);fill:url(#SVGID_144_);}
	.st142{clip-path:url(#SVGID_27_);fill:url(#SVGID_145_);}
	.st143{clip-path:url(#SVGID_27_);fill:url(#SVGID_146_);}
	.st144{clip-path:url(#SVGID_27_);fill:url(#SVGID_147_);}
	.st145{clip-path:url(#SVGID_27_);fill:url(#SVGID_148_);}
	.st146{clip-path:url(#SVGID_27_);fill:url(#SVGID_149_);}
	.st147{clip-path:url(#SVGID_27_);fill:url(#SVGID_150_);}
	.st148{clip-path:url(#SVGID_27_);fill:url(#SVGID_151_);}
	.st149{clip-path:url(#SVGID_27_);fill:url(#SVGID_152_);}
	.st150{clip-path:url(#SVGID_27_);fill:url(#SVGID_153_);}
	.st151{clip-path:url(#SVGID_27_);fill:url(#SVGID_154_);}
	.st152{clip-path:url(#SVGID_27_);fill:url(#SVGID_155_);}
	.st153{clip-path:url(#SVGID_27_);fill:url(#SVGID_156_);}
	.st154{clip-path:url(#SVGID_27_);fill:url(#SVGID_157_);}
	.st155{clip-path:url(#SVGID_27_);fill:url(#SVGID_158_);}
	.st156{clip-path:url(#SVGID_27_);fill:url(#SVGID_159_);}
	.st157{clip-path:url(#SVGID_27_);fill:url(#SVGID_160_);}
	.st158{clip-path:url(#SVGID_27_);fill:url(#SVGID_161_);}
	.st159{clip-path:url(#SVGID_27_);fill:url(#SVGID_162_);}
	.st160{clip-path:url(#SVGID_27_);fill:url(#SVGID_163_);}
	.st161{clip-path:url(#SVGID_27_);fill:url(#SVGID_164_);}
	.st162{clip-path:url(#SVGID_27_);fill:url(#SVGID_165_);}
	.st163{clip-path:url(#SVGID_27_);fill:url(#SVGID_166_);}
	.st164{clip-path:url(#SVGID_27_);fill:url(#SVGID_167_);}
	.st165{clip-path:url(#SVGID_27_);fill:url(#SVGID_168_);}
	.st166{clip-path:url(#SVGID_27_);fill:url(#SVGID_169_);}
	.st167{clip-path:url(#SVGID_27_);fill:url(#SVGID_170_);}
	.st168{clip-path:url(#SVGID_27_);fill:url(#SVGID_171_);}
	.st169{clip-path:url(#SVGID_27_);fill:url(#SVGID_172_);}
	.st170{clip-path:url(#SVGID_27_);fill:url(#SVGID_173_);}
	.st171{clip-path:url(#SVGID_27_);fill:url(#SVGID_174_);}
	.st172{clip-path:url(#SVGID_27_);fill:url(#SVGID_175_);}
	.st173{clip-path:url(#SVGID_27_);fill:url(#SVGID_176_);}
	.st174{clip-path:url(#SVGID_27_);fill:url(#SVGID_177_);}
	.st175{clip-path:url(#SVGID_27_);fill:url(#SVGID_178_);}
	.st176{clip-path:url(#SVGID_27_);fill:url(#SVGID_179_);}
	.st177{clip-path:url(#SVGID_27_);fill:url(#SVGID_180_);}
	.st178{clip-path:url(#SVGID_27_);fill:url(#SVGID_181_);}
	.st179{clip-path:url(#SVGID_27_);fill:url(#SVGID_182_);}
	.st180{clip-path:url(#SVGID_27_);fill:url(#SVGID_183_);}
	.st181{clip-path:url(#SVGID_27_);fill:url(#SVGID_184_);}
	.st182{clip-path:url(#SVGID_27_);fill:url(#SVGID_185_);}
	.st183{clip-path:url(#SVGID_27_);fill:url(#SVGID_186_);}
	.st184{clip-path:url(#SVGID_27_);fill:url(#SVGID_187_);}
	.st185{clip-path:url(#SVGID_27_);fill:url(#SVGID_188_);}
	.st186{clip-path:url(#SVGID_27_);fill:url(#SVGID_189_);}
	.st187{clip-path:url(#SVGID_27_);fill:url(#SVGID_190_);}
	.st188{clip-path:url(#SVGID_27_);fill:url(#SVGID_191_);}
	.st189{clip-path:url(#SVGID_27_);fill:url(#SVGID_192_);}
	.st190{clip-path:url(#SVGID_27_);fill:url(#SVGID_193_);}
	.st191{clip-path:url(#SVGID_27_);fill:url(#SVGID_194_);}
	.st192{clip-path:url(#SVGID_27_);fill:url(#SVGID_195_);}
	.st193{clip-path:url(#SVGID_27_);fill:url(#SVGID_196_);}
	.st194{clip-path:url(#SVGID_27_);fill:url(#SVGID_197_);}
	.st195{clip-path:url(#SVGID_27_);fill:url(#SVGID_198_);}
	.st196{clip-path:url(#SVGID_27_);fill:url(#SVGID_199_);}
	.st197{clip-path:url(#SVGID_27_);fill:url(#SVGID_200_);}
	.st198{clip-path:url(#SVGID_27_);fill:url(#SVGID_201_);}
	.st199{clip-path:url(#SVGID_27_);fill:url(#SVGID_202_);}
	.st200{clip-path:url(#SVGID_27_);fill:url(#SVGID_203_);}
	.st201{clip-path:url(#SVGID_27_);fill:url(#SVGID_204_);}
	.st202{clip-path:url(#SVGID_27_);fill:url(#SVGID_205_);}
	.st203{clip-path:url(#SVGID_27_);fill:url(#SVGID_206_);}
	.st204{clip-path:url(#SVGID_27_);fill:url(#SVGID_207_);}
	.st205{clip-path:url(#SVGID_27_);fill:url(#SVGID_208_);}
	.st206{clip-path:url(#SVGID_27_);fill:url(#SVGID_209_);}
	.st207{clip-path:url(#SVGID_27_);fill:url(#SVGID_210_);}
	.st208{clip-path:url(#SVGID_27_);fill:url(#SVGID_211_);}
	.st209{clip-path:url(#SVGID_27_);fill:url(#SVGID_212_);}
	.st210{clip-path:url(#SVGID_27_);fill:url(#SVGID_213_);}
	.st211{clip-path:url(#SVGID_27_);fill:url(#SVGID_214_);}
	.st212{clip-path:url(#SVGID_27_);fill:url(#SVGID_215_);}
	.st213{clip-path:url(#SVGID_27_);fill:url(#SVGID_216_);}
	.st214{clip-path:url(#SVGID_27_);fill:url(#SVGID_217_);}
	.st215{clip-path:url(#SVGID_27_);fill:url(#SVGID_218_);}
	.st216{clip-path:url(#SVGID_27_);fill:url(#SVGID_219_);}
	.st217{clip-path:url(#SVGID_27_);fill:url(#SVGID_220_);}
	.st218{clip-path:url(#SVGID_27_);fill:url(#SVGID_221_);}
	.st219{clip-path:url(#SVGID_27_);fill:url(#SVGID_222_);}
	.st220{clip-path:url(#SVGID_27_);fill:url(#SVGID_223_);}
	.st221{clip-path:url(#SVGID_27_);fill:url(#SVGID_224_);}
	.st222{clip-path:url(#SVGID_27_);fill:url(#SVGID_225_);}
	.st223{clip-path:url(#SVGID_27_);fill:url(#SVGID_226_);}
	.st224{clip-path:url(#SVGID_27_);fill:url(#SVGID_227_);}
	.st225{clip-path:url(#SVGID_27_);fill:url(#SVGID_228_);}
	.st226{clip-path:url(#SVGID_27_);fill:url(#SVGID_229_);}
	.st227{clip-path:url(#SVGID_27_);fill:url(#SVGID_230_);}
	.st228{clip-path:url(#SVGID_27_);fill:url(#SVGID_231_);}
	.st229{clip-path:url(#SVGID_27_);fill:url(#SVGID_232_);}
	.st230{clip-path:url(#SVGID_27_);fill:url(#SVGID_233_);}
	.st231{clip-path:url(#SVGID_27_);fill:url(#SVGID_234_);}
	.st232{clip-path:url(#SVGID_237_);fill:url(#SVGID_238_);}
	.st233{clip-path:url(#SVGID_237_);fill:url(#SVGID_239_);}
	.st234{clip-path:url(#SVGID_237_);fill:url(#SVGID_240_);}
	.st235{clip-path:url(#SVGID_237_);fill:url(#SVGID_241_);}
	.st236{clip-path:url(#SVGID_237_);fill:url(#SVGID_242_);}
	.st237{clip-path:url(#SVGID_237_);fill:url(#SVGID_243_);}
	.st238{clip-path:url(#SVGID_237_);fill:url(#SVGID_244_);}
	.st239{clip-path:url(#SVGID_237_);fill:url(#SVGID_245_);}
	.st240{clip-path:url(#SVGID_237_);fill:url(#SVGID_246_);}
	.st241{clip-path:url(#SVGID_237_);fill:url(#SVGID_247_);}
	.st242{clip-path:url(#SVGID_237_);fill:url(#SVGID_248_);}
	.st243{clip-path:url(#SVGID_237_);fill:url(#SVGID_249_);}
	.st244{clip-path:url(#SVGID_237_);fill:url(#SVGID_250_);}
	.st245{clip-path:url(#SVGID_237_);fill:url(#SVGID_251_);}
	.st246{clip-path:url(#SVGID_237_);fill:url(#SVGID_252_);}
	.st247{clip-path:url(#SVGID_237_);fill:url(#SVGID_253_);}
	.st248{clip-path:url(#SVGID_237_);fill:url(#SVGID_254_);}
	.st249{clip-path:url(#SVGID_237_);fill:url(#SVGID_255_);}
	.st250{clip-path:url(#SVGID_237_);fill:url(#SVGID_256_);}
	.st251{clip-path:url(#SVGID_237_);fill:url(#SVGID_257_);}
	.st252{clip-path:url(#SVGID_237_);fill:url(#SVGID_258_);}
	.st253{clip-path:url(#SVGID_237_);fill:url(#SVGID_259_);}
	.st254{clip-path:url(#SVGID_237_);fill:url(#SVGID_260_);}
	.st255{clip-path:url(#SVGID_237_);fill:url(#SVGID_261_);}
	.st256{clip-path:url(#SVGID_237_);fill:url(#SVGID_262_);}
	.st257{clip-path:url(#SVGID_237_);fill:url(#SVGID_263_);}
	.st258{clip-path:url(#SVGID_237_);fill:url(#SVGID_264_);}
	.st259{clip-path:url(#SVGID_237_);fill:url(#SVGID_265_);}
	.st260{clip-path:url(#SVGID_237_);fill:url(#SVGID_266_);}
	.st261{clip-path:url(#SVGID_237_);fill:url(#SVGID_267_);}
	.st262{clip-path:url(#SVGID_237_);fill:url(#SVGID_268_);}
	.st263{clip-path:url(#SVGID_237_);fill:url(#SVGID_269_);}
	.st264{clip-path:url(#SVGID_237_);fill:url(#SVGID_270_);}
	.st265{clip-path:url(#SVGID_237_);fill:url(#SVGID_271_);}
	.st266{clip-path:url(#SVGID_237_);fill:url(#SVGID_272_);}
	.st267{clip-path:url(#SVGID_237_);fill:url(#SVGID_273_);}
	.st268{clip-path:url(#SVGID_237_);fill:url(#SVGID_274_);}
	.st269{clip-path:url(#SVGID_237_);fill:url(#SVGID_275_);}
	.st270{clip-path:url(#SVGID_237_);fill:url(#SVGID_276_);}
	.st271{clip-path:url(#SVGID_237_);fill:url(#SVGID_277_);}
	.st272{clip-path:url(#SVGID_237_);fill:url(#SVGID_278_);}
	.st273{clip-path:url(#SVGID_237_);fill:url(#SVGID_279_);}
	.st274{clip-path:url(#SVGID_237_);fill:url(#SVGID_280_);}
	.st275{clip-path:url(#SVGID_237_);fill:url(#SVGID_281_);}
	.st276{clip-path:url(#SVGID_237_);fill:url(#SVGID_282_);}
	.st277{clip-path:url(#SVGID_237_);fill:url(#SVGID_283_);}
	.st278{clip-path:url(#SVGID_237_);fill:url(#SVGID_284_);}
	.st279{clip-path:url(#SVGID_237_);fill:url(#SVGID_285_);}
	.st280{clip-path:url(#SVGID_237_);fill:url(#SVGID_286_);}
	.st281{clip-path:url(#SVGID_237_);fill:url(#SVGID_287_);}
	.st282{clip-path:url(#SVGID_237_);fill:url(#SVGID_288_);}
	.st283{clip-path:url(#SVGID_237_);fill:url(#SVGID_289_);}
	.st284{clip-path:url(#SVGID_237_);fill:url(#SVGID_290_);}
	.st285{clip-path:url(#SVGID_237_);fill:url(#SVGID_291_);}
	.st286{clip-path:url(#SVGID_237_);fill:url(#SVGID_292_);}
	.st287{clip-path:url(#SVGID_237_);fill:url(#SVGID_293_);}
	.st288{clip-path:url(#SVGID_237_);fill:url(#SVGID_294_);}
	.st289{clip-path:url(#SVGID_237_);fill:url(#SVGID_295_);}
	.st290{clip-path:url(#SVGID_237_);fill:url(#SVGID_296_);}
	.st291{clip-path:url(#SVGID_237_);fill:url(#SVGID_297_);}
	.st292{clip-path:url(#SVGID_237_);fill:url(#SVGID_298_);}
	.st293{clip-path:url(#SVGID_237_);fill:url(#SVGID_299_);}
	.st294{clip-path:url(#SVGID_237_);fill:url(#SVGID_300_);}
	.st295{clip-path:url(#SVGID_237_);fill:url(#SVGID_301_);}
	.st296{clip-path:url(#SVGID_237_);fill:url(#SVGID_302_);}
	.st297{clip-path:url(#SVGID_237_);fill:url(#SVGID_303_);}
	.st298{clip-path:url(#SVGID_237_);fill:url(#SVGID_304_);}
	.st299{clip-path:url(#SVGID_237_);fill:url(#SVGID_305_);}
	.st300{clip-path:url(#SVGID_237_);fill:url(#SVGID_306_);}
	.st301{clip-path:url(#SVGID_237_);fill:url(#SVGID_307_);}
	.st302{clip-path:url(#SVGID_237_);fill:url(#SVGID_308_);}
	.st303{clip-path:url(#SVGID_237_);fill:url(#SVGID_309_);}
	.st304{clip-path:url(#SVGID_237_);fill:url(#SVGID_310_);}
	.st305{clip-path:url(#SVGID_237_);fill:url(#SVGID_311_);}
	.st306{clip-path:url(#SVGID_237_);fill:url(#SVGID_312_);}
	.st307{clip-path:url(#SVGID_237_);fill:url(#SVGID_313_);}
	.st308{clip-path:url(#SVGID_237_);fill:url(#SVGID_314_);}
	.st309{clip-path:url(#SVGID_237_);fill:url(#SVGID_315_);}
	.st310{clip-path:url(#SVGID_237_);fill:url(#SVGID_316_);}
	.st311{clip-path:url(#SVGID_237_);fill:url(#SVGID_317_);}
	.st312{clip-path:url(#SVGID_237_);fill:url(#SVGID_318_);}
	.st313{clip-path:url(#SVGID_237_);fill:url(#SVGID_319_);}
	.st314{clip-path:url(#SVGID_237_);fill:url(#SVGID_320_);}
	.st315{clip-path:url(#SVGID_237_);fill:url(#SVGID_321_);}
	.st316{clip-path:url(#SVGID_237_);fill:url(#SVGID_322_);}
	.st317{clip-path:url(#SVGID_237_);fill:url(#SVGID_323_);}
	.st318{clip-path:url(#SVGID_237_);fill:url(#SVGID_324_);}
	.st319{clip-path:url(#SVGID_237_);fill:url(#SVGID_325_);}
	.st320{clip-path:url(#SVGID_237_);fill:url(#SVGID_326_);}
	.st321{clip-path:url(#SVGID_237_);fill:url(#SVGID_327_);}
	.st322{clip-path:url(#SVGID_237_);fill:url(#SVGID_328_);}
	.st323{clip-path:url(#SVGID_237_);fill:url(#SVGID_329_);}
	.st324{clip-path:url(#SVGID_237_);fill:url(#SVGID_330_);}
	.st325{clip-path:url(#SVGID_237_);fill:url(#SVGID_331_);}
	.st326{clip-path:url(#SVGID_237_);fill:url(#SVGID_332_);}
	.st327{clip-path:url(#SVGID_237_);fill:url(#SVGID_333_);}
	.st328{clip-path:url(#SVGID_237_);fill:url(#SVGID_334_);}
	.st329{clip-path:url(#SVGID_237_);fill:url(#SVGID_335_);}
	.st330{clip-path:url(#SVGID_237_);fill:url(#SVGID_336_);}
	.st331{clip-path:url(#SVGID_237_);fill:url(#SVGID_337_);}
	.st332{clip-path:url(#SVGID_237_);fill:url(#SVGID_338_);}
	.st333{clip-path:url(#SVGID_237_);fill:url(#SVGID_339_);}
	.st334{clip-path:url(#SVGID_237_);fill:url(#SVGID_340_);}
	.st335{clip-path:url(#SVGID_237_);fill:url(#SVGID_341_);}
	.st336{clip-path:url(#SVGID_237_);fill:url(#SVGID_342_);}
	.st337{clip-path:url(#SVGID_237_);fill:url(#SVGID_343_);}
	.st338{clip-path:url(#SVGID_237_);fill:url(#SVGID_344_);}
	.st339{clip-path:url(#SVGID_237_);fill:url(#SVGID_345_);}
	.st340{clip-path:url(#SVGID_237_);fill:url(#SVGID_346_);}
	.st341{clip-path:url(#SVGID_237_);fill:url(#SVGID_347_);}
	.st342{clip-path:url(#SVGID_237_);fill:url(#SVGID_348_);}
	.st343{clip-path:url(#SVGID_237_);fill:url(#SVGID_349_);}
	.st344{clip-path:url(#SVGID_237_);fill:url(#SVGID_350_);}
	.st345{clip-path:url(#SVGID_237_);fill:url(#SVGID_351_);}
	.st346{clip-path:url(#SVGID_237_);fill:url(#SVGID_352_);}
	.st347{clip-path:url(#SVGID_237_);fill:url(#SVGID_353_);}
	.st348{clip-path:url(#SVGID_237_);fill:url(#SVGID_354_);}
	.st349{clip-path:url(#SVGID_237_);fill:url(#SVGID_355_);}
	.st350{clip-path:url(#SVGID_237_);fill:url(#SVGID_356_);}
	.st351{clip-path:url(#SVGID_237_);fill:url(#SVGID_357_);}
	.st352{clip-path:url(#SVGID_237_);fill:url(#SVGID_358_);}
	.st353{clip-path:url(#SVGID_237_);fill:url(#SVGID_359_);}
	.st354{clip-path:url(#SVGID_237_);fill:url(#SVGID_360_);}
	.st355{clip-path:url(#SVGID_237_);fill:url(#SVGID_361_);}
	.st356{clip-path:url(#SVGID_237_);fill:url(#SVGID_362_);}
	.st357{clip-path:url(#SVGID_237_);fill:url(#SVGID_363_);}
	.st358{clip-path:url(#SVGID_237_);fill:url(#SVGID_364_);}
	.st359{clip-path:url(#SVGID_237_);fill:url(#SVGID_365_);}
	.st360{clip-path:url(#SVGID_237_);fill:url(#SVGID_366_);}
	.st361{clip-path:url(#SVGID_237_);fill:url(#SVGID_367_);}
	.st362{clip-path:url(#SVGID_237_);fill:url(#SVGID_368_);}
	.st363{clip-path:url(#SVGID_237_);fill:url(#SVGID_369_);}
	.st364{clip-path:url(#SVGID_237_);fill:url(#SVGID_370_);}
	.st365{clip-path:url(#SVGID_237_);fill:url(#SVGID_371_);}
	.st366{clip-path:url(#SVGID_237_);fill:url(#SVGID_372_);}
	.st367{clip-path:url(#SVGID_237_);fill:url(#SVGID_373_);}
	.st368{clip-path:url(#SVGID_237_);fill:url(#SVGID_374_);}
	.st369{clip-path:url(#SVGID_237_);fill:url(#SVGID_375_);}
	.st370{clip-path:url(#SVGID_237_);fill:url(#SVGID_376_);}
	.st371{clip-path:url(#SVGID_237_);fill:url(#SVGID_377_);}
	.st372{clip-path:url(#SVGID_237_);fill:url(#SVGID_378_);}
	.st373{clip-path:url(#SVGID_237_);fill:url(#SVGID_379_);}
	.st374{clip-path:url(#SVGID_237_);fill:url(#SVGID_380_);}
	.st375{clip-path:url(#SVGID_237_);fill:url(#SVGID_381_);}
	.st376{clip-path:url(#SVGID_237_);fill:url(#SVGID_382_);}
	.st377{clip-path:url(#SVGID_237_);fill:url(#SVGID_383_);}
	.st378{clip-path:url(#SVGID_237_);fill:url(#SVGID_384_);}
	.st379{clip-path:url(#SVGID_237_);fill:url(#SVGID_385_);}
	.st380{clip-path:url(#SVGID_237_);fill:url(#SVGID_386_);}
	.st381{clip-path:url(#SVGID_237_);fill:url(#SVGID_387_);}
	.st382{clip-path:url(#SVGID_237_);fill:url(#SVGID_388_);}
	.st383{clip-path:url(#SVGID_237_);fill:url(#SVGID_389_);}
	.st384{clip-path:url(#SVGID_237_);fill:url(#SVGID_390_);}
	.st385{clip-path:url(#SVGID_237_);fill:url(#SVGID_391_);}
	.st386{clip-path:url(#SVGID_237_);fill:url(#SVGID_392_);}
	.st387{clip-path:url(#SVGID_237_);fill:url(#SVGID_393_);}
	.st388{clip-path:url(#SVGID_237_);fill:url(#SVGID_394_);}
	.st389{clip-path:url(#SVGID_237_);fill:url(#SVGID_395_);}
	.st390{clip-path:url(#SVGID_237_);fill:url(#SVGID_396_);}
	.st391{clip-path:url(#SVGID_237_);fill:url(#SVGID_397_);}
	.st392{clip-path:url(#SVGID_237_);fill:url(#SVGID_398_);}
	.st393{clip-path:url(#SVGID_237_);fill:url(#SVGID_399_);}
	.st394{clip-path:url(#SVGID_237_);fill:url(#SVGID_400_);}
	.st395{clip-path:url(#SVGID_237_);fill:url(#SVGID_401_);}
	.st396{clip-path:url(#SVGID_237_);fill:url(#SVGID_402_);}
	.st397{clip-path:url(#SVGID_237_);fill:url(#SVGID_403_);}
	.st398{clip-path:url(#SVGID_237_);fill:url(#SVGID_404_);}
	.st399{clip-path:url(#SVGID_237_);fill:url(#SVGID_405_);}
	.st400{clip-path:url(#SVGID_237_);fill:url(#SVGID_406_);}
	.st401{clip-path:url(#SVGID_237_);fill:url(#SVGID_407_);}
	.st402{clip-path:url(#SVGID_237_);fill:url(#SVGID_408_);}
	.st403{clip-path:url(#SVGID_237_);fill:url(#SVGID_409_);}
	.st404{clip-path:url(#SVGID_237_);fill:url(#SVGID_410_);}
	.st405{clip-path:url(#SVGID_237_);fill:url(#SVGID_411_);}
	.st406{clip-path:url(#SVGID_237_);fill:url(#SVGID_412_);}
	.st407{clip-path:url(#SVGID_237_);fill:url(#SVGID_413_);}
	.st408{clip-path:url(#SVGID_237_);fill:url(#SVGID_414_);}
	.st409{clip-path:url(#SVGID_237_);fill:url(#SVGID_415_);}
	.st410{clip-path:url(#SVGID_237_);fill:url(#SVGID_416_);}
	.st411{clip-path:url(#SVGID_237_);fill:url(#SVGID_417_);}
	.st412{clip-path:url(#SVGID_237_);fill:url(#SVGID_418_);}
	.st413{clip-path:url(#SVGID_237_);fill:url(#SVGID_419_);}
	.st414{clip-path:url(#SVGID_237_);fill:url(#SVGID_420_);}
	.st415{clip-path:url(#SVGID_237_);fill:url(#SVGID_421_);}
	.st416{clip-path:url(#SVGID_237_);fill:url(#SVGID_422_);}
	.st417{clip-path:url(#SVGID_237_);fill:url(#SVGID_423_);}
	.st418{clip-path:url(#SVGID_237_);fill:url(#SVGID_424_);}
	.st419{clip-path:url(#SVGID_237_);fill:url(#SVGID_425_);}
	.st420{clip-path:url(#SVGID_237_);fill:url(#SVGID_426_);}
	.st421{clip-path:url(#SVGID_237_);fill:url(#SVGID_427_);}
	.st422{clip-path:url(#SVGID_237_);fill:url(#SVGID_428_);}
	.st423{clip-path:url(#SVGID_237_);fill:url(#SVGID_429_);}
	.st424{clip-path:url(#SVGID_237_);fill:url(#SVGID_430_);}
	.st425{clip-path:url(#SVGID_237_);fill:url(#SVGID_431_);}
	.st426{clip-path:url(#SVGID_237_);fill:url(#SVGID_432_);}
	.st427{clip-path:url(#SVGID_237_);fill:url(#SVGID_433_);}
	.st428{clip-path:url(#SVGID_237_);fill:url(#SVGID_434_);}
	.st429{clip-path:url(#SVGID_237_);fill:url(#SVGID_435_);}
	.st430{clip-path:url(#SVGID_237_);fill:url(#SVGID_436_);}
	.st431{clip-path:url(#SVGID_237_);fill:url(#SVGID_437_);}
	.st432{clip-path:url(#SVGID_237_);fill:url(#SVGID_438_);}
	.st433{clip-path:url(#SVGID_237_);fill:url(#SVGID_439_);}
	.st434{clip-path:url(#SVGID_237_);fill:url(#SVGID_440_);}
	.st435{clip-path:url(#SVGID_237_);fill:url(#SVGID_441_);}
	.st436{clip-path:url(#SVGID_237_);fill:url(#SVGID_442_);}
	.st437{clip-path:url(#SVGID_237_);fill:url(#SVGID_443_);}
	.st438{clip-path:url(#SVGID_237_);fill:url(#SVGID_444_);}
	.st439{clip-path:url(#SVGID_237_);fill:url(#SVGID_445_);}
	.st440{clip-path:url(#SVGID_237_);fill:url(#SVGID_446_);}
	.st441{clip-path:url(#SVGID_237_);fill:url(#SVGID_447_);}
	.st442{clip-path:url(#SVGID_237_);fill:url(#SVGID_448_);}
	.st443{clip-path:url(#SVGID_237_);fill:url(#SVGID_449_);}
	.st444{clip-path:url(#SVGID_237_);fill:url(#SVGID_450_);}
	.st445{clip-path:url(#SVGID_237_);fill:url(#SVGID_451_);}
	.st446{clip-path:url(#SVGID_237_);fill:url(#SVGID_452_);}
	.st447{clip-path:url(#SVGID_237_);fill:url(#SVGID_453_);}
	.st448{clip-path:url(#SVGID_237_);fill:url(#SVGID_454_);}
	.st449{clip-path:url(#SVGID_237_);fill:url(#SVGID_455_);}
	.st450{clip-path:url(#SVGID_237_);fill:url(#SVGID_456_);}
	.st451{clip-path:url(#SVGID_237_);fill:url(#SVGID_457_);}
	.st452{clip-path:url(#SVGID_237_);fill:url(#SVGID_458_);}
	.st453{clip-path:url(#SVGID_237_);fill:url(#SVGID_459_);}
	.st454{clip-path:url(#SVGID_237_);fill:url(#SVGID_460_);}
	.st455{clip-path:url(#SVGID_237_);fill:url(#SVGID_461_);}
	.st456{clip-path:url(#SVGID_237_);fill:url(#SVGID_462_);}
	.st457{clip-path:url(#SVGID_237_);fill:url(#SVGID_463_);}
	.st458{clip-path:url(#SVGID_237_);fill:url(#SVGID_464_);}
	.st459{clip-path:url(#SVGID_237_);fill:url(#SVGID_465_);}
	.st460{clip-path:url(#SVGID_237_);fill:url(#SVGID_466_);}
	.st461{clip-path:url(#SVGID_237_);fill:url(#SVGID_467_);}
	.st462{clip-path:url(#SVGID_237_);fill:url(#SVGID_468_);}
	.st463{clip-path:url(#SVGID_237_);fill:url(#SVGID_469_);}
	.st464{clip-path:url(#SVGID_237_);fill:url(#SVGID_470_);}
	.st465{clip-path:url(#SVGID_237_);fill:url(#SVGID_471_);}
	.st466{clip-path:url(#SVGID_237_);fill:url(#SVGID_472_);}
	.st467{clip-path:url(#SVGID_237_);fill:url(#SVGID_473_);}
	.st468{clip-path:url(#SVGID_237_);fill:url(#SVGID_474_);}
	.st469{clip-path:url(#SVGID_237_);fill:url(#SVGID_475_);}
	.st470{clip-path:url(#SVGID_237_);fill:url(#SVGID_476_);}
	.st471{clip-path:url(#SVGID_237_);fill:url(#SVGID_477_);}
	.st472{clip-path:url(#SVGID_237_);fill:url(#SVGID_478_);}
	.st473{clip-path:url(#SVGID_237_);fill:url(#SVGID_479_);}
	.st474{clip-path:url(#SVGID_237_);fill:url(#SVGID_480_);}
	.st475{clip-path:url(#SVGID_237_);fill:url(#SVGID_481_);}
	.st476{clip-path:url(#SVGID_237_);fill:url(#SVGID_482_);}
	.st477{clip-path:url(#SVGID_237_);fill:url(#SVGID_483_);}
	.st478{clip-path:url(#SVGID_237_);fill:url(#SVGID_484_);}
	.st479{clip-path:url(#SVGID_237_);fill:url(#SVGID_485_);}
	.st480{clip-path:url(#SVGID_237_);fill:url(#SVGID_486_);}
	.st481{clip-path:url(#SVGID_237_);fill:url(#SVGID_487_);}
	.st482{clip-path:url(#SVGID_237_);fill:url(#SVGID_488_);}
	.st483{fill:url(#SVGID_489_);}
	.st484{fill:url(#SVGID_490_);}
	.st485{fill:url(#SVGID_491_);}
	.st486{fill:url(#SVGID_492_);}
	.st487{fill:url(#SVGID_493_);}
	.st488{fill:url(#SVGID_494_);}
	.st489{fill:url(#SVGID_495_);}
	.st490{fill:url(#SVGID_496_);}
	.st491{fill:url(#SVGID_497_);}
	.st492{fill:url(#SVGID_498_);}
	.st493{fill:url(#SVGID_499_);}
	.st494{fill:url(#SVGID_500_);}
	.st495{fill:url(#SVGID_501_);}
	.st496{fill:url(#SVGID_502_);}
	.st497{fill:url(#SVGID_503_);}
	.st498{fill:url(#SVGID_504_);}
	.st499{fill:url(#SVGID_505_);}
	.st500{fill:url(#SVGID_506_);}
	.st501{fill:url(#SVGID_507_);}
	.st502{fill:url(#SVGID_508_);}
	.st503{fill:url(#SVGID_509_);}
	.st504{fill:url(#SVGID_510_);}
	.st505{fill:url(#SVGID_511_);}
	.st506{fill:url(#SVGID_512_);}
	.st507{fill:url(#SVGID_513_);}
	.st508{fill:url(#SVGID_514_);}
	.st509{fill:url(#SVGID_515_);}
	.st510{fill:url(#SVGID_516_);}
	.st511{fill:url(#SVGID_517_);}
	.st512{fill:url(#SVGID_518_);}
	.st513{fill:url(#SVGID_519_);}
	.st514{fill:url(#SVGID_520_);}
	.st515{fill:url(#SVGID_521_);}
	.st516{fill:url(#SVGID_522_);}
	.st517{fill:url(#SVGID_523_);}
	.st518{fill:url(#SVGID_524_);}
	.st519{fill:url(#SVGID_525_);}
	.st520{fill:url(#SVGID_526_);}
	.st521{fill:url(#SVGID_527_);}
	.st522{fill:url(#SVGID_528_);}
	.st523{fill:url(#SVGID_529_);}
	.st524{fill:url(#SVGID_530_);}
	.st525{fill:url(#SVGID_531_);}
	.st526{fill:url(#SVGID_532_);}
	.st527{fill:url(#SVGID_533_);}
	.st528{fill:url(#SVGID_534_);}
	.st529{fill:url(#SVGID_535_);}
	.st530{fill:url(#SVGID_536_);}
	.st531{fill:url(#SVGID_537_);}
	.st532{fill:url(#SVGID_538_);}
	.st533{fill:url(#SVGID_539_);}
	.st534{fill:url(#SVGID_540_);}
	.st535{fill:url(#SVGID_541_);}
	.st536{fill:url(#SVGID_542_);}
	.st537{fill:url(#SVGID_543_);}
	.st538{fill:url(#SVGID_544_);}
	.st539{fill:url(#SVGID_545_);}
	.st540{fill:url(#SVGID_546_);}
	.st541{fill:url(#SVGID_547_);}
	.st542{fill:url(#SVGID_548_);}
	.st543{fill:url(#SVGID_549_);}
	.st544{fill:url(#SVGID_550_);}
	.st545{fill:url(#SVGID_551_);}
	.st546{fill:url(#SVGID_552_);}
	.st547{fill:url(#SVGID_553_);}
	.st548{fill:url(#SVGID_554_);}
	.st549{fill:url(#SVGID_555_);}
	.st550{fill:url(#SVGID_556_);}
	.st551{fill:url(#SVGID_557_);}
	.st552{fill:url(#SVGID_558_);}
	.st553{fill:url(#SVGID_559_);}
	.st554{fill:url(#SVGID_560_);}
	.st555{fill:url(#SVGID_561_);}
	.st556{fill:url(#SVGID_562_);}
	.st557{fill:url(#SVGID_563_);}
	.st558{fill:url(#SVGID_564_);}
	.st559{fill:url(#SVGID_565_);}
	.st560{fill:url(#SVGID_566_);}
	.st561{fill:url(#SVGID_567_);}
	.st562{fill:url(#SVGID_568_);}
	.st563{fill:url(#SVGID_569_);}
	.st564{fill:url(#SVGID_570_);}
	.st565{fill:url(#SVGID_571_);}
	.st566{fill:url(#SVGID_572_);}
	.st567{fill:url(#SVGID_573_);}
	.st568{fill:url(#SVGID_574_);}
	.st569{fill:url(#SVGID_575_);}
	.st570{fill:url(#SVGID_576_);}
	.st571{fill:url(#SVGID_577_);}
	.st572{fill:url(#SVGID_578_);}
	.st573{fill:url(#SVGID_579_);}
	.st574{fill:url(#SVGID_580_);}
	.st575{fill:url(#SVGID_581_);}
	.st576{fill:url(#SVGID_582_);}
	.st577{fill:url(#SVGID_583_);}
	.st578{fill:url(#SVGID_584_);}
	.st579{fill:url(#SVGID_585_);}
	.st580{fill:url(#SVGID_586_);}
	.st581{fill:url(#SVGID_587_);}
	.st582{fill:url(#SVGID_588_);}
	.st583{fill:url(#SVGID_589_);}
	.st584{fill:url(#SVGID_590_);}
	.st585{fill:url(#SVGID_591_);}
	.st586{fill:url(#SVGID_592_);}
	.st587{fill:url(#SVGID_593_);}
	.st588{fill:url(#SVGID_594_);}
	.st589{fill:url(#SVGID_595_);}
	.st590{fill:url(#SVGID_596_);}
	.st591{fill:url(#SVGID_597_);}
	.st592{fill:url(#SVGID_598_);}
	.st593{fill:url(#SVGID_599_);}
	.st594{fill:url(#SVGID_600_);}
	.st595{fill:url(#SVGID_601_);}
	.st596{fill:url(#SVGID_602_);}
	.st597{fill:url(#SVGID_603_);}
	.st598{fill:url(#SVGID_604_);}
	.st599{fill:url(#SVGID_605_);}
	.st600{fill:url(#SVGID_606_);}
	.st601{fill:url(#SVGID_607_);}
	.st602{fill:url(#SVGID_608_);}
	.st603{fill:url(#SVGID_609_);}
</style>
<g>
	<g>
		<g>
			<path class="st24" d="M65.3,296.2c-0.2,0-0.3-0.1-0.5-0.2l-9.7-9.6c-0.6-0.8-0.2-1.3,0.2-1.8c0.1-0.1,0.2-0.2,0.3-0.3l36.5-36.5
				l-11.8-11.8c-0.6-0.7-0.4-1.3-0.2-1.6l62.3-36.3l0.1,0l0.8-0.6l0.3-0.2l0.1,0c0.4-0.2,0.7-0.3,1-0.3c0.2,0,0.3,0.1,0.5,0.2
				l9.5,9.5c0.9,1,0.2,1.6-0.1,1.9l-36.8,36.8l10.8,10.8l0,0l1,1c0.9,0.9,0.3,1.6,0,1.9l-62,36.2l-0.2,0.2l-0.6,0.3l-0.4,0.2
				C65.9,296.1,65.5,296.2,65.3,296.2z M56.5,285.6l8.9,8.9l49.6-49.6l-9.3-9.3l22.7-22.7l12-11.8l-58.6,34.2l12.6,12.6L56.5,285.6z
				 M81.6,280.4l-11.5,11.5l58.1-33.9l-12.1-12.1L81.6,280.4z M107.9,235.5l8.9,8.9l36.7-36.7l-8.9-8.9L107.9,235.5z"/>
		</g>
		<g>
			<path class="st24" d="M51.3,280.3l1.5-1.5l-20.7-20.7c-6.3-6.3-6.3-16.7,0-23l61.4-61.4c3.1-3.1,7.1-4.7,11.5-4.7
				c4.4,0,8.4,1.7,11.5,4.7l20.6,20.6l4.4-2.6l0.1,0c0.3-0.1,0.5-0.2,0.8-0.3l-21.8-21.8c-4.1-4.1-9.7-6.4-15.6-6.4
				s-11.4,2.3-15.6,6.4L28,231c-8.6,8.6-8.6,22.5,0,31.1l21.2,21.2c0.3-1,0.9-2.1,1.9-3L51.3,280.3z"/>
		</g>
		<g>
			<path class="st24" d="M182,231l-21.3-21.3c-0.3,1.1-0.9,2.1-1.9,3l-1.6,1.6l20.7,20.7c3.1,3.1,4.7,7.1,4.7,11.5
				c0,4.4-1.7,8.4-4.7,11.5l-61.4,61.4c-3.1,3.1-7.1,4.7-11.5,4.7c-4.4,0-8.4-1.7-11.5-4.7l-20.6-20.6l-4.5,2.6l-0.1,0
				c-0.2,0.1-0.5,0.2-0.7,0.3l21.8,21.8c4.1,4.1,9.7,6.4,15.6,6.4s11.4-2.3,15.6-6.4l61.4-61.4C190.6,253.6,190.6,239.6,182,231z"/>
		</g>
	</g>
	<g>
		<polygon class="st24" points="65.2,295.4 115.7,244.9 106.4,234.7 144.3,198.1 79.9,234.5 93.5,248.2 55.1,284.7 		"/>
	</g>
</g>
<g>
	<g>
		<path class="st24" d="M230.5,218.5V241c0,7.3-5.7,11.5-11.5,11.5c-5.7,0-11.3-4.2-11.3-11.5v-0.3c0-0.9,0.7-1.6,1.6-1.6h4
			c0.9,0,1.6,0.7,1.6,1.6v0.5c0,3.2,2.4,4.6,4.2,4.6c1.8,0,4.3-1.4,4.3-4.6v-22.6c0-0.9,0.7-1.6,1.6-1.6h4.2
			C229.8,216.9,230.5,217.6,230.5,218.5z"/>
		<path class="st24" d="M257.6,228.5v21.9c0,0.9-0.7,1.6-1.5,1.6h-4.2c-0.9,0-1.6-0.7-1.6-1.6v-0.8c-1.5,1.8-3.1,2.9-6.4,2.9
			c-6.1,0-8.7-4.7-8.7-11.7v-12.3c0-0.8,0.7-1.5,1.6-1.5h4.2c0.9,0,1.6,0.7,1.6,1.5v13.3c0,3,1.8,4.7,4,4.7c2.3,0,3.8-1.7,3.8-4.7
			v-13.3c0-0.8,0.7-1.5,1.6-1.5h4.2C256.9,226.9,257.6,227.6,257.6,228.5z"/>
		<path class="st24" d="M268.8,261.9h-4.2c-0.9,0-1.6-0.7-1.6-1.6v-31.9c0-0.8,0.7-1.5,1.6-1.5h4.2c0.9,0,1.6,0.7,1.6,1.5v0.8
			c1.6-1.9,3.4-2.9,6.8-2.9c5.7,0,8.8,4,8.8,11.7v2.2c0,8-3.4,12.1-8.8,12.1c-3.1,0-5.1-0.7-6.8-2.9v10.8
			C270.3,261.2,269.6,261.9,268.8,261.9z M274.5,246.4c3.1,0,4.2-2.4,4.2-4.7v-4.7c0-2.3-1.1-4.7-4.2-4.7c-3.1,0-4.2,2.5-4.2,4.7
			v4.7C270.3,244,271.4,246.4,274.5,246.4z"/>
		<path class="st24" d="M298.4,220.5c0,2.4-1.7,4.1-4.2,4.1c-2.4,0-4.1-1.7-4.1-4.1c0-2.4,1.7-4.1,4.1-4.1
			C296.7,216.4,298.4,218.1,298.4,220.5z M290.6,250.4v-21.9c0-0.8,0.7-1.5,1.6-1.5h4.2c0.9,0,1.6,0.7,1.6,1.5v21.9
			c0,0.9-0.7,1.6-1.6,1.6h-4.2C291.3,251.9,290.6,251.2,290.6,250.4z"/>
		<path class="st24" d="M305.4,244.9v-11.7h-3c-0.9,0-1.6-0.7-1.6-1.6v-3.2c0-0.8,0.7-1.5,1.6-1.5c2.2,0,3-0.5,3-2.4V222
			c0-0.9,0.7-1.6,1.5-1.6h4c0.9,0,1.6,0.7,1.6,1.6v5h4.4c0.8,0,1.6,0.7,1.6,1.5v3.2c0,0.9-0.7,1.6-1.6,1.6h-4.4v10.4
			c0,1,0.1,1.9,1.8,1.9h2.6c0.8,0,1.6,0.7,1.6,1.5v3.4c0,0.9-0.7,1.6-1.6,1.6h-4.1C307.8,251.9,305.4,249.2,305.4,244.9z"/>
		<path class="st24" d="M332.8,246.4c1.6,0,2.4-0.4,3.6-1.6c0.2-0.2,0.7-0.9,1.6-0.9h4.3c0.7,0,1.1,0.5,1.1,1.2c0,0.3-0.2,0.8-0.3,1
			c-2.1,4.4-6.2,6.4-10.3,6.4c-6.3,0-11.4-4.7-11.4-11.7v-2.6c0-7,5.2-11.7,11.4-11.7c6.2,0,11.2,5,11.2,11.5v2.2
			c0,0.9-0.7,1.6-1.5,1.6h-13.8v0.3C328.7,244.4,330.5,246.4,332.8,246.4z M337,236.5c0-2.5-1.8-4.1-4.2-4.1c-2.4,0-4.2,1.7-4.2,4.2
			v0.3h8.3V236.5z"/>
		<path class="st24" d="M348.5,250.4v-21.9c0-0.8,0.7-1.5,1.6-1.5h3.8c0.9,0,1.6,0.7,1.6,1.5v1.7c1.4-1.9,3.6-3.2,6.2-3.2h0.6
			c0.8,0,1.5,0.7,1.5,1.5v4.2c0,0.8-0.7,1.5-1.5,1.5h-0.7c-3.2,0-5.8,0.5-5.8,6v10.3c0,0.9-0.7,1.6-1.5,1.6H350
			C349.2,251.9,348.5,251.2,348.5,250.4z"/>
		<path class="st24" d="M377.4,222.2v-3.7c0-0.9,0.7-1.6,1.6-1.6h23.9c0.9,0,1.6,0.7,1.6,1.6v3.7c0,0.9-0.7,1.6-1.6,1.6h-8.3v26.7
			c0,0.9-0.7,1.6-1.6,1.6h-4.2c-0.9,0-1.6-0.7-1.6-1.6v-26.7h-8.3C378.1,223.7,377.4,223,377.4,222.2z"/>
		<path class="st24" d="M413.5,246.4c1.6,0,2.4-0.4,3.6-1.6c0.2-0.2,0.7-0.9,1.6-0.9h4.3c0.7,0,1.1,0.5,1.1,1.2c0,0.3-0.2,0.8-0.3,1
			c-2.1,4.4-6.2,6.4-10.3,6.4c-6.3,0-11.4-4.7-11.4-11.7v-2.6c0-7,5.2-11.7,11.4-11.7c6.2,0,11.2,5,11.2,11.5v2.2
			c0,0.9-0.7,1.6-1.5,1.6h-13.8v0.3C409.3,244.4,411.1,246.4,413.5,246.4z M417.6,236.5c0-2.5-1.8-4.1-4.2-4.1
			c-2.4,0-4.2,1.7-4.2,4.2v0.3h8.3V236.5z"/>
		<path class="st24" d="M439.3,246.4c2.4,0,3.8-1.5,4.1-3.6c0.1-0.6,0.6-0.9,1-0.9h4.7c0.7,0,1.1,0.5,1.1,1.2c0,0.3,0,0.8-0.1,1
			c-0.7,3.8-4.5,8.4-10.8,8.4c-6.2,0-11.2-4.7-11.2-11.7v-2.6c0-7,5-11.7,11.2-11.7c4.9,0,9.4,2.9,10.8,8.4c0.1,0.5,0.2,0.8,0.2,1
			c0,0.7-0.4,1.1-1,1.1h-4.7c-0.6,0-1-0.4-1.1-0.9c-0.4-2-1.8-3.6-4.1-3.6c-2.4,0-4.2,1.7-4.2,4.7v4.7
			C435.1,244.8,436.9,246.4,439.3,246.4z"/>
		<path class="st24" d="M454.7,250.4v-31.9c0-0.9,0.7-1.6,1.6-1.6h4.2c0.9,0,1.6,0.7,1.6,1.6v10.8c1.5-1.8,3.4-2.9,6.8-2.9
			c6.2,0,8.8,4.7,8.8,11.7v12.3c0,0.9-0.7,1.6-1.6,1.6h-4.2c-0.9,0-1.6-0.7-1.6-1.6v-13.3c0-3-1.8-4.7-4.2-4.7s-4.2,1.7-4.2,4.7
			v13.3c0,0.9-0.7,1.6-1.6,1.6h-4.2C455.4,251.9,454.7,251.2,454.7,250.4z"/>
	</g>
</g>
<g>
	<path class="st24" d="M200.8,176.3h9.3c1.8,0,3.3,0.5,4.4,1.6c1.1,1,1.7,2.5,1.7,4.4c0,1.6-0.5,3-1.5,4.2c-1,1.2-2.5,1.8-4.6,1.8
		h-6.5v8.7h-2.8V176.3z M211.7,179.1c-0.6-0.3-1.5-0.4-2.5-0.4h-5.5v7.2h5.5c1.2,0,2.3-0.3,3-0.8c0.8-0.5,1.2-1.5,1.2-2.8
		C213.4,180.7,212.8,179.7,211.7,179.1z"/>
	<path class="st24" d="M230.4,183.4c1.3,1.3,2,3.2,2,5.7c0,2.4-0.6,4.4-1.8,6c-1.2,1.6-3,2.4-5.5,2.4c-2.1,0-3.7-0.7-4.9-2.1
		c-1.2-1.4-1.8-3.3-1.8-5.7c0-2.5,0.6-4.6,1.9-6.1c1.3-1.5,3-2.3,5.1-2.3C227.4,181.5,229,182.1,230.4,183.4z M228.8,193.4
		c0.6-1.3,0.9-2.7,0.9-4.2c0-1.4-0.2-2.6-0.7-3.4c-0.7-1.4-1.9-2.1-3.7-2.1c-1.5,0-2.6,0.6-3.3,1.8s-1,2.6-1,4.3c0,1.6,0.3,2.9,1,4
		s1.8,1.6,3.3,1.6C227,195.3,228.2,194.7,228.8,193.4z"/>
	<path class="st24" d="M236.7,181.9l2.9,11.9l2.9-11.9h2.8l3,11.8l3.1-11.8h2.5l-4.4,15.1h-2.6l-3.1-11.7l-3,11.7h-2.6l-4.4-15.1
		H236.7z"/>
	<path class="st24" d="M265.6,182.3c1,0.5,1.8,1.2,2.3,2c0.5,0.8,0.8,1.6,1,2.7c0.1,0.7,0.2,1.8,0.2,3.3h-11c0,1.5,0.4,2.8,1.1,3.7
		s1.7,1.4,3.1,1.4c1.3,0,2.4-0.4,3.1-1.3c0.4-0.5,0.7-1.1,0.9-1.8h2.5c-0.1,0.6-0.3,1.2-0.7,1.9c-0.4,0.7-0.8,1.2-1.2,1.7
		c-0.8,0.8-1.7,1.3-2.8,1.5c-0.6,0.2-1.3,0.2-2.1,0.2c-1.9,0-3.4-0.7-4.7-2c-1.3-1.4-1.9-3.3-1.9-5.7c0-2.4,0.7-4.4,2-5.9
		c1.3-1.5,3-2.3,5.1-2.3C263.6,181.6,264.6,181.8,265.6,182.3z M266.6,188.2c-0.1-1.1-0.3-2-0.7-2.6c-0.7-1.2-1.8-1.8-3.5-1.8
		c-1.2,0-2.1,0.4-2.9,1.3c-0.8,0.8-1.2,1.9-1.2,3.2H266.6z"/>
	<path class="st24" d="M272.4,181.9h2.4v2.6c0.2-0.5,0.7-1.1,1.5-1.9c0.8-0.7,1.7-1.1,2.7-1.1c0,0,0.1,0,0.2,0c0.1,0,0.3,0,0.6,0.1
		v2.7c-0.2,0-0.3,0-0.4-0.1c-0.1,0-0.3,0-0.4,0c-1.3,0-2.3,0.4-2.9,1.2c-0.7,0.8-1,1.8-1,2.8v8.7h-2.5V181.9z"/>
	<path class="st24" d="M291.3,182.3c1,0.5,1.8,1.2,2.3,2c0.5,0.8,0.8,1.6,1,2.7c0.1,0.7,0.2,1.8,0.2,3.3h-11c0,1.5,0.4,2.8,1.1,3.7
		s1.7,1.4,3.1,1.4c1.3,0,2.4-0.4,3.1-1.3c0.4-0.5,0.7-1.1,0.9-1.8h2.5c-0.1,0.6-0.3,1.2-0.7,1.9c-0.4,0.7-0.8,1.2-1.2,1.7
		c-0.8,0.8-1.7,1.3-2.8,1.5c-0.6,0.2-1.3,0.2-2.1,0.2c-1.9,0-3.4-0.7-4.7-2c-1.3-1.4-1.9-3.3-1.9-5.7c0-2.4,0.7-4.4,2-5.9
		c1.3-1.5,3-2.3,5.1-2.3C289.3,181.6,290.3,181.8,291.3,182.3z M292.2,188.2c-0.1-1.1-0.3-2-0.7-2.6c-0.7-1.2-1.8-1.8-3.5-1.8
		c-1.2,0-2.1,0.4-2.9,1.3c-0.8,0.8-1.2,1.9-1.2,3.2H292.2z"/>
	<path class="st24" d="M306.3,182.4c0.4,0.3,1,0.8,1.5,1.5v-7.6h2.4V197H308v-2.1c-0.6,0.9-1.3,1.6-2.1,2c-0.8,0.4-1.7,0.6-2.8,0.6
		c-1.7,0-3.1-0.7-4.4-2.1s-1.8-3.3-1.8-5.6c0-2.2,0.6-4.1,1.7-5.7c1.1-1.6,2.7-2.4,4.8-2.4C304.6,181.6,305.5,181.9,306.3,182.4z
		 M300.7,193.7c0.7,1.1,1.8,1.6,3.3,1.6c1.2,0,2.1-0.5,2.9-1.5c0.8-1,1.1-2.5,1.1-4.3c0-1.9-0.4-3.3-1.2-4.2
		c-0.8-0.9-1.7-1.4-2.9-1.4c-1.3,0-2.3,0.5-3.1,1.5s-1.2,2.4-1.2,4.3C299.6,191.2,300,192.6,300.7,193.7z"/>
	<path class="st24" d="M321.9,176.2h2.5v7.5c0.6-0.7,1.2-1.3,2-1.7c0.8-0.4,1.6-0.6,2.5-0.6c1.9,0,3.4,0.6,4.6,1.9
		c1.2,1.3,1.8,3.2,1.8,5.7c0,2.4-0.6,4.4-1.7,5.9c-1.2,1.6-2.8,2.4-4.8,2.4c-1.2,0-2.1-0.3-2.9-0.8c-0.5-0.3-1-0.9-1.5-1.6v1.9h-2.3
		V176.2z M331.6,193.6c0.7-1.1,1-2.5,1-4.3c0-1.6-0.3-2.9-1-3.9c-0.7-1-1.7-1.6-3-1.6c-1.2,0-2.2,0.4-3,1.3
		c-0.9,0.9-1.3,2.3-1.3,4.2c0,1.4,0.2,2.6,0.5,3.5c0.7,1.7,1.9,2.5,3.7,2.5C329.9,195.2,330.9,194.7,331.6,193.6z"/>
	<path class="st24" d="M347.6,181.9h2.8c-0.4,1-1.2,3.2-2.4,6.6c-0.9,2.6-1.7,4.7-2.3,6.3c-1.5,3.8-2.5,6.2-3.1,7s-1.6,1.3-3.1,1.3
		c-0.4,0-0.6,0-0.8,0s-0.4-0.1-0.7-0.2v-2.3c0.4,0.1,0.8,0.2,1,0.2c0.2,0,0.4,0,0.5,0c0.5,0,0.8-0.1,1-0.2c0.2-0.2,0.4-0.3,0.6-0.6
		c0-0.1,0.2-0.5,0.5-1.2c0.3-0.7,0.5-1.2,0.6-1.5l-5.6-15.5h2.9l4,12.3L347.6,181.9z"/>
	<path class="st24" d="M353.9,182.1h2.9v3.1h-2.9V182.1z M353.9,193.9h2.9v3.1h-2.9V193.9z"/>
</g>
</svg>
