<?xml version="1.0" encoding="utf-8"?>
<!-- Generator: Adobe Illustrator 21.0.2, SVG Export Plug-In . SVG Version: 6.00 Build 0)  -->
<svg version="1.1" id="Capa_1" xmlns="http://www.w3.org/2000/svg" xmlns:xlink="http://www.w3.org/1999/xlink" x="0px" y="0px"
	 viewBox="0 0 1000 1000" style="enable-background:new 0 0 1000 1000;" xml:space="preserve">
<style type="text/css">
	.st0{fill:url(#SVGID_1_);}
	.st1{fill:url(#SVGID_2_);}
	.st2{fill:url(#SVGID_3_);}
	.st3{fill:url(#SVGID_4_);}
	.st4{fill:url(#SVGID_5_);}
	.st5{fill:url(#SVGID_6_);}
	.st6{fill:url(#SVGID_7_);}
	.st7{fill:url(#SVGID_8_);}
	.st8{fill:url(#SVGID_9_);}
	.st9{fill:url(#SVGID_10_);}
	.st10{fill:url(#SVGID_11_);}
	.st11{fill:url(#SVGID_12_);}
	.st12{fill:url(#SVGID_13_);}
	.st13{fill:url(#SVGID_14_);}
	.st14{fill:url(#SVGID_15_);}
	.st15{fill:url(#SVGID_16_);}
	.st16{fill:#FFFFFF;}
	.st17{fill:#FFFFFF;stroke:#FFFFFF;stroke-width:11.5753;stroke-miterlimit:10;}
	.st18{fill:#93D507;}
	.st19{fill:none;stroke:#0285B2;stroke-width:14.5455;stroke-miterlimit:10;}
	.st20{fill:url(#SVGID_17_);}
	.st21{fill:url(#SVGID_18_);}
	.st22{fill:url(#SVGID_19_);}
	.st23{fill:none;stroke:url(#SVGID_20_);stroke-width:33.8539;stroke-miterlimit:10;}
	.st24{fill:none;stroke:url(#SVGID_21_);stroke-width:33.8539;stroke-miterlimit:10;}
	.st25{fill:url(#SVGID_22_);}
	.st26{fill:url(#SVGID_23_);}
	.st27{fill:url(#SVGID_24_);}
	.st28{fill:url(#SVGID_25_);}
	.st29{fill:url(#SVGID_26_);}
	.st30{fill:url(#SVGID_27_);}
	.st31{fill:url(#SVGID_28_);}
	.st32{fill:url(#SVGID_29_);}
	.st33{clip-path:url(#SVGID_31_);fill:#EAAC7A;}
	.st34{clip-path:url(#SVGID_31_);fill:#EAAB7A;}
	.st35{clip-path:url(#SVGID_31_);fill:#EAAA79;}
	.st36{clip-path:url(#SVGID_31_);fill:#EAA978;}
	.st37{clip-path:url(#SVGID_31_);fill:#E9A878;}
	.st38{clip-path:url(#SVGID_31_);fill:#E9A777;}
	.st39{clip-path:url(#SVGID_31_);fill:#E9A676;}
	.st40{clip-path:url(#SVGID_31_);fill:#E9A576;}
	.st41{clip-path:url(#SVGID_31_);fill:#E9A475;}
	.st42{clip-path:url(#SVGID_31_);fill:#E9A374;}
	.st43{clip-path:url(#SVGID_31_);fill:#E8A274;}
	.st44{clip-path:url(#SVGID_31_);fill:#E8A173;}
	.st45{clip-path:url(#SVGID_31_);fill:#E8A072;}
	.st46{clip-path:url(#SVGID_31_);fill:#E89F72;}
	.st47{clip-path:url(#SVGID_31_);fill:#E89E71;}
	.st48{clip-path:url(#SVGID_31_);fill:#E89D71;}
	.st49{clip-path:url(#SVGID_31_);fill:#E89C70;}
	.st50{clip-path:url(#SVGID_31_);fill:#E79B6F;}
	.st51{clip-path:url(#SVGID_31_);fill:#E79A6F;}
	.st52{clip-path:url(#SVGID_31_);fill:#E7996E;}
	.st53{clip-path:url(#SVGID_31_);fill:#E7986D;}
	.st54{clip-path:url(#SVGID_31_);fill:#E7976D;}
	.st55{clip-path:url(#SVGID_31_);fill:#E7966C;}
	.st56{clip-path:url(#SVGID_31_);fill:#E6956B;}
	.st57{clip-path:url(#SVGID_31_);fill:#E6946B;}
	.st58{clip-path:url(#SVGID_31_);fill:#E6936A;}
	.st59{clip-path:url(#SVGID_31_);fill:#E6926A;}
	.st60{clip-path:url(#SVGID_31_);fill:#E69169;}
	.st61{clip-path:url(#SVGID_33_);fill:#E48863;}
	.st62{clip-path:url(#SVGID_33_);fill:#E48763;}
	.st63{clip-path:url(#SVGID_33_);fill:#E48662;}
	.st64{clip-path:url(#SVGID_33_);fill:#E48561;}
	.st65{clip-path:url(#SVGID_33_);fill:#E48461;}
	.st66{clip-path:url(#SVGID_33_);fill:#E48360;}
	.st67{clip-path:url(#SVGID_33_);fill:#E3825F;}
	.st68{clip-path:url(#SVGID_33_);fill:#E3815F;}
	.st69{clip-path:url(#SVGID_33_);fill:#E3805E;}
	.st70{clip-path:url(#SVGID_33_);fill:#E37F5D;}
	.st71{clip-path:url(#SVGID_33_);fill:#E37E5D;}
	.st72{clip-path:url(#SVGID_33_);fill:#E37D5C;}
	.st73{clip-path:url(#SVGID_33_);fill:#E27B5B;}
	.st74{clip-path:url(#SVGID_33_);fill:#E27A5B;}
	.st75{clip-path:url(#SVGID_33_);fill:#E2795A;}
	.st76{clip-path:url(#SVGID_33_);fill:#E58C66;}
	.st77{clip-path:url(#SVGID_33_);fill:#E58B65;}
	.st78{clip-path:url(#SVGID_33_);fill:#E58A64;}
	.st79{clip-path:url(#SVGID_33_);fill:#E58964;}
	.st80{clip-path:url(#SVGID_33_);fill:#E2785A;}
	.st81{clip-path:url(#SVGID_33_);fill:#E27759;}
	.st82{clip-path:url(#SVGID_33_);fill:#E27658;}
	.st83{clip-path:url(#SVGID_33_);fill:#E27558;}
	.st84{clip-path:url(#SVGID_35_);fill:#E06D53;}
	.st85{clip-path:url(#SVGID_35_);fill:#E06C52;}
	.st86{clip-path:url(#SVGID_35_);fill:#E06B51;}
	.st87{clip-path:url(#SVGID_35_);fill:#E06A51;}
	.st88{clip-path:url(#SVGID_35_);fill:#E06950;}
	.st89{clip-path:url(#SVGID_35_);fill:#E0684F;}
	.st90{clip-path:url(#SVGID_35_);fill:#DF674F;}
	.st91{clip-path:url(#SVGID_35_);fill:#DF664E;}
	.st92{clip-path:url(#SVGID_35_);fill:#DF654D;}
	.st93{clip-path:url(#SVGID_35_);fill:#DF644D;}
	.st94{clip-path:url(#SVGID_35_);fill:#DF634C;}
	.st95{clip-path:url(#SVGID_35_);fill:#DF624C;}
	.st96{clip-path:url(#SVGID_35_);fill:#DE614B;}
	.st97{clip-path:url(#SVGID_35_);fill:#DE604A;}
	.st98{clip-path:url(#SVGID_35_);fill:#DE5F4A;}
	.st99{clip-path:url(#SVGID_35_);fill:#E17155;}
	.st100{clip-path:url(#SVGID_35_);fill:#E17054;}
	.st101{clip-path:url(#SVGID_35_);fill:#E16F54;}
	.st102{clip-path:url(#SVGID_35_);fill:#E06E53;}
	.st103{clip-path:url(#SVGID_35_);fill:#DE5E49;}
	.st104{clip-path:url(#SVGID_35_);fill:#DE5D48;}
	.st105{clip-path:url(#SVGID_35_);fill:#DE5C48;}
	.st106{clip-path:url(#SVGID_35_);fill:#DD5B47;}
	.st107{clip-path:url(#SVGID_37_);fill:#DD5543;}
	.st108{clip-path:url(#SVGID_37_);fill:#DC5443;}
	.st109{clip-path:url(#SVGID_37_);fill:#DC5342;}
	.st110{clip-path:url(#SVGID_37_);fill:#DC5241;}
	.st111{clip-path:url(#SVGID_37_);fill:#DC5141;}
	.st112{clip-path:url(#SVGID_37_);fill:#DC5040;}
	.st113{clip-path:url(#SVGID_37_);fill:#DC4F3F;}
	.st114{clip-path:url(#SVGID_37_);fill:#DB4E3F;}
	.st115{clip-path:url(#SVGID_37_);fill:#DB4D3E;}
	.st116{clip-path:url(#SVGID_37_);fill:#DB4C3D;}
	.st117{clip-path:url(#SVGID_37_);fill:#DB4B3D;}
	.st118{clip-path:url(#SVGID_37_);fill:#DB4A3C;}
	.st119{clip-path:url(#SVGID_37_);fill:#DB493C;}
	.st120{clip-path:url(#SVGID_37_);fill:#DA483B;}
	.st121{clip-path:url(#SVGID_37_);fill:#DA473A;}
	.st122{clip-path:url(#SVGID_37_);fill:#DA463A;}
	.st123{clip-path:url(#SVGID_37_);fill:#DA4539;}
	.st124{clip-path:url(#SVGID_39_);fill:#DA4539;}
	.st125{clip-path:url(#SVGID_41_);fill:#DA4539;}
	.st126{fill:url(#SVGID_42_);}
	.st127{clip-path:url(#SVGID_44_);fill:#E9A777;}
	.st128{clip-path:url(#SVGID_44_);fill:#E9A676;}
	.st129{clip-path:url(#SVGID_44_);fill:#E9A576;}
	.st130{clip-path:url(#SVGID_44_);fill:#E9A475;}
	.st131{clip-path:url(#SVGID_44_);fill:#E9A374;}
	.st132{clip-path:url(#SVGID_44_);fill:#E8A274;}
	.st133{clip-path:url(#SVGID_44_);fill:#E8A173;}
	.st134{clip-path:url(#SVGID_44_);fill:#E8A072;}
	.st135{clip-path:url(#SVGID_44_);fill:#E89F72;}
	.st136{clip-path:url(#SVGID_44_);fill:#E89E71;}
	.st137{clip-path:url(#SVGID_44_);fill:#E89D71;}
	.st138{clip-path:url(#SVGID_44_);fill:#E89C70;}
	.st139{clip-path:url(#SVGID_44_);fill:#E79B6F;}
	.st140{clip-path:url(#SVGID_44_);fill:#E79A6F;}
	.st141{clip-path:url(#SVGID_44_);fill:#E7996E;}
	.st142{clip-path:url(#SVGID_44_);fill:#E7986D;}
	.st143{clip-path:url(#SVGID_44_);fill:#E7976D;}
	.st144{clip-path:url(#SVGID_44_);fill:#E7966C;}
	.st145{clip-path:url(#SVGID_44_);fill:#EAAB7A;}
	.st146{clip-path:url(#SVGID_44_);fill:#EAAA79;}
	.st147{clip-path:url(#SVGID_44_);fill:#EAA978;}
	.st148{clip-path:url(#SVGID_44_);fill:#E9A878;}
	.st149{clip-path:url(#SVGID_44_);fill:#E6956B;}
	.st150{clip-path:url(#SVGID_44_);fill:#E6946B;}
	.st151{clip-path:url(#SVGID_44_);fill:#E6936A;}
	.st152{clip-path:url(#SVGID_44_);fill:#E6926A;}
	.st153{clip-path:url(#SVGID_44_);fill:#E69169;}
	.st154{clip-path:url(#SVGID_44_);fill:#E69068;}
	.st155{clip-path:url(#SVGID_46_);fill:#E48561;}
	.st156{clip-path:url(#SVGID_46_);fill:#E48461;}
	.st157{clip-path:url(#SVGID_46_);fill:#E48360;}
	.st158{clip-path:url(#SVGID_46_);fill:#E3825F;}
	.st159{clip-path:url(#SVGID_46_);fill:#E3815F;}
	.st160{clip-path:url(#SVGID_46_);fill:#E3805E;}
	.st161{clip-path:url(#SVGID_46_);fill:#E37F5D;}
	.st162{clip-path:url(#SVGID_46_);fill:#E37E5D;}
	.st163{clip-path:url(#SVGID_46_);fill:#E37D5C;}
	.st164{clip-path:url(#SVGID_46_);fill:#E27B5B;}
	.st165{clip-path:url(#SVGID_46_);fill:#E27A5B;}
	.st166{clip-path:url(#SVGID_46_);fill:#E48763;}
	.st167{clip-path:url(#SVGID_46_);fill:#E48662;}
	.st168{clip-path:url(#SVGID_46_);fill:#E58C66;}
	.st169{clip-path:url(#SVGID_46_);fill:#E58B65;}
	.st170{clip-path:url(#SVGID_46_);fill:#E58A64;}
	.st171{clip-path:url(#SVGID_46_);fill:#E58964;}
	.st172{clip-path:url(#SVGID_46_);fill:#E48863;}
	.st173{clip-path:url(#SVGID_46_);fill:#E2795A;}
	.st174{clip-path:url(#SVGID_46_);fill:#E2785A;}
	.st175{clip-path:url(#SVGID_46_);fill:#E27759;}
	.st176{clip-path:url(#SVGID_46_);fill:#E27658;}
	.st177{clip-path:url(#SVGID_46_);fill:#E27558;}
	.st178{clip-path:url(#SVGID_46_);fill:#E17457;}
	.st179{clip-path:url(#SVGID_46_);fill:#E17356;}
	.st180{clip-path:url(#SVGID_48_);fill:#E06B51;}
	.st181{clip-path:url(#SVGID_48_);fill:#E06A51;}
	.st182{clip-path:url(#SVGID_48_);fill:#E06950;}
	.st183{clip-path:url(#SVGID_48_);fill:#E0684F;}
	.st184{clip-path:url(#SVGID_48_);fill:#DF674F;}
	.st185{clip-path:url(#SVGID_48_);fill:#DF664E;}
	.st186{clip-path:url(#SVGID_48_);fill:#DF654D;}
	.st187{clip-path:url(#SVGID_48_);fill:#DF644D;}
	.st188{clip-path:url(#SVGID_48_);fill:#DF634C;}
	.st189{clip-path:url(#SVGID_48_);fill:#DF624C;}
	.st190{clip-path:url(#SVGID_48_);fill:#DE614B;}
	.st191{clip-path:url(#SVGID_48_);fill:#DE604A;}
	.st192{clip-path:url(#SVGID_48_);fill:#DE5F4A;}
	.st193{clip-path:url(#SVGID_48_);fill:#DE5E49;}
	.st194{clip-path:url(#SVGID_48_);fill:#E16F54;}
	.st195{clip-path:url(#SVGID_48_);fill:#E06E53;}
	.st196{clip-path:url(#SVGID_48_);fill:#E06D53;}
	.st197{clip-path:url(#SVGID_48_);fill:#E06C52;}
	.st198{clip-path:url(#SVGID_48_);fill:#DE5D48;}
	.st199{clip-path:url(#SVGID_48_);fill:#DE5C48;}
	.st200{clip-path:url(#SVGID_48_);fill:#DD5B47;}
	.st201{clip-path:url(#SVGID_48_);fill:#DD5A46;}
	.st202{clip-path:url(#SVGID_50_);fill:#DD5543;}
	.st203{clip-path:url(#SVGID_50_);fill:#DC5443;}
	.st204{clip-path:url(#SVGID_50_);fill:#DC5342;}
	.st205{clip-path:url(#SVGID_50_);fill:#DC5241;}
	.st206{clip-path:url(#SVGID_50_);fill:#DC5141;}
	.st207{clip-path:url(#SVGID_52_);fill:#DA483B;}
	.st208{clip-path:url(#SVGID_52_);fill:#DA473A;}
	.st209{clip-path:url(#SVGID_52_);fill:#DA463A;}
	.st210{clip-path:url(#SVGID_52_);fill:#DA4539;}
	.st211{clip-path:url(#SVGID_52_);fill:#DB4C3D;}
	.st212{clip-path:url(#SVGID_52_);fill:#DB4B3D;}
	.st213{clip-path:url(#SVGID_52_);fill:#DB4A3C;}
	.st214{clip-path:url(#SVGID_52_);fill:#DB493C;}
	.st215{clip-path:url(#SVGID_54_);fill:#DA4539;}
	.st216{fill:url(#SVGID_55_);}
	.st217{fill:url(#SVGID_56_);}
	.st218{fill:url(#SVGID_57_);}
	.st219{fill:url(#SVGID_58_);}
	.st220{fill:url(#SVGID_59_);}
	.st221{fill:url(#SVGID_60_);}
	.st222{fill:url(#SVGID_61_);}
	.st223{fill:url(#SVGID_62_);}
	.st224{fill:url(#SVGID_63_);}
	.st225{fill:url(#SVGID_64_);}
	.st226{fill:url(#SVGID_65_);}
	.st227{opacity:0.55;fill:#FFFFFF;}
	.st228{opacity:0.76;fill:#F7F7F8;}
	.st229{opacity:0.65;}
	.st230{clip-path:url(#SVGID_67_);fill:#FFFFFF;}
	.st231{opacity:0.4;clip-path:url(#SVGID_69_);}
	.st232{clip-path:url(#SVGID_71_);}
	.st233{fill:#DC4336;}
	.st234{clip-path:url(#SVGID_75_);fill:url(#SVGID_76_);}
	.st235{clip-path:url(#SVGID_78_);fill:url(#SVGID_79_);}
	.st236{clip-path:url(#SVGID_81_);fill:url(#SVGID_82_);}
	.st237{clip-path:url(#SVGID_84_);fill:url(#SVGID_85_);}
	.st238{clip-path:url(#SVGID_87_);fill:url(#SVGID_88_);}
	.st239{clip-path:url(#SVGID_90_);fill:url(#SVGID_91_);}
	.st240{clip-path:url(#SVGID_93_);}
	.st241{clip-path:url(#SVGID_97_);}
	.st242{clip-path:url(#SVGID_101_);}
	.st243{clip-path:url(#SVGID_105_);}
	.st244{clip-path:url(#SVGID_109_);fill:url(#SVGID_110_);}
	.st245{fill:#5380D6;}
	.st246{fill:url(#SVGID_111_);}
	.st247{clip-path:url(#SVGID_113_);fill:#EAB07E;}
	.st248{clip-path:url(#SVGID_113_);fill:#EAB07D;}
	.st249{clip-path:url(#SVGID_113_);fill:#EAAF7D;}
	.st250{clip-path:url(#SVGID_113_);fill:#EAAE7C;}
	.st251{clip-path:url(#SVGID_113_);fill:#E9AE7C;}
	.st252{clip-path:url(#SVGID_113_);fill:#E9AD7B;}
	.st253{clip-path:url(#SVGID_113_);fill:#E9AC7B;}
	.st254{clip-path:url(#SVGID_113_);fill:#E9AB7A;}
	.st255{clip-path:url(#SVGID_113_);fill:#E9AA7A;}
	.st256{clip-path:url(#SVGID_113_);fill:#E9AA79;}
	.st257{clip-path:url(#SVGID_113_);fill:#E9A979;}
	.st258{clip-path:url(#SVGID_113_);fill:#E9A878;}
	.st259{clip-path:url(#SVGID_113_);fill:#E8A778;}
	.st260{clip-path:url(#SVGID_113_);fill:#E8A677;}
	.st261{clip-path:url(#SVGID_113_);fill:#E8A577;}
	.st262{clip-path:url(#SVGID_113_);fill:#E8A476;}
	.st263{clip-path:url(#SVGID_113_);fill:#E8A375;}
	.st264{clip-path:url(#SVGID_113_);fill:#E8A274;}
	.st265{clip-path:url(#SVGID_113_);fill:#E7A174;}
	.st266{clip-path:url(#SVGID_113_);fill:#E7A073;}
	.st267{clip-path:url(#SVGID_113_);fill:#E79F72;}
	.st268{clip-path:url(#SVGID_113_);fill:#E79E72;}
	.st269{clip-path:url(#SVGID_113_);fill:#E79D71;}
	.st270{clip-path:url(#SVGID_113_);fill:#E79C71;}
	.st271{clip-path:url(#SVGID_113_);fill:#E79B70;}
	.st272{clip-path:url(#SVGID_113_);fill:#E69A6F;}
	.st273{clip-path:url(#SVGID_113_);fill:#E6996F;}
	.st274{clip-path:url(#SVGID_113_);fill:#E6986E;}
	.st275{clip-path:url(#SVGID_113_);fill:#E6976E;}
	.st276{clip-path:url(#SVGID_113_);fill:#E6966D;}
	.st277{clip-path:url(#SVGID_113_);fill:#E6956C;}
	.st278{clip-path:url(#SVGID_113_);fill:#E6946C;}
	.st279{clip-path:url(#SVGID_113_);fill:#E5936B;}
	.st280{clip-path:url(#SVGID_113_);fill:#E5926A;}
	.st281{clip-path:url(#SVGID_113_);fill:#E5916A;}
	.st282{clip-path:url(#SVGID_113_);fill:#E59069;}
	.st283{clip-path:url(#SVGID_113_);fill:#E58F69;}
	.st284{clip-path:url(#SVGID_113_);fill:#E58E68;}
	.st285{clip-path:url(#SVGID_113_);fill:#E48D67;}
	.st286{clip-path:url(#SVGID_113_);fill:#E48C67;}
	.st287{clip-path:url(#SVGID_113_);fill:#E48B66;}
	.st288{clip-path:url(#SVGID_113_);fill:#E48A65;}
	.st289{clip-path:url(#SVGID_113_);fill:#E48965;}
	.st290{clip-path:url(#SVGID_113_);fill:#E48864;}
	.st291{clip-path:url(#SVGID_113_);fill:#E38763;}
	.st292{clip-path:url(#SVGID_113_);fill:#E38663;}
	.st293{clip-path:url(#SVGID_113_);fill:#E38562;}
	.st294{clip-path:url(#SVGID_113_);fill:#E38461;}
	.st295{clip-path:url(#SVGID_113_);fill:#E38361;}
	.st296{clip-path:url(#SVGID_113_);fill:#E38260;}
	.st297{clip-path:url(#SVGID_113_);fill:#E2815F;}
	.st298{clip-path:url(#SVGID_113_);fill:#E2805F;}
	.st299{clip-path:url(#SVGID_113_);fill:#E27F5E;}
	.st300{clip-path:url(#SVGID_113_);fill:#E27E5D;}
	.st301{clip-path:url(#SVGID_113_);fill:#E27D5D;}
	.st302{clip-path:url(#SVGID_113_);fill:#E27C5C;}
	.st303{clip-path:url(#SVGID_113_);fill:#E17B5B;}
	.st304{clip-path:url(#SVGID_113_);fill:#E17A5B;}
	.st305{clip-path:url(#SVGID_113_);fill:#E1795A;}
	.st306{clip-path:url(#SVGID_113_);fill:#E17859;}
	.st307{clip-path:url(#SVGID_113_);fill:#E17759;}
	.st308{clip-path:url(#SVGID_113_);fill:#E17658;}
	.st309{clip-path:url(#SVGID_113_);fill:#E07557;}
	.st310{clip-path:url(#SVGID_113_);fill:#E07457;}
	.st311{clip-path:url(#SVGID_113_);fill:#E07256;}
	.st312{clip-path:url(#SVGID_113_);fill:#E07155;}
	.st313{clip-path:url(#SVGID_113_);fill:#E07055;}
	.st314{clip-path:url(#SVGID_113_);fill:#E06F54;}
	.st315{clip-path:url(#SVGID_113_);fill:#DF6E53;}
	.st316{clip-path:url(#SVGID_113_);fill:#DF6D53;}
	.st317{clip-path:url(#SVGID_113_);fill:#DF6C52;}
	.st318{clip-path:url(#SVGID_113_);fill:#DF6B51;}
	.st319{clip-path:url(#SVGID_113_);fill:#DF6A51;}
	.st320{clip-path:url(#SVGID_113_);fill:#DF6950;}
	.st321{clip-path:url(#SVGID_113_);fill:#DE684F;}
	.st322{clip-path:url(#SVGID_113_);fill:#DE674E;}
	.st323{clip-path:url(#SVGID_113_);fill:#DE654E;}
	.st324{clip-path:url(#SVGID_113_);fill:#DE644D;}
	.st325{clip-path:url(#SVGID_113_);fill:#DE634C;}
	.st326{clip-path:url(#SVGID_113_);fill:#DE624C;}
	.st327{clip-path:url(#SVGID_113_);fill:#DD614B;}
	.st328{clip-path:url(#SVGID_113_);fill:#DD604A;}
	.st329{clip-path:url(#SVGID_113_);fill:#DD5F4A;}
	.st330{clip-path:url(#SVGID_113_);fill:#DD5E49;}
	.st331{clip-path:url(#SVGID_113_);fill:#DD5D48;}
	.st332{clip-path:url(#SVGID_113_);fill:#DD5C47;}
	.st333{clip-path:url(#SVGID_113_);fill:#DC5A47;}
	.st334{clip-path:url(#SVGID_113_);fill:#DC5946;}
	.st335{clip-path:url(#SVGID_113_);fill:#DC5845;}
	.st336{clip-path:url(#SVGID_113_);fill:#DC5745;}
	.st337{clip-path:url(#SVGID_113_);fill:#DC5644;}
	.st338{clip-path:url(#SVGID_113_);fill:#DB5543;}
	.st339{clip-path:url(#SVGID_113_);fill:#DB5442;}
	.st340{clip-path:url(#SVGID_113_);fill:#DB5342;}
	.st341{clip-path:url(#SVGID_113_);fill:#DB5141;}
	.st342{clip-path:url(#SVGID_113_);fill:#DB5040;}
	.st343{clip-path:url(#SVGID_113_);fill:#DB4F40;}
	.st344{clip-path:url(#SVGID_113_);fill:#DA4E3F;}
	.st345{clip-path:url(#SVGID_113_);fill:#DA4D3E;}
	.st346{clip-path:url(#SVGID_113_);fill:#DA4C3D;}
	.st347{clip-path:url(#SVGID_113_);fill:#DA4B3D;}
	.st348{clip-path:url(#SVGID_113_);fill:#DA4A3C;}
	.st349{clip-path:url(#SVGID_113_);fill:#DA483B;}
	.st350{clip-path:url(#SVGID_113_);fill:#D9473A;}
	.st351{clip-path:url(#SVGID_113_);fill:#D9463A;}
	.st352{clip-path:url(#SVGID_113_);fill:#D94539;}
	.st353{clip-path:url(#SVGID_115_);}
	.st354{clip-path:url(#SVGID_117_);fill:#EAB17E;}
	.st355{clip-path:url(#SVGID_117_);fill:#EAB07E;}
	.st356{clip-path:url(#SVGID_117_);fill:#EAB07D;}
	.st357{clip-path:url(#SVGID_117_);fill:#EAAF7D;}
	.st358{clip-path:url(#SVGID_117_);fill:#EAAE7C;}
	.st359{clip-path:url(#SVGID_117_);fill:#E9AE7C;}
	.st360{clip-path:url(#SVGID_117_);fill:#E9AD7B;}
	.st361{clip-path:url(#SVGID_117_);fill:#E9AC7B;}
	.st362{clip-path:url(#SVGID_117_);fill:#E9AB7A;}
	.st363{clip-path:url(#SVGID_117_);fill:#E9AA7A;}
	.st364{clip-path:url(#SVGID_117_);fill:#E9AA79;}
	.st365{clip-path:url(#SVGID_117_);fill:#E9A979;}
	.st366{clip-path:url(#SVGID_117_);fill:#E9A878;}
	.st367{clip-path:url(#SVGID_117_);fill:#E8A778;}
	.st368{clip-path:url(#SVGID_117_);fill:#E8A677;}
	.st369{clip-path:url(#SVGID_117_);fill:#E8A577;}
	.st370{clip-path:url(#SVGID_117_);fill:#E8A476;}
	.st371{clip-path:url(#SVGID_117_);fill:#E8A375;}
	.st372{clip-path:url(#SVGID_117_);fill:#E8A274;}
	.st373{clip-path:url(#SVGID_117_);fill:#E7A174;}
	.st374{clip-path:url(#SVGID_117_);fill:#E7A073;}
	.st375{clip-path:url(#SVGID_117_);fill:#E79F72;}
	.st376{clip-path:url(#SVGID_117_);fill:#E79E72;}
	.st377{clip-path:url(#SVGID_117_);fill:#E79D71;}
	.st378{clip-path:url(#SVGID_117_);fill:#E79C71;}
	.st379{clip-path:url(#SVGID_117_);fill:#E79B70;}
	.st380{clip-path:url(#SVGID_117_);fill:#E69A6F;}
	.st381{clip-path:url(#SVGID_117_);fill:#E6996F;}
	.st382{clip-path:url(#SVGID_117_);fill:#E6986E;}
	.st383{clip-path:url(#SVGID_117_);fill:#E6976E;}
	.st384{clip-path:url(#SVGID_117_);fill:#E6966D;}
	.st385{clip-path:url(#SVGID_117_);fill:#E6956C;}
	.st386{clip-path:url(#SVGID_117_);fill:#E6946C;}
	.st387{clip-path:url(#SVGID_117_);fill:#E5936B;}
	.st388{clip-path:url(#SVGID_117_);fill:#E5926A;}
	.st389{clip-path:url(#SVGID_117_);fill:#E5916A;}
	.st390{clip-path:url(#SVGID_117_);fill:#E59069;}
	.st391{clip-path:url(#SVGID_117_);fill:#E58F69;}
	.st392{clip-path:url(#SVGID_117_);fill:#E58E68;}
	.st393{clip-path:url(#SVGID_117_);fill:#E48D67;}
	.st394{clip-path:url(#SVGID_117_);fill:#E48C67;}
	.st395{clip-path:url(#SVGID_117_);fill:#E48B66;}
	.st396{clip-path:url(#SVGID_117_);fill:#E48A65;}
	.st397{clip-path:url(#SVGID_117_);fill:#E48965;}
	.st398{clip-path:url(#SVGID_117_);fill:#E48864;}
	.st399{clip-path:url(#SVGID_117_);fill:#E38763;}
	.st400{clip-path:url(#SVGID_117_);fill:#E38663;}
	.st401{clip-path:url(#SVGID_117_);fill:#E38562;}
	.st402{clip-path:url(#SVGID_117_);fill:#E38461;}
	.st403{clip-path:url(#SVGID_117_);fill:#E38361;}
	.st404{clip-path:url(#SVGID_117_);fill:#E38260;}
	.st405{clip-path:url(#SVGID_117_);fill:#E2815F;}
	.st406{clip-path:url(#SVGID_117_);fill:#E2805F;}
	.st407{clip-path:url(#SVGID_117_);fill:#E27F5E;}
	.st408{clip-path:url(#SVGID_117_);fill:#E27E5D;}
	.st409{clip-path:url(#SVGID_117_);fill:#E27D5D;}
	.st410{clip-path:url(#SVGID_117_);fill:#E27C5C;}
	.st411{clip-path:url(#SVGID_117_);fill:#E17B5B;}
	.st412{clip-path:url(#SVGID_117_);fill:#E17A5B;}
	.st413{clip-path:url(#SVGID_117_);fill:#E1795A;}
	.st414{clip-path:url(#SVGID_117_);fill:#E17859;}
	.st415{clip-path:url(#SVGID_117_);fill:#E17759;}
	.st416{clip-path:url(#SVGID_117_);fill:#E17658;}
	.st417{clip-path:url(#SVGID_117_);fill:#E07557;}
	.st418{clip-path:url(#SVGID_117_);fill:#E07457;}
	.st419{clip-path:url(#SVGID_117_);fill:#E07256;}
	.st420{clip-path:url(#SVGID_117_);fill:#E07155;}
	.st421{clip-path:url(#SVGID_117_);fill:#E07055;}
	.st422{clip-path:url(#SVGID_117_);fill:#E06F54;}
	.st423{clip-path:url(#SVGID_117_);fill:#DF6E53;}
	.st424{clip-path:url(#SVGID_117_);fill:#DF6D53;}
	.st425{clip-path:url(#SVGID_117_);fill:#DF6C52;}
	.st426{clip-path:url(#SVGID_117_);fill:#DF6B51;}
	.st427{clip-path:url(#SVGID_117_);fill:#DF6A51;}
	.st428{clip-path:url(#SVGID_117_);fill:#DF6950;}
	.st429{clip-path:url(#SVGID_117_);fill:#DE684F;}
	.st430{clip-path:url(#SVGID_117_);fill:#DE674E;}
	.st431{clip-path:url(#SVGID_117_);fill:#DE654E;}
	.st432{clip-path:url(#SVGID_117_);fill:#DE644D;}
	.st433{clip-path:url(#SVGID_117_);fill:#DE634C;}
	.st434{clip-path:url(#SVGID_117_);fill:#DE624C;}
	.st435{clip-path:url(#SVGID_117_);fill:#DD614B;}
	.st436{clip-path:url(#SVGID_117_);fill:#DD604A;}
	.st437{clip-path:url(#SVGID_117_);fill:#DD5F4A;}
	.st438{clip-path:url(#SVGID_117_);fill:#DD5E49;}
	.st439{clip-path:url(#SVGID_117_);fill:#DD5D48;}
	.st440{clip-path:url(#SVGID_117_);fill:#DD5C47;}
	.st441{clip-path:url(#SVGID_117_);fill:#DC5A47;}
	.st442{clip-path:url(#SVGID_117_);fill:#DC5946;}
	.st443{clip-path:url(#SVGID_117_);fill:#DC5845;}
	.st444{clip-path:url(#SVGID_117_);fill:#DC5745;}
	.st445{clip-path:url(#SVGID_117_);fill:#DC5644;}
	.st446{clip-path:url(#SVGID_117_);fill:#DB5543;}
	.st447{clip-path:url(#SVGID_117_);fill:#DB5442;}
	.st448{clip-path:url(#SVGID_117_);fill:#DB5342;}
	.st449{clip-path:url(#SVGID_117_);fill:#DB5141;}
	.st450{clip-path:url(#SVGID_117_);fill:#DB5040;}
	.st451{clip-path:url(#SVGID_117_);fill:#DB4F40;}
	.st452{clip-path:url(#SVGID_117_);fill:#DA4E3F;}
	.st453{clip-path:url(#SVGID_117_);fill:#DA4D3E;}
	.st454{clip-path:url(#SVGID_117_);fill:#DA4C3D;}
	.st455{clip-path:url(#SVGID_117_);fill:#DA4B3D;}
	.st456{clip-path:url(#SVGID_117_);fill:#DA4A3C;}
	.st457{clip-path:url(#SVGID_117_);fill:#DA483B;}
	.st458{clip-path:url(#SVGID_117_);fill:#D9473A;}
	.st459{clip-path:url(#SVGID_117_);fill:#D9463A;}
	.st460{clip-path:url(#SVGID_117_);fill:#D94539;}
	.st461{clip-path:url(#SVGID_119_);}
	.st462{clip-path:url(#SVGID_121_);fill:#EAB17E;}
	.st463{clip-path:url(#SVGID_121_);fill:#EAB07E;}
	.st464{clip-path:url(#SVGID_121_);fill:#EAB07D;}
	.st465{clip-path:url(#SVGID_121_);fill:#EAAF7D;}
	.st466{clip-path:url(#SVGID_121_);fill:#EAAE7C;}
	.st467{clip-path:url(#SVGID_121_);fill:#E9AE7C;}
	.st468{clip-path:url(#SVGID_121_);fill:#E9AD7B;}
	.st469{clip-path:url(#SVGID_121_);fill:#E9AC7B;}
	.st470{clip-path:url(#SVGID_121_);fill:#E9AB7A;}
	.st471{clip-path:url(#SVGID_121_);fill:#E9AA7A;}
	.st472{clip-path:url(#SVGID_121_);fill:#E9AA79;}
	.st473{clip-path:url(#SVGID_121_);fill:#E9A979;}
	.st474{clip-path:url(#SVGID_121_);fill:#E9A878;}
	.st475{clip-path:url(#SVGID_121_);fill:#E8A778;}
	.st476{clip-path:url(#SVGID_121_);fill:#E8A677;}
	.st477{clip-path:url(#SVGID_121_);fill:#E8A577;}
	.st478{clip-path:url(#SVGID_121_);fill:#E8A476;}
	.st479{clip-path:url(#SVGID_121_);fill:#E8A375;}
	.st480{clip-path:url(#SVGID_121_);fill:#E8A274;}
	.st481{clip-path:url(#SVGID_121_);fill:#E7A174;}
	.st482{clip-path:url(#SVGID_121_);fill:#E7A073;}
	.st483{clip-path:url(#SVGID_121_);fill:#E79F72;}
	.st484{clip-path:url(#SVGID_121_);fill:#E79E72;}
	.st485{clip-path:url(#SVGID_121_);fill:#E79D71;}
	.st486{clip-path:url(#SVGID_121_);fill:#E79C71;}
	.st487{clip-path:url(#SVGID_121_);fill:#E79B70;}
	.st488{clip-path:url(#SVGID_121_);fill:#E69A6F;}
	.st489{clip-path:url(#SVGID_121_);fill:#E6996F;}
	.st490{clip-path:url(#SVGID_121_);fill:#E6986E;}
	.st491{clip-path:url(#SVGID_121_);fill:#E6976E;}
	.st492{clip-path:url(#SVGID_121_);fill:#E6966D;}
	.st493{clip-path:url(#SVGID_121_);fill:#E6956C;}
	.st494{clip-path:url(#SVGID_121_);fill:#E6946C;}
	.st495{clip-path:url(#SVGID_121_);fill:#E5936B;}
	.st496{clip-path:url(#SVGID_121_);fill:#E5926A;}
	.st497{clip-path:url(#SVGID_121_);fill:#E5916A;}
	.st498{clip-path:url(#SVGID_121_);fill:#E59069;}
	.st499{clip-path:url(#SVGID_121_);fill:#E58F69;}
	.st500{clip-path:url(#SVGID_121_);fill:#E58E68;}
	.st501{clip-path:url(#SVGID_121_);fill:#E48D67;}
	.st502{clip-path:url(#SVGID_121_);fill:#E48C67;}
	.st503{clip-path:url(#SVGID_121_);fill:#E48B66;}
	.st504{clip-path:url(#SVGID_121_);fill:#E48A65;}
	.st505{clip-path:url(#SVGID_121_);fill:#E48965;}
	.st506{clip-path:url(#SVGID_121_);fill:#E48864;}
	.st507{clip-path:url(#SVGID_121_);fill:#E38763;}
	.st508{clip-path:url(#SVGID_121_);fill:#E38663;}
	.st509{clip-path:url(#SVGID_121_);fill:#E38562;}
	.st510{clip-path:url(#SVGID_121_);fill:#E38461;}
	.st511{clip-path:url(#SVGID_121_);fill:#E38361;}
	.st512{clip-path:url(#SVGID_121_);fill:#E38260;}
	.st513{clip-path:url(#SVGID_121_);fill:#E2815F;}
	.st514{clip-path:url(#SVGID_121_);fill:#E2805F;}
	.st515{clip-path:url(#SVGID_121_);fill:#E27F5E;}
	.st516{clip-path:url(#SVGID_121_);fill:#E27E5D;}
	.st517{clip-path:url(#SVGID_121_);fill:#E27D5D;}
	.st518{clip-path:url(#SVGID_121_);fill:#E27C5C;}
	.st519{clip-path:url(#SVGID_121_);fill:#E17B5B;}
	.st520{clip-path:url(#SVGID_121_);fill:#E17A5B;}
	.st521{clip-path:url(#SVGID_121_);fill:#E1795A;}
	.st522{clip-path:url(#SVGID_121_);fill:#E17859;}
	.st523{clip-path:url(#SVGID_121_);fill:#E17759;}
	.st524{clip-path:url(#SVGID_121_);fill:#E17658;}
	.st525{clip-path:url(#SVGID_121_);fill:#E07557;}
	.st526{clip-path:url(#SVGID_121_);fill:#E07457;}
	.st527{clip-path:url(#SVGID_121_);fill:#E07256;}
	.st528{clip-path:url(#SVGID_121_);fill:#E07155;}
	.st529{clip-path:url(#SVGID_121_);fill:#E07055;}
	.st530{clip-path:url(#SVGID_121_);fill:#E06F54;}
	.st531{clip-path:url(#SVGID_121_);fill:#DF6E53;}
	.st532{clip-path:url(#SVGID_121_);fill:#DF6D53;}
	.st533{clip-path:url(#SVGID_121_);fill:#DF6C52;}
	.st534{clip-path:url(#SVGID_121_);fill:#DF6B51;}
	.st535{clip-path:url(#SVGID_121_);fill:#DF6A51;}
	.st536{clip-path:url(#SVGID_121_);fill:#DF6950;}
	.st537{clip-path:url(#SVGID_121_);fill:#DE684F;}
	.st538{clip-path:url(#SVGID_121_);fill:#DE674E;}
	.st539{clip-path:url(#SVGID_121_);fill:#DE654E;}
	.st540{clip-path:url(#SVGID_121_);fill:#DE644D;}
	.st541{clip-path:url(#SVGID_121_);fill:#DE634C;}
	.st542{clip-path:url(#SVGID_121_);fill:#DE624C;}
	.st543{clip-path:url(#SVGID_121_);fill:#DD614B;}
	.st544{clip-path:url(#SVGID_121_);fill:#DD604A;}
	.st545{clip-path:url(#SVGID_121_);fill:#DD5F4A;}
	.st546{clip-path:url(#SVGID_121_);fill:#DD5E49;}
	.st547{clip-path:url(#SVGID_121_);fill:#DD5D48;}
	.st548{clip-path:url(#SVGID_121_);fill:#DD5C47;}
	.st549{clip-path:url(#SVGID_121_);fill:#DC5A47;}
	.st550{clip-path:url(#SVGID_121_);fill:#DC5946;}
	.st551{clip-path:url(#SVGID_121_);fill:#DC5845;}
	.st552{clip-path:url(#SVGID_121_);fill:#DC5745;}
	.st553{clip-path:url(#SVGID_121_);fill:#DC5644;}
	.st554{clip-path:url(#SVGID_121_);fill:#DB5543;}
	.st555{clip-path:url(#SVGID_121_);fill:#DB5442;}
	.st556{clip-path:url(#SVGID_121_);fill:#DB5342;}
	.st557{clip-path:url(#SVGID_121_);fill:#DB5141;}
	.st558{clip-path:url(#SVGID_121_);fill:#DB5040;}
	.st559{clip-path:url(#SVGID_121_);fill:#DB4F40;}
	.st560{clip-path:url(#SVGID_121_);fill:#DA4E3F;}
	.st561{clip-path:url(#SVGID_121_);fill:#DA4D3E;}
	.st562{clip-path:url(#SVGID_121_);fill:#DA4C3D;}
	.st563{clip-path:url(#SVGID_121_);fill:#DA4B3D;}
	.st564{clip-path:url(#SVGID_121_);fill:#DA4A3C;}
	.st565{clip-path:url(#SVGID_121_);fill:#DA483B;}
	.st566{clip-path:url(#SVGID_121_);fill:#D9473A;}
	.st567{clip-path:url(#SVGID_121_);fill:#D9463A;}
	.st568{clip-path:url(#SVGID_121_);fill:#D94539;}
	.st569{clip-path:url(#SVGID_123_);fill:url(#SVGID_124_);}
</style>
<g>
	<g>
		<circle class="st227" cx="355.5" cy="464.1" r="210.2"/>
		<circle class="st227" cx="644.2" cy="464.1" r="210.2"/>
		<path class="st228" d="M434,464.1c0,60.2,25.3,114.4,65.8,152.7c40.5-38.3,65.8-92.5,65.8-152.7s-25.3-114.4-65.8-152.7
			C459.3,349.8,434,404,434,464.1z"/>
	</g>
	<g id="OXuqtb.tif">
		<g>
			<path class="st16" d="M246.3,820c-5,0-9.4,0-14.6,0c0-10.5,0-20.8,0-31.1c0-2.3,0-4.6,0-7c-0.3-9.3-4.8-14.5-12.8-15
				c-9.2-0.5-15.9,4.5-16.5,13.6c-0.7,10.3-0.3,20.6-0.4,31c0,2.7,0,5.4,0,8.3c-5.1,0-9.4,0-14.5,0c0-10.4,0-20.5,0-30.5
				c0-2.7,0.1-5.5-0.1-8.2c-0.7-9.1-5.5-14.1-13.7-14.2c-8.9-0.1-15.2,4.9-15.7,13.8c-0.6,10.5-0.3,21.1-0.4,31.6c0,2.5,0,4.9,0,7.6
				c-5,0-9.2,0-13.9,0c0-21.5,0-42.8,0-64.6c4.2,0,8.3,0,12.9,0c0.4,1.7,0.8,3.6,1.4,6.2c5.8-6.1,12.6-8.7,20.5-8.2
				c8,0.6,14.5,4.1,19.4,11.1c5.9-7.9,13.6-11.4,23-11.2c14.2,0.3,24.2,8.3,25.1,22.4C247.1,790.3,246.3,804.9,246.3,820z"/>
			<path class="st16" d="M842,762.1c0-11.6,0-21.8,0-32.6c4.8,0,9.1,0,14,0c0,29.9,0,59.9,0,90.3c-4.3,0-8.6,0-13.3,0
				c-0.4-1.6-0.8-3.3-1.4-5.8c-9.9,8.9-21.2,10-32.8,5c-11.6-5-17.9-14.4-19.1-26.9c-1.4-14.9,3.1-27.4,16.7-34.7
				C818.1,751.2,830.1,751.7,842,762.1z M842.8,787.6c-0.1-11.9-8.2-20.5-19.4-20.5c-11.5,0-19.9,8.7-19.8,20.8
				c0.1,11.8,8.3,20.5,19.4,20.6C834.5,808.6,842.9,799.6,842.8,787.6z"/>
			<path class="st16" d="M311.1,761.2c1.2-6.9,2-7.2,14.6-5.5c0,21.2,0,42.5,0,64.2c-4.5,0-8.8,0-13.5,0c-0.4-1.7-0.7-3.5-1-4.8
				c-23,12.3-41,8.4-50.9-17c-5.4-13.8,0.7-30.4,11.8-38.5C283.9,751.1,297.6,751.6,311.1,761.2z M293.1,767
				c-11.5,0-19.8,8.9-19.6,21c0.1,11.7,8.5,20.5,19.6,20.5c11.2,0,19.4-8.6,19.5-20.4C312.7,775.8,304.6,767,293.1,767z"/>
			<path class="st16" d="M710.4,761.6c0.4-2.5,0.6-4.3,0.9-6.1c4.6,0,9,0,13.6,0c0,21.6,0,42.8,0,64.4c-4.5,0-8.9,0-13.5,0
				c-0.3-1.7-0.6-3.4-1.1-6.3c-8.3,8.2-18,9.5-28.2,7.2c-7.5-1.7-13.4-6-17.9-12.2c-9.7-13.5-7.9-34.5,3.6-46
				C676.5,753.9,695.1,748.2,710.4,761.6z M692.1,767c-11.5,0-19.9,8.9-19.7,20.9c0.1,11.7,8.5,20.5,19.6,20.5
				c11.4,0.1,19.6-8.7,19.5-21C711.4,775.4,703.4,767,692.1,767z"/>
			<path class="st16" d="M532.3,793.4c-16.2,0-31.8,0-47.3,0c1.3,16,17.9,19.9,37.6,9.3c2.1,3,4.2,6.1,7.1,10.4
				c-4.4,2.3-8.4,5-12.7,6.6c-14.2,5.4-31,1.6-39.7-8.5c-9.2-10.7-10.8-28.4-3.8-41.6c6.2-11.7,20.1-18,33.9-15.3
				c13.6,2.6,23.1,13,24.8,27.5C532.7,785.2,532.3,788.8,532.3,793.4z M517.4,781.8c-2.2-11.4-8-16.2-17.8-15.3
				c-8.7,0.8-14.2,6.5-14.5,15.3C495.8,781.8,506.4,781.8,517.4,781.8z"/>
			<path class="st16" d="M339.6,813.6c2.5-4.1,4.5-7.3,5.8-9.4c8.4,1.8,16,3.5,23.7,4.9c2.2,0.4,5,0.1,6.7-1
				c0.5-0.3,1.1-0.7,1.5-1.1c3.6-3,3.3-8.9-0.8-11.1c-0.3-0.1-0.6-0.3-0.9-0.4c-7.2-2.2-15-2.6-22-5.2c-12.4-4.6-15.4-19.5-6.3-29
				c2.5-2.6,6.1-4.9,9.5-5.9c13.3-3.8,26.2-2.2,38.8,4.5c-0.4,1.2-0.7,2.1-1.1,3c-4,8.3-3.9,7.8-12.7,5.5c-5.8-1.5-12.1-1.8-18-1.2
				c-0.9,0.1-1.7,0.7-2.5,1.5c-2.8,2.9-2.3,7.9,1.3,9.8c0.3,0.1,0.6,0.3,0.8,0.3c5.6,1.6,11.6,2.1,17.3,3.3
				c9.9,2.1,16.1,8.3,16.8,16.5c0.7,8.9-3.8,16.6-13.3,20C369,824.4,354.2,822.5,339.6,813.6z"/>
			<path class="st16" d="M420.2,754.7c0-6.3,0-12.3,0-18.7c4.9,0,9.2,0,14.2,0c0,6.2,0,12.2,0,19c7.9,0,15.2,0,22.9,0
				c0,4.6,0,8.5,0,13.1c-7.5,0-14.7,0-22.4,0c0,11.4-0.3,22,0.1,32.7c0.2,5.2,4.1,7.8,9.2,7.3c3.9-0.4,7.8-1.6,12.3-2.7
				c1.2,3.3,2.5,6.9,3.9,10.5c-7.9,6.7-23.1,7.9-31.4,2.6c-7.1-4.5-8.5-11.7-8.7-19.2c-0.3-10.1-0.1-20.1-0.1-30.9
				c-4.4,0-8.3,0-12.7,0c0-4.5,0-8.4,0-13C411.5,755.2,415.5,755,420.2,754.7z"/>
			<path class="st16" d="M644,772.5c-15-7.5-25.1-7-31.9,1.1c-6.2,7.5-6.4,20-0.5,27.7c6.5,8.4,16.7,9.1,32.5,1.9
				c2,3.3,4.1,6.7,6.2,10.1c-6.6,10.5-33.8,11.8-46.2,0.9c-13.7-12.1-15.7-34.9-3.7-49.2c11.5-13.7,35.6-15.5,50.2-3.3
				C648.5,765.1,646.4,768.6,644,772.5z"/>
			<path class="st16" d="M588.3,755.6c-1.5,4.4-2.8,8.5-4.2,12.7c-1.8-0.4-3-0.7-4.2-0.9c-11.6-1.8-18,3.1-18.3,14.8
				c-0.3,10.5-0.1,21.1-0.1,31.6c0,1.9-0.2,3.7-0.3,6c-4.6,0-8.8,0-13.5,0c0-21.3,0-42.5,0-64.3c4.2,0,8.3,0,12.8,0
				c0.4,1.6,0.9,3.5,1.5,5.9C569.3,753.2,577.9,751.8,588.3,755.6z"/>
			<path class="st16" d="M758.4,761.3c7.8-8.2,16.3-9.5,26.4-5.7c-1.4,4.3-2.8,8.4-4.2,12.7c-2.1-0.4-4-0.8-5.8-1
				c-10.4-1.2-16.6,4.1-16.8,14.6c-0.2,10.5,0,21.1-0.1,31.6c0,2.1-0.2,4.1-0.3,6.5c-4.5,0-8.6,0-13.4,0c0-21.3,0-42.6,0-64
				C754.3,753.4,757.1,754.3,758.4,761.3z"/>
		</g>
	</g>
</g>
</svg>
