<?xml version="1.0" encoding="utf-8"?>
<!-- Generator: Adobe Illustrator 21.0.0, SVG Export Plug-In . SVG Version: 6.00 Build 0)  -->
<svg version="1.1" id="Capa_1" xmlns="http://www.w3.org/2000/svg" xmlns:xlink="http://www.w3.org/1999/xlink" x="0px" y="0px"
	 viewBox="0 0 512 512" style="enable-background:new 0 0 512 512;" xml:space="preserve">
<style type="text/css">
	.st0{fill:url(#SVGID_1_);}
</style>
<g>
	<linearGradient id="SVGID_1_" gradientUnits="userSpaceOnUse" x1="0" y1="256" x2="512" y2="256">
		<stop  offset="0" style="stop-color:#FD643E"/>
		<stop  offset="0.7034" style="stop-color:#F84E39"/>
		<stop  offset="1" style="stop-color:#F54336"/>
	</linearGradient>
	<path class="st0" d="M448,80H64L0,144v16v64c0,35.3,28.7,64,64,64v160c-35.3,0-64,28.7-64,64h512c0-35.3-28.6-64-64-64V288
		c35.4,0,64-28.7,64-64v-64v-16L448,80z M384,224c0,17.7-14.4,32-32,32s-32-14.3-32-32v-64h64V224z M192,224c0,17.7-14.3,32-32,32
		c-17.6,0-32-14.3-32-32v-64h64V224z M224,160h64v64c0,17.7-14.3,32-32,32c-17.6,0-32-14.3-32-32V160z M32,224v-64h64v64
		c0,17.7-14.3,32-32,32C46.4,256,32,241.7,32,224z M96,448V279.1c6.1-3.5,11.4-7.9,16-13.2c11.8,13.4,28.8,22.1,48,22.1
		c19.3,0,36.3-8.7,48-22.1c11.8,13.4,28.8,22.1,48,22.1c11.8,0,22.6-3.4,32-8.9V448H96z M416,448h-96V279.1c9.4,5.5,20.3,8.9,32,8.9
		c19.3,0,36.3-8.7,48-22.1c4.6,5.3,9.9,9.7,16,13.2V448z M480,224c0,17.7-14.4,32-32,32s-32-14.3-32-32v-64h64V224z M448,64H64V0
		h384V64z M368,352c0,8.8-7.1,16-16,16c-8.8,0-16-7.2-16-16s7.2-16,16-16C360.9,336,368,343.2,368,352z"/>
</g>
</svg>
