<?xml version="1.0" encoding="utf-8"?>
<!-- Generator: Adobe Illustrator 21.0.2, SVG Export Plug-In . SVG Version: 6.00 Build 0)  -->
<svg version="1.1" xmlns="http://www.w3.org/2000/svg" xmlns:xlink="http://www.w3.org/1999/xlink" x="0px" y="0px"
	 viewBox="0 0 500 500" style="enable-background:new 0 0 500 500;" xml:space="preserve">
<style type="text/css">
	.st0{display:none;}
	.st1{display:inline;fill:#FFFFFF;}
	.st2{clip-path:url(#SVGID_3_);fill:url(#SVGID_4_);}
	.st3{clip-path:url(#SVGID_7_);fill:url(#SVGID_8_);}
	.st4{clip-path:url(#SVGID_11_);fill:url(#SVGID_12_);}
	.st5{clip-path:url(#SVGID_15_);fill:url(#SVGID_16_);}
	.st6{clip-path:url(#SVGID_19_);fill:url(#SVGID_20_);}
	.st7{fill:#FFFFFF;}
	.st8{fill:url(#SVGID_21_);}
	.st9{fill:url(#SVGID_22_);}
	.st10{fill:url(#SVGID_23_);}
	.st11{fill:url(#SVGID_24_);}
	.st12{fill:url(#SVGID_25_);}
	.st13{fill:url(#SVGID_26_);}
	.st14{fill:url(#SVGID_27_);}
	.st15{fill:url(#SVGID_28_);}
	.st16{fill:url(#SVGID_29_);}
	.st17{fill:url(#SVGID_30_);}
	.st18{fill:url(#SVGID_31_);}
	.st19{fill:url(#SVGID_32_);}
	.st20{fill:url(#SVGID_33_);}
	.st21{fill:url(#SVGID_34_);}
	.st22{fill:url(#SVGID_35_);}
	.st23{fill:url(#SVGID_36_);}
	.st24{fill:url(#SVGID_37_);}
	.st25{fill:url(#SVGID_38_);}
	.st26{fill:url(#SVGID_39_);}
	.st27{fill:url(#SVGID_40_);}
	.st28{fill:url(#SVGID_41_);}
	.st29{fill:url(#SVGID_42_);}
	.st30{clip-path:url(#SVGID_45_);fill:url(#SVGID_46_);}
	.st31{clip-path:url(#SVGID_49_);fill:url(#SVGID_50_);}
</style>
<g id="Capa_2" class="st0">
	<rect x="-619.2" y="-607.2" class="st1" width="1161.1" height="1125.1"/>
</g>
<g id="Capa_1">
	<g>
		<path class="st7" d="M238,164.4c9.5,21.1,19,42.3,28.5,63.4c0.6,1.3,0.4,2.1-0.4,3.2c-6.8,9-13.6,18-20.3,27
			c-0.1,0.2-0.3,0.4-0.8,1.1c0-1.2,0-1.8,0-2.5c0-12.4,0-24.7,0-37.1c0-1.9-0.4-2.5-2.4-2.5c-7.4,0.1-14.7,0.1-22.1,0
			c-1.7,0-2.1,0.5-2.1,2.2c0.1,18.5,0,36.9,0,55.4c0,0.7,0,1.5,0,2.7c-2.1-1.8-3.9-3.4-5.7-4.9c-0.8-0.7-1.5-1.5-2.4-1.9
			c-1.8-0.8-2.9-1.8-2.4-4.1c-2.9,0.8-5.5,1.7-8.1,2.4c-6.8,1.7-13.5,2.2-20.3-0.1c-8.9-3-13.5-10.9-12.1-20.6
			c1.3-8.7,7.9-14.6,17-15.1c6.9-0.5,13.5,0.8,19.7,3.9c0.6,0.3,1.1,0.5,1.9,0.9c0.1-0.7,0.2-1.2,0.2-1.8c0-4.9-0.1-9.9,0-14.8
			c0-1.4-0.5-2-1.8-2.5c-6.9-2.4-14-2.8-21.2-2.6c-8.9,0.2-17.6,1.9-25.5,6.2c-9.4,5.2-15.7,12.7-17.5,23.4
			c-2.8,16.7,5,30.5,20.7,36.9c7,2.8,14.2,4.1,21.7,4.3c2.2,0,4.5,0,6.9,0c0.7,5.8,5.4,9,8.3,13.6c-1.6,0.5-3.1,1.1-4.7,1.6
			c-35,11-69.9,22-104.9,32.9c-3.2,1-2.7,1.1-3.7-1.8c-5.5-14.9-11-29.9-16.5-44.8c-0.3-0.7-0.5-1.4-0.8-2.5c8.8,0,17.3,0,26.1,0
			c0-7,0-13.7,0-20.4c4.1-0.2,8-0.2,11.9-0.6c6.4-0.6,12.6-2,18.3-5.3c12-6.9,13.4-20.2,8.7-29.1c-3.1-5.9-8.6-8.8-14.6-10.7
			c-6.2-2-12.6-2.7-19.1-2.7c-10-0.1-20,0-30,0c-0.4,0-0.7,0.1-1.3,0.1c0,22.6,0,45.1,0,67.6c-0.1,0-0.3,0-0.4,0.1
			c-13.3-36.1-26.5-72.2-39.9-108.5c6.5-0.4,12.7-0.8,18.9-1.1c13.2-0.8,26.5-1.5,39.7-2.2c10-0.6,20-1.1,29.9-1.6
			c10.5-0.6,21-1.2,31.5-1.8c9.9-0.6,19.8-1.1,29.7-1.7c10.6-0.6,21.1-1.2,31.7-1.8c7.9-0.4,15.7-0.9,23.6-1.3
			c1.4-0.1,2.8-0.3,4.2-0.4C236.7,164.4,237.4,164.4,238,164.4z M231.9,180.7c-11.2-0.1-18,7.8-15.9,18.6
			c1.1,5.9,5.9,10.1,13.1,11.1c9.9,1.4,20.7-4.9,18.2-18.2C246.1,185.4,239.9,180.8,231.9,180.7z"/>
		<path class="st7" d="M473.1,229c-0.6,1.8-1,3.7-1.8,5.4c-2.2,4.7-6,7.7-10.9,9c-7.6,2.1-15.2,2-22.7-0.3
			c-6.2-1.9-11-8.3-11.4-14.8c0-0.4,0-0.9,0-1.4c4.6-0.3,9.2-0.6,13.7-0.9c1.2-0.1,1.3,0.7,1.5,1.5c1.4,5.6,5.6,8.2,11.3,7
			c2.6-0.6,4.5-2.4,4.8-4.6c0.3-2.4-1-4.4-3.7-5.4c-2.8-1-5.8-1.5-8.6-2.5c-3.8-1.4-7.9-2.6-11.2-4.7c-7.7-4.9-7.9-15.9-0.7-21.6
			c3.4-2.7,7.4-3.9,11.6-4.1c5.2-0.3,10.5-0.5,15.6,1.1c6.4,2,10.9,7.7,10.6,13.9c-2.4,0.2-4.8,0.3-7.2,0.5
			c-2.4,0.2-4.8,0.3-7.4,0.4c-0.1-0.3-0.2-0.6-0.3-0.9c-1.4-5.4-5.5-6.2-9.8-5.6c-2,0.3-3.6,2-3.6,3.7c0,2,1.4,3,3,3.5
			c3.7,1.1,7.5,1.7,11.1,2.9c3.3,1,6.5,2.3,9.5,3.9c3.5,1.9,5.6,5,6.3,9c0.1,0.4,0.3,0.8,0.4,1.3C473.1,226.5,473.1,227.8,473.1,229
			z"/>
		<path class="st7" d="M229.5,319.7c-5.7-0.2-10.1-2.4-13.5-6.8c-6.1-7.8-12.3-15.4-18.5-23.2c-2-2.5-2.4-4.3-0.4-6.8
			c2.1-2.6,4.7-4.8,7.2-7.1c1.2-1.1,2.3-0.3,3.4,0.6c6.4,5.6,12.7,11.1,19.1,16.7c2.7,2.4,3.4,2.2,5.2-0.9
			c15.4-27.8,34-53.2,55.6-76.4c2.3-2.5,5.5-3.3,8.6-3.9c3.9-0.7,7.8-1,11.8-1.3c0.9-0.1,1.8,0.7,2.8,1.1c-0.4,0.8-0.7,1.9-1.3,2.5
			c-7.3,6.6-14.5,13.5-20.1,21.7c-8.4,12.4-16.8,24.8-24.7,37.6c-8.3,13.5-16,27.5-23.9,41.2c-1,1.7-2.3,2.8-4.1,3.2
			C234.4,318.8,231.9,319.2,229.5,319.7z"/>
		<path class="st7" d="M320.1,243.6c0-16.9,0-34,0-51.3c0.7,0,1.4-0.1,2.1-0.1c7.6,0,15.3,0,22.9,0c12.6,0,20.8,7.1,22.1,19.6
			c0.5,5,0.5,10.2-0.3,15.1c-1.7,9.7-8.5,16-18.4,16.6C339.1,244,329.7,243.6,320.1,243.6z M336,232.2c2.4,0,4.6,0.1,6.7,0
			c4.8-0.2,7.8-2.5,8.4-7.3c0.5-3.8,0.6-7.7,0.3-11.5c-0.5-5.8-3.1-8.7-7.9-9.4c-1.8-0.3-3.7-0.2-5.5-0.4c-1.7-0.2-2.2,0.5-2.2,2.2
			c0.1,8.2,0,16.4,0,24.6C335.9,230.9,335.9,231.5,336,232.2z"/>
		<path class="st7" d="M373.6,226.9c5-0.3,9.9-0.6,14.9-0.9c0.2,0.8,0.4,1.5,0.6,2.1c1.6,5.6,7,8.3,12.4,6c2-0.8,3.4-2.3,3.5-4.6
			c0.1-2.2-1.1-3.9-3.1-4.7c-2.5-1-5.2-1.6-7.8-2.5c-3.3-1.1-6.6-2-9.8-3.3c-5.8-2.5-9.2-6.9-8.9-13.5c0.3-5.9,4.4-11.1,10.8-12.9
			c7.5-2.1,15.1-2.2,22.5,0.2c5.9,2,10.1,7.8,9.8,13.6c-4.5,0.3-9,0.6-13.6,0.8c-0.5,0-1.3-0.6-1.4-1.1c-1.3-5-5.6-6-9.9-5.3
			c-2,0.4-3.4,1.9-3.5,3.6c-0.1,2.2,1.3,3.1,3.1,3.6c4.1,1.2,8.3,2.1,12.4,3.2c1.7,0.5,3.4,1.1,5,1.8c5.8,2.5,9.5,6.7,9.7,13.3
			c0.2,6.7-2.6,11.9-8.5,15.1c-3,1.6-6.5,2.7-9.8,2.9c-4.9,0.3-10,0.1-14.9-0.8C379.2,242.1,374.2,235.6,373.6,226.9z"/>
		<path class="st7" d="M93.2,250.1c0-6,0-11.8,0-17.9c4.7-0.1,9.5-0.5,13.5,2.6c4.5,3.4,3.4,11.4-1.8,13.9
			C101.2,250.4,97.2,250.3,93.2,250.1z"/>
		<path class="st7" d="M374.8,269.3c-1.2,0-2.3,0-3.6,0c0-3.8,0-7.4,0-11.1c-0.1,0-0.3-0.1-0.4-0.1c-0.2,0.4-0.4,0.8-0.5,1.2
			c-0.8,2.9-1.6,5.8-2.2,8.7c-0.3,1.6-1.3,1.4-2.4,1.4c-1.2,0.1-1.9-0.2-2.1-1.5c-0.7-3.3-1.6-6.5-2.8-9.7c0,3.6,0,7.2,0,11
			c-1.4,0-2.6,0-4,0c0-5.3,0-10.7,0-16.2c1.9,0,3.7-0.1,5.6,0.1c0.4,0,1,0.7,1.1,1.2c0.7,2.3,1.2,4.6,1.8,6.9
			c0.1,0.4,0.3,0.8,0.8,1.2c0.7-2.6,1.4-5.2,2-7.8c0.3-1.2,0.7-1.6,1.9-1.5c1.5,0.1,3.1,0,4.8,0
			C374.8,258.4,374.8,263.7,374.8,269.3z"/>
		<path class="st7" d="M442.7,261.1c0,2.7,0,5.3,0,8.3c-1.3,0-2.5,0.1-3.7-0.1c-0.4-0.1-1-0.8-1-1.2c-0.1-4.6-0.1-9.2,0-13.8
			c0-0.4,0.7-1.1,1.2-1.2c2.2-0.4,4,0.1,5.2,2.4c1.1,2.2,2.7,4.1,4.5,6c0-2.7,0-5.4,0-8.3c1.7,0,3.2,0,4.8,0c0,5.3,0,10.6,0,15.9
			c-3.2,1-4.6,0.5-6.4-2.1c-1.4-2-2.8-4-4.2-6.1C442.9,261,442.8,261,442.7,261.1z"/>
		<path class="st7" d="M345.1,252.7c5.5,0,8.6,3,8.6,8.3c0,5.5-3.1,8.6-8.5,8.6c-5.5,0-8.6-3.1-8.6-8.6
			C336.6,255.8,339.7,252.7,345.1,252.7z M348.7,261.1c-0.1-0.7-0.1-1.5-0.3-2.3c-0.4-1.5-1.6-2.3-3.1-2.4c-1.5-0.1-3,0.6-3.2,2.2
			c-0.3,1.8-0.3,3.7,0,5.4c0.3,1.5,1.7,2.1,3.3,2.1c1.6-0.1,2.6-0.9,3-2.5C348.6,262.8,348.6,261.9,348.7,261.1z"/>
		<path class="st7" d="M418.3,269.4c0.3-0.9,0.5-1.6,0.8-2.3c1.6-4.2,3.2-8.3,4.7-12.5c0.4-1.1,0.9-1.6,2.1-1.6c3.9,0,3.9,0,5.3,3.7
			c1.6,4.2,3.1,8.3,4.8,12.8c-1.4,0-2.5-0.1-3.6,0c-1.1,0.1-1.7-0.3-2-1.4c-0.2-0.5-1.1-1.1-1.7-1.2c-0.8-0.2-1.8,0-2.7-0.1
			c-1.2-0.1-2.1,0.1-2.4,1.6c-0.1,0.5-0.9,1-1.4,1.1C421,269.5,419.8,269.4,418.3,269.4z M427.3,257.8c-0.2,0-0.3,0-0.5-0.1
			c-0.5,1.7-1.1,3.5-1.6,5.4c1.3,0,2.4,0,3.7,0C428.3,261.2,427.8,259.5,427.3,257.8z"/>
		<path class="st7" d="M330.4,262.9c1.4,0.4,2.7,0.8,4,1.2c-0.8,4.1-3.8,6-8.6,5.6c-4.6-0.4-7.3-3.6-7.3-8.5c0-4.8,2.4-7.8,6.7-8.4
			c4.9-0.6,8.1,1,9,4.9c-0.8,0.2-1.6,0.3-2.4,0.6c-1,0.4-1.6,0.2-2.4-0.7c-0.6-0.7-2.1-1.3-3-1c-1,0.3-2.1,1.5-2.5,2.5
			c-0.4,1.1-0.2,2.5-0.1,3.8c0.1,1.7,0.9,2.8,2.6,3.1c1.7,0.3,2.9-0.4,3.5-2C330,263.7,330.2,263.3,330.4,262.9z"/>
		<path class="st7" d="M383.3,269.3c-1.5,0-3,0-4.6,0c0-5.3,0-10.7,0-16.1c3.4,0,6.7-0.2,10.1,0.1c2.7,0.3,3.9,2.3,3.7,5.2
			c-0.2,2.8-1.8,4.5-4.6,4.8c-1.4,0.2-3.4-0.2-4.1,0.6c-0.7,0.9-0.3,2.8-0.3,4.3C383.4,268.4,383.3,268.8,383.3,269.3z M383.3,256.4
			c0.2,1.2,0.1,2.6,0.7,3.4c0.3,0.4,2,0,2.9-0.4c0.4-0.2,0.7-1.4,0.4-2C386.6,255.7,385.1,256.3,383.3,256.4z"/>
		<path class="st7" d="M286.7,272.6c-5.7,1.8-11.2,3.5-16.7,5.3c-0.1-0.1-0.2-0.2-0.3-0.3c3.6-5.9,7.3-11.7,11.1-18
			C282.8,264.1,284.7,268.2,286.7,272.6z"/>
		<path class="st7" d="M461.4,257c-0.9-0.1-1.6-0.1-2.2-0.1c-3.4,0-3.5-0.1-2.8-3.8c4.9,0,9.9,0,15,0c-0.3,1.3,1,3-0.8,3.7
			c-1.2,0.4-2.6,0.1-4.3,0.1c0,2.3,0,4.3,0,6.3c0,1.1,0,2.2,0,3.3c0,2.8-1.5,3.9-4.1,2.9c-0.4-0.2-0.7-1.1-0.7-1.7
			C461.3,264.1,461.4,260.7,461.4,257z"/>
		<path class="st7" d="M395.5,253c1.6,0,3,0,4.7,0c0,4.1,0,8.2,0,12.5c2.8,0,5.3,0,8,0c0,1.3,0,2.5,0,3.7c-4.1,0-8.3,0-12.7,0
			C395.5,263.9,395.5,258.5,395.5,253z"/>
		<path class="st7" d="M416,253c0,5.6,0,10.8,0,16.4c-1.4,0-2.8,0.1-4.1-0.1c-0.3,0-0.8-0.8-0.8-1.2c-0.1-4.6-0.1-9.2,0-13.8
			c0-0.4,0.7-1.2,1.2-1.2C413.4,252.8,414.6,253,416,253z"/>
	</g>
</g>
</svg>
