<?xml version="1.0" encoding="iso-8859-1"?>
<!-- Generator: Adobe Illustrator 19.0.0, SVG Export Plug-In . SVG Version: 6.00 Build 0)  -->
<svg xmlns="http://www.w3.org/2000/svg" xmlns:xlink="http://www.w3.org/1999/xlink" version="1.1" id="Capa_1" x="0px" y="0px" viewBox="0 0 512 512" style="enable-background:new 0 0 512 512;" xml:space="preserve" width="512px" height="512px">
<g>
	<g>
		<rect x="352" y="64" width="96" height="96" fill="#fb4b38"/>
	</g>
</g>
<g>
	<g>
		<path d="M496,0H304c-8.832,0-16,7.168-16,16v192c0,8.832,7.168,16,16,16h192c8.832,0,16-7.168,16-16V16C512,7.168,504.832,0,496,0    z M480,192H320V32h160V192z" fill="#fb4b38"/>
	</g>
</g>
<g>
	<g>
		<rect x="64" y="64" width="96" height="96" fill="#fb4b38"/>
	</g>
</g>
<g>
	<g>
		<path d="M208,0H16C7.168,0,0,7.168,0,16v192c0,8.832,7.168,16,16,16h192c8.832,0,16-7.168,16-16V16C224,7.168,216.832,0,208,0z     M192,192H32V32h160V192z" fill="#fb4b38"/>
	</g>
</g>
<g>
	<g>
		<rect x="64" y="352" width="96" height="96" fill="#fb4b38"/>
	</g>
</g>
<g>
	<g>
		<path d="M208,288H16c-8.832,0-16,7.168-16,16v192c0,8.832,7.168,16,16,16h192c8.832,0,16-7.168,16-16V304    C224,295.168,216.832,288,208,288z M192,480H32V320h160V480z" fill="#fb4b38"/>
	</g>
</g>
<g>
	<g>
		<path d="M400,416h-16v-32h-32v32h-16c-8.832,0-16,7.168-16,16v80h32v-64h32v64h32v-80C416,423.168,408.832,416,400,416z" fill="#fb4b38"/>
	</g>
</g>
<g>
	<g>
		<path d="M432,288c-8.832,0-16,7.168-16,16v80h32v-64h64v-32H432z" fill="#fb4b38"/>
	</g>
</g>
<g>
	<g>
		<path d="M304,288c-8.832,0-16,7.168-16,16v80h32v-64h64v-32H304z" fill="#fb4b38"/>
	</g>
</g>
<g>
	<g>
		<rect x="480" y="384" width="32" height="128" fill="#fb4b38"/>
	</g>
</g>
<g>
</g>
<g>
</g>
<g>
</g>
<g>
</g>
<g>
</g>
<g>
</g>
<g>
</g>
<g>
</g>
<g>
</g>
<g>
</g>
<g>
</g>
<g>
</g>
<g>
</g>
<g>
</g>
<g>
</g>
</svg>
