<?xml version="1.0" encoding="utf-8"?>
<!-- Generator: Adobe Illustrator 22.1.0, SVG Export Plug-In . SVG Version: 6.00 Build 0)  -->
<svg version="1.1" id="Capa_1" xmlns="http://www.w3.org/2000/svg" xmlns:xlink="http://www.w3.org/1999/xlink" x="0px" y="0px"
	 viewBox="0 0 391 473" style="enable-background:new 0 0 391 473;" xml:space="preserve">
<style type="text/css">
	.st0{fill:none;stroke:#000333;stroke-width:30;stroke-linecap:round;stroke-miterlimit:10;}
</style>
<circle class="st0" cx="127.2" cy="144.9" r="90.8"/>
<path class="st0" d="M235.3,453.1H19.1v-78.9c0-59.7,48.4-108.1,108.1-108.1l0,0c59.7,0,108.1,48.4,108.1,108.1L235.3,453.1
	L235.3,453.1z"/>
<g>
	<path class="st0" d="M218.3,145.6c0,12.9-2.7,25.2-7.5,36.3c14.9,10.6,33,16.8,52.7,16.8c50.2,0,90.8-40.7,90.8-90.8
		S313.6,17,263.4,17c-37.3,0-69.3,22.5-83.3,54.6C203.2,88,218.3,115,218.3,145.6z"/>
	<path class="st0" d="M371.6,337.1c0-59.7-48.4-108.1-108.1-108.1l0,0c-37.5,0-70.5,19.1-89.9,48c36.7,17.3,62.1,54.6,62.1,97.9V416
		h136L371.6,337.1L371.6,337.1z"/>
</g>
</svg>
