<?xml version="1.0" encoding="utf-8"?>
<!-- Generator: Adobe Illustrator 22.1.0, SVG Export Plug-In . SVG Version: 6.00 Build 0)  -->
<svg version="1.1" id="Capa_1" xmlns="http://www.w3.org/2000/svg" xmlns:xlink="http://www.w3.org/1999/xlink" x="0px" y="0px"
	 viewBox="0 0 395.8 515.3" style="enable-background:new 0 0 395.8 515.3;" xml:space="preserve">
<style type="text/css">
	.st0{fill:none;stroke:#000333;stroke-width:30;stroke-linecap:round;stroke-miterlimit:10;}
	.st1{fill:none;stroke:#000333;stroke-width:30;stroke-linecap:round;stroke-linejoin:round;stroke-miterlimit:10;}
</style>
<circle class="st0" cx="198.4" cy="184.2" r="90.8"/>
<path class="st0" d="M306.5,492.4H90.2v-78.9c0-59.7,48.4-108.1,108.1-108.1l0,0c59.7,0,108.1,48.4,108.1,108.1L306.5,492.4z"/>
<path class="st0" d="M67.6,166.2v-5.9c0-61.7,50-111.8,111.8-111.8h39c61.7,0,111.8,50,111.8,111.8v5.9"/>
<path class="st1" d="M338.5,239.6h-7.7v-88.5h7.7c17.2,0,31.1,19.7,31.1,44.2l0,0C369.6,219.8,355.7,239.6,338.5,239.6z"/>
<path class="st1" d="M59.9,151.1h7.7v85.3h-7.7c-17.2,0-31.1-19-31.1-42.6l0,0C28.8,170.3,42.7,151.1,59.9,151.1z"/>
</svg>
