<?xml version="1.0" encoding="utf-8"?>
<!-- Generator: Adobe Illustrator 21.0.0, SVG Export Plug-In . SVG Version: 6.00 Build 0)  -->
<svg version="1.1" id="Layer_1" xmlns="http://www.w3.org/2000/svg" xmlns:xlink="http://www.w3.org/1999/xlink" x="0px" y="0px"
	 viewBox="0 0 512 512" style="enable-background:new 0 0 512 512;" xml:space="preserve">
<style type="text/css">
	.st0{fill:#636363;}
</style>
<g>
	<g>
		<path class="st0" d="M425.3,51.4h-91.5V16.7c0-9.2-7.5-16.7-16.7-16.7H194.9c-9.2,0-16.7,7.5-16.7,16.7v34.7H86.7
			c-9.2,0-16.7,7.5-16.7,16.7v51.4c0,9.2,7.5,16.7,16.7,16.7h5.1L107,496c0.4,8.9,7.7,16,16.7,16h264.6c8.9,0,16.3-7.1,16.7-16
			l15.3-359.9h5.1c9.2,0,16.7-7.5,16.7-16.7V68.1C442,58.8,434.5,51.4,425.3,51.4z M211.6,33.4h88.9v18h-88.9V33.4z M372.3,478.6
			H139.7l-14.5-342.5h261.6L372.3,478.6z M408.6,102.7c-15.2,0-296.1,0-305.2,0v-18h305.2V102.7z"/>
	</g>
</g>
<g>
	<g>
		<path class="st0" d="M188.8,187.3c-9.2,0-16.7,7.5-16.7,16.7v206.7c0,9.2,7.5,16.7,16.7,16.7c9.2,0,16.7-7.5,16.7-16.7V204
			C205.5,194.8,198.1,187.3,188.8,187.3z"/>
	</g>
</g>
<g>
	<g>
		<path class="st0" d="M256,187.3c-9.2,0-16.7,7.5-16.7,16.7v206.7c0,9.2,7.5,16.7,16.7,16.7c9.2,0,16.7-7.5,16.7-16.7V204
			C272.7,194.8,265.2,187.3,256,187.3z"/>
	</g>
</g>
<g>
	<g>
		<path class="st0" d="M323.2,187.3c-9.2,0-16.7,7.5-16.7,16.7v206.7c0,9.2,7.5,16.7,16.7,16.7s16.7-7.5,16.7-16.7V204
			C339.9,194.8,332.4,187.3,323.2,187.3z"/>
	</g>
</g>
</svg>
