<?xml version="1.0" encoding="utf-8"?>
<!-- Generator: Adobe Illustrator 22.1.0, SVG Export Plug-In . SVG Version: 6.00 Build 0)  -->
<svg version="1.1" id="Capa_1" xmlns="http://www.w3.org/2000/svg" xmlns:xlink="http://www.w3.org/1999/xlink" x="0px" y="0px"
	 viewBox="0 0 450 611" style="enable-background:new 0 0 450 611;" xml:space="preserve">
<style type="text/css">
	.st0{display:none;}
	.st1{display:inline;fill:none;stroke:#000333;stroke-width:10;stroke-miterlimit:10;}
	.st2{display:inline;fill:none;stroke:#000333;stroke-width:10;stroke-linecap:round;stroke-miterlimit:10;}
	.st3{fill:none;stroke:#000333;stroke-width:30;stroke-linecap:round;stroke-linejoin:round;stroke-miterlimit:10;}
</style>
<g class="st0">
	<path class="st1" d="M533.4,506.5h-651.2c-22.9,0-41.4-18.6-41.4-41.4V109.3c0-22.9,18.6-41.4,41.4-41.4h651.2
		c22.9,0,41.4,18.6,41.4,41.4v355.8C574.9,488,556.3,506.5,533.4,506.5z"/>
	<line class="st1" x1="-159.2" y1="459.1" x2="574.9" y2="459.1"/>
	<line class="st2" x1="103.3" y1="588.2" x2="312.4" y2="588.2"/>
	<path class="st1" d="M207.8,209.6"/>
	<polyline class="st2" points="207.8,588.2 207.8,584.6 207.8,506.5 	"/>
</g>
<g>
	<polygon class="st3" points="327.3,197.1 376.1,197.1 376.1,26 27.5,26 27.5,586.6 376.1,586.6 327.3,529.9 	"/>
	<polyline class="st3" points="376.1,586.6 424.9,529.9 424.9,197.1 376.1,197.1 	"/>
	<polyline class="st3" points="376.1,197.1 327.3,197.1 327.3,529.9 376.1,586.6 	"/>
</g>
</svg>
