<?xml version="1.0" encoding="utf-8"?>
<!-- Generator: Adobe Illustrator 22.1.0, SVG Export Plug-In . SVG Version: 6.00 Build 0)  -->
<svg version="1.1" id="Capa_1" xmlns="http://www.w3.org/2000/svg" xmlns:xlink="http://www.w3.org/1999/xlink" x="0px" y="0px"
	 viewBox="0 0 253.1 379.1" style="enable-background:new 0 0 253.1 379.1;" xml:space="preserve">
<style type="text/css">
	.st0{fill:none;stroke:#000333;stroke-width:3;stroke-linecap:round;stroke-linejoin:round;stroke-miterlimit:10;}
	.st1{fill:#000333;}
	.st2{fill:url(#SVGID_1_);}
	.st3{fill:#FFFFFF;}
</style>
<g>
	<path class="st0" d="M28.4,120.3"/>
</g>
<g>
	<path class="st1" d="M43.5,147.3c24.4,0,24.4-37.9,0-37.9C19.2,109.4,19.1,147.3,43.5,147.3L43.5,147.3z"/>
</g>
<g>
	
		<linearGradient id="SVGID_1_" gradientUnits="userSpaceOnUse" x1="243.9487" y1="493.6303" x2="-9.0134" y2="493.6303" gradientTransform="matrix(1 0 0 1 0 -306)">
		<stop  offset="0" style="stop-color:#F26567"/>
		<stop  offset="1" style="stop-color:#F6A054"/>
	</linearGradient>
	<path class="st2" d="M129.5,5.6L129.5,5.6c0,0-48,0-65.4,0l0,0C31.4,5.6,4.9,32.1,4.9,64.9v245.6c0,32.7,26.5,59.2,59.2,59.2l0,0
		c32.7,0,59.2-26.5,59.2-59.2v-63.6c1.1,0,2.1,0,3.2,0c66.7,0,120.6-53.9,120.6-120.6C246.9,60.6,194.7,7.3,129.5,5.6z"/>
</g>
<circle class="st3" cx="40.3" cy="213.2" r="20.9"/>
<circle class="st3" cx="180.9" cy="136.1" r="18.9"/>
<circle class="st3" cx="62.7" cy="78.8" r="18.9"/>
<g>
	<polygon class="st3" points="41.5,214.6 39.7,211.4 178.9,136.4 61.5,79.6 63.1,76.2 187.1,136.3 	"/>
</g>
</svg>
