<?xml version="1.0" encoding="utf-8"?>
<!-- Generator: Adobe Illustrator 21.0.0, SVG Export Plug-In . SVG Version: 6.00 Build 0)  -->
<svg version="1.1" id="Capa_1" xmlns="http://www.w3.org/2000/svg" xmlns:xlink="http://www.w3.org/1999/xlink" x="0px" y="0px"
	 viewBox="0 0 512 512" style="enable-background:new 0 0 512 512;" xml:space="preserve">
<style type="text/css">
	.st0{fill:url(#SVGID_1_);}
	.st1{fill:url(#SVGID_2_);}
</style>
<g>
	<g>
		<linearGradient id="SVGID_1_" gradientUnits="userSpaceOnUse" x1="96" y1="256" x2="416.0001" y2="256">
			<stop  offset="0" style="stop-color:#FD643E"/>
			<stop  offset="0.7034" style="stop-color:#F84E39"/>
			<stop  offset="1" style="stop-color:#F54336"/>
		</linearGradient>
		<path class="st0" d="M294.7,129.7c19.2-23.1,32.1-74.5,37.7-99.9l4.2-18.8l-70.1,30.2c-6.3,2.1-12.5,1-17.8-2.1
			c-11.5-7.3-25.1-8.3-37.6-3.1l-37.6,16.7c-8.4,4.2-14.6,11.5-16.7,20.9c-1,9.4,1,18.8,7.3,26.1c11.7,12.9,30.4,25.8,44.1,34.5
			C141.8,169.3,96,271,96,341.5C96,429.1,168.2,501,256,501c88.9,0,160-71.9,160-159.5C416,267.7,365.8,159.9,294.7,129.7
			L294.7,129.7z M179.7,87.1c-2.1-2.1-3.1-5.2-2.1-8.3c0-2.1,2.1-5.2,5.2-6.3l37.6-16.7c5.2-3.1,12.5-2.1,17.8,1
			c10.5,7.3,24.1,8.3,36.6,3.1l33.5-14.6c-10.5,40.7-25.1,75.1-33.5,76.1v1.9c-6.2-1.3-12.4-1.9-18.8-1.9c-8.6,0-17.1,1.2-25.3,3.5
			C219.5,118.6,193.5,102.6,179.7,87.1L179.7,87.1z M256,481.2c-77.4,0-140.1-62.6-140.1-139.7S179.7,141.3,256,141.3
			s140.1,123,140.1,200.2C396.1,418.6,333.4,481.2,256,481.2z"/>
		<linearGradient id="SVGID_2_" gradientUnits="userSpaceOnUse" x1="202.8" y1="310.7" x2="310.5" y2="310.7">
			<stop  offset="0" style="stop-color:#FD643E"/>
			<stop  offset="0.7034" style="stop-color:#F84E39"/>
			<stop  offset="1" style="stop-color:#F54336"/>
		</linearGradient>
		<path class="st1" d="M299.9,312.3c-6.3-6.3-17.8-11.5-33.5-14.6h-1v-38.6c9.4,1,19.9,5.2,28.2,11.5l12.5-18.8
			c-13.6-8.3-27.2-13.6-41.8-14.6v-10.4h-12.5v10.4c-12.5,1-23,5.2-31.4,12.5s-12.5,16.7-12.5,28.1s3.1,19.8,10.5,26.1
			c7.3,6.3,18.8,11.5,33.5,14.6v39.6c-11.5-2.1-23-8.3-34.5-17.7l-14.6,17.7c14.6,12.5,30.3,19.8,49.2,21.9v14.6h13.6V380
			c13.6-1,24.1-5.2,32.4-12.5s12.5-16.7,12.5-28.1C310.4,326.9,307.2,318.6,299.9,312.3L299.9,312.3z M252.9,294.6
			c-8.4-2.1-12.5-4.2-15.7-7.3c-3.1-2.1-4.2-6.3-4.2-10.4c0-5.2,2.1-8.3,5.2-11.5c3.1-3.1,7.3-5.2,14.6-5.2L252.9,294.6L252.9,294.6
			z M280.2,353c-4.2,3.1-8.4,5.2-15.7,6.3v-36.5c8.4,2.1,13.6,4.2,16.7,7.3c3.1,3.1,4.2,7.3,4.2,11.5
			C285.4,345.7,284.3,349.8,280.2,353L280.2,353z"/>
	</g>
</g>
</svg>
