<?xml version="1.0" encoding="utf-8"?>
<!-- Generator: Adobe Illustrator 22.1.0, SVG Export Plug-In . SVG Version: 6.00 Build 0)  -->
<svg version="1.1" id="Capa_1" xmlns="http://www.w3.org/2000/svg" xmlns:xlink="http://www.w3.org/1999/xlink" x="0px" y="0px"
	 viewBox="0 0 538 465" style="enable-background:new 0 0 538 465;" xml:space="preserve">
<style type="text/css">
	.st0{fill:none;stroke:#000333;stroke-width:30;stroke-linecap:round;stroke-linejoin:round;stroke-miterlimit:10;}
</style>
<circle class="st0" cx="187" cy="271.2" r="54.7"/>
<g>
	<path class="st0" d="M140.4,138.3L140.4,138.3c-5,1.7-9.9,3.7-14.7,6l0,0C130.6,142.1,135.4,140,140.4,138.3z"/>
	<path class="st0" d="M248.3,144.7l-0.5-0.5c-4.7-2.2-9.4-4.2-14.4-6v0.2C238.5,140.2,243.4,142.3,248.3,144.7z"/>
	<path class="st0" d="M54.1,224.7c1.7-5,3.7-9.8,6-14.5l-0.1-0.1c-2.2,4.7-4.2,9.4-5.9,14.3l0,0V224.7z"/>
	<path class="st0" d="M352.1,240.3"/>
	<path class="st0" d="M267.4,124.6l-19.6,19.6l0,0l0.5,0.5c-4.8-2.4-9.8-4.4-14.8-6.2v0.4v-0.4v-0.2V96.7h-93v41.6v0.1v0.6v-0.6
		c-5,1.7-9.8,3.7-14.6,6l0.5,0.5l-0.5-0.5l0,0L96.5,115l-65.8,65.8l29.4,29.4l0.1,0.1l0.4,0.4l-0.4-0.4c-2.2,4.7-4.2,9.5-6,14.5
		v-0.3l0,0H12v93h42h0.2v-0.3v0.3H54c1.8,5,3.8,10,6.2,14.9l-0.2-0.2l-30,29.7l65.8,65.8l29.9-29.9l-0.2-0.2
		c4.9,2.4,9.9,4.4,14.9,6.2v-0.2h0.1h-0.1v0.2v42.1h93v-42.2l0,0h-0.1h0.1l0,0c4.8-1.7,9.6-3.7,14.2-5.9l0,0l29.9,29.9l65.8-65.8
		l-29.8-29.8l-0.1-0.1l0,0l0,0l0.1,0.1c2.4-5,4.5-10.1,6.3-15.3v0.7h42.3v-73"/>
	<path class="st0" d="M363.1,47.2L363.1,47.2c-3.7,1.3-7.4,2.8-10.9,4.5l0,0C355.7,50,359.4,48.5,363.1,47.2z"/>
	<path class="st0" d="M443.3,51.9l-0.3-0.3c-3.5-1.7-7-3.2-10.7-4.4v0.2C436,48.6,439.7,50.1,443.3,51.9z"/>
	<path class="st0" d="M298.9,111.5c1.3-3.7,2.8-7.3,4.4-10.8l-0.1-0.1c-1.7,3.5-3.1,7-4.4,10.6l0,0v0.3H298.9z"/>
	<path class="st0" d="M528,180.4v-69.2h-31.5v0.5c-1.3-3.9-2.9-7.6-4.6-11.3l0,0l-0.4-0.4l0.4,0.4l0,0l22.2-22.2l-48.9-48.9
		L443,51.5l0,0l0.3,0.3c-3.6-1.8-7.3-3.3-11-4.6v0.3v-0.3V47V16h-69.2v31v0.1v0.4v-0.4c-3.7,1.3-7.3,2.8-10.9,4.5l0.4,0.4l-0.4-0.4
		l0,0l-21.9-21.9l-48.9,48.9l21.9,21.9l0.1,0.1l0.3,0.3l-0.3-0.3c-1.7,3.5-3.2,7.1-4.4,10.8v-0.2l0,0h-31.4v13.3l10.3-10.3
		l65.8,65.8l-29.9,29.9c2.4,4.9,4.4,9.9,6.2,15.1v-0.7h42.3v20c0.3,0.1,0.6,0.2,1,0.3v-0.1l0,0l0,0v0.1V276h69.2v-31.4l0,0l0,0l0,0
		l0,0c3.6-1.3,7.1-2.7,10.6-4.4l0,0l22.2,22.2l48.9-48.9L492,191.3l-0.1-0.1l0,0l0,0l0.1,0.1c1.8-3.7,3.4-7.5,4.7-11.4v0.5
		L528,180.4L528,180.4z"/>
</g>
<circle class="st0" cx="397.7" cy="146.1" r="40.7"/>
</svg>
