<?xml version="1.0" encoding="utf-8"?>
<!-- Generator: Adobe Illustrator 21.0.2, SVG Export Plug-In . SVG Version: 6.00 Build 0)  -->
<svg version="1.1" id="Capa_1" xmlns="http://www.w3.org/2000/svg" xmlns:xlink="http://www.w3.org/1999/xlink" x="0px" y="0px"
	 viewBox="0 0 283 283" style="enable-background:new 0 0 283 283;" xml:space="preserve">
<style type="text/css">
	.st0{fill:url(#SVGID_1_);}
	.st1{fill:url(#SVGID_2_);}
</style>
<g>
	<linearGradient id="SVGID_1_" gradientUnits="userSpaceOnUse" x1="31.191" y1="211.6945" x2="251.835" y2="211.6945">
		<stop  offset="0" style="stop-color:#FF643E"/>
		<stop  offset="0.6961" style="stop-color:#F14336"/>
		<stop  offset="1" style="stop-color:#F14336"/>
	</linearGradient>
	<path class="st0" d="M212.5,159.4v-9.1c0-5.5-4.5-10-10-10H41.2c-5.5,0-10,4.5-10,10v37.4c0,31.3,16,59,40.3,75.3h-7
		c-5.5,0-10,4.5-10,10s4.5,10,10,10h114.8c5.5,0,10-4.5,10-10s-4.5-10-10-10h-7c8.4-5.6,15.8-12.6,21.9-20.7h16.2
		c22.9,0,41.5-18.6,41.5-41.5C251.8,178.7,234.4,160.5,212.5,159.4z M51.2,187.7v-27.4h141.3v27.4c0,39-31.7,70.6-70.6,70.6
		S51.2,226.7,51.2,187.7z M210.3,222.4h-4.7c4.4-10.7,6.9-22.4,6.9-34.6v-8.2c10.9,1.1,19.4,10.3,19.4,21.4
		C231.8,212.7,222.2,222.4,210.3,222.4z"/>
	<linearGradient id="SVGID_2_" gradientUnits="userSpaceOnUse" x1="61.822" y1="59.2555" x2="181.85" y2="59.2555">
		<stop  offset="0" style="stop-color:#FF643E"/>
		<stop  offset="0.6961" style="stop-color:#F14336"/>
		<stop  offset="1" style="stop-color:#F14336"/>
	</linearGradient>
	<path class="st1" d="M93.7,118.5c5.5,0,10-4.5,10-10c0-0.1,0-0.1,0-0.2c5.8,6.3,14.1,10.2,23.4,10.2c5.5,0,10-4.5,10-10
		c0-0.1,0-0.1,0-0.2c5.8,6.3,14.1,10.2,23.4,10.2c5.5,0,10-4.5,10-10s-4.5-10-10-10c-6.5,0-11.9-5.3-11.9-11.9c0-2.1,0.6-4.2,1.7-6
		l28.7-48.1c2-3.3,3-7.1,3-11c0-11.8-9.6-21.5-21.5-21.5c-5.5,0-10,4.5-10,10s4.5,10,10,10c0.8,0,1.5,0.7,1.5,1.5
		c0,0.3-0.1,0.5-0.2,0.8L133,70.4c-2.9,4.9-4.5,10.5-4.5,16.3c0,4.5,1,8.9,2.7,12.8c-1.3-0.6-2.7-0.9-4.2-0.9
		c-6.5,0-11.9-5.3-11.9-11.9c0-2.1,0.6-4.2,1.7-6l28.7-48.1c2-3.3,3-7.1,3-11C148.5,9.6,138.9,0,127,0c-5.5,0-10,4.5-10,10
		s4.5,10,10,10c0.8,0,1.5,0.7,1.5,1.5c0,0.3-0.1,0.5-0.2,0.8L99.6,70.4c-2.9,4.9-4.5,10.5-4.5,16.3c0,4.5,1,8.9,2.7,12.8
		c-1.3-0.6-2.7-0.9-4.2-0.9c-6.5,0-11.9-5.3-11.9-11.9c0-2.1,0.6-4.2,1.7-6l28.7-48.1c2-3.3,3-7.1,3-11C115.2,9.6,105.5,0,93.7,0
		c-5.5,0-10,4.5-10,10s4.5,10,10,10c0.8,0,1.5,0.7,1.5,1.5c0,0.3-0.1,0.5-0.2,0.8L66.3,70.4c-2.9,4.9-4.5,10.5-4.5,16.3
		C61.8,104.2,76.1,118.5,93.7,118.5z"/>
</g>
</svg>
