<?xml version="1.0" encoding="utf-8"?>
<!-- Generator: Adobe Illustrator 23.0.0, SVG Export Plug-In . SVG Version: 6.00 Build 0)  -->
<svg version="1.1" id="Capa_1" xmlns="http://www.w3.org/2000/svg" xmlns:xlink="http://www.w3.org/1999/xlink" x="0px" y="0px"
	 viewBox="0 0 170.7 241" style="enable-background:new 0 0 170.7 241;" xml:space="preserve">
<style type="text/css">
	.st0{fill:#BFBEBE;}
	.st1{fill:#FFFFFF;}
</style>
<g>
	<rect x="-0.3" class="st0" width="171.3" height="240.6"/>
	<g>
		<path class="st1" d="M141.8,60.1H32.5c-3,0-5.5-2.4-5.5-5.5s2.4-5.5,5.5-5.5h109.4c3,0,5.5,2.4,5.5,5.5S144.9,60.1,141.8,60.1z"/>
	</g>
	<g>
		<path class="st1" d="M141.8,96.1H32.5c-3,0-5.5-2.4-5.5-5.5c0-3,2.4-5.5,5.5-5.5h109.4c3,0,5.5,2.4,5.5,5.5
			C147.3,93.7,144.9,96.1,141.8,96.1z"/>
	</g>
	<g>
		<path class="st1" d="M141.8,132.1H32.5c-3,0-5.5-2.4-5.5-5.5c0-3,2.4-5.5,5.5-5.5h109.4c3,0,5.5,2.4,5.5,5.5
			C147.3,129.7,144.9,132.1,141.8,132.1z"/>
	</g>
	<g>
		<path class="st1" d="M141.8,204.1H32.5c-3,0-5.5-2.4-5.5-5.5c0-3,2.4-5.5,5.5-5.5h109.4c3,0,5.5,2.4,5.5,5.5
			C147.3,201.7,144.9,204.1,141.8,204.1z"/>
	</g>
	<g>
		<path class="st1" d="M141.8,168.1H32.5c-3,0-5.5-2.4-5.5-5.5c0-3,2.4-5.5,5.5-5.5h109.4c3,0,5.5,2.4,5.5,5.5
			C147.3,165.7,144.9,168.1,141.8,168.1z"/>
	</g>
</g>
</svg>
