<?xml version="1.0" encoding="utf-8"?>
<!-- Generator: Adobe Illustrator 23.0.0, SVG Export Plug-In . SVG Version: 6.00 Build 0)  -->
<svg version="1.1" id="Capa_1" xmlns="http://www.w3.org/2000/svg" xmlns:xlink="http://www.w3.org/1999/xlink" x="0px" y="0px"
	 viewBox="0 0 170.7 109" style="enable-background:new 0 0 170.7 109;" xml:space="preserve">
<style type="text/css">
	.st0{fill:#BFBEBE;}
	.st1{fill:#FFFFFF;}
</style>
<g>
	<path class="st0" d="M9.1,109.1h152.4c4.9,0,8.8-3.9,8.8-8.8V8.8c0-4.9-3.9-8.8-8.8-8.8H9.1C4.2,0,0.3,3.9,0.3,8.8v91.5
		C0.3,105.1,4.3,109.1,9.1,109.1z"/>
	<g>
		<path class="st1" d="M85.3,58.3c-0.7,0-1.3-0.2-1.9-0.5L8.5,13.4C6.7,12.3,6.1,10,7.2,8.2s3.4-2.4,5.2-1.3l72.9,43.2l70.4-43.2
			c1.8-1.1,4.1-0.5,5.2,1.3c1.1,1.8,0.5,4.1-1.3,5.2L87.3,57.7C86.7,58.1,86,58.3,85.3,58.3z"/>
	</g>
</g>
</svg>
