<?xml version="1.0" encoding="utf-8"?>
<!-- Generator: Adobe Illustrator 23.0.0, SVG Export Plug-In . SVG Version: 6.00 Build 0)  -->
<svg version="1.1" id="Capa_1" xmlns="http://www.w3.org/2000/svg" xmlns:xlink="http://www.w3.org/1999/xlink" x="0px" y="0px"
	 viewBox="0 0 139.7 141" style="enable-background:new 0 0 139.7 141;" xml:space="preserve">
<style type="text/css">
	.st0{fill:#BFBEBE;}
</style>
<g>
	<path class="st0" d="M119.5,20.5C132.7,33.7,140,51.3,140,70s-7.3,36.3-20.5,49.5S88.7,140,70,140s-36.3-7.3-49.5-20.5S0,88.7,0,70
		s7.3-36.3,20.5-49.5S51.3,0,70,0S106.3,7.3,119.5,20.5z M113.3,113.3c8.6-8.6,14.4-19.4,16.7-31c-1.8,2.7-3.6,3.7-4.7-2.4
		c-1.1-9.9-10.2-3.6-15.9-7.1c-6,4.1-19.5-7.9-17.2,5.6c3.5,6.1,19.1-8.1,11.4,4.7c-5,9-18.1,28.8-16.4,39.1
		c0.2,15-15.3,3.1-20.7-1.8c-3.6-10-1.2-27.4-10.7-32.3c-10.2-0.4-19-1.4-23-12.8c-2.4-8.2,2.5-20.4,11.3-22.2
		c12.8-8.1,17.4,9.4,29.4,9.8c3.7-3.9,13.9-5.2,14.8-9.5c-7.9-1.4,10-6.6-0.8-9.6c-5.9,0.7-9.8,6.2-6.6,10.8
		C69.4,57.3,69,37.9,57.9,44c-0.3,9.7-18.1,3.1-6.2,1.2c4.1-1.8-6.7-7-0.9-6c2.9-0.2,12.5-3.5,9.9-5.8c5.4-3.3,9.9,8,15.1-0.3
		c3.8-6.3-1.6-7.5-6.3-4.3c-2.7-3,4.7-9.5,11.3-12.3c2.2-0.9,4.3-1.4,5.8-1.3c3.3,3.8,9.4,4.5,9.7-0.5c-8.1-3.9-17.1-6-26.4-6
		c-13.3,0-26,4.2-36.5,12.1c2.8,1.3,4.4,2.9,1.7,5C33,32.1,24.5,40.5,16.9,39.3C13,46,10.4,53.5,9.3,61.2c6.3,2.1,7.8,6.2,6.4,7.6
		c-3.2,2.8-5.2,6.8-6.2,11.1c2.1,12.6,8,24.1,17.1,33.3c11.6,11.6,26.9,17.9,43.3,17.9C86.4,131.3,101.7,124.9,113.3,113.3z"/>
</g>
</svg>
