<?xml version="1.0" encoding="utf-8"?>
<!-- Generator: Adobe Illustrator 23.0.0, SVG Export Plug-In . SVG Version: 6.00 Build 0)  -->
<svg version="1.1" id="Capa_1" xmlns="http://www.w3.org/2000/svg" xmlns:xlink="http://www.w3.org/1999/xlink" x="0px" y="0px"
	 viewBox="0 0 139.7 128" style="enable-background:new 0 0 139.7 128;" xml:space="preserve">
<style type="text/css">
	.st0{fill:#BFBEBE;}
	.st1{fill:#FFFFFF;}
</style>
<g>
	<rect x="-0.3" class="st0" width="70.5" height="128"/>
	<rect x="11" y="10.1" class="st1" width="16.3" height="16.3"/>
	<rect x="39.8" y="10.1" class="st1" width="16.3" height="16.3"/>
	<rect x="11" y="37.8" class="st1" width="16.3" height="16.3"/>
	<rect x="39.8" y="37.8" class="st1" width="16.3" height="16.3"/>
	<rect x="11" y="65.5" class="st1" width="16.3" height="16.3"/>
	<rect x="39.8" y="65.5" class="st1" width="16.3" height="16.3"/>
	<rect x="11" y="93.2" class="st1" width="16.3" height="16.3"/>
	<rect x="39.8" y="93.2" class="st1" width="16.3" height="16.3"/>
</g>
<rect x="69.5" y="27.2" class="st0" width="70.5" height="100.9"/>
<rect x="80.8" y="37.8" class="st1" width="16.3" height="16.3"/>
<rect x="109.6" y="37.8" class="st1" width="16.3" height="16.3"/>
<rect x="80.8" y="65.5" class="st1" width="16.3" height="16.3"/>
<rect x="109.6" y="65.5" class="st1" width="16.3" height="16.3"/>
<rect x="80.8" y="93.2" class="st1" width="16.3" height="16.3"/>
<rect x="109.6" y="93.2" class="st1" width="16.3" height="16.3"/>
</svg>
