<?xml version="1.0" encoding="utf-8"?>
<!-- Generator: Adobe Illustrator 23.0.0, SVG Export Plug-In . SVG Version: 6.00 Build 0)  -->
<svg version="1.1" id="Capa_1" xmlns="http://www.w3.org/2000/svg" xmlns:xlink="http://www.w3.org/1999/xlink" x="0px" y="0px"
	 viewBox="0 0 113.7 204" style="enable-background:new 0 0 113.7 204;" xml:space="preserve">
<style type="text/css">
	.st0{fill:#BFBEBE;}
	.st1{fill:#FFFFFF;}
</style>
<g>
	<path class="st0" d="M106.4,203.8H7.6c-4.2,0-7.6-3.4-7.6-7.6V8.1c0-4.2,3.4-7.6,7.6-7.6h98.8c4.2,0,7.6,3.4,7.6,7.6v188.1
		C114,200.4,110.6,203.8,106.4,203.8z"/>
	<rect x="6.2" y="28.2" class="st1" width="101.7" height="147.9"/>
	<g>
		<path class="st1" d="M70.6,16.5H43.4c-0.8,0-1.4-0.6-1.4-1.4s0.6-1.4,1.4-1.4h27.1c0.8,0,1.4,0.6,1.4,1.4S71.3,16.5,70.6,16.5z"/>
	</g>
	<circle class="st1" cx="57" cy="189.1" r="7.9"/>
</g>
</svg>
