<?xml version="1.0" encoding="utf-8"?>
<!-- Generator: Adobe Illustrator 21.0.0, SVG Export Plug-In . SVG Version: 6.00 Build 0)  -->
<svg version="1.1" id="Capa_1" xmlns="http://www.w3.org/2000/svg" xmlns:xlink="http://www.w3.org/1999/xlink" x="0px" y="0px"
	 viewBox="0 0 30 30" style="enable-background:new 0 0 30 30;" xml:space="preserve">
<style type="text/css">
	.st0{fill:url(#SVGID_1_);}
	.st1{fill:url(#SVGID_2_);}
	.st2{display:none;}
	.st3{display:inline;fill:none;stroke:url(#SVGID_3_);stroke-width:1.6508;stroke-miterlimit:10;}
</style>
<g>
	<g>
		<linearGradient id="SVGID_1_" gradientUnits="userSpaceOnUse" x1="2.2851" y1="15.375" x2="27.5802" y2="15.375">
			<stop  offset="0" style="stop-color:#FF6439"/>
			<stop  offset="1" style="stop-color:#FA4336"/>
		</linearGradient>
		<path class="st0" d="M24.5,5.8H5.4c-1.7,0-3.1,1.4-3.1,3.1v13.1c0,1.7,1.4,3.1,3.1,3.1h19.1c1.7,0,3.1-1.4,3.1-3.1V8.8
			C27.6,7.1,26.2,5.8,24.5,5.8z M26.2,21.9c0,0.9-0.8,1.7-1.7,1.7H5.4c-0.9,0-1.7-0.8-1.7-1.7V8.8c0-0.9,0.8-1.7,1.7-1.7h19.1
			c0.9,0,1.7,0.8,1.7,1.7L26.2,21.9L26.2,21.9z"/>
		<linearGradient id="SVGID_2_" gradientUnits="userSpaceOnUse" x1="5.2031" y1="15.379" x2="24.6697" y2="15.379">
			<stop  offset="0" style="stop-color:#FF6439"/>
			<stop  offset="1" style="stop-color:#FA4336"/>
		</linearGradient>
		<path class="st1" d="M18.2,15.2l6.2-5.5c0.3-0.3,0.3-0.7,0.1-1c-0.3-0.3-0.7-0.3-1-0.1l-8.5,7.7l-1.7-1.5c0,0,0,0,0,0
			c0,0-0.1-0.1-0.1-0.1L6.4,8.6c-0.3-0.3-0.7-0.2-1,0.1C5.1,9,5.1,9.4,5.4,9.7l6.3,5.6l-6.2,5.8c-0.3,0.3-0.3,0.7,0,1
			c0.1,0.1,0.3,0.2,0.5,0.2c0.2,0,0.3-0.1,0.5-0.2l6.3-5.9l1.7,1.5c0.1,0.1,0.3,0.2,0.5,0.2s0.3-0.1,0.5-0.2l1.8-1.6l6.3,6
			c0.1,0.1,0.3,0.2,0.5,0.2c0.2,0,0.4-0.1,0.5-0.2c0.3-0.3,0.3-0.7,0-1L18.2,15.2z"/>
	</g>
</g>
<g class="st2">
	<linearGradient id="SVGID_3_" gradientUnits="userSpaceOnUse" x1="4.4165" y1="14.8734" x2="24.8254" y2="14.8734">
		<stop  offset="0" style="stop-color:#FF6439"/>
		<stop  offset="1" style="stop-color:#FA4336"/>
	</linearGradient>
	<path class="st3" d="M20.9,13.3V8.6c0-3.4-2.8-6.3-6.3-6.3c-3.4,0-6.3,2.8-6.3,6.3v4.7c-1.7,0-3.1,1.4-3.1,3.1v7.8
		c0,1.7,1.4,3.1,3.1,3.1h12.5c1.7,0,3.1-1.4,3.1-3.1v-7.8C24,14.7,22.6,13.3,20.9,13.3z M15.4,20.9v2.6c0,0.4-0.3,0.8-0.8,0.8
		c-0.4,0-0.8-0.3-0.8-0.8v-2.6c-0.5-0.3-0.8-0.8-0.8-1.3c0-0.9,0.7-1.6,1.6-1.6s1.6,0.7,1.6,1.6C16.2,20.1,15.9,20.6,15.4,20.9z
		 M17.7,13.3h-6.3V8.6c0-1.7,1.4-3.1,3.1-3.1c1.7,0,3.1,1.4,3.1,3.1L17.7,13.3L17.7,13.3z"/>
</g>
</svg>
