<?xml version="1.0" encoding="utf-8"?>
<!-- Generator: Adobe Illustrator 21.0.0, SVG Export Plug-In . SVG Version: 6.00 Build 0)  -->
<svg version="1.1" id="Capa_1" xmlns="http://www.w3.org/2000/svg" xmlns:xlink="http://www.w3.org/1999/xlink" x="0px" y="0px"
	 viewBox="0 0 512 512" style="enable-background:new 0 0 512 512;" xml:space="preserve">
<style type="text/css">
	.st0{fill:url(#SVGID_1_);}
	.st1{fill:url(#SVGID_2_);}
	.st2{fill:url(#SVGID_3_);}
	.st3{fill:url(#SVGID_4_);}
	.st4{fill:url(#SVGID_5_);}
	.st5{fill:url(#SVGID_6_);}
	.st6{fill:url(#SVGID_7_);}
	.st7{fill:url(#SVGID_8_);}
	.st8{fill:url(#SVGID_9_);}
	.st9{fill:url(#SVGID_10_);}
	.st10{fill:url(#SVGID_11_);}
	.st11{fill:url(#SVGID_12_);}
	.st12{fill:url(#SVGID_13_);}
	.st13{fill:url(#SVGID_14_);}
	.st14{fill:url(#SVGID_15_);}
	.st15{fill:url(#SVGID_16_);}
</style>
<g>
	<linearGradient id="SVGID_1_" gradientUnits="userSpaceOnUse" x1="98.1618" y1="334.9457" x2="127.3848" y2="334.9457">
		<stop  offset="0" style="stop-color:#FD643E"/>
		<stop  offset="0.7034" style="stop-color:#F84E39"/>
		<stop  offset="1" style="stop-color:#F54336"/>
	</linearGradient>
	<path class="st0" d="M112.8,307.7c-8.1,0-14.6,6.5-14.6,14.6v25.4c0,8.1,6.5,14.6,14.6,14.6s14.6-6.5,14.6-14.6v-25.4
		C127.4,314.2,120.8,307.7,112.8,307.7z"/>
	<linearGradient id="SVGID_2_" gradientUnits="userSpaceOnUse" x1="156.6098" y1="334.9457" x2="185.8327" y2="334.9457">
		<stop  offset="0" style="stop-color:#FD643E"/>
		<stop  offset="0.7034" style="stop-color:#F84E39"/>
		<stop  offset="1" style="stop-color:#F54336"/>
	</linearGradient>
	<path class="st1" d="M171.2,307.7c-8.1,0-14.6,6.5-14.6,14.6v25.4c0,8.1,6.5,14.6,14.6,14.6c8.1,0,14.6-6.5,14.6-14.6v-25.4
		C185.8,314.2,179.3,307.7,171.2,307.7z"/>
	<linearGradient id="SVGID_3_" gradientUnits="userSpaceOnUse" x1="215.0597" y1="334.9457" x2="244.2827" y2="334.9457">
		<stop  offset="0" style="stop-color:#FD643E"/>
		<stop  offset="0.7034" style="stop-color:#F84E39"/>
		<stop  offset="1" style="stop-color:#F54336"/>
	</linearGradient>
	<path class="st2" d="M229.7,307.7c-8.1,0-14.6,6.5-14.6,14.6v25.4c0,8.1,6.5,14.6,14.6,14.6c8.1,0,14.6-6.5,14.6-14.6v-25.4
		C244.3,314.2,237.7,307.7,229.7,307.7z"/>
	<linearGradient id="SVGID_4_" gradientUnits="userSpaceOnUse" x1="267.7173" y1="334.9457" x2="296.9402" y2="334.9457">
		<stop  offset="0" style="stop-color:#FD643E"/>
		<stop  offset="0.7034" style="stop-color:#F84E39"/>
		<stop  offset="1" style="stop-color:#F54336"/>
	</linearGradient>
	<path class="st3" d="M282.3,307.7c-8.1,0-14.6,6.5-14.6,14.6v25.4c0,8.1,6.5,14.6,14.6,14.6c8.1,0,14.6-6.5,14.6-14.6v-25.4
		C296.9,314.2,290.4,307.7,282.3,307.7z"/>
	<linearGradient id="SVGID_5_" gradientUnits="userSpaceOnUse" x1="326.1673" y1="334.9457" x2="355.3903" y2="334.9457">
		<stop  offset="0" style="stop-color:#FD643E"/>
		<stop  offset="0.7034" style="stop-color:#F84E39"/>
		<stop  offset="1" style="stop-color:#F54336"/>
	</linearGradient>
	<path class="st4" d="M340.8,307.7c-8.1,0-14.6,6.5-14.6,14.6v25.4c0,8.1,6.5,14.6,14.6,14.6c8.1,0,14.6-6.5,14.6-14.6v-25.4
		C355.4,314.2,348.8,307.7,340.8,307.7z"/>
	<linearGradient id="SVGID_6_" gradientUnits="userSpaceOnUse" x1="384.6152" y1="334.9457" x2="413.8381" y2="334.9457">
		<stop  offset="0" style="stop-color:#FD643E"/>
		<stop  offset="0.7034" style="stop-color:#F84E39"/>
		<stop  offset="1" style="stop-color:#F54336"/>
	</linearGradient>
	<path class="st5" d="M399.2,307.7c-8.1,0-14.6,6.5-14.6,14.6v25.4c0,8.1,6.5,14.6,14.6,14.6s14.6-6.5,14.6-14.6v-25.4
		C413.8,314.2,407.3,307.7,399.2,307.7z"/>
	<linearGradient id="SVGID_7_" gradientUnits="userSpaceOnUse" x1="98.1618" y1="253.3824" x2="127.3848" y2="253.3824">
		<stop  offset="0" style="stop-color:#FD643E"/>
		<stop  offset="0.7034" style="stop-color:#F84E39"/>
		<stop  offset="1" style="stop-color:#F54336"/>
	</linearGradient>
	<path class="st6" d="M112.8,226.1c-8.1,0-14.6,6.5-14.6,14.6v25.4c0,8.1,6.5,14.6,14.6,14.6s14.6-6.5,14.6-14.6v-25.4
		C127.4,232.6,120.8,226.1,112.8,226.1L112.8,226.1z"/>
	<linearGradient id="SVGID_8_" gradientUnits="userSpaceOnUse" x1="156.6098" y1="253.3824" x2="185.8327" y2="253.3824">
		<stop  offset="0" style="stop-color:#FD643E"/>
		<stop  offset="0.7034" style="stop-color:#F84E39"/>
		<stop  offset="1" style="stop-color:#F54336"/>
	</linearGradient>
	<path class="st7" d="M171.2,226.1c-8.1,0-14.6,6.5-14.6,14.6v25.4c0,8.1,6.5,14.6,14.6,14.6c8.1,0,14.6-6.5,14.6-14.6v-25.4
		C185.8,232.6,179.3,226.1,171.2,226.1L171.2,226.1z"/>
	<linearGradient id="SVGID_9_" gradientUnits="userSpaceOnUse" x1="215.0597" y1="253.3824" x2="244.2827" y2="253.3824">
		<stop  offset="0" style="stop-color:#FD643E"/>
		<stop  offset="0.7034" style="stop-color:#F84E39"/>
		<stop  offset="1" style="stop-color:#F54336"/>
	</linearGradient>
	<path class="st8" d="M229.7,226.1c-8.1,0-14.6,6.5-14.6,14.6v25.4c0,8.1,6.5,14.6,14.6,14.6c8.1,0,14.6-6.5,14.6-14.6v-25.4
		C244.3,232.6,237.7,226.1,229.7,226.1L229.7,226.1z"/>
	<linearGradient id="SVGID_10_" gradientUnits="userSpaceOnUse" x1="267.7173" y1="253.3824" x2="296.9402" y2="253.3824">
		<stop  offset="0" style="stop-color:#FD643E"/>
		<stop  offset="0.7034" style="stop-color:#F84E39"/>
		<stop  offset="1" style="stop-color:#F54336"/>
	</linearGradient>
	<path class="st9" d="M282.3,226.1c-8.1,0-14.6,6.5-14.6,14.6v25.4c0,8.1,6.5,14.6,14.6,14.6c8.1,0,14.6-6.5,14.6-14.6v-25.4
		C296.9,232.6,290.4,226.1,282.3,226.1L282.3,226.1z"/>
	<linearGradient id="SVGID_11_" gradientUnits="userSpaceOnUse" x1="326.1673" y1="253.3824" x2="355.3903" y2="253.3824">
		<stop  offset="0" style="stop-color:#FD643E"/>
		<stop  offset="0.7034" style="stop-color:#F84E39"/>
		<stop  offset="1" style="stop-color:#F54336"/>
	</linearGradient>
	<path class="st10" d="M340.8,226.1c-8.1,0-14.6,6.5-14.6,14.6v25.4c0,8.1,6.5,14.6,14.6,14.6c8.1,0,14.6-6.5,14.6-14.6v-25.4
		C355.4,232.6,348.8,226.1,340.8,226.1L340.8,226.1z"/>
	<linearGradient id="SVGID_12_" gradientUnits="userSpaceOnUse" x1="384.6152" y1="253.3824" x2="413.8381" y2="253.3824">
		<stop  offset="0" style="stop-color:#FD643E"/>
		<stop  offset="0.7034" style="stop-color:#F84E39"/>
		<stop  offset="1" style="stop-color:#F54336"/>
	</linearGradient>
	<path class="st11" d="M399.2,226.1c-8.1,0-14.6,6.5-14.6,14.6v25.4c0,8.1,6.5,14.6,14.6,14.6s14.6-6.5,14.6-14.6v-25.4
		C413.8,232.6,407.3,226.1,399.2,226.1L399.2,226.1z"/>
	<linearGradient id="SVGID_13_" gradientUnits="userSpaceOnUse" x1="182.9396" y1="104.1369" x2="212.1625" y2="104.1369">
		<stop  offset="0" style="stop-color:#FD643E"/>
		<stop  offset="0.7034" style="stop-color:#F84E39"/>
		<stop  offset="1" style="stop-color:#F54336"/>
	</linearGradient>
	<path class="st12" d="M197.6,76.8c-8.1,0-14.6,6.5-14.6,14.6v25.4c0,8.1,6.5,14.6,14.6,14.6c8.1,0,14.6-6.5,14.6-14.6V91.5
		C212.2,83.4,205.6,76.8,197.6,76.8z"/>
	<linearGradient id="SVGID_14_" gradientUnits="userSpaceOnUse" x1="241.3896" y1="104.1369" x2="270.6125" y2="104.1369">
		<stop  offset="0" style="stop-color:#FD643E"/>
		<stop  offset="0.7034" style="stop-color:#F84E39"/>
		<stop  offset="1" style="stop-color:#F54336"/>
	</linearGradient>
	<path class="st13" d="M256,76.8c-8.1,0-14.6,6.5-14.6,14.6v25.4c0,8.1,6.5,14.6,14.6,14.6c8.1,0,14.6-6.5,14.6-14.6V91.5
		C270.6,83.4,264.1,76.8,256,76.8z"/>
	<linearGradient id="SVGID_15_" gradientUnits="userSpaceOnUse" x1="299.8396" y1="104.1369" x2="329.0625" y2="104.1369">
		<stop  offset="0" style="stop-color:#FD643E"/>
		<stop  offset="0.7034" style="stop-color:#F84E39"/>
		<stop  offset="1" style="stop-color:#F54336"/>
	</linearGradient>
	<path class="st14" d="M314.5,76.8c-8.1,0-14.6,6.5-14.6,14.6v25.4c0,8.1,6.5,14.6,14.6,14.6c8.1,0,14.6-6.5,14.6-14.6V91.5
		C329.1,83.4,322.5,76.8,314.5,76.8z"/>
	<linearGradient id="SVGID_16_" gradientUnits="userSpaceOnUse" x1="3.118401e-05" y1="255.999" x2="512" y2="255.999">
		<stop  offset="0" style="stop-color:#FD643E"/>
		<stop  offset="0.7034" style="stop-color:#F84E39"/>
		<stop  offset="1" style="stop-color:#F54336"/>
	</linearGradient>
	<path class="st15" d="M497.4,155H389.2V29.5c0-8.1-6.5-14.6-14.6-14.6H137.4c-8.1,0-14.6,6.5-14.6,14.6V155H14.6
		C6.5,155,0,161.6,0,169.7s6.5,14.6,14.6,14.6h13.7v298.3c0,8.1,6.5,14.6,14.6,14.6H469c8.1,0,14.6-6.5,14.6-14.6V184.3h13.7
		c8.1,0,14.6-6.5,14.6-14.6S505.5,155,497.4,155L497.4,155z M328,467.9h-57.5c0.1-0.5,0.1-1.1,0.1-1.7v-22H328L328,467.9L328,467.9z
		 M241.5,467.9H184v-23.6h57.4v22C241.4,466.8,241.4,467.4,241.5,467.9L241.5,467.9z M357.2,467.9v-38.2c0-8.1-6.5-14.6-14.6-14.6
		H169.4c-8.1,0-14.6,6.5-14.6,14.6v38.2H57.6V184.3h396.9v283.7H357.2z M152,44.1H360v111H152L152,44.1L152,44.1z"/>
</g>
</svg>
