<?xml version="1.0" encoding="utf-8"?>
<!-- Generator: Adobe Illustrator 21.0.2, SVG Export Plug-In . SVG Version: 6.00 Build 0)  -->
<svg version="1.1" id="Capa_1" xmlns="http://www.w3.org/2000/svg" xmlns:xlink="http://www.w3.org/1999/xlink" x="0px" y="0px"
	 viewBox="0 0 142 142" style="enable-background:new 0 0 142 142;" xml:space="preserve">
<style type="text/css">
	.st0{opacity:0.79;}
	.st1{fill:url(#SVGID_1_);}
	.st2{fill:url(#SVGID_2_);}
	.st3{fill:#FFFFFF;}
</style>
<g class="st0">
	<g>
		<radialGradient id="SVGID_1_" cx="71" cy="71" r="63.5277" gradientUnits="userSpaceOnUse">
			<stop  offset="0" style="stop-color:#ED6442"/>
			<stop  offset="0.5048" style="stop-color:#EC6241"/>
			<stop  offset="0.6866" style="stop-color:#E85B3F"/>
			<stop  offset="0.8157" style="stop-color:#E0503C"/>
			<stop  offset="0.887" style="stop-color:#DA4539"/>
			<stop  offset="1" style="stop-color:#DA4539"/>
		</radialGradient>
		<path class="st1" d="M134.5,71c0,35.1-28.4,63.5-63.5,63.5c-35.1,0-63.5-28.4-63.5-63.5S35.9,7.5,71,7.5
			C106.1,7.5,134.5,35.9,134.5,71"/>
	</g>
</g>
<linearGradient id="SVGID_2_" gradientUnits="userSpaceOnUse" x1="7.4716" y1="71" x2="134.5284" y2="71">
	<stop  offset="0" style="stop-color:#ED6442"/>
	<stop  offset="0.309" style="stop-color:#E4553E"/>
	<stop  offset="0.7175" style="stop-color:#DA4539"/>
	<stop  offset="1" style="stop-color:#DA4539"/>
</linearGradient>
<path class="st2" d="M134.5,71c0,35.1-28.4,63.5-63.5,63.5c-35.1,0-63.5-28.4-63.5-63.5C7.5,35.9,35.9,7.5,71,7.5
	C106.1,7.5,134.5,35.9,134.5,71"/>
<path class="st3" d="M56.9,104.5c-1.1,0-2.2-0.4-3.1-1.2L31.1,81.9c-1.8-1.7-1.9-4.5-0.2-6.3c1.7-1.8,4.5-1.9,6.3-0.2l19,17.9
	C64.9,81,90.6,46.2,105.7,38c2.2-1.2,4.9-0.4,6,1.8c1.2,2.2,0.4,4.9-1.8,6c-13.4,7.3-40.2,43.4-49.5,56.7c-0.7,1.1-1.9,1.8-3.2,1.9
	C57.2,104.5,57,104.5,56.9,104.5"/>
</svg>
