<?xml version="1.0" encoding="utf-8"?>
<!-- Generator: Adobe Illustrator 21.0.0, SVG Export Plug-In . SVG Version: 6.00 Build 0)  -->
<svg version="1.1" id="Capa_1" xmlns="http://www.w3.org/2000/svg" xmlns:xlink="http://www.w3.org/1999/xlink" x="0px" y="0px"
	 viewBox="0 0 481.2 481.2" style="enable-background:new 0 0 481.2 481.2;" xml:space="preserve">
<style type="text/css">
	.st0{fill:url(#SVGID_1_);}
</style>
<g>
	<linearGradient id="SVGID_1_" gradientUnits="userSpaceOnUse" x1="0" y1="240.6" x2="481.2" y2="240.6">
		<stop  offset="0" style="stop-color:#FD643E"/>
		<stop  offset="0.7034" style="stop-color:#F84E39"/>
		<stop  offset="1" style="stop-color:#F54336"/>
	</linearGradient>
	<path class="st0" d="M403.9,97.8h-114c-27.7,0-50.3-22.5-50.3-50.3c0-7.5-6-13.5-13.5-13.5H77.3C34.7,34,0,68.8,0,111.4v258.5
		c0,42.6,34.7,77.3,77.3,77.3h326.6c42.6,0,77.3-34.7,77.3-77.3V175.1C481.2,132.4,446.5,97.8,403.9,97.8z M454.2,369.8
		c0,27.7-22.5,50.3-50.3,50.3H77.3C49.6,420,27,397.5,27,369.8V111.4c0-27.7,22.5-50.3,50.3-50.3h136.5
		c6.4,36.2,38.1,63.8,76.1,63.8h114c27.7,0,50.3,22.5,50.3,50.3L454.2,369.8L454.2,369.8z"/>
</g>
</svg>
