<?xml version="1.0" encoding="utf-8"?>
<!-- Generator: Adobe Illustrator 21.0.0, SVG Export Plug-In . SVG Version: 6.00 Build 0)  -->
<svg version="1.1" id="Capa_1" xmlns="http://www.w3.org/2000/svg" xmlns:xlink="http://www.w3.org/1999/xlink" x="0px" y="0px"
	 viewBox="0 0 40 40" style="enable-background:new 0 0 40 40;" xml:space="preserve">
<style type="text/css">
	.st0{fill:#FFFFFF;}
	.st1{display:none;}
	.st2{display:inline;fill:url(#SVGID_1_);}
	.st3{display:inline;fill:url(#SVGID_2_);}
	.st4{display:inline;}
	.st5{fill:url(#SVGID_3_);}
	.st6{fill:url(#SVGID_4_);}
	.st7{fill:url(#SVGID_5_);}
	.st8{fill:url(#SVGID_6_);}
	.st9{fill:url(#SVGID_7_);}
	.st10{display:inline;fill:url(#SVGID_8_);}
	.st11{display:inline;fill:#FFFFFF;}
	.st12{display:none;fill:url(#SVGID_9_);}
</style>
<g>
	<path class="st0" d="M26.7,17.6c2.8,0,5.1-2.7,5.1-5.9c0-4.5-2.3-5.9-5.1-5.9s-5.1,1.4-5.1,5.9C21.6,15,23.9,17.6,26.7,17.6z"/>
	<path class="st0" d="M37.9,26.4l-2.6-5.8c-0.1-0.3-0.3-0.5-0.6-0.6l-4-2.1c-0.1,0-0.2,0-0.3,0c-1.1,0.8-2.4,1.3-3.8,1.3
		s-2.7-0.4-3.8-1.3c-0.1-0.1-0.2-0.1-0.3,0L19,19.7c-0.4,1.3-1.1,3-2.1,3.7l-1,1.7c0.8-0.2,1.5-0.6,2.1-1.1c0.1-0.1,0.2-0.1,0.3,0
		l4,2.1c0.3,0.1,0.5,0.4,0.6,0.6l0.6,1.4h13.1c0.4,0,0.8-0.2,1.1-0.6C38,27.2,38.1,26.8,37.9,26.4z"/>
	<path class="st0" d="M18.5,20.3L18,20.6c-0.3,0.1-0.5,0.4-0.6,0.6l-1,2.2C17.4,22.7,18.2,21.6,18.5,20.3z"/>
	<path class="st0" d="M13.8,12.5c-2.8,0-5.1,1.4-5.1,5.9c0,3.3,2.3,5.9,5.1,5.9c1,0,1.9-0.3,2.7-0.9c1-0.7,1.7-1.8,2.1-3.1
		c0.2-0.6,0.3-1.2,0.3-1.9C18.8,13.9,16.6,12.5,13.8,12.5z"/>
	<path class="st0" d="M21.8,26.7l-4-2.1c-0.1,0-0.2,0-0.3,0c-0.6,0.5-1.4,0.8-2.1,1.1L14.9,27c-0.2,0.4-0.1,0.9,0.1,1.2
		c0.2,0.4,0.6,0.6,1.1,0.6h7l-0.6-1.4C22.3,27.1,22.1,26.8,21.8,26.7z"/>
	<path class="st0" d="M24.9,33.1L23,28.8l-0.6-1.4c-0.1-0.3-0.3-0.5-0.6-0.6l-4-2.1c-0.1,0-0.2,0-0.3,0c-0.6,0.5-1.4,0.8-2.1,1.1
		C14.8,26,14.3,26,13.7,26c-1.4,0-2.7-0.4-3.8-1.3c-0.1-0.1-0.2-0.1-0.3,0l-4,2.1c-0.3,0.1-0.5,0.4-0.6,0.6l-2.6,5.8
		c-0.2,0.4-0.1,0.9,0.1,1.2C2.7,34.8,3.1,35,3.6,35h20c0.4,0,0.8-0.2,1.1-0.6S25.1,33.5,24.9,33.1z"/>
</g>
<g class="st1">
	
		<linearGradient id="SVGID_1_" gradientUnits="userSpaceOnUse" x1="3.7629" y1="28.75" x2="36.1629" y2="28.75" gradientTransform="matrix(1 0 0 -1 0 42)">
		<stop  offset="0" style="stop-color:#FD643E"/>
		<stop  offset="0.7034" style="stop-color:#F84E39"/>
		<stop  offset="1" style="stop-color:#F54336"/>
	</linearGradient>
	<polygon class="st2" points="36.2,8.2 3.8,8.2 20,18.3 	"/>
	
		<linearGradient id="SVGID_2_" gradientUnits="userSpaceOnUse" x1="1.9" y1="21.8" x2="38" y2="21.8" gradientTransform="matrix(1 0 0 -1 0 42)">
		<stop  offset="0" style="stop-color:#FD643E"/>
		<stop  offset="0.7034" style="stop-color:#F84E39"/>
		<stop  offset="1" style="stop-color:#F54336"/>
	</linearGradient>
	<path class="st3" d="M20,20.6L1.9,9.4V30c0,0.5,0.4,1,1,1H37c0.5,0,1-0.4,1-1V9.4L20,20.6z"/>
</g>
<g class="st1">
	<g id="Settings_3_" class="st4">
		<g>
			
				<linearGradient id="SVGID_3_" gradientUnits="userSpaceOnUse" x1="1.1622" y1="28.7375" x2="21.9455" y2="28.7375" gradientTransform="matrix(1 0 0 -1 0 42)">
				<stop  offset="0" style="stop-color:#FD643E"/>
				<stop  offset="0.7034" style="stop-color:#F84E39"/>
				<stop  offset="1" style="stop-color:#F54336"/>
			</linearGradient>
			<path class="st5" d="M21.9,12.1c0-0.3-0.4-0.5-0.7-0.5c-1,0-1.8-0.6-2.2-1.4c-0.4-0.9-0.1-1.9,0.6-2.6c0.2-0.2,0.3-0.5,0.1-0.8
				c-0.5-0.6-1-1.2-1.6-1.7c-0.2-0.2-0.6-0.2-0.8,0.1c-0.6,0.7-1.7,0.9-2.6,0.6c-0.9-0.4-1.5-1.3-1.4-2.3c0-0.3-0.2-0.6-0.5-0.6
				c-0.8-0.1-1.6-0.1-2.3,0c-0.3,0-0.5,0.3-0.5,0.6c0,1-0.5,1.9-1.4,2.2C7.8,6,6.6,5.8,6,5.1c-0.3-0.2-0.6-0.2-0.9,0
				c-0.6,0.5-1.2,1-1.7,1.7C3.3,7,3.3,7.3,3.5,7.5c0.7,0.7,1,1.7,0.6,2.6c-0.4,0.9-1.2,1.4-2.3,1.4c-0.3,0-0.6,0.2-0.6,0.5
				c-0.1,0.8-0.1,1.6,0,2.4c0,0.3,0.4,0.5,0.7,0.5c0.9,0,1.8,0.5,2.1,1.4c0.4,0.9,0.1,1.9-0.6,2.6c-0.2,0.2-0.3,0.5-0.1,0.8
				c0.5,0.6,1,1.2,1.6,1.7c0.2,0.2,0.6,0.2,0.8-0.1c0.6-0.7,1.7-0.9,2.6-0.6c1,0.4,1.6,1.3,1.5,2.3c0,0.3,0.2,0.6,0.5,0.6
				c0.4,0,0.8,0.1,1.2,0.1s0.8,0,1.1-0.1c0.3,0,0.5-0.3,0.5-0.6c0-1,0.5-1.9,1.4-2.2c0.9-0.3,2-0.1,2.6,0.6c0.2,0.2,0.5,0.3,0.8,0.1
				c0.6-0.5,1.2-1,1.7-1.7c0.2-0.2,0.2-0.6-0.1-0.8c-0.7-0.7-1-1.7-0.6-2.6c0.4-0.8,1.2-1.4,2.1-1.4h0.1c0.3,0,0.6-0.2,0.6-0.5
				C22,13.7,22,12.9,21.9,12.1z M11.6,16.7c-1.9,0-3.5-1.6-3.5-3.5s1.6-3.5,3.5-3.5s3.5,1.6,3.5,3.5C15,15.2,13.5,16.7,11.6,16.7z"
				/>
		</g>
	</g>
	<g id="Settings_2_" class="st4">
		<g>
			
				<linearGradient id="SVGID_4_" gradientUnits="userSpaceOnUse" x1="18.225" y1="17.5375" x2="39.0083" y2="17.5375" gradientTransform="matrix(1 0 0 -1 0 42)">
				<stop  offset="0" style="stop-color:#FD643E"/>
				<stop  offset="0.7034" style="stop-color:#F84E39"/>
				<stop  offset="1" style="stop-color:#F54336"/>
			</linearGradient>
			<path class="st6" d="M38.9,23.3c0-0.3-0.4-0.5-0.7-0.5c-1,0-1.8-0.6-2.2-1.4c-0.4-0.9-0.1-1.9,0.6-2.6c0.2-0.2,0.3-0.5,0.1-0.8
				c-0.5-0.6-1-1.2-1.6-1.7c-0.2-0.2-0.6-0.2-0.8,0.1c-0.6,0.7-1.7,0.9-2.6,0.6c-0.9-0.4-1.5-1.3-1.4-2.3c0-0.3-0.2-0.6-0.5-0.6
				c-0.8-0.1-1.6-0.1-2.3,0c-0.3,0-0.5,0.3-0.5,0.6c0,1-0.5,1.9-1.4,2.2c-0.8,0.3-2,0.1-2.6-0.6c-0.2-0.2-0.5-0.3-0.8-0.1
				c-0.6,0.5-1.2,1-1.7,1.7c-0.2,0.2-0.2,0.6,0.1,0.8c0.7,0.7,1,1.7,0.6,2.6s-1.2,1.4-2.3,1.4c-0.3,0-0.6,0.2-0.6,0.5
				c-0.1,0.8-0.1,1.6,0,2.4c0,0.3,0.4,0.5,0.7,0.5c0.9,0,1.8,0.5,2.1,1.4c0.4,0.9,0.1,1.9-0.6,2.6c-0.2,0.2-0.3,0.5-0.1,0.8
				c0.5,0.6,1,1.2,1.6,1.7c0.2,0.2,0.6,0.2,0.8-0.1c0.6-0.7,1.7-0.9,2.6-0.6c0.9,0.4,1.5,1.3,1.4,2.3c0,0.3,0.2,0.6,0.5,0.6
				c0.4,0,0.8,0.1,1.2,0.1c0.4,0,0.8,0,1.1-0.1c0.3,0,0.5-0.3,0.5-0.6c0-1,0.5-1.9,1.4-2.2s2-0.1,2.6,0.6c0.2,0.2,0.5,0.3,0.8,0.1
				c0.6-0.5,1.2-1,1.7-1.7c0.2-0.2,0.2-0.6-0.1-0.8c-0.7-0.7-1-1.7-0.6-2.6c0.4-0.8,1.2-1.4,2.1-1.4h0.1c0.3,0,0.6-0.2,0.6-0.5
				C39,24.9,39,24.1,38.9,23.3z M28.6,27.9c-1.9,0-3.5-1.6-3.5-3.5s1.6-3.5,3.5-3.5s3.5,1.6,3.5,3.5C32.1,26.4,30.5,27.9,28.6,27.9z
				"/>
		</g>
	</g>
</g>
<g class="st1">
	<g class="st4">
		
			<linearGradient id="SVGID_5_" gradientUnits="userSpaceOnUse" x1="2.3858" y1="23.4" x2="12.3699" y2="23.4" gradientTransform="matrix(1 0 0 -1 0 42)">
			<stop  offset="0" style="stop-color:#FD643E"/>
			<stop  offset="0.7034" style="stop-color:#F84E39"/>
			<stop  offset="1" style="stop-color:#F54336"/>
		</linearGradient>
		<path class="st7" d="M11.8,19.2H2.9c-0.3,0-0.6-0.2-0.6-0.6c0-0.3,0.2-0.6,0.6-0.6h8.9c0.3,0,0.6,0.2,0.6,0.6
			C12.4,18.9,12.1,19.2,11.8,19.2z"/>
	</g>
	<g class="st4">
		
			<linearGradient id="SVGID_6_" gradientUnits="userSpaceOnUse" x1="4.8323" y1="20.8" x2="12.2903" y2="20.8" gradientTransform="matrix(1 0 0 -1 0 42)">
			<stop  offset="0" style="stop-color:#FD643E"/>
			<stop  offset="0.7034" style="stop-color:#F84E39"/>
			<stop  offset="1" style="stop-color:#F54336"/>
		</linearGradient>
		<path class="st8" d="M11.8,21.7H5.3c-0.3,0-0.5-0.2-0.5-0.5s0.2-0.5,0.5-0.5h6.5c0.3,0,0.5,0.2,0.5,0.5S12.1,21.7,11.8,21.7z"/>
	</g>
	<g class="st4">
		
			<linearGradient id="SVGID_7_" gradientUnits="userSpaceOnUse" x1="0" y1="18.2" x2="12.4" y2="18.2" gradientTransform="matrix(1 0 0 -1 0 42)">
			<stop  offset="0" style="stop-color:#FD643E"/>
			<stop  offset="0.7034" style="stop-color:#F84E39"/>
			<stop  offset="1" style="stop-color:#F54336"/>
		</linearGradient>
		<path class="st9" d="M11.9,24.3H0.5c-0.3,0-0.5-0.2-0.5-0.5s0.2-0.5,0.5-0.5h11.4c0.3,0,0.5,0.2,0.5,0.5
			C12.4,24.1,12.2,24.3,11.9,24.3z"/>
	</g>
	
		<linearGradient id="SVGID_8_" gradientUnits="userSpaceOnUse" x1="14.1" y1="22.35" x2="38.9" y2="22.35" gradientTransform="matrix(1 0 0 -1 0 42)">
		<stop  offset="0" style="stop-color:#FD643E"/>
		<stop  offset="0.7034" style="stop-color:#F84E39"/>
		<stop  offset="1" style="stop-color:#F54336"/>
	</linearGradient>
	<path class="st10" d="M38.9,16.1v-2.3c0-0.5-0.1-0.9-0.4-1.2v-0.1h-0.1c-0.2-0.3-0.6-0.5-0.9-0.5h-22c-0.8,0-1.4,0.8-1.4,1.7V16
		h0.4l0,0h-0.4v10.1c0,0.4,0.2,0.7,0.4,0.9v0.2h0.4c0.1,0,0.3,0.1,0.4,0.1h22.4c0.1,0,0.3,0,0.4-0.1h0.4v-0.3
		c0.2-0.2,0.4-0.5,0.4-0.9V16.1h-0.4l0,0H38.9z"/>
	<rect x="14.1" y="14.9" class="st11" width="24.9" height="2.8"/>
</g>
<linearGradient id="SVGID_9_" gradientUnits="userSpaceOnUse" x1="-120.9" y1="72.45" x2="137.6" y2="72.45" gradientTransform="matrix(1 0 0 -1 0 42)">
	<stop  offset="0" style="stop-color:#FD643E"/>
	<stop  offset="0.7034" style="stop-color:#F84E39"/>
	<stop  offset="1" style="stop-color:#F54336"/>
</linearGradient>
<rect x="-120.9" y="-53.3" class="st12" width="258.5" height="45.7"/>
</svg>
