<?xml version="1.0" encoding="utf-8"?>
<!-- Generator: Adobe Illustrator 21.0.0, SVG Export Plug-In . SVG Version: 6.00 Build 0)  -->
<svg version="1.1" id="Capa_1" xmlns="http://www.w3.org/2000/svg" xmlns:xlink="http://www.w3.org/1999/xlink" x="0px" y="0px"
	 viewBox="0 0 60 60" style="enable-background:new 0 0 60 60;" xml:space="preserve">
<style type="text/css">
	.st0{fill:url(#SVGID_1_);}
	.st1{fill:url(#SVGID_2_);}
	.st2{fill:url(#SVGID_3_);}
	.st3{fill:url(#SVGID_4_);}
	.st4{fill:url(#SVGID_5_);}
	.st5{fill:url(#SVGID_6_);}
	.st6{fill:url(#SVGID_7_);}
	.st7{fill:url(#SVGID_8_);}
	.st8{fill:url(#SVGID_9_);}
	.st9{fill:url(#SVGID_10_);}
	.st10{fill:url(#SVGID_11_);}
	.st11{fill:url(#SVGID_12_);}
	.st12{fill:url(#SVGID_13_);}
	.st13{fill:url(#SVGID_14_);}
	.st14{fill:url(#SVGID_15_);}
	.st15{fill:url(#SVGID_16_);}
</style>
<g>
	<linearGradient id="SVGID_1_" gradientUnits="userSpaceOnUse" x1="24.354" y1="19" x2="38.354" y2="19">
		<stop  offset="0" style="stop-color:#FD643E"/>
		<stop  offset="0.7034" style="stop-color:#F84E39"/>
		<stop  offset="1" style="stop-color:#F54336"/>
	</linearGradient>
	<path class="st0" d="M31.4,26c3.9,0,7-3.1,7-7s-3.1-7-7-7s-7,3.1-7,7S27.5,26,31.4,26z M31.4,14c2.8,0,5,2.2,5,5s-2.2,5-5,5
		s-5-2.2-5-5S28.6,14,31.4,14z"/>
	<linearGradient id="SVGID_2_" gradientUnits="userSpaceOnUse" x1="11.9996" y1="27.3785" x2="50.3498" y2="27.3785">
		<stop  offset="0" style="stop-color:#FD643E"/>
		<stop  offset="0.7034" style="stop-color:#F84E39"/>
		<stop  offset="1" style="stop-color:#F54336"/>
	</linearGradient>
	<path class="st1" d="M31.2,54.8l15.3-22.2c5.8-7.7,4.9-20.3-1.8-27C41.1,2,36.3,0,31.2,0s-9.9,2-13.6,5.6c-6.7,6.7-7.5,19.3-1.8,27
		L31.2,54.8z M19,7c3.2-3.2,7.6-5,12.1-5s8.9,1.8,12.1,5c6,6,6.8,17.4,1.6,24.4L31.2,51.2L17.4,31.4C12.2,24.5,13,13.1,19,7z"/>
	<linearGradient id="SVGID_3_" gradientUnits="userSpaceOnUse" x1="-2.500191e-04" y1="58.6464" x2="2.7073" y2="58.6464">
		<stop  offset="0" style="stop-color:#FD643E"/>
		<stop  offset="0.7034" style="stop-color:#F84E39"/>
		<stop  offset="1" style="stop-color:#F54336"/>
	</linearGradient>
	<path class="st2" d="M1,57.6l-0.7,0.7c-0.4,0.4-0.4,1,0,1.4C0.5,59.9,0.7,60,1,60s0.5-0.1,0.7-0.3L2.4,59c0.4-0.4,0.4-1,0-1.4
		S1.4,57.2,1,57.6z"/>
	<linearGradient id="SVGID_4_" gradientUnits="userSpaceOnUse" x1="7.616" y1="53" x2="11.436" y2="53">
		<stop  offset="0" style="stop-color:#FD643E"/>
		<stop  offset="0.7034" style="stop-color:#F84E39"/>
		<stop  offset="1" style="stop-color:#F54336"/>
	</linearGradient>
	<path class="st3" d="M8.6,52c-0.6,0-1,0.4-1,1s0.4,1,1,1h1.8c0.6,0,1-0.4,1-1s-0.4-1-1-1H8.6z"/>
	<linearGradient id="SVGID_5_" gradientUnits="userSpaceOnUse" x1="3.2808" y1="55.0754" x2="6.5682" y2="55.0754">
		<stop  offset="0" style="stop-color:#FD643E"/>
		<stop  offset="0.7034" style="stop-color:#F84E39"/>
		<stop  offset="1" style="stop-color:#F54336"/>
	</linearGradient>
	<path class="st4" d="M6.3,53.7c-0.4-0.4-1-0.4-1.4,0L3.6,55c-0.4,0.4-0.4,1,0,1.4c0.2,0.2,0.5,0.3,0.7,0.3s0.5-0.1,0.7-0.3l1.3-1.3
		C6.7,54.7,6.7,54.1,6.3,53.7z"/>
	<linearGradient id="SVGID_6_" gradientUnits="userSpaceOnUse" x1="18.539" y1="53" x2="22.359" y2="53">
		<stop  offset="0" style="stop-color:#FD643E"/>
		<stop  offset="0.7034" style="stop-color:#F84E39"/>
		<stop  offset="1" style="stop-color:#F54336"/>
	</linearGradient>
	<path class="st5" d="M19.5,52c-0.6,0-1,0.4-1,1s0.4,1,1,1h1.8c0.6,0,1-0.4,1-1s-0.4-1-1-1H19.5z"/>
	<linearGradient id="SVGID_7_" gradientUnits="userSpaceOnUse" x1="13.077" y1="53" x2="16.898" y2="53">
		<stop  offset="0" style="stop-color:#FD643E"/>
		<stop  offset="0.7034" style="stop-color:#F84E39"/>
		<stop  offset="1" style="stop-color:#F54336"/>
	</linearGradient>
	<path class="st6" d="M14.1,52c-0.6,0-1,0.4-1,1s0.4,1,1,1h1.8c0.6,0,1-0.4,1-1s-0.4-1-1-1H14.1z"/>
	<linearGradient id="SVGID_8_" gradientUnits="userSpaceOnUse" x1="24" y1="53" x2="27" y2="53">
		<stop  offset="0" style="stop-color:#FD643E"/>
		<stop  offset="0.7034" style="stop-color:#F84E39"/>
		<stop  offset="1" style="stop-color:#F54336"/>
	</linearGradient>
	<path class="st7" d="M25,52c-0.6,0-1,0.4-1,1s0.4,1,1,1h1c0.6,0,1-0.4,1-1s-0.4-1-1-1H25z"/>
	<linearGradient id="SVGID_9_" gradientUnits="userSpaceOnUse" x1="-1.250185e-03" y1="50.379" x2="23" y2="50.379">
		<stop  offset="0" style="stop-color:#FD643E"/>
		<stop  offset="0.7034" style="stop-color:#F84E39"/>
		<stop  offset="1" style="stop-color:#F54336"/>
	</linearGradient>
	<path class="st8" d="M1,53.8c0.3,0,0.5-0.1,0.7-0.3l3.9-3.9c0.1-0.1,0.2-0.2,0.3-0.3l0.2-0.1c0,0,0.1,0,0.1-0.1L6.6,49
		c0.1,0,0.3,0,0.4,0h15c0.6,0,1-0.4,1-1s-0.4-1-1-1H7c-0.3,0-0.5,0-0.8,0.1c-0.1,0-0.2,0-0.3,0.1l-0.1,0c-0.1,0-0.2,0.1-0.3,0.1
		c-0.1,0-0.2,0.1-0.3,0.2L5,47.5c-0.1,0-0.2,0.1-0.3,0.1c-0.2,0.1-0.4,0.3-0.6,0.5l-3.9,3.9c-0.4,0.4-0.4,1,0,1.4
		C0.5,53.7,0.7,53.8,1,53.8z"/>
	<linearGradient id="SVGID_10_" gradientUnits="userSpaceOnUse" x1="57.2927" y1="47.3534" x2="60.0003" y2="47.3534">
		<stop  offset="0" style="stop-color:#FD643E"/>
		<stop  offset="0.7034" style="stop-color:#F84E39"/>
		<stop  offset="1" style="stop-color:#F54336"/>
	</linearGradient>
	<path class="st9" d="M58.3,48.7c0.3,0,0.5-0.1,0.7-0.3l0.7-0.7c0.4-0.4,0.4-1,0-1.4s-1-0.4-1.4,0L57.6,47c-0.4,0.4-0.4,1,0,1.4
		C57.8,48.6,58,48.7,58.3,48.7z"/>
	<linearGradient id="SVGID_11_" gradientUnits="userSpaceOnUse" x1="52.7628" y1="51.4819" x2="56.2733" y2="51.4819">
		<stop  offset="0" style="stop-color:#FD643E"/>
		<stop  offset="0.7034" style="stop-color:#F84E39"/>
		<stop  offset="1" style="stop-color:#F54336"/>
	</linearGradient>
	<path class="st10" d="M54.6,50l-1.5,1.5c-0.4,0.4-0.4,1,0,1.4c0.2,0.2,0.5,0.3,0.7,0.3s0.5-0.1,0.7-0.3l1.5-1.5
		c0.4-0.4,0.4-1,0-1.4S55,49.6,54.6,50z"/>
	<linearGradient id="SVGID_12_" gradientUnits="userSpaceOnUse" x1="46.675" y1="53" x2="50.81" y2="53">
		<stop  offset="0" style="stop-color:#FD643E"/>
		<stop  offset="0.7034" style="stop-color:#F84E39"/>
		<stop  offset="1" style="stop-color:#F54336"/>
	</linearGradient>
	<path class="st11" d="M47.7,52c-0.6,0-1,0.4-1,1s0.4,1,1,1h2.1c0.6,0,1-0.4,1-1s-0.4-1-1-1H47.7z"/>
	<linearGradient id="SVGID_13_" gradientUnits="userSpaceOnUse" x1="40.27" y1="53" x2="44.405" y2="53">
		<stop  offset="0" style="stop-color:#FD643E"/>
		<stop  offset="0.7034" style="stop-color:#F84E39"/>
		<stop  offset="1" style="stop-color:#F54336"/>
	</linearGradient>
	<path class="st12" d="M41.3,52c-0.6,0-1,0.4-1,1s0.4,1,1,1h2.1c0.6,0,1-0.4,1-1s-0.4-1-1-1H41.3z"/>
	<linearGradient id="SVGID_14_" gradientUnits="userSpaceOnUse" x1="35" y1="53" x2="38" y2="53">
		<stop  offset="0" style="stop-color:#FD643E"/>
		<stop  offset="0.7034" style="stop-color:#F84E39"/>
		<stop  offset="1" style="stop-color:#F54336"/>
	</linearGradient>
	<path class="st13" d="M36,52c-0.6,0-1,0.4-1,1s0.4,1,1,1h1c0.6,0,1-0.4,1-1s-0.4-1-1-1H36z"/>
	<linearGradient id="SVGID_15_" gradientUnits="userSpaceOnUse" x1="5.9998" y1="56.1211" x2="60.0002" y2="56.1211">
		<stop  offset="0" style="stop-color:#FD643E"/>
		<stop  offset="0.7034" style="stop-color:#F84E39"/>
		<stop  offset="1" style="stop-color:#F54336"/>
	</linearGradient>
	<path class="st14" d="M58.3,52.5l-3.9,3.9c-0.1,0.1-0.2,0.2-0.3,0.3l-0.2,0.1c0,0-0.1,0-0.1,0.1c0,0-0.1,0-0.1,0L53.4,57
		c-0.1,0-0.3,0-0.4,0H7.9l-1.5,1.2c-0.4,0.3-0.5,1-0.2,1.4C6.4,59.9,6.7,60,7,60c0.2,0,0.4-0.1,0.6-0.2l1-0.8H53
		c0.3,0,0.5,0,0.8-0.1c0.1,0,0.2,0,0.3-0.1l0.1,0c0.1,0,0.2-0.1,0.3-0.1c0.1,0,0.2-0.1,0.3-0.2l0.1-0.1c0.1,0,0.2-0.1,0.2-0.1
		c0.2-0.1,0.4-0.3,0.6-0.5l3.9-3.9c0.4-0.4,0.4-1,0-1.4S58.7,52.1,58.3,52.5z"/>
	<linearGradient id="SVGID_16_" gradientUnits="userSpaceOnUse" x1="39" y1="46.4999" x2="55.7582" y2="46.4999">
		<stop  offset="0" style="stop-color:#FD643E"/>
		<stop  offset="0.7034" style="stop-color:#F84E39"/>
		<stop  offset="1" style="stop-color:#F54336"/>
	</linearGradient>
	<path class="st15" d="M39,48c0,0.6,0.4,1,1,1h12.2l3.3-3.3c0.4-0.4,0.4-1,0-1.4s-1-0.4-1.4,0L51.3,47H40C39.4,47,39,47.4,39,48z"/>
</g>
</svg>
