<?xml version="1.0" encoding="utf-8"?>
<!-- Generator: Adobe Illustrator 21.1.0, SVG Export Plug-In . SVG Version: 6.00 Build 0)  -->
<svg version="1.1" id="Capa_1" xmlns="http://www.w3.org/2000/svg" xmlns:xlink="http://www.w3.org/1999/xlink" x="0px" y="0px"
	 viewBox="0 0 40 40" style="enable-background:new 0 0 40 40;" xml:space="preserve">
<style type="text/css">
	.st0{display:none;}
	.st1{display:inline;fill:url(#SVGID_1_);}
	.st2{display:inline;fill:url(#SVGID_2_);}
	.st3{display:inline;fill:url(#SVGID_3_);}
	.st4{display:inline;fill:url(#SVGID_4_);}
	.st5{display:inline;fill:url(#SVGID_5_);}
	.st6{display:inline;fill:url(#SVGID_6_);}
	.st7{display:inline;fill:url(#SVGID_7_);}
	.st8{display:inline;fill:url(#SVGID_8_);}
	.st9{display:inline;fill:url(#SVGID_9_);}
	.st10{display:inline;fill:url(#SVGID_10_);}
	.st11{display:inline;}
	.st12{fill:url(#SVGID_11_);}
	.st13{fill:url(#SVGID_12_);}
	.st14{fill:url(#SVGID_13_);}
	.st15{fill:url(#SVGID_14_);}
	.st16{fill:url(#SVGID_15_);}
	.st17{display:inline;fill:url(#SVGID_16_);}
	.st18{display:inline;fill:#FFFFFF;}
	.st19{display:none;fill:url(#SVGID_17_);}
	.st20{fill:url(#SVGID_18_);}
</style>
<g class="st0">
	
		<linearGradient id="SVGID_1_" gradientUnits="userSpaceOnUse" x1="45.8761" y1="15.3" x2="47.6835" y2="15.3" gradientTransform="matrix(1 0 0 -1 0 40)">
		<stop  offset="0" style="stop-color:#FDB27C"/>
		<stop  offset="0.7" style="stop-color:#FA4336"/>
		<stop  offset="1" style="stop-color:#FA4336"/>
	</linearGradient>
	<path class="st1" d="M46.8,25.8c0.5,0,0.9-0.5,0.9-1.1c0-0.8-0.4-1.1-0.9-1.1s-0.9,0.2-0.9,1.1C45.9,25.3,46.3,25.8,46.8,25.8z"/>
	
		<linearGradient id="SVGID_2_" gradientUnits="userSpaceOnUse" x1="44.7645" y1="13.15" x2="48.795" y2="13.15" gradientTransform="matrix(1 0 0 -1 0 40)">
		<stop  offset="0" style="stop-color:#FDB27C"/>
		<stop  offset="0.7" style="stop-color:#FA4336"/>
		<stop  offset="1" style="stop-color:#FA4336"/>
	</linearGradient>
	<path class="st2" d="M48.8,27.4l-0.5-1l-0.1-0.1l-0.7-0.4l0,0c-0.2,0.2-0.4,0.2-0.7,0.2c-0.2,0-0.5-0.1-0.7-0.2l0,0l-0.6,0.3
		c-0.1,0.2-0.2,0.5-0.4,0.7l-0.2,0.3c0.1,0,0.3-0.1,0.4-0.2l0,0l0.7,0.4l0.1,0.1l0.1,0.3h2.3c0.1,0,0.1,0,0.2-0.1
		C48.8,27.5,48.8,27.4,48.8,27.4z"/>
	
		<linearGradient id="SVGID_3_" gradientUnits="userSpaceOnUse" x1="43.5663" y1="14.1" x2="45.3737" y2="14.1" gradientTransform="matrix(1 0 0 -1 0 40)">
		<stop  offset="0" style="stop-color:#FDB27C"/>
		<stop  offset="0.7" style="stop-color:#FA4336"/>
		<stop  offset="1" style="stop-color:#FA4336"/>
	</linearGradient>
	<path class="st3" d="M45.2,26.3L45.2,26.3c0.1-0.2,0.1-0.3,0.1-0.4c0-0.8-0.4-1.1-0.9-1.1s-0.9,0.2-0.9,1.1c0,0.6,0.4,1.1,0.9,1.1
		c0.2,0,0.3-0.1,0.5-0.2l0.2-0.4C45.2,26.4,45.2,26.4,45.2,26.3z"/>
	
		<linearGradient id="SVGID_4_" gradientUnits="userSpaceOnUse" x1="44.6545" y1="13.45" x2="48.685" y2="13.45" gradientTransform="matrix(1 0 0 -1 0 40)">
		<stop  offset="0" style="stop-color:#FDB27C"/>
		<stop  offset="0.7" style="stop-color:#FA4336"/>
		<stop  offset="1" style="stop-color:#FA4336"/>
	</linearGradient>
	<path class="st4" d="M45.3,26.3L45.3,26.3c-0.1,0.1-0.2,0.1-0.2,0.2L45,26.8C45.1,26.7,45.3,26.5,45.3,26.3z"/>
	
		<linearGradient id="SVGID_5_" gradientUnits="userSpaceOnUse" x1="43.5663" y1="13.45" x2="45.3737" y2="13.45" gradientTransform="matrix(1 0 0 -1 0 40)">
		<stop  offset="0" style="stop-color:#FDB27C"/>
		<stop  offset="0.7" style="stop-color:#FA4336"/>
		<stop  offset="1" style="stop-color:#FA4336"/>
	</linearGradient>
	<path class="st5" d="M45.3,26.3L45.3,26.3c-0.1,0.1-0.2,0.1-0.2,0.2L45,26.8C45.1,26.7,45.3,26.5,45.3,26.3z"/>
	
		<linearGradient id="SVGID_6_" gradientUnits="userSpaceOnUse" x1="42.4547" y1="12.05" x2="46.4852" y2="12.05" gradientTransform="matrix(1 0 0 -1 0 40)">
		<stop  offset="0" style="stop-color:#FDB27C"/>
		<stop  offset="0.7" style="stop-color:#FA4336"/>
		<stop  offset="1" style="stop-color:#FA4336"/>
	</linearGradient>
	<path class="st6" d="M44.7,27.7c0-0.1,0-0.1,0-0.2l0.1-0.2c-0.1,0-0.2,0-0.3,0c-0.2,0-0.5-0.1-0.7-0.2l0,0L43,27.4l-0.1,0.1l-0.5,1
		c0,0.1,0,0.2,0,0.2c0,0.1,0.1,0.1,0.2,0.1h3.6c0.1,0,0.1,0,0.2-0.1c0-0.1,0-0.1,0-0.2l-0.3-0.8h-1.2C44.8,27.8,44.7,27.7,44.7,27.7
		z"/>
	
		<linearGradient id="SVGID_7_" gradientUnits="userSpaceOnUse" x1="44.6545" y1="12.65" x2="48.685" y2="12.65" gradientTransform="matrix(1 0 0 -1 0 40)">
		<stop  offset="0" style="stop-color:#FDB27C"/>
		<stop  offset="0.7" style="stop-color:#FA4336"/>
		<stop  offset="1" style="stop-color:#FA4336"/>
	</linearGradient>
	<path class="st7" d="M45.9,27.4L45.2,27l0,0c-0.1,0.1-0.2,0.2-0.4,0.2l-0.1,0.2c0,0.1,0,0.2,0,0.2c0,0.1,0.1,0.1,0.2,0.1h1.2
		L46,27.5C46,27.5,46,27.4,45.9,27.4z"/>
	
		<linearGradient id="SVGID_8_" gradientUnits="userSpaceOnUse" x1="42.4547" y1="12.65" x2="46.4852" y2="12.65" gradientTransform="matrix(1 0 0 -1 0 40)">
		<stop  offset="0" style="stop-color:#FDB27C"/>
		<stop  offset="0.7" style="stop-color:#FA4336"/>
		<stop  offset="1" style="stop-color:#FA4336"/>
	</linearGradient>
	<path class="st8" d="M45.9,27.4L45.2,27l0,0c-0.1,0.1-0.2,0.2-0.4,0.2l-0.1,0.2c0,0.1,0,0.2,0,0.2c0,0.1,0.1,0.1,0.2,0.1h1.2
		L46,27.5C46,27.5,46,27.4,45.9,27.4z"/>
</g>
<g class="st0">
	
		<linearGradient id="SVGID_9_" gradientUnits="userSpaceOnUse" x1="43.2" y1="27.05" x2="48.0583" y2="27.05" gradientTransform="matrix(1 0 0 -1 0 40)">
		<stop  offset="0" style="stop-color:#FDB27C"/>
		<stop  offset="0.7" style="stop-color:#FA4336"/>
		<stop  offset="1" style="stop-color:#FA4336"/>
	</linearGradient>
	<polygon class="st9" points="48.1,12.2 43.2,12.2 45.6,13.7 	"/>
	
		<linearGradient id="SVGID_10_" gradientUnits="userSpaceOnUse" x1="42.9192" y1="26" x2="48.3305" y2="26" gradientTransform="matrix(1 0 0 -1 0 40)">
		<stop  offset="0" style="stop-color:#FDB27C"/>
		<stop  offset="0.7" style="stop-color:#FA4336"/>
		<stop  offset="1" style="stop-color:#FA4336"/>
	</linearGradient>
	<path class="st10" d="M45.6,14.1l-2.7-1.7v3.1c0,0.1,0.1,0.1,0.1,0.1h5.1c0.1,0,0.1-0.1,0.1-0.1v-3.1L45.6,14.1z"/>
</g>
<g class="st0">
	<g id="Settings_3_" class="st11">
		<g>
			
				<linearGradient id="SVGID_11_" gradientUnits="userSpaceOnUse" x1="1.1622" y1="26.7375" x2="21.9455" y2="26.7375" gradientTransform="matrix(1 0 0 -1 0 40)">
				<stop  offset="0" style="stop-color:#FD643E"/>
				<stop  offset="0.7034" style="stop-color:#F84E39"/>
				<stop  offset="1" style="stop-color:#F54336"/>
			</linearGradient>
			<path class="st12" d="M21.9,12.1c0-0.3-0.4-0.5-0.7-0.5c-1,0-1.8-0.6-2.2-1.4c-0.4-0.9-0.1-1.9,0.6-2.6c0.2-0.2,0.3-0.5,0.1-0.8
				c-0.5-0.6-1-1.2-1.6-1.7c-0.2-0.2-0.6-0.2-0.8,0.1c-0.6,0.7-1.7,0.9-2.6,0.6c-0.9-0.4-1.5-1.3-1.4-2.3c0-0.3-0.2-0.6-0.5-0.6
				c-0.8-0.1-1.6-0.1-2.3,0c-0.3,0-0.5,0.3-0.5,0.6c0,1-0.5,1.9-1.4,2.2C7.8,6,6.6,5.8,6,5.1c-0.3-0.2-0.6-0.2-0.9,0
				c-0.6,0.5-1.2,1-1.7,1.7C3.3,7,3.3,7.3,3.5,7.5c0.7,0.7,1,1.7,0.6,2.6c-0.4,0.9-1.2,1.4-2.3,1.4c-0.3,0-0.6,0.2-0.6,0.5
				c-0.1,0.8-0.1,1.6,0,2.4c0,0.3,0.4,0.5,0.7,0.5c0.9,0,1.8,0.5,2.1,1.4c0.4,0.9,0.1,1.9-0.6,2.6c-0.2,0.2-0.3,0.5-0.1,0.8
				c0.5,0.6,1,1.2,1.6,1.7c0.2,0.2,0.6,0.2,0.8-0.1c0.6-0.7,1.7-0.9,2.6-0.6c1,0.4,1.6,1.3,1.5,2.3c0,0.3,0.2,0.6,0.5,0.6
				c0.4,0,0.8,0.1,1.2,0.1s0.8,0,1.1-0.1c0.3,0,0.5-0.3,0.5-0.6c0-1,0.5-1.9,1.4-2.2c0.9-0.3,2-0.1,2.6,0.6c0.2,0.2,0.5,0.3,0.8,0.1
				c0.6-0.5,1.2-1,1.7-1.7c0.2-0.2,0.2-0.6-0.1-0.8c-0.7-0.7-1-1.7-0.6-2.6c0.4-0.8,1.2-1.4,2.1-1.4h0.1c0.3,0,0.6-0.2,0.6-0.5
				C22,13.7,22,12.9,21.9,12.1z M11.6,16.7c-1.9,0-3.5-1.6-3.5-3.5s1.6-3.5,3.5-3.5s3.5,1.6,3.5,3.5C15,15.2,13.5,16.7,11.6,16.7z"
				/>
		</g>
	</g>
	<g id="Settings_2_" class="st11">
		<g>
			
				<linearGradient id="SVGID_12_" gradientUnits="userSpaceOnUse" x1="18.225" y1="15.5375" x2="39.0083" y2="15.5375" gradientTransform="matrix(1 0 0 -1 0 40)">
				<stop  offset="0" style="stop-color:#FD643E"/>
				<stop  offset="0.7034" style="stop-color:#F84E39"/>
				<stop  offset="1" style="stop-color:#F54336"/>
			</linearGradient>
			<path class="st13" d="M38.9,23.3c0-0.3-0.4-0.5-0.7-0.5c-1,0-1.8-0.6-2.2-1.4c-0.4-0.9-0.1-1.9,0.6-2.6c0.2-0.2,0.3-0.5,0.1-0.8
				c-0.5-0.6-1-1.2-1.6-1.7c-0.2-0.2-0.6-0.2-0.8,0.1c-0.6,0.7-1.7,0.9-2.6,0.6c-0.9-0.4-1.5-1.3-1.4-2.3c0-0.3-0.2-0.6-0.5-0.6
				c-0.8-0.1-1.6-0.1-2.3,0c-0.3,0-0.5,0.3-0.5,0.6c0,1-0.5,1.9-1.4,2.2c-0.8,0.3-2,0.1-2.6-0.6c-0.2-0.2-0.5-0.3-0.8-0.1
				c-0.6,0.5-1.2,1-1.7,1.7c-0.2,0.2-0.2,0.6,0.1,0.8c0.7,0.7,1,1.7,0.6,2.6s-1.2,1.4-2.3,1.4c-0.3,0-0.6,0.2-0.6,0.5
				c-0.1,0.8-0.1,1.6,0,2.4c0,0.3,0.4,0.5,0.7,0.5c0.9,0,1.8,0.5,2.1,1.4c0.4,0.9,0.1,1.9-0.6,2.6c-0.2,0.2-0.3,0.5-0.1,0.8
				c0.5,0.6,1,1.2,1.6,1.7c0.2,0.2,0.6,0.2,0.8-0.1c0.6-0.7,1.7-0.9,2.6-0.6c0.9,0.4,1.5,1.3,1.4,2.3c0,0.3,0.2,0.6,0.5,0.6
				c0.4,0,0.8,0.1,1.2,0.1c0.4,0,0.8,0,1.1-0.1c0.3,0,0.5-0.3,0.5-0.6c0-1,0.5-1.9,1.4-2.2s2-0.1,2.6,0.6c0.2,0.2,0.5,0.3,0.8,0.1
				c0.6-0.5,1.2-1,1.7-1.7c0.2-0.2,0.2-0.6-0.1-0.8c-0.7-0.7-1-1.7-0.6-2.6c0.4-0.8,1.2-1.4,2.1-1.4h0.1c0.3,0,0.6-0.2,0.6-0.5
				C39,24.9,39,24.1,38.9,23.3z M28.6,27.9c-1.9,0-3.5-1.6-3.5-3.5s1.6-3.5,3.5-3.5s3.5,1.6,3.5,3.5C32.1,26.4,30.5,27.9,28.6,27.9z
				"/>
		</g>
	</g>
</g>
<g class="st0">
	<g class="st11">
		
			<linearGradient id="SVGID_13_" gradientUnits="userSpaceOnUse" x1="2.3858" y1="21.4" x2="12.3699" y2="21.4" gradientTransform="matrix(1 0 0 -1 0 40)">
			<stop  offset="0" style="stop-color:#FD643E"/>
			<stop  offset="0.7034" style="stop-color:#F84E39"/>
			<stop  offset="1" style="stop-color:#F54336"/>
		</linearGradient>
		<path class="st14" d="M11.8,19.2H2.9c-0.3,0-0.6-0.2-0.6-0.6c0-0.3,0.2-0.6,0.6-0.6h8.9c0.3,0,0.6,0.2,0.6,0.6
			C12.4,18.9,12.1,19.2,11.8,19.2z"/>
	</g>
	<g class="st11">
		
			<linearGradient id="SVGID_14_" gradientUnits="userSpaceOnUse" x1="4.8323" y1="18.8" x2="12.2903" y2="18.8" gradientTransform="matrix(1 0 0 -1 0 40)">
			<stop  offset="0" style="stop-color:#FD643E"/>
			<stop  offset="0.7034" style="stop-color:#F84E39"/>
			<stop  offset="1" style="stop-color:#F54336"/>
		</linearGradient>
		<path class="st15" d="M11.8,21.7H5.3c-0.3,0-0.5-0.2-0.5-0.5s0.2-0.5,0.5-0.5h6.5c0.3,0,0.5,0.2,0.5,0.5S12.1,21.7,11.8,21.7z"/>
	</g>
	<g class="st11">
		
			<linearGradient id="SVGID_15_" gradientUnits="userSpaceOnUse" x1="0" y1="16.2" x2="12.4" y2="16.2" gradientTransform="matrix(1 0 0 -1 0 40)">
			<stop  offset="0" style="stop-color:#FD643E"/>
			<stop  offset="0.7034" style="stop-color:#F84E39"/>
			<stop  offset="1" style="stop-color:#F54336"/>
		</linearGradient>
		<path class="st16" d="M11.9,24.3H0.5c-0.3,0-0.5-0.2-0.5-0.5s0.2-0.5,0.5-0.5h11.4c0.3,0,0.5,0.2,0.5,0.5
			C12.4,24.1,12.2,24.3,11.9,24.3z"/>
	</g>
	
		<linearGradient id="SVGID_16_" gradientUnits="userSpaceOnUse" x1="14.1" y1="20.35" x2="38.9" y2="20.35" gradientTransform="matrix(1 0 0 -1 0 40)">
		<stop  offset="0" style="stop-color:#FD643E"/>
		<stop  offset="0.7034" style="stop-color:#F84E39"/>
		<stop  offset="1" style="stop-color:#F54336"/>
	</linearGradient>
	<path class="st17" d="M38.9,16.1v-2.3c0-0.5-0.1-0.9-0.4-1.2v-0.1h-0.1c-0.2-0.3-0.6-0.5-0.9-0.5h-22c-0.8,0-1.4,0.8-1.4,1.7V16
		h0.4l0,0h-0.4v10.1c0,0.4,0.2,0.7,0.4,0.9v0.2h0.4c0.1,0,0.3,0.1,0.4,0.1h22.4c0.1,0,0.3,0,0.4-0.1h0.4v-0.3
		c0.2-0.2,0.4-0.5,0.4-0.9V16.1h-0.4l0,0H38.9z"/>
	<rect x="14.1" y="14.9" class="st18" width="24.9" height="2.8"/>
</g>
<linearGradient id="SVGID_17_" gradientUnits="userSpaceOnUse" x1="-120.9" y1="70.45" x2="137.6" y2="70.45" gradientTransform="matrix(1 0 0 -1 0 40)">
	<stop  offset="0" style="stop-color:#FD643E"/>
	<stop  offset="0.7034" style="stop-color:#F84E39"/>
	<stop  offset="1" style="stop-color:#F54336"/>
</linearGradient>
<rect x="-120.9" y="-53.3" class="st19" width="258.5" height="45.7"/>
<linearGradient id="SVGID_18_" gradientUnits="userSpaceOnUse" x1="1.5235" y1="18.1591" x2="38.4765" y2="18.1591">
	<stop  offset="0" style="stop-color:#FD643E"/>
	<stop  offset="0.7034" style="stop-color:#F84E39"/>
	<stop  offset="1" style="stop-color:#F54336"/>
</linearGradient>
<path class="st20" d="M36.4,4.8H3.6c-1.1,0-2,0.9-2,2v19.3c0,1.1,0.9,2,2,2h13.2l-0.6,1.5h-1.5c-0.5,0-0.9,0.3-1.2,0.9
	c-0.2,0.4-0.1,1,0.2,1h12.9c0.3,0,0.4-0.6,0.2-1c-0.3-0.6-0.8-0.9-1.2-0.9h-1.5l-0.6-1.5h13.2c1.1,0,2-0.9,2-2V6.8
	C38.5,5.7,37.6,4.8,36.4,4.8z M36.9,24.1c0,0.5-0.4,0.9-0.9,0.9H4c-0.5,0-0.9-0.4-0.9-0.9V7.6c0-0.5,0.4-0.9,0.9-0.9H36
	c0.5,0,0.9,0.4,0.9,0.9V24.1z"/>
</svg>
