<?xml version="1.0" encoding="utf-8"?>
<!-- Generator: Adobe Illustrator 22.1.0, SVG Export Plug-In . SVG Version: 6.00 Build 0)  -->
<svg version="1.1" id="Capa_1" xmlns="http://www.w3.org/2000/svg" xmlns:xlink="http://www.w3.org/1999/xlink" x="0px" y="0px"
	 viewBox="0 0 738 752" style="enable-background:new 0 0 738 752;" xml:space="preserve">
<style type="text/css">
	.st0{fill:#2942A9;}
</style>
<g>
	<path class="st0" d="M367.8,78.4c40.1,0,79,7.8,115.6,23.3c35.4,15,67.1,36.4,94.4,63.7c27.3,27.3,48.7,59.1,63.7,94.4
		c15.5,36.6,23.3,75.5,23.3,115.6s-7.8,79-23.3,115.6c-15,35.4-36.4,67.1-63.7,94.4c-27.3,27.3-59.1,48.7-94.4,63.7
		c-36.6,15.5-75.5,23.3-115.6,23.3s-79-7.8-115.6-23.3c-35.4-15-67.1-36.4-94.4-63.7c-27.3-27.3-48.7-59.1-63.7-94.4
		c-15.5-36.6-23.3-75.5-23.3-115.6s7.8-79,23.3-115.6c15-35.4,36.4-67.1,63.7-94.4c27.3-27.3,59.1-48.7,94.4-63.7
		C288.8,86.2,327.7,78.4,367.8,78.4 M367.8,26.4c-192.7,0-349,156.3-349,349s156.3,349,349,349s349-156.3,349-349
		S560.5,26.4,367.8,26.4L367.8,26.4z"/>
</g>
<g>
	<path class="st0" d="M344.7,594.2V543c-14.7-1.7-30.3-5.7-46.9-12s-31.3-15.3-44.3-26.9l37.9-59.4c14,10.2,26.6,17.6,37.7,22
		s22.1,6.7,33.1,6.7c13,0,22.2-2.3,27.7-6.9s8.2-11.9,8.2-21.8c0-6.8-3.3-12.9-9.7-18.2c-6.5-5.3-14.7-10.5-24.6-15.6
		s-20.5-10.5-31.8-16.1s-21.9-12.4-31.8-20.2c-9.9-7.9-18.1-17.1-24.6-27.7s-9.7-23.4-9.7-38.4c0-26,6.9-47.5,20.8-64.6
		c13.8-17.1,33.2-28.4,58.2-33.8v-53.3h57.4v52.3c16.4,2.7,30.8,7.9,43.3,15.4s23.8,16.7,34.1,27.7l-43.6,50.2
		c-9.2-8.2-18-14.3-26.4-18.4s-17.3-6.1-26.9-6.1c-10.9,0-19.1,1.9-24.6,5.6c-5.5,3.8-8.2,10.8-8.2,21c0,6.5,3.2,12.1,9.7,16.9
		s14.7,9.6,24.6,14.3c9.9,4.8,20.5,9.9,31.8,15.4s21.9,12.1,31.8,20s18.1,17.3,24.6,28.2c6.5,10.9,9.7,24.1,9.7,39.5
		c0,24.9-6.6,46.5-19.7,64.6c-13.2,18.1-33.2,30.4-60.2,36.9v54.3h-57.6V594.2z"/>
</g>
</svg>
