<?xml version="1.0" encoding="utf-8"?>
<!-- Generator: Adobe Illustrator 22.1.0, SVG Export Plug-In . SVG Version: 6.00 Build 0)  -->
<svg version="1.1" id="Capa_1" xmlns="http://www.w3.org/2000/svg" xmlns:xlink="http://www.w3.org/1999/xlink" x="0px" y="0px"
	 viewBox="0 0 738 752" style="enable-background:new 0 0 738 752;" xml:space="preserve">
<style type="text/css">
	.st0{fill:#2942A9;}
	.st1{fill:#2942A9;stroke:#FFFFFF;stroke-miterlimit:10;}
</style>
<g>
	<path class="st0" d="M367.6,78.3c40.1,0,79,7.8,115.6,23.3c35.4,15,67.1,36.4,94.4,63.7c27.3,27.3,48.7,59.1,63.7,94.4
		c15.5,36.6,23.3,75.5,23.3,115.6c0,40.1-7.8,79-23.3,115.6c-15,35.4-36.4,67.1-63.7,94.4c-27.3,27.3-59.1,48.7-94.4,63.7
		c-36.6,15.5-75.5,23.3-115.6,23.3c-40.1,0-79-7.8-115.6-23.3c-35.4-15-67.1-36.4-94.4-63.7c-27.3-27.3-48.7-59.1-63.7-94.4
		c-15.5-36.6-23.3-75.5-23.3-115.6s7.8-79,23.3-115.6c15-35.4,36.4-67.1,63.7-94.4c27.3-27.3,59.1-48.7,94.4-63.7
		C288.6,86.1,327.5,78.3,367.6,78.3 M367.6,26.3c-192.7,0-349,156.3-349,349s156.3,349,349,349c192.8,0,349-156.3,349-349
		S560.3,26.3,367.6,26.3L367.6,26.3z"/>
</g>
<g>
	<path class="st1" d="M469.6,593.1c-18.8,0-36.1-2.3-52-6.9s-30.2-11.2-43-19.7s-24-18.5-33.6-30s-17.6-24.2-24.1-38.2
		c-17.4-4.1-33.2-10.8-47.4-20.2c-14.2-9.4-26.2-21.3-36.1-35.6c-9.9-14.3-17.6-31.1-23.1-50.2s-8.2-40.3-8.2-63.5
		c0-27.3,3.8-51.7,11.3-73s18-39.3,31.5-53.8s29.7-25.5,48.7-33.1c19-7.5,40.1-11.3,63.3-11.3c22.9,0,43.9,3.8,63,11.3
		s35.4,18.6,48.9,33.3s24,32.6,31.5,53.8s11.3,45.4,11.3,72.8c0,43.7-9.1,79.8-27.4,108.1c-18.3,28.4-43.1,47.7-74.6,57.9
		c7.9,10.9,18.4,18.4,31.5,22.5s26,6.1,38.7,6.1c7.2,0,14-0.6,20.5-1.8s12.3-2.7,17.4-4.4l15.4,63.5c-6.8,3.8-15.6,6.7-26.1,9
		C496.4,591.9,484,593.1,469.6,593.1z M356.9,431.1c20.2,0,36-8.8,47.4-26.4s17.2-43,17.2-76.1c0-30.4-5.7-53.9-17.2-70.5
		s-27.2-24.9-47.4-24.9c-20.2,0-36,8.3-47.4,24.9c-11.5,16.6-17.2,40.1-17.2,70.5c0,33.1,5.7,58.5,17.2,76.1
		C320.9,422.3,336.7,431.1,356.9,431.1z"/>
</g>
</svg>
