<?xml version="1.0" encoding="iso-8859-1"?>
<!-- Generator: Adobe Illustrator 19.0.0, SVG Export Plug-In . SVG Version: 6.00 Build 0)  -->
<svg xmlns="http://www.w3.org/2000/svg" xmlns:xlink="http://www.w3.org/1999/xlink" version="1.1" id="Capa_1" x="0px" y="0px" viewBox="0 0 485.664 485.664" style="enable-background:new 0 0 485.664 485.664;" xml:space="preserve" width="512px" height="512px">
<g>
	<g>
		<g>
			<path d="M52.816,342.304C15.52,379.584,3.52,461.04,3.024,464.48L0,485.616l21.136-3.024     c3.44-0.496,84.896-12.496,122.176-49.792c24.555-25.424,23.851-65.941-1.573-90.496     C116.938,318.35,77.617,318.35,52.816,342.304z M121.507,409.405c-0.258,0.267-0.52,0.529-0.787,0.787l-0.032-0.016     c-18.272,18.272-55.296,30.208-81.6,36.368c6.144-26.32,18.048-63.296,36.384-81.6c12.278-12.712,32.536-13.064,45.248-0.787     C133.432,376.435,133.784,396.693,121.507,409.405z" fill="#333333"/>
			<polygon points="311.52,143.824 293.04,117.696 266.864,136.256 285.408,162.336    " fill="#333333"/>
			<path d="M259.392,180.928l-18.672-25.984c-9.296,6.672-18.064,13.024-26.064,18.864l18.864,25.856     C241.472,193.856,250.16,187.552,259.392,180.928z" fill="#333333"/>
			<path d="M461.584,0.048l-10.976,7.584C424.64,25.6,372.112,62.032,319.264,99.2l18.416,26.176     c26.176-18.4,52.256-36.624,75.088-52.528C323.52,201.152,263.312,284.8,252.32,295.808c-17.475,16.74-45.037,16.74-62.512,0     c-17.262-17.191-17.32-45.121-0.128-62.384c0.043-0.043,0.085-0.086,0.128-0.128c5.794-5.221,11.867-10.124,18.192-14.688     l-19.344-25.456c-7.519,5.41-14.691,11.289-21.472,17.6c-30.821,28.649-32.581,76.859-3.932,107.68     c28.649,30.821,76.859,32.581,107.68,3.932c1.358-1.262,2.67-2.574,3.932-3.932c19.536-19.456,135.648-185.936,203.2-283.424     l7.6-10.976L461.584,0.048z" fill="#333333"/>
		</g>
	</g>
</g>
<g>
</g>
<g>
</g>
<g>
</g>
<g>
</g>
<g>
</g>
<g>
</g>
<g>
</g>
<g>
</g>
<g>
</g>
<g>
</g>
<g>
</g>
<g>
</g>
<g>
</g>
<g>
</g>
<g>
</g>
</svg>
