<?xml version="1.0" encoding="utf-8"?>
<!-- Generator: Adobe Illustrator 22.1.0, SVG Export Plug-In . SVG Version: 6.00 Build 0)  -->
<svg version="1.1" id="Capa_1" xmlns="http://www.w3.org/2000/svg" xmlns:xlink="http://www.w3.org/1999/xlink" x="0px" y="0px"
	 viewBox="0 0 760 387" style="enable-background:new 0 0 760 387;" xml:space="preserve">
<style type="text/css">
	.st0{opacity:0.1;fill:url(#SVGID_1_);}
	.st1{fill:#E8E8E8;}
	.st2{opacity:0.16;fill:url(#SVGID_2_);}
	.st3{opacity:0.1;fill:url(#SVGID_3_);}
	.st4{fill:url(#SVGID_4_);}
	.st5{opacity:0.16;fill:url(#SVGID_5_);}
	.st6{opacity:0.1;fill:url(#SVGID_6_);}
	.st7{opacity:0.16;fill:url(#SVGID_7_);}
	.st8{fill:url(#SVGID_8_);}
	.st9{fill:#F6F6F6;}
	.st10{fill:url(#SVGID_9_);}
	.st11{fill:url(#SVGID_10_);}
	.st12{opacity:0.2;fill:url(#SVGID_11_);}
	.st13{opacity:0.2;fill:url(#SVGID_12_);}
</style>
<g>
	<g>
		<g>
			<linearGradient id="SVGID_1_" gradientUnits="userSpaceOnUse" x1="579.6359" y1="310.2369" x2="657.2078" y2="175.8784">
				<stop  offset="0" style="stop-color:#454545"/>
				<stop  offset="1" style="stop-color:#454545;stop-opacity:0"/>
			</linearGradient>
			<polygon class="st0" points="485.8,255.6 594.8,319 751,230.6 643.6,168 			"/>
			<polygon class="st1" points="486.5,64 597.4,128.3 597.4,319 583,326 472,70 			"/>
			<polygon class="st1" points="471.5,70 582.4,134.3 582.4,325 471.5,262.9 			"/>
			<linearGradient id="SVGID_2_" gradientUnits="userSpaceOnUse" x1="536.375" y1="281.375" x2="643.25" y2="174.5">
				<stop  offset="0" style="stop-color:#454545"/>
				<stop  offset="1" style="stop-color:#454545;stop-opacity:0"/>
			</linearGradient>
			<polygon class="st2" points="582,327 597,321 597,128.3 582.8,134.8 			"/>
		</g>
		<linearGradient id="SVGID_3_" gradientUnits="userSpaceOnUse" x1="357.7499" y1="338.784" x2="490.2676" y2="109.2566">
			<stop  offset="0" style="stop-color:#454545"/>
			<stop  offset="1" style="stop-color:#454545;stop-opacity:0"/>
		</linearGradient>
		<polygon class="st3" points="253.2,277.8 399.7,363 524,293 521,127 472,101.2 471.7,164 465.2,160 		"/>
		<linearGradient id="SVGID_4_" gradientUnits="userSpaceOnUse" x1="239" y1="270" x2="401" y2="108">
			<stop  offset="0" style="stop-color:#7063F1"/>
			<stop  offset="1" style="stop-color:#3A79F3"/>
		</linearGradient>
		<polygon class="st4" points="249,19 399,106 399,364 379,371 249,280 229,26 		"/>
		<linearGradient id="SVGID_5_" gradientUnits="userSpaceOnUse" x1="317.5" y1="310.5" x2="460" y2="168">
			<stop  offset="0" style="stop-color:#454545"/>
			<stop  offset="1" style="stop-color:#454545;stop-opacity:0"/>
		</linearGradient>
		<polygon class="st5" points="379,372 399,364 399,107 380,113 		"/>
		<g>
			<linearGradient id="SVGID_6_" gradientUnits="userSpaceOnUse" x1="124.6359" y1="317.2369" x2="202.2078" y2="182.8784">
				<stop  offset="0" style="stop-color:#454545"/>
				<stop  offset="1" style="stop-color:#454545;stop-opacity:0"/>
			</linearGradient>
			<polygon class="st6" points="30.8,262.6 139.8,326 296,237.6 188.6,175 			"/>
			<polygon class="st1" points="31.5,71 142.4,135.3 142.4,326 128,333 17,77 			"/>
			<polygon class="st1" points="16.5,77 127.4,141.3 127.4,332 16.5,269.9 			"/>
			<linearGradient id="SVGID_7_" gradientUnits="userSpaceOnUse" x1="81.375" y1="288.375" x2="188.25" y2="181.5">
				<stop  offset="0" style="stop-color:#454545"/>
				<stop  offset="1" style="stop-color:#454545;stop-opacity:0"/>
			</linearGradient>
			<polygon class="st7" points="127,334 142,328 142,135.3 127.8,141.8 			"/>
		</g>
		<g>
			<linearGradient id="SVGID_8_" gradientUnits="userSpaceOnUse" x1="222.25" y1="280.25" x2="384.25" y2="118.25">
				<stop  offset="0" style="stop-color:#7063F1"/>
				<stop  offset="1" style="stop-color:#3A79F3"/>
			</linearGradient>
			<polygon class="st8" points="229,26 379,113 379,371 229,287 			"/>
			<path class="st9" d="M306.4,69.3V102c0,50.2,28.6,95.9,73.6,118l0,0V112L306.4,69.3z"/>
			<g>
				<linearGradient id="SVGID_9_" gradientUnits="userSpaceOnUse" x1="324.1132" y1="137.0078" x2="402" y2="137.0078">
					<stop  offset="0" style="stop-color:#FF6567"/>
					<stop  offset="1" style="stop-color:#FFA04E"/>
				</linearGradient>
				<path class="st10" d="M348.5,165.3c-0.4,0-0.7,0-1.1-0.1c-2.2-0.3-4.2-1.6-5.4-3.6l-16.8-27.5c-2.2-3.6-1.1-8.3,2.5-10.5
					c3.6-2.2,8.3-1.1,10.5,2.5l12,19.6l39-35.1c3.1-2.8,8-2.6,10.8,0.6c2.8,3.1,2.6,8-0.6,10.8l-45.8,41.2
					C352.2,164.6,350.4,165.3,348.5,165.3z"/>
			</g>
		</g>
		<linearGradient id="SVGID_10_" gradientUnits="userSpaceOnUse" x1="471.7561" y1="186.4625" x2="471.7561" y2="186.4625">
			<stop  offset="0" style="stop-color:#454545"/>
			<stop  offset="1" style="stop-color:#454545;stop-opacity:0"/>
		</linearGradient>
		<path class="st11" d="M471.8,186.5"/>
		<linearGradient id="SVGID_11_" gradientUnits="userSpaceOnUse" x1="14.0422" y1="97.2393" x2="145.9084" y2="115.7719">
			<stop  offset="0" style="stop-color:#454545;stop-opacity:0"/>
			<stop  offset="1" style="stop-color:#454545"/>
		</linearGradient>
		<polygon class="st12" points="17,76.2 128,142 143.1,135.5 31.8,71 		"/>
	</g>
	<linearGradient id="SVGID_12_" gradientUnits="userSpaceOnUse" x1="225.2122" y1="53.9514" x2="402.945" y2="78.9301">
		<stop  offset="0" style="stop-color:#454545;stop-opacity:0"/>
		<stop  offset="1" style="stop-color:#454545"/>
	</linearGradient>
	<polygon class="st13" points="229,27 380,113 399,107 249,20 	"/>
</g>
</svg>
