<?xml version="1.0" encoding="utf-8"?>
<!-- Generator: Adobe Illustrator 21.0.0, SVG Export Plug-In . SVG Version: 6.00 Build 0)  -->
<svg version="1.1" id="Capa_1" xmlns="http://www.w3.org/2000/svg" xmlns:xlink="http://www.w3.org/1999/xlink" x="0px" y="0px"
	 viewBox="0 0 16 16" style="enable-background:new 0 0 16 16;" xml:space="preserve">
<style type="text/css">
	.st0{fill:url(#SVGID_1_);}
	.st1{fill:url(#SVGID_2_);}
</style>
<linearGradient id="SVGID_1_" gradientUnits="userSpaceOnUse" x1="1" y1="8" x2="6" y2="8">
	<stop  offset="0" style="stop-color:#FD643E"/>
	<stop  offset="0.7034" style="stop-color:#F84E39"/>
	<stop  offset="1" style="stop-color:#F54336"/>
</linearGradient>
<path class="st0" d="M2.1,3.1C2.3,4.4,2.5,4.7,2.5,6C2.5,6.8,1,7.5,1,7.5v1c0,0,1.5,0.7,1.5,1.5c0,1.3-0.2,1.6-0.4,2.9
	C1.8,15,2.9,16,3.9,16S6,16,6,16v-2c0,0-1.8,0.2-1.8-1c0-0.9,0.2-0.9,0.4-2.9C4.7,9.2,4.1,8.5,3.5,8c0.6-0.5,1.2-1.1,1.1-2
	C4.3,4,4.2,4,4.2,3.1C4.2,1.9,6,2,6,2V0c0,0-1,0-2.1,0S1.8,1,2.1,3.1z"/>
<linearGradient id="SVGID_2_" gradientUnits="userSpaceOnUse" x1="10" y1="8" x2="15" y2="8">
	<stop  offset="0" style="stop-color:#FD643E"/>
	<stop  offset="0.7034" style="stop-color:#F84E39"/>
	<stop  offset="1" style="stop-color:#F54336"/>
</linearGradient>
<path class="st1" d="M13.9,3.1c-0.2,1.3-0.4,1.6-0.4,2.9c0,0.8,1.5,1.5,1.5,1.5v1c0,0-1.5,0.7-1.5,1.5c0,1.3,0.2,1.6,0.4,2.9
	c0.3,2.1-0.8,3.1-1.8,3.1S10,16,10,16v-2c0,0,1.8,0.2,1.8-1c0-0.9-0.2-0.9-0.4-2.9c-0.1-0.9,0.5-1.6,1.1-2.1c-0.6-0.5-1.2-1.1-1.1-2
	c0.2-2,0.4-2,0.4-2.9C11.8,1.9,10,2,10,2V0c0,0,1,0,2.1,0S14.2,1,13.9,3.1z"/>
</svg>
