<?xml version="1.0" encoding="utf-8"?>
<!-- Generator: Adobe Illustrator 21.0.0, SVG Export Plug-In . SVG Version: 6.00 Build 0)  -->
<svg version="1.1" id="Layer_1" xmlns="http://www.w3.org/2000/svg" xmlns:xlink="http://www.w3.org/1999/xlink" x="0px" y="0px"
	 viewBox="0 0 512 512" style="enable-background:new 0 0 512 512;" xml:space="preserve">
<style type="text/css">
	.st0{fill:#FFFFFF;}
</style>
<g>
	<g>
		<g>
			<path class="st0" d="M465.5,279.3c-12.9,0-23.3,10.4-23.3,23.3c0,38.5-31.3,69.8-69.8,69.8H186.2v-69.8c0-8.9-5.1-17.1-13.2-21
				c-8.1-3.9-17.6-2.8-24.6,2.8L32,377.5c-5.5,4.4-8.7,11.1-8.7,18.2s3.2,13.8,8.7,18.2L148.4,507c4.2,3.4,9.4,5.1,14.5,5.1
				c3.4,0,6.9-0.8,10.1-2.3c8-3.9,13.2-12,13.2-21V419h186.2c64.2,0,116.4-52.2,116.4-116.4C488.7,289.7,478.3,279.3,465.5,279.3z"
				/>
			<path class="st0" d="M46.5,232.7c12.9,0,23.3-10.4,23.3-23.3c0-38.5,31.3-69.8,69.8-69.8h186.2v69.8c0,8.9,5.1,17.1,13.2,21
				c3.2,1.5,6.7,2.3,10.1,2.3c5.2,0,10.3-1.7,14.5-5.1L480,134.5c5.5-4.4,8.7-11.1,8.7-18.2s-3.2-13.8-8.7-18.2l-116.4-93
				c-7-5.6-16.6-6.7-24.6-2.8s-13.2,12-13.2,21v69.8H139.6c-64.2,0-116.4,52.2-116.4,116.4C23.3,222.3,33.7,232.7,46.5,232.7z"/>
		</g>
	</g>
</g>
<g>
	<path class="st0" d="M260.8,323.8h-7.1v-14.6c-9.6-1.1-16.8-3.2-21.6-6.3c-8.4-5.6-12.5-15.2-12.3-28.8h19.8
		c0.7,6.2,1.6,10.3,2.8,12.4c1.9,3.3,5.7,5.4,11.2,6.4v-31.3l-6-1.8c-9.4-2.8-16-6.6-19.8-11.4c-3.8-4.9-5.8-10.8-5.8-17.7
		c0-4.6,0.7-8.7,2.3-12.4c1.5-3.7,3.6-6.9,6.3-9.6c3.5-3.5,7.3-5.9,11.6-7.2c2.6-0.8,6.4-1.4,11.4-1.9v-9.8h7.1v9.9
		c8,0.6,14.2,2.6,18.7,5.9c8.2,5.2,12.5,13.7,12.8,25.5h-19.3c-0.4-4.3-1.1-7.6-2.2-9.5c-1.9-3.5-5.2-5.4-10-5.7v28
		c11.6,4,19.4,7.6,23.4,10.6c6.6,5.2,9.9,12.4,9.9,21.8c0,12.3-4.5,21.3-13.6,26.9c-5.5,3.4-12.1,5.4-19.7,6v14.6H260.8z M253.7,216
		c-4.3,0.1-7.4,1.2-9.5,3.4c-2,2.2-3.1,5.2-3.1,8.9c0,4.1,1.5,7.4,4.6,9.8c1.7,1.3,4.3,2.5,7.9,3.7V216H253.7z M260.8,292.7
		c3.8-0.5,6.6-1.4,8.4-2.6c3-2.3,4.6-6.2,4.6-11.7c0-4.2-1.4-7.6-4.3-10c-1.7-1.4-4.6-2.9-8.6-4.4v28.7H260.8z"/>
</g>
</svg>
