<?xml version="1.0" encoding="utf-8"?>
<!-- Generator: Adobe Illustrator 22.1.0, SVG Export Plug-In . SVG Version: 6.00 Build 0)  -->
<svg version="1.1" id="Capa_1" xmlns="http://www.w3.org/2000/svg" xmlns:xlink="http://www.w3.org/1999/xlink" x="0px" y="0px"
	 viewBox="0 0 639 604" style="enable-background:new 0 0 639 604;" xml:space="preserve">
<style type="text/css">
	.st0{opacity:0.16;fill:url(#SVGID_1_);}
	.st1{fill:#E8E8E8;}
	.st2{fill:#F6F6F6;}
	.st3{opacity:0.16;fill:url(#SVGID_2_);}
	.st4{fill:#7063F1;}
	.st5{fill:none;stroke:#D8D8D8;stroke-width:10;stroke-linecap:round;stroke-miterlimit:10;}
</style>
<g>
	<g>
		<linearGradient id="SVGID_1_" gradientUnits="userSpaceOnUse" x1="251.9793" y1="558.2965" x2="419.5108" y2="268.1234">
			<stop  offset="0" style="stop-color:#454545"/>
			<stop  offset="1" style="stop-color:#454545;stop-opacity:0"/>
		</linearGradient>
		<polygon class="st0" points="49.4,440.3 284.8,577.2 622,386.3 390,251.1 		"/>
		<polygon class="st1" points="50.9,26.5 290.3,165.4 290.3,577.2 259.2,592.3 19.5,39.5 		"/>
		<polygon class="st2" points="18.5,39.5 257.9,178.3 257.9,590.2 18.5,456.1 		"/>
		<linearGradient id="SVGID_2_" gradientUnits="userSpaceOnUse" x1="158.5491" y1="495.9636" x2="389.3662" y2="265.1465">
			<stop  offset="0" style="stop-color:#454545"/>
			<stop  offset="1" style="stop-color:#454545;stop-opacity:0"/>
		</linearGradient>
		<polygon class="st3" points="257.1,594.5 289.5,581.5 289.5,165.3 258.7,179.3 		"/>
	</g>
	<g>
		<path class="st4" d="M184.6,263.8c-0.4,0-0.9,0-1.3-0.1c-2.7-0.4-5.1-2-6.5-4.3l-20.2-33.1c-2.6-4.3-1.3-10,3.1-12.7
			c4.3-2.7,10-1.3,12.7,3.1l14.5,23.7l47-42.3c3.8-3.4,9.6-3.1,13,0.7c3.4,3.8,3.1,9.6-0.7,13l-55.2,49.7
			C189,263,186.8,263.8,184.6,263.8z"/>
	</g>
	<g>
		<path class="st4" d="M184.6,372.8c-0.4,0-0.9,0-1.3-0.1c-2.7-0.4-5.1-2-6.5-4.3l-20.2-33.1c-2.6-4.3-1.3-10,3.1-12.7
			c4.3-2.7,10-1.3,12.7,3.1l14.5,23.7l47-42.3c3.8-3.4,9.6-3.1,13,0.7c3.4,3.8,3.1,9.6-0.7,13l-55.2,49.7
			C189,372,186.8,372.8,184.6,372.8z"/>
	</g>
	<line class="st5" x1="134" y1="222" x2="44" y2="169"/>
	<line class="st5" x1="134" y1="339" x2="44" y2="286"/>
	<line class="st5" x1="134" y1="456" x2="44" y2="403"/>
</g>
</svg>
