<?xml version="1.0"?>
<svg xmlns="http://www.w3.org/2000/svg" height="512px" viewBox="0 0 512 512" width="512px"><path d="m467 182h-15v-137c0-24.8125-20.1875-45-45-45h-362c-24.8125 0-45 20.1875-45 45v242c0 24.8125 20.1875 45 45 45h15v135c0 24.8125 20.1875 45 45 45h362c24.8125 0 45-20.1875 45-45v-240c0-24.8125-20.1875-45-45-45zm15 45v195h-392v-195c0-8.269531 6.730469-15 15-15h362c8.269531 0 15 6.730469 15 15zm-452-137h392v30h-392zm15-60h362c8.269531 0 15 6.730469 15 15v15h-392v-15c0-8.269531 6.730469-15 15-15zm0 272c-8.269531 0-15-6.730469-15-15v-137h392v32h-317c-24.8125 0-45 20.1875-45 45v75zm422 180h-362c-8.269531 0-15-6.730469-15-15v-15h392v15c0 8.269531-6.730469 15-15 15zm0 0" fill="#ff643e"/><path d="m227 272h-92c-8.285156 0-15 6.714844-15 15v60c0 8.285156 6.714844 15 15 15h92c8.285156 0 15-6.714844 15-15v-60c0-8.285156-6.714844-15-15-15zm-15 60h-62v-30h62zm0 0" fill="#ff643e"/><path d="m287 302h30c8.285156 0 15-6.714844 15-15s-6.714844-15-15-15h-30c-8.285156 0-15 6.714844-15 15s6.714844 15 15 15zm0 0" fill="#ff643e"/><path d="m377 272c-8.285156 0-15 6.714844-15 15s6.714844 15 15 15h60c8.285156 0 15-6.714844 15-15s-6.714844-15-15-15zm0 0" fill="#ff643e"/><path d="m347 332h-60c-8.285156 0-15 6.714844-15 15s6.714844 15 15 15h60c8.285156 0 15-6.714844 15-15s-6.714844-15-15-15zm0 0" fill="#ff643e"/><path d="m437 332h-30c-8.285156 0-15 6.714844-15 15s6.714844 15 15 15h30c8.285156 0 15-6.714844 15-15s-6.714844-15-15-15zm0 0" fill="#ff643e"/></svg>
