<?xml version="1.0" encoding="iso-8859-1"?>
<!-- Generator: Adobe Illustrator 19.0.0, SVG Export Plug-In . SVG Version: 6.00 Build 0)  -->
<svg xmlns="http://www.w3.org/2000/svg" xmlns:xlink="http://www.w3.org/1999/xlink" version="1.1" id="Capa_1" x="0px" y="0px" viewBox="0 0 512 512" style="enable-background:new 0 0 512 512;" xml:space="preserve" width="512px" height="512px">
<g>
	<g>
		<g>
			<polygon points="153.858,359.246 182.143,387.531 236,333.673 236,512 276,512 276,332.896 330.634,387.531 358.919,359.247      256.389,256.716    " fill="#333333"/>
			<path d="M324.342,268.101C343.813,248.018,356,219.486,356,187.878C356,127.224,311.141,78,256,78s-100,49.224-100,109.878     c0,31.815,12.347,60.513,32.041,80.616l28.227-28.227C203.849,227.433,196,208.71,196,187.878c0-38.598,26.916-70,60-70     s60,31.402,60,70c0,20.618-7.684,39.177-19.882,51.999L324.342,268.101z" fill="#333333"/>
			<path d="M452,0H60C26.916,0,0,26.916,0,60v256c0,33.084,26.916,60,60,60h60v-60c0-33.084-26.916-60-60-60c-6.989,0-20,0-20-32     v-72c0-32,13.011-32,20-32c33.084,0,60-26.916,60-60c0-11.589,12.617-20,30-20h212c17.383,0,30,8.411,30,20     c0,33.084,26.916,60,60,60c6.989,0,20,0,20,32v72c0,32-13.011,32-20,32c-33.084,0-60,26.916-60,60v60h60     c33.084,0,60-26.916,60-60V60C512,26.916,485.084,0,452,0z M60,296c11.028,0,20,8.972,20,20v20H60c-11.028,0-20-8.972-20-20     v-23.027C46.144,294.965,52.839,296,60,296z M80,60c0,11.028-8.972,20-20,20c-7.161,0-13.856,1.036-20,3.027V60     c0-11.028,8.972-20,20-20h23.707C81.308,46.206,80,52.919,80,60z M472,316c0,11.028-8.972,20-20,20h-20v-20     c0-11.028,8.972-20,20-20c7.161,0,13.856-1.035,20-3.027V316z M472,83.027C465.856,81.036,459.161,80,452,80     c-11.028,0-20-8.972-20-20c0-7.081-1.308-13.794-3.707-20H452c11.028,0,20,8.972,20,20V83.027z" fill="#333333"/>
			<circle cx="415" cy="188" r="20" fill="#333333"/>
			<circle cx="97" cy="186" r="20" fill="#333333"/>
		</g>
	</g>
</g>
<g>
</g>
<g>
</g>
<g>
</g>
<g>
</g>
<g>
</g>
<g>
</g>
<g>
</g>
<g>
</g>
<g>
</g>
<g>
</g>
<g>
</g>
<g>
</g>
<g>
</g>
<g>
</g>
<g>
</g>
</svg>
