<?xml version="1.0" encoding="utf-8"?>
<!-- Generator: Adobe Illustrator 21.0.0, SVG Export Plug-In . SVG Version: 6.00 Build 0)  -->
<svg version="1.1" id="Capa_1" xmlns="http://www.w3.org/2000/svg" xmlns:xlink="http://www.w3.org/1999/xlink" x="0px" y="0px"
	 viewBox="0 0 464.8 464.8" style="enable-background:new 0 0 464.8 464.8;" xml:space="preserve">
<style type="text/css">
	.st0{fill:url(#SVGID_1_);}
	.st1{fill:url(#SVGID_2_);}
</style>
<g>
	<g id="Layer_2_15_">
		<g>
			<linearGradient id="SVGID_1_" gradientUnits="userSpaceOnUse" x1="6.009617e-03" y1="232.4061" x2="464.8025" y2="232.4061">
				<stop  offset="0" style="stop-color:#FD643E"/>
				<stop  offset="0.7034" style="stop-color:#F84E39"/>
				<stop  offset="1" style="stop-color:#F54336"/>
			</linearGradient>
			<path class="st0" d="M416.6,90.8C378.8,41.6,324.1,10.1,262.5,2c-60.9-8-121.3,8-170.3,45.1L74.5,29.3c-5.1-5.1-9.7-3.4-10.4,3.7
				l-5.8,63.5c-0.7,7.1,4.6,12.4,11.8,11.8l63.5-5.7c7.1-0.6,8.8-5.3,3.8-10.4L119,73.8c40.3-28.9,89.3-41.2,138.7-34.8
				c51.7,6.8,97.6,33.2,129.3,74.5c31.7,41.3,45.5,92.5,38.7,144.1c-4.8,36.7-19.5,70.5-42.5,98.4c-9.4,11.4-20.1,21.8-32.1,31
				c-41.3,31.7-92.5,45.5-144.1,38.7c-51.6-6.8-97.6-33.2-129.3-74.5C46.9,311,33,261.1,38.6,210.7c1.2-10.3-6.2-19.5-16.5-20.7
				c-10.3-1.2-19.5,6.2-20.6,16.5c-6.8,60.1,9.8,119.6,46.7,167.5c37.8,49.2,92.5,80.8,154.1,88.8c61.5,8,122.5-8.3,171.8-46.2
				c14.3-11,27-23.3,38.2-36.9c27.3-33.2,44.9-73.5,50.6-117.2C470.9,201,454.5,140,416.6,90.8z"/>
			<linearGradient id="SVGID_2_" gradientUnits="userSpaceOnUse" x1="208.148" y1="200.5665" x2="368.0946" y2="200.5665">
				<stop  offset="0" style="stop-color:#FD643E"/>
				<stop  offset="0.7034" style="stop-color:#F84E39"/>
				<stop  offset="1" style="stop-color:#F54336"/>
			</linearGradient>
			<path class="st1" d="M223.3,81.2c-8.4,0-15.1,6.8-15.1,15.1V247L346,318.3c2.2,1.2,4.6,1.7,6.9,1.7c5.5,0,10.8-3,13.5-8.2
				c3.8-7.4,0.9-16.5-6.5-20.4l-121.5-62.8V96.3C238.4,87.9,231.6,81.2,223.3,81.2z"/>
		</g>
	</g>
</g>
</svg>
