<?xml version="1.0" encoding="utf-8"?>
<!-- Generator: Adobe Illustrator 21.0.0, SVG Export Plug-In . SVG Version: 6.00 Build 0)  -->
<svg version="1.1" id="Capa_1" xmlns="http://www.w3.org/2000/svg" xmlns:xlink="http://www.w3.org/1999/xlink" x="0px" y="0px"
	 viewBox="0 0 310 310" style="enable-background:new 0 0 310 310;" xml:space="preserve">
<style type="text/css">
	.st0{fill:#FFFFFF;}
</style>
<path class="st0" d="M300.6,159.7l-45.3-45.3c-5.9-5.9-15.4-5.9-21.2,0l-9.1,9.1V15c0-8.3-6.7-15-15-15H20C11.7,0,5,6.7,5,15v240
	c0,8.3,6.7,15,15,15h85v25c0,8.3,6.7,15,15,15h45.3c4,0,7.8-1.6,10.6-4.4l124.7-124.7C306.5,175.1,306.5,165.6,300.6,159.7z M35,30
	h160v123.5l-85.6,85.6c-0.3,0.3-0.6,0.6-0.9,0.9H35V30z M159.1,280H135v-24.1l109.7-109.7l24.1,24.1L159.1,280z"/>
</svg>
