<?xml version="1.0" encoding="utf-8"?>
<!-- Generator: Adobe Illustrator 21.0.0, SVG Export Plug-In . SVG Version: 6.00 Build 0)  -->
<svg version="1.1" id="Capa_1" xmlns="http://www.w3.org/2000/svg" xmlns:xlink="http://www.w3.org/1999/xlink" x="0px" y="0px"
	 viewBox="0 0 58 58" style="enable-background:new 0 0 58 58;" xml:space="preserve">
<style type="text/css">
	.st0{opacity:0.5;fill:url(#SVGID_1_);}
	.st1{fill:#F0785A;}
	.st2{fill:#B35A5B;}
	.st3{fill:#B0D3F0;}
	.st4{fill:#ED7161;}
	.st5{fill:#F0C419;}
	.st6{fill:#F3D55B;}
	.st7{fill:#D36259;}
	.st8{fill:#FFFFFF;}
	.st9{fill:#CB8252;}
	.st10{fill:#7F6E5D;}
	.st11{fill:#24AE5F;}
</style>
<linearGradient id="SVGID_1_" gradientUnits="userSpaceOnUse" x1="0" y1="29" x2="58" y2="29">
	<stop  offset="0" style="stop-color:#FE5C3C"/>
	<stop  offset="1" style="stop-color:#FB4838"/>
</linearGradient>
<path class="st0" d="M29,0c16,0,29,13,29,29S45,58,29,58S0,45,0,29S13,0,29,0z"/>
<g>
	<polygon class="st1" points="9,15.4 9,23.4 9,29.5 9,50.8 12.8,50.8 49.7,50.8 49.7,23.4 49.7,15.4 	"/>
	<rect x="10.6" y="29" class="st2" width="21.1" height="17.3"/>
	<rect x="12.1" y="30.5" class="st3" width="18.1" height="14.3"/>
	<path class="st4" d="M18.8,15.4H8.6c-0.1,0-0.2-0.1-0.2-0.3l3.1-6.6c0.4-0.8,1.2-1.4,2.1-1.4h6.8L18.8,15.4z"/>
	<polygon class="st4" points="39.9,15.4 29.4,15.4 29.4,7.2 38.4,7.2 	"/>
	<path class="st5" d="M24.1,26L24.1,26c-2.9,0-5.3-2.4-5.3-5.3v-5.3h10.5v5.3C29.4,23.6,27,26,24.1,26z"/>
	<path class="st5" d="M45.2,26L45.2,26c-2.9,0-5.3-2.4-5.3-5.3v-5.3h10.5c0,0,0.1,0,0.1,0.1v5.2C50.5,23.6,48.1,26,45.2,26z"/>
	<polygon class="st6" points="29.4,15.4 18.8,15.4 20.3,7.2 29.4,7.2 	"/>
	<path class="st6" d="M50.2,15.4H39.9l-1.5-8.3h6.8c0.9,0,1.7,0.5,2.1,1.4l3.1,6.7C50.4,15.3,50.3,15.4,50.2,15.4z"/>
	<path class="st7" d="M13.6,26L13.6,26c-2.9,0-5.3-2.4-5.3-5.3v-5.1c0-0.1,0.1-0.2,0.2-0.2h10.3v5.3C18.8,23.6,16.5,26,13.6,26z"/>
	<path class="st7" d="M34.6,26L34.6,26c-2.9,0-5.3-2.4-5.3-5.3v-5.3h10.5v5.3C39.9,23.6,37.6,26,34.6,26z"/>
	<rect x="34.6" y="29" class="st2" width="12" height="21.8"/>
	<rect x="36.2" y="30.5" class="st3" width="9" height="18.8"/>
	<path class="st8" d="M43.7,42.6c-0.4,0-0.8-0.3-0.8-0.8v-2.3c0-0.4,0.3-0.8,0.8-0.8s0.8,0.3,0.8,0.8v2.3
		C44.4,42.2,44.1,42.6,43.7,42.6z"/>
	<g>
		<path class="st8" d="M20.3,35.8c0.2,0,0.4-0.1,0.5-0.2l3-3c0.3-0.3,0.3-0.8,0-1.1c-0.3-0.3-0.8-0.3-1.1,0l-3,3
			c-0.3,0.3-0.3,0.8,0,1.1C20,35.7,20.1,35.8,20.3,35.8z"/>
		<path class="st8" d="M20.3,39.5c0.2,0,0.4-0.1,0.5-0.2l1.5-1.5c0.3-0.3,0.3-0.8,0-1.1c-0.3-0.3-0.8-0.3-1.1,0l-1.5,1.5
			c-0.3,0.3-0.3,0.8,0,1.1C20,39.5,20.1,39.5,20.3,39.5z"/>
		<path class="st8" d="M22.8,35.2c-0.1,0.1-0.2,0.3-0.2,0.5c0,0.2,0.1,0.4,0.2,0.5c0.1,0.1,0.3,0.2,0.5,0.2c0.2,0,0.4-0.1,0.5-0.2
			c0.1-0.1,0.2-0.3,0.2-0.5c0-0.2-0.1-0.4-0.2-0.5C23.6,35,23.1,35,22.8,35.2z"/>
		<path class="st8" d="M24.3,34.8c0.1,0.1,0.3,0.2,0.5,0.2s0.4-0.1,0.5-0.2l2.3-2.3c0.3-0.3,0.3-0.8,0-1.1c-0.3-0.3-0.8-0.3-1.1,0
			l-2.3,2.3C24,34,24,34.5,24.3,34.8z"/>
		<path class="st8" d="M26.6,35.2L19.8,42c-0.3,0.3-0.3,0.8,0,1.1c0.1,0.1,0.3,0.2,0.5,0.2s0.4-0.1,0.5-0.2l6.8-6.8
			c0.3-0.3,0.3-0.8,0-1.1S26.9,34.9,26.6,35.2z"/>
		<path class="st8" d="M29.2,33.7c-0.3-0.3-0.8-0.3-1.1,0c-0.1,0.1-0.2,0.3-0.2,0.5s0.1,0.4,0.2,0.5c0.1,0.1,0.3,0.2,0.5,0.2
			s0.4-0.1,0.5-0.2c0.1-0.1,0.2-0.3,0.2-0.5S29.3,33.9,29.2,33.7z"/>
	</g>
	<path class="st9" d="M12.8,50.8H8.3l-0.7-4.1c0-0.2,0.1-0.4,0.3-0.4h5.6L12.8,50.8z"/>
	<rect x="9.8" y="38" class="st10" width="1.5" height="8.3"/>
	<path class="st11" d="M13.7,34.8c0.2-0.6,0.4-1.2,0.3-1.8c-0.1-0.3-0.2-0.5-0.3-0.7c-0.3-0.3-0.4-0.8-0.3-1.3
		c0.1-0.4,0-0.9-0.2-1.3c-0.4-0.7-1.1-1.1-1.8-1.2c-0.5-0.1-1.1,0-1.5,0.4l-0.5,0.4c-0.5,0.2-0.9,0.8-1,1.4c-0.1,0.3,0,0.7,0.1,1
		c0.1,0.5,0,1-0.3,1.4c-0.6,0.9-0.8,2.3-0.3,3.3c0.1,0.1,0.1,0.3,0.2,0.4c0.3,0.4,0.4,1,0.3,1.5c0,0.1,0,0.2-0.1,0.4
		c0,0.5,0.1,1.1,0.2,1.6c0.1,0.6,0.3,1.2,0.7,1.5c0.6,0.5,1.3,0.3,2,0c0.9-0.5,1.7-1.2,2-2.3c0.2-0.6,0.1-1.3-0.1-1.9
		c-0.2-0.6-0.2-1.3,0.1-1.8C13.4,35.5,13.6,35.2,13.7,34.8z"/>
</g>
</svg>
