<?xml version="1.0" encoding="utf-8"?>
<!-- Generator: Adobe Illustrator 21.0.0, SVG Export Plug-In . SVG Version: 6.00 Build 0)  -->
<svg version="1.1" id="Layer_1" xmlns="http://www.w3.org/2000/svg" xmlns:xlink="http://www.w3.org/1999/xlink" x="0px" y="0px"
	 viewBox="0 0 512 512" style="enable-background:new 0 0 512 512;" xml:space="preserve">
<style type="text/css">
	.st0{opacity:0.5;fill:url(#SVGID_1_);}
	.st1{fill:#807D7D;}
	.st2{fill:#666666;}
	.st3{fill:#FFFFFF;}
	.st4{fill:#ECF0F1;}
	.st5{fill:#C3CCCF;}
	.st6{fill:#FF5B61;}
	.st7{fill:#F0B97D;}
	.st8{fill:#F1F1F1;}
	.st9{fill:#15BDB1;}
	.st10{fill:#20D0C2;}
	.st11{fill:#FED198;}
	.st12{fill:#FBB429;}
	.st13{fill:#C8CACC;}
</style>
<linearGradient id="SVGID_1_" gradientUnits="userSpaceOnUse" x1="0" y1="256" x2="512" y2="256">
	<stop  offset="0" style="stop-color:#FE5C3C"/>
	<stop  offset="1" style="stop-color:#FB4838"/>
</linearGradient>
<path class="st0" d="M256,0c141.4,0,256,114.6,256,256S397.4,512,256,512S0,397.4,0,256S114.6,0,256,0z"/>
<path class="st1" d="M14.1,370.5h483.8v16.6c0,9.1-7.5,16.6-16.6,16.6H30.7c-9.1,0-16.6-7.5-16.6-16.6L14.1,370.5L14.1,370.5z"/>
<path class="st2" d="M189.7,370.5h132.6v4.9c0,2.7-2.2,4.9-4.9,4.9H194.6c-2.7,0-4.9-2.2-4.9-4.9L189.7,370.5L189.7,370.5z"/>
<path class="st1" d="M60.8,108.3h390.5c4.8,0,8.7,3.9,8.7,8.7v239.3c0,4.8-3.9,8.7-8.7,8.7H60.8c-4.8,0-8.7-3.9-8.7-8.7V117
	C52.1,112.2,56,108.3,60.8,108.3z"/>
<path class="st3" d="M70.3,125.7h371.5v226.4H70.3V125.7z"/>
<path class="st4" d="M95.5,152.8h211.6v135.1H95.5V152.8z"/>
<g>
	<path class="st5" d="M322.7,202.4H373v32.1h-50.3L322.7,202.4L322.7,202.4z"/>
	<path class="st5" d="M322.7,152.8H373v32.1h-50.3L322.7,152.8L322.7,152.8z"/>
	<path class="st5" d="M322.7,252H373v32.1h-50.3L322.7,252L322.7,252z"/>
</g>
<g>
	<path class="st3" d="M341.5,160.4l12.8,8.5l-12.8,8.5V160.4L341.5,160.4z"/>
	<path class="st3" d="M341.5,210l12.8,8.5l-12.8,8.5V210L341.5,210z"/>
	<path class="st3" d="M341.5,259.5l12.8,8.5l-12.8,8.5V259.5L341.5,259.5z"/>
</g>
<path class="st6" d="M70.3,125.7h37.8v14.2H70.3V125.7z"/>
<path class="st7" d="M189.2,226.4h4.8h14.6h4.8l2,20.4l3.5,2.8l7.3,4.7l-14.3,33.7h-21.2l-14.2-33.7l7.3-4.7l3.5-2.8L189.2,226.4z"
	/>
<path class="st8" d="M181.2,251.1l-20,6.4l22,30.4h33l19.2-32.3l-14.2-4.5l-12.5,8.8h-14.9L181.2,251.1L181.2,251.1L181.2,251.1z"/>
<path class="st6" d="M196.8,259.1l1.7,4.2l-1.9,24.6h9.4l-1.9-24.6l1.7-4.2l-4.5-0.2L196.8,259.1L196.8,259.1z"/>
<path class="st9" d="M181.6,251l-35.4,11.3c0,0-4.6,2.4-6,9.6c-1,5-1.6,10-2.2,16h56L181.6,251L181.6,251z M264.6,287.9L264.6,287.9
	c-0.7-6-1.3-11-2.2-16c-1.4-7.3-6-9.6-6-9.6l-35.2-11.2l-12.5,36.8L264.6,287.9L264.6,287.9z"/>
<path class="st10" d="M181.6,251l-7.6,2.4l-1.5,19.4c0,0,0.4,1.6,1.6,1.5l6.9,2.6c0,0,0.4,0.5,0,1l-5.9,4l3.2,6H194L181.6,251z
	 M224.3,287.9L224.3,287.9l3.2-6l-5.9-4c-0.4-0.6,0-1,0-1l6.9-2.6c1.2,0.1,1.6-1.5,1.6-1.5l-1.5-19.3l-7.4-2.4l-12.5,36.8
	L224.3,287.9L224.3,287.9z"/>
<path class="st11" d="M173.1,185c0,1.9-0.7,3.7-0.6,5.6c-6.5-1.2-3.3,18,0.3,20.7c0.3,0.2,1-0.3,1.6-0.6c1.3,7.1,12.1,26,19,33.9
	c1.9,2.2,13.6,2.2,15.5,0.1c7.1-7.8,17.9-26.9,19.2-34c0.6,0.4,1.3,0.9,1.6,0.6c3.7-2.6,6.8-21.9,0.3-20.7c0.1-1.8-0.6-3.7-0.6-5.6
	c-0.4-14.9-13.9-22.4-28.1-22.5C187,162.6,173.5,170,173.1,185z"/>
<path class="st2" d="M181.8,165.8c-2-0.2-9.4,2-10.3,9.8s-0.5,15-0.5,15s4.3,1.1,4.9,5.5c0.5,4.4,0.2,4.4,0.2,4.4l1.6-0.4l1.1-7.6
	c6.5-4.1,0-10.1,6.4-11.5c17.5,12.5,32.9,10.3,39.8,4.5c0,0-1.6,6.1-0.4,8.3c1.2,2.2,0.5,5.6,0.5,5.6l1.6-0.1c0,0-0.3-9,3.3-9
	C243.8,167.9,200.4,139.8,181.8,165.8z"/>
<g>
	<path class="st3" d="M187.1,243.9c0.5,0-5.9,7.3-5.9,7.3l5.5,18.7l14.7-10.9C193.2,255,188.4,249.8,187.1,243.9z"/>
	<path class="st3" d="M215.5,243.9c-0.5,0,5.9,7.3,5.9,7.3l-5.5,18.7l-14.7-10.9C209.3,255,214.1,249.8,215.5,243.9L215.5,243.9
		L215.5,243.9z"/>
</g>
<path class="st2" d="M193.3,227l4-2.7c1.2,1.1,7,1.1,8.2,0l3.7,2.7c1.8,1.3,3.6,1.8,4.1,3.8l1.5,6.6c0.5,2.1-3.6,9-5.9,9H193
	c-2.2,0-5.3-6.6-5-8.7l1.2-6.9C189.6,228.8,191.5,228.3,193.3,227L193.3,227L193.3,227z M200.2,228.6L200.2,228.6l-7.8,4.1
	c0,0,0.4,4.5,1.4,5.9c1,1.4,5-0.3,5-0.3s0-3.5,1.2-3.5c0,0,2.6,0,2.6,0c1.2-0.1,1.2,3.5,1.2,3.5s4,1.7,5,0.3c1-1.4,1.4-5.9,1.4-5.9
	l-7.8-4.1l-1,0.3L200.2,228.6L200.2,228.6z"/>
<path class="st12" d="M95.5,297.4h211.6v-9.5H95.5V297.4z"/>
<path class="st4" d="M95.5,270.3c12.4,0,22.4,10,22.4,22.4c0,12.4-10,22.4-22.4,22.4s-22.4-10-22.4-22.4
	C73.1,280.3,83.1,270.3,95.5,270.3z"/>
<path class="st6" d="M95.5,271.8c11.6,0,20.9,9.4,20.9,20.9s-9.4,20.9-20.9,20.9c-11.5,0-20.9-9.4-20.9-20.9
	C74.6,281.1,83.9,271.8,95.5,271.8z"/>
<path class="st3" d="M87.6,280.1l18.9,12.5l-18.9,12.5V280.1z"/>
<g>
	<path class="st13" d="M241.1,297.4h66v-9.5h-66V297.4z"/>
	<path class="st13" d="M129.6,314.1h149.7v4.7H129.6V314.1z M129.6,328.5L129.6,328.5H221v4.7h-91.4V328.5z"/>
	<path class="st13" d="M383.8,153.4h44.6v4.7h-44.6V153.4z M383.8,163.7L383.8,163.7H411v4.7h-27.2V163.7z"/>
	<path class="st13" d="M383.8,200.7h44.6v4.7h-44.6V200.7z M383.8,211L383.8,211H411v4.7h-27.2V211z"/>
	<path class="st13" d="M383.8,252.3h44.6v4.7h-44.6V252.3z M383.8,262.6L383.8,262.6H411v4.7h-27.2V262.6z"/>
</g>
<path class="st5" d="M322.7,301.1H373v32.1h-50.3L322.7,301.1L322.7,301.1z"/>
<path class="st3" d="M341.5,308.7l12.8,8.5l-12.8,8.5V308.7L341.5,308.7z"/>
<path class="st13" d="M383.8,301.5h44.6v4.7h-44.6V301.5z M383.8,311.8L383.8,311.8H411v4.7h-27.2V311.8z"/>
<path class="st4" d="M441.8,125.7H108.1v14.2h333.6V125.7z"/>
<path class="st2" d="M104,364.9h27v5.6h-27V364.9z M381,364.9L381,364.9h27v5.6h-27V364.9z"/>
</svg>
