<?xml version="1.0" encoding="utf-8"?>
<!-- Generator: Adobe Illustrator 21.0.0, SVG Export Plug-In . SVG Version: 6.00 Build 0)  -->
<svg version="1.1" id="Layer_1" xmlns="http://www.w3.org/2000/svg" xmlns:xlink="http://www.w3.org/1999/xlink" x="0px" y="0px"
	 viewBox="0 0 501.9 501.9" style="enable-background:new 0 0 501.9 501.9;" xml:space="preserve">
<style type="text/css">
	.st0{opacity:0.5;fill:url(#SVGID_1_);enable-background:new    ;}
	.st1{display:none;opacity:0.5;fill:url(#SVGID_2_);enable-background:new    ;}
	.st2{fill:#F8B64C;}
	.st3{fill:#FFD15C;}
	.st4{fill:#FF7058;}
	.st5{fill:#F2F2F2;}
	.st6{fill:#40596B;}
	.st7{fill:#84DBFF;}
	.st8{fill:#54C0EB;}
</style>
<linearGradient id="SVGID_1_" gradientUnits="userSpaceOnUse" x1="2.15" y1="252" x2="501.85" y2="252" gradientTransform="matrix(1 0 0 -1 0 504)">
	<stop  offset="0" style="stop-color:#FE5C3C"/>
	<stop  offset="1" style="stop-color:#FB4838"/>
</linearGradient>
<path class="st0" d="M252,2.1C390,2.1,501.9,114,501.9,252S390,501.9,252,501.9S2.1,390,2.1,252S114,2.1,252,2.1z"/>
<linearGradient id="SVGID_2_" gradientUnits="userSpaceOnUse" x1="2.15" y1="252" x2="501.85" y2="252" gradientTransform="matrix(1 0 0 -1 0 504)">
	<stop  offset="0" style="stop-color:#FE5C3C"/>
	<stop  offset="1" style="stop-color:#FB4838"/>
</linearGradient>
<path class="st1" d="M252,2.1C390,2.1,501.9,114,501.9,252S390,501.9,252,501.9S2.1,390,2.1,252S114,2.1,252,2.1z"/>
<g>
	<path class="st2" d="M323.7,294.6l-29.9-0.8l0.8,29.9c0.8,48.5,41.2,88.1,89.7,89.7l29.9,0.8l-0.8-29.9
		C411.7,335.8,372.1,295.4,323.7,294.6z"/>
	<path class="st3" d="M331.7,310.7l-21-0.8l0.8,21c0.8,34.8,29.9,63.8,64.7,64.7l21,0.8l-0.8-21
		C395.6,340.6,366.5,311.5,331.7,310.7z"/>
	<path class="st4" d="M444.9,292.1c-4-7.3-9.7-13.7-15.4-19.4c-14.5-14.5-32.3-24.2-51.7-29.1c-36.4-8.9-76.8,0.8-105.1,29.1
		s-38,68.7-29.1,105.1c4.8,18.6,14.5,37.2,29.1,51.7c5.7,5.7,12.9,11.3,19.4,15.4c-42,1.6-85.7-13.7-118-46.1
		c-25.9-25.9-40.4-57.4-45.3-90.5c-6.5-47.7,8.9-97,45.3-133.3s86.5-51.7,133.3-45.3c33.1,4.8,65.5,19.4,90.5,45.3
		C431.1,206.5,446.5,250.1,444.9,292.1z"/>
	<path class="st5" d="M375.4,292.9C352.8,154.8,234,52.9,86.9,57l-29.1,0.8L57,86.9c-4,147.1,97.8,265.9,236,288.5L375.4,292.9z"/>
	<g>
		<path class="st6" d="M229.9,357.6c20.2,8.1,41.2,13.7,63,17.8l81.6-81.6c-3.2-21.8-9.7-42.8-17.8-63L229.9,357.6z"/>
		<path class="st6" d="M183,69.9C153.1,61,120.8,56.2,86.9,57l-29.1,0.8L57,86.9c-0.8,33.9,4,66.3,12.9,96.2L183,69.9z"/>
	</g>
	<path class="st5" d="M292.9,375.4c8.1,1.6,17,2.4,25.1,3.2l59.8-59.8c-0.8-8.9-1.6-17-3.2-25.1L292.9,375.4z"/>
	<ellipse class="st6" cx="191.8" cy="192.2" rx="62.2" ry="62.2"/>
	<ellipse class="st7" cx="191.8" cy="192.2" rx="43.6" ry="43.6"/>
	<path class="st8" d="M164.5,170.9c15.4-15.4,39.6-15.4,55,0c14.5,14.5,15.4,38,1.6,53.3c0.8-0.8,1.6-0.8,1.6-1.6
		c17-17,17-44.4,0-61.4s-44.4-17-61.4,0s-17,44.4,0,61.4c0.8,0.8,1.6,0.8,1.6,1.6C149.9,208.9,149.9,185.5,164.5,170.9z"/>
</g>
</svg>
