<?xml version="1.0" encoding="utf-8"?>
<!-- Generator: Adobe Illustrator 21.0.0, SVG Export Plug-In . SVG Version: 6.00 Build 0)  -->
<svg version="1.1" id="Capa_1" xmlns="http://www.w3.org/2000/svg" xmlns:xlink="http://www.w3.org/1999/xlink" x="0px" y="0px"
	 viewBox="0 0 512 512" style="enable-background:new 0 0 512 512;" xml:space="preserve">
<style type="text/css">
	.st0{fill:#333333;}
</style>
<g>
	<g id="Layer_1_64_">
		<g>
			<path class="st0" d="M244.4,244.3c0,6.4,5.2,11.6,11.6,11.6c6.4,0,11.6-5.2,11.6-11.6c0-13.6,4.8-26.9,13.6-37.3
				c19.5-23.2,34.2-48.3,43.4-74.6c1.3-3.6,0.7-7.5-1.5-10.6c-2.2-3.1-5.7-4.9-9.5-4.9H198.2c-3.8,0-7.3,1.8-9.5,4.9
				c-2.2,3.1-2.7,7-1.5,10.6c9.3,26.4,23.9,51.5,43.4,74.6C239.5,217.5,244.3,230.7,244.4,244.3z"/>
			<path class="st0" d="M267.6,291c0-6.4-5.2-11.6-11.6-11.6c-6.4,0-11.6,5.2-11.6,11.6c0,16.8-10,33.4-28.2,46.9
				c-38.9,28.7-68.1,60-86.6,92.8c-2,3.6-2,8,0.1,11.6c2.1,3.6,5.9,5.8,10,5.8h232.7c4.1,0,8-2.2,10-5.8c2.1-3.6,2.1-8,0.1-11.6
				c-18.5-32.8-47.7-64.1-86.6-92.8C277.7,324.4,267.6,307.8,267.6,291z"/>
			<path class="st0" d="M459.6,465.5h-7c-8-90.6-61-160.1-102.2-209.5c41.2-49.4,94.2-118.9,102.3-209.5h7
				c12.9,0,23.3-10.4,23.3-23.3c0-12.9-10.4-23.3-23.3-23.3H52.4C39.5,0,29.1,10.4,29.1,23.3c0,12.9,10.4,23.3,23.3,23.3h7
				c8,90.6,61,160.1,102.2,209.5c-41.2,49.4-94.2,118.9-102.3,209.5h-6.9c-12.9,0-23.3,10.4-23.3,23.3c0,12.9,10.4,23.3,23.3,23.3
				h29.1h349.1h29.1c12.9,0,23.3-10.4,23.3-23.3C482.9,475.9,472.5,465.5,459.6,465.5z M106,465.5c8.7-81.8,61.9-144.8,101.7-191.9
				l2.1-2.5c7.3-8.7,7.3-21.3,0-30l-2.1-2.5c-39.7-47.1-93-110.1-101.7-191.9h300c-8.7,81.8-62,144.8-101.7,191.9l-2.1,2.5
				c-7.3,8.7-7.3,21.3,0,30l2.1,2.5c39.7,47.1,92.9,110.1,101.7,191.9L106,465.5L106,465.5z"/>
		</g>
	</g>
</g>
</svg>
