<?xml version="1.0" encoding="utf-8"?>
<!-- Generator: Adobe Illustrator 21.0.0, SVG Export Plug-In . SVG Version: 6.00 Build 0)  -->
<svg version="1.1" id="Layer_1" xmlns="http://www.w3.org/2000/svg" xmlns:xlink="http://www.w3.org/1999/xlink" x="0px" y="0px"
	 viewBox="0 0 512 512" style="enable-background:new 0 0 512 512;" xml:space="preserve">
<style type="text/css">
	.st0{fill:url(#SVGID_1_);}
	.st1{fill:url(#SVGID_2_);}
</style>
<g>
	<g>
		<g>
			<linearGradient id="SVGID_1_" gradientUnits="userSpaceOnUse" x1="149.3291" y1="197.8881" x2="512" y2="197.8881">
				<stop  offset="0" style="stop-color:#FD643E"/>
				<stop  offset="0.7034" style="stop-color:#F84E39"/>
				<stop  offset="1" style="stop-color:#F54336"/>
			</linearGradient>
			<path class="st0" d="M341.6,85.3c-0.1,0-0.2,0-0.2,0H222.2l27.6-27.6c8.3-8.3,8.3-21.8,0-30.2c-8.3-8.3-21.8-8.3-30.2,0l-64,64
				c-0.5,0.5-1,1-1.4,1.6c-0.2,0.2-0.4,0.5-0.6,0.8c-0.2,0.3-0.5,0.6-0.7,0.9c-0.2,0.3-0.4,0.6-0.6,0.9c-0.2,0.3-0.4,0.6-0.5,0.9
				c-0.2,0.3-0.3,0.6-0.5,1c-0.1,0.3-0.3,0.6-0.4,0.9c-0.1,0.3-0.2,0.6-0.3,1c-0.1,0.3-0.3,0.7-0.4,1c-0.1,0.3-0.2,0.6-0.2,1
				c-0.1,0.4-0.2,0.7-0.3,1.1c-0.1,0.4-0.1,0.7-0.2,1.1c0,0.3-0.1,0.6-0.1,0.9c-0.1,0.7-0.1,1.4-0.1,2.1c0,0,0,0,0,0c0,0,0,0,0,0
				c0,0.7,0,1.4,0.1,2.1c0,0.3,0.1,0.6,0.1,0.9c0.1,0.4,0.1,0.8,0.2,1.1c0.1,0.4,0.2,0.7,0.3,1.1c0.1,0.3,0.2,0.6,0.2,1
				c0.1,0.3,0.2,0.7,0.4,1c0.1,0.3,0.2,0.6,0.3,1c0.1,0.3,0.3,0.6,0.4,0.9c0.2,0.3,0.3,0.6,0.5,1c0.2,0.3,0.3,0.6,0.5,0.9
				c0.2,0.3,0.4,0.6,0.6,0.9c0.2,0.3,0.4,0.6,0.7,0.9c0.2,0.3,0.4,0.5,0.6,0.8c0.4,0.5,0.9,1.1,1.4,1.6l64,64
				c8.3,8.3,21.8,8.3,30.2,0c8.3-8.3,8.3-21.8,0-30.2L222.2,128h119c0.1,0,0.1,0,0.2,0c70.8,0,128,57.2,128,128
				c0,31.1-12.4,60.3-34.1,82c-8.3,8.3-8.3,21.8,0,30.2s21.8,8.3,30.2,0C495,338.6,512,298.5,512,256
				C512,161.7,435.8,85.5,341.6,85.3z"/>
			<linearGradient id="SVGID_2_" gradientUnits="userSpaceOnUse" x1="0" y1="314.1115" x2="362.6674" y2="314.1115">
				<stop  offset="0" style="stop-color:#FD643E"/>
				<stop  offset="0.7034" style="stop-color:#F84E39"/>
				<stop  offset="1" style="stop-color:#F54336"/>
			</linearGradient>
			<path class="st1" d="M358.4,418.1c0.2-0.3,0.5-0.6,0.7-0.9c0.2-0.3,0.4-0.6,0.6-0.9c0.2-0.3,0.4-0.6,0.5-0.9
				c0.2-0.3,0.3-0.6,0.5-1c0.1-0.3,0.3-0.6,0.4-0.9c0.1-0.3,0.2-0.6,0.4-1c0.1-0.3,0.3-0.7,0.4-1c0.1-0.3,0.2-0.6,0.2-1
				c0.1-0.4,0.2-0.7,0.3-1.1c0.1-0.4,0.1-0.8,0.2-1.1c0-0.3,0.1-0.6,0.1-0.9c0.1-1.4,0.1-2.8,0-4.2c0-0.3-0.1-0.6-0.1-0.9
				c-0.1-0.4-0.1-0.8-0.2-1.1c-0.1-0.4-0.2-0.7-0.3-1.1c-0.1-0.3-0.2-0.6-0.2-1c-0.1-0.3-0.2-0.7-0.4-1c-0.1-0.3-0.2-0.6-0.4-1
				c-0.1-0.3-0.3-0.6-0.4-0.9c-0.2-0.3-0.3-0.7-0.5-1c-0.2-0.3-0.3-0.6-0.5-0.9c-0.2-0.3-0.4-0.6-0.6-0.9c-0.2-0.3-0.4-0.6-0.7-0.9
				c-0.2-0.3-0.4-0.5-0.6-0.8c-0.4-0.5-0.9-1.1-1.4-1.5c0,0,0,0,0,0l-64-64c-8.3-8.3-21.8-8.3-30.2,0c-8.3,8.3-8.3,21.8,0,30.2
				l27.6,27.6h-119c-0.1,0-0.1,0-0.2,0c-70.8,0-128-57.2-128-128c0-31.1,12.4-60.3,34.1-82c8.3-8.3,8.3-21.8,0-30.2
				c-8.3-8.3-21.8-8.3-30.2,0C17,173.4,0,213.5,0,256c0,94.3,76.2,170.5,170.4,170.7c0.1,0,0.2,0,0.2,0h119.2l-27.6,27.6
				c-8.3,8.3-8.3,21.8,0,30.2c8.3,8.3,21.8,8.3,30.2,0l64-64c0,0,0,0,0,0c0.5-0.5,1-1,1.4-1.6C358,418.6,358.2,418.4,358.4,418.1z"
				/>
		</g>
	</g>
</g>
</svg>
