<?xml version="1.0" encoding="utf-8"?>
<!-- Generator: Adobe Illustrator 21.0.0, SVG Export Plug-In . SVG Version: 6.00 Build 0)  -->
<svg version="1.1" id="Capa_1" xmlns="http://www.w3.org/2000/svg" xmlns:xlink="http://www.w3.org/1999/xlink" x="0px" y="0px"
	 viewBox="0 0 512 512" style="enable-background:new 0 0 512 512;" xml:space="preserve">
<style type="text/css">
	.st0{fill:#333333;}
</style>
<g>
	<g>
		<path class="st0" d="M336,320c12.3,0,23.5-4.8,32-12.5c8.5,7.7,19.7,12.5,32,12.5c26.5,0,48-21.5,48-48c0-26.5-21.5-48-48-48
			c-12.3,0-23.5,4.8-32,12.5c-8.5-7.7-19.7-12.5-32-12.5c-26.5,0-48,21.5-48,48C288,298.5,309.5,320,336,320z"/>
		<path class="st0" d="M480,64H96c-17.7,0-32,14.3-32,32v96h32h160h224v160H256v32h224c17.7,0,32-14.3,32-32V96
			C512,78.3,497.7,64,480,64z M480,128H96V96h384V128z"/>
		<path class="st0" d="M112,224C50.1,224,0,274.1,0,336c0,61.9,50.1,112,112,112c61.9,0,112-50.1,112-112
			C224,274.1,173.9,224,112,224z M179.9,381.2l-22.6,22.6L112,358.6l-45.2,45.3l-22.6-22.6L89.4,336l-45.3-45.2l22.6-22.6l45.2,45.2
			l45.3-45.2l22.6,22.6L134.6,336L179.9,381.2z"/>
	</g>
</g>
</svg>
