<?xml version="1.0" encoding="utf-8"?>
<!-- Generator: Adobe Illustrator 21.0.0, SVG Export Plug-In . SVG Version: 6.00 Build 0)  -->
<svg version="1.1" id="Capa_1" xmlns="http://www.w3.org/2000/svg" xmlns:xlink="http://www.w3.org/1999/xlink" x="0px" y="0px"
	 viewBox="0 0 520.3 520.3" style="enable-background:new 0 0 520.3 520.3;" xml:space="preserve">
<style type="text/css">
	.st0{fill:url(#SVGID_1_);}
</style>
<g>
	<linearGradient id="SVGID_1_" gradientUnits="userSpaceOnUse" x1="63.021" y1="260.174" x2="457.328" y2="260.174">
		<stop  offset="0" style="stop-color:#FD643E"/>
		<stop  offset="0.7034" style="stop-color:#F84E39"/>
		<stop  offset="1" style="stop-color:#F54336"/>
	</linearGradient>
	<path class="st0" d="M445.2,0H142.6c-6.7,0-12.1,5.4-12.1,12.1v181h16.6c-5-6.4-7.7-14.2-7.7-22.5c0-9.8,3.8-18.9,10.7-25.8
		c1.4-1.4,3-2.7,4.6-3.8V24.2h278.4v8.7L306,125.2v395.2l127.8-92.8c1.6,4.8,6.1,8.2,11.4,8.2c6.7,0,12.1-5.4,12.1-12.1V12.1
		C457.3,5.4,451.9,0,445.2,0z M354,332c-5.7,0-10.5-7-11.7-16.5h-13.6v-10.6h13.8c1.4-8.9,6-15.4,11.5-15.4c6.6,0,12,9.5,12,21.2
		C366,322.5,360.7,332,354,332z M150.1,314.5c1.4,1.4,3,2.7,4.6,3.8v105.4c0,6.7-5.4,12.1-12.1,12.1c-6.7,0-12.1-5.4-12.1-12.1
		V266.1h16.6C135.9,280.5,136.9,301.3,150.1,314.5z M236.7,218.4c4.8,4.8,4.8,12.6,0,17.4l-59,59c-2.4,2.4-5.6,3.6-8.7,3.6
		c-3.2,0-6.3-1.2-8.7-3.6c-4.8-4.8-4.8-12.6,0-17.4l38-38H75.3c-6.8,0-12.3-5.5-12.3-12.3c0-6.8,5.5-12.3,12.3-12.3h122.9l-38-38
		c-4.8-4.8-4.8-12.6,0-17.4c4.8-4.8,12.6-4.8,17.4,0L236.7,218.4z"/>
</g>
</svg>
