<?xml version="1.0" encoding="utf-8"?>
<!-- Generator: Adobe Illustrator 21.1.0, SVG Export Plug-In . SVG Version: 6.00 Build 0)  -->
<svg version="1.1" id="Capa_1" xmlns="http://www.w3.org/2000/svg" xmlns:xlink="http://www.w3.org/1999/xlink" x="0px" y="0px"
	 viewBox="0 0 40 40" style="enable-background:new 0 0 40 40;" xml:space="preserve">
<style type="text/css">
	.st0{display:none;}
	.st1{display:inline;fill:url(#SVGID_1_);}
	.st2{display:inline;fill:url(#SVGID_2_);}
	.st3{display:inline;fill:url(#SVGID_3_);}
	.st4{display:inline;fill:url(#SVGID_4_);}
	.st5{display:inline;fill:url(#SVGID_5_);}
	.st6{display:inline;fill:url(#SVGID_6_);}
	.st7{display:inline;fill:url(#SVGID_7_);}
	.st8{display:inline;fill:url(#SVGID_8_);}
	.st9{fill:url(#SVGID_9_);}
	.st10{fill:url(#SVGID_10_);}
	.st11{display:inline;}
	.st12{fill:url(#SVGID_11_);}
	.st13{fill:url(#SVGID_12_);}
	.st14{fill:url(#SVGID_13_);}
	.st15{fill:url(#SVGID_14_);}
	.st16{fill:url(#SVGID_15_);}
	.st17{display:inline;fill:url(#SVGID_16_);}
	.st18{display:inline;fill:#FFFFFF;}
	.st19{display:none;fill:url(#SVGID_17_);}
</style>
<g class="st0">
	<linearGradient id="SVGID_1_" gradientUnits="userSpaceOnUse" x1="45.8761" y1="24.7414" x2="47.6835" y2="24.7414">
		<stop  offset="0" style="stop-color:#FDB27C"/>
		<stop  offset="0.7" style="stop-color:#FA4336"/>
		<stop  offset="1" style="stop-color:#FA4336"/>
	</linearGradient>
	<path class="st1" d="M46.8,25.8c0.5,0,0.9-0.5,0.9-1.1c0-0.8-0.4-1.1-0.9-1.1c-0.5,0-0.9,0.2-0.9,1.1
		C45.9,25.3,46.3,25.8,46.8,25.8z"/>
	<linearGradient id="SVGID_2_" gradientUnits="userSpaceOnUse" x1="44.7645" y1="26.7611" x2="48.795" y2="26.7611">
		<stop  offset="0" style="stop-color:#FDB27C"/>
		<stop  offset="0.7" style="stop-color:#FA4336"/>
		<stop  offset="1" style="stop-color:#FA4336"/>
	</linearGradient>
	<path class="st2" d="M48.8,27.4l-0.5-1c0,0-0.1-0.1-0.1-0.1l-0.7-0.4c0,0,0,0,0,0c-0.2,0.2-0.4,0.2-0.7,0.2c-0.2,0-0.5-0.1-0.7-0.2
		c0,0,0,0,0,0l-0.6,0.3c-0.1,0.2-0.2,0.5-0.4,0.7l-0.2,0.3c0.1,0,0.3-0.1,0.4-0.2c0,0,0,0,0,0l0.7,0.4c0,0,0.1,0.1,0.1,0.1l0.1,0.3
		h2.3c0.1,0,0.1,0,0.2-0.1C48.8,27.5,48.8,27.4,48.8,27.4z"/>
	<linearGradient id="SVGID_3_" gradientUnits="userSpaceOnUse" x1="43.5663" y1="25.9406" x2="45.3737" y2="25.9406">
		<stop  offset="0" style="stop-color:#FDB27C"/>
		<stop  offset="0.7" style="stop-color:#FA4336"/>
		<stop  offset="1" style="stop-color:#FA4336"/>
	</linearGradient>
	<path class="st3" d="M45.2,26.3L45.2,26.3c0.1-0.2,0.1-0.3,0.1-0.4c0-0.8-0.4-1.1-0.9-1.1c-0.5,0-0.9,0.2-0.9,1.1
		c0,0.6,0.4,1.1,0.9,1.1c0.2,0,0.3-0.1,0.5-0.2l0.2-0.4C45.2,26.4,45.2,26.4,45.2,26.3z"/>
	<linearGradient id="SVGID_4_" gradientUnits="userSpaceOnUse" x1="44.6545" y1="26.5565" x2="48.685" y2="26.5565">
		<stop  offset="0" style="stop-color:#FDB27C"/>
		<stop  offset="0.7" style="stop-color:#FA4336"/>
		<stop  offset="1" style="stop-color:#FA4336"/>
	</linearGradient>
	<path class="st4" d="M45.3,26.3L45.3,26.3c-0.1,0.1-0.2,0.1-0.2,0.2L45,26.8C45.1,26.7,45.3,26.5,45.3,26.3z"/>
	<linearGradient id="SVGID_5_" gradientUnits="userSpaceOnUse" x1="43.5663" y1="26.5565" x2="45.3737" y2="26.5565">
		<stop  offset="0" style="stop-color:#FDB27C"/>
		<stop  offset="0.7" style="stop-color:#FA4336"/>
		<stop  offset="1" style="stop-color:#FA4336"/>
	</linearGradient>
	<path class="st5" d="M45.3,26.3L45.3,26.3c-0.1,0.1-0.2,0.1-0.2,0.2L45,26.8C45.1,26.7,45.3,26.5,45.3,26.3z"/>
	<linearGradient id="SVGID_6_" gradientUnits="userSpaceOnUse" x1="42.4547" y1="27.9603" x2="46.4852" y2="27.9603">
		<stop  offset="0" style="stop-color:#FDB27C"/>
		<stop  offset="0.7" style="stop-color:#FA4336"/>
		<stop  offset="1" style="stop-color:#FA4336"/>
	</linearGradient>
	<path class="st6" d="M44.7,27.7c0-0.1,0-0.1,0-0.2l0.1-0.2c-0.1,0-0.2,0-0.3,0c-0.2,0-0.5-0.1-0.7-0.2c0,0,0,0,0,0L43,27.4
		c0,0-0.1,0.1-0.1,0.1l-0.5,1c0,0.1,0,0.2,0,0.2c0,0.1,0.1,0.1,0.2,0.1h3.6c0.1,0,0.1,0,0.2-0.1c0-0.1,0-0.1,0-0.2l-0.3-0.8h-1.2
		C44.8,27.8,44.7,27.7,44.7,27.7z"/>
	<linearGradient id="SVGID_7_" gradientUnits="userSpaceOnUse" x1="44.6545" y1="27.4157" x2="48.685" y2="27.4157">
		<stop  offset="0" style="stop-color:#FDB27C"/>
		<stop  offset="0.7" style="stop-color:#FA4336"/>
		<stop  offset="1" style="stop-color:#FA4336"/>
	</linearGradient>
	<path class="st7" d="M45.9,27.4l-0.7-0.4c0,0,0,0,0,0c-0.1,0.1-0.2,0.2-0.4,0.2l-0.1,0.2c0,0.1,0,0.2,0,0.2c0,0.1,0.1,0.1,0.2,0.1
		h1.2L46,27.5C46,27.5,46,27.4,45.9,27.4z"/>
	<linearGradient id="SVGID_8_" gradientUnits="userSpaceOnUse" x1="42.4547" y1="27.4157" x2="46.4852" y2="27.4157">
		<stop  offset="0" style="stop-color:#FDB27C"/>
		<stop  offset="0.7" style="stop-color:#FA4336"/>
		<stop  offset="1" style="stop-color:#FA4336"/>
	</linearGradient>
	<path class="st8" d="M45.9,27.4l-0.7-0.4c0,0,0,0,0,0c-0.1,0.1-0.2,0.2-0.4,0.2l-0.1,0.2c0,0.1,0,0.2,0,0.2c0,0.1,0.1,0.1,0.2,0.1
		h1.2L46,27.5C46,27.5,46,27.4,45.9,27.4z"/>
</g>
<g>
	<linearGradient id="SVGID_9_" gradientUnits="userSpaceOnUse" x1="3.7629" y1="13.2643" x2="36.1563" y2="13.2643">
		<stop  offset="0" style="stop-color:#FD643E"/>
		<stop  offset="0.7034" style="stop-color:#F84E39"/>
		<stop  offset="1" style="stop-color:#F54336"/>
	</linearGradient>
	<polygon class="st9" points="36.2,8.2 3.8,8.2 20,18.3 	"/>
	<linearGradient id="SVGID_10_" gradientUnits="userSpaceOnUse" x1="1.9192" y1="20.1294" x2="38" y2="20.1294">
		<stop  offset="0" style="stop-color:#FD643E"/>
		<stop  offset="0.7034" style="stop-color:#F84E39"/>
		<stop  offset="1" style="stop-color:#F54336"/>
	</linearGradient>
	<path class="st10" d="M20,20.6L1.9,9.4v20.6c0,0.5,0.4,1,1,1H37c0.5,0,1-0.4,1-1V9.4L20,20.6z"/>
</g>
<g class="st0">
	<g id="Settings_3_" class="st11">
		<g>
			<linearGradient id="SVGID_11_" gradientUnits="userSpaceOnUse" x1="1.1622" y1="13.24" x2="21.9455" y2="13.24">
				<stop  offset="0" style="stop-color:#FD643E"/>
				<stop  offset="0.7034" style="stop-color:#F84E39"/>
				<stop  offset="1" style="stop-color:#F54336"/>
			</linearGradient>
			<path class="st12" d="M21.9,12.1c0-0.3-0.4-0.5-0.7-0.5c-1,0-1.8-0.6-2.2-1.4c-0.4-0.9-0.1-1.9,0.6-2.6c0.2-0.2,0.3-0.5,0.1-0.8
				c-0.5-0.6-1-1.2-1.6-1.7c-0.2-0.2-0.6-0.2-0.8,0.1c-0.6,0.7-1.7,0.9-2.6,0.6c-0.9-0.4-1.5-1.3-1.4-2.3c0-0.3-0.2-0.6-0.5-0.6
				c-0.8-0.1-1.6-0.1-2.3,0c-0.3,0-0.5,0.3-0.5,0.6c0,1-0.5,1.9-1.4,2.2c-0.8,0.3-2,0.1-2.6-0.6C5.7,4.9,5.4,4.9,5.1,5.1
				c-0.6,0.5-1.2,1-1.7,1.7C3.3,7,3.3,7.3,3.5,7.5c0.7,0.7,1,1.7,0.6,2.6c-0.4,0.9-1.2,1.4-2.3,1.4c-0.3,0-0.6,0.2-0.6,0.5
				c-0.1,0.8-0.1,1.6,0,2.4c0,0.3,0.4,0.5,0.7,0.5c0.9,0,1.8,0.5,2.1,1.4c0.4,0.9,0.1,1.9-0.6,2.6c-0.2,0.2-0.3,0.5-0.1,0.8
				c0.5,0.6,1,1.2,1.6,1.7c0.2,0.2,0.6,0.2,0.8-0.1c0.6-0.7,1.7-0.9,2.6-0.6C9.3,21.1,9.9,22,9.8,23c0,0.3,0.2,0.6,0.5,0.6
				c0.4,0,0.8,0.1,1.2,0.1c0.4,0,0.8,0,1.1-0.1c0.3,0,0.5-0.3,0.5-0.6c0-1,0.5-1.9,1.4-2.2c0.9-0.3,2-0.1,2.6,0.6
				c0.2,0.2,0.5,0.3,0.8,0.1c0.6-0.5,1.2-1,1.7-1.7c0.2-0.2,0.2-0.6-0.1-0.8c-0.7-0.7-1-1.7-0.6-2.6c0.4-0.8,1.2-1.4,2.1-1.4l0.1,0
				c0.3,0,0.6-0.2,0.6-0.5C22,13.7,22,12.9,21.9,12.1z M11.6,16.7c-1.9,0-3.5-1.6-3.5-3.5c0-1.9,1.6-3.5,3.5-3.5
				c1.9,0,3.5,1.6,3.5,3.5C15,15.2,13.5,16.7,11.6,16.7z"/>
		</g>
	</g>
	<g id="Settings_2_" class="st11">
		<g>
			<linearGradient id="SVGID_12_" gradientUnits="userSpaceOnUse" x1="18.2167" y1="24.432" x2="39" y2="24.432">
				<stop  offset="0" style="stop-color:#FD643E"/>
				<stop  offset="0.7034" style="stop-color:#F84E39"/>
				<stop  offset="1" style="stop-color:#F54336"/>
			</linearGradient>
			<path class="st13" d="M38.9,23.3c0-0.3-0.4-0.5-0.7-0.5c-1,0-1.8-0.6-2.2-1.4c-0.4-0.9-0.1-1.9,0.6-2.6c0.2-0.2,0.3-0.5,0.1-0.8
				c-0.5-0.6-1-1.2-1.6-1.7c-0.2-0.2-0.6-0.2-0.8,0.1c-0.6,0.7-1.7,0.9-2.6,0.6c-0.9-0.4-1.5-1.3-1.4-2.3c0-0.3-0.2-0.6-0.5-0.6
				c-0.8-0.1-1.6-0.1-2.3,0c-0.3,0-0.5,0.3-0.5,0.6c0,1-0.5,1.9-1.4,2.2c-0.8,0.3-2,0.1-2.6-0.6c-0.2-0.2-0.5-0.3-0.8-0.1
				c-0.6,0.5-1.2,1-1.7,1.7c-0.2,0.2-0.2,0.6,0.1,0.8c0.7,0.7,1,1.7,0.6,2.6c-0.4,0.9-1.2,1.4-2.3,1.4c-0.3,0-0.6,0.2-0.6,0.5
				c-0.1,0.8-0.1,1.6,0,2.4c0,0.3,0.4,0.5,0.7,0.5c0.9,0,1.8,0.5,2.1,1.4c0.4,0.9,0.1,1.9-0.6,2.6c-0.2,0.2-0.3,0.5-0.1,0.8
				c0.5,0.6,1,1.2,1.6,1.7c0.2,0.2,0.6,0.2,0.8-0.1c0.6-0.7,1.7-0.9,2.6-0.6c0.9,0.4,1.5,1.3,1.4,2.3c0,0.3,0.2,0.6,0.5,0.6
				c0.4,0,0.8,0.1,1.2,0.1c0.4,0,0.8,0,1.1-0.1c0.3,0,0.5-0.3,0.5-0.6c0-1,0.5-1.9,1.4-2.2c0.9-0.3,2-0.1,2.6,0.6
				c0.2,0.2,0.5,0.3,0.8,0.1c0.6-0.5,1.2-1,1.7-1.7c0.2-0.2,0.2-0.6-0.1-0.8c-0.7-0.7-1-1.7-0.6-2.6c0.4-0.8,1.2-1.4,2.1-1.4l0.1,0
				c0.3,0,0.6-0.2,0.6-0.5C39,24.9,39,24.1,38.9,23.3z M28.6,27.9c-1.9,0-3.5-1.6-3.5-3.5c0-1.9,1.6-3.5,3.5-3.5
				c1.9,0,3.5,1.6,3.5,3.5C32.1,26.4,30.5,27.9,28.6,27.9z"/>
		</g>
	</g>
</g>
<g class="st0">
	<g class="st11">
		<linearGradient id="SVGID_13_" gradientUnits="userSpaceOnUse" x1="2.3858" y1="18.6383" x2="12.3699" y2="18.6383">
			<stop  offset="0" style="stop-color:#FD643E"/>
			<stop  offset="0.7034" style="stop-color:#F84E39"/>
			<stop  offset="1" style="stop-color:#F54336"/>
		</linearGradient>
		<path class="st14" d="M11.8,19.2H2.9c-0.3,0-0.6-0.2-0.6-0.6c0-0.3,0.2-0.6,0.6-0.6h8.9c0.3,0,0.6,0.2,0.6,0.6
			C12.4,18.9,12.1,19.2,11.8,19.2z"/>
	</g>
	<g class="st11">
		<linearGradient id="SVGID_14_" gradientUnits="userSpaceOnUse" x1="4.8323" y1="21.2023" x2="12.2903" y2="21.2023">
			<stop  offset="0" style="stop-color:#FD643E"/>
			<stop  offset="0.7034" style="stop-color:#F84E39"/>
			<stop  offset="1" style="stop-color:#F54336"/>
		</linearGradient>
		<path class="st15" d="M11.8,21.7H5.3c-0.3,0-0.5-0.2-0.5-0.5c0-0.3,0.2-0.5,0.5-0.5h6.5c0.3,0,0.5,0.2,0.5,0.5
			C12.3,21.5,12.1,21.7,11.8,21.7z"/>
	</g>
	<g class="st11">
		<linearGradient id="SVGID_15_" gradientUnits="userSpaceOnUse" x1="0" y1="23.865" x2="12.3889" y2="23.865">
			<stop  offset="0" style="stop-color:#FD643E"/>
			<stop  offset="0.7034" style="stop-color:#F84E39"/>
			<stop  offset="1" style="stop-color:#F54336"/>
		</linearGradient>
		<path class="st16" d="M11.9,24.3H0.5c-0.3,0-0.5-0.2-0.5-0.5c0-0.3,0.2-0.5,0.5-0.5h11.4c0.3,0,0.5,0.2,0.5,0.5
			C12.4,24.1,12.2,24.3,11.9,24.3z"/>
	</g>
	<linearGradient id="SVGID_16_" gradientUnits="userSpaceOnUse" x1="14.1193" y1="19.7768" x2="38.917" y2="19.7768">
		<stop  offset="0" style="stop-color:#FD643E"/>
		<stop  offset="0.7034" style="stop-color:#F84E39"/>
		<stop  offset="1" style="stop-color:#F54336"/>
	</linearGradient>
	<path class="st17" d="M38.9,16.1v-2.3c0-0.5-0.1-0.9-0.4-1.2v-0.1h-0.1c-0.2-0.3-0.6-0.5-0.9-0.5H15.5c-0.8,0-1.4,0.8-1.4,1.7v2.3
		h0.4v0h-0.4v10.1c0,0.4,0.2,0.7,0.4,0.9v0.2h0.4c0.1,0,0.3,0.1,0.4,0.1h22.4c0.1,0,0.3,0,0.4-0.1h0.4v-0.3c0.2-0.2,0.4-0.5,0.4-0.9
		V16.1l-0.4,0v0H38.9z"/>
	<rect x="14.1" y="14.9" class="st18" width="24.9" height="2.8"/>
</g>
<linearGradient id="SVGID_17_" gradientUnits="userSpaceOnUse" x1="-120.9119" y1="-30.4787" x2="137.5586" y2="-30.4787">
	<stop  offset="0" style="stop-color:#FD643E"/>
	<stop  offset="0.7034" style="stop-color:#F84E39"/>
	<stop  offset="1" style="stop-color:#F54336"/>
</linearGradient>
<rect x="-120.9" y="-53.3" class="st19" width="258.5" height="45.7"/>
</svg>
