<?xml version="1.0" encoding="utf-8"?>
<!-- Generator: Adobe Illustrator 21.0.0, SVG Export Plug-In . SVG Version: 6.00 Build 0)  -->
<svg version="1.1" id="Capa_1" xmlns="http://www.w3.org/2000/svg" xmlns:xlink="http://www.w3.org/1999/xlink" x="0px" y="0px"
	 viewBox="0 0 476.8 476.8" style="enable-background:new 0 0 476.8 476.8;" xml:space="preserve">
<style type="text/css">
	.st0{fill:url(#SVGID_1_);}
</style>
<g>
	<g>
		<g>
			<linearGradient id="SVGID_1_" gradientUnits="userSpaceOnUse" x1="-2.503395e-04" y1="238.4" x2="476.8" y2="238.4">
				<stop  offset="0" style="stop-color:#FD643E"/>
				<stop  offset="0.7034" style="stop-color:#F84E39"/>
				<stop  offset="1" style="stop-color:#F54336"/>
			</linearGradient>
			<path class="st0" d="M461.8,0.1H260.4c-4.8,0.2-15.9,7.8-17.4,9.2L9.3,243.1c-12.4,12.4-12.4,32.4,0,44.9l179.4,179.4
				c6.2,6.1,14.3,9.3,22.4,9.3s16.2-3.1,22.4-9.3l233.7-233.7c1.4-1.4,9.4-11.3,9.4-17.4V15.9C477.3,7,470.5,0.1,461.8,0.1z
				 M445,210.4l-1.4,2.1L211.2,444.9L31.8,265.5L264.2,33.1l2.1-1.4H445L445,210.4L445,210.4z M381.5,79.4c0-8.8,7.1-15.9,15.9-15.9
				c8.7,0,15.9,7.1,15.9,15.9s-7.2,15.9-15.9,15.9C388.6,95.3,381.5,88.2,381.5,79.4z"/>
		</g>
	</g>
</g>
</svg>
