<?xml version="1.0" encoding="utf-8"?>
<!-- Generator: Adobe Illustrator 21.0.0, SVG Export Plug-In . SVG Version: 6.00 Build 0)  -->
<svg version="1.1" id="Capa_1" xmlns="http://www.w3.org/2000/svg" xmlns:xlink="http://www.w3.org/1999/xlink" x="0px" y="0px"
	 viewBox="0 0 512 512" style="enable-background:new 0 0 512 512;" xml:space="preserve">
<style type="text/css">
	.st0{fill:url(#SVGID_1_);}
</style>
<g>
	<g>
		<linearGradient id="SVGID_1_" gradientUnits="userSpaceOnUse" x1="0" y1="256" x2="512" y2="256">
			<stop  offset="0" style="stop-color:#FD643E"/>
			<stop  offset="0.7034" style="stop-color:#F84E39"/>
			<stop  offset="1" style="stop-color:#F54336"/>
		</linearGradient>
		<path class="st0" d="M0,290.8v129.7C0,450.8,27.9,473,58.3,473h265.8c30.4,0,51.8-22.2,51.8-52.6v-1.7l97.9,48.6
			c1.8,0.9,3,1.4,5,1.4c19.1,0,33.2-15.5,33.2-35.3V265.6c0-19.8-13.3-35.3-32.4-35.3c-2,0-3.2,0.5-5,1.4l-96.9,48.9
			c-4.7-24.6-25.6-43.5-51.3-44.7c27-19.9,44.7-51.8,44.7-87.8c0-60.1-48.9-109.1-109-109.1c-49.1,0-90.7,32.7-104.3,77.4
			c-15-15-35.7-24.4-58.5-24.4c-45.5,0-82.6,37-82.6,82.6c0,25.1,9.7,47.5,27.3,62.7C19.8,242.9,0,264.7,0,290.8z M480.4,256.5
			c3.9,1.2,5.7,5.2,5.7,9.1v167.8c0,3.8-1.8,7.9-5.7,9.1l-104.5-52.8V309L480.4,256.5z M173.3,208.5c6.7,9.5,15,18.2,24.3,24.7h-43
			C162.3,226.8,168.7,217.9,173.3,208.5z M179.1,148c0-45.9,37.3-83.2,83.1-83.2c45.9,0,83.2,37.3,83.2,83.2
			c0,45.8-37.3,83.1-83.2,83.1c-39,0-71.7-27-80.6-63.3c-0.4-4.5-1.1-8.9-2.2-13.1C179.2,152.6,179.1,150.3,179.1,148z M99.4,117.9
			c25.7,0,47.5,17.3,54.3,40.8c0.4,4.5,1.2,8.8,2.2,13.1c0,0.9,0.1,1.8,0.1,2.7c0,31.2-25.4,56.6-56.6,56.6
			c-31.2,0-56.6-25.4-56.6-56.6S68.1,117.9,99.4,117.9z M350,418c0,16.1-13,29.1-29.1,29.1H55.1c-16.1,0-29.1-13-29.1-29.1V288.3
			c0-16.1,13-29.1,29.1-29.1h265.8c16.1,0,29.1,13,29.1,29.1L350,418L350,418z"/>
	</g>
</g>
</svg>
