<?xml version="1.0" encoding="utf-8"?>
<!-- Generator: Adobe Illustrator 21.0.0, SVG Export Plug-In . SVG Version: 6.00 Build 0)  -->
<svg version="1.1" id="Capa_1" xmlns="http://www.w3.org/2000/svg" xmlns:xlink="http://www.w3.org/1999/xlink" x="0px" y="0px"
	 viewBox="0 0 413 413" style="enable-background:new 0 0 413 413;" xml:space="preserve">
<style type="text/css">
	.st0{fill:url(#SVGID_1_);}
	.st1{fill:url(#SVGID_2_);}
	.st2{fill:url(#SVGID_3_);}
	.st3{fill:url(#SVGID_4_);}
</style>
<g>
	<g>
		<g>
			<linearGradient id="SVGID_1_" gradientUnits="userSpaceOnUse" x1="0" y1="206.498" x2="412.996" y2="206.498">
				<stop  offset="0" style="stop-color:#FD643E"/>
				<stop  offset="0.7034" style="stop-color:#F84E39"/>
				<stop  offset="1" style="stop-color:#F54336"/>
			</linearGradient>
			<path class="st0" d="M393,28.3H20c-11,0-20,9-20,20v234c0,11,9,20,20,20h139.5v45.3h-54.3c-10.2,0-18.5,8.3-18.5,18.5
				s8.3,18.5,18.5,18.5h202.6c10.2,0,18.5-8.3,18.5-18.5s-8.3-18.5-18.5-18.5h-54.3v-45.3H393c11,0,20-9,20-20v-234
				C413,37.3,404,28.3,393,28.3z M383,272.3H30v-214h353V272.3z"/>
			<linearGradient id="SVGID_2_" gradientUnits="userSpaceOnUse" x1="87.499" y1="165.0855" x2="175.1" y2="165.0855">
				<stop  offset="0" style="stop-color:#FD643E"/>
				<stop  offset="0.7034" style="stop-color:#F84E39"/>
				<stop  offset="1" style="stop-color:#F54336"/>
			</linearGradient>
			<path class="st1" d="M94.6,176.6l63.1,29.3c1.6,0.8,3.4,1.1,5.2,1.1c2.3,0,4.6-0.7,6.6-1.9c3.5-2.3,5.7-6.1,5.7-10.3v-0.3
				c0-4.8-2.8-9.1-7.1-11.1l-39.5-18.3l39.5-18.3c4.3-2,7.1-6.4,7.1-11.1v-0.3c0-4.2-2.1-8.1-5.7-10.3c-2-1.3-4.2-1.9-6.6-1.9
				c-1.8,0-3.6,0.4-5.2,1.1l-63.1,29.3c-4.3,2-7.1,6.4-7.1,11.1v0.9C87.5,170.3,90.3,174.6,94.6,176.6z"/>
			<linearGradient id="SVGID_3_" gradientUnits="userSpaceOnUse" x1="173.3057" y1="164.778" x2="239.6891" y2="164.778">
				<stop  offset="0" style="stop-color:#FD643E"/>
				<stop  offset="0.7034" style="stop-color:#F84E39"/>
				<stop  offset="1" style="stop-color:#F54336"/>
			</linearGradient>
			<path class="st2" d="M175.7,236.4c2.3,3.1,6,5,9.9,5h0.3c5.4,0,10-3.4,11.7-8.5l41.6-128.8c1.2-3.7,0.5-7.8-1.8-11
				c-2.3-3.1-6-5-9.9-5h-0.3c-5.4,0-10,3.4-11.7,8.5l-41.6,128.8C172.7,229.1,173.4,233.2,175.7,236.4z"/>
			<linearGradient id="SVGID_4_" gradientUnits="userSpaceOnUse" x1="237.895" y1="165.084" x2="325.498" y2="165.084">
				<stop  offset="0" style="stop-color:#FD643E"/>
				<stop  offset="0.7034" style="stop-color:#F84E39"/>
				<stop  offset="1" style="stop-color:#F54336"/>
			</linearGradient>
			<path class="st3" d="M237.9,135.6c0,4.7,2.8,9.1,7.1,11.1l39.5,18.3L245,183.4c-4.3,2-7.1,6.4-7.1,11.1v0.3
				c0,4.2,2.1,8.1,5.7,10.3c2,1.3,4.3,1.9,6.6,1.9c1.8,0,3.5-0.4,5.2-1.1l63.1-29.3c4.3-2,7.1-6.4,7.1-11.1v-0.9
				c0-4.7-2.8-9.1-7.1-11.1l-63.1-29.3c-1.6-0.7-3.4-1.1-5.2-1.1c-2.4,0-4.6,0.7-6.6,1.9c-3.6,2.3-5.7,6.1-5.7,10.3V135.6
				L237.9,135.6z"/>
		</g>
	</g>
</g>
</svg>
