<?xml version="1.0" encoding="utf-8"?>
<!-- Generator: Adobe Illustrator 21.0.2, SVG Export Plug-In . SVG Version: 6.00 Build 0)  -->
<svg version="1.1" id="Capa_1" xmlns="http://www.w3.org/2000/svg" xmlns:xlink="http://www.w3.org/1999/xlink" x="0px" y="0px"
	 viewBox="0 0 1000 1000" style="enable-background:new 0 0 1000 1000;" xml:space="preserve">
<style type="text/css">
	.st0{fill:url(#SVGID_1_);}
	.st1{fill:url(#SVGID_2_);}
	.st2{fill:url(#SVGID_3_);}
	.st3{fill:url(#SVGID_4_);}
	.st4{fill:url(#SVGID_5_);}
	.st5{fill:url(#SVGID_6_);}
	.st6{fill:url(#SVGID_7_);}
	.st7{fill:url(#SVGID_8_);}
	.st8{fill:url(#SVGID_9_);}
	.st9{fill:url(#SVGID_10_);}
	.st10{fill:url(#SVGID_11_);}
	.st11{fill:url(#SVGID_12_);}
	.st12{fill:url(#SVGID_13_);}
	.st13{fill:url(#SVGID_14_);}
	.st14{fill:url(#SVGID_15_);}
	.st15{fill:url(#SVGID_16_);}
</style>
<g>
	<linearGradient id="SVGID_1_" gradientUnits="userSpaceOnUse" x1="85.3634" y1="521.9248" x2="889.7648" y2="521.9248">
		<stop  offset="0" style="stop-color:#EBB27E"/>
		<stop  offset="0.7" style="stop-color:#DA4539"/>
		<stop  offset="1" style="stop-color:#DA4539"/>
	</linearGradient>
	<path class="st0" d="M231.1,486.3h16.8v70.9h-16.5l-0.9-10.4c-4,8.3-15.1,12.4-23,12.5c-21,0.1-36.5-12.8-36.5-37.7
		c0-24.4,16.2-37.2,36.9-37.1c9.5,0,18.5,4.5,22.6,11.5L231.1,486.3z M188.6,521.6c0,13.5,9.3,21.6,21,21.6c27.6,0,27.6-43,0-43
		C197.9,500.2,188.6,508.1,188.6,521.6"/>
	<linearGradient id="SVGID_2_" gradientUnits="userSpaceOnUse" x1="85.3634" y1="540.2556" x2="889.7648" y2="540.2556">
		<stop  offset="0" style="stop-color:#EBB27E"/>
		<stop  offset="0.7" style="stop-color:#DA4539"/>
		<stop  offset="1" style="stop-color:#DA4539"/>
	</linearGradient>
	<path class="st1" d="M325.6,479.1l12.9,9.8l-7.9,10.1c5.5,6.2,7.5,13.2,7.5,21c0,8.8-3.3,21.1-14.9,26.5
		c11.8,5.9,14.7,14.4,14.7,23.4c0,19.6-15,31.6-35.5,31.6c-20.6,0-35.9-12.5-35.9-31.6h17.4c0,9.2,8.5,15.2,18.5,15.2
		c10.1,0,18-5.5,18-15.2c0-9.8-9.2-14.2-18-14.2c-22.1,0-35.9-13.5-35.9-35.7c0-22.1,16.1-35.9,35.9-35.9c5.6,0,11.4,0.7,16.2,4
		L325.6,479.1z M283.7,519.9c0,12.4,8.3,19.7,18.5,19.7c10.1,0,18.4-7.5,18.4-19.7c0-12.2-8.3-20-18.4-20
		C292.1,499.9,283.7,507.5,283.7,519.9"/>
	<linearGradient id="SVGID_3_" gradientUnits="userSpaceOnUse" x1="85.3634" y1="521.9248" x2="889.7648" y2="521.9248">
		<stop  offset="0" style="stop-color:#EBB27E"/>
		<stop  offset="0.7" style="stop-color:#DA4539"/>
		<stop  offset="1" style="stop-color:#DA4539"/>
	</linearGradient>
	<path class="st2" d="M412.7,486.3h16.8v70.9h-16.5l-0.9-10.4c-4,8.3-15.1,12.4-23,12.5c-21,0.1-36.5-12.8-36.5-37.7
		c0-24.4,16.2-37.2,36.9-37.1c9.5,0,18.5,4.5,22.6,11.5L412.7,486.3z M370.1,521.6c0,13.5,9.3,21.6,21,21.6c27.6,0,27.6-43,0-43
		C379.4,500.2,370.1,508.1,370.1,521.6"/>
	<linearGradient id="SVGID_4_" gradientUnits="userSpaceOnUse" x1="85.3634" y1="506.9008" x2="889.7648" y2="506.9008">
		<stop  offset="0" style="stop-color:#EBB27E"/>
		<stop  offset="0.7" style="stop-color:#DA4539"/>
		<stop  offset="1" style="stop-color:#DA4539"/>
	</linearGradient>
	<rect x="451.5" y="456.7" class="st3" width="17.4" height="100.5"/>
	<linearGradient id="SVGID_5_" gradientUnits="userSpaceOnUse" x1="85.3634" y1="521.7822" x2="889.7648" y2="521.7822">
		<stop  offset="0" style="stop-color:#EBB27E"/>
		<stop  offset="0.7" style="stop-color:#DA4539"/>
		<stop  offset="1" style="stop-color:#DA4539"/>
	</linearGradient>
	<path class="st4" d="M561.9,521.8c0,20.4-13.9,36.9-36.9,36.9c-23,0-36.8-16.5-36.8-36.9c0-20.3,14.1-36.9,36.7-36.9
		C547.3,484.8,561.9,501.5,561.9,521.8 M505.6,521.8c0,10.8,6.5,20.8,19.3,20.8c12.8,0,19.3-10.1,19.3-20.8c0-10.6-7.5-21-19.3-21
		C512.3,500.8,505.6,511.1,505.6,521.8"/>
	<linearGradient id="SVGID_6_" gradientUnits="userSpaceOnUse" x1="85.3634" y1="521.7807" x2="889.7648" y2="521.7807">
		<stop  offset="0" style="stop-color:#EBB27E"/>
		<stop  offset="0.7" style="stop-color:#DA4539"/>
		<stop  offset="1" style="stop-color:#DA4539"/>
	</linearGradient>
	<path class="st5" d="M645.9,548.1c-8.2,8.1-16.8,11.2-27.3,11.2c-20.6,0-37.7-12.4-37.7-37.5c0-25.2,17.1-37.5,37.7-37.5
		c10.1,0,17.8,2.9,25.6,10.5l-11.1,11.6c-4.2-3.7-9.3-5.6-14.2-5.6c-11.8,0-20.4,8.6-20.4,21c0,13.5,9.2,20.7,20.1,20.7
		c5.6,0,11.2-1.6,15.5-5.9L645.9,548.1z"/>
	<linearGradient id="SVGID_7_" gradientUnits="userSpaceOnUse" x1="85.3634" y1="521.9248" x2="889.7648" y2="521.9248">
		<stop  offset="0" style="stop-color:#EBB27E"/>
		<stop  offset="0.7" style="stop-color:#DA4539"/>
		<stop  offset="1" style="stop-color:#DA4539"/>
	</linearGradient>
	<path class="st6" d="M717.1,486.3h16.8v70.9h-16.5l-0.9-10.4c-4,8.3-15.1,12.4-23,12.5c-21,0.1-36.5-12.8-36.5-37.7
		c0-24.4,16.2-37.2,36.9-37.1c9.5,0,18.5,4.5,22.6,11.5L717.1,486.3z M674.5,521.6c0,13.5,9.3,21.6,21,21.6c27.6,0,27.6-43,0-43
		C683.9,500.2,674.5,508.1,674.5,521.6"/>
	<linearGradient id="SVGID_8_" gradientUnits="userSpaceOnUse" x1="85.3634" y1="579.9368" x2="889.7648" y2="579.9368">
		<stop  offset="0" style="stop-color:#EBB27E"/>
		<stop  offset="0.7" style="stop-color:#DA4539"/>
		<stop  offset="1" style="stop-color:#DA4539"/>
	</linearGradient>
	<path class="st7" d="M828.1,583.7c0.2-0.8,0.8-1.4,1.6-1.6l21.8-5.7l-51.2-22l22,51.2L828.1,583.7z"/>
	<linearGradient id="SVGID_9_" gradientUnits="userSpaceOnUse" x1="85.3634" y1="581.2335" x2="889.7648" y2="581.2335">
		<stop  offset="0" style="stop-color:#EBB27E"/>
		<stop  offset="0.7" style="stop-color:#DA4539"/>
		<stop  offset="1" style="stop-color:#DA4539"/>
	</linearGradient>
	<path class="st8" d="M794.5,548.5c-0.7,0.7-0.8,1.6-0.5,2.5l26.9,62.4c0.4,0.9,1.3,1.4,2.2,1.4c1-0.1,1.8-0.7,2-1.7l7.1-26.9
		l26.9-7.1c0.9-0.2,1.6-1,1.7-2c0-0.1,0-0.1,0-0.2c0-0.9-0.5-1.7-1.4-2.1L796.9,548C796.1,547.6,795.1,547.8,794.5,548.5
		 M851.5,576.4l-21.8,5.7c-0.8,0.2-1.4,0.8-1.6,1.6l-5.7,21.8l-22-51.2L851.5,576.4z"/>
	<g>
		<linearGradient id="SVGID_10_" gradientUnits="userSpaceOnUse" x1="85.3634" y1="536.9493" x2="889.7648" y2="536.9493">
			<stop  offset="0" style="stop-color:#EBB27E"/>
			<stop  offset="0.7" style="stop-color:#DA4539"/>
			<stop  offset="1" style="stop-color:#DA4539"/>
		</linearGradient>
		<path class="st9" d="M81,590.3V485.2h17.1l1.2,10.2c5.7-8.3,15.6-11.9,24.1-11.9c22.9,0,38.1,17,38.1,38.8
			c0,21.7-13.7,38.8-37.5,38.8c-7.8,0-19.4-2.4-24.7-10.5v39.7H81z M143.1,522.4c0-11.6-7.8-21.1-21.1-21.1
			c-13.2,0-21.1,9.5-21.1,21.1c0,11.6,8.6,21.1,21.1,21.1S143.1,533.9,143.1,522.4z"/>
	</g>
	<g>
		<linearGradient id="SVGID_11_" gradientUnits="userSpaceOnUse" x1="85.3634" y1="521.7288" x2="889.7648" y2="521.7288">
			<stop  offset="0" style="stop-color:#EBB27E"/>
			<stop  offset="0.7" style="stop-color:#DA4539"/>
			<stop  offset="1" style="stop-color:#DA4539"/>
		</linearGradient>
		<path class="st10" d="M645.7,547.9c-8.1,8-16.7,11.1-27.1,11.1c-20.4,0-37.4-12.3-37.4-37.3c0-25,17-37.3,37.4-37.3
			c10,0,17.7,2.9,25.4,10.4l-11,11.6c-4.1-3.7-9.3-5.6-14.1-5.6c-11.7,0-20.3,8.6-20.3,20.9c0,13.4,9.1,20.6,20,20.6
			c5.6,0,11.1-1.6,15.4-5.9L645.7,547.9z"/>
		<linearGradient id="SVGID_12_" gradientUnits="userSpaceOnUse" x1="85.3634" y1="521.8715" x2="889.7648" y2="521.8715">
			<stop  offset="0" style="stop-color:#EBB27E"/>
			<stop  offset="0.7" style="stop-color:#DA4539"/>
			<stop  offset="1" style="stop-color:#DA4539"/>
		</linearGradient>
		<path class="st11" d="M717,486.4h16.7v70.4h-16.4l-0.9-10.3c-4,8.3-15,12.3-22.9,12.4c-20.9,0.1-36.3-12.7-36.3-37.4
			c0-24.3,16.1-37,36.7-36.9c9.4,0,18.4,4.4,22.4,11.4L717,486.4z M674.7,521.6c0,13.4,9.3,21.4,20.9,21.4c27.4,0,27.4-42.7,0-42.7
			C684,500.3,674.7,508.2,674.7,521.6z"/>
		<linearGradient id="SVGID_13_" gradientUnits="userSpaceOnUse" x1="85.3634" y1="520.7286" x2="889.7648" y2="520.7286">
			<stop  offset="0" style="stop-color:#EBB27E"/>
			<stop  offset="0.7" style="stop-color:#DA4539"/>
			<stop  offset="1" style="stop-color:#DA4539"/>
		</linearGradient>
		<path class="st12" d="M772.3,486.4l1.3,8.1c5.4-8.7,12.7-10,19.9-10c7.3,0,14.3,2.9,18.1,6.7l-7.9,15.1c-3.6-3-6.9-4.6-12.6-4.6
			c-9.1,0-17.6,4.9-17.6,17.9v37.1h-17.4v-70.4H772.3z"/>
		<linearGradient id="SVGID_14_" gradientUnits="userSpaceOnUse" x1="85.3634" y1="507.7281" x2="889.7648" y2="507.7281">
			<stop  offset="0" style="stop-color:#EBB27E"/>
			<stop  offset="0.7" style="stop-color:#DA4539"/>
			<stop  offset="1" style="stop-color:#DA4539"/>
		</linearGradient>
		<path class="st13" d="M899,457v99.9h-16.3l-1.1-9.7c-5.4,8.4-14.1,11.3-22.7,11.3c-20.7,0-36.3-13.7-36.3-36.9
			c0-24.3,15.3-36.9,35.9-36.9c7.4,0,19,4,23.1,11.3v-39H899z M840,521.6c0,12.3,8.9,20.7,20,20.7c11,0,20.4-8,20.4-20.7
			c0-12.3-9.4-20.6-20.4-20.6C848.9,501,840,508.9,840,521.6z"/>
	</g>
	<linearGradient id="SVGID_15_" gradientUnits="userSpaceOnUse" x1="85.3634" y1="407.4633" x2="889.7648" y2="407.4633">
		<stop  offset="0" style="stop-color:#EBB27E"/>
		<stop  offset="0.7" style="stop-color:#DA4539"/>
		<stop  offset="1" style="stop-color:#DA4539"/>
	</linearGradient>
	<path class="st14" d="M869.4,409.3c0-5-3-9-6.6-9H699.9c-3.6,0-6.6,4.1-6.6,9v5.4h176.1V409.3z"/>
	<linearGradient id="SVGID_16_" gradientUnits="userSpaceOnUse" x1="85.3634" y1="451.474" x2="889.7648" y2="451.474">
		<stop  offset="0" style="stop-color:#EBB27E"/>
		<stop  offset="0.7" style="stop-color:#DA4539"/>
		<stop  offset="1" style="stop-color:#DA4539"/>
	</linearGradient>
	<rect x="693.3" y="429.7" class="st15" width="176.1" height="43.6"/>
</g>
</svg>
