<?xml version="1.0" encoding="utf-8"?>
<!-- Generator: Adobe Illustrator 23.0.0, SVG Export Plug-In . SVG Version: 6.00 Build 0)  -->
<svg version="1.1" id="Capa_1" xmlns="http://www.w3.org/2000/svg" xmlns:xlink="http://www.w3.org/1999/xlink" x="0px" y="0px"
	 viewBox="0 0 159.63 71.71" style="enable-background:new 0 0 159.63 71.71;" xml:space="preserve">
<style type="text/css">
	.st0{fill:url(#SVGID_1_);}
	.st1{fill:url(#SVGID_2_);}
	.st2{fill:url(#SVGID_3_);}
	.st3{fill:#FFFFFF;}
	.st4{fill:url(#SVGID_4_);}
	.st5{fill:url(#SVGID_5_);}
	.st6{fill:url(#SVGID_6_);}
	.st7{fill:url(#SVGID_7_);}
	.st8{fill:url(#SVGID_8_);}
	.st9{fill:url(#SVGID_9_);}
</style>
<g>
	<g>
		<g>
			<g>
				<linearGradient id="SVGID_1_" gradientUnits="userSpaceOnUse" x1="-9.094947e-13" y1="35.9308" x2="56.384" y2="35.9308">
					<stop  offset="0" style="stop-color:#E99854"/>
					<stop  offset="1" style="stop-color:#E16364"/>
				</linearGradient>
				<path class="st0" d="M55,19.42H38.9v-8.56c0-5.9-4.8-10.71-10.71-10.71c-5.9,0-10.71,4.8-10.71,10.71v8.56H9.93
					c-0.67,0-1.25,0.49-1.36,1.15L0.02,70.09c-0.15,0.85,0.51,1.62,1.36,1.62H55c0.76,0,1.38-0.62,1.38-1.38V20.8
					C56.38,20.04,55.76,19.42,55,19.42z M19.6,10.86c0-4.74,3.85-8.59,8.59-8.59c4.74,0,8.59,3.85,8.59,8.59v8.56H19.6V10.86z"/>
			</g>
			<linearGradient id="SVGID_2_" gradientUnits="userSpaceOnUse" x1="0.218" y1="45.563" x2="12.5041" y2="45.563">
				<stop  offset="0" style="stop-color:#FFA04E"/>
				<stop  offset="1" style="stop-color:#FF6567"/>
			</linearGradient>
			<path class="st1" d="M12.5,71.71V19.42l-2.63,0.09c-0.69,0.02-1.27,0.53-1.38,1.21L0.23,70.3c-0.12,0.74,0.45,1.41,1.19,1.41
				H12.5z"/>
			<linearGradient id="SVGID_3_" gradientUnits="userSpaceOnUse" x1="6.9958" y1="35.853" x2="59.1118" y2="35.853">
				<stop  offset="0" style="stop-color:#FFA04E"/>
				<stop  offset="1" style="stop-color:#FF6567"/>
			</linearGradient>
			<path class="st2" d="M56.47,20.88c-0.04-0.82-0.72-1.46-1.54-1.46H43.76v-8.71C43.76,4.8,38.96,0,33.05,0
				c-5.9,0-10.71,4.8-10.71,10.71v8.71H11.18c-0.82,0-1.5,0.64-1.54,1.46L7,70.08c-0.05,0.89,0.66,1.63,1.54,1.63h49.02
				c0.89,0,1.59-0.74,1.54-1.63L56.47,20.88z M24.46,10.71c0-4.74,3.85-8.59,8.59-8.59c4.74,0,8.59,3.85,8.59,8.59v8.59H24.46V10.71
				z"/>
		</g>
		<path class="st3" d="M45.44,39.48c-1.09,0-2.05,0.54-2.63,1.36l-14.49-7.02c0.08-0.29,0.14-0.58,0.14-0.9
			c0-1.79-1.45-3.24-3.24-3.24s-3.24,1.45-3.24,3.24c0,1.79,1.45,3.24,3.24,3.24c1.17,0,2.18-0.62,2.75-1.55l14.44,7
			c-0.13,0.35-0.21,0.71-0.21,1.1c0,0.48,0.11,0.93,0.3,1.34l-18.22,9.78c-0.65-0.91-1.7-1.5-2.9-1.5c-1.97,0-3.57,1.6-3.57,3.57
			s1.6,3.57,3.57,3.57s3.57-1.6,3.57-3.57c0-0.46-0.09-0.9-0.26-1.31l18.27-9.81c0.59,0.71,1.47,1.16,2.47,1.16
			c1.79,0,3.24-1.45,3.24-3.24S47.23,39.48,45.44,39.48z"/>
	</g>
	<g>
		<g>
			<linearGradient id="SVGID_4_" gradientUnits="userSpaceOnUse" x1="167.4904" y1="42.5217" x2="62.8639" y2="42.5217">
				<stop  offset="0" style="stop-color:#FF6567"/>
				<stop  offset="1" style="stop-color:#FFA04E"/>
			</linearGradient>
			<path class="st4" d="M71.62,52.06c-0.38-0.38-0.59-0.93-0.59-1.64V34.5c0-0.67,0.17-1.18,0.55-1.52
				c0.38-0.38,0.88-0.55,1.52-0.55h7.16c2.19,0,3.87,0.55,5.1,1.64c1.22,1.09,1.81,2.65,1.81,4.59c0,1.98-0.59,3.5-1.81,4.59
				c-1.22,1.09-2.91,1.64-5.1,1.64h-4.8v5.47c0,0.67-0.21,1.22-0.59,1.64c-0.38,0.38-0.93,0.59-1.64,0.59
				C72.54,52.65,71.99,52.44,71.62,52.06z M79.66,41.57c2.23,0,3.33-0.97,3.33-2.86c0-1.94-1.09-2.91-3.33-2.91h-4.21v5.77
				L79.66,41.57L79.66,41.57z"/>
		</g>
		<g>
			<linearGradient id="SVGID_5_" gradientUnits="userSpaceOnUse" x1="167.4904" y1="45.4623" x2="62.8639" y2="45.4623">
				<stop  offset="0" style="stop-color:#FF6567"/>
				<stop  offset="1" style="stop-color:#FFA04E"/>
			</linearGradient>
			<path class="st5" d="M100.08,39.63c0.97,1.01,1.47,2.53,1.47,4.55v6.44c0,0.63-0.17,1.09-0.55,1.47
				c-0.38,0.34-0.88,0.55-1.52,0.55c-0.59,0-1.09-0.17-1.47-0.55s-0.55-0.84-0.55-1.43v-0.21c-0.29,0.72-0.76,1.26-1.43,1.64
				c-0.67,0.38-1.43,0.59-2.32,0.59c-0.97,0-1.81-0.21-2.57-0.59c-0.76-0.38-1.39-0.93-1.81-1.6c-0.46-0.67-0.67-1.43-0.67-2.27
				c0-1.01,0.25-1.81,0.8-2.4c0.51-0.59,1.35-1.01,2.53-1.26c1.14-0.25,2.74-0.38,4.76-0.38h0.76v-0.51c0-0.8-0.17-1.39-0.51-1.73
				c-0.34-0.38-0.93-0.55-1.77-0.55c-0.8,0-1.98,0.29-3.54,0.84c-0.42,0.21-0.8,0.29-1.09,0.29c-0.42,0-0.76-0.13-1.01-0.42
				s-0.38-0.67-0.38-1.14c0-0.38,0.08-0.67,0.25-0.93c0.17-0.25,0.46-0.46,0.84-0.67c0.67-0.38,1.47-0.63,2.44-0.84
				c0.97-0.21,1.89-0.29,2.82-0.29C97.6,38.16,99.11,38.67,100.08,39.63z M96.71,48.9c0.51-0.55,0.76-1.31,0.76-2.19v-0.46h-0.46
				c-1.52,0-2.61,0.13-3.24,0.38c-0.63,0.25-0.93,0.67-0.93,1.35c0,0.55,0.17,0.97,0.55,1.31c0.34,0.34,0.8,0.51,1.31,0.51
				C95.53,49.74,96.21,49.45,96.71,48.9z"/>
		</g>
		<g>
			<linearGradient id="SVGID_6_" gradientUnits="userSpaceOnUse" x1="167.4904" y1="48.0356" x2="62.8639" y2="48.0356">
				<stop  offset="0" style="stop-color:#FF6567"/>
				<stop  offset="1" style="stop-color:#FFA04E"/>
			</linearGradient>
			<path class="st6" d="M118.49,38.79c0.38,0.38,0.59,0.84,0.59,1.47V51c0,2.27-0.67,3.96-1.98,5.14c-1.31,1.14-3.24,1.73-5.77,1.73
				c-2.11,0-3.87-0.38-5.22-1.14c-0.34-0.21-0.59-0.42-0.8-0.72s-0.29-0.59-0.29-0.93c0-0.46,0.13-0.88,0.34-1.18
				c0.21-0.29,0.55-0.46,0.93-0.46c0.21,0,0.46,0.04,0.76,0.13c0.29,0.08,0.59,0.17,0.88,0.29c0.59,0.21,1.18,0.42,1.68,0.55
				c0.51,0.13,1.05,0.21,1.64,0.21c1.22,0,2.11-0.29,2.7-0.84c0.59-0.55,0.88-1.39,0.88-2.48v-1.52c-0.38,0.72-1.01,1.31-1.81,1.73
				c-0.8,0.42-1.68,0.63-2.7,0.63c-1.22,0-2.27-0.29-3.24-0.84c-0.93-0.59-1.68-1.39-2.19-2.44c-0.55-1.05-0.8-2.27-0.8-3.66
				c0-1.39,0.25-2.61,0.8-3.66c0.55-1.05,1.26-1.85,2.19-2.44s2.02-0.88,3.24-0.88c0.97,0,1.85,0.21,2.65,0.63
				c0.8,0.42,1.39,0.97,1.81,1.68v-0.34c0-0.59,0.21-1.09,0.59-1.43c0.38-0.34,0.93-0.55,1.56-0.55
				C117.56,38.2,118.06,38.41,118.49,38.79z M113.94,47.85c0.55-0.63,0.84-1.56,0.84-2.7c0-1.14-0.29-2.06-0.84-2.74
				c-0.55-0.67-1.35-0.97-2.36-0.97c-1.01,0-1.81,0.34-2.36,0.97c-0.59,0.67-0.84,1.56-0.84,2.74c0,1.14,0.29,2.06,0.84,2.7
				c0.59,0.63,1.35,0.97,2.36,0.97S113.39,48.48,113.94,47.85z"/>
		</g>
		<g>
			<linearGradient id="SVGID_7_" gradientUnits="userSpaceOnUse" x1="167.4904" y1="45.4623" x2="62.8639" y2="45.4623">
				<stop  offset="0" style="stop-color:#FF6567"/>
				<stop  offset="1" style="stop-color:#FFA04E"/>
			</linearGradient>
			<path class="st7" d="M133.18,39.63c0.97,1.01,1.47,2.53,1.47,4.55v6.44c0,0.63-0.17,1.09-0.55,1.47
				c-0.38,0.34-0.88,0.55-1.52,0.55c-0.59,0-1.09-0.17-1.47-0.55s-0.55-0.84-0.55-1.43v-0.21c-0.29,0.72-0.76,1.26-1.43,1.64
				c-0.67,0.38-1.43,0.59-2.32,0.59c-0.97,0-1.81-0.21-2.57-0.59s-1.39-0.93-1.81-1.6c-0.46-0.67-0.67-1.43-0.67-2.27
				c0-1.01,0.25-1.81,0.8-2.4c0.51-0.59,1.35-1.01,2.53-1.26c1.14-0.25,2.74-0.38,4.76-0.38h0.76v-0.51c0-0.8-0.17-1.39-0.51-1.73
				c-0.34-0.38-0.93-0.55-1.77-0.55c-0.8,0-1.98,0.29-3.54,0.84c-0.42,0.21-0.8,0.29-1.09,0.29c-0.42,0-0.76-0.13-1.01-0.42
				s-0.38-0.67-0.38-1.14c0-0.38,0.08-0.67,0.25-0.93c0.17-0.25,0.46-0.46,0.84-0.67c0.67-0.38,1.47-0.63,2.44-0.84
				c0.97-0.21,1.89-0.29,2.82-0.29C130.7,38.16,132.21,38.67,133.18,39.63z M129.81,48.9c0.51-0.55,0.76-1.31,0.76-2.19v-0.46h-0.46
				c-1.52,0-2.61,0.13-3.24,0.38c-0.63,0.25-0.93,0.67-0.93,1.35c0,0.55,0.17,0.97,0.55,1.31c0.34,0.34,0.8,0.51,1.31,0.51
				C128.63,49.74,129.31,49.45,129.81,48.9z"/>
		</g>
		<g>
			
				<linearGradient id="SVGID_8_" gradientUnits="userSpaceOnUse" x1="167.4904" y1="340.4559" x2="62.8639" y2="340.4559" gradientTransform="matrix(1 0 0 1 0 -298)">
				<stop  offset="0" style="stop-color:#FF6567"/>
				<stop  offset="1" style="stop-color:#FFA04E"/>
			</linearGradient>
			<path class="st8" d="M138.49,52.14c-0.42-0.34-0.63-0.84-0.63-1.52V34.29c0-0.67,0.21-1.18,0.63-1.52
				c0.42-0.34,0.93-0.51,1.56-0.51c0.59,0,1.09,0.17,1.52,0.51c0.42,0.34,0.63,0.84,0.63,1.52v16.34c0,0.67-0.21,1.18-0.63,1.52
				c-0.42,0.34-0.93,0.51-1.52,0.51C139.41,52.65,138.91,52.48,138.49,52.14z"/>
		</g>
		<g>
			<linearGradient id="SVGID_9_" gradientUnits="userSpaceOnUse" x1="167.4904" y1="45.4037" x2="62.8639" y2="45.4037">
				<stop  offset="0" style="stop-color:#FF6567"/>
				<stop  offset="1" style="stop-color:#FFA04E"/>
			</linearGradient>
			<path class="st9" d="M148.3,51.8c-1.14-0.59-1.98-1.43-2.57-2.53s-0.93-2.36-0.93-3.87s0.29-2.78,0.93-3.87
				c0.59-1.09,1.47-1.94,2.57-2.53c1.14-0.59,2.4-0.88,3.92-0.88c1.47,0,2.78,0.29,3.92,0.88c1.14,0.59,1.98,1.43,2.57,2.53
				c0.59,1.09,0.93,2.36,0.93,3.87s-0.29,2.78-0.93,3.87c-0.59,1.09-1.47,1.94-2.57,2.53c-1.14,0.59-2.4,0.88-3.92,0.88
				C150.74,52.69,149.44,52.39,148.3,51.8z M155.33,45.4c0-1.35-0.25-2.36-0.8-3.03c-0.55-0.67-1.31-1.01-2.32-1.01
				c-2.11,0-3.12,1.35-3.12,4c0,2.7,1.05,4,3.12,4C154.28,49.45,155.33,48.1,155.33,45.4z"/>
		</g>
	</g>
</g>
</svg>
