<?xml version="1.0" encoding="utf-8"?>
<!-- Generator: Adobe Illustrator 21.0.0, SVG Export Plug-In . SVG Version: 6.00 Build 0)  -->
<svg version="1.1" id="Capa_1" xmlns="http://www.w3.org/2000/svg" xmlns:xlink="http://www.w3.org/1999/xlink" x="0px" y="0px"
	 viewBox="0 0 200 60" style="enable-background:new 0 0 200 60;" xml:space="preserve">
<style type="text/css">
	.st0{fill:url(#SVGID_1_);}
	.st1{fill:url(#SVGID_2_);}
	.st2{fill:url(#SVGID_3_);}
	.st3{fill:url(#SVGID_4_);}
	.st4{fill:url(#SVGID_5_);}
	.st5{fill:url(#SVGID_6_);}
	.st6{fill:url(#SVGID_7_);}
	.st7{fill:url(#SVGID_8_);}
	.st8{fill:url(#SVGID_9_);}
	.st9{fill:url(#SVGID_10_);}
	.st10{fill:url(#SVGID_11_);}
	.st11{fill:url(#SVGID_12_);}
	.st12{fill:url(#SVGID_13_);}
	.st13{fill:url(#SVGID_14_);}
	.st14{fill:url(#SVGID_15_);}
	.st15{fill:url(#SVGID_16_);}
</style>
<g>
	<linearGradient id="SVGID_1_" gradientUnits="userSpaceOnUse" x1="11.9571" y1="33.1459" x2="186.9905" y2="33.1459">
		<stop  offset="0" style="stop-color:#FF643E"/>
		<stop  offset="1" style="stop-color:#FA4336"/>
	</linearGradient>
	<path class="st0" d="M43.7,25.4h3.7v15.4h-3.6l-0.2-2.3c-0.9,1.8-3.3,2.7-5,2.7c-4.6,0-7.9-2.8-7.9-8.2c0-5.3,3.5-8.1,8-8.1
		c2.1,0,4,1,4.9,2.5L43.7,25.4z M34.4,33.1c0,2.9,2,4.7,4.6,4.7c6,0,6-9.4,0-9.4C36.4,28.4,34.4,30.1,34.4,33.1"/>
	<linearGradient id="SVGID_2_" gradientUnits="userSpaceOnUse" x1="11.9571" y1="37.1346" x2="186.9905" y2="37.1346">
		<stop  offset="0" style="stop-color:#FF643E"/>
		<stop  offset="1" style="stop-color:#FA4336"/>
	</linearGradient>
	<path class="st1" d="M64.2,23.8L67,26l-1.7,2.2c1.2,1.3,1.6,2.9,1.6,4.6c0,1.9-0.7,4.6-3.3,5.8c2.6,1.3,3.2,3.1,3.2,5.1
		c0,4.3-3.3,6.9-7.7,6.9c-4.5,0-7.8-2.7-7.8-6.9h3.8c0,2,1.8,3.3,4,3.3c2.2,0,3.9-1.2,3.9-3.3c0-2.1-2-3.1-3.9-3.1
		c-4.8,0-7.8-2.9-7.8-7.8s3.5-7.8,7.8-7.8c1.2,0,2.5,0.2,3.5,0.9L64.2,23.8z M55.1,32.7c0,2.7,1.8,4.3,4,4.3c2.2,0,4-1.6,4-4.3
		c0-2.7-1.8-4.3-4-4.3C56.9,28.4,55.1,30,55.1,32.7"/>
	<linearGradient id="SVGID_3_" gradientUnits="userSpaceOnUse" x1="11.9571" y1="33.1459" x2="186.9905" y2="33.1459">
		<stop  offset="0" style="stop-color:#FF643E"/>
		<stop  offset="1" style="stop-color:#FA4336"/>
	</linearGradient>
	<path class="st2" d="M83.2,25.4h3.7v15.4h-3.6L83,38.6c-0.9,1.8-3.3,2.7-5,2.7c-4.6,0-7.9-2.8-7.9-8.2c0-5.3,3.5-8.1,8-8.1
		c2.1,0,4,1,4.9,2.5L83.2,25.4z M73.9,33.1c0,2.9,2,4.7,4.6,4.7c6,0,6-9.4,0-9.4C75.9,28.4,73.9,30.1,73.9,33.1"/>
	<linearGradient id="SVGID_4_" gradientUnits="userSpaceOnUse" x1="11.9571" y1="29.8767" x2="186.9905" y2="29.8767">
		<stop  offset="0" style="stop-color:#FF643E"/>
		<stop  offset="1" style="stop-color:#FA4336"/>
	</linearGradient>
	<rect x="91.6" y="18.9" class="st3" width="3.8" height="21.9"/>
	<linearGradient id="SVGID_5_" gradientUnits="userSpaceOnUse" x1="11.9571" y1="33.1148" x2="186.9905" y2="33.1148">
		<stop  offset="0" style="stop-color:#FF643E"/>
		<stop  offset="1" style="stop-color:#FA4336"/>
	</linearGradient>
	<path class="st4" d="M115.6,33.1c0,4.4-3,8-8,8c-5,0-8-3.6-8-8c0-4.4,3.1-8,8-8C112.5,25.1,115.6,28.7,115.6,33.1 M103.4,33.1
		c0,2.3,1.4,4.5,4.2,4.5c2.8,0,4.2-2.2,4.2-4.5c0-2.3-1.6-4.6-4.2-4.6C104.8,28.5,103.4,30.8,103.4,33.1"/>
	<linearGradient id="SVGID_6_" gradientUnits="userSpaceOnUse" x1="11.9571" y1="33.1145" x2="186.9905" y2="33.1145">
		<stop  offset="0" style="stop-color:#FF643E"/>
		<stop  offset="1" style="stop-color:#FA4336"/>
	</linearGradient>
	<path class="st5" d="M133.9,38.8c-1.8,1.8-3.7,2.4-5.9,2.4c-4.5,0-8.2-2.7-8.2-8.2c0-5.5,3.7-8.2,8.2-8.2c2.2,0,3.9,0.6,5.6,2.3
		l-2.4,2.5c-0.9-0.8-2-1.2-3.1-1.2c-2.6,0-4.4,1.9-4.4,4.6c0,2.9,2,4.5,4.4,4.5c1.2,0,2.4-0.3,3.4-1.3L133.9,38.8z"/>
	<linearGradient id="SVGID_7_" gradientUnits="userSpaceOnUse" x1="11.9571" y1="33.1459" x2="186.9905" y2="33.1459">
		<stop  offset="0" style="stop-color:#FF643E"/>
		<stop  offset="1" style="stop-color:#FA4336"/>
	</linearGradient>
	<path class="st6" d="M149.4,25.4h3.7v15.4h-3.6l-0.2-2.3c-0.9,1.8-3.3,2.7-5,2.7c-4.6,0-7.9-2.8-7.9-8.2c0-5.3,3.5-8.1,8-8.1
		c2.1,0,4,1,4.9,2.5L149.4,25.4z M140.2,33.1c0,2.9,2,4.7,4.6,4.7c6,0,6-9.4,0-9.4C142.2,28.4,140.2,30.1,140.2,33.1"/>
	<linearGradient id="SVGID_8_" gradientUnits="userSpaceOnUse" x1="11.9571" y1="45.769" x2="186.9905" y2="45.769">
		<stop  offset="0" style="stop-color:#FF643E"/>
		<stop  offset="1" style="stop-color:#FA4336"/>
	</linearGradient>
	<path class="st7" d="M173.6,46.6c0-0.2,0.2-0.3,0.3-0.3l4.7-1.2l-11.1-4.8l4.8,11.1L173.6,46.6z"/>
	<linearGradient id="SVGID_9_" gradientUnits="userSpaceOnUse" x1="11.9571" y1="46.0511" x2="186.9905" y2="46.0511">
		<stop  offset="0" style="stop-color:#FF643E"/>
		<stop  offset="1" style="stop-color:#FA4336"/>
	</linearGradient>
	<path class="st8" d="M166.3,38.9c-0.1,0.1-0.2,0.4-0.1,0.5L172,53c0.1,0.2,0.3,0.3,0.5,0.3c0.2,0,0.4-0.2,0.4-0.4l1.5-5.8l5.8-1.5
		c0.2-0.1,0.3-0.2,0.4-0.4c0,0,0,0,0,0c0-0.2-0.1-0.4-0.3-0.4l-13.6-5.8C166.6,38.7,166.4,38.8,166.3,38.9 M178.7,45l-4.7,1.2
		c-0.2,0-0.3,0.2-0.3,0.3l-1.2,4.7l-4.8-11.1L178.7,45z"/>
	<g>
		<linearGradient id="SVGID_10_" gradientUnits="userSpaceOnUse" x1="11.9571" y1="36.4151" x2="186.9905" y2="36.4151">
			<stop  offset="0" style="stop-color:#FF643E"/>
			<stop  offset="1" style="stop-color:#FA4336"/>
		</linearGradient>
		<path class="st9" d="M11,48V25.2h3.7l0.3,2.2c1.2-1.8,3.4-2.6,5.2-2.6c5,0,8.3,3.7,8.3,8.4c0,4.7-3,8.4-8.2,8.4
			c-1.7,0-4.2-0.5-5.4-2.3V48H11z M24.5,33.2c0-2.5-1.7-4.6-4.6-4.6c-2.9,0-4.6,2.1-4.6,4.6s1.9,4.6,4.6,4.6S24.5,35.8,24.5,33.2z"
			/>
	</g>
	<g>
		<linearGradient id="SVGID_11_" gradientUnits="userSpaceOnUse" x1="11.9571" y1="33.1032" x2="186.9905" y2="33.1032">
			<stop  offset="0" style="stop-color:#FF643E"/>
			<stop  offset="1" style="stop-color:#FA4336"/>
		</linearGradient>
		<path class="st10" d="M133.9,38.8c-1.8,1.7-3.6,2.4-5.9,2.4c-4.4,0-8.1-2.7-8.1-8.1s3.7-8.1,8.1-8.1c2.2,0,3.9,0.6,5.5,2.3
			l-2.4,2.5c-0.9-0.8-2-1.2-3.1-1.2c-2.5,0-4.4,1.9-4.4,4.5c0,2.9,2,4.5,4.4,4.5c1.2,0,2.4-0.3,3.4-1.3L133.9,38.8z"/>
		<linearGradient id="SVGID_12_" gradientUnits="userSpaceOnUse" x1="11.9571" y1="33.1343" x2="186.9905" y2="33.1343">
			<stop  offset="0" style="stop-color:#FF643E"/>
			<stop  offset="1" style="stop-color:#FA4336"/>
		</linearGradient>
		<path class="st11" d="M149.4,25.4h3.6v15.3h-3.6l-0.2-2.2c-0.9,1.8-3.3,2.7-5,2.7c-4.5,0-7.9-2.8-7.9-8.1c0-5.3,3.5-8.1,8-8
			c2.1,0,4,1,4.9,2.5L149.4,25.4z M140.2,33.1c0,2.9,2,4.7,4.5,4.7c6,0,6-9.3,0-9.3C142.2,28.4,140.2,30.1,140.2,33.1z"/>
		<linearGradient id="SVGID_13_" gradientUnits="userSpaceOnUse" x1="11.9571" y1="32.8856" x2="186.9905" y2="32.8856">
			<stop  offset="0" style="stop-color:#FF643E"/>
			<stop  offset="1" style="stop-color:#FA4336"/>
		</linearGradient>
		<path class="st12" d="M161.4,25.4l0.3,1.8c1.2-1.9,2.8-2.2,4.3-2.2c1.6,0,3.1,0.6,3.9,1.5l-1.7,3.3c-0.8-0.7-1.5-1-2.7-1
			c-2,0-3.8,1.1-3.8,3.9v8.1h-3.8V25.4H161.4z"/>
		<linearGradient id="SVGID_14_" gradientUnits="userSpaceOnUse" x1="11.9571" y1="30.0568" x2="186.9905" y2="30.0568">
			<stop  offset="0" style="stop-color:#FF643E"/>
			<stop  offset="1" style="stop-color:#FA4336"/>
		</linearGradient>
		<path class="st13" d="M189,19v21.7h-3.5l-0.2-2.1c-1.2,1.8-3.1,2.5-4.9,2.5c-4.5,0-7.9-3-7.9-8c0-5.3,3.3-8,7.8-8
			c1.6,0,4.1,0.9,5,2.5V19H189z M176.2,33.1c0,2.7,1.9,4.5,4.4,4.5c2.4,0,4.4-1.7,4.4-4.5c0-2.7-2.1-4.5-4.4-4.5
			C178.1,28.6,176.2,30.3,176.2,33.1z"/>
	</g>
	<linearGradient id="SVGID_15_" gradientUnits="userSpaceOnUse" x1="11.9571" y1="8.2397" x2="186.9905" y2="8.2397">
		<stop  offset="0" style="stop-color:#FF643E"/>
		<stop  offset="1" style="stop-color:#FA4336"/>
	</linearGradient>
	<path class="st14" d="M182.6,8.6c0-1.1-0.6-2-1.4-2h-35.5c-0.8,0-1.4,0.9-1.4,2v1.2h38.3V8.6z"/>
	<linearGradient id="SVGID_16_" gradientUnits="userSpaceOnUse" x1="11.9571" y1="17.8162" x2="186.9905" y2="17.8162">
		<stop  offset="0" style="stop-color:#FF643E"/>
		<stop  offset="1" style="stop-color:#FA4336"/>
	</linearGradient>
	<rect x="144.2" y="13.1" class="st15" width="38.3" height="9.5"/>
</g>
</svg>
