<?xml version="1.0" encoding="utf-8"?>
<!-- Generator: Adobe Illustrator 21.0.0, SVG Export Plug-In . SVG Version: 6.00 Build 0)  -->
<svg version="1.1" id="Capa_1" xmlns="http://www.w3.org/2000/svg" xmlns:xlink="http://www.w3.org/1999/xlink" x="0px" y="0px"
	 viewBox="0 0 425.2 141.7" style="enable-background:new 0 0 425.2 141.7;" xml:space="preserve">
<style type="text/css">
	.st0{fill:url(#SVGID_1_);}
	.st1{fill:url(#SVGID_2_);}
	.st2{fill:url(#SVGID_3_);}
	.st3{fill:url(#SVGID_4_);}
	.st4{fill:url(#SVGID_5_);}
	.st5{fill:url(#SVGID_6_);}
	.st6{fill:#FFFFFF;}
</style>
<g>
	<g>
		<g>
			<linearGradient id="SVGID_1_" gradientUnits="userSpaceOnUse" x1="397.4758" y1="76.0594" x2="61.3391" y2="76.0594">
				<stop  offset="0" style="stop-color:#C86363"/>
				<stop  offset="1" style="stop-color:#D79959"/>
			</linearGradient>
			<path class="st0" d="M181,57.5c3.2,3.2,4.8,8.1,4.8,14.7v20.7c0,2-0.6,3.6-1.7,4.7c-1.2,1.1-2.8,1.7-4.8,1.7
				c-2,0-3.5-0.6-4.7-1.8c-1.2-1.2-1.8-2.7-1.8-4.6v-0.6c-0.9,2.3-2.4,4-4.6,5.3c-2.1,1.3-4.6,1.9-7.5,1.9c-3,0-5.8-0.6-8.3-1.8
				c-2.5-1.2-4.4-2.9-5.9-5.1c-1.4-2.2-2.1-4.6-2.1-7.3c0-3.3,0.8-5.9,2.5-7.8c1.7-1.9,4.4-3.3,8.1-4.1c3.7-0.9,8.8-1.3,15.3-1.3
				h2.4v-1.6c0-2.6-0.6-4.4-1.7-5.6c-1.1-1.2-3-1.7-5.6-1.7c-2.6,0-6.4,0.9-11.3,2.7c-1.4,0.7-2.6,1-3.6,1c-1.3,0-2.4-0.5-3.2-1.4
				c-0.8-0.9-1.2-2.2-1.2-3.7c0-1.2,0.3-2.2,0.8-3c0.5-0.8,1.4-1.5,2.7-2.2c2.1-1.2,4.7-2.1,7.8-2.7c3.1-0.7,6.1-1,9.1-1
				C172.9,52.7,177.8,54.3,181,57.5z M170.1,87.2c1.6-1.8,2.5-4.1,2.5-7v-1.6H171c-4.9,0-8.4,0.4-10.4,1.2c-2,0.8-3,2.2-3,4.3
				c0,1.7,0.6,3.1,1.7,4.2c1.1,1.1,2.5,1.6,4.3,1.6C166.3,89.9,168.4,89,170.1,87.2z"/>
		</g>
		<g>
			<linearGradient id="SVGID_2_" gradientUnits="userSpaceOnUse" x1="397.4758" y1="84.2878" x2="61.3391" y2="84.2878">
				<stop  offset="0" style="stop-color:#C86363"/>
				<stop  offset="1" style="stop-color:#D79959"/>
			</linearGradient>
			<path class="st1" d="M240,54.7c1.2,1.2,1.9,2.8,1.9,4.7v34.5c0,7.3-2.1,12.7-6.3,16.5c-4.2,3.7-10.4,5.6-18.5,5.6
				c-6.8,0-12.4-1.2-16.8-3.7c-1.1-0.6-2-1.4-2.6-2.2c-0.6-0.9-0.9-1.9-0.9-3c0-1.5,0.4-2.8,1.1-3.7c0.7-1,1.7-1.5,2.9-1.5
				c0.7,0,1.5,0.1,2.4,0.4c0.9,0.3,1.9,0.6,2.8,1c1.9,0.7,3.7,1.3,5.4,1.7c1.6,0.4,3.4,0.6,5.3,0.6c3.9,0,6.8-0.9,8.7-2.7
				c1.9-1.8,2.8-4.4,2.8-8v-4.9c-1.3,2.3-3.2,4.1-5.8,5.5c-2.6,1.3-5.4,2-8.6,2c-3.9,0-7.4-0.9-10.4-2.7c-3-1.8-5.4-4.4-7.1-7.8
				c-1.7-3.4-2.6-7.3-2.6-11.7c0-4.4,0.9-8.4,2.6-11.7c1.7-3.4,4.1-6,7.1-7.9c3-1.9,6.5-2.8,10.4-2.8c3.1,0,5.9,0.7,8.5,2
				c2.5,1.3,4.5,3.1,5.8,5.4v-0.9c0-1.9,0.6-3.5,1.9-4.6c1.2-1.1,2.9-1.7,5-1.7C237.1,52.9,238.7,53.5,240,54.7z M225.4,83.8
				c1.8-2.1,2.7-5,2.7-8.7c0-3.7-0.9-6.6-2.7-8.7c-1.8-2.1-4.3-3.2-7.5-3.2c-3.2,0-5.8,1.1-7.6,3.2c-1.8,2.1-2.7,5-2.7,8.7
				c0,3.7,0.9,6.6,2.7,8.7c1.8,2.1,4.4,3.1,7.6,3.1C221.1,86.9,223.6,85.9,225.4,83.8z"/>
		</g>
		<g>
			<linearGradient id="SVGID_3_" gradientUnits="userSpaceOnUse" x1="397.4758" y1="76.0594" x2="61.3391" y2="76.0594">
				<stop  offset="0" style="stop-color:#C86363"/>
				<stop  offset="1" style="stop-color:#D79959"/>
			</linearGradient>
			<path class="st2" d="M287.3,57.5c3.2,3.2,4.8,8.1,4.8,14.7v20.7c0,2-0.6,3.6-1.7,4.7c-1.2,1.1-2.8,1.7-4.8,1.7
				c-2,0-3.5-0.6-4.7-1.8c-1.2-1.2-1.8-2.7-1.8-4.6v-0.6c-0.9,2.3-2.4,4-4.6,5.3c-2.1,1.3-4.6,1.9-7.5,1.9c-3,0-5.8-0.6-8.3-1.8
				c-2.5-1.2-4.4-2.9-5.9-5.1c-1.4-2.2-2.1-4.6-2.1-7.3c0-3.3,0.8-5.9,2.5-7.8c1.7-1.9,4.4-3.3,8.1-4.1c3.7-0.9,8.8-1.3,15.3-1.3
				h2.4v-1.6c0-2.6-0.6-4.4-1.7-5.6c-1.1-1.2-3-1.7-5.6-1.7c-2.6,0-6.4,0.9-11.3,2.7c-1.4,0.7-2.6,1-3.6,1c-1.3,0-2.4-0.5-3.2-1.4
				c-0.8-0.9-1.2-2.2-1.2-3.7c0-1.2,0.3-2.2,0.8-3c0.5-0.8,1.4-1.5,2.7-2.2c2.1-1.2,4.7-2.1,7.8-2.7c3.1-0.7,6.1-1,9.1-1
				C279.3,52.7,284.1,54.3,287.3,57.5z M276.4,87.2c1.6-1.8,2.5-4.1,2.5-7v-1.6h-1.6c-4.9,0-8.4,0.4-10.4,1.2c-2,0.8-3,2.2-3,4.3
				c0,1.7,0.6,3.1,1.7,4.2c1.1,1.1,2.5,1.6,4.3,1.6C272.6,89.9,274.8,89,276.4,87.2z"/>
		</g>
		<g>
			<linearGradient id="SVGID_4_" gradientUnits="userSpaceOnUse" x1="397.4758" y1="66.5052" x2="61.3391" y2="66.5052">
				<stop  offset="0" style="stop-color:#C86363"/>
				<stop  offset="1" style="stop-color:#D79959"/>
			</linearGradient>
			<path class="st3" d="M304.3,97.6c-1.3-1.1-2-2.7-2-4.8V40.3c0-2.1,0.7-3.7,2-4.8c1.3-1.1,3-1.6,5-1.6c1.9,0,3.6,0.5,4.9,1.6
				c1.3,1.1,2,2.7,2,4.8v52.5c0,2.1-0.7,3.7-2,4.8c-1.3,1.1-2.9,1.6-4.9,1.6C307.3,99.2,305.7,98.7,304.3,97.6z"/>
		</g>
		<g>
			<linearGradient id="SVGID_5_" gradientUnits="userSpaceOnUse" x1="397.4758" y1="76.0594" x2="61.3391" y2="76.0594">
				<stop  offset="0" style="stop-color:#C86363"/>
				<stop  offset="1" style="stop-color:#D79959"/>
			</linearGradient>
			<path class="st4" d="M335.8,96.5c-3.6-1.9-6.4-4.6-8.3-8.1c-2-3.5-2.9-7.6-2.9-12.4c0-4.8,1-8.9,2.9-12.4
				c1.9-3.5,4.7-6.2,8.3-8.1c3.6-1.9,7.8-2.8,12.5-2.8c4.8,0,8.9,0.9,12.5,2.8c3.6,1.9,6.4,4.6,8.3,8.1c1.9,3.5,2.9,7.6,2.9,12.4
				c0,4.8-1,8.9-2.9,12.4c-2,3.5-4.7,6.2-8.3,8.1c-3.6,1.9-7.8,2.9-12.5,2.9C343.6,99.4,339.4,98.5,335.8,96.5z M358.4,76
				c0-4.3-0.9-7.6-2.6-9.7c-1.7-2.1-4.2-3.2-7.5-3.2c-6.7,0-10.1,4.3-10.1,12.9c0,8.6,3.4,12.9,10.1,12.9
				C355.1,88.9,358.4,84.6,358.4,76z"/>
		</g>
	</g>
	<g>
		<linearGradient id="SVGID_6_" gradientUnits="userSpaceOnUse" x1="133.096" y1="72.0592" x2="48.3815" y2="72.0592">
			<stop  offset="0" style="stop-color:#C86363"/>
			<stop  offset="1" style="stop-color:#D79959"/>
		</linearGradient>
		<path class="st5" d="M94.8,11.1C94.8,11.1,94.8,11.1,94.8,11.1c0,0-16.1,0-21.9,0h0c-10.9,0-19.8,8.9-19.8,19.8v82.3
			c0,10.9,8.9,19.8,19.8,19.8h0c10.9,0,19.8-8.9,19.8-19.8V91.9c0.3,0,0.7,0,1.1,0c22.3,0,40.4-18.1,40.4-40.4
			C134.1,29.5,116.6,11.7,94.8,11.1z"/>
	</g>
	<path class="st6" d="M112,48.5c-2.2,0-4.2,1.1-5.3,2.9L78.4,37.6c0.2-0.6,0.3-1.3,0.3-2c0-3.5-2.8-6.3-6.3-6.3
		c-3.5,0-6.3,2.8-6.3,6.3c0,3.5,2.8,6.3,6.3,6.3c2.4,0,4.4-1.3,5.5-3.2l28.2,13.7c-0.3,0.7-0.5,1.5-0.5,2.4c0,1,0.2,2,0.7,2.8
		L70.7,76.8c-1.3-1.9-3.4-3.1-5.8-3.1c-3.9,0-7,3.1-7,7c0,3.9,3.1,7,7,7s7-3.1,7-7c0-1-0.2-1.9-0.6-2.8L107,58.7
		c1.2,1.5,3,2.4,5,2.4c3.5,0,6.3-2.8,6.3-6.3C118.3,51.3,115.5,48.5,112,48.5z"/>
</g>
</svg>
