<?xml version="1.0" encoding="utf-8"?>
<!-- Generator: Adobe Illustrator 21.1.0, SVG Export Plug-In . SVG Version: 6.00 Build 0)  -->
<svg version="1.1" id="Capa_1" xmlns="http://www.w3.org/2000/svg" xmlns:xlink="http://www.w3.org/1999/xlink" x="0px" y="0px"
	 viewBox="0 0 255.7 200" style="enable-background:new 0 0 255.7 200;" xml:space="preserve">
<style type="text/css">
	.st0{display:none;fill:url(#SVGID_1_);}
	.st1{fill:url(#SVGID_2_);}
	.st2{fill:url(#SVGID_3_);}
	.st3{fill:url(#SVGID_4_);}
	.st4{fill:url(#SVGID_5_);}
	.st5{fill:url(#SVGID_6_);}
	.st6{fill:url(#SVGID_7_);}
	.st7{fill:url(#SVGID_8_);}
	.st8{fill:url(#SVGID_9_);}
	.st9{fill:url(#SVGID_10_);}
	.st10{fill:url(#SVGID_11_);}
	.st11{fill:url(#SVGID_12_);}
	.st12{fill:url(#SVGID_13_);}
</style>
<linearGradient id="SVGID_1_" gradientUnits="userSpaceOnUse" x1="2.7" y1="233.45" x2="261.2" y2="233.45" gradientTransform="matrix(1 0 0 -1 0 200)">
	<stop  offset="0" style="stop-color:#FF643E"/>
	<stop  offset="0.7034" style="stop-color:#FA4E39"/>
	<stop  offset="1" style="stop-color:#F74336"/>
</linearGradient>
<rect x="2.7" y="-56.3" class="st0" width="258.5" height="45.7"/>
<g>
	
		<linearGradient id="SVGID_2_" gradientUnits="userSpaceOnUse" x1="100.8445" y1="51.9" x2="185.8445" y2="51.9" gradientTransform="matrix(1 0 0 -1 0 200)">
		<stop  offset="0" style="stop-color:#FAAF7C"/>
		<stop  offset="0.1732" style="stop-color:#F9996E"/>
		<stop  offset="0.5328" style="stop-color:#F86049"/>
		<stop  offset="0.7" style="stop-color:#F74336"/>
		<stop  offset="1" style="stop-color:#F74336"/>
	</linearGradient>
	<path class="st1" d="M180.1,184.8c-0.3,0-0.7,0-1,0.1c-1.3-2.4-3.9-4-6.7-4s-5.4,1.6-6.7,4c-0.3-0.1-0.7-0.1-1-0.1
		c-3.2,0-5.8,2.6-5.8,5.8c0,0.7,0.1,1.3,0.4,1.9h-8.1v-11.6h9.7c1.1,0,1.9-0.9,1.9-1.9v-77.3c0-1.1-0.9-1.9-1.9-1.9h-58
		c-1.1,0-1.9,0.9-1.9,1.9v92.8c0,1.1,0.9,1.9,1.9,1.9h77.3c3.2,0,5.8-2.6,5.8-5.8S183.3,184.8,180.1,184.8z M151.1,103.6h7.7v11.6
		h-7.7V103.6z M151.1,119.1h7.7v11.6h-7.7V119.1z M151.1,134.5h7.7v11.6h-7.7V134.5z M151.1,150h7.7v11.6h-7.7V150z M151.1,165.5
		h7.7v11.6h-7.7V165.5z M112.4,192.5h-7.7v-11.6h7.7V192.5z M112.4,177.1h-7.7v-11.6h7.7V177.1z M112.4,161.6h-7.7V150h7.7V161.6z
		 M112.4,146.1h-7.7v-11.6h7.7V146.1z M112.4,130.7h-7.7v-11.6h7.7V130.7z M112.4,115.2h-7.7v-11.6h7.7V115.2z M124,192.5h-7.7
		v-11.6h7.7V192.5z M124,177.1h-7.7v-11.6h7.7V177.1z M124,161.6h-7.7V150h7.7V161.6z M124,146.1h-7.7v-11.6h7.7V146.1z M124,130.7
		h-7.7v-11.6h7.7V130.7z M124,115.2h-7.7v-11.6h7.7V115.2z M135.6,192.5h-7.7v-11.6h7.7V192.5z M135.6,177.1h-7.7v-11.6h7.7V177.1z
		 M135.6,161.6h-7.7V150h7.7V161.6z M135.6,146.1h-7.7v-11.6h7.7V146.1z M135.6,130.7h-7.7v-11.6h7.7V130.7z M135.6,115.2h-7.7
		v-11.6h7.7V115.2z M147.2,192.5h-7.7v-11.6h7.7V192.5z M147.2,177.1h-7.7v-11.6h7.7V177.1z M147.2,161.6h-7.7V150h7.7V161.6z
		 M147.2,146.1h-7.7v-11.6h7.7V146.1z M147.2,130.7h-7.7v-11.6h7.7V130.7z M147.2,115.2h-7.7v-11.6h7.7V115.2z M180.1,192.5h-15.5
		c-1.1,0-1.9-0.9-1.9-1.9c0-1.1,0.9-1.9,1.9-1.9c0.4,0,0.7,0.1,1,0.3c0.5,0.3,1.2,0.4,1.8,0.2s1-0.7,1.2-1.4c0.4-1.8,2-3,3.8-3
		s3.3,1.2,3.8,3c0.1,0.6,0.6,1.1,1.2,1.4c0.6,0.2,1.2,0.2,1.8-0.2c1.3-0.8,3,0.2,3,1.6C182,191.7,181.2,192.5,180.1,192.5z"/>
	
		<linearGradient id="SVGID_3_" gradientUnits="userSpaceOnUse" x1="65.4863" y1="51.9" x2="187.3333" y2="51.9" gradientTransform="matrix(1 0 0 -1 0 200)">
		<stop  offset="0" style="stop-color:#FF643E"/>
		<stop  offset="0.7034" style="stop-color:#FA4E39"/>
		<stop  offset="1" style="stop-color:#F74336"/>
	</linearGradient>
	<path class="st2" d="M180.1,184.8c-0.3,0-0.7,0-1,0.1c-1.3-2.4-3.9-4-6.7-4s-5.4,1.6-6.7,4c-0.3-0.1-0.7-0.1-1-0.1
		c-3.2,0-5.8,2.6-5.8,5.8c0,0.7,0.1,1.3,0.4,1.9h-8.1v-11.6h9.7c1.1,0,1.9-0.9,1.9-1.9v-77.3c0-1.1-0.9-1.9-1.9-1.9h-58
		c-1.1,0-1.9,0.9-1.9,1.9v92.8c0,1.1,0.9,1.9,1.9,1.9h77.3c3.2,0,5.8-2.6,5.8-5.8S183.3,184.8,180.1,184.8z M151.1,103.6h7.7v11.6
		h-7.7V103.6z M151.1,119.1h7.7v11.6h-7.7V119.1z M151.1,134.5h7.7v11.6h-7.7V134.5z M151.1,150h7.7v11.6h-7.7V150z M151.1,165.5
		h7.7v11.6h-7.7V165.5z M112.4,192.5h-7.7v-11.6h7.7V192.5z M112.4,177.1h-7.7v-11.6h7.7V177.1z M112.4,161.6h-7.7V150h7.7V161.6z
		 M112.4,146.1h-7.7v-11.6h7.7V146.1z M112.4,130.7h-7.7v-11.6h7.7V130.7z M112.4,115.2h-7.7v-11.6h7.7V115.2z M124,192.5h-7.7
		v-11.6h7.7V192.5z M124,177.1h-7.7v-11.6h7.7V177.1z M124,161.6h-7.7V150h7.7V161.6z M124,146.1h-7.7v-11.6h7.7V146.1z M124,130.7
		h-7.7v-11.6h7.7V130.7z M124,115.2h-7.7v-11.6h7.7V115.2z M135.6,192.5h-7.7v-11.6h7.7V192.5z M135.6,177.1h-7.7v-11.6h7.7V177.1z
		 M135.6,161.6h-7.7V150h7.7V161.6z M135.6,146.1h-7.7v-11.6h7.7V146.1z M135.6,130.7h-7.7v-11.6h7.7V130.7z M135.6,115.2h-7.7
		v-11.6h7.7V115.2z M147.2,192.5h-7.7v-11.6h7.7V192.5z M147.2,177.1h-7.7v-11.6h7.7V177.1z M147.2,161.6h-7.7V150h7.7V161.6z
		 M147.2,146.1h-7.7v-11.6h7.7V146.1z M147.2,130.7h-7.7v-11.6h7.7V130.7z M147.2,115.2h-7.7v-11.6h7.7V115.2z M180.1,192.5h-15.5
		c-1.1,0-1.9-0.9-1.9-1.9c0-1.1,0.9-1.9,1.9-1.9c0.4,0,0.7,0.1,1,0.3c0.5,0.3,1.2,0.4,1.8,0.2s1-0.7,1.2-1.4c0.4-1.8,2-3,3.8-3
		s3.3,1.2,3.8,3c0.1,0.6,0.6,1.1,1.2,1.4c0.6,0.2,1.2,0.2,1.8-0.2c1.3-0.8,3,0.2,3,1.6C182,191.7,181.2,192.5,180.1,192.5z"/>
	
		<linearGradient id="SVGID_4_" gradientUnits="userSpaceOnUse" x1="69.911" y1="61.6" x2="170.444" y2="61.6" gradientTransform="matrix(1 0 0 -1 0 200)">
		<stop  offset="0" style="stop-color:#FAAF7C"/>
		<stop  offset="0.1732" style="stop-color:#F9996E"/>
		<stop  offset="0.5328" style="stop-color:#F86049"/>
		<stop  offset="0.7" style="stop-color:#F74336"/>
		<stop  offset="1" style="stop-color:#F74336"/>
	</linearGradient>
	<path class="st3" d="M112.4,93.9v-5.8H126c1.1,0,1.9-0.9,1.9-1.9v-1.9h7.7v1.9c0,1.1,0.9,1.9,1.9,1.9H151V92h-32.9
		c-1.1,0-1.9,0.9-1.9,1.9c0,1.1,0.9,1.9,1.9,1.9h48.3V176c0,1.1,0.9,1.9,1.9,1.9c1.1,0,1.9-0.9,1.9-1.9V93.9c0-1.1-0.9-1.9-1.9-1.9
		H155v-5.8c0-1.1-0.9-1.9-1.9-1.9h-13.5v-1.9c0-1.1-0.9-1.9-1.9-1.9H126c-1.1,0-1.9,0.9-1.9,1.9v1.9h-13.5c-1.1,0-1.9,0.9-1.9,1.9
		V92H95c-1.1,0-1.9,0.9-1.9,1.9v98.6H81.5v-7.9c4.4-0.9,7.7-4.8,7.7-9.5c0-0.3-0.1-25.1-9.7-25.1s-9.7,24.9-9.7,25.1
		c0,4.7,3.3,8.6,7.7,9.5v7.9h-5.8c-1.1,0-1.9,0.9-1.9,1.9c0,1.1,0.9,1.9,1.9,1.9H95c1.1,0,1.9-0.9,1.9-1.9V95.9h13.5
		C111.6,95.9,112.4,95,112.4,93.9z M73.8,175.1c0-9.6,2.6-21.3,5.8-21.3c3.2,0,5.8,11.6,5.8,21.3c0,3.2-2.6,5.8-5.8,5.8
		S73.8,178.3,73.8,175.1z"/>
	
		<linearGradient id="SVGID_5_" gradientUnits="userSpaceOnUse" x1="65.4863" y1="61.6" x2="187.3333" y2="61.6" gradientTransform="matrix(1 0 0 -1 0 200)">
		<stop  offset="0" style="stop-color:#FF643E"/>
		<stop  offset="0.7034" style="stop-color:#FA4E39"/>
		<stop  offset="1" style="stop-color:#F74336"/>
	</linearGradient>
	<path class="st4" d="M112.4,93.9v-5.8H126c1.1,0,1.9-0.9,1.9-1.9v-1.9h7.7v1.9c0,1.1,0.9,1.9,1.9,1.9H151V92h-32.9
		c-1.1,0-1.9,0.9-1.9,1.9c0,1.1,0.9,1.9,1.9,1.9h48.3V176c0,1.1,0.9,1.9,1.9,1.9c1.1,0,1.9-0.9,1.9-1.9V93.9c0-1.1-0.9-1.9-1.9-1.9
		H155v-5.8c0-1.1-0.9-1.9-1.9-1.9h-13.5v-1.9c0-1.1-0.9-1.9-1.9-1.9H126c-1.1,0-1.9,0.9-1.9,1.9v1.9h-13.5c-1.1,0-1.9,0.9-1.9,1.9
		V92H95c-1.1,0-1.9,0.9-1.9,1.9v98.6H81.5v-7.9c4.4-0.9,7.7-4.8,7.7-9.5c0-0.3-0.1-25.1-9.7-25.1s-9.7,24.9-9.7,25.1
		c0,4.7,3.3,8.6,7.7,9.5v7.9h-5.8c-1.1,0-1.9,0.9-1.9,1.9c0,1.1,0.9,1.9,1.9,1.9H95c1.1,0,1.9-0.9,1.9-1.9V95.9h13.5
		C111.6,95.9,112.4,95,112.4,93.9z M73.8,175.1c0-9.6,2.6-21.3,5.8-21.3c3.2,0,5.8,11.6,5.8,21.3c0,3.2-2.6,5.8-5.8,5.8
		S73.8,178.3,73.8,175.1z"/>
</g>
<g>
	<linearGradient id="SVGID_6_" gradientUnits="userSpaceOnUse" x1="2.25" y1="27.3586" x2="254.0635" y2="27.3586">
		<stop  offset="0" style="stop-color:#FF643E"/>
		<stop  offset="0.7034" style="stop-color:#FA4E39"/>
		<stop  offset="1" style="stop-color:#F74336"/>
	</linearGradient>
	<path class="st5" d="M16.8,9.4l-12.2,36h4.7l3.5-11h13.1l3.4,11h4.9L22,9.4H16.8z M24.7,30.7H13.9l1.7-5.5c0.7-2,1.3-4,1.9-6
		c0.6-2,1.2-4,1.7-6.1h0.2c0.6,2.1,1.2,4.1,1.8,6.1c0.6,2,1.2,4,1.9,6L24.7,30.7z"/>
	<linearGradient id="SVGID_7_" gradientUnits="userSpaceOnUse" x1="2.25" y1="27.3586" x2="254.0635" y2="27.3586">
		<stop  offset="0" style="stop-color:#FF643E"/>
		<stop  offset="0.7034" style="stop-color:#FA4E39"/>
		<stop  offset="1" style="stop-color:#F74336"/>
	</linearGradient>
	<path class="st6" d="M57.1,9.4l-5.8,19.4c-0.6,2.2-1.2,4.1-1.7,6c-0.5,1.8-1.1,3.8-1.8,5.9h-0.2c-0.7-2.1-1.3-4.1-1.8-5.9
		c-0.5-1.8-1.1-3.8-1.7-6L38.4,9.4h-4.9l11.5,36h5.3l11.4-36H57.1z"/>
	<linearGradient id="SVGID_8_" gradientUnits="userSpaceOnUse" x1="2.25" y1="27.3586" x2="254.0635" y2="27.3586">
		<stop  offset="0" style="stop-color:#FF643E"/>
		<stop  offset="0.7034" style="stop-color:#FA4E39"/>
		<stop  offset="1" style="stop-color:#F74336"/>
	</linearGradient>
	<path class="st7" d="M73.4,9.4l-12.2,36h4.7l3.5-11h13.1l3.4,11h4.9l-12.2-36H73.4z M81.3,30.7H70.5l1.7-5.5c0.7-2,1.3-4,1.9-6
		c0.6-2,1.2-4,1.7-6.1h0.2c0.6,2.1,1.2,4.1,1.8,6.1c0.6,2,1.2,4,1.9,6L81.3,30.7z"/>
	<linearGradient id="SVGID_9_" gradientUnits="userSpaceOnUse" x1="2.25" y1="27.3586" x2="254.0635" y2="27.3586">
		<stop  offset="0" style="stop-color:#FF643E"/>
		<stop  offset="0.7034" style="stop-color:#FA4E39"/>
		<stop  offset="1" style="stop-color:#F74336"/>
	</linearGradient>
	<path class="st8" d="M117.1,28c0,1.9,0.1,3.8,0.2,5.8c0.1,2,0.2,3.8,0.4,5.7h-0.2l-3.9-7.5l-13-22.6h-4.7v36h4.3V26.5
		c0-1.9-0.1-3.8-0.2-5.7c-0.1-1.9-0.3-3.7-0.4-5.6h0.2l3.9,7.4l13,22.6h4.7v-36h-4.3V28z"/>
	<linearGradient id="SVGID_10_" gradientUnits="userSpaceOnUse" x1="2.25" y1="27.3586" x2="254.0635" y2="27.3586">
		<stop  offset="0" style="stop-color:#FF643E"/>
		<stop  offset="0.7034" style="stop-color:#FA4E39"/>
		<stop  offset="1" style="stop-color:#F74336"/>
	</linearGradient>
	<polygon class="st9" points="153.4,12.1 153.4,9.4 130.5,9.4 130.5,13.2 147.7,13.2 128.8,42.6 128.8,45.3 153.6,45.3 153.6,41.4 
		134.4,41.4 	"/>
	<linearGradient id="SVGID_11_" gradientUnits="userSpaceOnUse" x1="2.25" y1="27.3586" x2="254.0635" y2="27.3586">
		<stop  offset="0" style="stop-color:#FF643E"/>
		<stop  offset="0.7034" style="stop-color:#FA4E39"/>
		<stop  offset="1" style="stop-color:#F74336"/>
	</linearGradient>
	<path class="st10" d="M167.9,9.4l-12.2,36h4.7l3.5-11h13.1l3.4,11h4.9L173,9.4H167.9z M175.8,30.7H165l1.7-5.5c0.7-2,1.3-4,1.9-6
		c0.6-2,1.2-4,1.7-6.1h0.2c0.6,2.1,1.2,4.1,1.8,6.1c0.6,2,1.2,4,1.9,6L175.8,30.7z"/>
	<linearGradient id="SVGID_12_" gradientUnits="userSpaceOnUse" x1="2.25" y1="27.3586" x2="254.0635" y2="27.3586">
		<stop  offset="0" style="stop-color:#FF643E"/>
		<stop  offset="0.7034" style="stop-color:#FA4E39"/>
		<stop  offset="1" style="stop-color:#F74336"/>
	</linearGradient>
	<path class="st11" d="M199.3,9.4h-9v36h9.2c2.7,0,5.1-0.4,7.2-1.2c2.1-0.8,3.8-2,5.3-3.6c1.4-1.6,2.5-3.5,3.2-5.7s1.1-4.8,1.1-7.6
		c0-5.7-1.4-10.1-4.3-13.2C209.1,10.9,204.9,9.4,199.3,9.4z M208.4,37.8c-2.1,2.5-5.3,3.8-9.5,3.8h-4.1V13.1h4.1
		c4.2,0,7.4,1.2,9.5,3.6c2.1,2.4,3.2,5.9,3.2,10.5C211.6,31.8,210.5,35.3,208.4,37.8z"/>
	<linearGradient id="SVGID_13_" gradientUnits="userSpaceOnUse" x1="2.25" y1="27.3586" x2="254.0635" y2="27.3586">
		<stop  offset="0" style="stop-color:#FF643E"/>
		<stop  offset="0.7034" style="stop-color:#FA4E39"/>
		<stop  offset="1" style="stop-color:#F74336"/>
	</linearGradient>
	<path class="st12" d="M248.4,13.7c-1.4-1.6-3-2.8-4.9-3.7c-1.9-0.9-4-1.3-6.2-1.3c-2.3,0-4.3,0.4-6.2,1.3c-1.9,0.8-3.5,2.1-4.9,3.6
		c-1.4,1.6-2.4,3.5-3.2,5.8c-0.7,2.3-1.1,4.9-1.1,7.8c0,2.9,0.4,5.5,1.1,7.8c0.7,2.3,1.8,4.3,3.2,5.9c1.4,1.6,3,2.9,4.9,3.8
		c1.9,0.9,4,1.3,6.2,1.3c2.3,0,4.3-0.4,6.2-1.3c1.9-0.9,3.5-2.1,4.9-3.8c1.4-1.6,2.4-3.6,3.2-5.9c0.7-2.3,1.1-4.9,1.1-7.8
		c0-2.9-0.4-5.4-1.1-7.7C250.8,17.2,249.8,15.3,248.4,13.7z M247.2,33.3c-0.5,1.8-1.2,3.4-2.2,4.7c-0.9,1.3-2,2.3-3.3,3
		c-1.3,0.7-2.8,1-4.4,1c-1.6,0-3.1-0.3-4.4-1c-1.3-0.7-2.4-1.7-3.3-3c-0.9-1.3-1.7-2.9-2.2-4.7c-0.5-1.8-0.8-3.8-0.8-6.1
		c0-2.2,0.3-4.2,0.8-6c0.5-1.8,1.2-3.3,2.2-4.6c0.9-1.2,2-2.2,3.3-2.9c1.3-0.7,2.8-1,4.4-1c1.6,0,3.1,0.3,4.4,1
		c1.3,0.7,2.4,1.6,3.3,2.9c0.9,1.2,1.7,2.8,2.2,4.6c0.5,1.8,0.8,3.8,0.8,6C247.9,29.5,247.7,31.5,247.2,33.3z"/>
</g>
</svg>
