<?xml version="1.0" encoding="utf-8"?>
<!-- Generator: Adobe Illustrator 21.1.0, SVG Export Plug-In . SVG Version: 6.00 Build 0)  -->
<svg version="1.1" id="Capa_1" xmlns="http://www.w3.org/2000/svg" xmlns:xlink="http://www.w3.org/1999/xlink" x="0px" y="0px"
	 viewBox="0 0 268.7 200" style="enable-background:new 0 0 268.7 200;" xml:space="preserve">
<style type="text/css">
	.st0{display:none;fill:url(#SVGID_1_);}
	.st1{fill:#FFFFFF;}
</style>
<linearGradient id="SVGID_1_" gradientUnits="userSpaceOnUse" x1="7.1" y1="233.45" x2="265.6" y2="233.45" gradientTransform="matrix(1 0 0 -1 0 200)">
	<stop  offset="0" style="stop-color:#FF643E"/>
	<stop  offset="0.7034" style="stop-color:#FA4E39"/>
	<stop  offset="1" style="stop-color:#F74336"/>
</linearGradient>
<rect x="7.1" y="-56.3" class="st0" width="258.5" height="45.7"/>
<g>
	<path class="st1" d="M221,162.2h-3.8l0.2-4.3c0-0.5-0.2-1-0.5-1.3c-0.3-0.4-0.8-0.6-1.3-0.6h-39.1c-0.5,0-1,0.2-1.3,0.6
		c-0.3,0.4-0.5,0.8-0.5,1.3l0.8,16.5c0.2,4.1,2.7,7.5,6.2,9.1h-11.5v-5.4c0-1.8-1.4-3.2-3.2-3.2h-0.8v-69c0-4.5-3.6-8.1-8.1-8.1
		H60.7c-4.5,0-8.1,3.6-8.1,8.1v69h-0.9c-1.8,0-3.2,1.4-3.2,3.2v5.4h-6.8c-1,0-1.8,0.8-1.8,1.8s0.8,1.8,1.8,1.8h10H167h51.2
		c1,0,1.8-0.8,1.8-1.8s-0.8-1.8-1.8-1.8h-7.8c2.9-1.3,5-3.8,5.9-6.8h4.8c4,0,7.3-3.3,7.3-7.3C228.3,165.5,225,162.2,221,162.2z
		 M60.7,108c0-1.1,0.9-2,2-2H156c1.1,0,2,0.9,2,2v60.9c0,1.1-0.9,2-2,2H62.7c-1.1,0-2-0.9-2-2V108z M166.2,183.1v0.5H52.6V179h45.6
		c0.9,1.3,2.4,2,4,2h16.2c1.6,0,3.1-0.8,4-2h43.8V183.1z M213,174.3c-0.2,3.7-3.2,6.6-6.9,6.6H186c-3.7,0-6.8-2.9-6.9-6.6l-0.7-14.7
		h35.3L213,174.3z M221,173.2h-4.4l0.4-7.4h0.1h4c2,0,3.7,1.7,3.7,3.7S223.1,173.2,221,173.2z"/>
	<path class="st1" d="M221,162.2h-3.8l0.2-4.3c0-0.5-0.2-1-0.5-1.3c-0.3-0.4-0.8-0.6-1.3-0.6h-39.1c-0.5,0-1,0.2-1.3,0.6
		c-0.3,0.4-0.5,0.8-0.5,1.3l0.8,16.5c0.2,4.1,2.7,7.5,6.2,9.1h-11.5v-5.4c0-1.8-1.4-3.2-3.2-3.2h-0.8v-69c0-4.5-3.6-8.1-8.1-8.1
		H60.7c-4.5,0-8.1,3.6-8.1,8.1v69h-0.9c-1.8,0-3.2,1.4-3.2,3.2v5.4h-6.8c-1,0-1.8,0.8-1.8,1.8s0.8,1.8,1.8,1.8h10H167h51.2
		c1,0,1.8-0.8,1.8-1.8s-0.8-1.8-1.8-1.8h-7.8c2.9-1.3,5-3.8,5.9-6.8h4.8c4,0,7.3-3.3,7.3-7.3C228.3,165.5,225,162.2,221,162.2z
		 M60.7,108c0-1.1,0.9-2,2-2H156c1.1,0,2,0.9,2,2v60.9c0,1.1-0.9,2-2,2H62.7c-1.1,0-2-0.9-2-2V108z M166.2,183.1v0.5H52.6V179h45.6
		c0.9,1.3,2.4,2,4,2h16.2c1.6,0,3.1-0.8,4-2h43.8V183.1z M213,174.3c-0.2,3.7-3.2,6.6-6.9,6.6H186c-3.7,0-6.8-2.9-6.9-6.6l-0.7-14.7
		h35.3L213,174.3z M221,173.2h-4.4l0.4-7.4h0.1h4c2,0,3.7,1.7,3.7,3.7S223.1,173.2,221,173.2z"/>
	<path class="st1" d="M190.8,153.2c0.3,0.2,0.6,0.2,0.9,0.2c0.6,0,1.2-0.3,1.5-0.9c0.5-0.8,0.2-1.9-0.6-2.4c-1-0.6-1.7-1.7-1.9-3
		s0.1-2.7,0.9-3.6l0,0c0.2-0.2,0.4-0.4,0.6-0.7c1.6-1.9,3.3-3.8,3.8-6.7c0.2-1-0.5-1.9-1.4-2.1c-1-0.2-1.9,0.5-2.1,1.4
		c-0.3,1.9-1.6,3.3-3,4.9c-0.2,0.2-0.4,0.4-0.6,0.7c-1.5,1.7-2.2,4.1-1.8,6.5C187.6,150,188.9,152,190.8,153.2z"/>
	<path class="st1" d="M190.8,153.2c0.3,0.2,0.6,0.2,0.9,0.2c0.6,0,1.2-0.3,1.5-0.9c0.5-0.8,0.2-1.9-0.6-2.4c-1-0.6-1.7-1.7-1.9-3
		s0.1-2.7,0.9-3.6l0,0c0.2-0.2,0.4-0.4,0.6-0.7c1.6-1.9,3.3-3.8,3.8-6.7c0.2-1-0.5-1.9-1.4-2.1c-1-0.2-1.9,0.5-2.1,1.4
		c-0.3,1.9-1.6,3.3-3,4.9c-0.2,0.2-0.4,0.4-0.6,0.7c-1.5,1.7-2.2,4.1-1.8,6.5C187.6,150,188.9,152,190.8,153.2z"/>
	<path class="st1" d="M196.3,149.1c0.6,1.5,1.6,2.9,2.9,3.9c0.3,0.2,0.7,0.4,1.1,0.4c0.5,0,1.1-0.2,1.4-0.7c0.6-0.8,0.4-1.9-0.3-2.5
		c-0.8-0.6-1.4-1.5-1.8-2.4c-0.7-1.8,0-3.6,2.2-5.9c1.6-1.7,2.6-3.7,2.9-5.8c0.2-1-0.5-1.9-1.5-2c-1-0.2-1.9,0.5-2,1.5
		c-0.2,1.4-0.9,2.7-2,3.9C198.1,140.7,194.5,144.5,196.3,149.1z"/>
	<path class="st1" d="M196.3,149.1c0.6,1.5,1.6,2.9,2.9,3.9c0.3,0.2,0.7,0.4,1.1,0.4c0.5,0,1.1-0.2,1.4-0.7c0.6-0.8,0.4-1.9-0.3-2.5
		c-0.8-0.6-1.4-1.5-1.8-2.4c-0.7-1.8,0-3.6,2.2-5.9c1.6-1.7,2.6-3.7,2.9-5.8c0.2-1-0.5-1.9-1.5-2c-1-0.2-1.9,0.5-2,1.5
		c-0.2,1.4-0.9,2.7-2,3.9C198.1,140.7,194.5,144.5,196.3,149.1z"/>
</g>
<g>
	<polygon class="st1" points="6.3,43 10.3,43 10.3,29 22.2,29 22.2,25.6 10.3,25.6 10.3,15 24.4,15 24.4,11.7 6.3,11.7 	"/>
	<path class="st1" d="M48.8,26.4c1.3-1.5,1.9-3.4,1.9-5.9c0-1.6-0.3-3-0.8-4.1c-0.5-1.1-1.3-2-2.3-2.7s-2.1-1.2-3.5-1.5
		c-1.4-0.3-2.8-0.5-4.4-0.5h-9.8V43h4V29.8h5.7L47.1,43h4.5l-8-13.7C45.8,28.8,47.5,27.8,48.8,26.4z M39.2,26.6h-5.3V14.9h5.3
		c2.5,0,4.3,0.4,5.6,1.2c1.3,0.8,2,2.3,2,4.3c0,2-0.7,3.6-2,4.6C43.5,26.1,41.6,26.6,39.2,26.6z"/>
	<polygon class="st1" points="61.1,28.3 73,28.3 73,24.9 61.1,24.9 61.1,15 75.2,15 75.2,11.7 57.1,11.7 57.1,43 75.7,43 75.7,39.7 
		61.1,39.7 	"/>
	<polygon class="st1" points="86.3,28.3 98.2,28.3 98.2,24.9 86.3,24.9 86.3,15 100.4,15 100.4,11.7 82.3,11.7 82.3,43 100.9,43 
		100.9,39.7 86.3,39.7 	"/>
	<polygon class="st1" points="111.5,11.7 107.5,11.7 107.5,43 125.2,43 125.2,39.7 111.5,39.7 	"/>
	<path class="st1" d="M137.3,11.7L126.7,43h4.1l3-9.6h11.4l3,9.6h4.3l-10.6-31.4H137.3z M144.2,30.3h-9.4l1.5-4.8
		c0.6-1.8,1.1-3.5,1.6-5.2c0.5-1.7,1-3.5,1.5-5.3h0.2c0.5,1.8,1,3.6,1.5,5.3c0.5,1.7,1.1,3.5,1.6,5.2L144.2,30.3z"/>
	<path class="st1" d="M175.4,27.9c0,1.7,0.1,3.3,0.2,5c0.1,1.7,0.2,3.4,0.3,4.9h-0.2l-3.4-6.5L161,11.7h-4.1V43h3.8V26.6
		c0-1.7-0.1-3.3-0.2-4.9c-0.1-1.6-0.2-3.3-0.4-4.9h0.2l3.4,6.5L175.1,43h4.1V11.7h-3.8V27.9z"/>
	<path class="st1" d="M203.8,39.2c-1.1,0.6-2.5,0.9-4,0.9c-1.5,0-2.8-0.3-4-0.9c-1.2-0.6-2.2-1.5-3-2.6c-0.8-1.1-1.5-2.5-1.9-4
		c-0.5-1.6-0.7-3.4-0.7-5.3c0-1.9,0.2-3.7,0.7-5.3c0.5-1.6,1.1-2.9,2-4c0.9-1.1,1.9-1.9,3.1-2.5c1.2-0.6,2.6-0.9,4.1-0.9
		c1.3,0,2.5,0.3,3.6,0.8c1.1,0.5,2,1.3,2.8,2.2l2.2-2.6c-0.9-1-2.1-1.9-3.6-2.7c-1.5-0.8-3.1-1.2-5-1.2c-2,0-3.9,0.4-5.5,1.1
		c-1.7,0.7-3.2,1.8-4.4,3.2c-1.2,1.4-2.2,3.1-2.9,5.1c-0.7,2-1.1,4.3-1.1,6.8c0,2.5,0.3,4.8,1,6.9c0.7,2,1.6,3.7,2.9,5.1
		c1.2,1.4,2.7,2.4,4.3,3.2c1.7,0.7,3.5,1.1,5.4,1.1c2,0,3.8-0.4,5.4-1.2c1.6-0.8,3-1.9,4.2-3.3l-2.2-2.5
		C206,37.7,205,38.6,203.8,39.2z"/>
	<polygon class="st1" points="219.1,28.3 231,28.3 231,24.9 219.1,24.9 219.1,15 233.2,15 233.2,11.7 215.1,11.7 215.1,43 233.6,43 
		233.6,39.7 219.1,39.7 	"/>
	<path class="st1" d="M259.2,26.4c1.3-1.5,1.9-3.4,1.9-5.9c0-1.6-0.3-3-0.8-4.1c-0.5-1.1-1.3-2-2.3-2.7c-1-0.7-2.1-1.2-3.5-1.5
		c-1.4-0.3-2.8-0.5-4.4-0.5h-9.8V43h4V29.8h5.7l7.6,13.2h4.5l-8-13.7C256.2,28.8,257.9,27.8,259.2,26.4z M249.5,26.6h-5.3V14.9h5.3
		c2.5,0,4.3,0.4,5.6,1.2c1.3,0.8,2,2.3,2,4.3c0,2-0.7,3.6-2,4.6C253.8,26.1,252,26.6,249.5,26.6z"/>
</g>
</svg>
