<?xml version="1.0" encoding="utf-8"?>
<!-- Generator: Adobe Illustrator 21.1.0, SVG Export Plug-In . SVG Version: 6.00 Build 0)  -->
<svg version="1.1" id="Capa_1" xmlns="http://www.w3.org/2000/svg" xmlns:xlink="http://www.w3.org/1999/xlink" x="0px" y="0px"
	 viewBox="0 0 196 200" style="enable-background:new 0 0 196 200;" xml:space="preserve">
<style type="text/css">
	.st0{display:none;fill:url(#SVGID_1_);}
	.st1{fill:url(#SVGID_2_);}
	.st2{fill:url(#SVGID_3_);}
	.st3{fill:url(#SVGID_4_);}
	.st4{fill:url(#SVGID_5_);}
	.st5{fill:url(#SVGID_6_);}
	.st6{fill:url(#SVGID_7_);}
	.st7{fill:url(#SVGID_8_);}
	.st8{fill:url(#SVGID_9_);}
	.st9{fill:url(#SVGID_10_);}
	.st10{fill:url(#SVGID_11_);}
	.st11{fill:url(#SVGID_12_);}
	.st12{fill:url(#SVGID_13_);}
	.st13{fill:url(#SVGID_14_);}
	.st14{fill:url(#SVGID_15_);}
	.st15{fill:url(#SVGID_16_);}
	.st16{fill:url(#SVGID_17_);}
	.st17{fill:url(#SVGID_18_);}
</style>
<linearGradient id="SVGID_1_" gradientUnits="userSpaceOnUse" x1="-29.2" y1="233.45" x2="229.3" y2="233.45" gradientTransform="matrix(1 0 0 -1 0 200)">
	<stop  offset="0" style="stop-color:#FF643E"/>
	<stop  offset="0.7034" style="stop-color:#FA4E39"/>
	<stop  offset="1" style="stop-color:#F74336"/>
</linearGradient>
<rect x="-29.2" y="-56.3" class="st0" width="258.5" height="45.7"/>
<g>
	
		<linearGradient id="SVGID_2_" gradientUnits="userSpaceOnUse" x1="45.6952" y1="9.4" x2="49.8061" y2="9.4" gradientTransform="matrix(1 0 0 -1 0 200)">
		<stop  offset="0" style="stop-color:#FAAF7C"/>
		<stop  offset="0.1732" style="stop-color:#F9996E"/>
		<stop  offset="0.5328" style="stop-color:#F86049"/>
		<stop  offset="0.7" style="stop-color:#F74336"/>
		<stop  offset="1" style="stop-color:#F74336"/>
	</linearGradient>
	<circle class="st1" cx="47.8" cy="190.6" r="2.1"/>
	
		<linearGradient id="SVGID_3_" gradientUnits="userSpaceOnUse" x1="42.7471" y1="9.4" x2="157.2329" y2="9.4" gradientTransform="matrix(1 0 0 -1 0 200)">
		<stop  offset="0" style="stop-color:#FF643E"/>
		<stop  offset="0.7034" style="stop-color:#FA4E39"/>
		<stop  offset="1" style="stop-color:#F74336"/>
	</linearGradient>
	<circle class="st2" cx="47.8" cy="190.6" r="2.1"/>
	
		<linearGradient id="SVGID_4_" gradientUnits="userSpaceOnUse" x1="98.1974" y1="61.6" x2="102.3001" y2="61.6" gradientTransform="matrix(1 0 0 -1 0 200)">
		<stop  offset="0" style="stop-color:#FAAF7C"/>
		<stop  offset="0.1732" style="stop-color:#F9996E"/>
		<stop  offset="0.5328" style="stop-color:#F86049"/>
		<stop  offset="0.7" style="stop-color:#F74336"/>
		<stop  offset="1" style="stop-color:#F74336"/>
	</linearGradient>
	<circle class="st3" cx="100.2" cy="138.4" r="2.1"/>
	
		<linearGradient id="SVGID_5_" gradientUnits="userSpaceOnUse" x1="42.7471" y1="61.6" x2="157.2329" y2="61.6" gradientTransform="matrix(1 0 0 -1 0 200)">
		<stop  offset="0" style="stop-color:#FF643E"/>
		<stop  offset="0.7034" style="stop-color:#FA4E39"/>
		<stop  offset="1" style="stop-color:#F74336"/>
	</linearGradient>
	<circle class="st4" cx="100.2" cy="138.4" r="2.1"/>
	
		<linearGradient id="SVGID_6_" gradientUnits="userSpaceOnUse" x1="112.2107" y1="81.35" x2="129.6642" y2="81.35" gradientTransform="matrix(1 0 0 -1 0 200)">
		<stop  offset="0" style="stop-color:#FAAF7C"/>
		<stop  offset="0.1732" style="stop-color:#F9996E"/>
		<stop  offset="0.5328" style="stop-color:#F86049"/>
		<stop  offset="0.7" style="stop-color:#F74336"/>
		<stop  offset="1" style="stop-color:#F74336"/>
	</linearGradient>
	<path class="st5" d="M120.9,109.9c-2.3,0-4.5,0.9-6.2,2.6c-3.4,3.4-3.4,8.9,0,12.3c1.7,1.7,3.9,2.6,6.2,2.6c2.2,0,4.5-0.9,6.2-2.6
		c3.4-3.4,3.4-8.9,0-12.3C125.5,110.8,123.3,109.9,120.9,109.9z M124.2,121.9c-1.8,1.8-4.7,1.8-6.5,0s-1.8-4.7,0-6.5
		c0.9-0.9,2-1.4,3.3-1.4c1.2,0,2.4,0.5,3.3,1.4C126,117.1,126,120.1,124.2,121.9z"/>
	
		<linearGradient id="SVGID_7_" gradientUnits="userSpaceOnUse" x1="42.7471" y1="81.35" x2="157.2329" y2="81.35" gradientTransform="matrix(1 0 0 -1 0 200)">
		<stop  offset="0" style="stop-color:#FF643E"/>
		<stop  offset="0.7034" style="stop-color:#FA4E39"/>
		<stop  offset="1" style="stop-color:#F74336"/>
	</linearGradient>
	<path class="st6" d="M120.9,109.9c-2.3,0-4.5,0.9-6.2,2.6c-3.4,3.4-3.4,8.9,0,12.3c1.7,1.7,3.9,2.6,6.2,2.6c2.2,0,4.5-0.9,6.2-2.6
		c3.4-3.4,3.4-8.9,0-12.3C125.5,110.8,123.3,109.9,120.9,109.9z M124.2,121.9c-1.8,1.8-4.7,1.8-6.5,0s-1.8-4.7,0-6.5
		c0.9-0.9,2-1.4,3.3-1.4c1.2,0,2.4,0.5,3.3,1.4C126,117.1,126,120.1,124.2,121.9z"/>
	
		<linearGradient id="SVGID_8_" gradientUnits="userSpaceOnUse" x1="52.3049" y1="23.8576" x2="72.4556" y2="23.8576" gradientTransform="matrix(1 0 0 -1 0 200)">
		<stop  offset="0" style="stop-color:#FAAF7C"/>
		<stop  offset="0.1732" style="stop-color:#F9996E"/>
		<stop  offset="0.5328" style="stop-color:#F86049"/>
		<stop  offset="0.7" style="stop-color:#F74336"/>
		<stop  offset="1" style="stop-color:#F74336"/>
	</linearGradient>
	<path class="st7" d="M71.3,172.4c-1-0.5-2.2-0.1-2.8,0.9l-2.4,4.9c-1.1,2.1-3.2,3.6-5.6,3.7l-2.8,0.2c-0.5,0-0.8-0.2-0.9-0.4
		c-0.1-0.1-0.4-0.5-0.4-0.9l0.2-2.8c0.2-2.4,1.6-4.5,3.7-5.6l4.9-2.4c1-0.5,1.4-1.7,0.9-2.8c-0.5-1-1.7-1.4-2.8-0.9l-4.9,2.4
		c-3.4,1.7-5.7,5.1-6,9l-0.2,2.8c-0.1,1.5,0.5,3,1.5,4.1c1,1,2.4,1.6,3.8,1.6c0.1,0,0.2,0,0.4,0l2.8-0.2c3.8-0.3,7.3-2.6,9-6
		l2.4-4.9C72.7,174.1,72.3,172.9,71.3,172.4z"/>
	
		<linearGradient id="SVGID_9_" gradientUnits="userSpaceOnUse" x1="42.7471" y1="23.8576" x2="157.2329" y2="23.8576" gradientTransform="matrix(1 0 0 -1 0 200)">
		<stop  offset="0" style="stop-color:#FF643E"/>
		<stop  offset="0.7034" style="stop-color:#FA4E39"/>
		<stop  offset="1" style="stop-color:#F74336"/>
	</linearGradient>
	<path class="st8" d="M71.3,172.4c-1-0.5-2.2-0.1-2.8,0.9l-2.4,4.9c-1.1,2.1-3.2,3.6-5.6,3.7l-2.8,0.2c-0.5,0-0.8-0.2-0.9-0.4
		c-0.1-0.1-0.4-0.5-0.4-0.9l0.2-2.8c0.2-2.4,1.6-4.5,3.7-5.6l4.9-2.4c1-0.5,1.4-1.7,0.9-2.8c-0.5-1-1.7-1.4-2.8-0.9l-4.9,2.4
		c-3.4,1.7-5.7,5.1-6,9l-0.2,2.8c-0.1,1.5,0.5,3,1.5,4.1c1,1,2.4,1.6,3.8,1.6c0.1,0,0.2,0,0.4,0l2.8-0.2c3.8-0.3,7.3-2.6,9-6
		l2.4-4.9C72.7,174.1,72.3,172.9,71.3,172.4z"/>
	
		<linearGradient id="SVGID_10_" gradientUnits="userSpaceOnUse" x1="45.6988" y1="59.4" x2="150.3048" y2="59.4" gradientTransform="matrix(1 0 0 -1 0 200)">
		<stop  offset="0" style="stop-color:#FAAF7C"/>
		<stop  offset="0.1732" style="stop-color:#F9996E"/>
		<stop  offset="0.5328" style="stop-color:#F86049"/>
		<stop  offset="0.7" style="stop-color:#F74336"/>
		<stop  offset="1" style="stop-color:#F74336"/>
	</linearGradient>
	<path class="st9" d="M145.3,88.6l-1.9,0.1c-17.1,1.1-33.2,9.4-44,22.7l-4.5,5.5l-11.8-0.3c0,0,0,0-0.1,0c-9.3,0-18.1,3.6-24.7,10.2
		l-12.1,12.1c-0.6,0.6-0.8,1.4-0.5,2.2s1,1.3,1.8,1.3l25.5,1.3l-1,1.3c-0.5,0.6-0.6,1.5-0.2,2.3c0.4,0.7,0.8,1.5,1.3,2.2l-6,7.2
		c-0.5,0.6-0.6,1.5-0.3,2.2c1.3,2.8,3.1,5.3,5.2,7.5c2.2,2.2,4.8,4,7.6,5.4c0.3,0.1,0.6,0.2,0.9,0.2c0.5,0,0.9-0.2,1.3-0.5
		c1.3-1.1,2.8-2.3,4.3-3.5c1-0.9,2.1-1.7,3.1-2.6c0.6,0.4,1.2,0.7,1.8,1c0.3,0.2,0.6,0.2,1,0.2s0.9-0.1,1.3-0.4l1.4-1.1l1.3,25.6
		c0,0.8,0.6,1.5,1.3,1.8c0.2,0.1,0.5,0.1,0.7,0.1c0.5,0,1.1-0.2,1.5-0.6l12.1-12.1c6.6-6.6,10.2-15.4,10.2-24.7V144l4.8-3.7
		c14.2-11.1,22.9-27.7,23.8-45.7v-1c0.1-1.3-0.4-2.7-1.4-3.6C147.9,89,146.6,88.6,145.3,88.6z M52.5,138.6l8.8-8.8
		c5.8-5.8,13.5-9,21.8-9l8.6,0.3l-15.3,18.8L52.5,138.6z M83.4,164.7c-1.1,0.9-2.2,1.8-3.2,2.6c-2-1.1-3.8-2.4-5.3-4
		c-1.5-1.5-2.8-3.3-3.8-5.2l4.4-5.3c1.3,1.8,2.8,3.5,4.4,5.1l0,0l0,0l0,0c1.8,1.8,3.6,3.4,5.6,4.9C84.9,163.5,84.2,164.1,83.4,164.7
		z M108.6,177.1l-8.8,8.8L98.5,162l19-14.8v8.1l0,0C117.6,163.5,114.4,171.3,108.6,177.1z M146.2,94.4c-0.8,16.8-8.9,32.4-22.2,42.7
		l-32.2,25c-2.7-1.6-5.2-3.4-7.4-5.5l10.8-10.8c0.8-0.8,0.8-2.1,0-2.9c-0.8-0.8-2.1-0.8-2.9,0l-10.8,10.8c-2-2.2-3.8-4.6-5.3-7.2
		l26.4-32.5c10.1-12.4,25.1-20.2,41-21.2l1.9-0.1c0.3,0,0.4,0.1,0.5,0.2s0.2,0.2,0.2,0.5V94.4z"/>
	
		<linearGradient id="SVGID_11_" gradientUnits="userSpaceOnUse" x1="42.7471" y1="59.4" x2="157.2329" y2="59.4" gradientTransform="matrix(1 0 0 -1 0 200)">
		<stop  offset="0" style="stop-color:#FF643E"/>
		<stop  offset="0.7034" style="stop-color:#FA4E39"/>
		<stop  offset="1" style="stop-color:#F74336"/>
	</linearGradient>
	<path class="st10" d="M145.3,88.6l-1.9,0.1c-17.1,1.1-33.2,9.4-44,22.7l-4.5,5.5l-11.8-0.3c0,0,0,0-0.1,0
		c-9.3,0-18.1,3.6-24.7,10.2l-12.1,12.1c-0.6,0.6-0.8,1.4-0.5,2.2s1,1.3,1.8,1.3l25.5,1.3l-1,1.3c-0.5,0.6-0.6,1.5-0.2,2.3
		c0.4,0.7,0.8,1.5,1.3,2.2l-6,7.2c-0.5,0.6-0.6,1.5-0.3,2.2c1.3,2.8,3.1,5.3,5.2,7.5c2.2,2.2,4.8,4,7.6,5.4c0.3,0.1,0.6,0.2,0.9,0.2
		c0.5,0,0.9-0.2,1.3-0.5c1.3-1.1,2.8-2.3,4.3-3.5c1-0.9,2.1-1.7,3.1-2.6c0.6,0.4,1.2,0.7,1.8,1c0.3,0.2,0.6,0.2,1,0.2
		s0.9-0.1,1.3-0.4l1.4-1.1l1.3,25.6c0,0.8,0.6,1.5,1.3,1.8c0.2,0.1,0.5,0.1,0.7,0.1c0.5,0,1.1-0.2,1.5-0.6l12.1-12.1
		c6.6-6.6,10.2-15.4,10.2-24.7V144l4.8-3.7c14.2-11.1,22.9-27.7,23.8-45.7v-1c0.1-1.3-0.4-2.7-1.4-3.6
		C147.9,89,146.6,88.6,145.3,88.6z M52.5,138.6l8.8-8.8c5.8-5.8,13.5-9,21.8-9l8.6,0.3l-15.3,18.8L52.5,138.6z M83.4,164.7
		c-1.1,0.9-2.2,1.8-3.2,2.6c-2-1.1-3.8-2.4-5.3-4c-1.5-1.5-2.8-3.3-3.8-5.2l4.4-5.3c1.3,1.8,2.8,3.5,4.4,5.1l0,0l0,0l0,0
		c1.8,1.8,3.6,3.4,5.6,4.9C84.9,163.5,84.2,164.1,83.4,164.7z M108.6,177.1l-8.8,8.8L98.5,162l19-14.8v8.1l0,0
		C117.6,163.5,114.4,171.3,108.6,177.1z M146.2,94.4c-0.8,16.8-8.9,32.4-22.2,42.7l-32.2,25c-2.7-1.6-5.2-3.4-7.4-5.5l10.8-10.8
		c0.8-0.8,0.8-2.1,0-2.9c-0.8-0.8-2.1-0.8-2.9,0l-10.8,10.8c-2-2.2-3.8-4.6-5.3-7.2l26.4-32.5c10.1-12.4,25.1-20.2,41-21.2l1.9-0.1
		c0.3,0,0.4,0.1,0.5,0.2s0.2,0.2,0.2,0.5V94.4z"/>
</g>
<g>
	<linearGradient id="SVGID_12_" gradientUnits="userSpaceOnUse" x1="4" y1="26.7028" x2="191.75" y2="26.7028">
		<stop  offset="0" style="stop-color:#FF643E"/>
		<stop  offset="0.7034" style="stop-color:#FA4E39"/>
		<stop  offset="1" style="stop-color:#F74336"/>
	</linearGradient>
	<path class="st11" d="M17.6,24.5c-4.7-1.8-6.8-3.4-6.8-6.6c0-2.3,1.8-5.1,6.4-5.1c3.1,0,5.3,1,6.5,1.6l1.2-3.6
		c-1.5-0.9-4-1.7-7.5-1.7c-6.6,0-11,3.9-11,9.2c0,4.8,3.4,7.7,9,9.6c4.6,1.8,6.4,3.6,6.4,6.8c0,3.4-2.6,5.8-7.1,5.8
		c-3,0-5.9-1-7.9-2.2l-1.1,3.7c1.8,1.2,5.4,2.2,8.7,2.2c8,0,11.9-4.5,11.9-9.8C26.3,29.5,23.3,26.7,17.6,24.5z"/>
	<linearGradient id="SVGID_13_" gradientUnits="userSpaceOnUse" x1="4" y1="26.7278" x2="191.75" y2="26.7278">
		<stop  offset="0" style="stop-color:#FF643E"/>
		<stop  offset="0.7034" style="stop-color:#FA4E39"/>
		<stop  offset="1" style="stop-color:#F74336"/>
	</linearGradient>
	<polygon class="st12" points="53.5,9.7 28.4,9.7 28.4,13.5 38.7,13.5 38.7,43.7 43.2,43.7 43.2,13.5 53.5,13.5 	"/>
	<linearGradient id="SVGID_14_" gradientUnits="userSpaceOnUse" x1="4" y1="26.7278" x2="191.75" y2="26.7278">
		<stop  offset="0" style="stop-color:#FF643E"/>
		<stop  offset="0.7034" style="stop-color:#FA4E39"/>
		<stop  offset="1" style="stop-color:#F74336"/>
	</linearGradient>
	<path class="st13" d="M62.5,9.7L51,43.7h4.5L59,33h12.1l3.6,10.7h4.7l-11.6-34H62.5z M59.9,29.6l3.3-9.8c0.7-2.1,1.2-4.1,1.7-6.2
		h0.1c0.5,2,1,4,1.8,6.2l3.3,9.8H59.9z"/>
	<linearGradient id="SVGID_15_" gradientUnits="userSpaceOnUse" x1="4" y1="26.602" x2="191.75" y2="26.602">
		<stop  offset="0" style="stop-color:#FF643E"/>
		<stop  offset="0.7034" style="stop-color:#FA4E39"/>
		<stop  offset="1" style="stop-color:#F74336"/>
	</linearGradient>
	<path class="st14" d="M98.9,27.5v-0.2c3.6-1.2,6.4-4.2,6.4-8.7c0-2.6-1-4.9-2.7-6.5c-2.1-1.9-5.1-2.8-9.8-2.8c-3,0-6.2,0.3-8.4,0.7
		v33.5h4.4V29h4.1c4,0.2,5.8,1.9,6.8,6.6c1,4.2,1.7,7.2,2.3,8.1h4.5c-0.7-1.3-1.5-4.6-2.6-9.3C103.1,30.9,101.5,28.4,98.9,27.5z
		 M93.3,25.7h-4.5V13.3c0.7-0.2,2.2-0.4,4.3-0.4c4.6,0.1,7.8,2,7.8,6.4C100.9,23.1,98,25.7,93.3,25.7z"/>
	<linearGradient id="SVGID_16_" gradientUnits="userSpaceOnUse" x1="4" y1="26.7278" x2="191.75" y2="26.7278">
		<stop  offset="0" style="stop-color:#FF643E"/>
		<stop  offset="0.7034" style="stop-color:#FA4E39"/>
		<stop  offset="1" style="stop-color:#F74336"/>
	</linearGradient>
	<polygon class="st15" points="108.1,13.5 118.4,13.5 118.4,43.7 122.9,43.7 122.9,13.5 133.3,13.5 133.3,9.7 108.1,9.7 	"/>
	<linearGradient id="SVGID_17_" gradientUnits="userSpaceOnUse" x1="4" y1="27.005" x2="191.75" y2="27.005">
		<stop  offset="0" style="stop-color:#FF643E"/>
		<stop  offset="0.7034" style="stop-color:#FA4E39"/>
		<stop  offset="1" style="stop-color:#F74336"/>
	</linearGradient>
	<path class="st16" d="M157.6,29.9c0,7.5-3.2,10.8-8.3,10.8c-4.5,0-7.9-3.2-7.9-10.8V9.7H137v20c0,10.5,5.2,14.5,12.2,14.5
		c7.4,0,12.9-4.3,12.9-14.7V9.7h-4.4V29.9z"/>
	<linearGradient id="SVGID_18_" gradientUnits="userSpaceOnUse" x1="4" y1="26.602" x2="191.75" y2="26.602">
		<stop  offset="0" style="stop-color:#FF643E"/>
		<stop  offset="0.7034" style="stop-color:#FA4E39"/>
		<stop  offset="1" style="stop-color:#F74336"/>
	</linearGradient>
	<path class="st17" d="M187.6,12.3c-2-1.8-5.2-2.8-9.5-2.8c-3.5,0-6.3,0.3-8.4,0.7v33.6h4.4V30.1c1,0.3,2.2,0.3,3.5,0.3
		c4.3,0,8.1-1.3,10.4-3.7c1.7-1.8,2.6-4.2,2.6-7.3C190.6,16.4,189.5,13.9,187.6,12.3z M177.7,26.9c-1.5,0-2.7-0.1-3.6-0.4V13.3
		c0.8-0.2,2.2-0.4,4.1-0.4c4.8,0,8,2.2,8,6.7C186.2,24.3,183,26.9,177.7,26.9z"/>
</g>
</svg>
